<svg id="Handschrift" xmlns="http://www.w3.org/2000/svg" viewBox="0 0 350 350"><defs><style>.cls-1{fill:#010101;}</style></defs><path class="cls-1" d="M307.03,86.87c-.18,1.63-.37,3.37-.63,4.48,.12-1.54,.29-3.29,.36-4.58,.08-1.43,.06-2.54-.32,.76-.39,3.5-.66,4.09-.93,4.64-.17,.36-.34,.31-.59,2.5-.27,2.31-.1,2.34-.02,2.82,.12,.82,.11,2.49-.02,4.71-.22,3.84-.38,7.81-1.26,10.93-.39,1.4-.73,5.11-1.03,8.15-.51,2.24-.77,5.46-.96,8.79-.34,6.31-.33,6.41-1.07,9.05,.63-5.59,.85-10.56,1.17-15.63-.06-.37-.2-.79-.17-1.09,.22-2.29,.29-1.19,.43-1.65,.42-4,.92-7.21,1.43-10.46,.19-1.2,.33-2.39,.39-3.55,.1-1.8-.09-1.41-.25-1.22-.26,.31-.9,5.26-.89,2.46,0-2.21,.17-5.86-.48-2.17-.86,4.96-.45,6.1-.53,8.68-.03,.99-.03,1.85-.09,2.96-.1,1.99-.37,3.56-.54,4.05-.22,.61-.52,1.33-.54,.37-.09-4.5-.87,1.87-1.37,3.64-1.14,4.03-.66,9.97-1.33,14.03-.03,.18-.06,1.4-.09,2.13,.18-.85,.39-2.1,.55-2.44,.19-.42,.17,1.2,.06,2.96-.26,4.15-.29,7.1-.15,9.54,.11,2.03-.16,4.52-.42,6.27-.19,1.23-.4,1.21-.57,3.64,.1,.36,.3,.07,.17,2.13-.08,1.18-.28,2.05-.42,3.06,.05-1.67,.14-3.35,.22-5.02-.32,1.49-.44,3.23-.24,5.23,.13,3.65,.27,6.81,.52,9.67,.2,2.27,.06,4.46-.2,5.65-.1,.46-.21,.45-.32,.5-.14,.07-.35-.16-.37,1.39-.03,1.51,.2,1.3,.33,1.76,.27,.94,.52,2.49,.79,3.09,.36,.8,.49,2.69,.33,7.03-.03,1.24-.04,2.49,.1,2.63,.11,.11,.13-1.32,.16-2.59,.02-.86,.13-4.51,.17-1.41,.16,6.43,.6,3.14,.86,5.81,.1,1,.36,1.31,.04,2.1-.26,.66-.26,2.09-.19,3.66,.08,1.57,.22,3.28,.19,4.5-.25,3-.14,7.39,.3,8.87,.63,2.16,.8,5.66,1.11,11.39,.16,3.26,.43,4.01,.66,4.03,.45,.03,.7,3.88,.97,7.88-.5,.57-1.13-.33-1.71-1.44-.6-1.15-.9,2.9-1.77-2.77-.66-2.51-1.22-10.27-1.89-11.01-.15-.16-.34-1.3-.39,.15-.05,1.44-.1,3,.2,5.31,.41,3.26,.57,5.98,.58,9.06-.03,3.88,.52,9.06,.93,13.67,.37,4.2,.8,4.6,1.21,6.39,.5,2.11,0,3.51,.59,6.49,.67,3.24,1,6.03,1.19,9.7,.08,1.27,.58,3.23,.88,4.33,.3,2.12,.57,4.37,.91,6.32,.53,2.99,.71,4.33,.25,3.07-.26-.71-.37-.59-.22,1.01,.19,2,.53,3.25,.79,4.39,.65,2.77,1.31,5.26,1.87,6.71,.94,2.4,1.4,5.12,1.91,10.14,.02,.22,.03,.41,.05,.59,0,.1,0,.17,0,.2v.13c-.03,.17-.04,.33-.04,.54,0,.26,.01,.57,.04,.89,0,.04,.02,.09,0,.12l-.14,.05c-.09,.03-.19,.07-.28,.1-.18,.07-.37,.14-.56,.21-.18,.07-.37,.14-.56,.21-.41,.18-.83,.36-1.25,.54-.89,.35-1.8,.71-2.68,1.05-1.75,.73-3.45,1.34-4.77,1.87-1.32,.53-2.26,.94-2.56,1.14-.81,.56-2.27,1.13-4.04,1.72-1.79,.52-3.87,1.07-5.93,1.57,.9-.06,2.2-.37,3.59-.67,1.39-.3,2.86-.65,4.06-.95,1.28-.3,1.87-.25,.19,.25-2.29,.71-3.06,.92-3.32,1.09-.26,.16-.01,.21-.34,.38-.54,.28-.67,.46-.99,.69-1.18,.23-2.59,.51-3.51,.59-3.53,.47-10.42,1.57-12.81,1.37-2.81,.51-4.95,.61-6.88,.76-1.94,.05-3.69,.1-5.78,.15-1.53-.1-.92-.49-4.87-.26-5.57,.23-11.48-.38-16.62-.31-1.24,0-2.32-.03-3.42-.12-.55-.04-1.1-.14-1.69-.24-.18-.03-.21-.04-.28-.06l-.19-.05c-.13-.04-.26-.08-.38-.13-.04-.01-.27-.09-.56-.19-.03-.02-.08-.01-.1-.04v-.44c-.02-.2-.02-.35-.04-.6-.02-.22-.05-.42-.08-.6l-.07-.35c-.03-.14-.06-.26-.1-.36-.13-.38-.26-.34-.38,.42-.12,.76-.9-3.57-1.22-3.75-.23-.13-.65-2.75-.48-3.47,.18-.77-.14-2.9-.71-5.57-.18-.84-.34-1.57-.48-2.41-.03-.21-.07-.43-.1-.66-.04-.27-.08-.55-.12-.85-.1-.73-.18-1.54-.28-2.49-.18-1.8-.36-3.62-.55-5.47-.1-.95-.2-1.91-.3-2.88-.05-.49-.11-.98-.16-1.47l-.08-.75-.04-.37c-.01-.13-.07-.13-.1-.2-2.18,2.08-4.6,4.48-7.12,6.81-.64,.62-1.25,1.11-1.88,1.66l-.95,.82c-.18,.16-.28,.24-.39,.32l-.32,.26c-.85,.7-1.75,1.38-2.66,2.08-3.11,2.26-3.46,2.19-3.73,2.12-.68,.43-1.36,.86-2.05,1.26,.03,.24,.22,.36,1.12,0,.89-.39,2.54-1.21,5.3-3.17,.78-.56,1.45-1,2.07-1.43,.32-.21,.62-.41,.93-.62,.39-.29,.79-.59,1.2-.9,.82-.59,1.7-1.32,2.73-2.25,1.03-.91,2.23-2.06,3.7-3.57,.82-.85,1.01-.78,.59-.22-.44,.57-1.05,1.35-2.53,2.67-1.09,.98-2.22,1.99-3.38,3.02-.59,.5-1.18,1-1.77,1.51-.49,.41-.99,.83-1.49,1.25-1.76,1.46-3.45,2.78-5.27,4.06l-1.11-.14c-.73,.47-1.48,.9-2.21,1.35-4.54,2.9-5.06,3.07-6.81,3.48l-4.71,2.41c-1.1,.79-3.7,2.13-6.19,3.31-2.48,1.22-4.85,2.29-5.34,2.87-.26,.32-2.21,1.24-4.49,2.14-3.07,1.18-2.99,.89-3.01,.68-.04-.21-.1-.38,2.39-1.51-.13-.2,1.77-1.15,2.6-1.71,2.67-1.81,1.07-1.5-6.06,1.14-2.91,1.09-8.99,3.25-9.6,3.63-2,1.38-6.29,2.39-9.36,3.42-1.78,.56-4.02,1.25-6,1.81-1.98,.56-3.67,1.07-4.32,1.42-2.38,1.17-4.37,1.41-7.03,1.88-1.78,.33-3.78,.75-5.78,1.08-2.23,.4-2.78,.6-2.29,.69,.97,.2-1.75,.89-5.39,1.43-3.83,.55-9.32,1.25-11.38,.57-.77-.02-1.57-.12-2.39-.18-.82-.08-1.67-.1-2.51-.19-1.69-.2-3.44-.34-5.1-.64-.55-.09-1.01-.16-1.41-.22-.39-.09-.72-.17-.98-.23-.53-.13-.81-.22-.93-.28-.23-.12,.22-.11,.79-.1,.45,.01,.48-.1,.55-.19,.12-.19-.91-.53-2.27-.91-.67-.22-1.43-.47-2.17-.72-.37-.12-.74-.24-1.1-.36l-.99-.4c-2.9-1.18-2.28-.71-2.86-.78-.51-.09-1.32-.17-2.29-.73-2.92-1.77-6.31-3.28-8.59-5.07-.75-.61-1.73-1.41-2.49-2.02-.74-.64-1.21-1.13-.93-1.12,.18,0,.85,.23-1.33-1.36-1.37-1.02-2.63-1.84-2.36-1.45,.93,1.27-1.12-.31-3.47-2.47-.94-.84-2-2.06-1.65-1.82,1.74,1.13,1.34,.63,.36-.25-.97-.88-2.54-2.15-2.99-2.52-2.73-2.01-4.48-4.11-6.36-6.68-1.37-1.9-2.38-3.51-3.22-4.63-.78-1.16-1.39-1.86-1.8-2.03-.31-.13-1.07-1.19-2.26-3.46-.91-1.86-1.02-2.32-1.03-2.73-.06-1.08-1.31-3.51-1.61-3.77-.36-.28-.45-.09-1.23-2.71-.3-1.12-.42-2.06-.88-3.22-2.07-4.88-3.92-11.42-5.21-17.05-.53-2.23-.96-3.16-1.29-6.71-.26-3.01-.16-4.22,.34-2.26,.35,1.29,.47,1.19,.23-1.56-.39-4.5-.98-8.94-1.12-13.62-.02-.8-.22-1.51-.29-.66-.04,.46-.02,1.34-.04,1.88-.09,2.46-.41,1.86-.69-.83-.3-3.39,.15-1.63,.17-3.02,.04-2.02-.12-2.14-.2-2.23-.57-.69-.28-5.45-.41-7.97-.24-4-.83-1.75-.81-4.6,.08-6.39-.16-6.34-.48-7.05-.1-.21-.21-1.06-.14-2.67,.05-1.31,.18-1.93,.27-1.22,.33,2.66,.57,1.3,.79-2.94,.42,1.2,.95-2.3,1.28,2.94,.1,1.48,.31-.76,.4-3.18,.14-3.17,.15-6.5,.06-8.52-.37-7.1-.34-15.44,.12-24.7,.01-.27-.03-.36-.05-.51-.18,1.72-.4,3.19-.52,3.1-.19-.14,.07-2.56,.19-3.95,.39-3.98,.83-7.18,1.36-9.47-.18,2.57-.4,5.11-.77,7.58,.25-.17,.36,2.09,.94-4.1,.23-2.42,.58-4.73,.74-7.24,.16-2.13,.35-4.24,.58-6.43,.25-2.19,.6-4.44,1.05-6.84,.35-1.76,.69-4.66,.55-5.07-.14-.39-.66,1.96-.9,3.97-.66,6.15-1.04,7.36-1.49,7.41-.24,.03-.73,2.32-.92,1.72,.36-3.28,.83-6.85,.02-3.5-1.04,4.51-1-1.85-2.37,6.73-.02,.1-.09-.76-.13-1.24-.09-1.25,.21-5.34-.45-2.55-.7,2.93-.89,6-.99,8.9-.01,.32-.05,.82-.09,1.21-.41,3.73-.96,4.53-1.18,7.99-.13,2.64,.55,.29,.3,4.78-.02,.42-.02,.82-.06,1.2-.42,5.37-.29,8.26-.22,11.76,.07,4.68,.06,5.58-.49,6.55-.25,.47-.49,2.25-.69,4.19-.19,1.94-.38,4.04-.6,5.15-.11,.5,0,2.08,.03,3.13,.05,1.43,.15,3.44,.1,4.59-.27,6.77,.07,9.2,.53,10.47,.14,.38,.31,1.18,.18,3.14-.19,2.83-.14,5.47,.07,9.36,.21,3.39-.07,1.31-.21,.45-.19-1.12-.41-3.89-.49-1.39-.06,2.54,.24,3.46,.42,4.88,.22,1.64,.21,3.02,.28,4.66,.23,7.11,1.3,14.04,2.61,19.88,.73,3.16,1.36,5.95,2.26,9.31,1.22,4.62,2.7,8.83,3.84,12.76,1.01,3.62,3.75,8.09,5.27,11.14,.87,1.81,1.57,2.94,2.19,3.88,.67,.91,1.29,1.63,2.12,2.56,.52,.54,1.24,1.34,2.05,2.29,.85,.92,1.81,1.97,2.81,3.01,2.03,2.06,4.26,4.06,5.65,5.27,1.83,1.58-.32,.62,4.06,3.73,1.07,.77,1.79,1.45,2.62,2.22,.82,.78,1.77,1.63,3.33,2.67,3.11,2.05,3.93,3.21,6.37,4.65,3.25,1.82,2,.62,3.3,1.11,.14,.05,.56,.28,.75,.36,1.1,.42,1.65,.62,1.55,.49-.1-.15-.9-.56-2.35-1.59,.69,.26,.45-.09,2.21,.91,.74,.43,1.45,.84,2.15,1.24,.73,.36,1.45,.73,2.2,1.1,.74,.39,1.56,.69,2.43,1.03,.87,.34,1.81,.68,2.88,.94,2,.59,3.87,1.11,3.67,1.19-.37,.13,.52,.53,1.92,.91,1.41,.32,3.3,.75,4.9,.88,.88,.09,1.72,.23,2.53,.3,.81,.07,1.6,.15,2.37,.22,.77,.09,1.53,.15,2.29,.18,.76,.04,1.52,.07,2.29,.11,1.54,.06,3.13-.04,4.88-.14,1.73-.18,3.61-.44,5.71-.89,.24-.06,2.23-.28,2.84-.3,.97-.02,2.17-.18,3.52-.43,1.34-.25,2.85-.5,4.37-.88,3.43-.77,6.46-1.53,9.53-2.16,4.3-.92,12.62-3.79,11.71-3.93-2.11-.22,4.75-2.26,9.88-4.19,1.54-.61,3.05-1.21,4.57-1.81,1.51-.62,3.04-1.25,4.67-1.85-.59,.75,1.28,.42,7.53-2.22,1.83-.79,3.57-1.54,5.12-2.21,1.56-.65,2.93-1.2,4.02-1.56,2.35-.75,5.01-2.3,5.5-2.88,.61-.73,2.52-1.98,5.36-3.79,1.48-.95,2.83-1.62,3.84-2.11,.97-.47,1.9-.97,.78-.06-1.69,1.33-1.92,1.74-.97,1.21,3.06-1.72,2.75-1.93,3.19-2.33,.63-.58,1.58-1.37,2.65-2.24,.53-.45,1.08-.91,1.65-1.39l.83-.73c.26-.23,.6-.52,.77-.69,1.26-1.19,2.51-2.49,3.69-3.81,1.08-1.24,.77-1.38,1.84-2.57l.09-.1s.04-.04,.05-.05v.06l.06,.3,.1,.79c.29,2.57,.12,2.29-.08,1.98-.2-.34-.42-.65-.33,.97,.04,.8-.26,.31-.26,1.05,0,.87,.05,1.55,.14,2.21,.05,.33,.11,.65,.17,.98,.08,.4,.16,.81,.25,1.22,.4,1.99,.84,4.04,1.06,6.38,.12,1.33,.54,2.65,.69,2.61,.06-.02,.06-.53,0-1.13-.09-1-.24-2.22-.39-3.41-.31-2.56-.22-3.18,.07-2.36,.39,1.1,.66,3.91,.91,5.57,.33,2.15,.49,3.82,.66,5.5,.08,.84,.17,1.69,.26,2.6,.11,1,.25,2.12,.44,3.43,.04,.27,.08,.53,.11,.79l.05,.38c-.02,.09,.08,.06,.14,.08l.18,.03c.48,.07,.95,.14,1.39,.21,.89,.14,1.69,.26,2.41,.38,1.22,.21,2.13,.37,2.75,.48,1.22,.25,1.22,.43,.01,.58-1.64,.2,.46,.74-1.54,.87-.09,.02,1.75,.3,2.85,.42,1.2,.13,3.11,.24,2.56,.08-1.68-.49,.41-.56,2.19-.77-1.58-.16-2.04-.27-2.44-.46-.92-.41-1.56-.79-.6-.95,.48-.07,1.36-.12,2.81-.14,1.45-.02,3.46,.05,6.21,.02,1.43,0,2.77-.13,1.68-.31-.65-.11-1.94-.2-3.21-.17-3.42,.04-6.8-.2-10.2-.61-1.75-.18-2.51-.4-2.8-.52-.25-.12-.08-.21,.09-.29,.54-.2,2.78,.16,4.66,.37,1.48,.2,2.77,.29,3.91,.33,1.14,.05,2.12,.07,2.99,.07,1.74-.06,3.01-.21,4.16-.38,1.07-.14,2.71-.23,2.62,.02-.19,.49,3.53,.57,8.31,.28,2.12-.12,4.25-.31,6.36-.47,2.11-.25,4.21-.43,6.26-.78,5-.81,5.13-.66,4.54-.28-.64,.4-2.17,.88-3.57,1.37-.84,.3-2.41,.56-4.21,.66-1.08,.07-2.13,.17-3.03,.3-.9,.1-1.65,.22-2.13,.37-.7,.22-1.53,.52,.24,.48,3.57-.06,7.52-.3,12.55-1.21,1.74-.36,4.13-.82,5.7-1.22,1.56-.44,2.3-.75,.8-.71-.56,0,1.68-.83,4.69-1.5,2.84-.68-.4,.43,.14,.43,.76,0,1.08,.1,.7,.37-.38,.28-1.46,.74-3.52,1.37-2.69,.82,1.27,.07,3.74-.57,.09,.43,4.15-.3,6.77-.81,1.05-.18,1.89-.33,2.64-.48,.75-.18,1.41-.37,2.13-.6,1.43-.47,3.09-1.11,5.95-2.48,.67-.32,1.37-.63,2.07-.99,.37-.19,.74-.38,1.12-.58l1.81-.88c1.19-.56,2.37-1.12,3.52-1.67,.13-.07,.32-.12,.4-.21l-.09-.47c-.06-.31-.11-.62-.17-.92-.1-.61-.21-1.2-.31-1.78-.12-.77-.24-1.45-.36-2.06-.12-.6-.25-1.24-.3-1.43-.15-.57-.29-1.04-.43-1.5-.27-.92-.51-1.81-.6-3.5-.16-3.17-1.04-4.51-1.41-7.74-.13-1.18-.52-3.28-.57-4.46-.24-4.52-1-9.12-2.02-14.09-.17-.8-.41-2.34-.55-3.44-.57-4.75-.81-7.18-1.11-8.98-.3-1.81-.62-2.99-1.21-5.26-.1-.4-.2-.76-.31-1.21-.45-1.9-.61-4.08-.73-6.48-.14-4.34,.3,1.09,.48,1.47,.19,.48,.39,1.14,.36-.22-.04-1.71-.24-2.95-.46-4.15-.5-2.74-.53-4.3-.33-5.06,.1-.39,.28-.09,.36-.66,.2-1.64,.04-4.13-.59-7.51-.2-1.08-.44-1.98-.39-3.55,.17-4.11-.58-6.53-.71-10.35-.05-2.25-.33-2.02-.48-3.13-.35-2.79,.17-3.69-.07-5.59-.55-4.34-.08-4.56-.04-6.41,.13-4.6,.08-5.09-.5-6.39-.14-.33-.23-2.17-.3-3.87,.18-.95,.35-1.85,.52-2.89,.12-.72,.23-1.81,.18-3.69-.01-.75-.18-1.51-.27-1.42-.42,.38-.38-2.12-.22-5.24,.09-1.81,.24-3.23,.38-4.95,.24-3.1,.24-3.17-.08-6.41-.08-.85-.1-2.04-.02-3.18,.1-1.58,.23-2.98,.34-4.47,.44-6.13,.55-8.68,.05-9.47-.29-.48-.6-.83-.85-1.93-.11-.49-.07-2.67,.19-2.56,.27,.12,.41-2.53,.47-4.32,.08-2.35,0-4.69,.15-6.52,.24-2.77,.09-6.94,.79-8.59,.49-1.15,.8-6.06,.95-8.7,.24-4.65,.28-8.88,1.2-10.54,.04-.07,.25-1.66,.27-2.08,.37-6.96,1.27-11.39,2.07-16.23,.62-3.75,.59-5.26,.57-6.91,.58-3.38,1.05-6.83,1.22-10.45,.1-.13,.21-.35,.34-1.62,.05-.45,0-.77,0-1.14,.42-4.89-.43-.05-.43-1.73,0-1.78,.13-4.36-.13-4.55-.1-.06-.17-.39-.27-.41-.11-.01-.39,1.21-.4,1.7-.19,5.71-1.2,8.76-1.7,13.36ZM38.36,173.16c.14-1.19,.31-2.29,.47-3.43-.02,2.05,.01,3.86-.04,6.31-.02,.67-.38,2.17-.55,2.66-.36,.27-.25-2.02,.12-5.54Zm-.15,25.1c-.19-.45-.35-1.34-.19-4.37,.11-1.7,.36-2.89,.47-2.65,.26,.56-.06,3.74-.14,5.99-.02,.37-.04,.74-.06,1.11-.03-.02-.06-.03-.09-.09Zm-.81,26.31c.04-.29,.08-.62,.12-.95,.04,.89,.07,1.76,.11,2.67,0,.02-.05,.55-.07,.54-.11-.04-.17-.81-.16-2.26Zm104.14,113.93c-1.89,.53-5.55,1.37-6.68,1.48-2.13,.22,1.46-.64,2.65-1.12,.84-.31-1.71-.04,2.42-.91,1.49-.32,2.48-.48,3.76-.73,1.28-.25,2.85-.63,5.44-1.53,.08,.07,.15,.14,.24,.2-2.56,.93-4.93,1.77-7.83,2.62Zm17.75-5.44c-1.68,.42-2.87,.61-3.8,.7-1.07,.11,1.64-.69,2.74-1.13,3.45-1.33,2.34-.64,3.11-.79l-1.01,.38c-.17,.07-.17,.1-.24,.15,.43-.18,.86-.36,1.29-.54,1.61-.46,2.06-.5,1.82-.26-.36,.35-1.79,.97-3.92,1.5Zm12.48-4.19c-.7,.27-2.03,.62-2.15,.58-.44-.16-.49-.47-.68-.73,.76-.28,1.52-.57,2.28-.85-.05,.35-.58,.88,1.41,.44,.58-.13,.54,.04-.86,.57Zm26.71-9.3c-.71,.36-1.41,.68-2.12,1.01,2.32-1.42,4.65-2.85,6.94-4.32,.31-.1,.63-.2,.98-.31-.33,.54-1.96,1.66-5.79,3.62Zm29.02-1.06c-.46-2.21-.78-4.17-1-5.91-.11-.87-.19-1.68-.24-2.45-.03-.42-.06-.83-.08-1.23-.02-.44-.04-.86-.06-1.28l.79,5.2,.77,4.83c.08,.53,.13,1.38,.1,1.59-.02,.17-.18-.26-.28-.75Zm67.74,5.75c.47-.22,1.8-.82,2.17-.94,2.08-.66,.83-.08,.25,.23-.6,.32-1.34,.7-2.18,1.08-1.23,.2-.9-.04-.24-.37Zm1.9,1.6c-1.14,.22-.08-.22,1.62-.88,.18,.06,2.22-.56,.41,.21-.35,.15-1.75,.61-2.03,.67Zm10.32-4.1c-.15,0-.6,.11-.34-.05,.15-.1,.42-.24,.85-.45,.45-.22,.94-.45,1.29-.61,1.37-.6,1.53-.59,.46-.04-.71,.36-1.51,.77-2.26,1.15Zm1.47-5.05c.02,.16,.04,.33,.06,.51l.03,.27,.02,.13s.01,.09-.05,.1c-.36,.14-.72,.27-1.02,.38-.6,.21-.93,.28-.72,.02,.05-.06,.72-.37,1.11-.57,.08-.04,.18-.06,.24-.1l-.03-.25c-.02-.17-.04-.33-.05-.48-.03-.31-.06-.61-.07-.85-.02-.48,.01-.78,.18-.55,.11,.14,.25,.84,.3,1.39Zm-.4-7.42c.56,2.96,.31,2.83,.15,3.05-.29-.14-.82-1.61-1.48-4.32-.01-1.46-.18-3.81,.02-4.05,.14-.16,.8,2.51,1.31,5.31Zm-.66-9.4c-.07-.04-.14-.03-.22-.18-.22-.39-.42-.19-.86-2.94-.16-.99-.14-1.34-.02-1.08,.31,.67,.44-.17,1.11,4.2Zm.94-13.42c.01,1.02,.02,1.69,.03,2.17,0,.48,0,1.32-.29-.38-.24-1.38-.24-2.19-.16-2.31,.08-.11,.22,.25,.42,.51Zm-8.16-37.12c.4,6.39,.72,6.19,1.06,6.13,.11-.02,.12,.23,.22,2.68,.01,.33-.03,.45,0,.77,.26,2.97,.6,.89,.7,4.03,.09,2.65,.22,4.16,.65,6.4,.47,2.52,.89,5.09,1.17,8.36,.79,6.45,.8,7.61-.02,4.7-.53-1.92-1.1-3.58-1.67-8.49-.29-2.43-.42-2.54-.5-1.73-.05,.62-.42-.54-.36-1.81,.09-2.77-.45-7.51-.86-11.86l-.68-8.94c-.04-.62-.02-1.35,.03-1.4,.04-.06,.24,.97,.26,1.16Zm3.01-4.2c-.06,.14-.11,.33-.17,.43-.08,.15-.17,.24-.25,.35,.02-.68,.02-1.58,.09-1.75,.06-.18,.21,.61,.33,.97Zm-2.12-30.44c-.04,.85-.13,1.59-.1,2.6,.17,8.55-.23,1.77-.46-.41,.13-.77,.12-1.63-.07-2.58,.14-2.94,.32-3.96,.64,.39Zm-1.02-4.68c-.09,4.21,.16,3.91,.37,4.31l.07,2.5c-.4-.44-.76-1.39-.81-7.75,0-1.19,.03-2.5,.17-1.98,.12,.41,.23,1.62,.2,2.92Zm-.86-64.17c-.16,1.45-.45,2.47-.61,2.53-.31,.11,.11-3.05,.18-4.61,.3-6.71,.37-3.23,.49-2.28-.12,2.03,.15,2.42-.06,4.35Z"/><path class="cls-1" d="M52.43,98.3c.07,.5,.42-.3,1-2.05,.89-2.61,1.07-2.46,.1,1.23-1.31,5.06-1.12,5.72-1.54,8.33-.49,3.01-.21,2.09,.57-.58,.43-1.47,.83-2.78,1.26-4.13,.06-.15,1.06-3.62,2.14-7.05,1.07-3.43,2.14-6.84,2.17-6.91,.16-.83,.39-1.87,.44-2.34,.05-.67,1.77-7.87,2.17-9.24,.89-3.04,1.82-5.14,2.69-8.28,.5-1.83,.78-2.39,.79-2.06,.07,1.81,1.25-2.66,1.86-5.02,.55-2.16,.82-3.45,1.73-5.33,1.34-3.41,2.77-6.78,3.57-10.36,1.44-3.73,2.81-6.5,4.42-11.3,.38-1.14,.99-2.8,1.1-3.3,.34-1.49,1-3.53,1.8-5.72,.35-.95,.71-1.94,1.07-2.92l.09-.25c.06-.06,.14-.1,.22-.15l.46-.3c.45-.29,.9-.58,1.33-.87,1.1-.29,1.59-.45,2.59-.98,.51-.24,1.15-.58,2.06-1.07,.45-.25,.97-.53,1.57-.87,.3-.17,.62-.34,.97-.54,.36-.17,.74-.34,1.14-.53,2.53-1.15,3.78-1.96,5.23-2.59,.71-.34,1.45-.69,2.39-1.09,.47-.19,.98-.44,1.58-.63l2.04-.63c2.9-.93,5.04-1.35,6.35-1.61,1.31-.26,1.82-.28,1.57,0-.35,.39,.2,.31,1.36,.2,1.16-.13,2.92-.45,4.99-.73,12.73-1.39,25.81,.14,37.75,4.56,1.23,.51,2.36,.98,3.39,1.41,.52,.21,1.01,.41,1.49,.61,.47,.21,.9,.44,1.32,.63,.28,.13,.55,.26,.8,.38l.58,.26,.56,.24,.27,.11c.06,0,.05,.05,.04,.09l-.02,.12c-.09,.62-.12,1.14-.1,1.6,0,.12,.02,.23,.03,.34,0,.16,0,.32,0,.47,.02,.3,.05,.55,.11,.78,.22,.91-.81,4.57-1.36,7.23-.31,1.5-.77,3.32-1.25,4.57-.84,2.19-.75,1.01-.52-.67,.03-.22,.13-.65,.15-.84,.27-2.38-.64-.51-2.07,4.43-.68,2.29-1.25,4.79-1.95,7.18-1.21,4.17-.74,3.43-.27,2.42,.54-1.16,1.74-5.13,1.75-4.01-.59,2.22-1.15,4.9-1.85,6.5-1.13,2.6-1.72,5.75-2.61,8.46l.28,.49c-.25,.82-.51,1.63-.76,2.45-.44,.76-1.01,2.05-1.86,4.6-.93,1.3-.92,1.33-2.21,6.07-1.34,4.92-1.88,6.41-3.04,8.52-.2,.35-.23-.53-.84,2.07-1.12,4.77-2.26,7.94-3.76,11.92-1.29,3.48-3.34,10.97-3.52,12.56-.03,.16-.49,2.34-.94,4.48-.22,1.07-.44,2.14-.6,2.94-.08,.4-.14,.73-.19,.97-.04,.23-.06,.37-.05,.38,.24,.15-.29,2.21-.9,4.48-.61,2.27-1.21,4.76-1.26,5.73-.02,.53-2.03,7.67-.22,2.64,.11-.29,.14,.13,.06,.42-.5,2.02-1,4.08-1.51,6.12-.46,2.05-.93,4.09-1.43,6.05-.69,2.7-.69,1.34-.89,1.29-.19-.05-.51,.67-1.14,2.87-.57,1.95-.93,2.98-1.24,3.82-.32,.83-.61,1.45-.98,2.58-.6,1.84-1.52,6.89-2,7.13-.63,.27-1.16,5.19-1.7,7.94-.87,4.43-.36,3.33-.24,3.63,.12,.29,.35,.01,.54-.02,.75-3.54,1.22-4.9,1.49-4.68,.19-1.25,.48-3.26,.55-3.49,1.04-3.35,1.56-3.13,2.08-3.37,.27-.11,.05,1.03-.23,2.39-.24,1.37-.57,2.95-.61,3.69-.05,.74-.18,1.95-.11,2.09,.21,.42,.17,1.67-.5,5.5-.21,1.19-.2,1.57-.01,.77,.23-1.02,.63-3.14,.69-3.2,.3-.33-.28,2.06-.44,3.17-.19,1.12-.41,3.18-.4,3.41,.07,.62,.38-.93,.64-2.38,.64-2.88,1.29-6.57,1.83-9.13,.9-4.49,1.6-6.15,.78-5.48-.43,.36-.1-2.05,1.11-5.87,.51-1.62,.82-3.86,1.03-5.41,.23-1.42,.06-1.58,.55-3.84,.14-1.09,.32-1.91,.64-2.6,1.07-3.74,.97-1.86,1.74-4.08,1.01-3.04,1.72-6.86,2.51-9.13,1.95-5.39,1.61-5.91,1.62-6.93,0-.77-.94,1.26,.2-2.86,.9-3.29,1.52-4.17,2.3-6.37,.61-1.72,.94-2.25,1.25-2.7,.68-.97,2.66-6.31,3.16-8.13,1.22-4.47,2.32-7.63,3.55-11.27,.18-.53,.5-1.75,.55-2.09,.34-2.2,.03-2.34-.81-.75-1.5,6.08-1.58,4.4-2.31,6.28-.59,2-1.29,4.75-1.67,5.79-.96,2.61-.15-.4,.11-1.71,.28-1.38,.6-3.39,.55-3.25-1.61,4.33-1.31,2.18-1.53,1.75-.03-.06-.38,.88-.61,1.51-.29,.79-.43,1.39-.45,1.78-.05,.91,.59-.12-.62,4.05-1.16,4.01-1.54,4.02-2.27,5.98-.6,1.62-1.21,3.59-1.83,5.53-.19,.6-.42,1.08-.51,1.21-.04,.06,.21-1.12,.33-1.48,2.37-7.63,3.84-14.23,6.3-21.9,1.46-4.49,2.77-8.87,2.52-6.13-.05,.52,.57-1,.79-1.81,1.38-5.19,4.37-13.1,4.48-16.08,.02-.58,.32-2,.93-3.63,1.13-3.01,2.21-6.09,3.21-9.3,.98-3.22,1.9-6.57,2.75-10.13,.2-.84,.37-1.4,.53-1.6,.39-.49,0,1.42-.21,2.76-.31,2.01-.92,3.32-1.43,4.73-.31,.84-.55,1.61-.58,1.95-.02,.29,.04,.34,.16,.13,.31-.55,.81-1.92,1.32-3.57,1.02-3.29,2.18-6.87,2.93-9.93,.93-3.67,1.71-4.29,2.64-8.9,.39-2.11,1.18-3.96,1.67-5.21,.72-1.87,.05,1.25-.02,2.27-.09,1.85-2.2,8.37-1.72,8.33,.29-.02,.81-1.8,1.39-3.88,.59-2.08,1.12-4.51,1.63-5.78,.46-1.19,.91-2.7,1.2-3.99,.09-.4,.17-.78,.24-1.13,.09-.45,.17-.86,.23-1.21,.12-.71,.15-1.19,.08-1.36-.07-.17-.08-.46-.02-.9,.03-.22,.07-.47,.13-.76,.03-.15,.06-.3,.1-.47,.02-.08,.04-.17,.06-.26,.01-.09,.08-.2-.05-.22-.71-.34-1.55-.77-2.57-1.3-.93-.49-2.02-1.06-3.29-1.73-.58-.33-1.19-.61-1.81-.86-.61-.26-1.22-.51-1.82-.76-1.21-.47-2.34-.99-3.43-1.27-2.17-.63-3.93-1.04-4.82-1.1-1.34,0-5.3-1.02-6.47-.98-1.32,.01-2.18-.11-3.79-.61-.41-.13-1.14-.36-1.44-.45-.26-.1,0-.2,1.63,.05,1.14,.17,2.67,.46,3.69,.6,1.28,.17,.56-.15-.11-.25-1.94-.3-3.24-.55-4.31-.8-1.07-.24-1.91-.39-2.89-.64-2.28-.53-3.93-.91,.87-.55,.88,.07,.17-.19-1.74-.39-2.9-.35-3.78-.47-4.96-.7-.71-.12-1.12-.27-2.88-.28-1.61,.04-3.1,.2-2.56,.35,.56,.16,1.2,.32,1.83,.48,.63,.16,1.25,.39,1.76,.58,.25,.1-.25,.2-.99,.23-1.03,.05-2.37,.05-3.3-.03-1.05-.07-1.92-.13-2.63-.16-.71-.03-1.24,.03-1.63,.06-.77,.08-.91,.23-.54,.47,.35,.23,.37,.36-.54,.47-.91,.15-2.76,.13-6.13,.61-7.61,1.32-15.21,3.51-21.99,6.22-1.27,.53-2.45,.85-3.62,1.37-1.17,.5-2.41,1.03-3.87,1.76-2.38,1.28-2.97,1.89-3.51,2.37-.13,.13-.26,.25-.41,.38-.17,.15-.39,.33-.65,.53-.26,.2-.58,.43-.98,.7-.23,.42-.38,1.02-.65,1.67-.13,.36-.26,.72-.38,1.07-.11,.33-.22,.66-.33,.99-.21,.66-.41,1.31-.62,1.97-.25,1.17,1.24-1.54-1.44,5.07-1.09,2.73-2.31,6.73-3.44,10.17-.27,.84,.05,.32-.74,2.4-2.52,6.73-2.54,6.95-2.12,7.07,.13,.04,.65-1,.09,.87-.49,1.66-1.08,3.04-1.6,4.37-.52,1.31-1.07,2.76-1.37,3.16-.19,.25-.48,.84-.72,1.28-.09,.55-.32,1.52-.25,1.56,.41,.19-.43,4.4,2.31-2.93,.3-.77,.02,.5-.32,1.68-1.86,6.38-2.52,5.64-4.27,11.56-.16,.54-.71,1.85-.86,2.02-.15,.18-.17-.3,.02-1.02,1.96-7.27,1.34-6.97,.87-7.25-.24-.15,.45-2.46,1.27-5.02-3.35,9.14-4.26,12.79-3.41,12.43,.11-.04,.56-1.18,.34-.11-.9,4.09-4.11,12.8-3.9,15.05-.33,.98-.69,2.03-.99,2.92-.44,1.23-.81,2.27-1.26,3.53-.34,1-.74,2.43-.9,3.38-.14,.83-.17,1.38-.14,1.64Zm74.38,54.1c-.11,.29-.32,1.01-.33,.86-.02-.37,.14-1.38,.46-2.67,.08-.32,.22-.81,.23-.77,.04,.31-.1,1.26-.37,2.58Zm30.48-113.08c-.09,.34-.41,.93-.54,1.08-.15,.17-.21,.03-.3,0,.53-1.78,1.19-4.26,1.4-4.13,.12,.07-.08,1.25-.56,3.05Zm-.48-28.64c.83,.27,1.64,.62,1.7,.75,.03,.07-.62-.11-1.16-.31-.56-.21-1.37-.59-2.06-.89,.5,.15,.95,.29,1.52,.46Zm-9.57-1.94c-.25-.26-2.19-1.02,1.77-.08,2.94,.93,5.82,1.87,7.05,2.77,.56,.37,1.71,.96,2.39,1.37,1.78,1.09,.41,.74-4.23-1.24-2.37-.83-4-1.49-6.07-1.94-.07-.01-1.3-.41-1.68-.57-1.19-.48-.17-.39,.76-.31Zm-13.16-2.87c1.55,.19,1.24,.27,1.12,.33-.08,.05-.79,.02-1.22,.02-.22-.09-.45-.17-.68-.26,.26-.03,.59-.11,.78-.09Zm-30.5,2.95c-.1,.35-1.52,.94-5.09,2.09,.09-.34-.56-.55,5.09-2.09Zm-7.37,2.92c.69-.24,1.42-.5,2.13-.75-.32,.21-.39,.37-1.1,.66-1.94,.79-4.19,1.45-4.38,1.46-.13-.01,.37-.29,1.09-.56,.72-.26,1.63-.58,2.26-.81Zm-7.64,1.16c1.51-.58,2.66-.98,1.99-.51-.2,.14-1.1,.56-1.68,.85-1.03,.4-1.47,.59-1.65,.62-.18,.03-.09-.1,0-.22,.11-.17,.62-.48,1.34-.74Zm-3.43,4.69c.32-.16,.77-.38,1.14-.56l.47-.22c.12-.05,.19-.08,.19-.08,0,.13-1.2,.75-2.06,1.2-.99,.48-1.91,1.11-2.87,1.67,.59-.49,1.67-1.32,3.11-2.01Zm-7.52,4.33c.12-.32,.26-.67,.39-1.01l.14,.21c-1.08,2.8-1.13,4.16-2.7,7.71-.13,.28-.32,.67-.3,.58,.34-1.64,1.42-4.61,2.48-7.49Zm-2.2,9.26c.38-1.06,.76-2.14,1.13-3.2,.14-.1,.38-.45,.41-.26,.09,.55-1.58,4.88-1.2,4.98-.62,1.2-.89,1.78-.95,1.81-.31,.15-.65,.33,.61-3.33Zm-4.95,11.36s.45-.91,.41-.7c-.14,.82-.69,2.42-1.29,4.05-.37,1.01-.53,1.32-.44,.73,.36-1.12,.83-2.58,1.32-4.08Zm-15.16,49.27c.41-1.36,1.11-4.11,1.13-3.45,.02,.8-.41,3.04-1.28,6.32-.62,2.27-1.13,3.7-1.38,3.95-.21,.24,.08-1.31,.56-3.16,.33-1.24,.65-2.47,.97-3.66Z"/><path class="cls-1" d="M129.27,246.15c-.54-.36-1.09-.85-1.73-1.48-.3-.33-.6-.71-.93-1.14-.34-.42-.67-.89-1-1.44-1.36-2.15-2.81-5.31-3.97-9.93-.8-.25-1.6-.5-2.39-.74-.1-.03-.23,.06,.12,1.62,.19,.72,.47,1.71,.7,2.3,.74,1.92,1.49,3.65,2.47,5.45,.46,.9,.75,1.15,1.15,1.66,.38,.51,.83,1.29,1.88,3.12,.53,.85,.21,.58-.25,.03-.46-.55-1.09-1.37-1.31-1.54-.33-.28-1.39-1.96-1.71-2.3-.23-.24-1.06-1.85-1.56-3.12-.56-1.25-.89-2.14-.6-.79,.15,.48,.55,1.83,1.26,3.36,.17,.38,.35,.78,.53,1.19,.2,.4,.41,.8,.61,1.2,.39,.81,.84,1.57,1.24,2.25,.43,.79,.94,1.5,1.38,2.09,.22,.3,.42,.57,.6,.8,.2,.22,.37,.4,.5,.54,.56,.55,.53,.39-.42-1.08-.81-1.42,.23-.07,.78,.39,.37,.32,.77,.66,1.29,1.16,.53,.49,1.22,1.12,2.15,2.01,.56,.47,1.09,.96,1.45,1.33,.37,.36,.6,.58,.47,.61-.21,.03,.35,.47,1.19,1.05,.41,.3,.95,.53,1.46,.82,.52,.26,1.02,.56,1.51,.74,1.87,.74,1.37,.41,5.04,1.44,.58,.17,1.27,.27,2.02,.36,.75,.12,1.56,.13,2.38,.15,.83,.05,1.66-.06,2.49-.09,.82-.07,1.61-.2,2.35-.3,.73-.16,1.4-.3,2-.43,.58-.16,1.08-.31,1.45-.44,.75-.25,1.01-.43,.54-.41-1.38,0-.86-.26,.19-.63,.53-.19,1.18-.43,1.81-.66,.63-.25,1.23-.49,1.65-.69-.64,.1-1.56,.29-1.81,.28-.22-.01,.64-.29,.93-.32,.48-.05,.69,0,1.02,0,4.38-1.27,4.53-1.76,5.41-2.3,1.45-.96,3.62-1.97,8.56-4.09,3.39-1.49,5.08-2.32,6.86-3.16,.9-.4,1.79-.87,2.94-1.41,.57-.27,1.2-.58,1.92-.92,.71-.36,1.5-.77,2.41-1.24,.95-.47,2.33-1.3,2.15-1.05-.21,.34-1.66,1.06-2.56,1.6-4.42,2.69-9.07,5.02-13.81,7.19-2.92,1.31-7.15,3.03-2.67,1.61,.47-.16,2.65-.87,3.23-.92,.57-.06-.41,.66-6.42,3.16-.54,.21-1.53,.87-1.8,1.1-.35,.32-1.95,1.08-3.27,1.67-1.32,.58-2.32,1.02-1.35,.86,.91-.15,2.88-.76,5.06-1.59,2.19-.83,4.6-1.86,6.56-2.66,1.14-.44,2.54-1.09,3.98-1.82,1.46-.71,2.95-1.53,4.3-2.32,2.71-1.55,4.81-3.05,4.87-3.31,.08-.36,.55-.95,1.56-1.82,.5-.43,1.14-.94,1.92-1.53,.77-.61,1.68-1.32,2.76-2.11,1.29-.96,.32-.78,3.2-2.63,1.58-1.01-.64,.88-.76,1.2-.1,.29-.34,.8-1.61,1.76-1.98,1.47-.9,.81,.87-.29,1.76-1.17,4.21-2.88,4.64-3.01,.7-.16,1.86-.85,3.15-1.87,.63-.52,1.31-1.12,1.99-1.75,.34-.32,.68-.64,1.03-.96l.97-1.03c2.35-2.48,3.7-4.02,5.77-5.8,1.33-1.26,2.23-2.27,2.88-3.3,.65-1.03,1.17-1.99,1.91-3.06-.34,.31-.94,.97-.94,.81,0-.45,1.19-2.54-1.27,.5-.75,.94-1.31,1.67-1.8,2.24-.47,.58-.81,1.05-1.1,1.47-.29,.43-.55,.82-.83,1.25-.32,.41-.68,.85-1.18,1.39-.57,.61-1.15,1.24-1.73,1.87-.58,.75-1.23,1.32-1.94,1.79-1.67,1.49-3.07,2.43-4.02,3.17-.95,.73-1.57,1.09-1.82,1.22-.53,.23,.35-.52,2.01-2.29,1.84-1.84,3.2-3.57,2.85-3.74-.26-.13-.28-.32,.54-1.15,.21-.21,.46-.46,.77-.76,.3-.32,.66-.69,1.08-1.13,.42-.43,.91-.93,1.47-1.51,.57-.57,1.13-1.28,1.82-2.05l.27,.34c1.11-1.2,1.63-1.64,1-.68-.8,1.21-1.33,2.13,.42,.17,.74-.78,1.32-1.64,1.92-2.36,.57-.75,1.15-1.38,1.56-1.98,.85-1.18,1.48-1.91,1.74-1.93,.14-.02,.55-.46,1.01-1.17,.44-.73,.99-1.7,1.55-2.71,.6-.99,1.01-2.09,1.45-2.96,.21-.44,.4-.83,.57-1.14,.19-.37,.35-.66,.48-.84,.19-.24,.18-.54,.27-.87,.06-.39,.1-.64,.14-1.01,.07-.73,.11-1.78,.14-3.45,.02-1.51,.12-3.74,.24-5.12,.3-3.46,.15-.33,.14,.82-.01,.98-.14,3.08,.1,1.64,.35-2.2,1.02-13.72,.8-14.27-.55-1.38-.09-6.2,.14-10.31,.25-4.78,.54-9.58,.84-14.33,.35-5.37,.32-7.47-.2-5.83-.32,1.01-.28-.7-.1-3.22,.24-3.21,.4-6.79,.86-9.06,.37-1.83,.75-6.28,1.14-6.26,.37,0,.7-4.47,.93-7.61,.25-3.4-.03-3.44-.22-3.72-.1-.14-.2-.26-.26-.72-.04-.25-.03-1.44,0-1.8,.18-1.78,.18-.1,.28-.33,.46-1.1,.83-4.87,.62-6.45-.4-3.09,.08-5.09,.48-6.93,.42-1.89,.81-2.95,.42-5.36-.24-1.53-.15-4.58,.26-9.14,.23-2.54,.41-5.21,.6-7.82,.05-.64,.11-1.54,.16-2.29,.03-.37,.05-.71,.06-.95,.01-.24,.02-.4,.02-.4-.18-.18-.3,2.53-.45,3.26-.47,2.35-.89,5.05-1.39,8.97-.46,3.68-.88,3.05-1.22,2.56,.16-5.51,.25-10.93,1.16-17.55,.07-.53,.16-1.78,.18-2.43,.03-1.05,.03-1.95,.01-2.73,0-.09-.19,.82-.25,1.44-.53,5.18-1.08,9.82-1.68,12.51,.15-3.19,.31-6.46,.46-9.51,.03-.76-.11-.97-.2-1.1-.09-.13-.17,.56-.21,1.45l-1.31,10.87c-.33,2.56-.13-.16-.11-.75,.03-1.06,.08-2.31,.11-3.46,.03-.91,.17-2.76-.06-1.6-.07,.33-.18,1.64-.23,2.38-.24,4.21-.42,8.26-.84,12.78-.21,2.26-.29,2.55-.4,1.61-.34-3.07-.34-2.97-.91,4.39-.24,2.98-.52,5.99-.81,8.8-.39,3.82-.43,6.79-.54,9.98-.08,2.32,.24,2.86,.2,3.25-.29,2.66-.37,.21-.62,1.34-.19,.91-.38,2.48-.42,4.28-.04,2.24-.07,4.57-.03,6.28,.07,2.76-.13,4.22-.44,5.95-.13,.71-.26,2.04-.27,3.32,0,1.69,.15,1.53,.3,1.48,.14-.04,.3-.18,.39-2.81,.09-2.71,.25-5.27,.57-6.85,.16-.78,.37-2.26,.44-1.03,.04,.88-.09,2.34-.19,3.62q-.82,10.12-.44,15.58c.02,.23,.04,.44,.06,.63,.1,.79,.09,2.27-.03,4.13-.13,1.97-.33,3.32-.46,3-.42-1.06-.65,3.77-.92,7.01-.35,4.15-.5,7.67-.31,10.32-.49,4.39-.48,7.21-.23,9.3,.04,.35,.05,1.12,.07,1.7-.11,.23-.22,.5-.32,.67-.03,.05-.06-.14-.09-.32-.1-.75-.21-1.44-.38,1.08-.1,1.6-.23,3.9,.01,3.54,.24-.36,.23,1.63,.29,3.1,.03,.74,.03,1.28,0,1.81-.02,.27-.04,.53-.08,.81-.02,.12-.04,.34-.06,.4l-.07,.25c-.06,.22-.23,.36-.39,.67-.18,.33-.34,.65-.5,.95-.31,.61-.57,1.17-.79,1.71-.5,1.06-.91,2.04-1.27,3.22-.25,.88-.39,1.38-.67,2.16-.15,.4-.33,.84-.64,1.46-.16,.31-.34,.66-.58,1.08-.27,.39-.58,.85-.96,1.37-1.69,2.45-3.15,3.76-3.76,4.2-.47,.31-.46,.02-.65-.02,.95-1.18,2.06-2.38,2.44-3.19,.8-1.69-.66-.21-1.02-.27-.14-.04,.85-1.55-.74,.39-.59,.68-1.62,2.02-1.87,2.43-.98,1.42-2.22,3.11-5.09,5.53-.08,.26-.31,.6-.66,.95-.36,.35-.82,.73-1.32,1.14-.51,.39-1.06,.82-1.61,1.24-.56,.4-1.11,.8-1.61,1.17-.64,.49-1.32,1.01-1.97,1.51-.67,.49-1.33,.97-1.94,1.4-.57,.42-1.07,.82-1.57,1.21-.51,.37-1,.73-1.51,1.11l1.56-.93c.51-.33,1.01-.67,1.52-1.01,1.81-1.26,3.27-2.26,4.28-2.97,1.03-.67,1.66-.99,1.82-.86,.17,.14-.14,.59-1,1.33-.86,.74-2.19,1.86-4.19,3.19-.74,.5-1.31,.92-1.79,1.29-.5,.35-.91,.67-1.3,.97-.79,.6-1.48,1.21-2.75,1.98-.88,.54-1.33,.94-1.93,1.38-.6,.45-1.37,.93-2.91,1.58-1.7,.73-.48-.07,1.22-1.13,3.45-2.29,1.9-1.85,1.65-2.08-.14-.12-1.08,.34-2.34,.96-1.28,.6-2.84,1.43-4.23,2.06-.75,.54-1.51,.91-2.27,1.13-.29,.16-.71,.4-1.05,.59-.35,.18-.62,.33-.62,.35,.13,.35,.17,.4-4.64,2.85-.79,.39-.53,.48-1.31,.88-1.66,.86-3.14,1.65-4.92,2.45-1.78,.8-3.87,1.58-6.72,2.21,2.15-.85,3.47-1.62,1.48-1.31-.46,.05-1.44,.07,.87-.51,3.18-.84,4.6-1.48,5.43-1.93,.84-.45,1.1-.77,1.97-1.26-3.62,1.46-7.76,2.69-10.6,3.76-.77,.27-1.39,.48-1.9,.62-.51,.12-.92,.19-1.28,.24-.71,.11-1.21,.03-1.92,.05-.33,0-.74,.01-1.22,.02-.48,0-1.04,.08-1.65,.11-.42,.04-.94,.09-1.33,.13-.38,.02-.64,.05-.54,.08,1.61,.47,.81,.75-1.22,.88-.51-.01-1.08-.03-1.7-.05-.61-.07-1.29-.15-1.98-.27-1.37-.3-2.85-.69-4.19-1.33-1.11-.45-1.87-.93-2.51-1.31-.66-.35-1.09-.78-1.56-1.14-.48-.37-.89-.82-1.39-1.4-.53-.55-1.06-1.33-1.78-2.34Zm-6.86-8.16c-.5-1.19-.6-2-.65-2.56,.24,.54,.47,1.06,.83,1.9,.68,1.64,.66,1.96,.55,1.9-.12-.05-.45-.58-.72-1.25Zm102.17-114.78c-.13,1.54-.2,3.54-.41,4.2-.17,.52-.24-4.51-.08-6.98,.24-3.61,.56-3.88,.7-3.91,.41-.08-.1,4.2-.21,6.68Zm1.14-21.2c-.08,1.4-.2,2.11-.33,2.4,0-.44-.04-1.08-.02-1.29,.07-.69,.17-1.31,.25-1.79,.12-.71,.16-.43,.1,.68Zm-1.45,7.11c-.12-1.21-.24-2.42-.37-3.64,.4-1.87,.86-6.8,1.21-6.26-.26,3.46-.3,7.07-.79,10.38l-.06-.49Zm.28,.28c.36-.75,.89-3.84,.97-.32-.42,1.71-.87,3.94-1.26,4.93-.27,.69-.08-2.23,.07-4.38,.07-.07,.14-.07,.22-.24Zm-3.44,15.33c.08-1.85-.3-1.35,.28-5.23,.58-3.85,.99-6.6,1.14-2.86-.09,1.28-.2,2.59-.27,3.84-.12,2.24-.09,5.56-.47,6.05-.25,.32-.99,5.95-.68-1.81Zm.1,7.55c.69-3.8,1.16-1.84,1.9-6.4,.14-.84,.39-.32,.19,2.79-.12,1.77-.34,3.71-.48,3.55-.42-.49-.96,2.63-1.47,4.68-.19,.79-.38,.54-.31-2.06,.21-.72,.25-1.6,.17-2.56Zm-1.64,40.15c.25-2.8,.53-4.75,.81-4.74,.33,.02,.53,1.45,.57,4.61,.01,1.05-.12,2.51-.25,2.89-.43,1.26-.69-1.25-1.15,.93-.19-.34-.12-2.11,.03-3.68Zm2.27,3.38c.03,.27-.03,1.5-.07,2.26-.07,1.23-.18,2.76-.28,2.12-.14-.87-.35,.82-.52,1.07,.06-1.47,.12-2.93,.17-4.4,.24-.38,.55-2.64,.7-1.05Zm-1.17,11.67c-.09-1.33-.12-4,.29-6.01-.02,1.56,.03,2.56,.15,2.83,.23,.5,.19,2.57,.04,5.26-.17-.62-.39-.74-.48-2.08Zm.5,2.22c.07-.26,.14-.48,.21-.8,.24-1.14,.51-2.26,.56-.04,.02,1.1,.05,.04-.09,.62-.26,1.07-.68,4.85-.68,.22Zm-15.09,32.86c.32-.24,.36-.15,.5-.17-.79,.85-1.38,1.31-1.38,1.17,0-.13,.66-.86,.88-1.01Zm-63.21,31.98c1.35,.19,2.91,.43,4.17,.47,1.12,.06,.78,.18-.08,.28-.53,.08-1.14,.11-1.77,.11-.32,0-.63,.01-.95,.02-.32-.02-.63-.03-.93-.05-1.22-.01-2.25-.22-2.68-.13-.73,.04-2.25-.16-5.04-1.64-1.04-.53-1.57-.96-1.87-1.2-.3-.24-.35-.33-.31-.35,.08-.05,.51,.12,.03-.27,.13-.02,.58,.15,1.21,.45,.63,.3,1.52,.58,2.43,.97,1.89,.66,4.18,1.1,5.79,1.34Z"/><path class="cls-1" d="M227.16,61.77c.32-3.22,.67-7.31,1.01-9.36,.25-1.5,.49-.49,.73-.52-1.05,10.05-1.03,10.81-.08,8.14,.29-2.09,.52-2.82,.49-.87-.04,2.97,.11,2.92,.56,.24,.19-1.11,.37-.65,.55-.8-.34,2.19-.68,4.37-1.02,6.59-.1,.63-.26,1.67-.27,2.03-.06,1.42,.08,1.09,.22,.58,.37-1.36,.74-2.59,1.12-4.21,.35-1.48,.56-4.38,.76-6.92,.21-2.73,.32-5.08-.02-4.4-.17,.34-.35,.58-.18-1.64s.37-2.4,.53-2.6c.34-.46,.47-4.55,.8-5.93,.34-1.44,.71-3.49,1.06-5.27,.05-2.95-.48,.25-.64-.42-.11-.47-.3-.92-.05-3.57,.48-5.15-.04-2.92-.16-3.64,.44-3.36,1.1-5.81,1.17-10.66,.01-.92,.11-2.15,.24-3.48,.11-1.07,.22-2.22,.33-3.26-.19-.86,.71-.65,1.21-.8,.57-.1,1.12-.19,1.63-.28,1.33-.23,2.55-.46,3.5-.67,1.92-.42,2.93-.77,2.59-1.02-.1-.08-1.16-.08-2.1-.03-1.5,.06-2.64,.33-2.84,.43-.26,.15-1.48,.39-2.42,.59-.97,.21-1.73,.4-1.41,.52,.12,.05,.04,.1-.17,.17l-.18,.05-.1,.02s-.08,.01-.07,.07c0,.18-.02,.37-.03,.59-.05,.83-.15,1.84-.21,2.54-.22,2.26-.4,1.95-.48,1.64-.37-1.23-1.02,1.35-1.7,4.35,.16-2.44,.24-4.45,.28-6.25,.03-1.11,.05-2.14,.08-3.1,0-.51,.02-1,.02-1.48,.02-.1-.04-.28,.05-.33l.31-.07,.61-.14-.6,.08-.3,.04s-.11,0-.14,.03l-.02,.15-.12,1.21c-.09,.81-.17,1.61-.26,2.39-.06,.52-.12,1.07-.18,1.57-.06,.41-.11,.78-.15,1.09-.1,.61-.19,.91-.24,.55-.02-.13,0-.64,.04-1.26,.06-.77,.13-1.69,.19-2.41,.08-.82,.16-1.68,.24-2.54l.06-.65,.03-.32,.02-.16s.1-.02,.15-.03c.43-.06,.87-.11,1.3-.17l-.84,.06-.43,.03h-.21c-.1,0-.05,.12-.08,.16l-.26,1.56-.54,3.28c.18-1.49,.33-3.07,.47-4.68,.02-.2,.03-.41,.06-.6l.59-.08,1.18-.17c.79-.12,1.57-.23,2.33-.34,.7-.1,1.37-.2,2.02-.29l1.38-.18c.87-.1,1.64-.17,2.24-.17,2.62,0,2.48,.47,3.39,.76,.24,.08-.23,.23-.08,.32,.21,.13,1.06,.19,3.11,.05,1.56-.11,3.38-.23,4.3-.35,.94-.12,1.8-.32,1.22-.41-3.82-.55,2.36-.58,6.18-.73,1.85-.08,3.32-.04,5.01-.03,1.53,0,2.08-.11,2.13-.22,.06-.11-.41-.21-2-.19-1.71,.02-3.45,.05-5.14,.07-1.34,0-2.38-.08-2.07-.21,1.38-.59,8.36-.88,13.93-.58,1.04,.05,.38,.34,3,.16,.67-.05,.32-.2,.3-.3-.08-.59-8.47-.58-11.19-1.02-2.08-.33-4.04-.26-6.57,.21-1.02,.19-1.57,.23-3.39,.1-1.19-.07-2.19-.21-4.28,.01-4.32,.48-8.05,1.01-11.5,1.36-1.39,.15-2.75,.3-4.1,.45-.76,.08-1.51,.16-2.26,.24l-1.13,.12c-.06-.01-.06,.04-.07,.09l-.02,.13-.04,.27-.07,.54c-.2,1.46-.39,2.91-.58,4.35l-.15,1.1-.07,.51-.05,.3-.21,1.18c-.83,4.68-.94,6.01-.4,6.5,.55,.48-.1,6.85-.21,10.44-.07,2.39-.51,2.95-.77,5.31-.15,1.3-.38,2.18-.57,3.25,.05,1.11,.03,2.88,.16,3.16,.13,.29,.41-.85,.62-1.4-.17,2.47-.34,4.94-.52,7.42l-.24,1.81c.07-.27,.15-.55,.22-.82,.06,.16,.17,.29,.16,.49-.34,4.06-.84,8.1-1.03,12.19-.08,1.69-.29,2.7-.36,2.51-.19-.52-.75,1.95-.38-3.24,.23-3.23,.05-3.11-.14-2.77-.27,.5-.61,2.89-.84,5.49-.26,2.9-.04,2.92,.11,3.16,.2,.33,.09,3.91,.55,1.53,.53-2.72,.52-.37,.61,1.63,.13,2.93,.76-.09,1.3-5.92,.15-1.65,.26-3.23,.47-3.98Zm2.88-49.39c.17-1.39,.19-.97,.21-.41,.03,.86,.13,1.19,.21,1.69-.29,1.94-.5,2.62-.6,1.84-.03-.2-.04-.51-.02-.94,0-.22,.02-.47,.05-.75,.05-.42,.1-.9,.15-1.43Zm.15,23.57c.07-.6,.16-1.43,.24-2.12,.04-.34,.08-.65,.11-.87,.03-.22,.05-.35,.06-.35,.32,.1,.66-1.43,1.09-5.53,.27-2.56,.54-5.44,.85-5.83,.41-.5,0,3.4-.15,5.98-.11,1.86,.04,1.81,.15,2.09-.18,3.02-.29,5.99-.84,9.1-.18,1.04-.41,3.37-.5,2.21-.14-1.8-.46-1.48-.9-.05-.44,1.43,.02-3.72-.11-4.63Z"/><path class="cls-1" d="M122.77,173.43c.03-.55,.09-1.29,.17-2.1,.11-.81,.25-1.68,.38-2.48,.47-2.88,1.29-6.86,1.35-8.33,.04-1.16-.87,2.7-.94,1.43-.03-.62-.45,.65-.7,1.09-.73,3.4-1.23,4.94-1.49,4.69-.26,1.56-.36,2.53-.39,3.22,0,.7,.04,1.11,.06,1.57,.08,2.04-1.21,5.09-.75,6.05,.17,.34,.28,.96,.2,2.82-.03,.97-.13,2-.19,3.1-.04,1.1-.1,2.25-.18,3.45-.15,2.4-.37,4.96-.61,7.57-.2,1.71-.2,3.44-.3,5.14-.08,1.71-.16,3.4-.24,5.07-.06,1.23-.17,2.46-.25,3.67-.08,1.21-.02,2.41,.05,3.6,.3,4.02,.27-1.44,.47-.76,.1,.35,.23,1.34,.3,2.35,.11,1.95,.25,4.26,.36,6.15,.13,2.41,.54,4.38,.64,2.8,.12-1.63,.03-4.62-.18-6.66-.14-1.54-.29-2.97-.44-4.35-.15-1.38-.33-2.72-.37-4.09-.06-1.29-.13-2.47,.03-4.43,.13-1.63,.28-2.53,.42-2.54,.1,0,.17,.72,.26,1.17,.29,1.57,.48,1.65,.53-4.18l.02-1.25c.03-.42,.06-.83,.09-1.24,.07-.81,.14-1.59,.23-2.29,.17-1.4,.37-2.47,.6-2.85,.35-.55,.39-3.11,.48-4.83,.06-1.67,.17-3-.12-2.11-.18,.5-.31,1.52-.46,2.5-.24,1.59-.55,4.31-.63,2.84-.05-1.19,.13-4.11,.46-5.86,.8-4.28,1.01-7,1.15-9.95Z"/><path class="cls-1" d="M272.57,8.56c4.68-.2,6.58-.56,8.78-.92,2.47-.42,2.7-.4,7.43-.1,1.74,.04,1.83,.11-.06,.21,.69,.2,2.43,.42-2.8,.49,1.41,.4,.19,.91,4.35,1.18-.12,.14-.18,.29-.3,.43-.12,.15,.02,.32,1.58,.33,2.22,.01,3.99-.19,5.43-.39,2.31-.34,4-.54,5.67-.63,.83-.04,1.66-.06,2.55-.06,.44,0,.9,.02,1.39,.03l.75,.02h.39c.11,.02,.16,.03,.25,.04,.56,.07,.59,.24,1.62,.17,.3-.02,.63-.05,.96-.07,.07,0,.19-.04,.22,0l-.02,.22-.02,.41c-.02,.62,.09,.71,.25,.18,.09-.33,.19-.66,.29-1.02l.07-.29c.06-.14-.03-.12-.11-.13l-.52-.03c-2.41-.09-6.47-.19-7.92-.51-1.64-.3-1.78-.73-.63-1.26,.33-.15,.07-.28,.16-.43,.29-.48-3.35-.31-7.61-.13-.65,.11,.16,.27-2.09,.33-.26,0-.41-.15-.61-.25-2.52,.18-7.26-.27-8.01,.36-4.21,.13-4.75-.24-7.51-.32-.49,.34,.44,.69-1.91,1.01-2.82,.38-1.99,.74-2.01,1.11Z"/><path class="cls-1" d="M306.57,7.88c1.22,.09,2.1,.2,3.26,.24,.58,.02,1.2,.02,1.93,0h.14s.05-.01,.06,0v.08c-.03,.1-.04,.21-.06,.31-.03,.21-.06,.42-.09,.65-.06,.44-.11,.9-.18,1.4l-.06,1.7-.11,2.34-.21,4.73-.33,9.46c.37-2.56,.52-2.72,.39,.32,.2,.05,.39,.26,.61,.07,.1-.09,.28-.79,.38-2.47,.05-.73,.07-1.62,.04-1.89-.05-.47-.14-.75-.24-.71-.35,.11-.47-.64,.19-5.65,.31-2.37,.65-5.8,.58-7.63,.44-2.22,.72-2.75,.94-2.71,.22,0,.38,.58,.68-.19,.13-.33,.25-1.08,.35-2.22l.03-.35c.04-.09-.09-.03-.14-.04l-.21,.02-.81,.1c-.5,.06-.87,.12-.83,.12,.99,.18,.24,.47-1.09,.79-1.36,.32-3.29,.65-5.14,.96-1.86,.3-1.37,.46-.08,.59Z"/><path class="cls-1" d="M254.96,332.88c-.12-.07-.98-.21-1.54-.2-1.94,.03-3.72,.24-3.44,.33,.72,.22,.29,.36-.88,.44-1.17,.05-3.07,.02-5.28-.02-.93-.05-1.94,.01-2.91,.03,4.06,.46,5.19,.68,4.48,1.07-.56,.27,1.11,.4,4.55,.32,1.62-.08,3.53-.05,5.25-.14,1.53-.13,4.28-.34,6.56-.76,2.29-.38,4.14-.73,3.95-.82-.61-.24-2.63-.22-6.81,.03-3.18,.13-3.62-.06-3.94-.27Z"/><path class="cls-1" d="M195.05,318.23c.07-.17-.16-.25,1.33-1.02,1.71-.88,2.83-1.29,3.39-1.4,3.06-1.71,5.02-3.02,5.02-3.41-.01-.19-.02-.36,1.75-1.53,.15-.36,.36-.66-2.91,1.18-2.76,1.52-4.71,2.62-6.84,3.93-4.04,2.46-1.87,.77-3.01,1.29-.92,.4-2.06,.97-3.13,1.47,.4,.18-1.12,1.16-3.45,2.51-1.81,.99-1.74,1.22,1.51-.2,2.16-.91,4.23-1.87,6.33-2.83Z"/><path class="cls-1" d="M303.81,88.56c.06-.4,.14-1.7,.13-2.04-.01-.29-.17-.02-.22,.33-.81,5.78-1.82,8.84-2.33,15.87-.38,3.38-.7,6.05-.93,8.54-.28,3.19-.34,5.63-.03,5.39,.28-.2,.59-2.94,.9-5.65,.86-7.46,1.34-15.04,2.48-22.45Z"/><path class="cls-1" d="M153.35,58.08c-.45,1.92-.49,2.73-1.21,5.43-1.98,7.44-1.96,7.38-.21,3.55,.49-1.08,.98-2.28,1.09-1.96,.12,.35,.76-1.83,1.21-3.41,.36-1.26,.67-2.63,.39-2.04-1.39,2.86-.79-.41-.31-3.36,.11-.65,.11-1.01,.15-1.43-.21,.41-.37,.71-.53,1.01-.2,.75-.43,1.59-.58,2.22Z"/><path class="cls-1" d="M310.08,29.65c-.07-.79-.1-1.71-.38,.21-.26,1.81-.27,2.85-.27,4.25,0,2.13-.09,4.74,.05,6.03,.26,2.4,.79,.26,1.37-5.86,.14-1.63,.29-3.35,.43-5.03l-.4-.31c-.49,3.16-.68,2.26-.81,.71Z"/><path class="cls-1" d="M310.7,55.23c-.13,.61-.3,3.05-.21,2.66,.78-3.51,.12,2.82,.09,4.6-.03,1.98,.07,2.48,.5,1.18,.18-.54,.31-.38,.46-.46,.21-.11,.5-1.34,.69-3.65,.19-2.35,.05-3.37-.08-3.67-.31-.71-.91,1.79-.9-2.22-.21,.56-.37,.74-.55,1.55Z"/><path class="cls-1" d="M157.48,46.36c-.57,2.47-.93,4.46-.44,3.55,.7-1.29,1.66-3.52,2.63-5.88,.56-1.32,1-3.47,.96-3.77-.06-.5-.43,.06-.12-1.76-.09,0-.17-.11-.3-.01-.27,.19-.76,1.86-1.28,3.63-.54,1.77-1.1,3.64-1.45,4.25Z"/><path class="cls-1" d="M129.24,246.08c.54,.06,.99,.02,2.21,.9,1.37,.8-.67-1.3-2.14-3.98-.17-.31-.44-.76-.76-1.24-.31-.48-.61-1.05-.91-1.53-.59-.97-.97-1.75-.85-1.35,.4,1.23,.65,1.85,.69,2.25,.05,.39-.04,.5-.15,.59-.21,.19-.5,.31,.53,2.38,.44,.67,.92,1.31,1.38,1.97Z"/><path class="cls-1" d="M308.45,57.94c-.31-.23-.4-.42-.51-.34-.15,.1-.32,.36-.52,2.56-.13,1.33-.1,2.07-.06,2.67,.04,.56,.01,1.65,.06,2.14,.15,1.6,.43,1.9,.99-1.46,.08-.49,.21-1.63,.24-2.17,.1-1.92,.06-2.76-.01-3.12-.07-.36-.16-.25-.18-.28Z"/><path class="cls-1" d="M124.06,236.56c.53,1.27,.87,1.97,1.04,2.07,.14,.11,.04-.35-.26-1.42-.1-.34-.22-.7-.33-1.08-.1-.38-.21-.78-.33-1.19-.25-.81-.45-1.69-.64-2.54-.39-1.71-.63-3.39-.66-4.53-.05-.86-.27-1.96-.5-2.75-.07,.76-.2,1.52-.22,2.56-.05,1.84,.41,5.03,1.91,8.88Z"/><path class="cls-1" d="M145.34,85.09c.24,.48-1.18,5.58-.93,5.98,.74-2.6,1.27-4.96,2.4-7.95,.82-2.16,1.3-4.05,1.07-4.07-.14,0-.42,.45-.31-.37,.15-1.16-.25-.36-1.08,2.16-.58,1.77-1.23,4.08-1.15,4.24Z"/><path class="cls-1" d="M306.01,58.07c.09,1.88-.14,4.67-.46,7.78-.16,1.57-.42,3.92-.32,4.28,.06,.22,.4-1.95,.6-2.94,.2-1.01,.6-3.32,.49-3.65-.42-1.28,.35-6.04,.49-8.91,.08-1.71,.16-3.27-.03-2.96-.16,.26-.36,1.25-.56,3.03-.15,1.35-.24,2.68-.2,3.36Z"/><path class="cls-1" d="M51.82,97.87c.09-.55,.2-1.2,.26-1.66,.17-1.21,.25-2.15-.23-.99-.2,.48-.66,2.06-.92,3.1-.77,3.06-.8,3.99-.63,4.27,.05,.09,.11,.12,.18,.18,.2-.16,.19,.6,.69-.82l.65-4.08Z"/><path class="cls-1" d="M118.9,218.62c-.22-.29-.32,.6-.38,1.81-.07,1.22-.11,2.75-.09,3.8-.03,1.25,.38,2.3,.56,2.94,.45,1.57,.14-1.61,.25-2.58,.03-.28,.09-.49,.1-.94,0-.45-.01-1.15-.09-2.42-.11-1.6-.27-2.57-.35-2.62Z"/><path class="cls-1" d="M248.24,8.8c-2.53,.2-2.51,.42-2.46,.57,.07,.18-2.9,.62,.03,.55,.78-.02,2.65-.14,3.51-.21,1.87-.16,1.74-.34,2.21-.57-.31-.08-.62-.21-1.29-.32-.26-.04-1.48-.06-2-.02Z"/><path class="cls-1" d="M223.94,318.11c-.27-.37-.44,.96-.25,2.05,.46,2.66,1.12,5.4,1.22,5.14,.18-.43,.02-2.86,0-4.46l-.98-2.73Z"/><path class="cls-1" d="M299.36,224.24c-.09-2.73-.26-5.2-.49-7.14-.09-.76-.21-.92-.31-1.04-.03-.03,0,1.28,0,1.44,.13,2.66,.23,4.81,.33,6.92,.1,2.16,.19,5.87,.49,5.86,.22-.01,.05-3.42-.02-6.04Z"/><path class="cls-1" d="M118.85,179.37c-.18,.37-.36,1.68-.5,2.73-.08,.61-.16,1.19-.23,1.74-.04,.55-.07,1.08-.11,1.57-.06,.99-.09,1.85-.1,2.56-.02,1.42,.07,2.26,.26,2.34,.05,.02,.17-.88,.27-1.35l.09-4.8,.31-4.78Z"/><path class="cls-1" d="M296.79,5.49c.75-.13,.04-.21-1.19-.2-1.47,.02-2.46,.17-2.62,.26-.46,.28-.61,.56-.87,.84l2.5-.07c5.53-.37,.35-.53,2.18-.83Z"/><path class="cls-1" d="M284.56,325.55c0-.17,.23-.39-.13-.47-.31-.06-1.62,.09-3.26,.49-1.68,.4-1.81,.56-1.93,.73-.36,.38-.18,.76,5.33-.75Z"/><path class="cls-1" d="M223.11,76.56c.01-.82-.03-1.05-.14-.43-.08,.5-.18,1.11-.28,1.71-.38,3.37-.03,3.4-.18,5.88-.11,1.73-.4,5.18-.08,4.08,.27-.91,.22-3.52,.41-5.52,.19-2.13,.26-4.05,.29-5.73Z"/><path class="cls-1" d="M228.93,85.18c.11,.11,.28-.72,.38-1.91,.3-3.5,.07-4.38,.12-6.71,.03-1.13-.19,1.23-.29,2.06-.28,3.18-.54,6.21-.21,6.56Z"/><path class="cls-1" d="M51.35,107.61c-.18,.09-.25-.67-.95,2.36-.45,1.95-.32,2.15-.19,2.35,.15-.07,.21,.64,.93-2.41,.46-1.97,.38-2.37,.21-2.3Z"/><path class="cls-1" d="M303.31,82.3c-.05-.13-.24,.85-.4,2.09-.3,2.24-.41,5.37-.17,4.78,.14-.36,.33-1.43,.48-2.8,.27-2.41,.36-3.96,.1-4.07Z"/><path class="cls-1" d="M118.06,208.12c-.18,.27-.3,1.92-.2,3.73,.07,2.13,.22,3.11,.37,3.25,.15,.13,.28-.59,.19-2.76-.14-2.23-.17-3.89-.36-4.21Z"/><path class="cls-1" d="M296.8,191.18c-.14-1.28-.36-1.04-.44,1.45-.07,1.94-.1,4.2,.02,6.36,.05,.97,.1,1.29,.24,.53,.2-.37,.02-3.01,.06-4.88,.03-1.25,.35-1.38,.11-3.46Z"/><path class="cls-1" d="M118.47,200.99c-.13-1.35-.28-2.46-.42-3.67-.06,.22-.13,.45-.2,.67,0,.75,0,1.77,.03,2.19,.12,1.45,.26,2.77,.4,3.95,.04,.3,.14,.21,.18-.21,.12-1.24,.07-2.34,0-2.93Z"/><path class="cls-1" d="M141.45,252.48s-1.07-.41-1.58-.55c-1.18-.42-1.99-.7-2.52-.93-.54-.21-.85-.26-1.01-.22,.39,.3,1.28,.98,2.13,1.23,.92,.37,1.67,.47,2.16,.55,.49,.08,.77,.02,.82-.08Z"/><path class="cls-1" d="M306.14,6.5c1.57-.1,1.33-.32,1.42-.46,.13-.18,.19-.36,.16-.53,.01-.02-.18-.02-.31-.02h-.44c-.5,.06-1.31,.13-1.46,.18-.36,.12-.41,.23-.54,.31,.02,.1,.03,.17,.05,.24,.04,.13-.31,.37,1.11,.28Z"/><path class="cls-1" d="M296.19,160.09c-.12-1.09-.27,.65-.35,2.38-.09,1.82-.09,3.33,.14,2.1,.18-.95,.39-.99,.53-3.71,.02-2.28-.23,0-.31-.77Z"/><path class="cls-1" d="M41.99,187.54c.14-1.42,.18,1.28,.37-1.8,.07-1.08-.04-2.05-.13-2.4-.05-.17-.29,1.07-.36,1.84-.23,2.5,.02,1.76,.12,2.36Z"/><path class="cls-1" d="M227.59,84.12c.09-1.31,.13-2.37,.02-2.5-.19-.25-.43,1.36-.61,3.61-.05,.56,.05,1.28,.08,1.8,.19-.33,.35-.63,.52-2.9Z"/><path class="cls-1" d="M129.16,133.75c.2-1.23,.4-2.58-.2-.68-.26,.85-.61,2.23-.92,3.4,.05,.07,.08,.23,.17,.13,.14-.13,.32-.47,.49-.72,.16-.73,.38-1.64,.45-2.14Z"/><path class="cls-1" d="M43.27,174.03c.17,.25,.41-.85,.69-3.42,.08-.77,.13-1.54,.23-2.74-.35,1.82-.67,3.5-1,5.18,.02,.34,.02,.9,.08,.98Z"/><path class="cls-1" d="M217.93,151.94c-.12-.33-.26-.08-.43,1.83-.13,1.48-.1,2.41-.03,2.79,.12,.59,.29-.55,.44-2.11,.17-1.71,.07-2.02,.01-2.51Z"/><path class="cls-1" d="M305.23,79.88c.16-1.64,.26-3.17,.1-3.11-.02,0-.07,.34-.14,.76-.06,.42-.13,.94-.18,1.31-.2,1.65-.4,3.4-.24,3.64,.16-.35,.33-1.28,.46-2.6Z"/><path class="cls-1" d="M310.02,13.12c-.11-.39-.28,.88-.4,2.17-.1,1.16-.21,2.7-.2,3.29,.02,.81,.22-.11,.37-1.35,.23-1.91,.27-3.24,.23-4.1Z"/><path class="cls-1" d="M59.14,67.87c.12-.67,.08-.88-.44,.6-.53,1.66-.6,2.26-.54,2.38,.06,.11,.32-.4,.49-.64,.17-.79,.36-1.7,.49-2.34Z"/><path class="cls-1" d="M313.33,32.86c.13-.26,.21-1.07,.14-1.46-.09-.46-.22-.51-.35-.53-.04-.02-.13,.61-.23,1.09,.07,1.36,.24,1.27,.44,.9Z"/><path class="cls-1" d="M47.46,133.03c-.03-.42-.3,.36-.54,1.62-.33,1.69-.22,1.8-.16,2,.12-.12,.22,.06,.53-1.92,.1-.69,.19-1.49,.17-1.7Z"/><path class="cls-1" d="M122.64,202.36c.09,.13,.22-.31,.23-2.05,0-1.18-.05-1.96-.15-1.95-.13,.43-.26,1.27-.27,2.52,0,.71,.11,1.37,.19,1.48Z"/><path class="cls-1" d="M220.88,99.3c-.11-.57-.29,.43-.43,2.45-.08,1.18-.09,2.17,.02,2.26,.11,.05,.23-.64,.35-1.94,.14-1.53,.12-2.46,.06-2.77Z"/><path class="cls-1" d="M225.94,39.2c-.11,.35-.22,1.16-.27,2.11-.06,1.19-.06,2.06,.12,1.26,.08-.34,.18-1.37,.26-1.98,.08-1.4,.03-1.84-.12-1.39Z"/><path class="cls-1" d="M123.65,339.6c-.11-.03-.98,0-1.52,.06-1.29,.18-2.31,.27-2.04,.38,.11,.04,1,.03,1.5-.01,1.45-.18,2.35-.35,2.06-.43Z"/><path class="cls-1" d="M307.04,47.61c.05-.11,.2-1.22,.24-1.84,.1-1.29,.11-2.36-.04-1.94-.06,.17-.17,1.22-.24,1.77-.11,1.57-.1,2.32,.03,2.02Z"/><path class="cls-1" d="M298.03,4.46c.11-.1-.16-.18-.26-.27-2.17,.13-2.4,.27-3.17,.4-.84,.14-.15,.19,1.19,.15,1.42-.04,2.12-.18,2.24-.28Z"/><path class="cls-1" d="M123.96,169.5c.35-2.13,.23-2.27,.1-2.33l-.33,1.09c-.05,.9-.1,1.86-.12,2.62,0,.09,.28-.95,.35-1.37Z"/><path class="cls-1" d="M306.05,307.71c.1,.75,.21,1.67,.33,2.21,.13,.58,.32,1.17,.38,1.13,.09-.05-.05-.95-.28-1.82-.17-.6-.29-1.02-.43-1.53Z"/><path class="cls-1" d="M278.16,331.4c-.09,.07,.55,.01,.86,0,.52-.18,1.03-.37,1.44-.51-.47,0-.78,0-1.1,0-.43,.17-1.04,.37-1.2,.49Z"/><path class="cls-1" d="M316.72,13.27s.1-.11,.16-.26l.05-.12,.06-.23c.04-.15,.08-.3,.11-.43,.03-.84,.15-2.25,.1-2.32-.08-.1-.25,.62-.41,1.07-.03,.61-.06,1.25-.09,1.75,0,.15,0,.19,0,.25v.15c0,.08,.02,.13,.03,.13Z"/><path class="cls-1" d="M120.98,2.46c-.13-.05-.91-.01-1.4,0-.25,.11-.63,.23-.67,.33-.01,.03,.82,0,1.18,0,1.28-.17,1.21-.22,.88-.32Z"/><path class="cls-1" d="M151.75,55.4c.57-1.96,.72-2.88,.59-3-.05-.05-.26,.33-.44,.85-.52,1.55-.55,2.04-.51,2.23,.05,.2,.23-.03,.35-.07-.57,2.09-.4,1.77,.13,.24l-.13-.25Z"/><path class="cls-1" d="M219.05,161.32c-.07-.14-.17-.51-.27,1.26-.02,.33,.08,.6,.13,.9l.24-.89c-.03-.45-.04-1.17-.1-1.27Z"/><path class="cls-1" d="M298.8,234.27c-.05-.17-.11,.45-.1,1.01,.02,1.03,.08,2.25,.16,3.4,.04-.58,.1-1.03,.12-1.77,.03-.84-.01-2.08-.18-2.64Z"/><path class="cls-1" d="M104.73,4.71c.45-.2-.19-.17-1.73,.19-1.21,.35-2.5,.77-2.52,.89,0,.05,.88-.16,1.35-.24,1.35-.39,2.48-.65,2.9-.84Z"/><path class="cls-1" d="M135.67,130.19c.17-.15,.52-1.38,.77-2.51,.12-.55,.07-.7,.1-1.02-.17,.28-.38,.96-.58,1.9-.13,.64-.35,1.68-.29,1.63Z"/><path class="cls-1" d="M309.47,3.75c.05-.04,.1-.09-.2-.11-.15,0-.38,0-.75,.01-.33,.02-.77,.05-1.36,.09-.38,.03-.6,.15-.95,.24,.19,.02,.17,.07,.3,.09,.07,.01,.18,.02,.37,.02,.23,0,.34-.01,1.11-.07,.66-.05,1.4-.2,1.47-.27Z"/><path class="cls-1" d="M126.56,141.76c-.07,.09-.27,.74-.39,1.08-.26,1.35-.1,1.19,.02,1.11,.04-.03,.23-.59,.26-.73,.31-1.42,.26-1.64,.11-1.46Z"/><path class="cls-1" d="M276.32,6.42c.08-.13,.53-.27-1.14-.33-.36-.01-2.46,.15-2.41,.21,.12,.17,2.11,.11,3.55,.12Z"/><path class="cls-1" d="M71.98,27.68c.45-.89,.92-1.82,1.34-2.66,.42-.82,.93-1.69,1.44-3.27,.31-.96,.2-1.2,.08-1.25-.23-.09-1.27,2.32-2.13,4.4-1.35,3.27-.84,2.62-.77,2.87-.42,1.17-.89,2.42-1.24,3.5-.19,.57-.34,1.26-.25,1.14,.29-.39,.72-1.63,.98-2.55,.25-.86,.37-1.46,.55-2.18Z"/><path class="cls-1" d="M218.6,154.21c-.14,.59-.23,1.86-.27,3.04-.02,.58,.02,1.01,.02,1.44,.15-.59,.21-1.88,.26-3.04,.03-.58,0-1.54-.02-1.45Z"/><path class="cls-1" d="M68.5,37.92c-.05-.09-.17-.1-.67,1.35-.13,.37-.12,.64-.17,.96,.14-.16,.16,.13,.67-1.35,.14-.4,.21-.89,.17-.95Z"/><path class="cls-1" d="M130.25,144.44c.12-.05,.39-.8,.7-2.17,.12-.5,.15-.91,.25-1.57-.29,.91-.55,1.76-.81,2.6-.05,.4-.19,1.17-.14,1.15Z"/><path class="cls-1" d="M157.06,52.92c.16-.34,.29-.57,.48-1.05,.26-.65,.48-1.45,.55-1.91,.1-.71-.15-.11-.52,.97l-.51,1.99Z"/><path class="cls-1" d="M213.84,208.19c-.01-.1-.27,.32-.45,.5-.2,.47-.58,1.26-.57,1.33,0,.1,.3-.32,.47-.52,.2-.48,.59-1.24,.55-1.32Z"/><path class="cls-1" d="M68.47,42.56c-.8,2.23-.36,1.48-.39,1.85l.81-2.29c-.15,.13-.35,.2-.43,.43Z"/></svg>