<svg id="Handschrift" xmlns="http://www.w3.org/2000/svg" viewBox="0 0 350 350"><defs><style>.cls-1{fill:#010101;}</style></defs><path class="cls-1" d="M250.34,317.74c-.78-1.1-1.6-2.27-2.03-3.11,.77,1.01,1.62,2.17,2.29,2.99,.74,.91,1.38,1.57-.18-.66-1.66-2.37-1.78-2.9-1.89-3.41-.07-.33,.1-.42-.97-1.88-1.12-1.55-1.27-1.46-1.6-1.69-.56-.4-1.49-1.42-2.67-2.81-2.06-2.4-4.22-4.85-5.41-7.24-.53-1.08-2.43-3.49-4.01-5.44-.93-1.65-2.62-3.71-4.44-5.76-3.43-3.91-3.49-3.96-4.48-6.02,2.78,3.7,5.52,6.74,8.25,9.91,.26,.17,.61,.33,.76,.52,1.18,1.49,.49,.89,.65,1.25,2.05,2.6,3.52,4.83,5.06,7.06,.57,.82,1.14,1.63,1.77,2.34,.97,1.12,.88,.77,.89,.55,.02-.35-2.37-3.7-.76-2.05,1.27,1.31,3.28,3.56,1.61,.96-2.23-3.51-3.22-3.88-4.67-5.45-.55-.6-1.06-1.1-1.66-1.79-1.09-1.23-1.82-2.32-1.98-2.72-.2-.51-.4-1.13,.18-.59,2.69,2.56-.46-1.68-1.13-3.06-1.53-3.12-5.33-6.26-7.2-9.08-.08-.12-.76-.86-1.16-1.31,.36,.62,.93,1.5,1.01,1.8,.1,.37-.82-.58-1.76-1.69-2.21-2.61-3.86-4.37-5.35-5.73-1.24-1.13-2.43-2.8-3.21-4.03-.54-.87-.38-.99-1.6-2.57-.28-.15-.26,.15-1.31-1.17-.6-.76-.92-1.43-1.36-2.14,.86,1.06,1.73,2.13,2.6,3.19-.58-1.11-1.46-2.23-2.7-3.34-2.07-2.16-3.89-4.01-5.6-5.63-1.35-1.3-2.38-2.77-2.8-3.69-.16-.35-.07-.42-.02-.51,.07-.13,.35-.12-.43-1.11-.76-.97-.83-.69-1.17-.9-.68-.44-1.66-1.29-2.17-1.51-.67-.3-1.76-1.43-3.78-4.37-.57-.84-1.17-1.68-1.34-1.69-.14,0,.53,.96,1.12,1.82,.39,.59,2.15,3.01,.56,1.03-3.25-4.17-2-1.72-3.51-3.36-.56-.61-.93-.67-1.05-1.38-.07-.54-.72-1.48-1.45-2.42-.73-.95-1.49-1.85-2.02-2.71l-.13-.23-.07-.12-.06,.07-.26,.3c-.18,.21-.36,.45-.55,.7-.38,.5-.78,1.06-1.14,1.61-.73,1.11-1.34,2.17-1.49,2.75-.51,1.78-2.04,4.24-4.57,8.23-1.45,2.26-1.6,2.91-1.42,3.06,.36,.28-1.31,2.98-3.07,5.78-.69,.09-.76-.87-.7-1.93,.07-1.11-2.16,1.4-.09-2.84,.69-2.03,3.98-7.52,3.8-8.39-.04-.19,.36-1.05-.39-.12-.74,.93-1.54,1.93-2.41,3.64-1.24,2.41-2.43,4.3-3.94,6.33-1.92,2.56-4.04,6.26-6.01,9.5-1.78,2.96-1.67,3.45-2.23,4.85-.67,1.66-1.78,2.27-2.82,4.54-1.13,2.47-2.32,4.45-4.06,6.92-.6,.86-1.24,2.39-1.58,3.26-.88,1.52-1.84,3.11-2.61,4.54-1.18,2.19-1.76,3.14-1.45,2.07,.17-.6,.02-.59-.71,.5-.92,1.37-1.32,2.36-1.72,3.22-.97,2.12-1.84,4.05-2.18,5.3-.57,2.06-1.69,4.03-4.11,7.4-.42,.59-.7,.85-1.13,1.45-2.17,3.04-7.28,12.05-7.46,13.28-.26,1.67-2.18,4.78-3.91,7.87,.94-1.18,2.43-3.73,3.59-5.45,.61-.91,1.04-1.19,.31,.07-2,3.45-1.09,2.43-1.25,3.02-.13,.49-.07,.68-.11,1.02-.57,.81-1.22,1.81-1.68,2.42-.9,1.17-2.09,3-3.23,4.72-.29,.43-.57,.85-.84,1.26-.14,.2-.27,.4-.4,.59-.13,.19-.2,.27-.3,.39-.36,.46-.66,.78-.88,.91l-.25,.47-.12,.22-.06,.11s-.08-.02-.12-.03c-.34-.13-.66-.26-.96-.38-.61-.25-1.14-.5-1.63-.73-.63-.31-1.23-.6-1.84-.9-.7-.34-1.42-.68-2.21-1.03-1.1-.63-.49-.76-3.52-1.99-4.28-1.72-8.59-4.18-12.66-5.54-1.95-.68-3.35-1.3-5.29-2.51-.34-.2-6.27-3.89-4.55-1.99,.43,.48-2.83-1.06-3.13-.89-.21,.13-2.15-.86-2.53-1.37-.4-.54-1.96-1.36-4.03-2.25-1.3-.56-2.27-.96-4.1-2.08-4.41-2.74-9.21-5.47-14.8-8.41-2.9-1.53-3-1.78-3.04-2.05-.6-.33-1.2-.66-1.8-.98-.35,.31-.1,.85,4.87,3.69,2.81,1.61,3.49,2.63,8.06,4.93,.63,.32,.8,.61,.47,.55-.33-.06-.89-.26-2.06-.97-1.67-1.02-3.5-2.06-5.41-3.01-1.72-.83-3.33-1.61-5-2.42l-.29-.97c-.64-.35-1.27-.69-1.91-1.04-1.02-.49-1.8-.86-2.43-1.16-.31-.16-.58-.29-.82-.42l-.33-.18-.21-.12c-.5-.3-.71-.56-.89-.92l-1.17-.64-.29-.16s-.16-.04-.09-.09l.09-.14,.37-.56c.05-.27,.29-.75,.62-1.33,.19-.31,.39-.65,.59-1,.3-.48,.61-.97,.91-1.46,1.21-1.94,2.32-3.79,2.37-4.43,.02-.35,.9-1.9,2.04-3.57,1.53-2.24,1.64-1.99,1.79-1.84,.15,.14,.32,.26-.83,2.21,.21,.09-.62,1.65-.9,2.44-.91,2.54,.13,1.65,3.78-3.53,1.49-2.12,4.49-6.58,4.66-7.17,.55-1.97,2.9-4.79,4.34-7.08,1.66-2.63,4.41-6.46,4.81-7.63,.73-2.13,1.91-3.32,3.25-5.15,.9-1.23,1.88-2.63,2.85-4.03,1.08-1.57,1.27-2.03,.91-1.8-.73,.45,.4-1.63,2.1-4.22,1.8-2.73,4.03-6.89,5.5-8.04,1.61-2.11,3.3-4.74,4.86-7.25,2.03-3.28,1.86-2.73,1.53-1.78-.13,.38-.04,.45,.03,.53,.29,.34,2.38-2.99,3.73-4.93,1.6-2.29,.99-1.88,1.14-2.37,.14-.44,.29-1.14,.91-1.91,1.89-2.34,3.22-5.27,4.77-7.22,1.03-1.3,2.57-3.48,2.63-2.99,.02,.16-.11,.76,1.12-1.18,.78-1.23,1.33-2.38,1.01-2.13-1.06,.84,.15-.99,1.72-3.15,.63-.86,1.54-1.85,1.39-1.52-1.42,3.17,1.55-1.5,2.07-2.51,1.39-2.69,2.77-4.66,4.45-6.95,2.48-3.36,3.81-5.56,3.73-6.36-.03-.31,.48-1.32,1.71-3.18,.99-1.5,1.32-1.77,1.62-1.96,.8-.52,1.98-2.6,1.96-2.96-.02-.42-.17-.37,1.26-2.24,.61-.79,1.25-1.32,1.75-2.28l.6-1.12,.36-.69c.12-.24,.24-.5,.41-.89,.62-1.42,.94-3.02,.74-4.61-.11-.76-.32-1.51-.64-2.23-.16-.36-.34-.7-.54-1.04l-.3-.49-.23-.34c-.3-.44-.55-.75-.82-1.1l-.79-1.04c-1.06-1.38-2.11-2.74-3.11-4.03-1.19-1.54-1.91-2.05-3.52-4.59-1.36-2.16-1.77-3.1-.57-1.88,.79,.81,.88,.66-.42-1.29-2.12-3.2-4.6-6.07-6.85-9.3-.39-.54-.9-.92-.55-.3,.19,.34,.62,.94,.84,1.34,1.04,1.8,.5,1.55-.95-.2-1.85-2.17-.65-1.21-1.29-2.19-.93-1.42-1.13-1.39-1.23-1.41-.79-.13-2.84-3.57-4.25-5.13-2.22-2.5-1.55-.64-2.98-2.52-3.21-4.21-3.44-3.98-4.04-4.24-.18-.07-.72-.54-1.52-1.6-.65-.86-.88-1.34-.44-.94,1.66,1.48,1.13,.46-.96-2.37,.96,.49-.5-2.07,2.55,1.04,.86,.88-.16-.68-1.39-2.27-1.63-2.07-3.44-4.18-4.65-5.37-4.22-4.16-9.01-9.16-14.23-14.79-.15-.16-.23-.19-.34-.26,.9,1.12,1.62,2.12,1.47,2.15-.22,.05-1.47-1.53-2.22-2.4-2.14-2.53-3.75-4.65-4.81-6.29,1.47,1.55,2.84,3.15,4.09,4.81,.08-.27,1.53,.93-1.83-2.98-1.31-1.53-2.51-3.05-3.94-4.56-2.43-2.57-4.81-5.13-7.24-8.37-.89-1.18-2.53-2.97-2.88-3.08-.34-.1,.81,1.52,1.94,2.75,3.46,3.76,3.96,4.7,3.69,5.05-.15,.19,.95,1.79,.44,1.6-1.79-2.05-3.76-4.27-2.18-1.9,2.12,3.18-1.83-.28,2.57,5.35,.05,.06-.54-.34-.86-.58-.84-.61-3.18-3.03-1.89-1.05,1.35,2.08,3.12,3.88,4.81,5.56,.19,.19,.47,.48,.68,.74,1.99,2.35,2.06,3.21,3.99,5.29,1.47,1.59,.57-.22,3.04,2.51,.23,.25,.47,.49,.67,.73,2.83,3.39,4.61,4.98,6.64,7.02,2.72,2.73,3.18,3.31,3.32,4.25,.13,.91,3.26,4.91,4.11,6.57,.2,.38,1.12,1.29,1.69,1.92,.8,.87,1.93,2.07,2.5,2.82,3.36,4.42,4.77,5.83,5.79,6.35,.3,.16,.85,.57,1.71,1.93,1.27,1.95,2.54,3.7,4.54,6.19,1.74,2.17,.54,.92,.03,.43-.66-.65-2.15-2.37-1.05-.65,1.12,1.74,1.8,2.19,2.58,3.05,.9,1.01,1.5,1.96,2.25,3.08,1.62,2.4,3.3,4.73,4.91,6.96,1.62,2.22,3.26,4.29,4.71,6.25,.8,1.05,1.53,2.05,2.27,3.08l1.12,1.57c.37,.52,.8,1.13,1.04,1.59,.22,.4,.39,.83,.45,1.28,.15,1.35-.6,2.46-1.46,3.77-.85,1.27-1.71,2.47-2.61,3.58-1.92,2.35-3.75,6.19-5.47,8.38-2.02,2.55-2.47,3.49-3.32,5.32-1.03,2.2-4.55,7.88-6.25,10.39-1.11,1.64-.61-.24-2.67,3.65-1.01,1.91-2.07,2.53-3.57,5.18-1.5,2.65-2.52,3.28-3.68,5.25-1.53,2.59-.49,1.65-.9,2.72-.04,.11-.25,.45-.32,.6-.81,1.75-.8,1.75,1.01-.56-.24,.56,.15,.44-.84,1.79-1.67,2.29-3.11,4.08-4.94,7.21-.87,1.48-1.85,2.75-1.87,2.57-.08-.69-2.19,2.31-3.62,4.5-3.16,4.83-5.89,7.37-9.23,13.54-.1,.18-1.07,1.49-1.41,1.86-1.05,1.17-2.38,3.17-3.78,5.31-1.57,2.41-2.99,4.52-4.53,6.57-2.17,2.87-5.87,9.02-5.2,8.66,1.6-.86-1.76,3.96-4.17,7.75-1.46,2.3-2.74,4.55-4.36,6.89-.04-.84-1.14,.26-4.21,4.89-.9,1.36-1.76,2.65-2.57,3.77-.2,.28-.4,.55-.59,.81-.21,.28-.42,.56-.62,.82-.48,.64-.94,1.22-1.37,1.74-.94,1.11-1.9,2.5-2.6,3.63-.08,.14-.18,.28-.24,.41,.15,.07,.3,.14,.44,.21l.81,.36c.5,.21,.9,.35,1.15,.41,.64,.14,1.55,.45,2.67,.9,.56,.22,1.17,.48,1.82,.76,.54,.23,1.13,.49,1.77,.77,1.31,.59,2.34,1.27,3.09,1.8,.72,.51,1.42,.99,.32,.58-1.64-.61-2.04-.55-1.29-.09,2.42,1.46,2.45,1.14,2.91,1.28,1.34,.4,3.66,1.54,5.81,2.53,1.63,.75,3.32,1.53,4.75,2.14,1.61,.68,.62-.39,3.1,1.01,3.8,2.13-1.53-.19,1.04,1.46,.66,.42-.25,.21,.33,.63,2.81,2.04,5.86,2.73,9.16,4.75,.93,.57,2.03,.91,2.09,.77,.02-.06-.31-.32-.73-.58-.7-.43-1.58-.93-2.45-1.42-1.85-1.04-2.2-1.44-1.5-1.26,.94,.24,2.93,1.44,4.15,2.08,3.18,1.64,4.71,2.86,8.01,4.57,5.39,2.79,7.1,3.79,5.13,3.44-1.34-.25,.1,.81-1.49,.41-.07-.02,1.24,.74,2.04,1.15,.87,.45,2.3,1.05,1.94,.76-1.12-.89,.53-.43,1.96-.08-1.15-.6-1.45-.86-1.7-1.13-1.12-1.28-1.48-2.02,6.83,1.53,1.09,.45,2.16,.75,1.4,.24-.45-.3-1.4-.8-2.37-1.17-2.62-1.05-5.14-2.23-7.65-3.52-2.58-1.31-2.2-1.38-1.86-1.45,.51-.08,2.14,.84,3.54,1.57,4.39,2.25,6.63,2.93,8.51,3.33,.88,.19,2.14,.7,1.97,.89-.35,.41,2.45,1.66,6.1,3.16l2.44,.98,1.22,.5,1.09,.43c.72,.27,1.43,.54,2.14,.81l1.07,.39,.13,.05s.05-.06,.08-.09l.13-.24,.26-.48c.84-1.56,1.29-2.27,1.63-2.71,.31-.38,.36-.22,.33,.07-.04,.64-.44,1.87-.92,3.27-.14,.41-.39,.95-.71,1.55-.09,.5-.52,.11-.85,.03-.35-.15-.72-.3-1.11-.46-.92-.39-1.78-.74-2.54-1-.77-.26-1.38-.44-1.78-.48-.6-.06-1.33-.11-.03,.53,.59,.31,1.51,.7,2.37,1.08,.91,.38,1.84,.78,2.83,1.2,.25,.1,.51,.21,.76,.31l.39,.16,.2,.08s.06,0,.07-.03l.05-.09c.29-.5,.59-1.01,.89-1.53l.93-1.65c.3-.55,.6-1.11,.92-1.68,1.36-2.56,3.83-6.93,2.13-5.11-.31,.34,.32-1.53,1.63-3.69,1.24-2.04,.07,.5,.41,.2,.94-.86,1.06-.47-.35,2.74-.92,2.09,.74-.72,1.78-2.5,.39,.23,2.26-2.52,3.6-4.19,2.15-2.68,2.48-3.17,4.65-7.75,1.02-2.13,2.13-4.65,3.35-6.59,1.61-2.54,1.13-3.1,2.87-5.3,1.63-2.06,1.66-3.44,3.15-5.68,.54-.81,1.41-2.36,1.99-3.14,2.24-3,4.15-6.35,5.94-10.14,.29-.61,.91-1.74,1.38-2.53,4.08-6.76,4.17-6.9,5.52-10.56l.36-.97c.61-1.5,1.59-3.01,2.71-4.64,2.04-2.94-.29,.9-.36,1.24-.09,.43-.26,.97,.41,.07,.85-1.13,1.28-2.08,1.71-2.99,.97-2.09,1.72-3.13,2.27-3.52,.28-.2,.27,.1,.62-.23,1-.96,2.07-2.71,3.23-5.3,.37-.83,.62-1.57,1.43-2.58,2.13-2.64,2.69-4.68,4.44-7.3,1.05-1.52,.7-1.54,1.11-2.36,.52-1.03,1-1.62,1.44-2.13,.21-.25,.43-.5,.61-.73,.09-.08,.14-.16,.18-.29,.18-.6,.4-.91,.54-.98,.15-.08,.24,.01,.36-.07l.1-.07s.06,.12,.09,.17l.14,.28c.08,.15,.13,.24,.19,.28,.11,.08,.22-.02,.47-.16,.06-.03,.18,.05,.33,.19,.08,.07,.16,.16,.25,.26,.02,.03,.05,.05,.05,.06l.17,.21,.33,.42c.32,.75,.61,1.45,.99,2.26,.26,.55,.69,1.36,1.67,2.6,.39,.49,.91,.89,.93,.78,.14-.5,1.38,1.16,2.85,3.31,.83,1.26,1.48,2.25,2.27,3.45,1.45,2.14,1.49,2.19,3.45,4.05,.52,.49,1.16,1.23,1.73,1.99,.79,1.05,1.45,2.01,2.18,3.01,3.01,4.12,4.43,5.7,5.22,5.86,.49,.1,.91,.11,1.72,.61,.36,.22,1.55,1.57,1.3,1.68-.28,.12,1.13,1.79,2.11,2.91,1.28,1.46,2.69,2.78,3.64,3.98,1.42,1.8,3.95,4.15,4.39,5.58,.32,1.01,2.94,4.09,4.38,5.72,2.53,2.88,4.99,5.34,5.28,6.94,.01,.07,.78,1.14,1.01,1.4,1.9,2.14,3.31,4.01,4.52,5.78,1.22,1.76,2.24,3.39,3.3,5.09,1.66,2.62,2.55,3.48,3.47,4.46,.72,1.2,1.47,2.39,2.27,3.56,.41,.58,.81,1.17,1.22,1.77,.51,.7,1.03,1.4,1.55,2.12,.04,.21,.15,.54,1.12,1.96,.35,.5,.62,.78,.92,1.14,.23,.33,.43,.61,.61,.86,.3-.1,.56-.19,.78-.27,.44-.15,.71-.26,.88-.34,.33-.15,.21-.17-.02-.16-.48,.03-1.39,.17-.37-.23,1.03-.4,2.27-.89,3.3-1.3,.5-.19,.92-.39,1.16-.56,.25-.16,.35-.27,.37-.35,0-.11,.22-.31,.18-.41-.02-.05-.29,0-.59,.07-.32,.08-.73,.23-.98,.31-1.39,.53-2.69,.97-3.88,1.33-.17,.12-.23-.08-.32-.2l-.25-.38c-.16-.25-.32-.5-.48-.75-.3-.49-.6-.97-.89-1.45-.27-.45-.53-.9-.79-1.35-.21-.36-.42-.73-.63-1.1-.42-.74-.88-1.48-1.43-2.25ZM75.39,103.27c-.63-.75-1.18-1.48-1.77-2.23,1.25,1.14,2.38,2.11,3.81,3.54,.39,.39,1.04,1.48,1.22,1.88-.09,.4-1.39-.96-3.26-3.19Zm14.67,14.58c-.4-.15-1.02-.56-2.63-2.48-.9-1.07-1.42-1.93-1.19-1.87,.53,.14,2.14,2.23,3.35,3.64l.59,.71s-.06,.03-.11,0Zm13.7,16.84c-.12-.21-.26-.45-.41-.68,.49,.54,.99,1.07,1.48,1.64,.01,.01,.24,.38,.22,.4-.11,.05-.54-.42-1.29-1.35Zm-27.74,130.25c.84-1.4,2.56-3.99,3.16-4.71,1.14-1.37-.42,1.28-.85,2.25-.31,.68,1.12-.92-.88,1.97-1.44,2.09-2.22,2.53-4.47,6.49l-.3-.02c1.1-1.98,2.06-3.83,3.34-5.98Zm-8.22,13c.89-1.12,1.59-1.84,2.16-2.38,.66-.62-.65,1.33-1.14,2.19-1.53,2.66-1.21,1.61-1.65,2.1,.15-.26,.33-.55,.45-.77,.07-.13,.05-.16,.07-.23-.18,.34-.36,.68-.55,1.03-.82,1.12-1.13,1.35-1.11,1.06,.04-.43,.63-1.57,1.76-3Zm-6.13,8.99c.34-.52,1.07-1.4,1.18-1.41,.42-.08,.65,.13,.95,.24-.37,.56-.74,1.13-1.11,1.69-.18-.28-.13-.93-1.29,.31-.34,.36-.41,.22,.26-.82Zm-14.2,18.81l-.49-.27c-.14-.03-.02-.13,.03-.2l.17-.24c.22-.32,.44-.63,.67-.95l-.42,.79-.21,.39-.05,.1,.12,.05,.24,.1,1.83,.8,3.38,1.46c.2,.18,.41,.36,.64,.57-.29,.02-.72-.07-1.72-.5-.96-.42-2.35-1.11-4.17-2.09Zm37.89,18.29c-3.39-1.5-5.85-2.92-7.6-4.23,2.38,1.22,4.77,2.43,7.16,3.65,.39,.2,.97,.6,1.09,.73,.1,.1-.27,.01-.65-.15Zm49.98,.06c.14-.41,.61-1.52,.78-1.79,.95-1.54,.5-.49,.33,.03-.18,.53-.43,1.17-.69,1.88-.65,.8-.61,.46-.42-.12Zm2.36,.1c-.6,.74-.21-.11,.47-1.43,.16-.06,1.1-1.51,.42-.06-.13,.28-.75,1.31-.89,1.49Zm4.31-7.92c-.11,.06-.36,.35-.28,.12,.09-.25,.49-1.07,.74-1.5,.49-.83,.59-.84,.26-.14-.23,.48-.48,1.01-.72,1.52Zm-.27-5.58c-.85,1.29-2.17,3.56-1.97,2.65,.03-.12,.51-.99,.8-1.54,1-1.59,2.03-3.22,1.96-2.58-.02,.2-.41,.9-.78,1.46Zm4.11-5.29c-1.22,2.16-1.34,1.93-1.59,1.96-.15-.27,.27-1.48,1.24-3.56,.79-.91,1.94-2.47,2.23-2.49,.19-.02-.74,2.05-1.89,4.09Zm4.64-6.23c-.03-.07-.09-.1-.08-.25,.03-.38-.21-.36,.91-2.36,.41-.72,.61-.93,.56-.69-.12,.6,.46,.17-1.39,3.3Zm7.98-7.88c-.53,.66-.87,1.11-1.13,1.4-.27,.3-.7,.84-.03-.41,.55-1.02,.96-1.54,1.1-1.57,.12-.02,.04,.29,.06,.58Zm12.5-28.8c-2.87,4.41-2.51,4.47-2.2,4.62,.1,.04,0,.22-1.16,1.88-.15,.22-.25,.28-.39,.5-1.3,2.08,.03,.93-1.48,3.02-1.28,1.77-1.91,2.84-2.74,4.53-.92,1.9-1.93,3.79-3.39,6.07-2.77,4.57-3.38,5.32-2.49,2.98,.59-1.53,1.03-2.91,3.09-6.41,1.02-1.73,.97-1.88,.49-1.4-.36,.37-.05-.59,.65-1.37,1.52-1.71,3.46-5.13,5.35-8.17,1.31-2.09,2.62-4.18,3.92-6.25,.27-.43,.65-.89,.72-.9,.06-.01-.29,.77-.37,.91Zm4.54-1.05c-.12,.06-.25,.15-.35,.19-.14,.05-.25,.07-.38,.09,.35-.44,.8-1.03,.94-1.11,.14-.08-.12,.52-.21,.83Zm11.86-19.66c-.21,.19-.43,.35-.69,.7-.28,.37-.5,.67-.66,.89-.29,.42-.5,.71-.64,.88-.27,.35-.25,.25-.08-.09l1.23-2.26c.31-.17,.51-.47,.72-1.08,.9-.97,1.01-.75,.11,.97Zm1.12-2.17l-.24-.39-.11-.17s-.03-.06-.05-.08l-.05,.06c-.12,.16-.23,.31-.32,.44-.18,.26-.29,.47-.36,.63-.14,.32-.11,.49-.13,.71l-.7,1.06c-.04-.28-.04-.62,.27-1.3,.15-.34,.38-.76,.71-1.3,.16-.25,.35-.59,.57-.85,.23,.33,.48,.7,.76,1.11,.42,.63,.85,1.35,.62,1.25-.18-.07-.58-.49-.98-1.16Zm33.25,38.54c-.71-.97-1.08-1.76-1-1.91,.17-.28,1.66,1.88,2.51,2.84,3.65,4.15,1.59,2.15,.95,1.67-1.08-1.27-1.51-1.32-2.46-2.6Z"/><path class="cls-1" d="M46.83,55.72c-.19,.38,.46,.07,1.74-.75,1.9-1.25,1.99-1.01-.52,.91-3.43,2.62-3.63,3.16-5.25,4.63-1.87,1.7-1.21,1.27,.71-.01,1.06-.69,2.01-1.32,3-1.96,.11-.08,2.59-1.76,5.02-3.5,1.21-.87,2.43-1.72,3.34-2.39l1.54-1.14c.5-.49,1.15-1.09,1.4-1.4,.36-.44,4.84-4.62,5.72-5.41,1.98-1.72,3.6-2.75,5.55-4.6,1.12-1.09,1.57-1.36,1.46-1.11-.65,1.4,2.07-1.31,3.46-2.78,1.27-1.35,1.96-2.19,3.41-3.16,2.35-1.93,4.74-3.82,6.61-6.23,2.46-2.22,4.53-3.76,7.38-6.85,.67-.74,1.69-1.8,1.93-2.15,.73-1.04,1.9-2.37,3.19-3.81,.58-.64,1.19-1.3,1.8-1.96,.39-.45,.79-.9,1.16-1.33,.22,0,.36,.03,.49,0,.13-.13,.25,.2,.41,.38,.16,.2,.37,.42,.67,.71,.15,.15,.33,.32,.54,.52l.37,.35c.23,.24,.49,.49,.75,.76,3.28,3.34,3.87,3.18,7.54,7.08,3.46,3.73,4.98,5.31,4.33,5.21-.89-.13,.9,1.65,3.23,4.28,7.15,8.08,14.16,16.33,21,24.65,5.72,6.97,7.73,9.25,9.29,9.77,.77,.26,2.68,2.74,4.18,4.4,.85,.94,1.87,2.09,2.46,3.03,1.04,1.64,.26,1.04-.79,.1-.14-.12-.38-.39-.5-.49-1.53-1.28-.76,.26,1.88,3.6,1.22,1.55,2.61,3.15,3.91,4.73,2.26,2.77,2.02,2.08,1.58,1.27-.51-.93-2.63-3.61-1.82-3.12,1.23,1.43,2.81,3.04,3.55,4.29,1.19,2.02,3.07,3.87,4.51,5.74h.52c.44,.54,.88,1.09,1.32,1.64,.28,.67,.88,1.67,2.22,3.44,.4,1.29,.41,1.31,3.08,4.34,1.43,1.62,2.14,2.47,3.16,3.81,.89,1.19,1.51,2.17,2.3,3.54,.26,.45-.44,.06,1.63,2.31,.46,.51,.91,1,1.33,1.48l.31,.36c.05,.05,.1,.14,.15,.16l.13-.23,.51-.9c.67-1.16,1.31-2.22,1.95-3.24,.64-1.02,1.27-2,1.94-3.02l1-1.5,.73-1.06c.87-1.26,2.08-3.3,3.1-5.18,1.01-1.89,1.86-3.63,2.05-4.27,.06-.13,.8-1.8,1.53-3.45l.99-2.26,.31-.75c.07-.18,.11-.29,.1-.3-.4-.36,3.15-6.26,3.51-7.84,.1-.43,3.06-5.76,.6-2.12-.14,.21-.11-.14,0-.37,1.56-3.05,3.11-6.23,4.71-9.16,1.1-2.01,.88-.9,1.06-.8,.17,.1,.6-.4,1.56-2.01,1.7-2.86,2.14-2.91,3.27-4.51,.92-1.29,2.76-5.07,3.26-5.1,.6-.05,2.22-3.73,3.35-5.72,1.83-3.19,1.11-2.5,1.06-2.78-.05-.27-.32-.14-.51-.17-1.53,2.53-2.27,3.45-2.48,3.19-.47,.92-1.2,2.42-1.32,2.58-1.73,2.32-2.11,2.01-2.66,2.03-.55,0,1.7-3.44,2.13-4.59,.22-.58,.62-1.5,.59-1.63-.1-.41,.23-1.4,1.77-4.22,.48-.88,.56-1.18,.19-.61-.46,.73-1.34,2.29-1.41,2.32-.36,.16,.76-1.55,1.17-2.38,.42-.84,1.24-2.35,1.29-2.54,.11-.51-.61,.59-1.26,1.63-1.29,2.08-2.79,4.81-3.88,6.68-1.93,3.28-2.85,4.44-1.96,4.15,.47-.15-.31,1.69-2.2,4.42-.8,1.16-1.54,2.88-2.03,4.07-.46,1.1-.33,1.28-1.17,2.99-.32,.85-.63,1.47-1.04,1.95-1.64,2.76-1.24,1.25-2.34,2.85-1.5,2.19-2.68,5.18-3.79,6.83-2.66,3.92-2.44,4.42-2.57,5.27-.1,.64,1.06-.79-.57,2.31-1.31,2.48-2.03,3.04-3.08,4.65-.83,1.25-1.21,1.61-1.57,1.89-.79,.61-3.39,4.5-4.12,5.85-.91,1.67-1.74,3.07-2.55,4.4l-.6,.98c-.13,.2-.18,.26-.27,.39l-.48,.65c-.09,.12-.26,.5-.3,.67-.25,1.04-.34,1.83,.19,1.61,.71-1.51,.96-1.83,1.21-2.02,.24-.17,.4-.09,.74-.52,.81-1.45,1.91-3.55,2.42-4.29,1.3-1.88,.08,.37-.36,1.37-.47,1.06-1.06,2.63-.99,2.53,2.15-3.13,1.57-1.44,1.7-1.02,.02,.06,.49-.62,.8-1.08,.39-.57,.62-1.03,.69-1.34,.17-.74-.56-.05,1.16-3.18,1.66-3.01,2.01-2.91,2.99-4.33,.8-1.17,1.65-2.64,2.52-4.07,.27-.44,.55-.78,.66-.86,.05-.04-.36,.87-.52,1.13-3.34,5.67-5.63,10.73-9.12,16.41-1.17,1.86-2.29,3.69-2.98,4.68-.69,1.01-.89,1.09-.38-.31,.1-.26-.04-.15-.24,.08-.1,.12-.21,.27-.32,.43l-.16,.25c-.06,.02-.12-.12-.17-.16-1.35-1.5-3.12-3.79-4.69-5.73-1.62-2.01-3.14-3.78-4.18-4.45-.4-.26-1.26-1.11-2.07-2.28-3.01-4.36-6.32-8.67-10.39-13.1-.48-.52-.78-.9-.82-1.11-.12-.52,1.02,.63,1.85,1.37,1.25,1.12,1.82,2.16,2.52,3.19,.41,.6,.83,1.13,1.05,1.31,.19,.14,.27,.12,.19-.07-.21-.48-.89-1.48-1.76-2.6-1.74-2.23-3.62-4.69-5.3-6.66-2.03-2.37-1.99-3.24-4.68-6.02-1.22-1.27-2.01-2.73-2.58-3.68-.85-1.42,.9,.53,1.56,1.06,1.19,.95,4.52,5.47,4.79,5.09,.33-.47-3.74-4.77-4.91-6.7-1.08-1.8-3.07-4.15-3.67-4.19-.61-.04-1.52-1.25-3.66-4.06-2.59-3.4-5.57-6.62-6.8-7.43-.91-.59-3.09-3.08-3.85-3.64-.86-.64-1.36-1.15-2.07-2.33-.37-.6-1.43-2.15,.39-.2,.64,.68,1.44,1.65,2.01,2.25,.72,.75,.46,.15,.09-.25-2.13-2.33-2.74-3.3-3.62-4.67-1.02-1.6-1.74-2.72,.9,.07,.48,.51,.23-.04-.78-1.2-1.53-1.75-1.86-2.4-2.37-3.21-.3-.49-.42-.82-1.4-1.82-.89-.92-1.75-1.75-1.59-1.32,.32,.89,.84,2,1.13,2.85,.07,.21-.29,0-.74-.41-.62-.56-1.28-1.43-1.71-2.04-1.95-2.79-2.66-3.6-2.69-2.82-.03,.74-.35,.38-3.89-3.85-4.32-4.55-8.64-9.27-12.5-13.78-.37-.42-.7-.83-1.02-1.23-.36-.45-.71-.89-1.07-1.34-.87-1.07-1.85-2.25-3.08-3.61l-.71-.77-.31-.33s-.1-.11-.14-.14l-.14,.15c-.35,.39-.64,.72-.87,1-.47,.57-.74,.96-.97,1.33-.48,.74-.84,1.38-2.44,3.11-.81,.87-1.48,1.74-2.22,2.61-.55,.82,1.54-.66-2.68,3.4-1.73,1.68-3.98,4.27-6.04,6.43-.5,.52-.05,.27-1.39,1.52-4.35,3.99-4.47,4.12-4.15,4.43,.09,.09,.89-.44-.22,.72-.99,1.02-1.97,1.79-2.88,2.53-.9,.73-1.89,1.54-2.28,1.69-.25,.09-.7,.39-1.07,.59-.28,.36-.83,.98-.79,1.05,.26,.35-2,3.11,2.99-.99,.53-.44-.16,.4-.89,1.11-3.96,3.82-4.2,2.91-7.99,6.32-.35,.31-1.32,.96-1.51,1-.19,.05-.01-.32,.43-.74,4.51-4.26,3.84-4.43,3.57-4.88-.14-.24,1.31-1.58,2.94-3.07-6.16,5.05-8.44,7.1-7.6,7.34,.11,.03,.93-.55,.31,.11-2.36,2.52-8.64,6.86-9.51,8.54-.7,.49-1.44,1.01-2.08,1.45l-2.6,1.66c-.72,.48-1.69,1.22-2.27,1.76-.5,.47-.79,.83-.89,1.03Zm164.19-2.99c.16-.21,.5-.72,.48-.6-.05,.31-.41,1.07-.96,2.02-.14,.24-.37,.58-.37,.55,.02-.27,.34-.99,.85-1.97Zm-52.38,23.96c.18,.22,.41,.74,.44,.91,.03,.19-.11,.17-.18,.23-.94-1.22-2.28-2.84-2.07-2.94,.12-.06,.83,.62,1.81,1.8Zm-15.91-22.93c.5,.5,.95,1.06,.93,1.19-.01,.06-.42-.3-.73-.65-.32-.36-.75-.94-1.14-1.43,.31,.29,.6,.54,.94,.88Zm-6-5.3c-.02-.32-.91-1.78,1.28,.73,1.65,1.9,3.2,3.83,3.75,4.94,.25,.49,.84,1.38,1.16,1.96,.83,1.53-.04,.76-2.67-2.49-1.31-1.62-2.17-2.78-3.41-4.03-.04-.04-.67-.91-.84-1.21-.55-.92,.12-.38,.73,.1Zm-6.83-8.71c.82,.98,.58,.86,.46,.85-.08,0-.5-.42-.77-.65l-.24-.56c.19,.12,.44,.25,.54,.36Zm-17.28-18.52c-.33,.09-1.32-.71-3.49-2.95,.32-.08,.29-.67,3.49,2.95Zm-4.86-4.43c.41,.45,.84,.93,1.26,1.39-.28-.17-.44-.15-.89-.59-1.25-1.22-2.47-2.74-2.49-2.94-.02-.25,1.35,1.34,2.12,2.15Zm-2.88-5.76c.86,1.01,1.46,1.8,.89,1.43-.17-.11-.74-.68-1.13-1.05-.3-.34-.51-.59-.65-.77-.15-.2-.24-.33-.27-.41-.07-.16,.06-.12,.19-.08,.08,.02,.25,.15,.41,.3,.16,.15,.35,.34,.55,.58Zm-4.02-.42c.27,.29,.72,.83,.7,.85-.08,.09-.54-.41-.88-.77l-.57-.62c-.19,.08-.38,.36-.58,.54,.12-.22,.3-.48,.53-.77,.23,.13,.51,.46,.8,.76Zm-4.68,1.08l.62-.65,.07,.22c-1.74,1.8-2.11,2.88-4.52,5.02-.19,.17-.47,.39-.43,.32,.78-1.15,2.55-3.05,4.25-4.91Zm-4.53,6.46c.63-.68,1.28-1.37,1.91-2.05,.16-.02,.46-.19,.43-.02-.08,.48-2.79,3.2-2.5,3.45-.9,.67-1.31,1-1.38,1-.32-.03-.65-.02,1.53-2.37Zm-7.78,6.65s.68-.49,.58-.35c-.38,.58-1.38,1.56-2.44,2.52-.65,.6-.89,.76-.62,.35,.68-.69,1.56-1.6,2.47-2.53Zm-31.79,28.25c.96-.68,2.74-2.21,2.45-1.73-.34,.58-1.7,1.9-3.91,3.63-1.53,1.2-2.63,1.82-2.94,1.84-.28,.02,.7-.83,1.95-1.81,.83-.65,1.66-1.31,2.45-1.94Z"/><path class="cls-1" d="M262.71,18.61c-2.3-.45-5.32-2.32-12.27-6.12-.65,.47-1.32,.94-1.93,1.43-.08,.07-.1,.19,.99,.81,.51,.29,1.24,.63,1.68,.85,1.45,.7,2.82,1.27,4.24,2.02,1.41,.74,1.28,.06,3.97,2.05,1.27,.94-1.24-.4-1.67-.44-.36-.03-1.73-.72-2.11-.76-.53-.09-4.84-2.63-3.18-1.31,.61,.46,3.65,2.25,5.58,3.6,2.2,1.54,4.12,2.71,2.14,.97-.93-.8,.19-.18,.71,.02,.68,.28,1.5,.62,3.1,1.77,.91,.65,1.68,1.41,1.47,1.47-.37,.11,1.62,1.4,2.81,2.35,1.16,.93,1.01,.4,3.16,2.29,.67,.61,1.59,1.35,2.58,2.12,.97,.78,2.01,1.59,2.95,2.28,1.84,1.41,3.24,2.37,2.81,1.74-1.25-1.82,1.77,.66,3.05,1.51-.32-.42-.83-1.01-.91-1.2-.08-.18,.48,.32,.61,.52,.22,.33,.27,.51,.39,.75,2.58,2.69,2.92,2.72,3.68,3.16,.62,.38,1.27,.95,2.14,1.82,.86,.88,1.98,2.07,3.19,4.04,1.62,2.75,1.74,4.61,1.64,6.26-.16,1.67-.51,3.5-2.26,6.38-.44,.75-1.05,1.94-1.05,1.66-.01-.33,.67-1.47,1.04-2.25,.92-1.89,1.53-3.95,1.56-6.04,.07-2.1-.71-4.13-1.89-5.88-.71-1.09-1.71-2.32-2.26-2.89-.56-.56-.58-.49,.45,1.12,.23,.34,1.15,1.93,1.19,2.39,.03,.23-.11,.17-.61-.45-.5-.61-1.45-1.78-3.2-3.73-.31-.35-1.09-.89-1.38-.99-.37-.14-1.44-1.04-2.32-1.75-.88-.7-1.59-1.18-1.14-.56,.44,.57,1.48,1.75,2.74,3.06,1.18,1.35,2.62,2.91,3.49,4.18,.51,.73,1.11,1.6,1.57,2.47,.23,.44,.42,.88,.56,1.3,.07,.21,.13,.43,.18,.64,.05,.23,.09,.46,.12,.7,.24,1.88-.19,3.68-.02,3.86,.21,.26,.3,.82,.09,1.82-.25,1.06-.75,2.56-1.54,4.61-.48,1.23,.2,.74-1.15,3.2-.74,1.34,.06-.92-.02-1.2-.08-.27-.12-.73,.34-1.93,.72-1.87,.25-.96-.53,.54-.79,1.52-1.86,3.69-2.19,3.91-1.02,.68-2.35,3.63-3.45,6.44-1,2.56-1.71,4.05-2.99,5.82-1.72,2.39-1.88,3.82-2.77,5.71,.25-.27,.66-.86,.69-.73,.09,.38-.55,2.23,1.07-.49,2-3.37,1.63-3.78,2.66-5.93,.29-.61,.6-1.23,.9-1.85,.21-.75,.55-1.35,.97-1.9,3.61-6.29,3.7-6.45,2.41-2.68-.7,2.02-1.27,3.74-.88,3.81,.57,.09,.35,.6-2.89,6.67l-.35-.26c-.68,1.17-1.04,1.61-.73,.7,.4-1.14,.62-1.98-.44-.1-1.72,3.1-3.16,5.56-3.65,5.59-.56,.03-3.52,6.08-4.32,6.79-.57,.51-.95,1.09-2.13,3.57-.53,1.12-1.38,2.75-1.95,3.73-1.46,2.46-.25,.18,.15-.68,.35-.73,1.17-2.25,.46-1.27-1.06,1.5-5.58,9.84-5.58,10.34,.02,1.27-2.03,4.68-3.65,7.65-1.87,3.46-3.77,6.92-5.7,10.33-2.17,3.85-2.87,5.43-1.84,4.44,.64-.61,.01,.65-1.04,2.44-1.33,2.29-2.73,4.88-3.94,6.36-.97,1.2-2.87,4.34-3.22,4.14-.33-.18-2.2,3.01-3.52,5.23-1.43,2.4-1.2,2.56-1.13,2.85,.04,.15,.08,.28-.02,.65-.06,.2-.48,1.08-.64,1.33-.79,1.23-.2,0-.37,.12-.4,.32-.97,1.01-1.59,1.91-.61,.89-1.19,2-1.37,2.76-.36,1.46-.62,2.76-.7,3.95-.09,1.18-.04,2.2,.1,3.15,.33,1.91,.63,3.08,2.26,4.53,1.05,.92,2.6,2.82,4.77,5.92,1.2,1.72,2.51,3.49,3.78,5.23l1.12,1.52,.47,.63c.12,.16,.2,.26,.21,.26,.24,0-1.15-1.76-1.43-2.3-.91-1.76-2.05-3.7-3.8-6.44-1.64-2.57-.97-2.45-.45-2.36,2.87,3.51,5.73,6.94,8.64,11.61,.23,.37,.85,1.2,1.19,1.61,.55,.67,1.04,1.22,1.47,1.69,.05,.05-.31-.63-.59-1.05-2.42-3.54-4.53-6.75-5.51-8.81,1.62,2.07,3.27,4.19,4.82,6.17,.39,.49,.61,.53,.75,.55,.13,.02-.17-.46-.63-1.03l-4.9-7.55c-1.14-1.8,.18,.02,.5,.39,.55,.68,1.19,1.48,1.79,2.22,.47,.58,1.36,1.82,.91,.96-.13-.25-.75-1.13-1.12-1.62-2.09-2.76-4.16-5.38-6.27-8.45-1.06-1.54-1.1-1.72-.55-1.24,.94,.82,1.42,1.25,1.2,.82-.1-.21-.4-.64-.84-1.28-.43-.63-1.04-1.49-1.54-2.49-.4-.81-.61-1.53-.62-2.08,0-.3,.03-.49,.09-.74,.06-.25,.18-.53,.34-.86,.43-.89,1.13-1.95,1.84-3.15,.77-1.3,1.29-2.39,1.92-3.55,.9-1.69,.81-2.24,.99-2.5,1.21-1.85,.4,.02,1.03-.72,.5-.59,1.21-1.68,1.88-3,.83-1.65,1.7-3.37,2.25-4.66,.91-2.09,1.6-3.09,2.49-4.24,.37-.47,.95-1.41,1.4-2.36,.6-1.26,.4-1.21,.25-1.24-.14-.03-.33,0-1.33,1.92-1.03,1.98-2.08,3.82-2.92,4.86-.41,.51-1.13,1.52-.75,.58,.27-.68,.9-1.71,1.45-2.61q4.28-7.18,5.83-11.44c.06-.18,.12-.35,.17-.49,.18-.63,.71-1.73,1.46-3.07,.79-1.42,1.44-2.34,1.44-2.04,.01,.98,1.88-2.53,3.24-4.85,1.75-2.96,3.08-5.53,3.82-7.6,1.95-3.08,2.9-5.2,3.38-6.88,.08-.28,.34-.86,.52-1.31,.18-.13,.37-.28,.52-.36,.05-.02,0,.14-.03,.28-.17,.61-.3,1.17,.71-.65,.64-1.16,1.53-2.83,1.19-2.66-.34,.17,.34-1.32,.79-2.45,.46-1.14,.71-1.63,1.4-2.59,1.7-2.37,2.42-3.8,2.99-5.85,.21-.76,.25-1.22,.42-1.91,.18-.71,.44-1.57,1.44-3.52,1.14-2.24,1.99-3.62,2.47-4.09,.35-.34,.42-.09,.61-.09-.57,1.16-1.23,2.39-1.43,3.13-.41,1.56,.68,.12,1.04,.13,.13,0-.45,1.49,.59-.46,.37-.69,.98-2.05,1.1-2.45,.44-1.45,1.11-3.12,2.67-5.94-.12-.98,1.57-3.44,2.52-5.33,.62-1.24,1.28-2.59,1.8-3.75,.49-1.1,.83-2.02,1.24-3.02-.48,.91-.98,1.8-1.44,2.73-1.68,3.35-2.78,5.33-3.2,5.19-.41-.12,.28-1.83,2.09-5.41,1.34-2.66,1.27-3.33,2.32-5.57,.37-.79,.47-1.24,.69-1.89,.2-.64,.51-1.37,1.04-2.78,.28-.79,.36-.87,.35-.51,0,.36-.13,1.15-.39,2.04-.27,.9-.46,1.5-.58,1.91-.09,.36-.09,.54-.03,.62,.11,.16,.43-.07,.6-.04,.14,.07,.73-.8,1.28-2.11,.55-1.3,1.01-3.09,1.12-4.73-.11-1-.16-1.86-.17-2.79-.15-.77-.63-2.06-.68-2.05-.19,.05-.28,.07-.62-.55-.35-.6-1.01-1.87-2.61-3.74-.52-.6-.55-.35-1.08-.9-2.27-2.27-4.24-3.89-7.65-7.58,1.6,1.19,2.72,1.92,1.71,.47-.23-.33-.62-1.12,.77,.44,3.75,4.41,3.73,3.79,5.08,4.92-2.15-2.64-4.7-5.53-6.88-7.17-2.38-1.76-2.57-2.24-3.4-3.27-.39-.46-1.03-1.14-1.97-1.84-.64-.49-1.6-1.15-1.49-.98,1.79,2.62-3.09-1.18-7.56-4.04-3.62-2.28-3.53-2.2-6.91-5.05Zm-8.6-2.92c-.92-.5-1.42-.92-1.74-1.26,.44,.19,.89,.34,1.55,.69,1.29,.68,1.42,.93,1.3,.96-.11,.03-.6-.12-1.12-.4Zm-14.71,139c.66-1.09,1.44-2.54,1.86-2.93,.34-.31-1.4,3.46-2.41,5.21-1.56,2.52-1.95,2.58-2.08,2.54-.2-.07,.22-.86,.82-1.81,.6-.93,1.31-2.12,1.81-3.01Zm-1.67,16.39c-.67-.96-.91-1.52-.95-1.79,.21,.3,.56,.71,.65,.85,.29,.49,.55,.95,.74,1.31,.29,.52,.1,.38-.44-.38Zm-1.54-5.66c.34,.88,.83,1.67,1.41,2.39,.29,1.41,2.66,4.74,2.09,4.64-.83-1.16-1.73-2.29-2.44-3.51-.71-1.21-1.22-2.56-1.19-3.87l.13,.36Zm-.31-.17c-.14,.32-.13,1.14-.16,1.54-.01,.38-.28,.42-.74-1.1,.03-.79,.18-1.69,.48-2.43,.29-.74,.68-1.31,.99-1.62,.22-.21,.07,.21-.13,.9-.2,.69-.35,1.66-.27,2.49-.06,.06-.13,.07-.18,.22Zm7.16-10.12c-.36,.67-.42,.95-.62,1.4-.1,.22-.24,.49-.47,.86-.23,.37-.54,.84-1.07,1.55-1.03,1.34-1.79,2.29-2.14,2.68-.34,.37-.47,.19,.07-1.15,.52-.85,1.14-1.75,1.68-2.7,.91-1.61,2.07-4.09,2.58-4.28,.34-.13,3.01-3.97-.04,1.65Zm2.59-5.66c-1.96,2.52-1.68,.85-3.96,3.9-.42,.57-.46,.06,.83-2.16,.73-1.26,1.61-2.61,1.68-2.42,.2,.55,1.79-1.52,2.97-2.82,.45-.5,.53-.23-.46,1.67-.45,.44-.79,1.08-1.06,1.83Zm15.48-29.24c-1.19,1.99-2.12,3.32-2.36,3.19-.29-.16,.03-1.31,1.08-3.69,.35-.79,.97-1.82,1.22-2.05,.82-.75,.2,1.23,1.36-.19,.06,.34-.62,1.63-1.29,2.74Zm-.89-3.52c.07-.21,.54-1.11,.84-1.66,.49-.89,1.11-1.99,.98-1.46-.17,.71,.6-.46,.83-.58-.55,1.07-1.1,2.14-1.66,3.22-.34,.18-1.4,1.73-.99,.48Zm5.05-8.22c-.37,1.04-1.26,3.04-2.32,4.37,.55-1.16,.85-1.93,.84-2.18-.04-.48,.72-2,1.76-3.96-.06,.53,.1,.72-.27,1.77Zm.31-1.88c-.15,.16-.29,.3-.46,.51-.6,.75-1.22,1.47-.52-.21,.35-.83-.03-.05,.29-.43,.6-.69,2.25-3.34,.69,.13Zm17.74-26.01c-.23,.26-.3,.18-.42,.22,.48-.86,.83-1.4,.88-1.27,.04,.11-.31,.87-.46,1.04Zm-9.01-53.12c.93,.77,1.93,1.72,2.69,2.51,.68,.69,.38,.58-.24,.16-1.51-1.03-3.84-2.71-4.54-2.92-.64-.16-1.62-.87-3.67-2.47-3.06-2.31-.84-1.03-1.61-1.73,.23-.04,1.53,.58,3.03,1.48,1.49,.91,3.23,2.03,4.33,2.96Z"/><path class="cls-1" d="M258.51,196.91c1.51,2.19,3.5,4.91,4.37,6.39,.64,1.08-.1,.62-.27,.79-4.73-6.83-5.15-7.3-4.42-5.05,.92,1.47,1.15,2.06,.1,.85-1.6-1.85-1.68-1.72-.56,.21,.46,.8,.08,.64,.02,.84-.94-1.57-1.88-3.12-2.83-4.71-.27-.45-.71-1.19-.9-1.42-.73-.91-.66-.62-.48-.21,.46,1.07,.85,2.07,1.45,3.31,.54,1.13,1.97,3.06,3.22,4.74,1.34,1.81,2.55,3.33,2.44,2.69-.06-.32-.05-.58,1.04,.89,1.08,1.47,1.03,1.71,1.03,1.93-.01,.51,2.15,3.09,2.67,4.15,.54,1.1,1.39,2.59,2.11,3.91,1.59,1.83,.23-.46,.72-.16,.34,.22,.73,.37,2.02,2.15,2.5,3.44,1.66,1.75,2.15,2.11,1.54,2.33,2.38,4.25,5.05,7.24,1.01,1.13,2.45,3.26,3.7,4.98,3.28,4.46,5.99,7.38,6.14,6.64,.03-.12-.4-.88-.8-1.54-.64-1.06-1.29-1.77-1.46-1.85-.48-.24-2.56-3.02-2.59-2.53-.03,.38-1.6-1.79-2.43-2.93-1.1-1.52-.79-1.44-.55-1.31,.97,.51,.02-1.48-1.14-3.74,2.47,3.15,4.29,5.17,5.87,6.74-.58-.83-1.18-1.67-1.75-2.48-.79-1.15-1.69-2.48-1.21-2.12,.18,.13,1.07,1.29,1.64,2.05,.58,.77,1.18,1.63,1.78,2.45-.62-1.11-1.25-2.22-1.87-3.32,1.85,2.77,4.6,5.92,5.53,7.64,1.01,1.88,.56,2.02,.68,2.82,.03,.21-.29-.04-.31,.11-.03,.21,.25,.86,1.26,2.21,.76,1.02,1.7,2.18,2.23,2.74,.54,.57,1.11,1.03,.9,.58-1.34-2.87,1.57,1.23,3.54,3.72,.95,1.2,1.61,2.21,2.41,3.34,.72,1.03,1.08,1.33,1.19,1.3,.12-.02-.03-.39-.79-1.46-.83-1.13-1.68-2.29-2.51-3.41-.64-.9-1.08-1.64-.82-1.51,1.14,.59,4.7,5.1,7.1,9.01,.45,.73-.09,.45,1.3,2.11,.35,.42,.32,.1,.39,.03,.45-.4-3.56-6.03-4.5-8.1-.71-1.58-1.71-2.87-3.31-4.29-.64-.57-.94-.92-1.7-2.2-.49-.83-.86-1.57-1.94-2.82-4.46-5.14-7.29-9.65-9.96-14.19-1.98-3.37-2.64-4.25-3.32-4.19-.68,.06-3.73-4.23-5.64-6.48-1.28-1.5-1.25-2.12-2.35-3.73-.61-.89-.91-1.57-1.36-2.35-.65-.65-1.62-1.74-1.87-1.83-.26-.09,.16,.78,.3,1.26-1.23-1.62-2.46-3.24-3.7-4.87l-.81-1.26,.28,.65c-.13-.06-.29-.07-.39-.2-1.97-2.7-3.81-5.5-5.91-8.14-.86-1.09-1.25-1.85-1.1-1.77,.43,.2-.49-1.68,2.06,1.75,1.59,2.13,1.67,1.94,1.62,1.61-.06-.48-1.12-2.16-2.36-3.91-1.39-1.95-1.57-1.82-1.81-1.88-.34-.07-2.21-2.34-1.26-.58,1.08,2.01-.2,.56-1.36-.61-1.7-1.73-.54,.54,2.24,4.48,.78,1.11,1.57,2.15,1.82,2.75Zm24.92,31.66c.4,.6,.23,.48,0,.29-.35-.28-.55-.35-.81-.49-.86-1.36-1.08-1.91-.57-1.5,.26,.21,.73,.7,1.38,1.69Zm-13.01-13.91c.28,.41,.67,.98,.99,1.45l.4,.6c.1,.15,.16,.25,.15,.25-.29,.14,.29,1.3,2.25,4.07,1.22,1.73,2.62,3.66,2.59,4.1-.03,.57-1.9-2.06-3.22-3.74-.95-1.21-1.04-1.07-1.28-1.17-1.54-1.95-3.11-3.84-4.41-6.09-.44-.75-1.55-2.32-.84-1.67,1.1,1.01,1.17,.61,.71-.55-.45-1.16,2.04,2.29,2.65,2.76Z"/><path class="cls-1" d="M219.59,37.31c-.35,.83-1.06,2.23-1.69,3.41-1.13,2.12-2.82,5.01-3.21,6.16-.31,.91,1.44-1.85,1.21-.82-.11,.5,.57-.36,.91-.63,1.46-2.45,2.3-3.48,2.48-3.19,1.21-2.28,1.28-2.93,1.49-3.64,.48-1.61,2.54-3.46,2.38-4.39-.06-.33,.01-.85,.61-2.26,1.26-2.92,3.26-6.56,5.51-10.23,1.45-2.43,2.99-4.81,4.49-7.1,.55-.85,1.14-1.67,1.72-2.47,.29-.4,.57-.81,.85-1.22,.25-.37,.48-.74,.7-1.12,.75-1.32,.58-1.21,.2-.77-.37,.43-.96,1.19-.87,.9,.09-.3,.48-1.08,.93-1.85l.69-1.15c.4,.11,.84,.3,1.26,.45,.87,.32,1.73,.64,2.5,.93,1.89,.75,3.47,1.29,2.38,.53-.28-.2-.64-.41-1.04-.62l-.63-.32c-.24-.12-.51-.25-.79-.37-1.13-.46-2.31-.88-3.24-1.19-.83-.63-1.04,.53-1.43,1.08l-1,1.83c-.65,1.22-1.09,2.11-1.63,3.14-.49,.95-.9,1.83-1.84,3.16-.77,1.1-1.27,1.68-1.4,1.61-.09-.05,.14-.6,.25-.97,.4-1.28,.24-1.44-2.16,2.76-1.35,2.41-2.88,4.93-3.56,5.29-.5,.27-1.41,2.2-2.07,3.46-.64,1.23-1.1,2.24-.58,1.66,.29-.33,.78-1.03,1.25-1.71,.75-1.1,1.95-3.02,1.53-1.88-.34,.93-1.54,3.02-2.35,4.25-1.95,3.02-2.92,5.06-3.88,7.29Z"/><path class="cls-1" d="M301.28,258.82c2.38,3.03,3.57,4.1,4.91,5.38,.75,.72,1.15,1.11,1.61,1.77,.23,.33,.47,.73,.75,1.29,.27,.56,.6,1.29,.81,2.31,.18,.75,.15,1.16,.12,1.16-.05,0-.07-.39-.34-1.16,0,.31-.03,.83-.14,.73-.14-.08-.16-.81-1.22-2.65,.11,.6-.08,.74-.15,1.1-.1,.35,.09,.96,.07,2.24-.15-.06-.29-.08-.44-.13-.17-.04-.26,.06-.36,.8-.19,1.1-.7,2.31-1.1,3.37-1.42,3.49-2.33,5-4.66,7.63-.51,.6-.74,.59-1.7,1.91-.58,.77-1.21,1.71-1.7,2.4-.6,.86-.62,1.07-.13,.61,.58-.53,1.13-1.09,1.82-1.92,4.98-5.96,6.64-7.75,6.5-5.56-.03,.31,.21,.2,.28,.35,.13,.23,.59-.3,1.24-1.29,.66-1.02,1.48-2.32,2.3-4.1,.08-.29,0-.29,.01-.45,0-.17,.12-.46,.41-1.49,.06-.24,.25-.34,.38-.53,.09-.63,.16-1.45,.06-2.3-.1-.84-.35-1.68-.66-2.39-.63-1.41-1.38-2.34-1.81-2.42-2.09-2.8-2.04-3.36-3.28-5.27-.51-.14-.36,.7-1.73-.7-1.65-1.68-1.54-.91-1.85-.7Z"/><path class="cls-1" d="M302.93,282.46c-.64,.66-1.29,1.38-2.17,2.35-.87,.98-1.84,2.28-3.26,4.03-2.87,4.26-5.99,8.38-9.38,12.29,1.58-1.42,1.78-1.43,.13,.46,.13,.16,.16,.42,.43,.44,.12,0,.61-.33,1.55-1.37,.41-.45,.88-1.01,1-1.21,.19-.35,.26-.59,.16-.63-.34-.15-.04-.7,2.86-3.68,1.33-1.46,3.15-3.61,3.86-5.01,2.54-2.64,1.22-.16,2.08-.57,.18-.09,.51-.42,.94-1.07,.33-.5,.86-1.36,.8-1.32-.69,.51-.69,.12-.34-.73,.35-.85,1.09-2.16,1.77-3.59,.69-1.39,.31-1.16-.43-.4Z"/><path class="cls-1" d="M113.09,339.25c-.06-.12-.65-.53-1.06-.71-1.47-.6-2.88-1.04-2.7-.86,.9,.9-1.51-.1-4.81-1.58-.69-.32-1.48-.55-2.23-.83,2.94,1.59,3.67,2.22,2.99,2.33-.53,.08,.69,.69,3.29,1.74,1.22,.51,2.66,1.11,3.95,1.65,2.35,.98,8.42,2.68,8.74,2.57-.14-.13-.37-.28-.69-.47-.3-.16-.67-.35-1.13-.6-.81-.42-1.97-.94-3.55-1.59-2.41-1-2.64-1.37-2.79-1.66Z"/><path class="cls-1" d="M51.29,303.68c.12,.04,.39-.04-.02,.58,.65,.43,1.03,.75,1.12,1,.41,.19,.79,.36,1.12,.5,.5,.22,.94,.41,1.32,.57,.82,.33,1.34,.48,1.49,.37,.14-.11,.28-.23,1.91,.54,.34-.06,.68-.11-2.11-1.64-.59-.31-1.13-.61-1.64-.88l-.22-.11-.12-.05c-.08-.03-.16-.07-.24-.1-.33-.13-.67-.24-1.11-.37l-.28-.09s.02-.1,.03-.15c.04-.09,.08-.17,.12-.23,.07-.11,.14-.16,.2-.17,.12-.02,.24,.05,.36-.09,.2-.22,.38-.49,.56-.73-.08-.02-.14-.07-.18-.15-.01-.05-.04-.07-.02-.16,.03-.12,.08-.25,.14-.4,.23-.6,.64-1.45,1.15-2.45,.78-1.53,.64-1.66-1.05,.76-1.31,1.9-1.7,2.37-2.49,3.45Z"/><path class="cls-1" d="M251.85,314.65c.18,.29,.85,1.13,1.05,1.32,.18,.17,.14-.1-.02-.34-2.63-4.06-3.63-6.56-7.31-11.09-1.7-2.24-2.98-4.06-4.29-5.66-1.66-2.05-3.04-3.52-3.13-3.17-.09,.31,1.28,2.12,2.64,3.92,3.7,4.96,7.77,9.76,11.05,15.03Z"/><path class="cls-1" d="M169.7,87.96c1.11,1.18,1.68,1.56,3.19,3.28,4.19,4.74,4.18,4.69,2.43,1.68-.49-.85-1.06-1.74-.76-1.69,.32,.05-.87-1.38-1.74-2.42-.69-.83-1.5-1.66-1.24-1.18,1.23,2.32-.77,.45-2.61-1.2-.41-.36-.67-.52-.94-.73l.42,.85c.42,.47,.89,1.02,1.25,1.41Z"/><path class="cls-1" d="M287.05,301.15c.35-.55,.78-1.17-.39-.11-1.12,.98-1.69,1.6-2.42,2.47-1.11,1.35-2.63,2.82-3.23,3.71-.57,.81-.47,1,.25,.56,.71-.46,2.12-1.45,3.94-3.2,.98-.93,2.02-1.89,2.97-2.9l-.15-.46c-.98,.87-1.41,1.11-1.49,1.01-.08-.1,.18-.53,.52-1.08Z"/><path class="cls-1" d="M272.83,316.76c-.47,.22-2.14,1.41-1.84,1.27,1.37-.64,.93-.23,0,.45-.92,.69-2.43,1.53-3.03,1.99-1.35,.99-1.67,1.29-.52,1.01,.47-.13,.44,.06,.57,.14,.19,.12,1.2-.28,2.92-1.32,1.69-1.1,2.25-1.8,2.37-2.05,.27-.62-1.72,.25,.88-1.9-.5,.14-.71,.11-1.35,.41Z"/><path class="cls-1" d="M163.77,79.64c1.42,1.53,2.63,2.68,2.28,1.89-.5-1.11-1.52-2.83-2.63-4.62-.62-1-1.86-2.3-2.1-2.41-.39-.18-.22,.36-1.31-.69-.06,.07-.18,.08-.19,.23-.06,.58,3.49,4.52,3.95,5.6Z"/><path class="cls-1" d="M262.67,18.56c.5-.12,.88-.31,2.2,.18,1.4,.53-.74-1.26-3.08-2.96-1.05-.83-4.55-2.62-3.94-2.17,3.74,2.86-.09,1.18,3.05,3.76,.58,.39,1.17,.79,1.76,1.18Z"/><path class="cls-1" d="M269.73,316.43c-.04-.37,.02-.54-.09-.58-.16-.08-.39-.02-1.94,.87-.93,.55-1.39,.93-1.76,1.26-.33,.33-1.08,.8-1.38,1.05-1,.84-1.07,1.24,1.52,.15,.37-.18,1.19-.64,1.56-.89,1.32-.88,1.85-1.31,2.03-1.57,.19-.25,.06-.26,.07-.29Z"/><path class="cls-1" d="M254.59,13.59c2.1,1.11,2.48,1.1,.91-.04-2.02-1.45-5.45-3.31-7.11-4.47-.62-.44-1.56-.78-2.25-.99,.52,.45,1,.91,1.7,1.48,.63,.49,1.53,1.09,2.66,1.76,.57,.34,1.2,.68,1.88,1.05,.67,.39,1.41,.79,2.19,1.2Z"/><path class="cls-1" d="M183.45,102.21c.01-.38,.45-1.35,.82-2.21,.38-.87,.69-1.63,.58-1.79-.36,.67-.7,1.31-1.05,1.97-.19,.34-.39,.68-.6,1.01l-.33,.49-.17,.23-.09,.11s-.06,.1-.1,0c-.84-1.27-1.53-1.96-1.59-1.67-.03,.18,.16,.61-.23,.36-.56-.38-.25,.23,.97,1.82l.67,.84,.33,.39c.09-.13,.17-.29,.25-.43,.31-.56,.53-1,.53-1.13Z"/><path class="cls-1" d="M268.19,314.56c-.55,.52-1.32,1.02-2.2,1.6-.45,.28-.92,.57-1.41,.88-.51,.26-1.05,.53-1.59,.81-.55,.28-1.24,.63-1.83,.92-.59,.25-1.07,.48-1.17,.59-.13,.13,1.51-.37,2.25-.68,.77-.27,2.5-.96,2.66-1.21,.29-.49,1.3-1.15,2.47-1.84,1.19-.67,2.46-1.55,3.4-2.22,1.11-.79,2.05-1.64,1.75-1.6-.26,.01-.95,.44-2.17,1.17-.91,.58-1.77,1.19-2.17,1.57Z"/><path class="cls-1" d="M46.58,55.04c.33-.32,.73-.68,1-.96,.71-.72,1.19-1.33,.29-.82-.38,.21-1.47,.98-2.16,1.52-2.03,1.59-2.52,2.18-2.53,2.47,0,.09,.02,.15,.04,.24,.23,.02-.16,.53,.91-.09l2.45-2.35Z"/><path class="cls-1" d="M239.99,8.78c-.18,.15,.37,.52,1.03,.89l.54,.32,.71,.4c.47,.26,.92,.51,1.27,.73,.84,.5,1.7,.7,2.23,.84,1.27,.37-.96-.9-1.58-1.39-.36-.28-.46-.55-2.39-1.32-1.12-.44-1.77-.53-1.8-.47Z"/><path class="cls-1" d="M289.56,242.59c-1.28-1.65-1.44-1.55-1.55-1.42-.12,.15-1.75-1.76-.45,.32,.35,.55,1.28,1.81,1.74,2.36,1,1.2,1.09,1,1.5,1.19-.08-.26-.12-.55-.34-1.06-.09-.2-.63-1.05-.9-1.39Z"/><path class="cls-1" d="M83.09,326.72c-.39,.03,.37,.85,1.19,1.25,2,.97,4.18,1.83,4.06,1.61-.18-.37-1.87-1.47-2.92-2.27l-2.33-.59Z"/><path class="cls-1" d="M182.16,245.1c1.24-1.88,2.24-3.6,3.1-5.15,.33-.6,.35-.86,.37-1.05,0-.05-.67,.92-.75,1.04-1.39,2.13-2.24,3.5-3.19,5.01-.95,1.5-2.69,4.01-2.43,4.18,.18,.11,1.71-2.24,2.9-4.03Z"/><path class="cls-1" d="M224.86,34.24c.27-.21,.79-1.15,1.22-1.9,1.99-3.43,3.07-5.77,2.78-6.06-.04-.04-.45,.58-.68,.89-1.11,2.36-2.24,4.7-3.31,7.07Z"/><path class="cls-1" d="M309.55,277.1c-.23,.6,.17,.17,.71-.81,.66-1.2,.88-2.28,.83-2.46-.12-.55-.36-.78-.56-1.1-.17,.86-.47,1.64-.76,2.27-.49,1.16-.76,1.7-.83,1.97-.08,.27,0,.25,.14,.15,.27-.2,.75-.78,.47-.01Z"/><path class="cls-1" d="M129.59,330.97c-.13-.11-.16-.4-.43-.23-.23,.14-.9,1.04-1.57,2.28-.69,1.28-.6,1.47-.55,1.65,.12,.47,.41,.54,2.55-3.71Z"/><path class="cls-1" d="M253.53,185.22c.44,.51,.59,.63,.34,.17-.21-.36-.46-.8-.71-1.24-1.54-2.32-1.83-2.11-3.06-3.74-.86-1.14-2.5-3.46-2.15-2.58,.29,.73,1.73,2.33,2.68,3.67,1.01,1.44,2,2.67,2.9,3.72Z"/><path class="cls-1" d="M244.36,183.6c-.14,0,.18,.62,.75,1.42,1.68,2.35,2.34,2.75,3.57,4.23,.6,.72-.53-.88-.9-1.46-1.52-2.14-2.97-4.18-3.42-4.19Z"/><path class="cls-1" d="M41.66,59.82c-.06,.18-.61-.14,.97,1.87,1.02,1.29,1.25,1.29,1.46,1.29,.05-.15,.57,.15-1.02-1.87-1.03-1.31-1.36-1.44-1.41-1.28Z"/><path class="cls-1" d="M255.72,318.19c.12,.05-.28-.68-.84-1.56-1.02-1.58-2.72-3.56-2.56-3.04,.09,.31,.56,1.08,1.21,2.02,1.17,1.64,1.92,2.69,2.19,2.59Z"/><path class="cls-1" d="M235.68,13.48c.14-.05,.39-.35,.71-.79l.52-.76,.5-.76c.63-.99,.87-1.57,.85-1.81-.02-.24-.35-.02-1.1,1.2-.34,.55-.8,1.32-1.06,1.84-.28,.53-.43,.92-.41,1.08Z"/><path class="cls-1" d="M199.34,248.37c.75,.74,.8,.45-.37-1.2-.93-1.29-2-2.78-3.12-4.15-.5-.61-.7-.79-.44-.21,.02,.36,1.41,2.01,2.29,3.25,.6,.82,.42,1.1,1.64,2.31Z"/><path class="cls-1" d="M232.45,18.33c-.43,1.02-.73,1.89-1.08,2.82l.43-.38c.28-.54,.7-1.26,.84-1.57,.47-1.08,.89-2.09,1.24-3,.09-.23-.04-.22-.24,.06-.6,.82-1,1.63-1.19,2.08Z"/><path class="cls-1" d="M274.1,25.07s-.19-.2-.46-.43c-.26-.23-.58-.49-.79-.65-1.98-1.52-2.8-1.9-3.12-1.87,.32,.36,1.09,1.06,1.78,1.56,1.56,1.09,2.41,1.52,2.58,1.39Z"/><path class="cls-1" d="M304.26,283c-.71,1.09-.43,1.07-.36,1.2,.09,.18,.21,.31,.36,.39,.02,.02,.25-.28,.39-.44,.21-.38,.56-.96,.59-1.08,.09-.31,.02-.41,.02-.54-.09-.05-.15-.08-.22-.11-.13-.05-.15-.42-.79,.57Z"/><path class="cls-1" d="M216.26,267.33c.69,.58-.16-.57-1.05-1.67-.94-1.16-1.77-2.07-1.26-1.17,.39,.69,.26,.85,1.65,2.58,1.25,1.39,.17-.16,.66,.26Z"/><path class="cls-1" d="M86.59,108.91c-.74-.92,.9,.61-.81-1.3-.6-.67-1.25-1.16-1.53-1.3-.14-.07,.43,.82,.84,1.32,1.33,1.6,1.07,1.01,1.49,1.28Z"/><path class="cls-1" d="M245.96,183.4c.64,.88,1.19,1.54,1.35,1.56,.28,.03-.41-1.11-1.49-2.62-.27-.38-.74-.76-1.03-1.06,.03,.33,.07,.61,1.17,2.13Z"/><path class="cls-1" d="M205.48,67.21c-.39,.95-.8,1.98,.08,.61,.39-.61,.94-1.65,1.43-2.51-.04-.07-.04-.21-.14-.16-.15,.07-.38,.29-.58,.45-.27,.55-.63,1.23-.79,1.61Z"/><path class="cls-1" d="M79.36,100.26c.28,.01-.23-.77-1.63-2.4-.42-.49-.86-.95-1.54-1.69,.88,1.26,1.69,2.43,2.5,3.6,.23,.17,.57,.49,.66,.5Z"/><path class="cls-1" d="M255.46,136.29c0,.3,.21,.18,1.03-1.18,.63-1.05,.93-1.76,.99-2.08,.1-.5-.45,.28-1.13,1.39-.75,1.21-.77,1.48-.89,1.87Z"/><path class="cls-1" d="M255.32,320.54c.27,.38,.53,.73,.73,.96,.16,.33,.43,.02,.43-.03,.01-.05-.2,.13-.28-.17-.11-.2-.25-.44-.36-.6-.23-.36-.47-.72-.68-1-.08-.11-.25-.33-.37-.47-.12-.14-.22-.22-.29-.24,.03,.15,.15,.42,.32,.73,.12,.23,.29,.51,.5,.82Z"/><path class="cls-1" d="M294.77,290.19c.08-.33-.61,.44-1.27,1.24-.59,.72-1.36,1.69-1.61,2.1-.36,.55,.23,.06,.9-.7,1.03-1.16,1.64-2.03,1.98-2.64Z"/><path class="cls-1" d="M65.35,38.14c.36-.43,.41-.6-.59,.19-1.09,.91-1.38,1.31-1.38,1.44,0,.12,.41-.11,.64-.19,.45-.49,.98-1.04,1.33-1.44Z"/><path class="cls-1" d="M287.79,305.34c.24-.08,.74-.54,.9-.84,.18-.35,.11-.47,.03-.57-.02-.04-.43,.3-.76,.54-.68,.91-.51,.98-.16,.87Z"/><path class="cls-1" d="M56.07,75.36c-.3-.19,.05,.4,.7,1.22,.88,1.11,1.02,1.09,1.2,1.14,0-.15,.19-.13-.9-1.38-.38-.43-.85-.9-1.01-.99Z"/><path class="cls-1" d="M229.39,15.28c-.03-.14-.32,.12-1.05,1.39-.5,.86-.75,1.47-.67,1.5,.29-.26,.74-.82,1.27-1.71,.3-.51,.47-1.05,.45-1.18Z"/><path class="cls-1" d="M242.92,169.73c.41,.3-.06-.5-.89-1.69-.47-.69-.82-1.16-.94-1.14-.1,.03,.01,.42,.5,1.19,.58,.91,1.12,1.48,1.33,1.64Z"/><path class="cls-1" d="M271.86,209.94c-.11-.28-.47-.85-.96-1.46-.61-.76-1.09-1.29-.79-.69,.13,.26,.62,.95,.89,1.38,.71,.9,.99,1.15,.86,.77Z"/><path class="cls-1" d="M86.13,253.72c.09-.05,.55-.64,.81-1.03,.61-.93,1.04-1.72,.82-1.6-.09,.05-.54,.68-.8,1.02-.68,1.05-1.05,1.74-.83,1.61Z"/><path class="cls-1" d="M275.09,309.79c.1-.03,.83-.55,1.21-.88,.79-.66,1.41-1.27,1.07-1.14-.13,.05-.8,.57-1.17,.83-.96,.81-1.38,1.25-1.12,1.18Z"/><path class="cls-1" d="M309.88,278.51c.04,.12,.23-.02,.35-.04,.87-1.62,.88-1.99,1.11-2.72,.24-.87-.1-.16-.68,.95-.62,1.16-.81,1.66-.77,1.81Z"/><path class="cls-1" d="M217.47,39.97c-.84,1.58-.76,1.73-.65,1.83l.57-.75c.26-.7,.54-1.44,.74-2.04,.02-.07-.49,.66-.65,.97Z"/><path class="cls-1" d="M144.77,302.9c-.33,.53-.75,1.16-.96,1.56-.22,.43-.4,.91-.34,.92,.1,.03,.49-.61,.8-1.28,.21-.47,.33-.81,.5-1.2Z"/><path class="cls-1" d="M130.41,338.47c0,.1,.31-.32,.48-.51,.14-.42,.29-.84,.4-1.18-.26,.28-.43,.47-.6,.67-.1,.36-.29,.86-.28,1.02Z"/><path class="cls-1" d="M300.25,294.04c.07,.05,.39-.21,.6-.34,.19-.33,.56-.88,.54-.94-.03-.1-.3,.1-.52,.2-.29,.5-.66,1.05-.62,1.08Z"/><path class="cls-1" d="M125.2,29.75c-.04-.1-.43-.59-.65-.9-.2-.09-.47-.26-.56-.23-.03,.01,.38,.53,.54,.77,.73,.73,.77,.62,.67,.36Z"/><path class="cls-1" d="M166.82,88.07c-1.08-1.29-1.65-1.81-1.8-1.76-.06,.02,.08,.35,.35,.71,.8,1.08,1.15,1.31,1.3,1.36,.17,.05,.11-.19,.16-.31,1.17,1.35,1.04,1.07,.25,0h-.26Z"/><path class="cls-1" d="M257.72,128.78c.02,.13-.02,.46,.68-.83,.13-.24,.13-.48,.2-.73l-.52,.56c-.13,.35-.37,.89-.36,.99Z"/><path class="cls-1" d="M176.85,251.46c.04-.15-.31,.23-.57,.61-.48,.69-1.01,1.55-1.53,2.35,.32-.36,.59-.62,.97-1.1,.43-.55,1-1.39,1.13-1.86Z"/><path class="cls-1" d="M116.52,19.99c.34,.22,.07-.22-.78-1.15-.67-.74-1.43-1.5-1.54-1.45-.04,.02,.41,.58,.63,.89,.73,.84,1.38,1.5,1.7,1.7Z"/><path class="cls-1" d="M198.74,68.34c-.18,.08-.7,1-1.1,1.86-.19,.42-.17,.56-.25,.82,.21-.18,.51-.69,.83-1.42,.22-.5,.58-1.29,.52-1.27Z"/><path class="cls-1" d="M305.1,286.27c.04,.08,.13,.18,.84-.95,.18-.28,.2-.5,.31-.79-.23,.24-.11-.17-.86,1.01-.18,.29-.31,.66-.28,.72Z"/><path class="cls-1" d="M209.27,61.43c.08-.05,.38-.52,.55-.77,.47-1.03,.3-.94,.16-.91-.04,.01-.32,.42-.36,.52-.52,1.07-.51,1.27-.35,1.16Z"/><path class="cls-1" d="M304.81,260.11c.14-.02,.47,.2-.27-.95-.16-.25-1.28-1.57-1.31-1.5-.08,.18,.91,1.49,1.59,2.46Z"/><path class="cls-1" d="M89.67,13.83c.64-.5,1.3-1.03,1.91-1.51,.59-.46,1.27-.94,2.14-1.98,.53-.63,.49-.87,.4-.96-.18-.17-1.73,1.3-3.04,2.58-2.08,1.99-1.46,1.69-1.47,1.93-.7,.74-1.45,1.52-2.07,2.2-.33,.36-.67,.83-.55,.78,.37-.17,1.1-.94,1.59-1.56,.46-.57,.74-.99,1.09-1.48Z"/><path class="cls-1" d="M255.66,134.29c.33-.38,.84-1.29,1.3-2.16,.22-.42,.34-.76,.48-1.09-.33,.37-.85,1.31-1.29,2.16-.22,.42-.53,1.15-.49,1.09Z"/><path class="cls-1" d="M83.65,20.26c-.02-.1-.11-.16-.99,.72-.22,.22-.3,.44-.45,.66,.17-.06,.09,.18,1-.73,.24-.24,.46-.59,.44-.65Z"/><path class="cls-1" d="M206.24,58.16c-.12,0-.5,.55-1.03,1.58-.2,.38-.29,.7-.5,1.22,.42-.67,.82-1.28,1.21-1.9,.12-.32,.38-.9,.33-.9Z"/><path class="cls-1" d="M168.21,82.82c-.15-.27-.23-.48-.46-.84-.31-.49-.74-1.01-1.03-1.26-.45-.38-.17,.07,.38,.83l1.11,1.26Z"/><path class="cls-1" d="M278.15,94.04c.02,.09,.27-.27,.43-.43,.18-.42,.51-1.13,.51-1.2-.01-.1-.28,.28-.44,.45-.18,.43-.51,1.12-.49,1.18Z"/><path class="cls-1" d="M82.16,23.86c-1.4,1.34-.79,.97-.93,1.25l1.44-1.37c-.17,.03-.36-.01-.5,.13Z"/></svg>