<svg id="Ebene_1" data-name="Ebene 1" xmlns="http://www.w3.org/2000/svg" xmlns:xlink="http://www.w3.org/1999/xlink" viewBox="0 0 764.55 211.03"><defs><style>.cls-1{fill:#010000;}.cls-2{fill:url(#Unbenannter_Verlauf_456);}</style><linearGradient id="Unbenannter_Verlauf_456" x1="687.2" y1="500.47" x2="687.2" y2="394.59" gradientUnits="userSpaceOnUse"><stop offset="0" stop-color="#b31924"/><stop offset="0.06" stop-color="#a81a28"/><stop offset="0.37" stop-color="#721f3e"/><stop offset="0.65" stop-color="#4a234e"/><stop offset="0.87" stop-color="#322557"/><stop offset="1" stop-color="#29265b"/></linearGradient></defs><path class="cls-1" d="M121.28,604.71V546h50.66v5.41H126.78v47.91H172v5.42Zm13.26-27.39v-5.09h35.22v5.09Z" transform="translate(-117.72 -394.49)"/><path class="cls-1" d="M181.07,546h6.63l30.94,52.11,31-52.11h6.3l-34.74,57.85a3.67,3.67,0,0,1-2.75,1.69,3.21,3.21,0,0,1-2.75-1.69Z" transform="translate(-117.72 -394.49)"/><path class="cls-1" d="M266.39,604.71V546h50.66v5.41H271.88v47.91h45.25v5.42Zm13.25-27.39v-5.09h35.23v5.09Z" transform="translate(-117.72 -394.49)"/><path class="cls-1" d="M335.06,553.8v50.91h-5.17V548.8c0-2.19,1.13-3.56,3-3.56a3.6,3.6,0,0,1,2.67,1.37l47.83,50.1v-50.9h5.17V602c0,2.18-1.21,3.39-2.91,3.39a4.27,4.27,0,0,1-2.83-1.37Z" transform="translate(-117.72 -394.49)"/><path class="cls-1" d="M423.05,604.71V551.38H399.29V546h52.93v5.41H428.46v53.33Z" transform="translate(-117.72 -394.49)"/><path class="cls-1" d="M486,604.71V551.38H462.23V546h52.92v5.41H491.4v53.33Z" transform="translate(-117.72 -394.49)"/><path class="cls-1" d="M526.14,604.71V546H576.8v5.41H531.63v47.91h45.25v5.42Zm13.25-27.39v-5.09h35.22v5.09Z" transform="translate(-117.72 -394.49)"/><path class="cls-1" d="M615.74,604.71c-15.92,0-27.55-12.93-27.55-30,0-17.29,11.63-28.76,27.55-28.76h30.7v5.41h-30.7c-12.77,0-22.06,9.62-22.06,23.59s9.29,24.32,22.06,24.32h30.7v5.42Z" transform="translate(-117.72 -394.49)"/><path class="cls-1" d="M659,605.27V546h5.5v59.3Zm50,0V577.32H672.21v-5.09H709V546h5.58v59.3Z" transform="translate(-117.72 -394.49)"/><path class="cls-1" d="M733.86,553.8v50.91h-5.17V548.8c0-2.19,1.13-3.56,3-3.56a3.58,3.58,0,0,1,2.66,1.37l47.83,50.1v-50.9h5.17V602c0,2.18-1.21,3.39-2.91,3.39a4.24,4.24,0,0,1-2.82-1.37Z" transform="translate(-117.72 -394.49)"/><path class="cls-1" d="M802.13,604.71V546h5.49v58.74Z" transform="translate(-117.72 -394.49)"/><path class="cls-1" d="M822.57,604.71V546h5.49v58.74Zm51,0-41.61-27.8a2.63,2.63,0,0,1-1.29-2.5,2.79,2.79,0,0,1,1.53-2.59L872.1,546h9l-45,28.52,46.22,30.22Z" transform="translate(-117.72 -394.49)"/><path d="M456.56,486.49H396a9.6,9.6,0,0,1-9.6-9.6V408.65a14.16,14.16,0,0,0-14.16-14.16h-98.3c-20.3,0-31.25,12.41-31.25,29.06,0,16.94,11.83,29.64,31,29.64h49.66c11.68,0,18.11,5.56,18.11,16.51,0,9.93-6.28,16.79-18.11,16.79H244.74a.48.48,0,0,1-1,0H210.27l-.07,0H168.4c-21.18,0-36.51-16.8-36.51-39.29,0-22.78,15.48-38.55,36.51-38.55h52.52a4,4,0,0,0,4-4V398.5a4,4,0,0,0-4-4H168.4c-29.21,0-50.68,20.74-50.68,52,0,30.82,21.47,54.18,50.68,54.18h75.39a.48.48,0,1,1,1,0h78.54c21.17,0,31.54-13,31.54-30.38,0-20-10.95-30.23-31.54-30.23H273.77c-10.08,0-16.36-6-16.36-15.62,0-9.35,6-15.78,16.5-15.78h88.7a9.6,9.6,0,0,1,9.6,9.6v68.24a14.17,14.17,0,0,0,14.16,14.17h70.19a4,4,0,0,0,4-4v-6.17A4,4,0,0,0,456.56,486.49Z" transform="translate(-117.72 -394.49)"/><path class="cls-2" d="M560.87,500.47H500a3.56,3.56,0,0,1-3.56-3.56v-6.84a3.55,3.55,0,0,1,3.56-3.55h60.88a3.56,3.56,0,0,1,3.56,3.55v6.84A3.56,3.56,0,0,1,560.87,500.47ZM878,496.91v-6.84a3.56,3.56,0,0,0-3.56-3.55H813.53a3.55,3.55,0,0,0-3.56,3.55v6.84a3.56,3.56,0,0,0,3.56,3.56h60.88A3.56,3.56,0,0,0,878,496.91Zm-207.76,0v-6.84a3.55,3.55,0,0,0-3.55-3.55H605.77a3.56,3.56,0,0,0-3.56,3.55v6.84a3.56,3.56,0,0,0,3.56,3.56h60.89A3.55,3.55,0,0,0,670.21,496.91Zm103.88,0v-6.84a3.55,3.55,0,0,0-3.56-3.55H709.65a3.55,3.55,0,0,0-3.56,3.55v6.84a3.56,3.56,0,0,0,3.56,3.56h60.88A3.56,3.56,0,0,0,774.09,496.91ZM670.21,405v-6.84a3.56,3.56,0,0,0-3.55-3.56H605.77a3.57,3.57,0,0,0-3.56,3.56V405a3.57,3.57,0,0,0,3.56,3.56h60.89A3.56,3.56,0,0,0,670.21,405Zm0,30v-6.83a3.55,3.55,0,0,0-3.55-3.56H605.77a3.56,3.56,0,0,0-3.56,3.56V435a3.56,3.56,0,0,0,3.56,3.56h60.89A3.55,3.55,0,0,0,670.21,435Zm0,30.95v-6.83a3.55,3.55,0,0,0-3.55-3.56H605.77a3.56,3.56,0,0,0-3.56,3.56V466a3.56,3.56,0,0,0,3.56,3.56h60.89A3.55,3.55,0,0,0,670.21,466Zm103.88,0v-6.83a3.56,3.56,0,0,0-3.56-3.56H709.65a3.56,3.56,0,0,0-3.56,3.56V466a3.56,3.56,0,0,0,3.56,3.56h60.88A3.56,3.56,0,0,0,774.09,466ZM564.43,435v-6.83a3.56,3.56,0,0,0-3.56-3.56H500a3.56,3.56,0,0,0-3.56,3.56V435a3.56,3.56,0,0,0,3.56,3.56h60.88A3.56,3.56,0,0,0,564.43,435Zm0,30.95v-6.83a3.56,3.56,0,0,0-3.56-3.56H500a3.56,3.56,0,0,0-3.56,3.56V466a3.56,3.56,0,0,0,3.56,3.56h60.88A3.56,3.56,0,0,0,564.43,466Z" transform="translate(-117.72 -394.49)"/><path d="M336,92h18.38a3.14,3.14,0,0,1,3.14,3.14V103a3.14,3.14,0,0,1-3.14,3.14H336a0,0,0,0,1,0,0V92A0,0,0,0,1,336,92Z"/></svg>