<svg id="D1" xmlns="http://www.w3.org/2000/svg" viewBox="0 0 350 350"><path class="D" d="M296.74,152.19c-6.96-42.54-15.85-55.58-44.19-90.3-10.45-12.81-23-24.27-37.94-31.95-.07-.05-.15-.09-.23-.13-14.62-7.46-30.99-11.08-47.15-14.55-17.27-3.69-34.64-7.31-52.3-8.35-25.89-1.51-32.24-2.35-62.69,4.98,9.56,111.82,13.49,223.53,14.57,332.2,47.79-1.14,59.25,.47,104.73-12.18,45.22-12.6,111.49-58.6,122.03-102.81,3.43-14.36,5.55-62.36,3.17-76.91Zm-91.11,46.56c-3.77,10.4-10.79,35.58-54.02,41.19-1.89-34.53-4.25-53.77-5.89-99.63-.37-10.21,0-25.44,0-35.16,10.23,.47,20.63,5.14,29.71,10.21,4.06,2.27,7.95,4.85,11.66,7.6,2.54,1.9,5.04,3.9,7.18,6.26,2.38,2.61,4.28,5.62,6.01,8.74,10.22,18.39,12.51,40.97,5.34,60.79Z"/><g><path class="D" d="M147.61,159.55c.02,.34,.05,.69-.07,.93-.07-.31-.11-.67-.2-.93-.1-.29-.26-.51-.22,.17,.04,.72-.16,.86-.36,.98-.13,.08-.3,.09-.29,.54,0,.48,.19,.47,.32,.56,.22,.15,.4,.49,.54,.94,.23,.78,.53,1.58,.01,2.26-.23,.31-.16,1.07-.13,1.69-.27,.48-.2,1.14-.06,1.82,.27,1.28,.27,1.3-.23,1.88,.14-1.16-.13-2.17-.33-3.2-.1-.07-.28-.14-.28-.21-.02-.47,.16-.26,.26-.36,0-.83,.13-1.5,.26-2.18,.05-.25,.05-.5-.02-.73-.11-.36-.25-.27-.39-.22-.22,.08-.29,1.11-.6,.55-.25-.44-.52-1.17-.72-.4-.28,1.05,.25,1.24,.46,1.76,.08,.2,.18,.37,.24,.6,.11,.4,.02,.73-.1,.84-.15,.14-.38,.3-.5,.11-.56-.89-.67,.43-.98,.82-.73,.88,.31,2.03,0,2.89-.01,.04,.06,.28,.09,.43,.11-.18,.21-.45,.33-.53,.15-.1,.28,.23,.32,.59,.1,.85,.28,1.44,.6,1.92,.26,.4,.15,.92-.01,1.29-.12,.26-.32,.27-.35,.77,.12,.07,.3,0,.3,.42,0,.24-.17,.43-.26,.65l-.05-1.03c-.24,.32-.24,.68,.04,1.07,.28,.73,.59,1.36,.93,1.92,.27,.45,.19,.9-.03,1.16-.09,.1-.2,.11-.3,.12-.13,.02-.35-.01-.33,.31,.02,.31,.24,.25,.38,.34,.28,.18,.55,.48,.83,.58,.37,.14,.53,.52,.43,1.42-.03,.26-.04,.51,.09,.53,.11,.02,.13-.28,.16-.54,.02-.18,.06-.93,.15-.3,.19,1.31,.61,.61,.87,1.14,.1,.2,.36,.25,.04,.43-.52,.3,.03,1.17-.07,1.68-.29,.63-.26,1.53,.12,1.82,.55,.41,.67,1.13,.69,2.31,.01,.67,.24,.81,.47,.81,.47-.02,.5,.77,.52,1.6-.53,.15-1.11-.01-1.62-.21-.53-.21-1.07,.65-1.6-.49-.49-.49-.73-2.07-1.35-2.19-.14-.03-.27-.25-.39,.05-.12,.3-.24,.63-.04,1.09,.28,.65,.27,1.21,.09,1.85-.23,.81-.08,1.86-.04,2.81,.05,.86,.4,.93,.65,1.28,.3,.42-.31,.74-.02,1.34,.32,.65,.35,1.23,.14,1.99-.07,.27,.18,.66,.34,.88,.04,.44,.04,.9,.12,1.3,.12,.61,.11,.89-.17,.64-.16-.14-.28-.11-.35,.22-.09,.42,.08,.67,.19,.9,.25,.56,.5,1.07,.84,1.36,.57,.48,.61,1.04,.25,2.1-.06,.18-.17,.28-.23,.47-.32,.95-.15,3.52,.3,3.78,.62,.35,.52,1.27,.58,2.15,.22-.39,.22-1.12,.36-1.65,.07-.28,.29-.41,.3-.04,.01,.99,.28,.64,.44,.78,.14,.11,.28,.14,.42,.2-.08,.25-.14,.55-.24,.75-.38,.76-.44,2.21-.92,2.73,.18,1.18-.19,1.78-.3,2.66-.16,.33-.53,.22-.45,1.04,.12,1.16-.25,2.42,.3,3.46,.26,.5,.32,.88,.11,1.46-.03,.1-.59,1.88,.31,1.22,.23-.17,.38,.73,.67,.76,.21,.02,.24,.56-.02,.72-.29,.17-.27,.61-.07,1.16,.12,.34,.25,.6,.13,1.14-.27,1.31-.32,2.7-.16,4.26,.02,.17,.03,.43,.03,.61,0,.18-.02,.3-.05,.39-.06,.19-.15,.24-.26,.29,.01,.26,.02,.52,.03,.77,.22-.03,.41-.12,.55-.44,.07-.16,.13-.38,.17-.68,.04-.27,.07-.75,.08-1.05,.03-.81,.58-1.11,.38-2.38-.03-.17,.15-.26,.25-.18,.11,.07,.21,.21,.15,.56-.07,.49-.1,1.02,.01,1.55,.11,.49,.23,.98,.34,1.47-.23,.11-.46,.23-.69,.36l.03,.7c.32,1.35,.31,1.42-.12,2.18l.06,1.46c.23,.2,.29,.96,.38,1.65,.04,.34,.08,.67,.17,.87,.35-.12,.64-.26,.86-.46,.24-.21,.84-.42,1.4-.46,.75-.06,.61,.19,.49,.42-.11,.22-.21,.44-1.05,.69-.12,.25-.85,.53-1.31,.8-1.47,.87-1.41,1.25,1.27,1.05,1.07-.08,3.52-.39,3.78-.62,.45-.38,1.03-.52,1.67-.6l.24-.03h.44c.2-.02,.39-.03,.56-.07,.39-.08,.9-.12,1.34-.18,.44-.07,.8-.2,.92-.38,.43-.67,.92-.43,1.52-.44,.4,0,.85-.05,1.29-.11,.49-.06,.59-.18,.45-.33-.28-.31,.26-.63,1.04-.8,.82-.19,1.89-.82,2.49-.41,.71-.02,1.48-.29,2.19-.59,.92-.4,.84-.2,.67,.11-.07,.12-.03,.23,0,.33,.1,.42,1.07,.04,1.68-.09,.73-.14,.46-.36,.54-.53,.07-.15,.15-.45,.42-.43,.86,.07,1.44-.77,2.13-.79,.46-.02,1.15-.21,1.18,.12,0,.11-.05,.37,.51,.1,.35-.17,.59-.45,.45-.53-.49-.26,.05-.47,.76-.62,.28-.06,.7,0,.64,.09-.61,.85,.72,.21,.95-.01,.59-.63,1.19-.88,1.94-1.09,1.1-.32,1.68-.72,1.58-1.24-.04-.2,.16-.45,.69-.72,.43-.22,.59-.16,.74-.08,.41,.23,.86-.27,.82-.49-.05-.26-.14-.33,.49-.52,.27-.08,.58,0,.77-.24,.39-.52,.88-1.04,1.36-1.56l.73-.77c.23-.27,.44-.56,.64-.83,.31-.44,.31-.79,1.01-1.18,.6-.33,.95-.33,.78,.16-.12,.33,0,.44,.53,.09,.43-.28,.81-.64,1.18-.99,.37-.36,.7-.77,1.11-1.1,.14-.11,.14-.35-.07-.29-.11,.03-.27,.15-.39,.2-.55,.21-.65-.09-.3-.6,.43-.63,.41-.09,.69-.25,.41-.23,.31-.37,.27-.43-.27-.49,.78-.92,1.09-1.4,.48-.75-.33-.83,.11-1.26,.96-1,.75-1.17,.6-1.49-.04-.1-.02-.31,.24-.54,.21-.19,.39-.21,.36-.04-.09,.66,.27,.59,.99-.01,.17,.47,1.05,.18,.61,1.32-.13,.32,.34,.06,.73-.32,.53-.49,.91-1.15,1.05-1.62,.23-.82,.52-1.67,.87-2.53,.34-.87,.65-1.81,1.05-2.75,.02-.05,0-.09-.02-.14-.23,.3-.48,.53-.59,.44-.16-.13,.17-.54,.33-.8,.48-.72,.93-1.26,1.39-1.59-.16,.55-.41,1.05-.81,1.44,.22,.08,.26,.67,.93-.52,.24-.47,.54-.9,.7-1.43,.27-.91,.57-1.79,1.21-2.66,.24-.32,.41-.94,.27-1.09-.14-.15-.51,.26-.63,.68-.36,1.3-.68,1.45-1.09,1.28-.22-.09-.63,.26-.81,.04,.31-.63,.53-1.36-.05-.84-.83,.67-.93-.82-2.02,.62-.01,.02-.09-.22-.14-.35-.1-.33,.09-1.15-.45-.78-.57,.39-.69,1-.79,1.61-.01,.07-.04,.16-.08,.23-.35,.67-.89,.56-1.14,1.2-.2,.49,.47,.33,.1,1.15-.03,.08-.05,.16-.09,.23-.58,.91-.62,1.57-.85,2.27-.29,.95-.42,1.1-.94,.97-.51-.13-1.32,.82-1.93,.89-.14,.02-.24,.34-.33,.53-.13,.26-.29,.64-.47,.8-1.02,.9-1.11,1.45-.94,1.96,.05,.15,.06,.38-.34,.55-.57,.24-.96,.6-1.47,1.2-.44,.52-.28,.09-.22-.1,.07-.25,.36-.74-.1-.51-.47,.23-.42,.55-.55,.82-.15,.32-.4,.45-.67,.64-1.26,.71-2.19,1.71-2.95,2.68-.39,.54-.84,.9-1.4,1.32-.76,.57-1.44,1.18-2.3,1.33-.4,.06-.72,.38-1.06,.64-.35,.26-.68,.53-1.05,.58-.85,.12-1,.35-1.29,.83-.37,.56-1.72,1.54-2.45,1.75-.47,.16-.3-.57-1.13,.22-.41,.39-.88-.01-1.49,.45-.61,.47-1.05,.1-1.53,.41-.63,.41-.19,.61-.36,.95-.02,.03-.1,.08-.13,.12-.35,.42-.34,.45,.43,.41-.1,.15,.07,.37-.35,.44-.73,.08-1.35,.04-2.15,.48-.38,.21-.8,.21-.81,.09-.02-.47-.92-.31-1.54-.11-.68,.22-1.3,.18-1.92,.22-.64,0-1.3,.06-2.06,.54-.04,.03-.46,.02-.6-.03-.43-.15-1.01-.03-1.62,.11-.68,.16-1.3,.27-1.95,.24-.89,0-2.6,.45-2.36,.81,.27,.4,.05,.61-.39,.75-.42,.14-.94,.18-1.42,.28-.57,.12-1.19,.37-1.77,.39,.4-.56,.27-.87-.61-.79-.06,0-.15,.04-.17,0v-.24c.01-.16,.02-.31,.05-.47,.04-.31,.12-.62,.28-.92,.32-.63,.16-.87-.12-.8-.35,.11-.61-.09-.84-.58-.12-.25-.03-.56,.07-.76,.09-.2,.18-.37,.35-.19,.26,.26,.5,.22,.53,.07,.11-.48-.19-.4-.29-.48-.29-.14-.44-.83-.62-1.4-.14-.44-.28-.9-.44-1.27-.19-.42-.64-.05-.62-.76,.02-1.09,.57,.32,.77-.45,.05-.2,.3,.01,.39-.17,.43-.89-.43-1.59-.21-2.56,.06-.28-.16-.54-.31-.53-.06,0-.13,.11-.16,.24-.05,.21-.07,.46-.09,.71-.05,.53-.21,.67-.39,.5-.24-.22-.12-.81-.13-1.15-.04-.89,.31-1.39,.32-2.32,.02-1.52,.21-2.02,.76-1.58,.37,.3,.68-.15,1.03,.22,.02,.02,.11-.37,.12-.59,0-.24-.08-.62-.18-.51-.32,.37-.61-.03-.92-.37-.05,.33-.15,.43-.29,.52-.63,.43-1.21,.63-1.54-1.61-.04-.29-.22-.55-.36-.32-.09,.14-.14,.41-.07,.67,.18,.69,.19,1.39,.16,2.1-.03,.73-.26,.66-.47,.61-.3-.09-.2-.56-.17-.96,.1-1.24-.24-1.8-.64-2.25-.19-.21-.25-.55-.01-.54,.5,0,.52-.76,.47-1.75-.04-.88,.02-1.76-.07-2.62-.11-1.04,.13-1.08,.38-.96,.28,.13,.56,.43,.83,.71,.16,.17,.21,.49,.13,.86-.09,.45-.06,.87,.17,1.05,.17,.13,.4,.29,.5-.07,.2-.74,.42-1.56,.28-2.59-.1-.72-.16-1.97-.71-1.33-.1,.12-.48-.34-.44-.97,.04-.6,.31,.08,.45-.04,.38-.33,.68-.28,1.07,.57,.25,.55,.28-.27,.29-.78,.45-.03,.68-.87,1-1.43,.5-.89,.53-1.03,.09-2.27-.21-.58-.53-1.24-.46-1.82,.09-.76-.61-.77-.23-1.49,.35-.68-.33-.93-.2-1.61,.05-.25,0-.69,.1-.94,.37-.96,.29-1.92-.15-2.93-.07-.16-.12-.48-.13-.71-.03-1.97-.04-2.02-.8-2.92-.07-.08-.14-.15-.2-.24-.27-.38-.24-.83-.13-1.34,.19-.91,.22,.21,.34,.29,.15,.09,.28,.22,.38-.06,.12-.36,0-.61-.13-.85-.29-.55-.2-.88,.06-1.05,.13-.09,.28-.03,.4-.16,.34-.36,.31-.87-.1-1.55-.13-.22-.32-.39-.18-.73,.38-.87-.28-1.33-.22-2.13,.03-.47-.27-.4-.37-.62-.26-.56,.28-.78,.1-1.16-.42-.87,0-.94,.09-1.33,.2-.96,.16-1.06-.41-1.29-.14-.06-.23-.43-.29-.78,.18-.21,.35-.4,.52-.63,.12-.15,.24-.39,.17-.77-.03-.15-.2-.3-.29-.28-.41,.1-.41-.41-.29-1.06,.07-.38,.19-.68,.27-1.04,.15-.65,.15-.66-.27-1.3-.11-.17-.16-.41-.14-.65,.03-.33,.09-.62,.14-.93,.2-1.28,.07-1.8-.45-1.92-.32-.08-.64-.13-.96-.33-.14-.09-.23-.54,.03-.53,.29,0,.23-.54,.16-.9-.09-.48-.36-.94-.36-1.32,.01-.57-.51-1.4,.04-1.78,.39-.27,.23-1.27,.11-1.8-.22-.95-.65-1.79,.08-2.18,.03-.02,.07-.35,.04-.43-.41-1.41-.03-2.35,.18-3.37,.17-.79-.05-1.08-.27-1.41,.16-.71,.2-1.43-.07-2.15,.09-.03,.16-.08,.13-.34-.01-.09-.09-.15-.14-.23-.18-.99-.43,.02-.63-.31-.21-.35-.39-.87-.66-.89-.1,0-.21-.07-.32-.06-.1,0-.25,.27-.21,.36,.49,1.14-.12,1.82-.06,2.76Zm52.08,51.49c.12-.21,.27-.38,.41-.57-.01,.46,.03,.9-.07,1.42-.03,.14-.38,.3-.54,.33-.33-.12-.14-.54,.2-1.17Zm-1.24,5.27c-.12-.19-.18-.46,.18-.97,.21-.28,.46-.42,.55-.3,.21,.27-.27,.76-.53,1.15-.04,.07-.09,.13-.14,.19-.02-.02-.05-.04-.06-.07Zm-3.49,4.26l.22-.08-.27,.51s-.11,.06-.13,.04c-.08-.08-.02-.24,.18-.47Zm-33.54,19.2c.39-.16,1.16-.31,1.42-.26,.49,.1-.24,.42-.46,.64-.16,.16,.44,.34-.45,.46-.65,.09-.93-.27-2,.26l-.09-.25c.53-.29,1-.61,1.59-.85Zm-3.78,.95c.38,.07,.67,.23,.89,.38,.26,.17-.34,.24-.57,.33-.74,.29-.53-.05-.76-.12,.12-.03,.22-.05,.27-.08,.04-.02,.03-.05,.05-.07-.09,.05-.17,.1-.33,.15-.52,0-.65-.11-.57-.26,.09-.22,.6-.43,1.03-.33Zm-3.46,.32c.2-.03,.54,.05,.55,.13,.03,.31-.04,.63-.08,.95l-.77,.12c.16-.34,.42-.69-.05-.91-.13-.06-.05-.22,.35-.29Zm-1.89-4.41c0,.14-.03,.31-.05,.46-.22-.32-.45-.7-.68-1.15,.06-.09,.11-.18,.18-.29,.31-.03,.52,.22,.55,.97Zm-2.29-9.63c.28,.91,.2,1.62-.1,2.18l-.2-2c0-.11,.07-.29,.12-.33,.04-.04,.14,.05,.17,.15Zm-.66-16.31c-.09-.1-.24-.39-.24-.47,.04-.45,.19-.18,.3-.05,.11,.13,.22,.29,.36,.47-.15,.26-.29,.19-.42,.05Zm2.08-.41c-.14,.24-.24,.02-.31-.35,.11-.04,.18-.48,.33-.09,.03,.07,.02,.38-.02,.44Zm-.3-2.24c-.06,.03-.13,.13-.18,.07-.05-.06-.12-.28-.12-.41,0-.24,.08-.26,.15-.07l.15,.41Zm-3.07-.96c-.08,.39-.05,1.05-.35,.84-.04-.03-.06-.27-.1-.43,.05-.47,.11-.96,.37-.83,.08,.04,.11,.24,.07,.41Zm.83-1.72c.05,.61-.17,.6-.36,.65-.27-.02-.52-.32-.75-.87,.21-.31,.4-.81,.64-.86,.16-.04,.42,.51,.47,1.09Zm.79-1.99c-.06,0-.13,0-.19-.03-.17-.07-.36-.03-.43-.59-.02-.21,.05-.28,.13-.23,.2,.13,.49-.05,.5,.85Zm2.77-2.9c-.12,.22-.18,.36-.25,.46-.07,.1-.17,.28-.24-.07-.05-.29,.03-.46,.13-.49,.09-.03,.19,.04,.35,.09Zm-4.42-7.48c-.09,1.32,.24,1.26,.58,1.23,.11-.01,.11,.04,0,.55-.01,.07-.07,.1-.07,.16-.01,.61,.51,.16,.33,.82-.16,.55-.14,.86,.04,1.32,.2,.51,.34,1.04,.27,1.72,0,1.34-.13,1.58-.58,1-.3-.38-.62-.71-.69-1.72-.03-.5-.15-.52-.31-.34-.12,.13-.35-.1-.17-.37,.41-.59,.26-1.56,.27-2.46,0-.62,.01-1.23,.02-1.84,0-.13,.08-.28,.13-.3,.05-.01,.17,.19,.17,.23Zm3.28-1.04c-.06,.03-.13,.07-.19,.1-.09,.04-.18,.06-.27,.09,.06-.14,.12-.33,.2-.37,.07-.04,.18,.12,.27,.19Zm-.8-6.24c-.06,.18-.14,.34-.16,.55-.1,1.77-.29,.38-.45-.06,.15-.17,.15-.34-.02-.53,.18-.62,.38-.84,.63,.04Zm-.94-.91c-.16,.88,.1,.8,.3,.87l.02,.51c-.38-.07-.74-.24-.68-1.55,.01-.25,.07-.52,.2-.42,.11,.08,.2,.32,.15,.59Zm-2.98-13.01c-.05,.3-.26,.53-.41,.55-.31,.04-.12-.62-.18-.94-.27-1.36,.1-.67,.3-.49,.05,.41,.36,.47,.3,.88Z"/><path class="cls-2" d="M206.08,196.9c.15,.15,.34,.03,.58-.29,.36-.48,.56-.4,.31,.35-.35,1.03-.08,1.25-.05,1.84,.03,.69,.14,.52,.44,0,.16-.28,.34-.53,.51-.79,.02-.03,.4-.71,.77-1.39,.19-.34,.37-.68,.51-.94,.12-.26,.2-.45,.2-.45-.02-.19-.02-.43-.07-.55-.07-.17-.03-1.78,.03-2.07,.13-.65,.55-1.05,.55-1.76,0-.41,.13-.51,.23-.43,.53,.49,.5-.53,.45-1.06-.04-.49-.15-.79,.21-1.17,.34-.73,.68-1.46,.37-2.29,.23-.82,.71-1.42,.67-2.51-.01-.26,.01-.63-.05-.75-.36-.68-.16-1.84-.18-2.8,.68-.42,.6-.41,.52-1.98-.08-1.22-.59-1.3-.66-2.67-.08-1.3-.17-1.85,.25-1.73,.58,.17,.42-.48,.4-1.39-.06-1.39-.18-2.78-.26-4.17l-.42-4.15c-.31-2.3-.58-3.05-1.5-3.24-.45-.09-.49-.89-.73-1.42-.13-.3-.28-.66-.21-.96,.12-.52,.39-.34,.68-.04,.04,.04,.08,.12,.12,.16,.48,.41,.75-.09,.58-1.17-.08-.5-.27-1.02-.4-1.53-.26-.88-.45-.65-.55-.39-.1,.3,.06,1.16-.31,1.02-.14-.46-.53-.95-.41-1.36,.18-.66-.29-1.23-.4-1.82l-.42,.04-.13-.52c.15-.23,.23-.56,.11-1.11,.38-.45,.37-.46-.11-1.39-.51-.96-.54-1.3-.24-1.94,.05-.1,.4-.05,.02-.51-.69-.85-.81-1.56-.9-2.49-.05-.83-.92-2.25-1.33-2.43-.08-.04-1.37-1.43-1.44-1.4-.48,.2-1.01-1.49-1.58-1.63-.16-.04-.79-1.44-.67-.26,0,.07-.16,.06-.19,0-.47-.72-.98-1.45-1.37-2.18-.26-.51,.16-.44,.33-.54,.17-.09,.22-.31,.05-.76-.3-.8-.02-1.04-.07-1.6-.04-.45-.76-1.28-.44-1.57,.38-.35-.48-1.05-.79-1.57-.5-.84-.61-.45-.78-.4-.17,.06-.28,.21-.41,.33,.36,.69,.34,1.07,.07,1.21,.17,.2,.47,.51,.47,.57,.06,.84-.36,1.08-.73,1.4-.36,.31-.64-.71-.95-.86-.15-.08-.36-.23-.45-.2-.27,.1-.56,0-1.02-.62-.15-.19-.25-.2-.19-.05,.08,.19,.32,.55,.29,.59-.15,.2-.31-.29-.47-.43-.17-.15-.41-.48-.49-.48-.19,0-.08,.3,.04,.57,.24,.53,.67,1.12,.9,1.59,.4,.82,.36,1.25,.81,.77,.24-.26,.66,.05,.76,.92,.04,.37,.41,.67,.68,.87,.25,.19,.43,.11,.72,.48,.22,.13,.32,.27,.27,.47,.26,.76-.24,.61-.19,1.12,.03,.71,.74,1.21,.78,1.73,.1,1.23,.54,1.09,.89,1.14,.26,.04,.36-.51,.8,.23,.32,.61,.1,.94,.16,1.43,.05,.38-.05,.56-.17,.73-.25,.36-.1,1.52,.09,1.84,.45,.8,.58,1.46,.76,2.2,.03,.11,.17,.32,.24,.36,.46,.29,.78,.18,.96-.27-.79-1.03-.14-.94-.16-1.37-.19-.38-.5-.86-.52-1.09-.05-.58,.27-.04,.48,.16,.22,.21,.64,.49,.63,.45-.09-.97,.39-.71,.73-.76,.05,0,.03-.22,.01-.37-.02-.18-.1-.28-.21-.32-.26-.08-.46,.26-.87-.53-.4-.76-.09-.92-.13-1.37-.03-.37-.17-.78-.29-1.18-.04-.13,0-.26,.03-.31,.02-.02,.19,.17,.22,.24,.49,1.58,1.63,2.6,2.09,4.22,.29,.94,.68,1.8-.06,1.48-.14-.06-.15,.3-.06,.45,.61,.95,.63,2.77,1.56,3.08,.18,.06,.4,.31,.41,.68,0,1.39,.22,2.72,.98,4.08,.09,.16,.11,.28,.03,.35-.2,.17-.45-.18-.7-.4-.37-.33-.24-.66-.23-.98,0-.19-.02-.35-.11-.4-.07-.04-.15-.03-.19,.04-.1,.16-.12,.47-.05,.81,.15,.68,.24,1.45,.44,2.05,.25,.73-.29,1.02,.24,1.87,.24,.39,.02,.85-.09,1.14-.17,.44-.38-.17-.61-.33-.39-.29-.42-1.67-.85-1.54-.53,.16,.22,1.45,0,2.04-.22,.55-.04,1.26,.4,1.28,.45,.02,.45,.4,.46,1.26,.03,1.04,.34,2.06,.81,2.34,.35,.21,.5,1.01,.74,1.21,.28,.23,.34,.4,.17,.75-.08,.18-.23,.65-.43,.02-.07-.22-.09-.53-.17-.72-.1-.24-.26-.07-.23,.06,.21,.75,.1,1.04-.11,1.45-.23,.48-.39,.8-.65-.09-.05-.16-.2,0-.16,.35,.06,.55-.1,.73-.23,.97-.08,.14-.19,.23-.1,.55,.09,.3,.21,.57,.37,.46,.33-.23,.64-.53,.97-.76,.08-.06,.22,.03,.3,.17,.11,.19,.06,.46,0,.65-.3,.84-.28,1.09,.25,.93,.49-.15,.54-.04,.4,1.32,.25,1.53,.29,3.11-.04,4.54-.11,.54-.45,.94-.55,1.57-.16,1.05,.48,.67,.44,1.59-.02,.29,.07,.57,.12,.86,.16,.26,.66-.32,.34,1.1-.11,.59,.02,1.46,0,2.2,0,.18,.15,.08,.04,.52-.35,1.43-.33,1.47,.1,1.54,.13,.02,.32-.19,.34,.22,.03,.37-.13,.65-.28,.93-.14,.27-.26,.57-.43,.64-.11,.04-.22,.15-.33,.24,.06,.13,.09,.34,.17,.36,.43,.09,.76,1.08,1.4-.46,.07-.16,.16,.13,.15,.39-.09,1.41-.9,1.12-1.07,2.4-.02,.12-.24,.36-.34,.39-.1,.02-.23-.11-.22-.26,.08-1.58-.49-1.59-.99-1.73-.26-.07-.21-.56-.11-1.09-.73,1.84-.77,2.6-.07,2.65,.1,0,.26-.21,.29,.03,.14,.92-.99,2.56-.34,3.2-.11,.19-.21,.4-.34,.56-.17,.23-.35,.41-.52,.64-.14,.18-.25,.46-.23,.67,.01,.18,.08,.32,.16,.4Zm-8.25-61.78c0-.08-.03-.23,.02-.23,.12,0,.27,.16,.38,.41,.03,.06,.05,.17,.03,.17-.12,0-.27-.13-.43-.35Zm10.78,21.49c-.02-.07,.1-.24,.17-.3,.08-.06,.18-.06,.28-.09,.05,.39,.18,.91-.04,.95-.13,.02-.31-.19-.4-.56Zm-.85,7.22c-.09-.16-.11-.34-.02-.37,.05-.02,.15,.1,.19,.21,.04,.11,.03,.3,.03,.45-.07-.09-.14-.18-.2-.29Zm1.44,1.78c-.19,.09-.39,.53-.55-.28-.13-.61-.14-1.23,.09-1.56,.1-.15,.16-.43,.26-.61,.25-.47,.51-.22,.6,.83,.03,.53,0,.89,.19,1.31,0,.01-.04,.29-.09,.38-.14,.28-.33,.09-.51-.08Zm-.12,2.78c0-.32,.11-.27,.18-.25,.06,.01,.12,.15,.18,.23l-.17,.16c-.06-.05-.18-.1-.19-.14Zm1.03,6.27c.3,.04,.53,.36,.6,1.14-.3-.04-.63,.06-.6-1.14Zm.59,1.65c0-.15,.02-.32,.03-.47,.09,.08,.21,.11,.24,.27,.08,.44-.08,.94-.2,.97-.15,.04-.07-.48-.07-.76Zm-1.87,1.48c.08-.32,.2-.56,.35-.39,.05,.05,.06,.25,.09,.38-.08,.44-.21,.38-.35,.32-.09-.04-.13-.16-.09-.31Zm2.58,1.21c.01-.16,.07-.43,.09-.43,.12,.02,.1,.31,.09,.52,0,.24-.03,.48-.06,.71-.11-.17-.15-.47-.13-.81Zm-1.68,1.83c0-.07,.01-.15,.02-.22l.2,.05c-.07,.62,.35,.93,.05,1.71-.02,.06-.08,.15-.09,.12-.22-.37-.2-1.02-.18-1.65Zm1.03,2.07v-.71c.1-.02,.21-.1,.3-.05,.27,.13,.13,1.1,.51,1.14-.2,.26-.26,.39-.31,.4-.24,.02-.5,.05-.51-.77Zm-1.11,2.45s.15-.19,.18-.14c.12,.19,.08,.54,0,.89-.05,.22-.11,.28-.19,.15,0-.25,0-.57,.02-.9Zm-2.05,10.51c.14-.27,.25-.85,.4-.67,.19,.22,.22,.73-.01,1.41-.16,.47-.41,.72-.6,.73-.16,0-.14-.33-.03-.71l.24-.75Z"/><path class="cls-2" d="M183.32,122.3c.92-.39,1.82-.15,3.42,.99l1.51-1.59c.07-.07,.13-.18-.12-.38-.12-.1-.31-.18-.44-.23-.41-.12-.81-.24-1.22-.35-.41-.12-.57,.31-1.16-.32-.28-.3,.46-.1,.66-.21,.16-.09,.56,.02,.73-.06,.25-.13,1.29,.64,1.02,.08-.1-.2-.88-.69-1.33-1.1-.52-.47-1.07-.69-.71-.04,.17,.31-.16,.2-.34,.22-.24,.02-.53,.05-.93-.25-.23-.17-.38-.43-.25-.56,.22-.21-.35-.46-.67-.69-.31-.23-.38,.1-.92-.43-.68-.66-2.81-1.22-2.67-.73,.2,.71-.74,.35-1.23,.43,.07,.13,.2,.29,.2,.38,0,.09-.18,.02-.2-.06-.04-.12-.02-.22-.03-.33-.75-.57-.96-.34-1.25-.26-.49,.14-.98,0-1.88-.63-1.25-.87-1.29-.85-2.55-2.03-.16-.15-.45-.33-.33-.41,.14-.1,.38,.15,.58,.23,.98,.42,1.9,.96,2.83,1.49,.57,.33,1.33,.88,.74-.02-.12-.19-1.2-1.72,1.08-.3,.1,.06,.42-.02,.55-.09,.33-.2,1.55,.24,1.35-.2-.19-.41-1.37-.95-2.06-1.52-.81-.68-2.85-1.14-3.12-.79-.36,.46-1.01,.66-2.16,.5-.35-.05-.36,.38-.93-.04-.31-.23,.35-.22,.49-.37,.13-.15,.33-.32,.68-.28,.53,.07,.31-.06-.05-.29-.37-.23-.92-.49-.91-.71,.04-.67-.76-.93-1.57-1.01-.73-.08-1.12-.23-1.48-.76-.48-.73-1-.42-1.51-.58,.04,.12,.17,.29,.11,.36-.18,.2-.73,.24-.09,.77,.78,.65,1.04,.21,1.61,.42,.16,.06,.32,.13,.48,.2,.24-.05,.38,.05,.48,.25,1.46,1.16,1.48,1.21,.36,1.24-.6,.02-1.12,.06-1.26,.41-.21,.52-.33,.46-1.8-.39l.2-.38c-.27-.22-.34-.38-.08-.4,.34-.02,.61-.1,.16-.4-.74-.51-1.34-.92-1.22-1.34,.14-.48-1.48-1.04-1.57-1.48-.06-.32-.2-.46-.88-.63-.31-.08-.75-.24-1-.4-.63-.4-.02-.16,.22-.1,.2,.05,.61,.23,.38-.04-.33-.42-2.6-1.37-2.79-1.17-.47,.47-1.37-.04-2.2-.31-.96-.31-1.94-.61-2.91-.9-1.1-.32-1.57-.27-1.32,.23,.15,.31-.21,.27-.72,.13-.33-.09-.68-.16-1-.26-.33-.1-.58-.23-.88-.43-.44-.33-1.68-.61-1.74-1.02-.04-.4-1.43-.6-2.41-.69-1.06-.12-.91,.17-.87,.38,.02,.11,.05,.22-.02,.31-.04,.05-.32,.11-.42,.09-.54-.1-.15-.19-.27-.28-.57-.43-1.85-.62-2.01-.32-.01,.06,0,.14,0,.2,.43,1.24,.12,1.4-.13,1.72-.28,.32-.6,.51-.04,1.58,.35,.68,.47,1.55,.4,2.82-.02,.35-.02,.72-.02,1.09v.89c0,.26,.02,.74,.04,.75,.19,.04,.1-.52,.19-.67,.15-.26,.28-.47,.39-.84,.12-.37,.22-.77,.32-1.22,.19-.85,.65-.48,1.02-.27,.13,.6,.27,1.13,.32,1.66,.06,.59,.03,1.21-.16,1.89-.03,.11-.02,.37,.01,.5,.05,.22,.12,.4,.2,.56,0,.02,.12-.17,.14-.3,.13-1.07,.31-2.02,.72-2.58,.09,.66,.16,1.33,.27,1.96,.03,.16,.18,.2,.28,.22,.1,.03,.13-.12,.1-.3l.24-1.12,.12-.56c.02-.09,.04-.2,.06-.26l.06-.13c.13-.24,.14,.03,.17,.08,.02,.03,.03,.04,.04,.08l.04,.18,.07,.36c.04,.19,.03,.57,.18,.33,.04-.07,.06-.34,.05-.49l-.03-.32c-.01-.12-.02-.1-.03-.16-.02-.08-.04-.17-.06-.26-.03-.18-.04-.36,0-.53,.05-.16,.11-.14,.28,.02,.56,.48,.55,.4,.59,.12,.02-.12,.09-.18,.18-.18h0c.21,.11,.18-.05,.25-.15,.05-.07-.08-.45-.05-.42,.2,.14,.17,.38,.29,.57,.09,.15,.15,.24,.19,.16,.05-.1,.15-.19,.24-.33,.08-.11,.15-.13,.19-.1,.08,.04,.28,.16,.4,.29,.12,.11,.35,.21,.6,.2,.33-.02,.33-.18,.35-.32,.02-.14,.02-.29-.48-.33-.26-.02-.51-.05-.73-.12-.16-.05-.16-.1-.24-.23-.05-.12-.18-.26-.07-.39,.08-.09,.22-.02,.34,.02q1.87,.59,3.06,.19c.05-.02,.1-.04,.14-.06,.18-.1,.49-.11,.84,0,.37,.13,.6,.32,.5,.44-.33,.41,.6,.61,1.18,.9,.74,.38,1.41,.54,2,.42,.73,.55,1.3,.59,1.81,.41,.09-.03,.24-.02,.37-.02,0,.11,.03,.22,.02,.32,0,.03-.05,.06-.1,.07-.19,.07-.36,.16,.09,.38,.28,.14,.7,.32,.71,.09,.01-.23,.41-.17,.73-.17,.32,0,.44,.05,.64,.32,.48,.66,.84,.79,1.47,.61,.23-.07,.4-.19,.62-.26,.23-.08,.49-.14,.98,.08,.56,.26,.86,.56,.91,.82,.03,.19-.09,.33-.14,.5-.29-.12-.59-.29-.82-.23-.49,.14-.23,.62-.34,.93-.04,.11-.45,.09,.01,.36,.16,.1,.52,.18,.64,.16,.44-.09,.9-.04,1.54,.42,.42-.4,.88,.27,1.33,.52,.3,.16,.63,.31,.93,.4,.28,.09,.54,.11,.81,.16-.21-.14-.41-.3-.63-.41-.81-.42-1.25-.77-1.07-1.16,.17-.39,.64-.31,1.51,.16,.64,.35,.93,.1,1.5,.34,.39,.17,.66-.2,1.11,.39,.25,.33-.07,.29-.49,.21-.87-.17-.77,.32-.91,.62-.13,.31,.56,.76,1.05,1.16,.23-.03,.38,.05,.45,.26,.14,.03,.38,.12,.4,.09,.2-.34,.2-.34,1.27-.02,.17,.05,.23-.12,.41-.08,.77,.18,1.52,.12,2.4,1.01-.54-.03-.95,.04-.76,.54,.04,.12,.06,.47-.29,.09-.97-1.04-1.15-.52-1.61-.54,.64,.48,1.29,1.13,2,1.19,.78,.06,.74,.34,.9,.66,.08,.15,.21,.34,.48,.43,.19,.06,.49,.1,.48,.03-.17-1.09,1.26-.58,2.55-.19,1.04,.31,1.04,.29,1.68,1.24Zm3.03-.49c.23,.13,.3,.31,.31,.48-.13-.03-.28-.01-.45-.1-.33-.16-.3-.31-.23-.37,.06-.06,.24-.09,.37-.02Zm-39.3-17.33c.37,.05,.82,.05,1.05,.24,.15,.15-.73,.44-1.21,.42-.74-.04-1.06-.37-1.19-.51-.38-.43,.82-.14,1.36-.15Zm-1.76,2.99c-.02-.33,.05-.44,.15-.43,.04,.12,.12,.31,.11,.35-.02,.13-.07,.24-.12,.32-.07,.12-.13,.02-.15-.23Zm.93-.77c.21,.41,.41,.78,.62,1.13-.26,.09-.37,.9-.76,.63,.02-.62-.22-1.53,.04-1.93l.09,.17Zm-.29-.32c-.31-.16-.62,.32-.94-.77,.29-.14,.57-.31,.88-.17,.01,0,.02,0,.04,0,.06,.03,.11,.1,.14,.19,.08,.23,.09,.59,.09,.88-.07-.05-.13-.11-.2-.14Zm3.36,1.76c-.16,.03,.13,.41-.44,.04-.58-.37-1.21-.64-1.11-1.07,.17,.02,.36,.05,.51,.04,.26-.02,.6-.23,.83,.15,.2,.26,.87,.72,.21,.84Zm.57-.55c-.28-.26-.45-.54-.62-.83-.18-.29-.38-.57-.91-.86-.2-.1-.26-.41,.36-.34,.35,.04,.76,.19,.76,.34,.04,.46,.65,.9,.94,1.33,.12,.17,.08,.36-.23,.4-.11-.19-.23-.19-.31-.05Zm7.18,.95c-.51-.27-.84-.53-.77-.8,.09-.31,.45-.51,1.13-.52,.22,0,.49,.15,.54,.28,.14,.43-.46,.65-.14,1.11-.13,.18-.47,.09-.75-.07Zm1.37-2.13c.06-.02,.32,.05,.46,.1,.24,.09,.54,.21,.37,.3-.23,.12,.07,.35,.07,.51l-.89-.23c0-.23-.4-.57-.02-.68Zm2.12,1.33c-.31,.06-.88,.02-1.17-.41,.32,.05,.55,.03,.64-.08,.18-.2,.61-.12,1.13,.08-.19,.14-.29,.35-.6,.4Zm.63-.41c-.03-.07-.06-.14-.1-.22-.16-.26-.32-.53,.18-.53,.24,0,.03-.05,.1,.1,.15,.27,.8,.77-.18,.64Zm5.62,6.55c-.04-.11,.01-.19,.03-.29,.2,.14,.31,.27,.24,.35-.05,.07-.25,0-.28-.06Zm13.69,6.27c-.25-.16-.46-.44-.64-.66-.16-.19-.03-.25,.17-.23,.49,.06,1.17,.32,1.46,.17,.27-.14,.56-.02,1.08,.36,.77,.57,.08,.45,.24,.68-.27,.24-1.71,.04-2.3-.33Z"/><path class="cls-2" d="M146.95,115.99c-.07,.66-.06,1.5-.22,1.93-.12,.31-.45,.11-.69,.11,.19-2.07,.13-2.23-.6-1.67-.12,.43-.28,.58-.42,.18-.2-.61-.35-.6-.58-.05-.1,.23-.31,.14-.48,.17l.48-1.36c.04-.13,.12-.34,.11-.42-.06-.29-.17-.22-.27-.12-.26,.28-.52,.54-.77,.87-.23,.31-.2,.9-.18,1.43,.02,.56,.11,1.05,.39,.9,.14-.07,.3-.12,.32,.33,.01,.46-.17,.5-.3,.54-.31,.1-.07,.94-.28,1.23-.21,.3-.39,.72-.59,1.09,.21,.61,.46-.06,.67,.08,.15,.1,.37,.19,.37,.73,0,1.06,.31,.6,.5,.74-.12,.69-.57,1.21-.16,2.2,.16,.38,.07,1.02,.08,1.55,.03,1.38,.52,2.37,1.08,2.24,.09-.02,.19-.24,.25-.43,.1-.31-.01-.55-.1-.59-.25-.12-.3-.99-.61-.89-.24,.07-.25-.6-.25-.95,0-.47,.21-.41,.32-.35,.49,.25,.88-.29,1.27-.92,.15,1,.44,1.67,.79,2.22,.01-.25,.01-.51,.04-.76,.03-.35,.09-.75,.27-.6,.06,.05,.11,.42,.13,.65,.02,.24,0,.5,0,.75l.43-.94c-.12,.83,.25,1.86,0,2.35-.28,.53-.73,.49-1.1,.67-.1,.05-.21-.05-.32-.02-.15,.04-.3,.21-.28,.63,.02,.32,.1,.69,.2,.88,.1,.19,.3,.37,.39,.25,.59-.78,.56,.48,.69,1.26,.07,.38,.02,.68,0,1.02-.01,.31,.1,.42,.2,.43,.11,.01,.21-.09,.21-.41,0-.35-.05-.7-.04-1.05,0-.27,.09-.49,.22-.42,.58,.28,.83,1.7,.5,2.84-.06,.21-.34,.08-.17,.61,.04,.14,.2,.06,.3,.06,.6-.02,.63-1.73,1.08-2.28,.34-.42,.29-.82-.17-1.34-.19-.21-.22-.32-.08-.69,.09-.24,.22-.44,.07-.85-.6-1.68-.25-3,.26-4.3,.38-.96,.36-1.24-.23-1.33-.59-.09-.53-1.4-.76-2.13-.15-.49,.23-.61,.29-1.09,.03-.27,.18-.45,.28-.67-.15-.23-.28-.59-.44-.65-.16-.06-.33,.18-.5,.29l-.13-1.52,.08-.37-.15,.17c-.07-.03-.2-.06-.2-.1,0-.83,.15-1.67,0-2.51-.06-.35,.07-.56,.15-.52,.23,.11,.59-.41,.64,.66,.03,.66,.21,.64,.37,.57,.23-.1,.37-.6,.39-1.13,.03-.6-.19-.6-.36-.65-.23-.07-.41-.8-.68-.31-.3,.56-.49,.08-.74-.33-.36-.6-.75,.02-.82,1.22-.02,.34,0,.66-.15,.82Zm1.56,10.04c-.03,.18-.09,.13-.17,.06-.12-.11-.24-.15-.37-.22,.1-.4,.24-.54,.42-.38,.09,.08,.18,.25,.12,.54Zm-2.36-4.72c-.03,.25-.07,.69-.1,.69-.32-.02-.53,.3-.57,1.15-.03,.53-.03,1.12-.31,1.21-.36,.11-.32-.7-.41-1.23-.06-.38-.21-.37-.34-.43-.1-.62-.26-1.23,.01-1.88,.09-.22,.11-.7,.3-.46,.3,.37,.59,.3,.9,0,.32-.3,.31,.76,.52,.95Z"/><path class="cls-2" d="M195.49,131.46c.21,.12,.48,.39,.7,.65,.39,.45,.76,1.2,1.1,1.33,.27,.11,0-.7,.37-.65,.18,.03,.19-.31,.27-.49-.31-.67-.34-1.07-.07-1.21-.43-.52-.73-.49-.96-.54-.53-.12-.28-1.19-.86-.96-.2,.08-.44,.11-.82-.07-.79-.37-1.52-1.1-2.27-1.88-.48-.51-.97-1.03-1.45-1.54-.35-.37-.59-.87-1.03-1.1-.75-.4,.02,.44-.19,.48-.11,.02-.33-.03-.51-.14-.36-.2-.73-.49-1.08-.66-.45-.23-.87-.35-.77,.04,.11,.41,.62,.74,1.01,.9,.6,.26,1.16,.41,1.73,.61,.27,.1,.51,.18,.75,.52,.2,.28,.25,.5,.16,.6-.06,.07-.24,.05-.37,.06-.46,.04-.59,.17,.34,.87,.53,.4,1.02,.93,.83,1.32-.14,.29,.33,.53,.6,.74,.26,.2,.51,.33,.51,.09,0-.13-.08-.34-.17-.53-.14-.31-.46-.75-.11-.69,.29,.05,.69,.49,.86,.81,.41,.8,.87,1.12,1.43,1.44Z"/><path class="cls-2" d="M145.27,134.74c.17,.96,.51,1.34,.85,1.79,.39,.5,.38,.55-.01,1.52-.08,.36-.14,.38-.21,0-.21,.15-.47,.51-.43-.57-.42,.3-.91,.05-1.26,.92l-.42-.05c-.15-.02-.32,.01-.37,.33-.06,.46,.08,.82,.23,1.12,.51,.94,.53,1.38,.08,2.28-.1,.2-.26,.24-.27,.66,0,.25,.01,.53,.06,.75,.06,.26,.18,.3,.27,.13,.11-.2,.23-.4,.3-.68,.53-1.99,1.29-2.6,2.24-2.15,.14,.06,.28,0,.42,.02,.46,.05,.47-.7,.42-1.57-.1-.13-.27,.04-.27-.42,0-.05,.16-.09,.26-.13-.11-.51,.42-1.49-.21-1.63-.07-.86,.3-.98,.4-1.54-.34-.1-.7,.1-1-.38-.36-.57-.73-.4-1.1-.4Z"/><path class="cls-2" d="M145.11,141.73c-.33,.47-.63,.99-.61,2.13l1.13,3.84c.13-.54,.27-.58,.42,.04,.2,0,.41,.03,.61-.02,.09-.02,.2-.17,.15-.52-.02-.15-.08-.33-.13-.38-.1-.09-.21-.14-.31-.13-.35,.04-.52-.1-.36-1.14,.07-.5,.03-1.19-.24-1.57,.36-.92,.86-.25,1.27-.48,.09-.05,.13-.16,.09-.35-.03-.15-.11-.39-.13-.37-.51,.42-.91-.27-1.31-1.04-.2-.38-.39-.27-.58,0Z"/><path class="cls-2" d="M151.44,219.02c-.09,.03-.23,.22-.22,.33,.02,.39,.22,.75,.31,.68,.45-.32,.52,.32,.57,1.22,.01,.19,.14,.38,.22,.58,.15-.84,.44-1.09,.82-.97,.3,.09,.34-.25,.21-.93-.06-.32-.05-.71-.09-1.05-.08-.62-.76-2.17-.94-2.08-.28,.14-.46,.56-.45,1.41,0,.65-.21,.75-.42,.83Z"/><path class="cls-2" d="M149.66,239.2c-.12,.06-.29,.24-.31-.24-.03-.55,.1-.99,.25-1.23-.15-.9-.35-1.51-.67-1.46-.16,.03-.33,.08-.46-.57-.22-.04-.43-.11-.38,1.17,.04,1.06,.16,1.77,.38,2.44,.41,1.24-.12,.76-.15,1.22-.02,.37,0,.8,0,1.21,.31-.39,.57-.04,.84,.51,.2,.43,.38,.19,.41-.92,.03-.71,.06-1.42,.09-2.13Z"/><path class="cls-2" d="M144.62,160.11c.01-.08-.07-.35-.12-.41-.05-.06-.17,0-.18,.08-.1,1.2-.72,1.88-.41,3.31,.02,.7,0,1.25,.06,1.76,.08,.65,.29,1.14,.57,1.07,.25-.06,.27-.63,.27-1.19,0-1.54-.41-3.08-.19-4.63Z"/><path class="cls-2" d="M206.12,153.21c-.23-.35-.45-.45-.73-.95-.75-1.4-.77-1.37-1.01-.41-.07,.27-.1,.55-.31,.56-.23,.01-.06,.43,.07,.73,.09,.24,.26,.48,.32,.33,.31-.75,.85-.23,1.39,.24,.12,.1,.24,.14,.34,.2l.14-.28c-.07-.14-.14-.31-.21-.42Z"/><path class="cls-2" d="M144.88,147.91c-.14-.16-.26-.34-.36,.06-.09,.38-.01,.59,.11,.87,.19,.43,.33,.96,.58,1.21,.47,.47,.81,0,.85-1.26,.01-.34-.01-.69-.02-1.03l-.42-.04c-.2,.66-.47,.49-.74,.19Z"/><path class="cls-2" d="M147.77,153.02c-.08,.13-.01,.63,.04,.55,.45-.75,.38,.56,.53,.91,.16,.4,.32,.49,.61,.2,.12-.12,.27-.1,.41-.12,.2-.03,.36-.3,.33-.77-.03-.48-.27-.67-.42-.73-.37-.12-.74,.41-1.09-.39-.16,.13-.3,.17-.41,.34Z"/><path class="cls-2" d="M206.2,155.8c-.27-.46-.59-.79-.75-.53-.22,.36-.37,.9-.5,1.44-.07,.31,.16,.7,.28,.72,.21,.05,.38-.13,.64,.19,.09-.02,.19-.03,.28-.08,.39-.2-.17-1.39,.04-1.74Z"/><path class="cls-2" d="M183.32,122.32c-.28,.26-.54,.53-1.01,.64-.5,.12-.06,.65,.41,1.17,.22,.24,1.14,.54,1.04,.38-.66-1,.53-.96-.01-1.88l-.41-.31Z"/><path class="cls-2" d="M145.78,153.69c-.33-.03-.44-.06-.54-.04-.14,.03-.28,.09-.27,.55,0,.28,.1,.42,.2,.54,.1,.11,.18,.33,.27,.42,.32,.31,.62,.35,.83-.35,.03-.1,.05-.34,.02-.45-.18-.78-.47-.66-.52-.67Z"/><path class="cls-2" d="M185.28,123.56c-.53-.26-.72-.11-.44,.29,.37,.52,1.14,1.03,1.34,1.57,.07,.2,.33,.25,.54,.26-.02-.23-.02-.48-.08-.76-.1-.5-.57-.96-1.36-1.35Z"/><path class="cls-2" d="M204.02,147.87c-.38,.06-.9-.88-1.26-.8,.25,.48,.61,.87,.66,1.53,.03,.48,.26,.81,.47,.73,.13-.05,.21-.2,.39-.09,.25,.16,.35-.07,.2-.59-.11-.37-.34-.8-.46-.78Z"/><path class="cls-2" d="M143.37,153.87c.27,.37,.3,.95,.31,1.59,0,.33,0,.81,.13,.88,.08,.04,.18-.42,.28-.63,.1-.22,.25-.7,.11-.76-.55-.23-.24-1.24-.36-1.82-.07-.35-.14-.67-.3-.59-.13,.06-.24,.27-.28,.64-.02,.28,.01,.55,.11,.69Z"/><path class="cls-2" d="M205.43,196.63c-.01-.12-.02-.26-.04-.37-.06-.28-.16-.5-.39-.32-.1,.08-.25,.37-.31,.58-.18,.6-.05,.84,.14,.96,.06,.04,.12,.06,.19,.1,.16,.01,.27,.21,.51-.03l-.1-.91Z"/><path class="cls-2" d="M189.72,124.07c.36-.25-.24-.87-.46-1.28-.13-.25-.45-.19-.62-.19-.41,0,.03,.49,.08,.75,.02,.16-.06,.34,.41,.59,.3,.16,.53,.19,.59,.13Z"/><path class="cls-2" d="M145.25,129.74c-.07-.52-.26-.52-.42-.51-.19,.01-.38-.61-.55,0-.04,.16-.03,.55,.02,.73,.11,.39,.3,.36,.52,.46,.09-.06,.22-.13,.35-.27,.05-.05,.1-.3,.09-.41Z"/><path class="cls-2" d="M153.43,226.99c.21,.07,.57-.22,.54-.44-.08-.55-.32-1.11-.47-1.05-.24,.1-.43,.61-.65,.95l.58,.55Z"/><path class="cls-2" d="M148.06,187.83c0-.56-.1-1.06-.27-1.45-.07-.15-.19-.18-.28-.2-.02,0-.03,.26-.04,.3,.04,.54,.07,.98,.12,1.42,.05,.44-.05,1.21,.25,1.19,.21-.01,.23-.72,.22-1.25Z"/><path class="cls-2" d="M197.05,128.45c.04-.15-.15-.37-.3-.55-.7-.82-1.36-1.15-1.66-.9-.04,.03,.06,.21,.1,.32,.62,.36,1.25,.73,1.86,1.13Z"/><path class="cls-2" d="M147.93,139.65c.1,.15,.22,0,.24-.25,.03-.3-.09-.5-.18-.53-.27-.09-.54-.11-.82-.16,0,.18,0,.35,0,.51,.19,1.13,.52,.06,.76,.43Z"/><path class="cls-2" d="M147.83,213.01c-.16,0-.34-.04-.49,.04-.13,.07-.25,.35-.21,.7,.04,.36,.22,.38,.35,.4,.34,.06,.63,.02,.35-1.14Z"/><path class="cls-2" d="M149.79,112.92c.05,.17,.11,.22,.18,.09,.05-.1,.1-.23,.15-.35,.12-.69-.24-.7-.27-1.21-.02-.36,0-1.07-.23-.84-.2,.19,.04,.73,.01,1.14-.03,.44,.05,.83,.16,1.18Z"/><path class="cls-2" d="M143.33,111.19c-.12-.02-.22,.15-.23,.39-.03,.72,.27,.9,.4,1.38,.06,.23,.09-.25,.13-.42,.03-.65,.05-1.28-.3-1.35Z"/><path class="cls-2" d="M206.61,199.12c-.16-.03-.33-.25-.54,.35-.14,.39,.02,.48,.17,.57,.13,.02,.29,.23,.51-.37,.14-.39,0-.52-.14-.55Z"/><path class="cls-2" d="M143.36,158.9c-.07-.02-.13,.18-.14,.44-.03,.47,.25,1.1,.41,.96,.1-.08,.15-.31,.13-.59-.03-.5-.13-.81-.4-.81Z"/><path class="cls-2" d="M191.8,124.99c.07-.18-.17-.42-.46-.66-.35-.28-.58-.32-.69-.23-.11,.1-.09,.31,.27,.58,.37,.28,.71,.41,.89,.31Z"/><path class="cls-2" d="M145.85,181.17c-.16-.25-.37-.19-.42,.32-.04,.4-.04,.86,.07,1.3,.05,.2,.1,.26,.24,.09,.19-.09,.04-.62,.05-1,0-.26,.33-.3,.07-.71Z"/><path class="cls-2" d="M192.78,126.13c.32,.06,.62,.09,.92,.14l.02-.23c-.14-.09-.3-.23-.4-.25-.34-.09-.66-.15-.96-.18-.08,0-.13,.08-.08,.16,.14,.23,.37,.32,.51,.35Z"/><path class="cls-2" d="M179.86,121.84s.17,.23,.28,.29c.51,.3,.78,.27,.95,.13-.03-.15-.19-.37-.38-.45-.43-.17-.72-.14-.85,.03Z"/><path class="cls-2" d="M146.51,141.61c.02,.32,.23,.27,.37,.28,.17,.02,.35,.02,.52,.01,.03,0,.05-.09,.08-.14-.04-.1-.07-.27-.11-.3-.1-.07-.21-.08-.28-.1l-.24,.02c-.13,.01-.36-.06-.34,.24Z"/><path class="cls-2" d="M144.1,174.91c-.18-.21-.23,.15-.21,.5,.02,.37,.1,.68,.26,.41,.12-.2,.32-.22,.31-.78-.11-.46-.23,.02-.36-.14Z"/><path class="cls-2" d="M202.37,216.04c.19-.26,.1,.39,.41-.23,.11-.22,.06-.5,0-.62-.03-.06-.3,.1-.4,.25-.31,.46-.06,.42,0,.61Z"/><path class="cls-2" d="M144.74,111.4c0,.27,.06,.49,.17,.51,.21,.05,.32-.28,.34-.74,0-.12-.15-.26-.21-.37-.17,.07-.31,.13-.3,.6Z"/><path class="cls-2" d="M201.44,137.46c.21,.18,.45,.37,.37-.06-.03-.19-.18-.45-.28-.68-.06,.02-.14,.03-.18,.08-.07,.08-.12,.2-.18,.3,.09,.12,.2,.29,.28,.36Z"/><path class="cls-2" d="M204.02,213.49c.15,.14,.38-.02,.64-.54,.08-.15,.13-.32,.22-.58l-.92,.84c.02,.09,.01,.23,.06,.28Z"/><path class="cls-2" d="M152.49,110.19c-.09,.13-.07,.26,.27,.4,.26,.11,.45,.07,.54,0,.14-.12-.04-.27-.32-.41-.3-.15-.38-.05-.49,.02Z"/><path class="cls-2" d="M144.97,158.29c-.04-.34-.13-.65-.29-.62-.03,0-.07,.28-.06,.43,0,.34,.02,.7,.21,.74,.11-.08,.17-.28,.14-.55Z"/><path class="cls-2" d="M143.2,144.6c-.15-.07-.18,.19-.16,.46,.02,.24,.07,.55,.14,.67,.1,.16,.21-.04,.23-.29,.03-.4-.07-.66-.21-.83Z"/><path class="cls-2" d="M205.96,190.36c-.06-.15-.14-.21-.26,.08-.09,.33-.03,.47,.07,.51,.08,.04,.21-.05,.31-.08-.03-.17-.06-.37-.12-.51Z"/><path class="cls-2" d="M148.4,148.37c.11-.06,.11-.23,0-.3-.13-.09-.26-.09-.39-.09-.04,0-.08,.13-.13,.23,.2,.27,.36,.24,.52,.16Z"/><path class="cls-2" d="M206.19,204.63c-.07-.12-.23,0-.35,.25-.16,.33-.05,.39,.03,.47,.1,0,.21,.09,.33-.32,.04-.14,.04-.33,0-.39Z"/><path class="cls-2" d="M189.77,129.08c-.08,.05-.1,.2,.18,.39,.19,.13,.35,.18,.41,.11,.02-.14-.03-.33-.22-.48-.11-.08-.29-.07-.37-.02Z"/><path class="cls-2" d="M150.29,110.47c.09,.05,.13,.07,.25,.12l-.19-.13c-.11-.08-.18-.12-.2-.11-.03,0,.06,.07,.14,.12Z"/><path class="cls-2" d="M150.08,120.6c.08-.07,.11-.24,.08-.43-.04-.24-.12-.42-.23-.26-.05,.07-.06,.28-.09,.41,.05,.29,.13,.38,.24,.28Z"/><path class="cls-2" d="M165.7,241.17s.24,.06,.36,.03c.28-.06,.49-.18,.4-.29-.04-.04-.24-.03-.36-.04-.31,.08-.5,.19-.41,.29Z"/><path class="cls-2" d="M143.44,151.7s.09-.26,.08-.39c-.02-.26-.1-.48-.21-.39-.04,.04-.06,.26-.08,.37,.02,.32,.11,.47,.21,.4Z"/><path class="cls-2" d="M148.91,139.88c.09,.02,.19-.04,.28-.06-.04-.44-.19-.48-.3-.64-.12-.17-.19-.03-.19,.25,0,.29,.1,.43,.2,.45Z"/><path class="cls-2" d="M195.53,132.46c.28,.33,.4,.27,.52,.19l-.02-.27c-.2-.08-.4-.17-.58-.22-.02,0,.03,.22,.08,.29Z"/><path class="cls-2" d="M146.69,205.12c-.01,.16-.05,.35-.03,.46,.03,.12,.12,.24,.18,.23,.1-.01,.11-.2,.03-.38-.05-.12-.12-.21-.19-.31Z"/><path class="cls-2" d="M152.3,214.24c.05,.02,.11-.12,.16-.18-.09-.1-.18-.21-.25-.29l-.19,.23c.09,.08,.18,.21,.27,.24Z"/><path class="cls-2" d="M149.86,144.24c.09,0,.17-.11,.26-.16-.05-.09-.11-.24-.16-.25-.09-.01-.17,.07-.28,.13,.08,.14,.14,.29,.18,.29Z"/><path class="cls-2" d="M206.26,171.16s-.05,.17-.08,.27c.09,.04,.19,.11,.28,.12,.03,0,.06-.16,.08-.23-.09-.24-.19-.22-.28-.16Z"/><path class="cls-2" d="M208.46,152.97c.14,.41,.3,.56,.45,.54,.06-.01,.13-.12,.12-.24-.04-.35-.18-.41-.28-.42-.11,0-.2,.08-.29,.12-.18-.42-.23-.33-.2,.02h.2Z"/><path class="cls-2" d="M154.62,109.02c-.05,.07-.15,.17,.19,.26,.06,.02,.14-.08,.21-.12l-.12-.23c-.1,.03-.25,.04-.28,.09Z"/><path class="cls-2" d="M147.09,189.95s-.13,.1-.15,.22c-.03,.21-.02,.46-.02,.7,.08-.12,.16-.22,.22-.38,.07-.18,.08-.43-.06-.54Z"/><path class="cls-2" d="M206.36,174.25c-.11-.09-.2,.03-.19,.32,0,.24,.06,.49,.18,.5,.04,0,.09-.17,.13-.26,.02-.26-.03-.49-.13-.57Z"/><path class="cls-2" d="M197.18,140.95c-.09,.09,0,.32,.16,.49,.08,.08,.16,.07,.24,.1,.06-.1,.01-.23-.13-.37-.09-.09-.24-.25-.28-.22Z"/><path class="cls-2" d="M149.03,142.07c.08,0,.19,.01,.17-.31,0-.08-.11-.12-.18-.19-.06,.08-.19-.01-.15,.32,0,.08,.11,.17,.17,.18Z"/><path class="cls-2" d="M201.12,135.63s0-.18-.02-.27c-.21-.21-.28-.12-.36-.05-.02,.02,0,.16,.01,.18,.19,.24,.3,.23,.36,.14Z"/><path class="cls-2" d="M147.38,135.48c.13,.01,.27,.1,.33-.24,.01-.07-.13-.5-.19-.49-.17,.03-.13,.43-.14,.73Z"/><path class="cls-2" d="M206.38,182l.37-.55c.12-.17,.31-.35,.25-.68-.03-.2-.22-.26-.35-.27-.25-.02-.4,.48-.51,.91-.17,.68,.09,.55,.23,.6,0,.25-.03,.51,0,.73,0,.12,.09,.27,.14,.24,.15-.07,.14-.34,.09-.53-.05-.18-.14-.31-.21-.46Z"/><path class="cls-2" d="M153.08,109.52c.09,.13,.32,.2,.55,.23,.11,.01,.21-.02,.29-.03-.08-.14-.33-.19-.55-.23-.11-.02-.31,.01-.29,.03Z"/><path class="cls-2" d="M206.39,184.14c-.08-.02-.19-.03-.22,.27,0,.08,.08,.14,.13,.21,.08-.03,.19,.04,.22-.27,0-.08-.07-.19-.13-.21Z"/><path class="cls-2" d="M197.3,137.44c-.08,.06-.07,.24,.08,.48,.06,.09,.16,.12,.27,.21l-.12-.56c-.08-.05-.2-.16-.23-.13Z"/><path class="cls-2" d="M204.46,154.94c-.04,.09-.08,.15-.1,.26-.02,.15,.03,.3,.12,.37,.14,.11,.17-.03,.16-.26l-.18-.37Z"/><path class="cls-2" d="M163.04,113.85s.03,.14,.05,.22c.11,.01,.29,.06,.32,.03,.04-.04-.03-.14-.06-.23-.11-.01-.29-.06-.32-.03Z"/><path class="cls-2" d="M207.77,185.22c-.08,.47,.1,.33,.19,.41l.08-.48c-.1,.02-.27,.02-.27,.07Z"/></g><g><path class="cls-2" d="M60.21,148.15c-.06-1-.11-2.07-.02-2.76,.1,.94,.18,2.01,.3,2.79,.13,.87,.31,1.53,.2-.49-.11-2.15,.08-2.53,.27-2.89,.12-.24,.29-.23,.24-1.57-.06-1.42-.23-1.42-.37-1.7-.24-.48-.45-1.48-.63-2.83-.3-2.33-.7-4.73-.25-6.71,.2-.88,.05-3.16-.05-5.01,.22-1.4,.08-3.37-.14-5.39-.41-3.84-.41-3.89,.02-5.57,0,3.43,.36,6.45,.68,9.53,.11,.22,.29,.45,.3,.64,.07,1.4-.14,.75-.22,1.04,.1,2.45,.03,4.43-.03,6.44-.02,.74,0,1.47,.1,2.17,.15,1.09,.29,.84,.42,.7,.21-.21,.17-3.26,.55-1.58,.29,1.33,.65,3.53,.77,1.24,.16-3.07-.39-3.71-.65-5.27-.1-.6-.22-1.12-.3-1.79-.16-1.21-.1-2.18,.01-2.49,.14-.39,.35-.86,.49-.28,.66,2.69,.62-1.22,.9-2.34,.63-2.54-.53-6.06-.32-8.57,0-.11-.09-.85-.14-1.29-.09,.53-.16,1.3-.27,1.52-.14,.27-.31-.7-.39-1.78-.2-2.52-.46-4.3-.83-5.76-.31-1.21-.26-2.74-.14-3.82,.09-.76,.29-.77,.26-2.25-.13-.21-.3-.02-.35-1.27-.03-.72,.12-1.26,.19-1.89l.18,3.05c.2-.93,.16-1.98-.17-3.18-.36-2.2-.75-4.1-1.17-5.81-.33-1.36-.31-2.7-.12-3.44,.07-.29,.19-.29,.29-.33,.13-.05,.35,.07,.29-.87-.06-.92-.28-.77-.42-1.04-.3-.55-.62-1.48-.91-1.82-.39-.46-.6-1.6-.62-4.25,0-.76-.03-1.52-.16-1.6-.12-.06-.1,.81-.09,1.59,0,.52,.06,2.75-.12,.87-.36-3.91-.69-1.87-1.02-3.49-.12-.6-.39-.78-.1-1.28,.49-.83-.18-3.48-.15-4.98,.2-1.84,.04-4.51-.38-5.4-.61-1.29-.84-3.42-1.03-6.92-.11-1.99-.36-2.44-.59-2.45-.47,0-.61-2.36-.75-4.8,.51-.36,1.12,.18,1.67,.83,.57,.69,.99-1.79,1.68,1.64,.57,1.51,1.03,6.23,1.67,6.65,.15,.09,.31,.78,.39-.11,.08-.88,.15-1.83-.11-3.23-.37-1.97-.44-3.63-.35-5.5,.11-2.37-.21-5.51-.41-8.31-.18-2.55-.54-2.79-.86-3.88-.37-1.28,.2-2.14-.19-3.95-.43-1.98-.54-3.68-.46-5.92,.03-.78-.29-1.98-.5-2.64-.11-1.3-.2-2.67-.35-3.86-.23-1.83-.27-2.65,.07-1.88,.19,.44,.31,.36,.32-.62,.01-1.23-.2-1.99-.34-2.69-.18-.85-.35-1.66-.53-2.37-.09-.35-.18-.68-.27-.98-.05-.18-.09-.19-.13-.27l-.13-.19c-.3-.4-.48-.95-.54-1.55-.02-.15-.02-.3-.03-.46-.04-.1,.07-.1,.17-.11l.29-.03c.4-.04,.84-.06,1.29-.05,.31,0,.49,.08,.76,.09,1.31-.13,3.91-.58,6.19-1.1,2.29-.48,4.34-1.01,4.71-1.3,1.02-.78,3.69-1.16,6.24-1.55-1.11-.08-3.26,.23-4.78,.36-.81,.06-1.18-.11-.12-.28,2.9-.48,1.88-.59,2.28-.82,.34-.19,.42-.34,.61-.51,.74-.02,1.62-.08,2.18-.06,1.1,.02,2.71-.02,4.22-.07,1.52-.03,2.94,.01,3.67,.19,3.45-.38,5.17-.05,7.7,.07,.93,.18,.54,.51,2.95,.49,3.38-.04,7.01,.58,10.2,.26,1.54-.15,2.67-.12,4.35,.22,.29,.06,5.42,1.03,3.7-.02-.43-.26,2.25-.19,2.41-.48,.11-.2,1.73-.11,2.12,.2,.42,.33,1.71,.42,3.37,.39,1.04,0,1.82-.07,3.38,.24,3.76,.72,7.76,1.35,12.36,1.97,2.39,.34,2.51,.53,2.59,.76,.49,.09,.99,.17,1.48,.26,.19-.41-.1-.83-4.24-1.61-2.34-.42-3.06-1.11-6.82-1.46-.52-.04-.71-.25-.46-.32,.25-.07,.69-.12,1.68,.09,1.42,.29,2.95,.54,4.52,.7,1.4,.13,2.73,.25,4.09,.37l.41,.79c.53,.09,1.05,.18,1.58,.27,3.31,.31,3.61,.4,4.58,1.04l3.17,.61c1.7-.12,7.05,1.28,7.99,.85,.25-.12,1.56,.03,3.02,.39,1.95,.48,1.8,.67,1.72,.87-.07,.19-.11,.39-1.77,.15-.02,.23-1.32,.11-1.95,.18-2.02,.22-1.15,.78,3.38,1.98,1.85,.49,5.72,1.4,6.18,1.32,1.54-.29,4.09,.7,6.04,1.09,2.25,.45,5.58,1.44,6.5,1.34,1.68-.16,2.79,.44,4.36,.98,1.06,.35,2.26,.72,3.44,1.09,1.33,.4,1.7,.41,1.47,.16-.45-.5,1.26-.23,3.43,.41,2.29,.68,5.68,1.33,6.69,2.34,1.76,.8,3.89,1.55,5.89,2.28,2.62,.94,2.17,.97,1.44,.91-.29-.02-.34,.08-.4,.17-.25,.37,2.39,1.36,3.86,2.16,1.77,.9,1.45,.45,1.83,.48,.34,.03,.88,.01,1.47,.41,.18,.12,.37,.24,.55,.35l.29,.16s.06,.03,.06,.03l-.09-.05c-.06-.03-.12-.07-.17-.12l.47,.29c1.5,.84,3.16,1.43,4.27,2.31,.95,.71,2.5,1.82,2.1,1.94-.13,.04-.59,.01,.81,.85,.88,.54,1.71,.91,1.55,.65-.53-.86,.78-.01,2.26,1.21,.59,.48,1.23,1.21,.99,1.11-2.3-.97,.94,1.24,1.63,1.66,.95,.51,1.74,1.07,2.48,1.67,.74,.58,1.42,1.23,2.14,1.95,2.11,2.1,3.5,3.28,4.18,3.21,.25-.02,.94,.43,2.09,1.54,.91,.91,1.03,1.21,1.1,1.47,.18,.7,1.47,1.83,1.78,1.83,.35,.01,.37-.14,1.4,1.21,.43,.58,.64,1.17,1.24,1.66,2.54,2.12,5.39,5.1,7.91,7.65,1.01,1.02,1.61,1.31,2.88,3.12,1.08,1.53,1.38,2.24,.38,1.45-.66-.52-.75-.39,.28,.99,1.65,2.26,3.59,4.26,5.27,6.58,.29,.4,.69,.64,.45,.17-.13-.26-.44-.7-.6-.99-.75-1.33-.28-1.21,.83,.03,1.39,1.55,.43,.92,.89,1.65,.66,1.05,.84,1.01,.93,1.01,.69,.01,2.14,2.57,3.13,3.73,1.61,1.83,1.29,.37,2.3,1.78,2.24,3.17,2.38,3.02,2.91,3.17,.15,.05,.55,.4,1.07,1.22,.43,.67,.54,1.05,.22,.75-1.23-1.11-.91-.31,.39,1.89-.76-.34,.03,1.65-2.08-.7-.62-.65,.04,.53,.78,1.77,.98,1.62,2.13,3.25,2.92,4.18,.67,.82,1.35,1.7,2.05,2.62,.35,.46,.7,.93,1.06,1.41,.33,.49,.67,1,1.01,1.51,.68,1.03,1.39,2.09,2.07,3.21,.64,1.15,1.3,2.32,1.98,3.53,.08,.14,.14,.17,.21,.23-.41-.95-.7-1.79-.56-1.8,.21-.02,.79,1.32,1.14,2.08,.93,2.21,1.54,4.05,1.83,5.44-.69-1.38-1.29-2.78-1.75-4.2-.17,.2-.98-.9,.47,2.51,.28,.67,.55,1.32,.81,1.99,.24,.68,.49,1.35,.8,2.04,.5,1.17,1.06,2.32,1.48,3.57,.42,1.25,.81,2.56,1.12,3.99,.26,1.04,.76,2.73,1.02,2.89,.24,.16,.04-1.29-.36-2.44-1.3-3.48-1.31-4.27-.92-4.47,.22-.11-.01-1.52,.33-1.27,.63,1.89,1.34,3.95,1.03,1.87-.21-1.4,.16-1.25,.41-1.39,.25-.14,.44-.57-.34-3.11-.02-.06,.33,.36,.52,.6,.52,.61,1.47,2.94,1.23,1.18-.32-1.84-1.14-3.56-1.93-5.16-.08-.18-.22-.45-.32-.68-.88-2.13-.62-2.81-1.55-4.74-.78-1.43-.58,.1-1.88-2.34-.12-.23-.26-.44-.36-.65-.68-1.51-1.35-2.59-1.98-3.52-.63-.94-1.22-1.73-1.83-2.6-1.73-2.3-2.01-2.77-1.89-3.55,.04-.37-.36-1.41-.89-2.48-.53-1.08-1.13-2.23-1.34-2.91-.1-.31-.73-1.05-1.13-1.55-.56-.68-1.38-1.62-1.75-2.21-2.21-3.52-3.38-4.51-4.2-4.86-.25-.11-.68-.4-1.26-1.45-.83-1.53-1.83-2.8-3.33-4.64-1.31-1.6-.38-.71,.02-.35,.52,.46,1.67,1.71,.87,.41-.81-1.32-1.37-1.61-1.98-2.23-.71-.72-1.18-1.41-1.75-2.23-2.48-3.55-5.29-6.71-7.79-9.35-1.36-1.43-2.51-2.74-3.93-4.31-1.94-2.17-3.88-4.07-5.33-6.11-1.34-1.85-3.97-3.68-5.32-5.25-1.56-1.88-2.27-2.26-3.56-3.05-1.58-.93-5.53-3.95-7.34-5.31-1.17-.9,.3-.58-2.6-2.16-1.45-.72-1.8-1.68-3.85-2.72-2.02-1.05-2.49-1.86-4.02-2.65-2.05-.96-1.32-.16-2.17-.34-.09-.02-.35-.15-.47-.18-.32-.1-.57-.18-.72-.21l.05,.03c-.35-.12-.39-.08-.1,.14l-.02-.02c.11,.12,.53,.42,1.21,.9-.44-.12-.35,.22-1.4-.44l-.03-.02-.04-.02c-.81-.5-1.68-1.02-2.55-1.51-.89-.49-1.89-.94-3.13-1.42-1.2-.42-2.24-1-2.1-1.07,.55-.27-1.94-1.42-3.76-2.11-4.02-1.49-6.32-3.21-11.5-4.12-.15-.02-1.29-.45-1.63-.63-1.05-.56-2.78-1.03-4.63-1.51-2.07-.53-3.91-1.01-5.72-1.63-2.54-.87-7.81-1.76-7.4-1.3,.97,1.1-3.25-.02-6.52-.67-1.98-.4-3.89-.65-5.93-1.16,.59-.37-.44-.94-4.47-1.82-2.36-.51-4.51-.99-5.8-1.58-1.37-.64-3.26-.82-3.73-.62-.59,.25-2,.26-4.04,.1-1.07-.07-1.95-.33-2.6-.55-.62-.21-1.23-.4-.35-.43,1.31-.03,1.59-.23,.95-.38-2.05-.49-2.01-.16-2.37-.12-1.05,.12-2.97-.07-4.73-.16-1.34-.08-2.72-.14-3.88-.15-1.31,0-.34,.6-2.44,.29-3.2-.47,1.12-.43-1.1-.93-.57-.12,.12-.29-.39-.44-2.5-.75-4.82-.15-7.66-.63-.81-.14-1.66,.01-1.66,.16,0,.06,.3,.16,.67,.23,.61,.1,1.36,.2,2.09,.28,1.56,.21,1.92,.41,1.38,.54-.72,.16-2.42-.12-3.44-.19-2.65-.19-4.04-.65-6.78-.88-4.48-.39-5.93-.67-4.47-1.11,.99-.3-.28-.71,.92-.96,.06-.01-1.06-.19-1.72-.25-.72-.06-1.87-.06-1.54,.06,1.01,.4-.25,.59-1.33,.83,.96,.11,1.24,.23,1.48,.39,1.12,.73,1.57,1.3-5.14,1.22-.87,0-1.69,.13-1.03,.31,.39,.11,1.18,.2,1.95,.17,2.09-.05,4.15,.08,6.24,.27,2.14,.19,1.9,.41,1.68,.6-.33,.28-1.71,.07-2.87-.05-3.64-.36-5.37-.13-6.78,.21-.66,.16-1.66,.17-1.6-.07,.13-.48-2.14-.63-5.05-.59-2.59,0-5.19,.06-7.71,.29-3.06,.35-3.15,.13-2.79-.16,.39-.31,1.33-.67,2.19-1.02,.52-.21,1.48-.29,2.59-.28,1.32,0,2.58-.02,3.16-.28,.43-.18,.94-.42-.14-.5-1.09-.08-2.25-.16-3.52-.15-1.27-.01-2.66,.07-4.2,.28-2.16,.28-5.89,.8-4.01,1.14,.34,.06-1.04,.6-2.9,.83-1.77,.21,.24-.35-.09-.44-.95-.25-.8-.58,1.73-1.33,1.66-.48-.78-.18-2.32,.03-.07-.46-2.58-.31-4.21-.35-2.62-.08-3.07-.01-6.71,1.12-1.69,.55-3.64,1.25-5.32,1.54l-.22,.04-.32,.07c-.21,.05-.4,.09-.59,.14-.37,.09-.7,.18-.99,.27-.59,.18-1.04,.35-1.48,.5-.44,.16-.87,.3-1.42,.43-.27,.07-.58,.13-.93,.19-.18,.03-.37,.06-.57,.09-.17,.06-.54-.03-.46,.24-.08,1.48,.09,2.77,.29,4,.1,.62,.2,1.23,.29,1.88,.04,.31,.08,.71,.11,.99,.02,.22,.03,.45,.03,.7,0,.73,.12,2.03,.06,2.76-.21,2.78,.04,5.63,.66,8.69,.1,.49,.21,1.44,.25,2.12,.37,5.84,.36,5.97,1.28,8.75,.08,.25,.16,.46,.24,.74,.33,1.17,.37,2.5,.34,3.98-.05,2.66-.26-.66-.39-.9-.16-.3-.32-.7-.38,.14-.07,1.06,.1,1.81,.26,2.54,.38,1.67,.34,2.63,.11,3.11-.12,.24-.28,.06-.38,.41-.29,1.02-.18,2.54,.35,4.6,.17,.66,.38,1.21,.28,2.17-.26,2.53,.47,3.99,.52,6.33,.03,1.38,.33,1.23,.46,1.9,.35,1.69-.18,2.27,.06,3.42,.55,2.64,.13,2.79,.1,3.93-.07,2.82,0,3.13,.59,3.89,.15,.19,.29,1.31,.4,2.35-.15,.59-.3,1.15-.45,1.8-.1,.45-.19,1.12-.08,2.27,.05,.46,.24,.91,.33,.85,.4-.26,.47,1.27,.44,3.19-.02,1.11-.1,1.99-.14,3.05-.07,1.91-.06,1.95,.44,3.9,.13,.51,.21,1.23,.22,1.93,.02,.97-.02,1.83-.03,2.75-.05,3.77,.14,5.33,.68,5.76,.33,.26,.66,.45,1,1.1,.15,.28,.3,1.61,.03,1.57-.29-.05-.17,1.57-.06,2.66,.15,1.43,.48,2.84,.52,3.96,.05,1.7,.68,4.2,.16,5.27-.36,.75-.1,3.74,.09,5.35,.33,2.83,.84,5.38,.15,6.48-.03,.05-.03,1.03,0,1.28,.57,4.22,.29,6.99,.17,9.99-.09,2.32,.15,3.22,.41,4.21-.09,2.09-.06,4.22,.28,6.41-.08,.09-.16,.23-.1,1.01,.02,.27,.1,.46,.16,.68,.28,2.97,.43-.02,.67,.99,.25,1.06,.48,2.62,.75,2.7,.11,.03,.22,.22,.32,.22,.1,0,.23-.77,.17-1.06-.6-3.43-.05-5.39-.21-8.2Zm227.11-35.65c.27,.68,.5,1.32,.7,2.01-.61-1.1-1.3-2.01-2.02-3.33-.2-.36-.36-1.3-.37-1.64,.23-.3,.87,.95,1.69,2.96Zm-8.24-12.94c.33,.12,.75,.49,1.63,2.11,.49,.91,.7,1.63,.51,1.57-.43-.15-1.24-1.9-1.91-3.09-.11-.2-.21-.39-.33-.59,.03,0,.06-.02,.1,0Zm-8.61-13.46l.24,.54c-.34-.42-.68-.83-1.04-1.25,0-.01-.16-.3-.13-.31,.11-.05,.43,.3,.93,1.02ZM181.57,20.1c1.18,.23,3.4,.81,4.03,1.1,1.21,.54-1.01,.09-1.8,.07-.55-.02,.88,.67-1.6-.05-1.8-.5-2.26-1.05-5.59-1.54l-.05-.28c1.66,.22,3.2,.37,5.01,.71Zm-11.11-2.34c1,.36,1.67,.71,2.18,1.01,.59,.35-1.1-.06-1.82-.16-2.25-.32-1.43-.44-1.87-.65,.22,.03,.47,.08,.65,.1,.11,.01,.12-.02,.18-.03-.28-.03-.57-.06-.86-.08-.99-.29-1.22-.48-1.01-.57,.32-.14,1.27-.06,2.55,.39Zm-7.83-1.93c.45,.09,1.24,.4,1.28,.49,.15,.35,.05,.64,.04,.95l-1.46-.32c.16-.28,.64-.49-.51-1.03-.34-.16-.25-.28,.65-.09Zm-16.41-5.69c.48,.09,.93,.22,1.4,.33l-5-.28c-.18-.1-.36-.19-.57-.3,.38-.24,1.6-.25,4.17,.25Zm-30.49-2.3c2.74-.04,4.83,.26,6.38,.75-1.97-.16-3.94-.3-5.92-.41-.32-.02-.83-.14-.95-.21-.1-.05,.18-.12,.49-.13Zm-48.17,1.09c-.3,.13-1.14,.45-1.37,.48-1.32,.2-.53-.1-.16-.28,.38-.18,.85-.39,1.37-.61,.77,.03,.56,.21,.15,.4Zm-1.18-1.91c.72,.01,.05,.24-1.02,.5-.12-.09-1.4,.07-.26-.29,.22-.07,1.1-.22,1.28-.22Zm-6.55,1.53c.09,.04,.38,.06,.21,.14-.18,.09-.83,.29-1.19,.36-.71,.14-.76,.07-.22-.11,.38-.12,.8-.26,1.2-.39Zm-2.75,3.69c1.13-.17,3.03-.55,2.45-.14-.08,.05-.79,.22-1.23,.34-.34,.06-.68,.11-1,.16-.32,.05-.64,.1-.75,.09-.31,0-.52-.03-.42-.19,.09-.1,.39-.18,.95-.27Zm-4.29,.3c0-.09-.05-.22,0-.27l.25-.05,.41-.07c.24-.03,.41-.04,.53-.03,.25,.02,.33,.11,.45,.18,.05,.12-.06,.28-.28,.45-.09,.1-.3,.14-.38,.3,.06,.26,.14,.55,.22,.87-.2,.45-.34,1.5-.57,1.61-.15,.09-.5-1.4-.64-3Zm-.49,5.39c.07,.03,.13,.02,.2,.11,.18,.24,.37,.12,.54,1.81,.06,.61,0,.82-.09,.66-.23-.42-.48,.1-.65-2.59Zm-2.3,8.24c.08-.63,.12-1.05,.17-1.34,.06-.3,.12-.81,.25,.23,.1,.85,.04,1.35-.05,1.42-.09,.07-.2-.16-.37-.32Zm5.68,22.73c-.12-3.9-.45-3.77-.78-3.73-.11,.02-.12-.14-.09-1.64,0-.2,.05-.28,.04-.47-.08-1.82-.54-.54-.46-2.46,.07-1.62,0-2.54-.25-3.92-.28-1.54-.5-3.12-.55-5.12-.24-3.95-.14-4.67,.42-2.88,.36,1.18,.76,2.2,.99,5.2,.11,1.49,.23,1.55,.36,1.05,.1-.38,.37,.33,.23,1.11-.32,1.7-.02,4.59,.11,7.25,.09,1.82,.18,3.65,.27,5.46,.02,.38-.04,.82-.09,.86-.05,.04-.2-.59-.2-.71Zm-3.15,2.65c.06-.09,.12-.2,.18-.27,.09-.09,.17-.15,.26-.22-.04,.42-.07,.97-.14,1.08-.07,.11-.2-.37-.3-.58Zm1.71,18.59c.03-.52,.1-.98,.08-1.6-.15-5.23,.24-1.09,.46,.23-.13,.48-.1,1,.1,1.57-.09,1.8-.26,2.44-.64-.2Zm1.08,2.81c.03-2.58-.22-2.38-.43-2.61l-.1-1.53c.4,.25,.78,.81,.91,4.69,.02,.73,0,1.53-.14,1.22-.12-.25-.25-.98-.24-1.77Zm4.64,38.93c.01-.89,.2-1.53,.35-1.59,.3-.1,.2,1.85,.3,2.79,.43,4.07-.02,1.98-.24,1.42-.1-1.23-.42-1.44-.4-2.63Z"/><path class="cls-2" d="M297.49,157.81c-.21-.27-.31,.26-.36,1.39-.12,1.68-.32,1.63-.46-.68-.12-1.58-.26-2.45-.42-3.13-.19-.66-.39-1.12-.59-1.89-.46-1.76-.45-1.18-.36,.46,.05,.9,.07,1.71,.04,2.57-.02,.1,.06,2.26-.01,4.44-.02,1.09-.05,2.17-.07,2.99-.03,.82-.05,1.37-.05,1.4,.08,.51,.16,1.15,.25,1.44,.15,.4,.54,4.88,.56,5.75,.05,1.93-.28,3.32-.17,5.3,.06,1.15-.05,1.53-.15,1.34-.59-1.05-.42,1.77-.31,3.25,.1,1.36,.26,2.16-.06,3.41-.27,2.22-.59,4.43-.26,6.66-.23,2.43-.67,4.27-.71,7.35,0,.73-.06,1.81,0,2.12,.28,1.86-.02,5.22-.16,7.97-.78,1.29-.65,1.22-.98,5.68-.11,1.73-.06,2.65-.03,3.63,.02,.98,.1,2.05-.19,3.98-.13,.92-.24,1.71-.33,2.37-.11,.65-.22,1.17-.31,1.56-.19,.79-.33,1.06-.5,.84-.24-.31-.39,0-.58,.67-.22,.67-.47,1.72-.8,2.93-.22,.94-.58,1.84-.89,2.76-.34,.91-.6,1.84-.99,2.73-.76,1.79-1.48,3.6-2.39,5.33-1.67,3.52-3.75,6.86-5.86,10.14-1.88,2.69-3.11,4.5-3.93,5.76-.8,1.28-1.08,2.08-1.04,2.76,.03,.66-1.51,2.38-2.46,3.73-.52,.77-1.25,1.65-1.88,2.18-1.11,.92-.81,.23-.31-.68,.07-.12,.22-.33,.28-.44,.66-1.32-.44-.64-2.53,1.65-.96,1.07-2,2.22-3,3.33-1.77,1.92-1.26,1.71-.68,1.35,.66-.43,2.4-2.23,2.19-1.53-.91,1.04-1.87,2.42-2.78,3-1.46,.95-2.57,2.56-3.88,3.71l.12,.46-1.14,1.06c-.52,.2-1.23,.68-2.48,1.73-1.02,.25-1.03,.25-3.13,2.36-2.19,2.17-3,2.71-4.39,3.27-.23,.09-.04-.46-1.15,.72-2.08,2.1-3.74,3.3-5.93,4.64-1.88,1.21-5.53,4.13-6.13,4.93-.06,.08-1.04,1.01-2.03,1.89-.49,.45-.98,.89-1.34,1.23-.36,.34-.6,.57-.59,.59,.25,.53-4.13,3.09-4.85,4.09-.18,.29-4.04,2.62-1.07,1.26,.17-.08,.05,.17-.11,.27-2.09,1.43-4.23,2.95-6.37,4.18-1.46,.86-.95,.16-1.05-.01-.1-.17-.57-.04-1.81,.59-2.2,1.1-2.55,.87-3.91,1.37-1.09,.42-3.74,2.01-4.11,1.74-.22-.16-.94,.18-1.79,.66-.86,.46-1.86,1.06-2.61,1.42-2.44,1.17-1.68,1.12-1.74,1.35-.07,.23,.18,.3,.3,.44,1.99-.89,2.86-1.09,2.91-.78,.67-.38,1.73-1,1.87-1.04,2.05-.65,2.22-.19,2.63,.13,.4,.32-2.43,1.5-3.16,2.05-.36,.28-.99,.7-1.01,.81-.08,.35-.66,.88-2.8,1.96-.67,.33-.84,.5-.37,.32,.6-.23,1.8-.81,1.86-.79,.31,.11-1.1,.66-1.71,.99-.61,.35-1.76,.91-1.86,1.02-.27,.3,.65-.04,1.5-.38,1.71-.66,3.76-1.77,5.23-2.43,2.59-1.19,3.65-1.52,2.9-1.83-.4-.18,.82-1.04,3.16-1.9,.98-.38,2.11-1.22,2.88-1.8,.71-.54,.68-.74,1.87-1.52,.51-.45,.95-.74,1.41-.85,2.12-1.11,1.33-.22,2.68-.78,1.84-.78,3.64-2.41,5-3.03,3.21-1.54,3.17-2.07,3.52-2.64,.26-.43-1.05,.04,1.1-1.46,1.7-1.23,2.4-1.31,3.66-2.01,.98-.55,1.39-.63,1.75-.67,.78-.1,3.82-1.9,4.73-2.63,2.2-1.84,3.93-2.98,5.83-4.4,.28-.2,.85-.74,.98-.91,.85-1.11,.66-1.38-.4-.96-2.77,2.71-2.37,1.64-3.43,2.28-.99,.81-2.3,1.97-2.88,2.33-1.45,.9,0-.34,.58-.93,.61-.63,1.41-1.61,1.33-1.56-2.4,1.51-1.58,.43-1.61,.03,0-.06-.53,.27-.87,.49-.43,.27-.71,.54-.84,.75-.3,.5,.47,.33-1.64,1.93-2.03,1.55-2.29,1.31-3.41,1.93-.93,.5-1.99,1.19-3.03,1.85-.33,.2-.63,.32-.74,.32-.05,0,.51-.48,.7-.61,1.02-.66,1.98-1.32,2.91-2,.91-.69,1.79-1.4,2.66-2.1,1.77-1.39,3.47-2.86,5.45-4.31,2.31-1.71,4.42-3.52,3.51-2.04-.17,.28,.69-.24,1.07-.59,2.41-2.22,6.63-5.22,7.4-6.98,.15-.34,.72-1.02,1.58-1.65,1.56-1.19,3.1-2.46,4.59-3.86,1.46-1.44,2.95-2.95,4.33-4.71,.33-.41,.57-.67,.74-.71,.41-.1-.28,.88-.71,1.6-.64,1.09-1.43,1.54-2.14,2.13-.42,.34-.78,.69-.88,.88-.08,.16-.04,.23,.1,.17,.37-.17,1.07-.73,1.83-1.46,1.53-1.45,3.13-3.11,4.41-4.55,1.48-1.79,2.24-1.78,3.88-4.16,.71-1.11,1.73-1.85,2.37-2.39,.96-.8-.19,.79-.44,1.39-.43,1.09-3.41,4.09-3.01,4.31,.25,.14,1.02-.7,1.9-1.71,.87-1.01,1.8-2.24,2.46-2.78,1.25-1.01,2.61-2.9,2.45-3.42-.17-.53,.61-1.36,2.25-3.46,.97-1.29,1.93-2.62,2.59-3.82,.65-1.2,1.1-2.22,1.19-2.78,.17-.81,1.34-3.01,1.48-3.72,.16-.81,.4-1.28,1.06-2.09,.32-.42,1.12-1.59,.34,.27-.3,.64-.78,1.46-1.03,2.03-.32,.72,.07,.4,.25,.03,1.08-2.12,1.55-2.84,2.31-3.84,.87-1.16,1.48-2,.36,.72-.21,.5,.14,.17,.65-.89,.78-1.6,1.14-2.04,1.55-2.65,.25-.37,.46-.56,.81-1.58,.32-.94,.58-1.82,.3-1.57-.58,.51-1.24,1.21-1.8,1.66-.14,.11-.14-.22-.03-.66,.15-.62,.55-1.34,.81-1.85,1.19-2.3,1.46-3.09,.81-2.85-.31,.11-.43,.08-.29-.46,.17-.54,.51-1.62,1.13-3.61,1.03-4.66,1.54-9.41,2.31-13.76,.25-1.64,.73-2.86,.97-4.8,.4-3.22-.34-1.99-.15-4.76,.05-.89,0-1.71-.01-2.56-.13-.74-.7,1.1-.22-3.23,.17-1.78,.11-4.34,.11-6.55,0-.54-.15-.18-.04-1.53,.36-4.37,.3-4.5-.13-4.51-.13,0-.31,.69-.35-.5-.04-1.05,.1-1.96,.21-2.83,.11-.85,.2-1.8,.36-2.08,.1-.18,.2-.57,.3-.87-.07-.34-.14-.95-.22-.96-.44-.04-.9-2.65-1.33,2.1-.05,.5-.18-.29-.2-1.04-.1-4.05,.75-3.72,.69-7.49,0-.34,.15-1.2,.24-1.33,.09-.13,.25,.15,.27,.6,.22,4.59,.76,4.31,1.28,4.4,.27,.05,.28,1.52,.26,3.16,.5-5.93,.33-8.23-.36-7.87-.1,.04-.2,.79-.29,.12-.34-2.54,.27-8.2-.57-9.47,.04-.63,.09-1.3,.13-1.88,.07-.79,.13-1.48,.19-2.29,.04-.65,.03-1.56-.1-2.14-.11-.51-.24-.83-.35-.97Zm-84.87,157.29c-.19,.05-.61,.22-.56,.15,.14-.19,.67-.53,1.4-.89,.18-.09,.47-.21,.45-.19-.1,.18-.58,.53-1.3,.94Zm55.33-44.68c-.14,.16-.52,.35-.66,.37-.15,.03-.17-.1-.25-.16,.8-.8,1.84-1.94,1.98-1.77,.09,.11-.3,.73-1.07,1.56Zm14.61-14.74c-.24,.47-.56,.9-.68,.9-.06,0,.1-.38,.29-.68,.19-.31,.53-.73,.81-1.1-.13,.29-.25,.55-.42,.87Zm2.16-5.62c.26-.06,1.14-1-.11,1.14-.96,1.61-1.95,3.17-2.73,3.73-.33,.26-.87,.84-1.24,1.17-.99,.85-.67,.04,1.14-2.46,.85-1.28,1.48-2.15,2.04-3.32,.02-.04,.51-.66,.69-.85,.53-.59,.38,.04,.22,.59Zm4.25-7.04c-.43,.85-.45,.63-.49,.54-.03-.07,.11-.47,.18-.73l.36-.31c-.01,.17,0,.39-.05,.49Zm5.06-18.03c-.28-.16-.33-1.11-.09-3.39,.27,.16,.69-.13,.09,3.39Zm.09-4.87c-.05,.45-.12,.92-.18,1.37-.06-.24-.18-.33-.15-.8,.07-1.28,.38-2.7,.52-2.79,.17-.13-.09,1.4-.18,2.22Zm2.32-4.34c-.17,.97-.35,1.68-.46,1.19-.03-.15,0-.75,.02-1.15,.2-1.33,.32-1.14,.44-.97,.08,.11,.08,.48,0,.93Zm-2.3-3.42c-.02,.22-.06,.53-.1,.78-.04,.25-.08,.45-.09,.44-.11-.05-.02-.88,.03-1.48,.07-.68,.14-1.37,.2-2.05,.09,.48,.06,1.32-.04,2.31Zm2.02-5.55c-.02,.21-.03,.44-.05,.67l-.2-.1c.14-1.85-.24-2.65,.15-4.99,.03-.19,.09-.45,.11-.39,.19,1.03,.08,2.95-.01,4.81Zm-.81-5.82c-.02,.69-.05,1.38-.07,2.07-.1,.08-.22,.32-.31,.21-.24-.31-.03-3.13-.42-3.13,.22-.8,.29-1.19,.34-1.21,.25-.14,.51-.3,.45,2.06Zm1.19-7.48s-.15,.61-.18,.48c-.12-.51-.08-1.54,0-2.59,.05-.65,.11-.86,.19-.5,0,.72,0,1.65-.02,2.61Zm.06-31.4c0,.86,.11,2.59-.09,2.21-.23-.46-.49-1.83-.57-3.88-.04-1.42,.02-2.34,.18-2.54,.13-.18,.32,.75,.38,1.92,.04,.78,.07,1.55,.11,2.3Z"/><path class="cls-2" d="M157.62,337.31c1.33-1.24,3.81-2.12,9.45-3.71,.05-.77,.13-1.54,.16-2.3,0-.1-.06-.21-.97,.02-.42,.11-.99,.31-1.34,.44-1.12,.45-2.15,.89-3.27,1.32-1.11,.43-.66,.77-3.12,1.22-1.16,.21,.82-.57,1.05-.84,.19-.22,1.26-.64,1.47-.86,.3-.31,3.93-1.27,2.33-1.15-.58,.06-3.13,.76-4.86,1.13-1.97,.42-3.57,.96-1.59,.8,.92-.08,.02,.26-.34,.47-.48,.29-1.06,.64-2.5,.94-.81,.18-1.62,.23-1.56,.04,.1-.33-1.59,.19-2.7,.44-1.08,.24-.69,.48-2.8,.78-1.34,.19-3.45,.78-5.11,1.3-1.66,.5-2.84,.98-2.27,1.04,1.67,.2-1.15,.92-2.19,1.44,.39,0,.97-.04,1.13,.01,.14,.05-.39,.18-.58,.16-.3-.03-.43-.1-.63-.15-2.74,.38-2.88,.67-3.46,1-.97,.52-2.41,.93-5.7,1.23-2.26,.23-3.41,.33-4.62,.39-1.21,.05-2.47,.13-4.97,.09-.65,0-1.63,.05-1.46-.09,.2-.17,1.19-.14,1.83-.21,3.12-.38,6.27-.66,9.41-1.09,1.94-.23,4.69-.55,1.81-.62-.62-.04-5.58-.12,2.15-1.13,.34-.05,.99-.39,1.17-.55,.47-.41,4.03-1.26,2.86-1.34-1.09-.09-4.69,.68-7.21,.85-2.89,.25-8.62,1.41-8.81,1.85-.23,.62-1.56,1.2-4.76,1.85-.96,.19-.39,.56-2.47,.56-1.14,0,.6-.39,.75-.6,.14-.2,.41-.45,1.35-.65,1.45-.31,.7-.25-.54-.19-1.26,.05-3.04,.16-3.31-.02-.82-.56-3.18-.29-5.39,.06-2.01,.34-3.22,.43-4.83,.13-2.17-.4-3.15,.14-4.69,.24,.26,.09,.79,.18,.72,.27-.21,.26-1.64,.57,.7,.71,2.9,.18,3.03-.34,4.8-.44,.5-.03,1.01-.06,1.52-.09,.56-.18,1.07-.16,1.58-.05,5.36,.19,5.5,.15,2.61,.84-1.56,.35-2.88,.66-2.78,1.04,.15,.53-.26,.62-5.37,.61l.04-.43c-1.01-.05-1.42-.16-.72-.31,.88-.19,1.51-.39-.09-.43-2.63-.06-4.74-.17-4.94-.59-.22-.48-5.21-.24-5.95-.62-.53-.27-1.05-.33-3.08-.19-.92,.06-2.28,.09-3.13,.05-2.12-.11-.21-.14,.49-.18,.6-.04,1.88-.04,.99-.19-1.35-.23-8.4-.21-8.73,.04-.41,.31-1.35,.43-2.51,.48-.29,0-.59,.02-.9,.02-.2,0-.41,0-.62,0-.39,0-.79,0-1.17,0l-1.28,.02c0-1.58,0-3.15,0-4.72,0-3.29-.17-4.56-.58-3.54-.26,.63-.33-.41-.31-1.95,.03-1.97-.05-4.15,.25-5.55,.24-1.13,.31-3.86,.7-3.87,.37-.01,.37-2.76,.36-4.68,0-2.08-.28-2.09-.5-2.25-.11-.08-.21-.15-.32-.42-.05-.15-.14-.87-.13-1.09,.05-1.09,.17-.07,.25-.22,.38-.7,.45-3.01,.12-3.96-.64-1.85-.31-3.1-.06-4.24,.26-1.17,.57-1.84-.02-3.28-.38-.92-.53-2.77-.52-5.57,0-1.55-.05-3.19-.09-4.78-.01-.39-.03-.94-.04-1.4,0-.23-.02-.43-.02-.58,0-.15-.01-.24-.02-.25-.19-.1-.07,1.56-.15,2.01-.26,1.46-.45,3.12-.59,5.53-.14,2.26-.61,1.9-.99,1.63-.33-3.35-.69-6.65-.39-10.72,.02-.33,0-1.09-.04-1.49-.06-.64-.15-1.18-.23-1.65,0-.05-.11,.51-.12,.89-.06,3.18-.18,6.02-.55,7.69-.13-1.94-.25-3.94-.4-5.79-.04-.46-.19-.58-.3-.65-.1-.07-.12,.35-.08,.89l-.33,6.67c-.1,1.57-.14-.09-.18-.45-.07-.64-.13-1.4-.19-2.11-.05-.55-.07-1.68-.2-.97-.04,.2-.04,1-.02,1.46,.13,2.56,.31,5.03,.27,7.79-.02,1.38-.08,1.56-.26,1-.6-1.84-.58-1.78-.54,2.71,.01,1.82-.04,3.66-.1,5.38-.09,2.34,.11,4.14,.24,6.08,.09,1.41,.45,1.72,.44,1.96-.09,1.63-.35,.15-.51,.85-.13,.56-.19,1.52-.09,2.62,.12,1.36,.26,2.78,.42,3.81,.26,1.67,.16,2.57-.03,3.63-.08,.44-.12,1.25-.05,2.03,.1,1.02,.26,.92,.39,.88,.14-.03,.29-.13,.2-1.72-.09-1.65-.11-3.21,.1-4.19,.1-.48,.22-1.39,.36-.65,.11,.53,.07,1.43,.06,2.21q-.14,6.18,.59,9.48c.03,.14,.06,.27,.1,.38,.08,.24,.14,.58,.17,1.01,.02,.21,.03,.45,.04,.7v.92c.02,1.67-.1,2.9-.25,2.7-.37-.57-.4,1.88-.43,4.54,.8,0,1.6,0,2.33,0,.99,0,1.94,0,2.85,0,.46,0,.91-.02,1.35-.02,.42-.01,.82-.03,1.22-.04,1.05-.06,1.99-.16,2.78-.34,2.69,.22,4.4,.05,5.66-.34,.21-.06,.68-.11,1.03-.17,.15,.09,.31,.19,.42,.29,.03,.03-.08,.07-.19,.1-.45,.14-.87,.3,.67,.31,.97,.01,2.38,0,2.15-.21-.23-.22,.98-.33,1.87-.46,.9-.14,1.31-.14,2.18,.01,2.15,.39,3.33,.35,4.87-.12,.57-.17,.88-.35,1.39-.52,.53-.18,1.18-.34,2.8-.38,1.86-.05,3.07,.05,3.55,.25,.35,.15,.21,.33,.28,.5-.96,.04-2,.04-2.55,.21-1.17,.37,.17,.65,.29,.98,.04,.12-1.13,.3,.51,.3,.59,0,1.69-.1,1.99-.18,1.1-.29,2.43-.49,4.84-.47,.59-.58,2.81-.24,4.39-.34,1.04-.06,2.16-.14,3.1-.24,.89-.09,1.62-.26,2.42-.4l-2.31,.09c-2.8,.16-4.49,.14-4.56-.28-.08-.42,1.28-.64,4.27-.79,2.22-.12,2.62-.54,4.45-.73,1.27-.15,1.41-.58,3.49-.49,1.15,.05,.27,.27-.96,.52-2.54,.48-1.55,.78-1.45,1.11,.11,.35,2.66,.16,4.58,.07,.56-.2,1.09-.25,1.59-.15,.42-.07,1.18-.22,1.18-.26-.03-.39-.03-.38,3.28-1.08,.54-.11,.39-.28,.92-.4,2.26-.58,4.04-1.27,7.73-1.63-1.38,.53-2.28,.95-.97,1.05,.3,.02,.95,.2-.58,.33-4.24,.28-3.81,.75-5.03,1.17,2.44-.31,5.27-.48,7.15-1.21,2.05-.75,2.44-.56,3.42-.55,.45,0,1.14-.03,1.96-.29,.57-.18,1.38-.47,1.23-.5-2.38-.36,2.02-1.57,5.72-2.86,2.98-1.05,2.91-1.01,6.15-1.4Zm5.79-3.71c.74-.23,1.23-.26,1.59-.22-.33,.15-.63,.33-1.16,.51-1.03,.34-1.23,.24-1.2,.15,.04-.1,.36-.31,.78-.44Zm-96.19-18.4c0,.94,.07,2.16-.09,2.58-.13,.32-.58-2.73-.6-4.23-.04-2.21,.25-2.39,.39-2.41,.4-.07,.24,2.56,.31,4.07Zm-.54-12.94c.04,.85-.02,1.29-.12,1.47-.04-.27-.13-.65-.13-.78,.01-.42,.05-.81,.1-1.1,.06-.44,.13-.27,.16,.41Zm-.86,4.41c-.22-.73-.44-1.46-.66-2.18,.25-1.16,.29-4.17,.69-3.87,.03,2.11,.3,4.31,.07,6.35l-.1-.29Zm.3,.15c.31-.47,.58-2.39,.94-.25-.29,1.06-.56,2.44-.87,3.07-.21,.43-.25-1.35-.27-2.66,.07-.05,.13-.05,.2-.16Zm-2.24,9.5c-.06-1.12-.4-.8-.12-3.19,.27-2.37,.47-4.06,.91-1.8,0,.78,0,1.59,.03,2.34,.05,1.37,.33,3.38-.01,3.7-.23,.21-.54,3.66-.81-1.06Zm.67,4.57c.4-2.34,1.02-1.18,1.41-3.99,.07-.52,.37-.21,.4,1.68,.02,1.08-.06,2.27-.21,2.18-.46-.27-.77,1.65-1.13,2.92-.14,.49-.34,.35-.45-1.24,.16-.45,.13-.98-.02-1.56Zm2.6,24.47c-.57-.02-1.08-.04-1.49-.07,.09-1.38,.22-2.23,.42-2.37,.25-.17,.48,.26,.68,1.22,.37-.06,.8-.12,1.26-.18,.67-.08,1.5-.04,1.69,.06,.33,.18,.09,.37-.12,.56-.19,.19-.35,.38,.42,.53-.29,.22-1.7,.26-2.88,.23Zm3.29-2.52c.14-.04,.7-.07,1.05-.07h.51c.19,0,.36,.01,.5,.02,.28,.02,.42,.06,.23,.13-.52,.19,.52,.3,.68,.45-.86,.04-1.72,.07-2.58,.11-.21-.21-1.23-.39-.38-.64Zm6.76,.44c-.81,.17-2.42,.36-3.67,.08,.95-.08,1.56-.19,1.72-.32,.29-.26,1.55-.34,3.2-.36-.37,.21-.43,.43-1.24,.6Zm1.33-.63c-.16-.05-.3-.11-.5-.16-.7-.17-1.4-.37-.05-.55,.67-.09,.02-.05,.38,.05,.66,.19,2.98,.39,.17,.66Zm23.26,3.35c-.25-.08-.23-.17-.3-.27,.74,.02,1.21,.07,1.14,.18-.06,.09-.68,.14-.85,.08Zm45.33-6.44c-.87,.19-1.89,.28-2.7,.37-.71,.07-.52-.09,0-.29,1.27-.49,3.32-1.08,3.74-1.46,.38-.34,1.24-.59,3.12-1.02,2.77-.61,1,.1,1.77,.02-.15,.39-3.84,1.95-5.93,2.37Z"/><path class="cls-2" d="M64.48,277.77c.01-1.97-.06-4.47,.07-5.74,.09-.93,.44-.34,.68-.37-.03,6.16,.04,6.62,.73,4.94,.08-1.29,.24-1.74,.4-.56,.25,1.8,.39,1.76,.58,.1,.08-.68,.3-.42,.46-.53-.12,1.35-.25,2.7-.37,4.07-.03,.39-.1,1.03-.08,1.25,.08,.87,.19,.66,.28,.33,.24-.85,.48-1.62,.71-2.63,.2-.92,.14-2.7,.07-4.25-.07-1.67-.19-3.11-.46-2.67-.14,.22-.29,.38-.34-.98-.05-1.35,.13-1.48,.26-1.62,.3-.31,0-2.79,.18-3.66,.19-.9,.34-2.17,.51-3.28-.26-1.79-.45,.19-.68-.2-.16-.28-.39-.53-.43-2.16-.09-3.15-.36-1.76-.56-2.19,.06-2.07,.47-3.61-.02-6.54-.19-1.11-.15-3.02-.21-4.6-.15-4.1-.72-7.02-1.26-6.62-.09,.06-.17,.71-.21,1.28-.08,.91,.06,1.62,.15,1.74,.26,.34,.38,2.92,.68,2.63,.24-.22,.29,1.76,.32,2.81,.04,1.39-.17,1.21-.29,1.04-.51-.71-.86,.9-1.19,2.77-.23-2.96-.58-4.95-.97-6.57,0,.75,.02,1.52,.02,2.25,0,1.03-.03,2.23-.22,1.8-.07-.16-.14-1.23-.18-1.94-.04-.72-.05-1.49-.07-2.24l-.35,2.82c.06-2.47-.4-5.54-.19-6.99,.23-1.57,.68-1.47,1.04-2.02,.1-.14,.22,.15,.32,.06,.14-.12,.28-.64,.22-1.88-.04-.94-.16-2.05-.28-2.6-.12-.57-.33-1.09-.41-.73-.52,2.32-.6-1.41-.8-3.75-.1-1.13-.07-2.02-.09-3.05-.01-.93-.13-1.27-.24-1.29-.11-.03-.2,.25-.17,1.23,.04,1.04,.09,2.1,.13,3.13,.02,.82-.05,1.46-.18,1.27-.61-.83-.97-5.07-.74-8.47,.04-.63,.33-.24,.13-1.83-.05-.4-.2-.19-.31-.18-.6,.06-.49,5.18-.9,6.85-.31,1.27-.22,2.47,.29,4,.21,.62,.25,.95,.15,2.05-.07,.72-.18,1.32,0,2.53,.76,5,.51,8.95,.11,12.84-.3,2.89-.26,3.7,.34,3.95,.6,.24,.65,4.14,.94,6.32,.19,1.45-.18,1.82-.2,3.26-.01,.8-.15,1.34-.23,2.01,.16,.67,.33,1.74,.49,1.9,.16,.16,.32-.54,.47-.9,.08,1.51,.16,3.01,.25,4.52l-.05,1.11,.14-.51c.07,.09,.2,.16,.2,.28,.07,2.48-.02,4.96,.19,7.45,.08,1.03-.03,1.65-.11,1.54-.24-.3-.56,1.24-.69-1.93-.08-1.97-.25-1.89-.41-1.66-.22,.32-.32,1.79-.3,3.38,.02,1.77,.24,1.77,.41,1.91,.24,.18,.46,2.36,.7,.88,.26-1.68,.49-.26,.76,.94,.4,1.77,.76-.11,.73-3.68,0-1.01-.05-1.97,.09-2.45Zm-2.36-29.78c.02-.53,.08-.39,.17-.18,.13,.32,.26,.44,.39,.64-.07,1.19-.2,1.62-.38,1.16-.1-.24-.2-.73-.17-1.61Zm2.76,13.93c0-.37,0-.88,.01-1.3,0-.42,.01-.75,.03-.75,.32,.03,.5-.92,.47-3.43-.02-1.57-.06-3.33,.2-3.59,.35-.34,.38,2.06,.51,3.63,.09,1.14,.24,1.09,.38,1.25,.15,1.84,.37,3.65,.15,5.57-.07,.64-.06,2.07-.27,1.38-.32-1.08-.61-.86-.9,.04-.29,.9-.36-2.25-.59-2.79Z"/><path class="cls-2" d="M200.92,321.01c.56-.37,1.58-.93,2.47-1.38,1.57-.84,3.83-1.89,4.52-2.48,.55-.46-1.71,.45-1.17-.15,.26-.29-.54-.09-.88-.11-1.93,.85-2.88,1.1-2.91,.78-1.69,.88-1.98,1.29-2.39,1.67-.94,.85-3.05,.91-3.29,1.65-.09,.27-.33,.6-1.28,1.22-1.97,1.31-4.78,2.57-7.75,3.76-1.96,.76-3.92,1.49-5.86,2.1-1.43,.48-2.88,.76-4.22,1.29-2.26,.93,.93,.03,.59,.32-.17,.15-.72,.43-1.29,.66-1.11,.46-2.46,.88-3.55,1.27-1.38,.51-2.54,1.02-1.53,.98,1.03-.04,2.79-.61,3.96-1.1,1.76-.78,3.21-1.48,4.72-2.26,.71-.37,1.35-.71,2.51-1.03,.96-.27,1.53-.35,1.59-.22,.04,.09-.34,.34-.56,.52-.8,.62-.74,.9,2.56-.56,.94-.41,1.93-.82,2.75-1.09,.81-.3,1.47-.46,1.78-.37,.45,.14,1.83-.65,2.79-1.13,.92-.47,1.62-.92,1.04-.82-.33,.05-.93,.25-1.52,.43-.95,.3-2.53,.89-1.79,.35,.6-.44,2.25-1.14,3.26-1.53,2.52-.91,3.97-1.75,5.47-2.77Z"/><path class="cls-2" d="M64.62,221.98c-.24-2.85-.63-4-1-5.33-.43-1.5-.42-1.64-.11-4.53,.05-1.06,.11-1.12,.21,.03,.2-.43,.43-1.49,.48,1.7,.4-.87,.91-.13,1.19-2.68,.14,.07,.28,.1,.43,.18,.15,.07,.32-.02,.34-.97,.03-1.35-.13-2.42-.32-3.29-.58-2.8-.63-4.12-.23-6.77,.09-.6,.25-.69,.22-1.93-.02-.73-.05-1.59-.12-2.22-.08-.79-.2-.92-.28-.41-.09,.59-.19,1.18-.25,1.99-.38,5.86-1.12,7.62-2.1,6.22-.14-.2-.28-.04-.42-.1-.47-.18-.43,2.05-.31,4.66,.11,.39,.26-.1,.3,1.27,0,.16-.16,.25-.25,.38,.15,1.54-.3,4.45,.34,4.89,.14,2.57-.21,2.91-.27,4.59,.34,.29,.69-.29,1.03,1.14,.4,1.71,.76,1.19,1.13,1.19Z"/><path class="cls-2" d="M64.24,201.26c.31-1.37,.56-2.9,.45-6.27-.48-3.83-.96-7.65-1.44-11.47-.09,1.58-.22,1.69-.43-.16-.21,0-.42-.12-.61,.02-.09,.06-.19,.5-.11,1.53,.03,.45,.1,.99,.16,1.15,.1,.28,.22,.44,.32,.41,.34-.1,.53,.34,.45,3.43-.04,1.47,.06,3.54,.36,4.67-.29,2.71-.84,.67-1.24,1.32-.09,.14-.12,.48-.06,1.04,.04,.44,.14,1.17,.16,1.12,.48-1.22,.94,.86,1.39,3.17,.22,1.14,.41,.83,.58,.05Z"/><path class="cls-2" d="M92.41,4.79c.07,.09,.59,.25,.93,.25,1.18,0,2.28-.14,2.1-.23-.87-.49,1.07-.48,3.76-.37,.57,.03,1.18-.06,1.77-.1-2.46-.32-3.14-.64-2.7-1,.35-.28-.67-.38-2.75-.36-.99,0-2.15-.01-3.2-.02-.94,0-2.63,.2-4.04,.4-1.42,.23-2.56,.48-2.44,.56,.37,.3,1.62,.38,4.17,.41,1.95,0,2.21,.24,2.4,.46Z"/><path class="cls-2" d="M147.16,13.12c-.11,.1-.04,.3-1.04,.11-1.15-.21-1.83-.5-2.14-.72-2.12-.28-3.58-.37-3.75-.06-.08,.15-.15,.32-1.47,.19-.23,.18-.46,.35,1.83,.76,1.92,.36,3.28,.51,4.8,.61,2.88,.19,1.18,.38,1.92,.58,.6,.16,1.37,.32,2.08,.47-.11-.35,1.02-.39,2.69-.3,1.27,.07,1.33-.11-.79-.63-1.39-.34-2.76-.68-4.14-1.01Z"/><path class="cls-2" d="M63.15,146.75c0,.25,.1,1.04,.16,1.24,.05,.17,.17,0,.17-.23-.02-3.56,.54-5.51,.09-9.79-.09-2.07-.14-3.71-.25-5.23-.15-1.94-.41-3.41-.69-3.24-.25,.15-.2,1.83-.14,3.49,.17,4.57,.73,9.18,.66,13.75Z"/><path class="cls-2" d="M260.86,279.77c-.79,.92-1,1.4-2.18,2.64-3.32,3.35-3.28,3.35-1.02,2.03,.64-.37,1.31-.81,1.32-.55,0,.28,1.04-.66,1.75-1.39,.57-.57,1.13-1.24,.77-1.04-1.74,.97-.53-.71,.51-2.24,.23-.34,.31-.56,.44-.79-.26,.13-.45,.22-.64,.32-.32,.35-.69,.73-.95,1.03Z"/><path class="cls-2" d="M63.98,182.92c.15,.47,.28,1.02,.35-.16,.06-1.11-.03-1.74-.18-2.59-.22-1.29-.41-2.87-.69-3.63-.52-1.43-.81-.09-.74,3.66,.01,1,.07,2.05,.1,3.07l.43,.15c.15-1.95,.43-1.43,.73-.5Z"/><path class="cls-2" d="M60.65,167.54c.07-.38-.04-1.86-.09-1.62-.38,2.19-.43-1.69-.61-2.76-.2-1.19-.36-1.48-.63-.66-.11,.34-.27,.26-.4,.32-.2,.09-.34,.85-.27,2.26,.07,1.43,.33,2.03,.49,2.2,.38,.4,.71-1.17,1.13,1.25,.15-.36,.29-.48,.38-.99Z"/><path class="cls-2" d="M266.7,274.88c-.99,1.2-1.71,2.23-1.11,1.94,.84-.41,2.11-1.24,3.36-2.22,.71-.54,1.52-1.63,1.56-1.83,.06-.34-.36-.19,.27-1.14-.07-.05-.12-.16-.24-.17-.52-.06-3.01,3.03-3.83,3.41Z"/><path class="cls-2" d="M157.67,337.32c-.16,.42-.22,.82-1.1,1.42-.94,.62,1.09,.32,3.16-.06,.96-.17,3.66-1.16,3.1-1.09-3.43,.43-.66-.96-3.64-.64-.5,.12-1.01,.25-1.51,.37Z"/><path class="cls-2" d="M62.59,165.69c.34,.11,.44,.22,.54,.16,.13-.07,.28-.25,.23-1.6-.03-.82-.14-1.26-.25-1.62-.11-.33-.21-.99-.31-1.28-.35-.95-.65-1.1-.8,.98-.02,.3-.02,1,.02,1.33,.25,2.34,.53,2,.58,2.03Z"/><path class="cls-2" d="M164.4,335.46c-1.66,.55-1.83,.82-.42,.63,1.8-.28,4.55-1.07,6.03-1.16,.56-.03,1.22-.33,1.69-.59-.51-.04-1.01-.11-1.68-.12-1.2-.02-3.14,.41-5.62,1.24Z"/><path class="cls-2" d="M248.09,291.33c.05,.44-2.38,2.59-2.32,2.97,1.29-1.05,2.29-2.16,3.95-3.23,1.2-.77,2.05-1.63,1.87-1.78-.11-.09-.43,.02-.14-.41,.41-.61-.09-.36-1.37,.64-.91,.69-2.01,1.66-2,1.8Z"/><path class="cls-2" d="M64.99,165.37c-.3-1.13-.39-2.84-.45-4.75-.03-.97-.07-2.41-.21-2.62-.09-.13-.14,1.22-.23,1.84-.08,.63-.19,2.07-.04,2.25,.57,.73,.35,3.69,.52,5.44,.1,1.04,.2,1.99,.35,1.79,.13-.17,.22-.79,.23-1.88,0-.83-.06-1.64-.17-2.06Z"/><path class="cls-2" d="M298.2,157.92c.08,.34,.16,.73,.23,1.02,.18,.74,.37,1.3,.5,.52,.06-.32,.03-1.34-.03-2-.17-1.94-.4-2.48-.65-2.6-.07-.04-.14-.04-.22-.06-.14,.14-.36-.29-.41,.63l.57,2.48Z"/><path class="cls-2" d="M174.83,330.17c.22-.5-2.19,.1-3.41,.26-.73,.09-1.29,.49-1.65,.69-.87,.49,1.01,.11,1.61,.13,.35,0,.55,.16,2-.37,.91-.33,1.44-.62,1.45-.7Z"/><path class="cls-2" d="M65.05,236.82c.11,1.55,.31,1.55,.47,1.51,.19-.04,.44,1.8,.55-.01,.03-.48-.02-1.64-.09-2.17-.14-1.15-.33-1.07-.56-1.35-.08,.19-.21,.39-.32,.8-.04,.16-.08,.91-.05,1.23Z"/><path class="cls-2" d="M116.53,4.45c.27-.19-.5-.62-1.19-.65-1.65-.06-3.37,.05-3.23,.2,.22,.26,1.69,.57,2.64,.86l1.78-.42Z"/><path class="cls-2" d="M56.37,64.2c.09,1.66,.25,3.17,.48,4.34,.09,.46,.21,.55,.31,.62,.02,.02,0-.78,0-.88-.12-1.62-.22-2.92-.32-4.21-.11-1.31-.12-3.58-.42-3.56-.22,.02-.13,2.1-.04,3.69Z"/><path class="cls-2" d="M196.08,319.87c-.26-.02-.98,.31-1.56,.57-2.65,1.22-4.31,2.11-4.22,2.53,.01,.05,.53-.12,.81-.18,1.68-.93,3.33-1.92,4.97-2.91Z"/><path class="cls-2" d="M61.55,207.25c-.11-.46-.22-.02-.22,.73,0,.9,.13,1.5,.22,1.6,.28,.28,.55,.36,.83,.52-.01-.53-.02-1.06-.03-1.53-.28-3.38-.53-.21-.8-1.33Z"/><path class="cls-2" d="M74.23,9.42c0,.16-.14,.36,.09,.48,.19,.11,1.01,.1,2.02-.04,1.04-.16,1.11-.34,1.19-.49,.21-.35,.11-.68-3.29,.05Z"/><path class="cls-2" d="M61.85,287.01c-.06-.5-.12-.63-.18-.25l-.13,1.05c-.07,2.06,.29,2.06,.35,3.57,.04,1.06,.06,3.16,.28,2.48,.19-.57-.08-2.15-.08-3.37,0-1.3-.11-2.47-.24-3.49Z"/><path class="cls-2" d="M68.42,291.84c.12,.06,.21-.46,.21-1.18-.02-2.14-.33-2.66-.49-4.08-.08-.69-.08,.76-.1,1.27,0,1.95,.03,3.81,.38,4Z"/><path class="cls-2" d="M295.72,152.35c.15-.1,.45,.29,.13-1.57-.21-1.2-.4-1.27-.59-1.34-.12,.08-.41-.29-.08,1.59,.21,1.21,.42,1.41,.55,1.32Z"/><path class="cls-2" d="M64.53,150.45c.07,.07,.11-.54,.1-1.3-.02-1.38-.35-3.27-.51-2.89-.09,.23-.12,.89-.08,1.73,.08,1.48,.21,2.42,.48,2.45Z"/><path class="cls-2" d="M180.65,327.59c-.21-.11-1.15,.2-2.18,.54-1.21,.41-1.73,.7-1.77,.87-.03,.16,.42,.17,1.66-.26,1.27-.43,2.18-.89,2.29-1.15Z"/><path class="cls-2" d="M59.52,84.2c.2,.77,.4,.61,.38-.91-.01-1.18-.07-2.55-.24-3.86-.07-.58-.13-.77-.25-.3-.18,.24,.04,1.83,.08,2.97,.03,.76-.29,.86,.03,2.11Z"/><path class="cls-2" d="M184.75,326.29c.69-.46,1.24-.87,1.84-1.3h-.44c-.4,.18-.97,.42-1.18,.56-.74,.48-1.43,.91-2.03,1.32-.15,.1-.07,.18,.18,.12,.73-.18,1.32-.48,1.63-.69Z"/><path class="cls-2" d="M148.67,341.03s.83-.08,1.2-.17c1.77-.45,2.37-.77,2.49-1.02-.36-.02-1.13,.06-1.72,.24-1.34,.42-1.98,.72-1.97,.94Z"/><path class="cls-2" d="M62.84,201.52c-.04-.96-.25-.82-.39-.87-.18-.07-.35-.09-.52-.07-.03,0-.05,.27-.07,.42,.04,.31,.08,.81,.13,.89,.11,.22,.21,.25,.29,.33,.1-.01,.17-.02,.24-.03,.13-.03,.36,.19,.33-.68Z"/><path class="cls-2" d="M62.06,102.96c.21,.64,.21-.42,.15-1.47-.06-1.11-.19-2.02-.31-1.25-.1,.59-.3,.63-.22,2.28,.17,1.38,.23-.02,.38,.44Z"/><path class="cls-2" d="M279.42,106.82c.34,.77-.58-.54,.26,1.07,.29,.57,.71,1,.9,1.13,.1,.06-.1-.67-.29-1.09-.62-1.35-.6-.87-.88-1.12Z"/><path class="cls-2" d="M67,291.29c-.02-.8-.09-1.44-.21-1.52-.21-.14-.3,.85-.29,2.23,0,.34,.16,.77,.23,1.08,.16-.22,.3-.4,.26-1.79Z"/><path class="cls-2" d="M221.46,307.67c.59-.47,1.21-1.03,.13-.49-.49,.23-1.22,.67-1.86,1.03,0,.07-.03,.18,.06,.2,.14,.04,.38,0,.58,0,.37-.25,.86-.55,1.1-.74Z"/><path class="cls-2" d="M282.63,114.18c-.25-.04-.07,.6,.48,2.02,.16,.43,.35,.84,.62,1.51-.24-1.08-.43-2.09-.71-3.06-.13-.16-.32-.44-.39-.46Z"/><path class="cls-2" d="M62.63,332.99c-.14-.2-.27-.04-.31,1.13-.03,.9,.06,1.47,.16,1.7,.16,.35,.25-.35,.3-1.3,.06-1.05-.06-1.23-.15-1.52Z"/><path class="cls-2" d="M62.98,152.12c.07,1.01,.19,1.93,.35,1.88,.03-.01,.04-.82,.02-1.28-.04-1.01-.09-2.09-.28-2.21-.1,.23-.15,.81-.09,1.61Z"/><path class="cls-2" d="M65.93,192.87c.16,.22,.17-.56,.13-1.34-.04-.7-.11-1.64-.19-2-.11-.48-.21,.09-.21,.85,0,1.17,.12,1.97,.28,2.49Z"/><path class="cls-2" d="M299.77,176.77c.08,.41,.18,.53,.24-.42,.03-1.06-.07-1.43-.17-1.49-.09-.06-.19,.29-.28,.46,.07,.49,.13,1.06,.21,1.46Z"/><path class="cls-2" d="M60.42,181.27c-.1,.17-.1,.66,.02,.89,.13,.27,.27,.29,.4,.29,.04,0,.07-.38,.11-.68-.22-.81-.38-.75-.53-.51Z"/><path class="cls-2" d="M291.36,137.29c.16,.22,.15-.29,0-1.05-.2-1.02-.34-1.04-.46-1.14-.08,.11-.23,.04,.09,1.21,.11,.4,.29,.86,.37,.97Z"/><path class="cls-2" d="M185.56,330.49c-.04,.12,.27,.14,1.27-.32,.68-.3,1.11-.56,1.06-.64-.3,0-.83,.09-1.55,.4-.41,.18-.74,.45-.78,.55Z"/><path class="cls-2" d="M61.63,300.92c-.16-.34-.25,.28-.22,1.51,.02,.72,.1,1.32,.21,1.36,.11,.03,.17-.4,.18-1.19,.01-.93-.09-1.5-.18-1.68Z"/><path class="cls-2" d="M60.99,264.23c-.08,.22-.1,.72-.05,1.29,.06,.72,.16,1.25,.25,.75,.04-.21,.04-.84,.06-1.22-.07-.85-.16-1.12-.26-.83Z"/><path class="cls-2" d="M191.51,25.2c.05,.06,.55,.28,.87,.38,.77,.23,1.41,.37,1.29,.2-.05-.07-.57-.27-.86-.39-.87-.25-1.43-.36-1.3-.19Z"/><path class="cls-2" d="M65.12,171.8c-.04,.07-.07,.76-.05,1.14,.04,.79,.14,1.44,.24,1.17,.04-.11,.04-.75,.05-1.09-.05-.96-.15-1.41-.25-1.22Z"/><path class="cls-2" d="M60.55,206.5c-.09-.06-.18,.1-.28,.16,.08,1.33,.23,1.47,.35,1.94,.13,.51,.19,.09,.17-.73-.02-.87-.13-1.3-.24-1.37Z"/><path class="cls-2" d="M203.41,320.43c1.18-.61,1.17-.79,1.13-.92l-.68,.2c-.44,.35-.92,.7-1.28,1.01-.04,.04,.59-.16,.83-.28Z"/><path class="cls-2" d="M55.12,14.63c0-.2,.04-.41,.01-.57-.06-.12,.07-.1,.08-.15,.03-.04,.04-.08,0-.1-.07-.06-.51-.11-.31,.28,.06,.21,.14,.37,.21,.54Z"/><path class="cls-2" d="M78.14,4.45c.06-.06-.34-.07-.53-.1-.32,.12-.64,.25-.89,.35,.29,.05,.48,.08,.68,.11,.26-.12,.64-.26,.74-.36Z"/><path class="cls-2" d="M59.28,193.45c-.09,0-.16,.3-.25,.47,.06,.27,.13,.74,.18,.76,.09,.04,.17-.2,.28-.35-.09-.41-.16-.88-.21-.88Z"/><path class="cls-2" d="M294.84,236.73c.06-.06,.25-.51,.37-.78-.03-.18-.04-.43-.12-.49-.03-.02-.23,.45-.33,.65-.19,.77-.08,.77,.07,.61Z"/><path class="cls-2" d="M260.19,277.22c.88-.86,1.19-1.35,1.12-1.49-.03-.06-.28,.05-.52,.27-.75,.64-.88,.93-.89,1.06,0,.15,.19,.11,.29,.16-.91,.95-.7,.85,.05,.22l-.05-.22Z"/><path class="cls-2" d="M64.35,338.63s-.09-.12-.13-.05c-.02,.03-.04,.11-.05,.24v.69c0,.31,.11,.55,.18,.81l.18-.83c-.03-.23-.06-.4-.09-.54-.03-.15-.06-.28-.09-.31Z"/><path class="cls-2" d="M57.06,58.05c.05,.1,.12-.28,.12-.62,0-.62-.05-1.37-.08-2.07-.06,.35-.13,.63-.17,1.09-.05,.52-.02,1.27,.13,1.61Z"/><path class="cls-2" d="M297.5,226.91c.04,.32,.23-.06,.36-1.01,.11-.75,.19-1.57,.08-1.62-.04-.02-.17,.52-.26,.79-.16,.84-.21,1.53-.18,1.83Z"/><path class="cls-2" d="M226.97,310.58c.17,.04,.85-.37,1.43-.8,.28-.21,.3-.33,.44-.48-.22,.03-.6,.24-1.08,.61-.32,.25-.84,.66-.79,.67Z"/><path class="cls-2" d="M60.29,199.98c-.08-.03-.19-.05-.14,.9,.01,.23,.12,.37,.19,.58,.05-.23,.19,.05,.13-.95-.01-.25-.12-.51-.18-.54Z"/><path class="cls-2" d="M216.8,309.77c-.08,0-.45,.16-.66,.24-.68,.48-.53,.51-.42,.57,.03,.01,.37-.12,.44-.16,.74-.47,.79-.62,.64-.65Z"/><path class="cls-2" d="M62.44,219.75c-.13-.05-.28-.32-.31,.7,0,.22,.17,1.49,.23,1.47,.17-.08,.1-1.29,.08-2.17Z"/><path class="cls-2" d="M299.71,202.56l-.45,1.78c-.15,.55-.36,1.15-.34,2.16,0,.62,.19,.75,.32,.76,.25,.02,.47-1.57,.64-2.94,.27-2.15-.02-1.69-.16-1.83,.03-.76,.07-1.58,.08-2.27,0-.36-.07-.8-.12-.71-.16,.28-.18,1.08-.14,1.66,.04,.55,.11,.93,.17,1.38Z"/><path class="cls-2" d="M63.44,334.34c-.1,.36-.1,1.14-.07,1.86,.02,.35,.08,.61,.11,.87,.11-.36,.09-1.15,.07-1.86-.01-.35-.1-.93-.11-.88Z"/><path class="cls-2" d="M299.83,195.95c.08,.05,.19,.03,.22-.9,0-.24-.08-.4-.13-.59-.08,.12-.19-.06-.22,.91,0,.26,.08,.56,.13,.59Z"/><path class="cls-2" d="M218,313.94c.09,.06,.56-.1,1.3-.57,.27-.17,.45-.36,.77-.62-.54,.25-1.03,.49-1.53,.71-.19,.16-.58,.44-.55,.47Z"/><path class="cls-2" d="M264.95,278.69c.2-.12,.36-.19,.62-.38,.35-.26,.7-.63,.85-.88,.23-.38-.1-.15-.63,.31l-.84,.95Z"/><path class="cls-2" d="M91.19,347.79c-.05,.06,.27,.11,.43,.17,.34-.04,.92-.08,.96-.12,.06-.06-.28-.11-.45-.17-.34,.04-.91,.08-.94,.12Z"/><path class="cls-2" d="M298.43,193.2c.08-1.44-.11-.93-.2-1.16l-.08,1.48c.1-.1,.27-.17,.28-.32Z"/></g></svg>