<?xml version="1.0" encoding="UTF-8"?><svg id="U1" xmlns="http://www.w3.org/2000/svg" viewBox="0 0 350 350"><defs><style>.cls-1{fill:#010101;}</style></defs><path class="U" d="M160.66,20.24c.23-.65,.48-1.33,.7-1.95,.22-.57,.44-1.1,.67-1.55-.18,.58-.38,1.2-.56,1.8-.2,.67-.4,1.31-.56,1.86-.39,1.37-.62,2.44,.48-.66,1.02-2.9,1.44-3.47,1.89-4.11,.14-.21,.27-.33,.45-.67,.01-.04,.07-.1,.05-.13l-.12-.05c-.1-.04-.21-.08-.35-.13-.28-.09-.67-.21-1.22-.35-2.3-.61-2.4-.45-2.88-.45-.78,.02-2.45-.25-4.6-.68-3.73-.77-7.61-1.43-10.56-2.69-.66-.27-1.9-.59-3.34-.92-.72-.16-1.49-.33-2.27-.5-.78-.14-1.57-.27-2.31-.4-2.16-.71-5.35-1.13-8.64-1.29-1.56-.05-2.74-.08-3.67-.11-.93,.03-1.61,.04-2.18,.02-1.14,0-1.83-.22-3.18-.33,5.59-.14,10.52,.1,15.54,.68,.37-.03,.8-.13,1.09-.08,2.26,.4,1.16,.38,1.6,.56,1.97,.33,3.72,.8,5.38,1.21,1.66,.41,3.22,.87,4.78,1.33,1.16,.34,2.31,.62,3.44,.84,1.75,.35,1.4,.11,1.23-.08-.26-.32-5.05-1.58-2.3-1.22,2.18,.29,5.73,.97,2.2-.18-4.78-1.49-5.95-1.27-8.5-1.62-.98-.14-1.83-.23-2.93-.41-1.96-.34-3.51-.66-3.98-.89-.59-.27-1.29-.62-.33-.57,2.25,.13,1.81-.12,.57-.49-.62-.18-1.43-.4-2.21-.6-.78-.19-1.52-.34-1.97-.49-1.02-.32-2.16-.56-3.38-.71-1.23-.1-2.52-.14-3.8-.17-1.28-.06-2.58,.11-3.81,.12-.62,.02-1.22,.03-1.8,.03-.58,.04-1.14,.06-1.67,.06-.19,0-1.44,.17-2.19,.26,.9,.04,2.21,.04,2.58,.14,.45,.12-1.19,.37-2.99,.55-2.1,.32-3.89,.68-5.43,1.04-1.52,.44-2.82,.87-3.98,1.29-1.9,.76-4.33,1.39-6.08,1.74-1.21,.3-1.27,.1-3.59,.88-.29,.24,.04,.29-1.9,.99-1.1,.43-1.97,.59-2.96,.88,1.55-.63,3.09-1.28,4.69-1.83-1.52,.25-3.14,.9-4.9,1.89-3.31,1.55-6.02,3.15-8.5,4.55-1.95,1.15-3.95,2-5.13,2.28-.45,.11-.49,0-.58-.06-.06-.05-.06-.14-.23-.14-.21,.02-.66,.17-1.67,.64-.49,.23-.83,.4-1.06,.54l-.16,.1s-.03,.11-.04,.16c-.01,.1-.02,.19-.02,.27-.01,.31,.04,.44,.02,.78-.06,.65-.14,1.46-.21,2.22-.03,.59-.05,1.13,0,1.45,.13,.85-.24,2.7-1.55,6.8-.38,1.17-.74,2.36-.65,2.53,.08,.14,.5-1.22,.88-2.42,.26-.81,1.32-4.27,.54-1.3-1.62,6.17-.29,3.15-.79,5.77-.19,.98-.02,1.35-.55,2.01-.87,1.1-1.58,5.45-2.36,7.74-1.12,2.77-2.32,6.95-2.38,8.48-.09,2.23-.95,5.6-2.54,11.07-.9,3.11-.9,3.9-.69,4,.43,.18-.62,3.87-1.74,7.7-.66,.36-.95-.7-1.12-1.92-.18-1.28-1.83,2.39-.73-3.18,.24-2.55,2.19-10,1.81-10.9-.09-.2,.1-1.32-.42,.02-.52,1.33-1.07,2.76-1.53,5.02-.65,3.18-1.42,5.76-2.46,8.62-1.31,3.6-2.62,8.56-3.87,12.95-1.14,4-.92,4.51-1.18,6.31-.31,2.12-1.28,3.22-1.84,6.16-.61,3.21-1.36,5.88-2.57,9.32-.42,1.19-.74,3.16-.88,4.28-.54,2.05-1.15,4.2-1.61,6.11-.69,2.93-1.05,4.22-.98,2.89,.04-.75-.11-.68-.6,.84-.61,1.9-.79,3.17-.99,4.3-.48,2.78-.89,5.3-.94,6.84-.05,2.56-.73,5.21-2.24,9.99-.27,.83-.47,1.24-.74,2.09-.7,2.15-1.65,6.3-2.44,10.1-.72,3.81-1.3,7.25-1.19,7.98,.27,1.99-.69,6.32-1.31,10.56,.51-1.75,1.11-5.27,1.72-7.7,.31-1.29,.64-1.79,.31-.06-.88,4.74-.32,3.2-.28,3.93,.04,.61,.15,.8,.23,1.18-.27,1.16-.57,2.57-.82,3.45-.5,1.71-.99,4.3-1.46,6.75-.5,2.44-.92,4.75-1.29,5.9-.54,5.74-1.11,8.53-1.6,12.75-.26,1.53-.59,.87-.77,4.91-.15,2.83-.24,5.78-.37,8.67-.06,2.89,.01,5.73,.28,8.35,.35,2.52,.46,4.38,.35,7.19-.02,.48,.03,9.07,.72,6.06,.09-.38,.25,.53,.42,1.56,.2,1.03,.44,2.17,.59,2.26,.23,.14,.54,2.77,.34,3.49-.1,.38-.1,1.11,0,2.08,.13,.97,.36,2.18,.66,3.52,.19,.84,.35,1.58,.51,2.42,.14,.85,.3,1.81,.5,3.11,.22,1.57,.46,3.16,.72,4.79,.25,1.63,.65,3.26,1.01,4.95,.68,3.39,1.75,6.85,2.84,10.56,1.31,3.79,1.24,4.09,1.09,4.35,.26,.79,.53,1.6,.8,2.38,.49,.03,.6-.63-1.47-7.29-.51-1.91-.72-3.22-1.03-4.79-.34-1.57-.68-3.42-1.47-6.43-.22-.83-.13-1.21,.06-.86,.19,.36,.45,1.03,.77,2.66,.41,2.34,1.12,4.8,1.9,7.27,.67,2.22,1.5,4.23,2.29,6.33l-.39,1.06c.29,.84,.55,1.68,.85,2.5,2.24,5,2.37,5.49,2.63,7.29l2.17,4.87c.7,1.17,2.13,3.77,3.43,6.23,.33,.61,.65,1.22,.97,1.79,.35,.55,.68,1.06,.97,1.52,.6,.91,1.1,1.58,1.41,1.8,.17,.12,.55,.63,1.03,1.37,.24,.37,.51,.81,.8,1.28,.3,.46,.63,.96,.96,1.48,1.76,2.78,1.48,2.76,1.27,2.83-.19,.07-.36,.18-1.98-2.07-.16,.16-1.51-1.53-2.15-2.32-1.08-1.23-1.5-1.46-1.18-.51,.17,.47,.49,1.25,1.06,2.31,.6,1.05,1.41,2.4,2.44,4.07,.43,.68,.95,1.56,1.57,2.45,.64,.88,1.33,1.82,1.96,2.69,1.29,1.73,2.4,3.21,2.72,3.43,.99,.76,2.14,2.07,3.35,3.49,1.21,1.42,2.51,2.94,3.73,4.14,1.4,1.38,3.21,3.1,4.91,4.49,1.7,1.4,3.28,2.49,4.01,2.78,2.64,1.1,4.29,2.46,6.91,3.82,1.76,.89,3.81,1.78,5.9,2.46,2.34,.76,2.98,.79,2.54,.5-.86-.62,2.08,.04,5.91,.69,2.03,.34,4.51,.54,6.75,.69,2.24,.16,4.22,.27,5.3,.61,3.27,.33,7.1,.17,10.73,.02,4.72-.32,4.05-.17,2.86,.16-.47,.13-.47,.24-.51,.35-.07,.22,1.11,.23,2.67,.18,1.56-.05,3.5-.16,4.95-.3,3.44-.27,2.57-.47,3.16-.67,.53-.19,1.32-.51,2.53-.56,3.68-.24,7.49-1.24,10.51-1.64,1.02-.12,2.33-.28,3.35-.4,1.02-.11,1.72-.2,1.52,.02-.13,.14-.78,.51,1.99-.16,1.75-.42,3.23-.94,2.74-.95-1.65-.08,1-.6,4.2-1.38,1.27-.29,2.92-.51,2.51-.34-3.95,1.62,2.66-.18,3.93-.79,1.73-.71,3.31-1.27,4.88-1.76,1.55-.55,3.09-1.05,4.77-1.57,2.48-.73,4.41-1.54,5.81-2.15,1.4-.63,2.26-1.14,2.52-1.52,.2-.27,1.42-.97,3.93-2.1,2.02-.91,2.53-1,2.95-1.03,1.14-.11,3.7-1.59,3.94-1.94,.27-.41,.08-.43,2.75-1.57,1.11-.51,2.09-.78,3.2-1.51,1.18-.77,2.44-1.59,3.73-2.43,1.28-.88,2.6-1.78,3.93-2.69,.66-.46,1.34-.9,1.99-1.37,.65-.48,1.29-.96,1.93-1.43,.64-.48,1.27-.95,1.89-1.41,.31-.23,.62-.46,.92-.69,.03-.05,.1-.12,.18-.2,.24-.26,.44-.54,.71-.82,.27-.28,.64-.59,1.08-.82,.02,0,.05-.04,.06-.02v.33c-.01,.14-.02,.26-.03,.37-.02,.22-.05,.4-.09,.53-.08,.26-.2,.31-.34,.29-.19-.02-.31,.36-.33,.78-.01,.18,0,.31,.01,.45l.02,.1v.08l.03,.18,.18,1.72c.25,2.31,.53,4.68,.86,7.13,.02,.12,.04,.23,.05,.34,.03,.17,.06,.33,.09,.49,.07,.3,.14,.55,.19,.7,.11,.3,.16,.22,.07-.55-.03-.33-.08-.79-.13-1.27-.04-.36-.06-.73-.08-1.02-.09-2.58,.25-1.96,.76,.81,.1,.55,.18,.99,.24,1.34,.08,.45,.14,.8,.19,1.07,.08,.54,.09,.79,.07,.94-.03,.3-.17,.19,.03,1.37,.28,1.72,.49,2.63,.61,3.09,.07,.22,.1,.37,.17,.4,.11-.03,.18-.06,.23-.08,.82-.34,2.97-.51,5.57-.71,.59-.04,1.2-.08,1.81-.12,.41-.02,.82-.04,1.22-.06,.8-.04,1.56-.09,2.17-.16,3.93-.43,1.69-.92,4.51-1.03,6.33-.21,6.28-.46,6.97-.82,.2-.1,1.04-.26,2.64-.28,1.3-.02,1.93,.07,1.22,.2-2.63,.47-1.27,.65,2.97,.61-1.17,.49,2.36,.81-2.86,1.46-1.47,.18,.77,.28,3.2,.2,3.2-.09,6.58-.37,8.61-.69,3.56-.57,7.4-1.19,11.5-1.85,4.12-.66,8.54-1.39,13.17-2.44,.27-.06,.35-.13,.49-.19-1.75,.31-3.26,.45-3.2,.3,.09-.21,2.54-.57,3.94-.86,4.01-.81,7.25-1.61,9.66-2.21-2.52,1.03-5.09,1.74-7.63,2.19,.12,.09-.36,.34-.1,.39,.27,.04,1.29-.06,4.44-.96,2.45-.72,4.84-1.48,7.28-2.72,2.07-1.06,4.08-2.3,6.04-3.87,1.94-1.58,3.89-3.48,5.45-6.04,.29-.46,.6-1.02,.84-1.62,.13-.3,.26-.59,.37-.92,.1-.34,.2-.67,.3-.99,.31-1.26,.34-2.25,.28-2.48-.08-.22-.21,.36-.46,1.3-.13,.47-.28,1.04-.5,1.65-.19,.63-.47,1.15-.69,1.72-.76,1.67-1.58,2.9-2.32,3.78-.35,.46-.71,.81-1.01,1.12-.3,.32-.58,.57-.83,.76-.97,.8-1.39,.88-1.57,.75-.1-.08-.67,.27-1.2,.5-.53,.23-.97,.41-.8,.13,1.45-.98,2.81-2.26,3.41-3.01,.6-.75,.57-.81-.82,.37-.96,.76-1.43,.94-1.67,.96-.24,.02-.26-.15-.38-.24-.13-.09-.33-.07-.97,.23-.64,.3-1.68,.94-3.6,1.87-.08,.05,.55-.51,.9-.82,.98-.76,3.93-3.23,1.58-1.9-2.46,1.34-5,2.71-7.56,3.85-.28,.12-.72,.31-1.09,.43-3.47,1.09-4.4,.78-7.63,1.64-2.5,.58-.1,.65-4.42,1.53-.4,.08-.79,.18-1.16,.23-5.23,.76-8.03,1.34-11.44,1.93-4.57,.78-5.47,.82-6.48,.42-.98-.38-7.07-.08-9.28-.38-.5-.06-2.04,.15-3.07,.25-1.41,.14-3.39,.35-4.53,.36-6.7,.07-9.1,.5-10.33,1.02-.37,.16-1.16,.37-3.1,.34-.7,0-1.39,0-2.1,.01-.63,.03-1.26,.06-1.92,.09-1.05-.1-3,.93-2.86-1.22-.53-2.67-.06-1.04,.15-.49,.13,.38,.34,1.03,.47,1.32,.04,.06,.04,.15,.11,.12,.06-.02,.09-.04,.08-.06,0-.01-.03,0-.03-.04v-.16c0-.13-.02-.3-.05-.52-.18-1.81-.46-1.99-.8-3.53-.34-1.57-.41-2.91-.51-4.52-.06-.87-.11-1.74-.17-2.6-.08-1.07-.17-2.13-.25-3.18-.2-2.26-.44-4.46-.7-6.58-.07-.53-.13-1.05-.2-1.57l-.02-.19c0-.07,0-.15-.08-.07l-.33,.25-.65,.49c-.86,.65-1.7,1.29-2.54,1.93-1.66,1.26-3.19,2.49-4.69,3.6-1.31,.95-2.54,1.84-3.79,2.74-1.23,.9-2.54,1.72-3.98,2.63-1.97,1.25-3.87,2.48-5.79,3.5-1.91,1.04-3.73,2.06-5.61,2.76-1.7,.66-3.58,1.72-5.48,2.69-1.91,.94-3.78,1.88-5.34,2.45-3.7,1.23-4.78,1.78-6.9,2.96-1.29,.66-3.82,1.69-6.45,2.72-2.66,.94-5.44,1.84-7.18,2.35-2.3,.6-.33-.57-5.29,1.2-1.22,.45-2.19,.58-3.29,.74-1.1,.16-2.33,.35-4.09,.86-3.52,.95-4.9,.63-7.57,1.25-3.53,.7-1.87,.78-3.16,1.23-.13,.05-.6,.13-.79,.18q-2.23,.61,1.29,.36c-.7,.2-.29,.41-2.29,.61-.85,.08-1.66,.16-2.46,.24-.81,.05-1.61,.1-2.44,.15-1.66,.1-3.43,.33-5.6,.57-2.06,.21-3.99,.21-3.83,.08,.31-.24-.64-.33-2.06-.33-1.42-.02-3.3-.04-4.87,0-3.46,.11-6.28-.19-9.25-.48-2.96-.31-6.06-.64-10.22-1.08-.24,0-2.12-.51-2.66-.71-1.73-.65-4.44-1.39-7.21-2.5-3.1-1.26-5.7-2.71-8.05-4.55-1.66-1.26-4.12-3.19-6.02-4.86-1.92-1.65-3.34-2.96-3.2-2.55,.35,.98-.68,.21-2.21-1.37-1.52-1.58-3.52-3.96-5.13-6.11-1-1.29-1.98-2.55-2.97-3.82-.51-.63-.97-1.29-1.42-1.98-.46-.68-.91-1.38-1.37-2.11,.43,.21,.46-.12-.07-1.18-.26-.53-.67-1.25-1.22-2.19-.51-.97-1.17-2.15-1.99-3.59-.48-.84-.95-1.67-1.4-2.46-.43-.8-.79-1.6-1.15-2.34-.7-1.49-1.27-2.81-1.62-3.86-.72-2.26-2.03-4.95-2.59-5.45-.34-.32-.81-.96-1.35-1.89-.51-.95-1.12-2.19-1.82-3.68-.72-1.56-1.18-2.96-1.4-4.04-.24-1.02-.47-2.01,.13-.76,.89,1.88,1.24,2.15,.95,1.15-.94-3.23-1.18-2.99-1.45-3.49-.39-.73-.88-1.81-1.36-3.05-.44-1.26-.92-2.65-1.38-3.99-.35-1.02-.72-2.05-1.05-3.05-.31-1.01-.62-1.98-.89-2.87-.65-1.99-.72-.27-1.47-3.62-.95-5.15,.87,1.58,.4-2.06-.12-.93,.32,.08,.26-.77-.15-2.06-.66-3.92-1.08-5.87-.42-1.95-.87-3.96-1.09-6.25-.08-1.3-.44-2.62-.59-2.59-.06,.02-.08,.52-.05,1.11,.04,.99,.18,2.2,.34,3.37,.32,2.52,.24,3.14-.06,2.33-.38-1.09-.73-3.86-.88-5.51-.25-2.14-.34-3.79-.43-5.46-.08-1.67-.07-3.37-.22-5.58-.06-.91-.11-1.74-.15-2.49-.01-.76-.02-1.44-.04-2.04-.01-1.21,0-2.11,.04-2.72,.08-1.21,.26-1.23,.57-.09,.42,1.55,.67-.54,1.08,1.34,.02,.09,.06-1.71,.03-2.77-.05-1.16-.11-2.98-.22-2.45-.32,1.66-.61-.33-.91-2.05-.05,1.55-.15,2-.29,2.4-.6,1.87-1.28,2.69-1.48-8.2,0-1.42-.12-2.75-.31-1.67-.11,.65-.21,1.93-.18,3.19,.08,1.7,.13,3.39,.15,5.09v2.54c.04,.85,.06,1.7,.09,2.55,.09,3.5-.16,3.14-.38,2.81-.32-.5-.29-2.78-.32-4.68,.05-5.98-.26-8.79-.55-11.1-.15-1.08-.16-2.74,.08-2.64,.25,.1,.4-.78,.53-2.28,.16-1.5,.29-3.62,.42-6.02,.31-4.24,.75-8.5,1.19-12.63,.48-5.04,.81-5.1,.94-4.43,.16,.72,.25,2.32,.36,3.78,.06,.88-.08,2.43-.37,4.19-.32,2.1-.46,4.14-.32,5.11,.11,.71,.26,1.56,.52-.15,.49-3.46,1.17-7.26,1.65-12.22,.38-3.46,1.24-9.42,.24-6.64-.19,.51-.18-1.84,.36-4.83,.51-2.83,.23,.53,.45,.04,.62-1.37,.86-.99,.55,3.2-.2,2.72,.48-1.13,.89-3.56,.22,.04,.55-.91,.93-2.17,.38-1.27,.85-2.82,1.22-4.05,1.23-3.9,1.45-4.57,2.24-10.57,.43-2.79,.79-6.07,1.52-8.72,.94-3.48,.29-3.93,1.49-7.07,1.12-2.94,.78-4.52,1.75-7.6,.35-1.12,.85-3.19,1.24-4.29,1.53-4.22,2.69-8.71,3.65-13.65,.15-.8,.53-2.3,.83-3.36,2.61-9.14,2.69-9.34,3.25-13.98,.05-.41,.1-.78,.16-1.24,.29-1.93,.93-4,1.71-6.26,1.4-4.08-.1,1.12-.1,1.54,0,.52-.06,1.2,.42-.07,.6-1.6,.84-2.83,1.06-4.02,.51-2.73,1.03-4.19,1.49-4.83,.23-.32,.29,.01,.57-.49,.79-1.46,1.47-3.85,2.03-7.23,.18-1.08,.26-2.01,.84-3.46,1.52-3.81,1.58-6.34,2.72-9.98,.67-2.14,.32-2.02,.53-3.11,.54-2.75,1.31-3.44,1.67-5.31,.83-4.28,1.29-4.35,1.89-6.1,1.49-4.33,1.59-4.82,1.41-6.23-.05-.36,.39-2.14,.81-3.78,.44-.86,.86-1.67,1.32-2.61,.31-.65,.74-1.66,1.21-3.48,.19-.73,.23-1.5,.12-1.44-.5,.26,.2-2.13,1.19-5.09l.21-.63,.11-.3c.03-.07,.03-.07,.05-.11,.06-.11,.12-.21,.18-.31,.05-.24,.39-.19,.6-.27,.06-.02,.08-.01,.17-.04,.16-.06,.31-.12,.45-.18,.28-.11,.53-.22,.75-.31,.45-.19,.81-.35,1.17-.53,.71-.36,1.41-.8,2.78-1.64,.72-.43,1.78-.93,2.82-1.36,1.44-.58,2.73-1.09,4.11-1.58,5.66-2.07,7.95-2.92,8.48-3.66,.32-.45,.52-.86,1.43-1.51,.4-.29,2.42-.95,2.4-.68,0,.15,.6,.03,1.42-.19,.41-.11,.87-.25,1.33-.4,.46-.12,.93-.25,1.35-.36,1.09-.29,2.17-.63,3.19-.94,1.03-.26,2.01-.46,2.88-.59,.66-.08,1.39-.27,2.16-.36,.77-.09,1.56-.19,2.32-.29,1.52-.22,2.93-.17,3.74,.1,1.14,.32,5.81,.39,8.35,.66,1.12,.09,2.22,.18,3.25,.26,1.04,.13,2.02,.26,2.91,.41,1.78,.26,3.19,.67,3.95,1.22,.06,.05,1.59,.42,2,.49,6.74,1.16,10.96,2.71,15.59,4.17,.14,.04,.15,.05,.19,.07l.1,.04,.19,.07c.12,.05,.23,.08,.34,.11,.21,.06,.4,.1,.6,.12l.29,.03c.1,0,.23,0,.19,.07l.03,.35-.45,.91-.2,.44-.45,1.22c-.59,1.64-1.15,3.32-1.63,5.05-.13,.1-.29,.29-.67,1.5-.14,.43-.17,.75-.24,1.11-1.44,4.65,.41,.14,.05,1.77-.38,1.72-1.05,4.19-.84,4.42,.08,.08,.08,.41,.18,.45,.1,.03,.64-1.08,.76-1.55,.7-2.74,1.45-4.8,2.21-6.72,.79-1.91,1.58-3.68,2.33-5.84Zm131.62,301.7c1.12-.34,2.16-.64,3.23-1.01-1.79,.9-3.41,1.66-5.71,2.44-.63,.22-2.15,.36-2.66,.34-.36-.27,1.82-.81,5.14-1.78Zm-24.12,5.86c.42-.25,1.26-.54,4.27-.86,1.68-.18,2.89-.17,2.68,0-.5,.38-3.69,.62-5.91,.86-.37,.04-.73,.07-1.11,.11,.02-.03,.02-.06,.07-.1Zm-26.14,1.54c.29,.02,.62,.05,.95,.08-.88,.08-1.74,.16-2.64,.24-.02,0-.54-.02-.54-.05,.03-.11,.79-.21,2.23-.26Zm-158.96,10.01c.91,.46,2.24,1.1,3.5,1.64,1.25,.56,2.43,1,2.96,1.26,2.03,.9-1.67-.16-2.94-.58-.45-.13-.09,.14-.12,.22-.03,.06-.48,0-2.48-1.03-1.44-.75-2.3-1.38-3.44-2.14-1.13-.78-2.51-1.72-4.87-3.34l.02-.32c2.33,1.6,4.59,2.91,7.39,4.29Zm-14.97-11.68c1.09,1.38,1.83,2.37,2.37,3.16,.63,.92-1.45-1.15-2.32-2.01-2.71-2.68-1.58-1.93-2.05-2.59,.26,.27,.55,.57,.76,.79,.14,.13,.16,.12,.24,.17-.34-.33-.68-.66-1.03-1-1.06-1.35-1.25-1.77-.94-1.62,.46,.22,1.56,1.34,2.96,3.09Zm-8.19-10.49c.45,.61,1.17,1.79,1.16,1.92-.03,.47-.31,.61-.51,.87-.49-.66-.99-1.33-1.48-1.99,.35-.04,1.01,.33,.03-1.48-.29-.53-.11-.52,.79,.68Zm-11.94-25.43c.32,.72,.59,1.42,.89,2.14-1.26-2.36-2.65-4.69-3.76-7.13-.06-.32-.12-.64-.18-1,.52,.38,1.28,2.15,3.06,5.99Zm-14.74-47.29c.33,2.22,.75,4.16,.96,5.89,.24,1.73,.33,3.25,.45,4.56-.36-1.59-.57-3.2-.85-4.8-.25-1.61-.56-3.21-.76-4.82-.07-.53-.08-1.38-.04-1.59,.03-.17,.17,.26,.25,.76Zm3.71-78.67c0-.52,.12-1.97,.22-2.34,.49-2.12,.35-.76,.33-.1-.03,.68-.07,1.5-.11,2.41-.38,1.17-.44,.77-.44,.04Zm2.29-.89c-.35,1.08-.25-.04,.05-1.79,.14-.13,.63-2.14,.39-.25-.05,.36-.35,1.77-.44,2.04Zm1.96-10.66c-.09,.12-.26,.54-.24,.24,.02-.32,.19-1.4,.32-1.98,.26-1.14,.34-1.18,.21-.26-.09,.63-.2,1.34-.3,2Zm-1.73-6.19c-.53,1.79-1.17,4.9-1.24,3.79,0-.14,.23-1.33,.37-2.06,.57-2.19,1.18-4.45,1.27-3.69,.03,.24-.17,1.18-.4,1.96Zm2.71-7.58c-.69,2.9-.84,2.69-1.08,2.84-.22-.25-.1-1.78,.36-4.51,.56-1.34,1.32-3.54,1.6-3.68,.18-.09-.23,2.61-.87,5.36Zm3.1-8.81c-.05-.07-.11-.08-.13-.25-.05-.44-.29-.33,.36-3.02,.24-.97,.4-1.28,.4-.99,.01,.73,.49,.03-.63,4.26Zm6.13-11.86c-.39,.94-.63,1.57-.82,1.99-.2,.44-.51,1.2-.12-.45,.33-1.35,.63-2.09,.75-2.17,.11-.07,.11,.32,.19,.63Zm6.27-37.22c-1.88,6.06-1.51,5.98-1.18,6.05,.11,.01,.04,.26-.75,2.56-.11,.31-.19,.4-.28,.71-.85,2.83,.23,1.04-.83,3.97-.9,2.47-1.3,3.91-1.77,6.13-.52,2.48-1.12,5-2.08,8.11-1.79,6.19-2.21,7.26-1.84,4.28,.25-1.96,.41-3.68,1.71-8.4,.65-2.34,.57-2.49,.2-1.77-.28,.55-.18-.65,.35-1.79,1.16-2.49,2.36-7.07,3.59-11.21,.85-2.84,1.7-5.7,2.54-8.51,.18-.59,.45-1.25,.52-1.29,.06-.04-.11,.98-.17,1.16Zm4.28-2.87c-.1,.12-.21,.27-.3,.35-.13,.11-.24,.17-.36,.24,.25-.63,.56-1.47,.68-1.61,.12-.15,0,.64-.02,1.02Zm7.83-29.35c-.29,.79-.59,1.48-.88,2.44-2.5,8.13-.77,1.6-.31-.53,.36-.68,.6-1.51,.7-2.47,1-2.75,1.48-3.67,.49,.56Zm.42-4.74c-1.34,3.97-1,3.75-.92,4.2l-.68,2.39c-.24-.54-.31-1.54,1.53-7.59,.34-1.13,.77-2.36,.75-1.83-.01,.42-.26,1.6-.67,2.82ZM111.7,7.36c-1.46,.14-2.5,.18-2.61,.05-.09-.11,.63-.38,1.61-.5,.97-.15,2.16-.3,2.93-.45,.42-.08,.79-.15,1.13-.21,.34-.04,.65-.07,.93-.1,.55-.05,.96-.09,1.27-.12,.61-.05,.78-.03,.71,.02-.14,.09-1.23,.32-1.69,.45-.51,.05-.91,.11-1.25,.18-.34,.09-.63,.18-.92,.26-.57,.16-1.13,.31-2.1,.43Z"/><path class="cls-1" d="M301.13,257.35c.22,.44,.3-.42,.27-2.25-.05-2.73,.18-2.65,.5,1.12,.2,2.58,.45,4.01,.68,5.11,.23,1.1,.45,1.88,.7,3.16,.57,2.96,.52,2.01,.33-.73-.09-1.51-.16-2.86-.24-4.26-.04-.16-.18-3.73-.35-7.28-.1-3.55-.19-7.08-.19-7.16-.13-.83-.23-1.87-.33-2.33-.15-.65-.82-7.93-.82-9.35-.05-1.57-.02-2.92,.01-4.28,.05-1.36,.09-2.73,.02-4.34-.08-1.87,.02-2.49,.13-2.18,.6,1.69,.4-2.88,.3-5.29-.11-2.2-.25-3.5,.09-5.55,.27-3.62,.69-7.22,.41-10.84,.32-3.95,.82-6.97,1-11.98,.04-1.19,.14-2.94,.11-3.44-.21-3.02,.28-8.49,.55-12.98,.82-2.15,.74-2.02,1.23-9.33,.39-5.65-.13-6.03,.39-12.48,.49-6.13,.66-8.76,1.02-8.12,.5,.89,.62-2.17,1.01-6.4,1.18-12.98,2.37-26,3.64-38.94,1.06-10.83,1.27-14.49,.55-16.24-.36-.87,.09-4.61,.23-7.3,.08-1.52,.19-3.38,.44-4.69,.44-2.29,.56-1.12,.63,.57,0,.22-.01,.66,0,.85,.16,2.38,.72,.4,1.26-4.7,.25-2.36,.41-4.91,.63-7.38,.38-4.29,.06-3.49-.2-2.42-.3,1.23-.73,5.33-.95,4.23,.16-2.27,.19-4.99,.57-6.69,.6-2.75,.6-5.93,.91-8.74l-.37-.42c.08-.85,.16-1.69,.25-2.54,.28-.82,.57-2.19,.89-4.84,.64-1.45,.64-1.48,.92-6.34,.29-5.05,.51-6.61,1.21-8.89,.12-.38,.34,.47,.4-2.18,.06-2.42,.2-4.47,.41-6.42,.14-1.18,.28-2.34,.42-3.52,.19-1.51,.39-3.05,.6-4.67,.06-.5,.13-1.05,.21-1.69-1.47-.03-3.23-.04-5.07-.04-.92,0-1.86,.01-2.79,.02-.64,.01-1.28,.03-1.9,.04-2.3,.07-4.29,.19-5,.32-.15,.03-2.35,.2-4.51,.37-1.08,.09-2.15,.18-2.96,.24-.4,.04-.73,.07-.97,.09-.23,.02-.37,.04-.37,.05-.15,.54-8.43,.26-10.3,.7-.51,.12-7.86,.05-2.58,.48,.31,.03-.09,.17-.39,.17-4.13,.09-8.39,.24-12.4,.21-2.76-.02-1.46-.35-1.46-.55,0-.19-.76-.34-3.03-.42-4.01-.14-4.31-.5-6.66-.74-1.9-.19-6.96-.02-7.29-.45-.39-.5-5.24-.16-8-.2h-1.42c-.59,0-1.08,0-1.47,.01-.79,.02-1.2,.06-1.41,.1-.41,.09-.03,.21-.2,.3-.3,.17,.22,.35,.38,.53,.6,.02,1.15,.03,1.66,.05,.48,.02,1.03,.04,1.29,.06,.63,.04,1.14,.09,1.52,.14,.78,.11,1.09,.24,1.01,.39,1.25-.03,3.25-.1,3.49-.08,3.45,.41,3.34,.89,3.68,1.37,.32,.47-4.62,.15-6.09,.33-.73,.09-1.94,.17-2.06,.26-.19,.14-.59,.26-1.43,.34-.48,.04-.77,.07-1.27,.1-.48,.02-1.04,.04-1.73,.04h-.25c-.11,.67-.07,.85,.05,.39l.06-.26c.77,.04,1.94,.06,1.99,.1,.27,.21-1.04,.11-1.8,.12l-.03,.21c-.1,.75-.33,2.02-.3,2.17,.08,.38,.35-.52,.55-1.26,.05-.21,.11-.43,.17-.66,.79,.04,1.47,.06,2.32,.08,1.38,.02,2.71,.04,3.84,.06,4.58,.12,6.33,.38,5.52-.26-.43-.34,1.97-.53,5.95-.16,1.68,.16,3.94-.01,5.48-.14,1.43-.12,1.55-.32,3.84-.38,1.09-.13,1.92-.14,2.66,0,3.86,.14,2.03,.5,4.36,.71,3.18,.29,7.04-.11,9.42,.08,5.69,.46,6.1,.01,7.07-.27,.73-.22-1.46-.55,2.78-.61,3.39-.05,4.4,.29,6.71,.43,1.81,.11,2.41,.27,2.92,.45,.56,.19,2.25,.37,4.04,.49,.89,.06,1.81,.11,2.62,.14,.41,.01,.78,.02,1.12,.03h.59c.68-.05,1.32-.06,1.89-.05-.05,.46-.11,.91-.18,1.33l-.1,.63c-.06,.52-.13,1.04-.19,1.57-.07,.55-.13,1.8-.11,2.14,.12,2.2,.45,2.28,.95,.57,.1-3.06,.28-4.41,.41-4.55,.15-.37,.34-.47,.48-1.15,.03-.55,.06-1.18,.1-1.77-.87,.03-1.63,.06-2.02,.02-1.73-.17,.28-.26,1.35-.39,.39-.05,.85-.12,1.25-.17,.07,.63,.14,1.23,.15,1.14,.11-.66,.21-1.18,.29-1.55-.76-.12-.81-.25-.56-.39,.25-.14,.81-.28,1.1-.42,.1-.05-.85-.11-1.51-.14-.82-.04-1.5,0-1.9,.09-.47,.11-.43,.24-.79,.35-.18,.06-.44,.11-.92,.15-.51,.04-1.24,.07-2.32,.09-4.14,.06-4.25-.29-6.32-.44-1.7-.12-3.75-.15-5.77-.21-.62-.02-1.15-.1-1.29-.16-.07-.03,1.12-.11,1.5-.1,3.47,.08,6.7,.01,9.91-.08,1.62-.05,3.23-.09,4.87-.14,1.82-.04,3.71-.07,5.63-.08-.11,1.08-.21,2.18-.32,3.3-.29,2.77-.5,4.91-.7,6.31-.2,1.37-.37,1.82-.53,.47-.06-.51-.35,1.08-.4,1.92-.28,5.31-1.56,13.6-1.06,16.51,.1,.56,.1,2.01-.17,3.71-.99,6.3-1.72,12.81-2.02,20.05-.04,.85-.1,1.43-.21,1.65-.29,.55-.27-1.39-.33-2.73-.08-2.01,.26-3.4,.49-4.87,.14-.87,.23-1.68,.19-2.01-.03-.28-.11-.33-.19-.09-.2,.59-.43,2.03-.61,3.73-.36,3.39-.8,7.09-1.02,10.2-.26,3.74-.92,4.47-1.02,9.13-.05,2.12-.55,4.05-.83,5.35-.42,1.94-.25-1.21-.33-2.22-.15-1.81,.74-8.52,.28-8.4-.57,.14-.78,7.27-1.35,9.91-.54,2.47-.82,6.15-.44,6.69,.39,.54,.16,2.35-.36,6.57-.64,5.1-.92,10.37-.64,12.1,.2,1.27-.11,5.24,.01,6.37,.13,1.27,.1,2.13-.26,3.74-.18,.82-.58,3.04-.41-.16,.06-1.12,.21-2.63,.25-3.63,.05-1.25-.21-.52-.24,.13-.23,3.79-.51,5.13-.92,7.05-.47,2.22-.8,3.79-.57-.82,.04-.84-.19-.16-.34,1.68-.23,2.79-.48,3.62-.73,4.73-.15,.67-.31,1.06-.38,2.73-.07,1.54-.1,2.96,.11,2.47,.44-1.03,.9-2.4,1.33-3.37,.11-.24,.19,.25,.19,.98,0,1-.18,2.3-.34,3.18-.73,4.02-.84,5.31-.25,4.68,.57-.6,.52-.02-.24,6.58-.46,7.53-1.18,15.21-2.05,22.29-.33,2.66-.82,4.66-1.17,7.81-.55,5.22,.26,3.2-.07,7.69-.1,1.44-.08,2.77-.11,4.14,.1,1.19,.75-1.82,.06,5.22-.27,2.9-.3,7.04-.39,10.64-.03,.87,.14,.29-.02,2.49-.46,7.11-.44,7.32,0,7.32,.14,0,.33-1.13,.34,.8,.02,1.71-.13,3.2-.25,4.61-.12,1.39-.23,2.92-.39,3.39-.1,.29-.2,.94-.3,1.43,.07,.55,.14,1.54,.22,1.55,.44,.06,.9,4.29,1.33-3.44,.05-.82,.18,.47,.2,1.69,.09,6.58-.73,6.07-.63,12.19,0,.56-.11,1.96-.2,2.16-.08,.21-.26-.23-.3-.97-.3-7.45-.82-6.99-1.35-7.12-.28-.07-.3-2.46-.27-5.13-.49,9.65-.23,13.38,.46,12.78,.09-.07,.17-1.29,.29-.2,.24,2.07,.18,5.4,.3,8.47,.11,3.07,.23,5.89,.72,6.91,0,1.02,.01,2.12,.02,3.05,0,1.3-.07,2.39-.05,3.72,.02,1.05,.13,2.52,.29,3.46,.14,.82,.29,1.35,.41,1.58ZM257.27,6.73c-.31-.04-1.04-.1-.9-.14,.35-.1,1.37-.15,2.69-.11,.33,0,.83,.05,.79,.06-.29,.11-1.25,.17-2.58,.19Zm56.27,54.8c.03-.34,.24-.98,.34-1.16,.11-.2,.2-.06,.3-.05-.21,1.84-.42,4.37-.65,4.28-.13-.05-.15-1.23,.01-3.07Zm-5.3,33.18c.01-.85,.11-1.71,.21-1.8,.05-.05,.08,.6,.04,1.17-.04,.58-.16,1.45-.24,2.18,0-.51,0-.97-.01-1.55Zm.33,9.61c-.22,.29-.66,2.29-.36-1.71,.23-3.02,.55-5.99,.97-7.41,.19-.63,.41-1.89,.61-2.67,.52-2.02,.59-.62,.06,4.39-.27,2.5-.5,4.22-.55,6.34,0,.07-.2,1.35-.3,1.75-.29,1.25-.36,.22-.43-.7Zm-1.64,13.23c.15-1.53,.24-1.22,.3-1.12,.05,.08,.04,.78,.05,1.21-.08,.22-.16,.45-.25,.68-.04-.26-.12-.59-.11-.77Zm-2.04,30.46c.28,.21,.36,1.74,.09,5.5-.28-.22-.67,.3-.09-5.5Zm-.12,7.92c.07-.73,.14-1.51,.22-2.25,.06,.38,.17,.51,.14,1.27-.1,2.1-.44,4.43-.58,4.61-.17,.22,.12-2.29,.23-3.63Zm-2.47,7.26c.21-1.57,.42-2.75,.51-1.95,.03,.24-.04,1.21-.06,1.85-.25,2.16-.36,1.87-.48,1.6-.08-.18-.07-.77,.03-1.5Zm2.17,5.37c.04-.36,.1-.87,.14-1.28,.03-.21,.05-.39,.07-.52,.02-.13,.03-.21,.04-.21,.11,.07-.01,1.43-.1,2.41-.1,1.11-.2,2.23-.3,3.35-.06-.78,0-2.15,.15-3.76Zm-2.29,9.13l.09-1.08,.19,.16c-.24,3.01,.11,4.29-.39,8.11-.04,.31-.11,.73-.12,.63-.15-1.66,.06-4.78,.24-7.81Zm.54,9.43c.06-1.11,.11-2.25,.17-3.36,.11-.14,.24-.53,.32-.36,.23,.5-.11,5.08,.27,5.07-.26,1.31-.35,1.94-.4,1.99-.26,.23-.52,.5-.36-3.34Zm-1.51,12.19s.17-.99,.2-.78c.09,.82,.03,2.5-.08,4.21-.07,1.06-.13,1.4-.21,.82,.02-1.17,.05-2.69,.08-4.25Zm.47,51.05c-.04-1.41-.28-4.21-.05-3.59,.29,.74,.58,2.98,.85,6.32,.19,2.31,.17,3.82,.02,4.14-.13,.29-.35-1.25-.52-3.14-.11-1.26-.24-2.52-.3-3.74Z"/><path class="cls-1" d="M229.59,83.84c-.6-2.64-.57-6.91,.5-16.36-.67-.49-1.34-1.02-2.02-1.48-.09-.06-.22-.02-.41,1.51-.09,.71-.16,1.69-.19,2.3-.1,1.97-.11,3.77-.18,5.74-.06,1.94,.43,1.4-.13,5.44-.26,1.9-.21-1.56-.36-2.05-.13-.4-.09-2.28-.2-2.71-.18-.63,.47-6.75-.09-4.21-.2,.93-.62,5.25-.94,8.13-.4,3.28-.52,6.05,.11,2.88,.29-1.48,.25,.1,.3,.76,.07,.89,.18,1.96-.05,4.36-.13,1.36-.37,2.65-.53,2.47-.28-.3-.38,2.59-.54,4.44-.15,1.81,.18,1.29-.2,4.77-.5,4.39-.45,14.4,0,12.62,.66-2.58,.56,2.16,.77,3.99,.11-.63,.23-1.55,.33-1.78,.09-.21,.06,.69,0,.97-.11,.46-.22,.65-.32,.95-.37,4.49-.1,4.81,.06,5.83,.26,1.71,.25,4.11-.21,9.44-.64,7.33-.61,7.47-1.61,15.48-.13,1.04-.26,2.64-.37,2.34-.13-.36,.08-1.95,.14-2.99,.26-5.11,.64-10.24,.99-15.39,.21-3.17,.6-7.66-.18-3.08-.17,.97-1.47,8.94-.56-3.8,.04-.56-.12-1.71-.23-2.05-.28-.88-.17-6.89-.55-5.04-.35,1.73-.59,7.78-1.02,11.9-.49,4.76-.58,14.38-.17,14.77,.54,.52,.87,2.8,.91,8.09,.01,1.58,.46,.72,.11,4.09-.19,1.84-.29-1.04-.47-1.32-.18-.26-.39-.75-.4-2.3-.03-2.42-.12-1.18-.29,.85-.17,2.06-.35,4.97-.57,5.37-.69,1.24-.82,5.15-.76,8.78,.05,3.31-.03,5.3-.51,7.89-.66,3.48-.24,5.14-.31,7.65,.12-.42,.27-1.27,.35-1.14,.24,.37,.38,2.72,.79-1.07,.51-4.69,.03-4.96,.14-7.84,.04-.82,.08-1.65,.12-2.48-.1-.93-.01-1.76,.17-2.57,.95-8.69,.99-8.9,1.21-4.13,.12,2.57,.25,4.75,.64,4.63,.57-.17,.53,.49-.09,8.75l-.42-.11c-.18,1.62-.33,2.28-.4,1.13-.08-1.45-.21-2.48-.44,.11-.38,4.25-.71,7.68-1.15,7.96-.51,.31-.79,8.43-1.23,9.62-.32,.85-.44,1.67-.49,4.99-.02,1.5-.13,3.71-.25,5.08-.31,3.44-.16,.33-.14-.82,.02-.98,.14-3.05-.1-1.62-.09,.55-.2,1.67-.31,3.06-.03,.34-.06,.7-.08,1.07-.05,.3-.06,.61-.12,.93-.12,.63-.28,1.29-.5,1.94-.87,2.61-2.49,4.94-2.52,5.2-.09,.69-.86,1.93-2,3.32-1.15,1.39-2.67,2.9-4.13,4.25-3.38,3.15-7.12,5.98-10.99,8.53-4.4,2.85-6.13,3.96-4.5,3.51,1-.3-.39,.64-2.57,1.84-2.77,1.53-5.87,3.2-8.04,3.9-1.74,.59-5.77,2.28-5.93,1.91-.16-.32-4.2,1.35-7.08,2.36-3.12,1.1-3.06,1.33-3.24,1.62-.09,.14-.16,.28-.55,.51-.21,.13-1.3,.54-1.63,.64-1.69,.45-.15-.13-.4-.15-1.17-.03-4.71,.84-6.12,1.46-2.74,1.26-4.78,1.24-6.57,1.22-1.86-.04-2.88-.25-5.09,.4-.71,.21-1.78,.33-3.21,.33-1.42-.03-3.22-.18-5.19-.8-1.1-.32-2.16-.78-3.12-1.35-.25-.13-.48-.29-.7-.45-.23-.16-.45-.31-.68-.52-.46-.37-.9-.76-1.31-1.19-.42-.39-.95-1.02-1.38-1.55-.41-.54-.73-.96-.75-.98-.13,0,.19,.48,.59,1.04,.4,.55,.93,1.14,1.13,1.41,.65,.86,1.45,1.8,2.47,2.6,1.05,.81,2.45,1.53,4.25,2.07,1.69,.5,2.43,.71,2.65,.93,.22,.22-.06,.39-.31,.55-2.72-.23-5.51-.84-7.99-2.5-2.43-1.66-4.46-4.12-5.87-7.17-.22-.49-.78-1.61-1.04-2.21-.46-.95-.81-1.78-1.12-2.5-.04-.08,.14,.84,.35,1.44,.83,2.51,1.98,4.78,3.24,6.64,1.25,1.87,2.59,3.28,3.63,4.34-1.4-1.01-2.65-2.2-3.75-3.51-1.1-1.31-2-2.73-2.77-4.15-.37-.71-.61-.83-.75-.92-.15-.07,.14,.61,.59,1.45,.83,1.77,1.87,3.49,3.15,5.05,.3,.4,.66,.77,1.01,1.14,.34,.38,.71,.73,1.09,1.07l.57,.52,.65,.5c.43,.35,.89,.61,1.35,.9,2.65,1.44-.23,.11-.85-.3-1.14-.65-2.28-1.53-3.23-2.42-.8-.67-2.11-2.33-1.37-1.21,.2,.33,1.23,1.44,1.88,2.01,.48,.39,.91,.77,1.43,1.15,.53,.38,1.07,.74,1.63,1.03,1.11,.62,2.26,1.08,3.42,1.43,2.32,.71,4.68,1.07,7.11,1.23,2.43,.14,2.74,.14,1.74,.33-1.64,.26-2.47,.33-1.84,.44,.61,.09,2.7,.26,6.6-.06,3.16-.27,6.29-.74,9.16-1.3,3.91-.76,6.8-1.81,9.86-2.92,2.23-.83,2.6-1.35,2.98-1.47,2.6-.83,.34,.25,1.5,0,.93-.21,2.46-.71,4.13-1.48,2.08-.96,4.19-2.04,5.7-2.9,2.43-1.4,3.8-1.99,5.47-2.61,.68-.27,1.92-.85,3.02-1.54,1.46-.9,1.23-.97,1.11-1.06-.12-.1-.31-.14-2.62,1.19-2.39,1.36-4.73,2.51-6.28,3-.76,.24-2.19,.77-1.13,.12,.76-.46,2.11-1.06,3.28-1.62,4.62-2.21,6.87-3.48,8.54-4.52,1.67-1.05,2.76-1.91,4.86-3.69,.17-.15,.34-.3,.47-.42,.57-.56,1.77-1.45,3.31-2.52,1.62-1.15,2.79-1.89,2.62-1.58-.54,1.02,3.36-1.96,5.88-4.19,3.27-2.78,5.71-5.63,7.09-8.08,2.97-3.65,4.03-6.89,4.13-9.3,0-.2,.04-.53,.08-.88l.03-1.09c.13-.29,.23-.52,.34-.7,.03-.05,.06,.14,.09,.32,.05,.38,.07,.87,.13,.8,.03-.03,.07-.18,.12-.52,.04-.31,.08-.71,.12-1.35,.1-1.58,.23-3.86,0-3.5-.24,.36-.23-1.61-.28-3.07-.05-1.47-.02-2.14,.23-3.54,.6-3.45,.68-5.37,.38-7.89-.11-.93-.26-1.45-.37-2.3-.12-.87-.22-1.94-.08-4.57,.16-3.02,.41-4.96,.68-5.7,.19-.55,.36-.3,.53-.4-.08,1.55-.2,3.23-.09,4.13,.23,1.92,.67-.21,1.01-.37,.12-.05,.17,1.85,.36-.79,.07-.94,.1-2.73,.06-3.22-.16-1.81-.19-3.96,.17-7.82-.49-1.01,.15-4.54,.32-7.08,.11-1.66,.21-3.46,.27-4.99,.05-1.45,.03-2.62,.04-3.92-.11,1.23-.24,2.46-.32,3.69-.31,4.49-.59,7.2-1.02,7.26-.43,.06-.43-2.15-.08-6.97,.26-3.58-.05-4.29,.1-7.26,.1-2.07-.32-2.39,.21-5.68,.3-1.83,.32-.37,.3,1.64-.03,4.16,.47,2.63,.81,2.54,.34-.1,.69-4.18,1.02-7.25-.08-.93-.01-1.78,.19-2.56,0-.34,.02-.82,.03-1.22,0-.4,0-.71,0-.72-.39-.06-.38-.05-.28-5.48,.02-.88-.18-.7-.17-1.57,.01-3.75-.23-6.78,.43-12.73,.12,2.36,.29,3.91,.74,1.89,.1-.46,.46-1.42,.16,1.03-.81,6.76-.25,6.24-.16,8.27,.34-3.93,.85-8.41,.71-11.62-.15-3.47,.15-4.01,.43-5.53,.13-.7,.29-1.78,.3-3.15,0-.95-.02-2.32-.09-2.1-1.06,3.56-.94-3.75-.84-10.07,.06-5.09,.06-4.97,.92-10.14Zm-1.1-10.75c.1-1.26,.29-2.03,.48-2.55-.01,.58,.02,1.14-.04,2.05-.12,1.75-.29,2.02-.36,1.92-.07-.1-.14-.71-.08-1.42Zm-62.59,175.43c1.46-.45,3.3-1.16,3.98-1.23,.55-.04-3.99,2.01-6.35,2.68-3.45,1.01-3.81,.74-3.88,.63-.19-.35,3.95-1.24,6.25-2.07Zm-20.36,4.34c1.37-.05,2.08-.06,2.38,.03-.43,.07-1.05,.2-1.25,.2-.68,0-1.3-.01-1.79-.07-.71-.08-.43-.12,.66-.16Zm7.19,.24c-1.14,.39-2.32,.77-3.51,1.09-.96-.02-2.7,0-4.12-.08-1.43-.09-2.54-.28-2.27-.46,3.49,.18,7.05-.43,10.36-.7-.16,.06-.29,.1-.46,.16Zm.21-.33c-.82-.18-3.89-.06-.53-.87,1.73,.04,3.98-.11,5.03-.04,.73,.06-2.1,.73-4.22,1.07-.08-.05-.1-.12-.28-.16Zm15.69-1.61c-1.76,.63-1.15,.83-5.04,1.67-3.88,.79-6.67,1.16-3.11-.12,1.25-.32,2.54-.67,3.74-1.04,2.17-.66,5.22-1.99,5.82-1.84,.39,.09,5.9-1.5-1.41,1.33Zm6.89-3.23c-1.87,.52-2.41,.45-3.04,.41-.63-.04-1.34-.03-3.57,.53-.83,.19-.43-.21,2.46-1.29,1.64-.62,3.48-1.27,3.39-1.07-.25,.6,2.78-.28,4.83-.8,.79-.21,.67,.1-1.7,1.22-.74,.14-1.54,.5-2.38,.99Zm34.06-21.33c-2.18,1.82-3.85,2.88-4.02,2.67-.21-.27,.76-1.32,2.96-3.55,.73-.74,1.82-1.69,2.17-1.88,1.17-.63-.33,1.4,1.47,.09-.08,.39-1.34,1.66-2.57,2.68Zm.67-3.99c.15-.21,1-1.07,1.49-1.61,.82-.86,1.8-1.98,1.5-1.43-.4,.75,.76-.42,1.03-.53-.88,1.13-1.84,2.21-2.82,3.27-.42,.13-2.14,1.55-1.2,.3Zm7.38-8.59c-.42,1.22-1.71,3.53-3.22,4.87,.9-1.22,1.36-2.09,1.4-2.38,.05-.53,1.16-2.19,2.12-4.51-.04,.6,.15,.79-.29,2.02Zm.31-2.14c-.15,.2-.28,.37-.44,.63-.63,.89-1.26,1.7-.53-.17,.3-.94-.04-.05,.27-.49,.3-.4,.74-1.4,.95-1.81,.11-.2,.18-.26,.18,0,0,.26-.09,.83-.42,1.85Zm6.49-36.88c-.11,.4-.2,.35-.3,.45,.11-1.18,.22-1.94,.32-1.83,.08,.1,.05,1.11-.02,1.37Zm3.6-73.84c-.09,1.43-.33,3.06-.51,4.36-.15,1.14-.24,.78-.27-.11-.07-2.18,.03-5.62-.21-6.45-.22-.74-.16-2.2,.11-5.32,.39-4.6,.45-1.52,.64-2.75,.33,.42,.44,6.83,.24,10.27Z"/><path class="cls-1" d="M121.38,226.92c-.17-3.26-.16-7.37,.06-9.44,.16-1.51,.46-.52,.7-.56-.23,5.01-.11,7.73,.03,8.83,.14,1.1,.31,.59,.61-.78,.04-2.09,.19-2.82,.38-.91,.33,2.91,.47,2.82,.59,.17,.06-1.1,.29-.67,.45-.84-.1,2.16-.13,4.3-.04,6.49,.03,.62,.08,1.64,.15,1.98,.26,1.36,.32,1.01,.34,.49,.05-1.36,.16-2.59,.27-4.19,.09-1.46-.09-4.25-.12-6.72-.05-2.66-.04-4.97-.35-4.28-.15,.34-.33,.59-.27-1.59,.07-2.18,.27-2.37,.41-2.58,.32-.46,.32-4.5,.62-5.88,.3-1.44,.62-3.48,.92-5.27-.02-2.91-.47,.27-.65-.39-.12-.46-.31-.9-.14-3.53,.34-5.1-.12-2.89-.26-3.59,.17-1.67,.41-3.11,.6-4.74,.21-1.62,.38-3.43,.39-5.83,.01-1.82,.34-4.89,.59-7.44,.68-6.63,.71-11.41,.09-10.86-.1,.08-.31,1.11-.47,2.02-.26,1.46-.27,2.62-.21,2.84,.18,.59-.21,4.76,.15,4.34,.29-.32-.08,2.88-.21,4.58-.2,2.25-.38,1.93-.47,1.64-.38-1.22-1,1.34-1.65,4.33,.28-4.82,.23-8.1,.2-10.78-.14,1.21-.28,2.46-.41,3.64-.18,1.68-.4,3.61-.52,2.9-.04-.26,.07-2.02,.15-3.17,.08-1.17,.25-2.42,.37-3.64-.31,1.5-.62,3.01-.89,4.52,.49-4,.7-9.04,1.2-11.35,.55-2.51,.98-2.28,1.46-3.09,.13-.21,.18,.27,.3,.15,.17-.17,.43-.98,.67-2.99,.18-1.53,.33-3.32,.35-4.24,.02-.94-.07-1.81-.23-1.25-1.05,3.66-.31-2.38,.18-6.18,.21-1.84,.48-3.27,.74-4.93,.24-1.5,.21-2.06,.12-2.13-.1-.08-.27,.37-.5,1.94-.24,1.69-.49,3.4-.72,5.07-.21,1.32-.44,2.34-.52,2.01-.19-.73-.08-2.82,.22-5.41,.29-2.59,.77-5.68,1.43-8.38,.24-1.01,.4-.32,.68-2.92,.07-.66-.14-.35-.25-.35-.6-.03-2.07,8.22-2.87,10.84-.65,1.99-.89,3.95-.81,6.52,.03,1.03,0,1.59-.37,3.35-.24,1.15-.5,2.1-.61,4.1-.11,2.06-.28,4-.46,5.85-.16,1.85-.35,3.62-.57,5.32-.44,3.41-1.02,6.56-1.52,9.71-.79,4.67-.88,6.01-.33,6.48,.51,.47,.03,6.83,.02,10.4,0,2.37-.44,2.96-.64,5.29-.11,1.28-.32,2.15-.48,3.21,.08,1.1,.1,2.86,.24,3.14,.14,.28,.38-.86,.58-1.41-.11,2.46-.21,4.93-.27,7.43l-.14,1.83,.18-.84c.06,.16,.19,.28,.18,.48-.12,4.09-.25,8.23,.26,12.41,.21,1.72,.25,2.79,.13,2.61-.27-.49-.39,2.16-.98-3.23-.27-3.34-.38-3.19-.54-2.81-.21,.54-.23,3.05,.09,5.8,.38,3.07,.67,3.04,.86,3.25,.25,.29,1.27,3.96,.97,1.41-.26-2.9,.35-.5,1.1,1.44,.57,1.43,.73,1.33,.58,.16-.17-1.17-.58-3.43-.91-6.39-.2-1.67-.33-3.27-.24-4.05Zm.91-48.79c.11-.86,.15-.62,.2-.27,.07,.53,.18,.75,.27,1.09-.27,1.92-.47,2.61-.58,1.83-.06-.4-.07-1.21,.11-2.64Zm.61,22.95c.05-.59,.13-1.43,.19-2.11,.03-.34,.06-.65,.08-.86,.02-.22,.04-.35,.05-.35,.32,.09,.62-1.44,.94-5.51,.18-2.55,.44-5.4,.75-5.79,.41-.5,.01,3.37-.05,5.93-.06,1.85,.09,1.79,.21,2.07-.09,3-.14,5.92-.6,9.03-.15,1.04-.32,3.35-.44,2.2-.18-1.79-.49-1.45-.9-.03-.4,1.43-.08-3.68-.24-4.58Z"/><path class="cls-1" d="M239.31,9.63c.07-.75,.25-1.97,.44-3.18,.35,0,.7-.01,1.04-.02,2.57-.04,6.76,.06,8.17-.15,1.14-.16-2.79-.38-1.57-.67,.59-.14-.71-.33-1.19-.5-.86-.03-1.6-.07-2.23-.11-.34-.02-.66-.05-.94-.07-.32-.03-.61-.05-.86-.08-1.02-.11-1.54-.24-1.48-.39-1.04,.01-1.87,.04-2.53,.07-.3,2.11-.27,2.92-.31,3.78-.01,.32-.05,.65-.1,.99l-.09,.51c-.03,.14-.06,.29-.09,.43-.13,.57-.3,1.16-.45,1.72-.31,1.11-.56,2.09-.35,2.58,.15,.35,.24,.96,.08,2.8-.33,3.81-1.17,8.74-2.08,13.87-.61,3.36-1.22,6.71-1.81,9.98-.42,2.41-1.03,4.74-1.27,7.08-.41,3.97,.52-1.36,.59-.67,.04,.35-.01,1.34-.12,2.34-.21,1.93-.54,4.2-.71,6.08-.23,2.38-.34,4.4,.12,2.87,.48-1.57,.81-4.52,.99-6.56,.27-3.07,.41-5.68,.63-8.4,.1-1.28,.17-2.45,.59-4.36,.34-1.58,.61-2.45,.75-2.44,.1,0,.08,.73,.1,1.18,.08,1.59,.26,1.69,1.08-4.06,.49-3.28,1.11-6.77,1.65-7.47,.4-.52,.66-3.06,.91-4.76,.24-1.65,.37-2.97,.05-2.1-.18,.49-.44,1.49-.67,2.44-.38,1.56-.93,4.22-.88,2.77,.04-1.19,.53-4.04,.94-5.76,.49-2.1,.82-3.83,1.06-5.39,.24-1.54,.41-3.02,.53-4.36Z"/><path class="cls-1" d="M131.08,136.7c.63-4.6,.59-6.52,.69-8.73,.09-2.49,.14-2.71,1.43-7.23,.41-1.68,.49-1.75,.2,.11,.34-.63,.92-2.26-.11,2.81,.68-1.28,.93,0,2.06-3.95,.11,.15,.24,.23,.35,.38,.12,.15,.31,.05,.66-1.44,.52-2.12,.76-3.85,.91-5.28,.23-2.28,.46-3.95,.8-5.56,.35-1.6,.84-3.14,1.56-5.16,.32-.91,.51-1.02,.99-2.97,.28-1.14,.59-2.5,.78-3.51,.26-1.25,.2-1.49-.09-.73-.35,.89-.67,1.79-1.05,3.05-1.36,4.54-2.39,7.46-3.12,8.93-.71,1.48-1.16,1.51-1.37,.27-.06-.36-.26-.14-.37-.27-.39-.41-1.17,3.14-2.03,7.31-.04,.65,.29-.09-.18,2.1-.05,.25-.25,.36-.38,.54-.41,2.48-1.81,7.02-1.35,7.87-.74,4.13-1.2,4.58-1.77,7.27,.25,.54,.76-.3,.66,2.05-.12,2.82,.38,2.07,.74,2.15Z"/><path class="cls-1" d="M137.94,103.75c.85-2.06,1.66-4.4,2.99-9.71,.6-3.07,1.2-6.13,1.79-9.19l1.95-9.16c-.81,2.43-.99,2.56-.33-.39-.19-.08-.34-.33-.59-.18-.11,.07-.41,.72-.81,2.35-.17,.71-.36,1.57-.37,1.84-.03,.47,0,.75,.11,.74,.38-.04,.32,.69-1.12,5.49-.67,2.29-1.47,5.57-1.68,7.43-1.45,4.16-1.09,.81-1.76,1.7-.14,.19-.32,.72-.49,1.62-.13,.7-.34,1.89-.3,1.81,.95-1.78,.55,1.63,.06,5.39-.24,1.85,.06,1.43,.54,.24Z"/><path class="cls-1" d="M33.72,206.43c-.1,.11-.29,.95-.32,1.49-.09,1.9,.08,3.66,.17,3.39,.52-1.4,.43,1.7,.4,6.01,0,.91,.14,1.88,.22,2.83,.14-3.97,.48-5.05,.84-4.37,.28,.53,.38-1.07,.37-4.37,0-.78,.01-1.62,.04-2.48,.04-.86,.08-1.73,.12-2.56,.08-1.48,0-4.13,.02-6.37,0-2.24-.04-4.07-.15-3.9-.32,.54-.73,2.47-1.03,6.54-.2,3.1-.44,3.51-.68,3.8Z"/><path class="cls-1" d="M46.44,295.09c-.17-.08-.26,.15-.95-1.39-.8-1.77-1.14-2.93-1.22-3.5-1.43-3.24-2.43-5.44-2.82-5.5-.18-.03-.4-.03-1.25-2.06-.28-.25-.68-.47,.74,3.18,.59,1.53,1.11,2.82,1.62,4.01,.53,1.19,1.12,2.25,1.71,3.37,2.27,4.23,.7,1.95,1.18,3.14,.36,.98,1.01,2.13,1.53,3.23,.16-.41,1.23,1.12,2.69,3.45,.56,.89,.94,1.29,.91,1.1-.01-.1-.11-.35-.32-.77-.19-.43-.47-1.05-.86-1.86-.51-1.07-1.02-2.13-1.53-3.19l-.75-1.59c-.24-.53-.45-1.08-.68-1.62Z"/><path class="cls-1" d="M164.34,18.87c-.1,.27-.29,.82-.46,1.38-.07,.22-.13,.44-.18,.63-.05,.17-.08,.31-.09,.39-.05,.28,.16,.06,.29-.27,.36-.92,.69-1.79,1.01-2.63,.36-.92,.71-1.79,1.05-2.65,.36-.88,.71-1.75,1.05-2.6-.82-.26-1.64-.51-2.47-.78-.87-.26-1.75-.53-2.67-.8-.9-.26-1.83-.52-2.81-.8-1.31-.37-2.78-.74-4.49-1.11-3.27-.86-5.87-1.52-8.31-2.06-3.12-.7-5.57-.97-5.36-.65,.17,.32,2.88,.86,5.51,1.55,3.63,.88,7.28,1.76,10.92,2.64,2.32,.6,4.65,1.19,6.97,1.79l1.91,.51c.25,0,.09,.2,.05,.35l-.17,.47-.35,.94-1.4,3.71Z"/><path class="cls-1" d="M313.77,42.52c.05-1.95-.07-2.75,.09-5.51,.43-7.62,.4-7.56-.51-3.48-.26,1.15-.49,2.4-.67,2.11-.19-.31-.37,1.93-.5,3.55-.1,1.3-.13,2.69,.04,2.05,.78-3.05,.86,.24,.98,3.2,.03,.65,.1,1,.14,1.42,.12-.44,.22-.76,.31-1.08,.04-.76,.1-1.63,.12-2.27Z"/><path class="cls-1" d="M145.64,74.98c-.08,.79-.2,1.69,.41-.14,.56-1.71,.79-2.72,1.06-4.07,.42-2.07,1.02-4.57,1.13-5.85,.22-2.38-.72-.42-2.5,5.41-.48,1.55-.93,3.2-1.36,4.81l.34,.37c1.04-2.99,1.07-2.08,.92-.54Z"/><path class="cls-1" d="M150.2,50.04c.25-.56,.96-2.88,.79-2.53-1.54,3.22,.51-2.76,.93-4.47,.46-1.91,.47-2.41-.23-1.25-.29,.49-.39,.3-.55,.34-.23,.06-.77,1.18-1.47,3.38-.71,2.23-.8,3.24-.74,3.56,.15,.76,1.26-1.54,.41,2.35,.32-.5,.51-.63,.86-1.39Z"/><path class="cls-1" d="M312.02,54.7c.09-2.51,.06-4.52-.26-3.53-.44,1.39-.95,3.73-1.44,6.21-.28,1.39-.33,3.55-.24,3.84,.15,.48,.41-.13,.43,1.68,.09,0,.19,.08,.3-.04,.46-.46,.77-6.84,1.22-8.16Z"/><path class="cls-1" d="M229.61,83.77c.33,.44,.68,.72,.9,2.37,.23,1.73,.69-1.52,1.17-4.86,.2-1.55,.39-6.14,.23-5.26-.99,5.44-1.16,.52-2.05,5.25-.08,.83-.17,1.67-.25,2.51Z"/><path class="cls-1" d="M152.99,47.91c.25,.29,.3,.49,.42,.44,.16-.06,.39-.28,1.07-2.36,.41-1.26,.55-1.98,.64-2.57,.08-.55,.35-1.6,.41-2.08,.19-1.58,0-1.93-1.27,1.19-.19,.46-.56,1.53-.7,2.05-.52,1.84-.66,2.65-.68,3.02-.01,.37,.1,.28,.11,.31Z"/><path class="cls-1" d="M230.61,72.53c-.2,2.82,0,3.21,.4,.96,.52-2.89,.99-7.47,1.6-9.76,.23-.86,.26-2.02,.24-2.87-.27,.75-.56,1.47-.87,2.48-.58,1.8-1.04,4.99-1.36,9.2Z"/><path class="cls-1" d="M316.07,14.69c-.17-.21-.17-1.62-.17-3.03,0-.18,0-.35,0-.52v-.39c-.02-.24-.04-.46-.05-.64-.04-.37-.09-.6-.18-.61-.02,.44-.04,.87-.06,1.29-.04,.61-.07,1.21-.11,1.83-.09,1.33-.22,2.71-.47,4.27-.36,2.26-.44,4.2-.2,4.16,.14-.03,.31-.52,.38,.29,.09,1.16,.31,.29,.61-2.32,.21-1.84,.36-4.21,.25-4.35Z"/><path class="cls-1" d="M155.4,48.32c.33-1.84,1.17-4.48,2.14-7.42,.48-1.49,1.26-3.7,1.25-4.07,0-.23-.83,1.79-1.23,2.71-.42,.93-1.29,3.09-1.25,3.43,.14,1.33-1.68,5.75-2.43,8.5-.44,1.63-.84,3.13-.59,2.87,.21-.22,.61-1.13,1.18-2.8,.42-1.27,.82-2.53,.93-3.2Z"/><path class="cls-1" d="M300.41,257.15c-.1-.55-.2-1.19-.3-1.64-.25-1.19-.49-2.1-.55-.85-.02,.52,.07,2.15,.17,3.21,.3,3.12,.64,3.99,.87,4.2,.08,.07,.15,.07,.23,.11,.13-.22,.39,.5,.36-.99-.29-1.34-.55-2.68-.78-4.03Z"/><path class="cls-1" d="M230.65,53.75c-.33-.64-.99,3.37-1.46,5.34-.27,1.18-.16,2.25-.14,2.91,.04,1.6,.56-1.48,.85-2.38,.17-.53,.41-.74,.66-3.25,.16-1.58,.17-2.55,.09-2.61Z"/><path class="cls-1" d="M127.53,160.55c-.26,2.51-.06,2.54,.1,2.51,.19-.03,0,2.97,.55,.07,.14-.77,.37-2.64,.43-3.5,.13-1.87-.08-1.77-.23-2.27-.13,.29-.3,.58-.51,1.22-.08,.25-.29,1.44-.34,1.96Z"/><path class="cls-1" d="M36.73,244.93c.25,.37,.48-.93,.33-1.99-.35-2.6-.89-5.31-.99-5.07-.23,.41-.15,2.79-.21,4.36l.87,2.7Z"/><path class="cls-1" d="M64.77,58.68c.76-2.59,1.36-4.98,1.75-6.88,.15-.74,.08-.93,.02-1.08-.01-.03-.39,1.2-.44,1.36-.7,2.54-1.27,4.59-1.83,6.62-.56,2.06-1.7,5.56-1.41,5.65,.21,.06,1.18-3.19,1.91-5.67Z"/><path class="cls-1" d="M235.12,15.25c-.19,.35-.43,1.63-.62,2.66-.88,4.73-1.17,7.84-.81,8.03,.05,.02,.25-.84,.38-1.3,.35-3.13,.7-6.26,1.05-9.39Z"/><path class="cls-1" d="M133.06,112.5c.06-.76-.2-.1-.49,1.1-.34,1.44-.44,2.43-.38,2.6,.17,.51,.4,.72,.61,1.04,.18-.84,.37-1.69,.53-2.43,.99-5.44-.43-.47-.28-2.32Z"/><path class="cls-1" d="M33.57,176.02c-.16-.06-.28-.37-.49-.06-.17,.27-.53,1.57-.75,3.27-.21,1.75-.06,1.93,.05,2.11,.14,.23,.28,.34,.46-.34,.18-.67,.37-2.12,.72-4.99Z"/><path class="cls-1" d="M121.92,242.99c-.4-.83-.56-1.06-.34-.37,.17,.54,.4,1.22,.67,1.87,.81,1.8,1.43,2.62,1.97,3.3,.26,.35,.54,.65,.86,1.01,.31,.37,.67,.79,1.17,1.34,.34,.4,.78,.88,1.27,1.33,.46,.48,.99,.91,1.43,1.27,.42,.36,.85,.64,1.09,.77,.23,.12,.26,.09,0-.17-.11-.11-.25-.23-.42-.37-.15-.13-.31-.28-.49-.44-.36-.32-.82-.67-1.25-1.09-.44-.42-.93-.85-1.34-1.34-.44-.47-.86-.96-1.19-1.44-1.49-2.04-2.57-3.97-3.42-5.68Z"/><path class="cls-1" d="M131.74,246.51c.14-.01-.28-.61-.92-1.42-.93-1.2-1.44-2.02-1.93-2.71-.47-.7-.89-1.31-1.35-2.27-.45-.94,.33,1.1,.66,1.78,1.23,2.66,3.1,4.67,3.54,4.62Z"/><path class="cls-1" d="M303.3,266.37c-.12,.14-.53-.52,.01,2.47,.39,1.92,.63,2.04,.83,2.16,.12-.13,.44,.47-.18-2.52-.36-1.92-.52-2.23-.66-2.11Z"/><path class="cls-1" d="M163.27,25.47c.02,.14,.42-.76,.85-1.92,.2-.52,.4-1.1,.58-1.67,.22-.71,.43-1.4,.61-1.99,.47-1.55,.69-2.48,.43-2.01-.15,.28-.39,.82-.67,1.54-.14,.36-.29,.76-.46,1.2-.11,.3-.22,.62-.35,.95-.79,2.26-1.22,3.74-.99,3.9Z"/><path class="cls-1" d="M231.58,43.39c-.22,.24-.5,1.84-.77,3.6-.3,2.08-.33,3.05-.2,3.21,.13,.15,.38-.52,.67-2.65,.31-2.18,.45-3.82,.3-4.17Z"/><path class="cls-1" d="M71.91,26.64c.2-1.26-.07-1.09-.81,1.26-.58,1.83-1.21,3.97-1.71,6.05-.22,.93-.26,1.25,.08,.56,.29-.3,.88-2.84,1.41-4.61,.36-1.18,.7-1.22,1.03-3.27Z"/><path class="cls-1" d="M232.9,36.46c.03-1.32,.05-2.44,.07-3.63-.09,.21-.19,.42-.29,.63-.1,.73-.24,1.73-.26,2.14-.07,1.43-.11,2.74-.12,3.92,0,.3,.12,.23,.21-.18,.28-1.2,.37-2.28,.39-2.87Z"/><path class="cls-1" d="M229.9,99.3s.06-.32,.11-.73c.05-.41,.1-.89,.12-1.2,.19-2.93,.1-3.98-.1-4.28-.15,.55-.34,1.77-.37,2.77-.08,2.25,.03,3.36,.24,3.44Z"/><path class="cls-1" d="M136.5,103.76c.35-1.52,.08-1.36-.03-1.48-.14-.15-.3-.23-.47-.26-.03,0-.15,.42-.24,.65-.08,.5-.24,1.3-.24,1.45,.01,.38,.1,.46,.14,.6,.1,0,.17,.02,.25,.02,.14,0,.27,.4,.59-.98Z"/><path class="cls-1" d="M97,8.67c.97-.53-.71,0-2.36,.6-1.75,.62-3.09,1.3-1.88,.98,.94-.25,1.05-.07,3.65-.99,2.13-.86-.09-.21,.6-.59Z"/><path class="cls-1" d="M279.48,329.62c1.46-.18-1.25,.48,1.89-.05,1.1-.2,2.05-.54,2.38-.73,.16-.09-1.14,0-1.94,.12-2.55,.37-1.76,.44-2.34,.67Z"/><path class="cls-1" d="M130.12,246.82c-.82-.93-1.42-1.73-1.58-1.77-.29-.08,.43,1.34,1.95,2.93,.38,.4,.98,.76,1.4,1.01-.14-.35-.33-.57-1.77-2.17Z"/><path class="cls-1" d="M275.79,4.74c1.23-.1,2.56-.23,.6-.35-.87-.05-2.28-.05-3.48-.07-.05,.07-.2,.13-.09,.2,.16,.1,.53,.2,.81,.3,.73-.02,1.67-.03,2.16-.07Z"/><path class="cls-1" d="M293.38,326.79c-.18,.25,1.01,.08,3.67-.89,.79-.31,1.57-.64,2.79-1.23-1.94,.71-3.74,1.22-5.52,1.64-.33,.17-.88,.4-.94,.48Z"/><path class="cls-1" d="M194.39,240.87c-.22,.29,.08,.28,1.79-.7,1.32-.75,2.08-1.34,2.35-1.62,.42-.45-.62,.1-2.02,.89-1.54,.85-1.74,1.11-2.13,1.43Z"/><path class="cls-1" d="M160.87,27.38c-.5,1.56-.92,3.01-.74,2.99,.02,0,.14-.31,.29-.71,.15-.4,.32-.88,.45-1.23,.53-1.55,1.13-3.19,1.02-3.46-.23,.3-.61,1.16-1.02,2.41Z"/><path class="cls-1" d="M143.03,91.08c.05,.4,.4-.82,.7-2.05,.27-1.11,.6-2.59,.68-3.17,.1-.79-.23,.08-.56,1.26-.51,1.83-.74,3.11-.81,3.96Z"/><path class="cls-1" d="M297.82,226.6c-.09-.67-.19-.86-.24,.7-.02,1.73,.09,2.32,.19,2.42,.09,.09,.17-.47,.27-.75-.08-.8-.14-1.72-.23-2.37Z"/><path class="cls-1" d="M143.04,71.24c-.18,.22-.42,1-.41,1.4,0,.47,.12,.54,.24,.59,.04,.02,.24-.57,.42-1.02,.19-1.34,0-1.29-.26-.97Z"/><path class="cls-1" d="M310.79,290.75c-.2-.38-.11,.45,.14,1.72,.32,1.72,.46,1.78,.6,1.96,.07-.16,.24-.03-.22-2.02-.17-.69-.4-1.47-.51-1.66Z"/><path class="cls-1" d="M236.86,38.33c.07,.14,.26-.28,.5-2.01,.16-1.17,.22-1.95,.12-1.95-.19,.41-.43,1.23-.61,2.47-.1,.7-.07,1.37,0,1.5Z"/><path class="cls-1" d="M143.05,257.86c-.63,.12,.51,.32,2.75,.26,1.31-.04,2.37-.2,2.44-.32,.04-.13-.71-.1-2.13-.09-1.67,.03-2.71,.08-3.05,.15Z"/><path class="cls-1" d="M118.75,204.41c-.1,.35-.19,1.15-.21,2.09-.03,1.18,0,2.05,.15,1.25,.07-.34,.15-1.36,.21-1.97,.04-1.39-.02-1.82-.15-1.37Z"/><path class="cls-1" d="M100.33,347.14c.11,.07,1.04,.27,1.63,.33,1.4,.18,2.54,.2,2.26,.06-.11-.06-1.08-.18-1.61-.28-1.57-.17-2.56-.27-2.28-.11Z"/><path class="cls-1" d="M152.17,58.21c-.08,.1-.45,1.14-.63,1.73-.37,1.22-.61,2.25-.37,1.88,.09-.15,.42-1.14,.61-1.66,.44-1.49,.59-2.21,.39-1.95Z"/><path class="cls-1" d="M132.38,111.03c-.07-.13-.22,.11-.33,.19-.42,2.15-.33,2.4-.39,3.19-.07,.85,.15,.19,.44-1.12,.3-1.39,.35-2.11,.28-2.25Z"/><path class="cls-1" d="M240.81,7.17c1.65-.03,1.72-.17,1.72-.31l-1.01-.13c-.49,.08-.98,.15-1.35,.23-.02,.3-.03,.53-.03,.75,0,.05,.1-.25,.19-.55,.19,.01,.37,.02,.48,.02Z"/><path class="cls-1" d="M40.51,138.04c-.2,.73-.46,1.6-.57,2.14-.12,.58-.17,1.19-.11,1.18,.1,0,.34-.88,.48-1.76,.1-.61,.14-1.04,.2-1.56Z"/><path class="cls-1" d="M36.88,183.97c.04,.11,.18-.5,.28-.79-.01-.53-.02-1.06-.03-1.48-.14,.43-.24,.72-.34,1.02,.03,.44,.03,1.08,.09,1.25Z"/><path class="cls-1" d="M136.43,89.99c-.09-.01-.29,.42-.44,.67-.06,.44-.2,1.2-.16,1.25,.07,.09,.25-.27,.42-.48,.09-.67,.23-1.43,.18-1.45Z"/><path class="cls-1" d="M302.77,130.02c-.05,.12-.14,.86-.22,1.31,.07,.25,.12,.62,.21,.68,.03,.02,.14-.77,.2-1.11,.04-1.24-.07-1.18-.19-.88Z"/><path class="cls-1" d="M315.89,44.81c-.16,2.02-.13,2.95,.01,3.03,.06,.03,.2-.37,.26-.91,.21-1.61,.13-2.1,.06-2.27-.09-.18-.22,.08-.33,.14,.14-2.15,.04-1.8-.18-.21l.18,.22Z"/><path class="cls-1" d="M201.47,234.39c-.07,.14-.3,.46,1.17-.58,.27-.19,.42-.45,.63-.67l-.84,.38c-.34,.3-.9,.77-.95,.87Z"/><path class="cls-1" d="M61.03,67.91c0-.18-.25,.38-.42,.91-.31,.96-.65,2.13-.98,3.23,.23-.52,.44-.92,.71-1.61,.3-.78,.66-1.95,.69-2.53Z"/><path class="cls-1" d="M301.35,145.63c-.06-.47-.21,.12-.34,1.62-.1,1.19-.17,2.48-.06,2.54,.04,.02,.17-.83,.25-1.28,.14-1.33,.21-2.44,.15-2.88Z"/><path class="cls-1" d="M280.86,10.13c.19,.12,1.46,.14,2.61,.08,.56-.03,.69-.11,1.01-.17-.32-.09-1.02-.12-1.98-.06-.65,.04-1.7,.11-1.64,.15Z"/><path class="cls-1" d="M134.66,100.6c-.07-.07-.17-.13-.5,1.39-.08,.37-.03,.62-.05,.98,.14-.35,.16,.13,.51-1.47,.09-.4,.09-.85,.04-.9Z"/><path class="cls-1" d="M267.49,4.14c-.1-.05-.77-.08-1.12-.12-1.36,.08-1.17,.19-1.06,.29,.04,.03,.62,.08,.76,.08,1.43-.04,1.64-.15,1.43-.25Z"/><path class="cls-1" d="M129.63,132.64c-.11-.1-.17-.57-.52,1.05-.07,.35-.29,2.43-.22,2.4,.19-.09,.48-2.05,.74-3.45Z"/><path class="cls-1" d="M298.42,184.74c.18-.97,.36-1.99,.53-2.9,.17-.9,.41-1.87,.45-3.51,.02-1-.16-1.2-.29-1.21-.25-.03-.55,2.57-.78,4.78-.37,3.49-.06,2.72,.07,2.95-.06,1.24-.15,2.55-.18,3.67-.02,.59,.03,1.29,.08,1.15,.17-.45,.23-1.75,.22-2.7-.01-.89-.07-1.5-.1-2.23Z"/><path class="cls-1" d="M195.93,239.02c.57-.22,1.68-.9,2.68-1.57,.49-.33,.82-.62,1.17-.89-.57,.24-1.67,.97-2.65,1.6-.49,.33-1.28,.89-1.2,.86Z"/><path class="cls-1" d="M298.02,195.46c-.08-.07-.19-.05-.26,1.47-.02,.38,.07,.64,.11,.96,.09-.19,.19,.08,.26-1.48,.02-.42-.05-.9-.11-.95Z"/><path class="cls-1" d="M265.75,8.36c.07,.1,.87,.18,2.27,.16,.51,0,.91-.08,1.58-.14-.95-.06-1.83-.11-2.7-.17-.4,.05-1.18,.1-1.15,.14Z"/><path class="cls-1" d="M311.17,48.25c-.09,.36-.18,.61-.27,1.11-.13,.68-.2,1.49-.17,1.95,.04,.7,.17,.07,.32-1.04l.12-2.02Z"/><path class="cls-1" d="M225.01,192.23c.05,.09,.14-.43,.22-.69,0-.55,.01-1.49-.02-1.57-.05-.1-.14,.44-.22,.72,0,.56-.01,1.47,.03,1.54Z"/><path class="cls-1" d="M299.31,199.88c-.11,2.34,.08,1.51,.17,1.87l.12-2.4c-.11,.16-.27,.29-.29,.53Z"/></svg>