<svg id="X1" xmlns="http://www.w3.org/2000/svg" viewBox="0 0 350 350"><path class="X" d="M99.62,133.88c.9,1.02,1.86,2.1,2.38,2.9-.88-.93-1.86-2-2.62-2.76-.84-.83-1.55-1.42,.26,.64,1.92,2.19,2.1,2.71,2.26,3.2,.11,.32-.04,.41,1.15,1.79,1.26,1.46,1.4,1.35,1.75,1.56,.59,.36,1.63,1.28,2.92,2.59,2.23,2.26,4.6,4.57,5.92,6.91,.6,1.05,2.65,3.35,4.32,5.25,1.02,1.61,2.82,3.59,4.72,5.58,3.61,3.78,3.67,3.84,4.75,5.86-2.94-3.61-5.82-6.55-8.7-9.61-.27-.16-.62-.3-.79-.49-1.25-1.44-.53-.87-.71-1.23-2.17-2.52-3.8-4.65-5.48-6.81-.62-.8-1.26-1.55-1.94-2.23-1.05-1.06-.94-.71-.93-.49,.01,.36,2.64,3.54,.91,2-1.37-1.22-3.53-3.33-1.68-.85,2.48,3.34,3.47,3.67,5.01,5.16,.59,.57,1.12,1.04,1.77,1.7,1.16,1.18,1.94,2.24,2.12,2.63,.22,.5,.45,1.11-.15,.6-2.82-2.43,.55,1.66,1.28,3.01,1.66,3.06,5.62,6.04,7.59,8.82,.09,.12,.8,.84,1.21,1.27-.38-.61-.99-1.47-1.08-1.77-.12-.37,.84,.56,1.83,1.63,.59,.63,1.13,1.21,1.63,1.75,.26,.27,.51,.52,.75,.77,.12,.12,.24,.24,.36,.36,.12,.12,.24,.24,.29,.29,.56,.51,1.12,.97,1.73,1.44l.03,.02c-.14,.45-.47,1-.82,1.5l-.27,.37-.32,.43c-.25,.34-.5,.65-.73,.93-.66,.79-.83,.68-1.95,2.34-.06,.31,.23,.2-.7,1.62-.53,.82-1.07,1.33-1.61,1.98,.74-1.16,1.48-2.33,2.22-3.49-.87,.91-1.66,2.11-2.33,3.64-1.41,2.66-2.58,5-3.58,7.15-.8,1.7-1.86,3.18-2.59,3.88-.28,.27-.37,.21-.48,.19-.15-.02-.23-.3-.91,.78-.67,1.05-.38,1.02-.48,1.41-.19,.79-.66,2.01-.7,2.57-.05,.75-.77,2.14-2.83,5.09-.59,.84-1.17,1.7-1.12,1.87,.05,.14,.71-.84,1.31-1.7,.4-.58,2.1-3.08,.77-.89-2.76,4.55-.91,2.5-1.91,4.49-.37,.74-.3,1.1-.92,1.48-1.03,.62-2.57,3.97-3.76,5.61-1.61,1.91-3.55,4.97-3.92,6.22-.52,1.81-2.01,4.3-4.56,8.31-1.45,2.28-1.6,2.93-1.42,3.08,.37,.29-1.33,2.99-3.09,5.81-.69,.09-.76-.87-.69-1.94,.07-1.11-2.16,1.41-.08-2.86,.71-2.03,4-7.56,3.81-8.43-.04-.19,.35-1.06-.39-.12-.74,.93-1.54,1.94-2.41,3.66-1.23,2.42-2.45,4.31-3.96,6.36-1.91,2.58-4.09,6.27-6.06,9.55-1.8,2.98-1.69,3.46-2.27,4.87-.67,1.67-1.77,2.3-2.82,4.58-1.14,2.49-2.33,4.48-4.05,6.99-.6,.87-1.23,2.42-1.56,3.3-.87,1.54-1.83,3.15-2.57,4.61-1.15,2.23-1.71,3.2-1.42,2.12,.17-.61,.02-.6-.71,.52-.9,1.4-1.29,2.4-1.68,3.28-.96,2.15-1.75,4.14-2.06,5.4-.5,2.1-1.62,4.09-3.89,7.6-.4,.61-.66,.89-1.07,1.51-2.11,3.14-6.72,12.52-6.84,13.76-.09,.84-.55,2.09-1.18,3.52-.16,.36-.33,.73-.51,1.11-.21,.44-.42,.89-.63,1.34-.53,1.12-1.08,2.27-1.62,3.41,.6-.98,1.33-2.38,2.08-3.82,.59-1.1,1.16-2.19,1.68-3.11,.55-.96,.95-1.27,.31,.05-1.76,3.61-.92,2.52-1.04,3.13-.1,.51-.06,.76-.07,1.09-.56,.96-1.22,2.18-1.73,3.01-.25,.4-.52,.86-.8,1.36l-.22,.38-.11,.2c-.02,.06-.13,.16-.03,.16,.25,.1,.5,.2,.75,.31,1.1,.43,2.28,.9,3.43,1.35,.61,.24,1.21,.47,1.79,.7,.55,.22,.91,.38,1.34,.56,.8,.35,1.47,.67,1.9,.94,4.61,1.31,6.73,2.38,10.04,3.56,1.16,.55,.56,.74,3.75,1.68,4.48,1.34,9.11,3.25,13.33,4.17,2.04,.42,3.49,.91,5.57,1.89,.38,.13,6.65,3.19,4.75,1.48-.24-.22,.49-.03,1.32,.18,.82,.23,1.74,.49,1.88,.38,.2-.15,2.22,.65,2.65,1.12,.45,.49,2.05,1.2,4.18,1.92,1.33,.46,2.31,.82,4.19,1.84,1.14,.6,2.25,1.29,3.42,1.93,1.17,.63,2.34,1.33,3.55,2.05,.61,.35,1.22,.71,1.84,1.07,.91,.57,1.84,1.14,2.78,1.73l2.96,1.83,.38,.23s.07,.06,.09,.04l.06-.09,.12-.19,.47-.76c.31-.51,.62-1.03,.94-1.55,.65-1.08,1.16-1.89,1.56-2.51l.52-.8c.15-.23,.29-.42,.35-.48,.31-.38,.44-.41,.58-.42,.36-.58,.73-1.17,1.09-1.75-.15-.18-.36-.22-.92,.4-.28,.31-.65,.78-1.15,1.47-.16,.23-.32,.48-.5,.74-.19,.29-.4,.6-.62,.93-.43,.66-.91,1.41-1.46,2.25-.31,.46-.59,.89-.85,1.29l-.39,.56c-.19-.09-.39-.26-.58-.39-.74-.54-1.45-1.05-2.22-1.61-.75-.54-1.54-1.1-2.49-1.73-.75-.46-1.64-.96-2.77-1.56-.62-.33-.79-.62-.47-.56,.33,.07,.88,.27,2.05,1,.42,.26,.84,.52,1.27,.78,.53,.34,1.06,.68,1.6,1.03,1.1,.7,2.24,1.4,3.36,2.03,1.14-2.02,2.21-3.91,3.31-5.87l.99-.24,1.15-1.86c2.13-4,2.36-4.35,3.52-5.35l2.27-3.77c.79-2.14,4.89-8.46,4.93-9.76,.01-.35,.81-1.95,1.87-3.69,1.42-2.33,1.54-2.09,1.7-1.95,.15,.13,.33,.24-.72,2.26,.22,.08-.53,1.69-.78,2.5-.79,2.6,.21,1.66,3.61-3.77,1.39-2.21,4.13-6.9,4.27-7.5,.43-2.01,2.6-5.02,3.9-7.41,1.48-2.76,3.97-6.82,4.27-8.03,.57-2.2,1.67-3.48,2.86-5.43,.8-1.31,1.67-2.8,2.53-4.28,.96-1.67,1.11-2.15,.76-1.88-.69,.52,.26-1.67,1.74-4.41,1.57-2.9,3.43-7.27,4.8-8.55,1.42-2.27,2.87-5.05,4.19-7.72,1.72-3.47,1.6-2.91,1.36-1.93-.1,.39,0,.45,.07,.53,.32,.31,2.1-3.23,3.27-5.29,1.38-2.45,.81-1.98,.92-2.48,.1-.45,.18-1.17,.73-2,.42-.63,.79-1.29,1.15-1.97l.15-.3,.05-.12,.09-.25c.12-.33,.27-.76,.44-.82,.11-.02,.22-.14,.29-.04,.08,.31,.11,.57,.08,.84-.02,.17-.04,.56,.01,.6,.03,.01,.16-.09,.21-.25,.07-.31,.11-.43,.2-.34,.04,.04,.09,.12,.13,.22l.06,.16,.03,.08s-.01,0,.03,.07l.12,.22c.52,.95,1.04,2.22,.8,1.94-2.31-2.67,.73,2.07,1.44,2.97,1.9,2.42,3.14,4.5,4.58,7,2.1,3.67,3.63,5.78,4.4,6.03,.29,.09,1.04,.97,2.28,2.85,1,1.51,1.13,1.92,1.19,2.28,.18,.95,1.66,2.85,2.01,2.98,.4,.15,.41-.01,1.6,2.05,.51,.87,.76,1.68,1.47,2.51,2.99,3.53,6.54,8.14,9.82,11.86,1.32,1.48,2.01,1.98,3.85,4.47,.39,.53,.72,.99,.97,1.35,.26,.37,.47,.66,.56,.84,.19,.36-.03,.31-.76-.3-.46-.4-.68-.55-.63-.37,.04,.18,.42,.71,1.29,1.7,.73,.86,1.35,1.48,2.02,2.16,.67,.67,1.34,1.33,2.01,2,1.32,1.34,2.68,2.68,3.93,4.13,.43,.49,.96,.81,.56,.23-.22-.32-.69-.87-.95-1.23-1.22-1.64-.65-1.47,.95,.09,2.01,1.96,.75,1.13,1.45,2.03,1.01,1.31,1.2,1.27,1.31,1.28,.81,.07,2.97,3.27,4.33,4.84,2.26,2.51,1.54,.65,3.06,2.55,3.52,4.18,3.76,3.86,4.38,4.1,.19,.05,.76,.5,1.68,1.49,.74,.8,1.02,1.26,.53,.9-1.81-1.34-1.19-.35,1.21,2.28-1.01-.4,.73,2.04-2.67-.81-.95-.82,.23,.69,1.65,2.15,.93,.96,1.9,1.94,2.81,2.78,.77,.71,1.5,1.39,2.17,2.02,.75,.69,1.42,1.29,2,1.8l.76,.66,.09,.08s.08-.04,.12-.06l.24-.13,.47-.27c.62-.35,1.25-.7,1.88-1.06,.62-.35,1.25-.7,1.88-1.05l.94-.52,.55-.33c1.39-.85,2.84-1.72,4.33-2.62,2.98-1.86,6.19-3.8,9.43-6.14,.19-.13,.23-.21,.31-.31-1.27,.77-2.39,1.38-2.4,1.22-.01-.23,1.76-1.3,2.77-1.94,1.43-.94,2.69-1.85,3.85-2.58,1.13-.78,2.12-1.47,2.99-2-.83,.74-1.68,1.47-2.54,2.16-.89,.64-1.8,1.25-2.71,1.83,.27,.09-1.12,1.52,3.25-1.69,1.64-1.34,3.31-2.53,4.82-4.12,2.66-2.61,5-5.43,7.92-8.48,1.04-1.14,2.48-3.22,2.53-3.58,.03-.36-1.35,1.17-2.36,2.57-3.24,4.21-4.2,4.82-4.58,4.58-.21-.12-1.75,1.16-1.59,.63,1.98-1.99,3.82-4.4,1.71-2.42-1.47,1.28-1.47,.79-1.72,.65-.27-.16-.76,.06-3.42,2.45-.06,.05,.33-.54,.53-.88,.54-.9,2.7-3.43,.87-1.98-.96,.76-1.83,1.62-2.72,2.44-.89,.82-1.67,1.76-2.54,2.55-.19,.18-.49,.45-.74,.65-2.36,1.93-3.27,1.85-5.46,3.58-1.75,1.23,.15,.58-2.86,2.66-.29,.18-.56,.38-.83,.53-.95,.55-1.79,1.05-2.54,1.53-.76,.46-1.44,.87-2.08,1.28-1.26,.82-2.36,1.55-3.59,2.32-3.27,2.06-4,2.36-4.68,2.15-.16-.05-.52,.01-.95,.13-.12,.09-.2-.08-.29-.19l-.29-.36-.6-.74c-.19-.24-.39-.48-.58-.72-.25-.29-.49-.58-.72-.86-.48-.57-.89-1.1-1.15-1.49-.23-.36-1.24-1.17-1.89-1.74-.87-.79-2.13-1.87-2.75-2.58-3.69-4.13-5.06-5.49-6.09-6.01-.31-.16-.85-.56-1.73-1.93-1.28-1.98-2.68-3.69-4.9-6.04-1.94-2.04-.63-.89-.07-.43,.72,.6,2.37,2.24,1.11,.59-1.28-1.69-2.01-2.07-2.88-2.86-1.02-.93-1.75-1.79-2.64-2.82-1.91-2.21-4.04-4.29-5.78-6.24-1.78-2.05-3.49-4.07-5.07-5.95-1.71-2.02-3.14-3.88-4.84-6.17-2.31-3.15-4.52-6.08-6.12-9.02-1.45-2.68-4.29-5.87-5.63-8.32-1.55-2.88-2.24-3.66-3.58-5.18-1.61-1.83-5.4-7.38-6.95-10-.52-.85-.4-.96-.49-1.3-.04-.17-.14-.4-.39-.8-.12-.2-.29-.45-.5-.76-.24-.34-.54-.75-.89-1.25-.74-1.02-1.16-1.9-1.69-3-.52-1.07-1.19-2.37-2.12-3.85-.31-.48-.58-.93-.82-1.37l-.06-.03s-.04,.06-.05,.09l-.11,.19-.2,.36c-.13,.23-.26,.44-.38,.65-.25,.4-.48,.76-.71,1.13-.46,.73-.94,1.5-1.48,2.63-.85,1.78-1,2.33-1,2.62,0,.29,.14,.34-.05,.98-.04,.13-.24,.53-.3,.71-.68,1.89-.64,1.84,.94-.62-.21,.62,.17,.44-.67,1.86-1.45,2.45-2.72,4.39-4.26,7.69-.73,1.57-1.59,2.93-1.63,2.75-.15-.69-1.97,2.52-3.2,4.85-2.71,5.13-5.2,7.92-8.01,14.39-.08,.19-.95,1.58-1.25,1.99-.95,1.26-2.11,3.38-3.33,5.64-1.36,2.54-2.63,4.77-4.02,6.94-1.94,3.04-5.21,9.47-4.57,9.06,1.54-.97-1.49,4.09-3.68,8.04-1.33,2.39-2.47,4.73-3.98,7.16-.08-.84-1.12,.33-3.97,5.12-1.68,2.8-3.23,5.34-4.47,6.76-1.32,1.52-2.49,3.78-2.54,4.42-.06,.8-.82,2.53-2.07,5-.66,1.29-1.39,2.29-1.96,3.01-.55,.69-1.07,1.37-.6,.29,.7-1.61,.66-2.01,.17-1.28-.8,1.17-1.12,1.77-1.26,2.13-.14,.36-.12,.51-.14,.65-.11,.45-.4,1.1-.77,1.86-.19,.39-.4,.79-.61,1.2-.02,.08-.07,.05-.11,.02l-.14-.07-.28-.14-.57-.28c-.6-.3-1.22-.61-1.81-.91-.71-.35-1.56-.73-2.26-1.04-1.62-.7-.61,.36-3.12-1.03-3.89-2.06,1.55,.16-1.09-1.44-.68-.41,.25-.21-.35-.62-1.44-1.02-2.98-1.62-4.56-2.22-1.57-.63-3.23-1.16-4.97-2.06-.98-.52-2.12-.74-2.17-.6-.01,.06,.34,.28,.79,.51,.74,.38,1.67,.82,2.57,1.24,1.94,.9,2.32,1.27,1.6,1.14-.97-.16-3.05-1.22-4.33-1.77-3.34-1.35-5-2.42-8.49-3.76-5.71-2.17-7.54-2.97-5.53-2.85,1.36,.1-.19-.8,1.44-.57,.07,.01-1.33-.61-2.18-.91-.93-.33-2.42-.77-2.03-.52,1.22,.77-.47,.49-1.94,.29,1.22,.47,1.55,.7,1.82,.94,1.27,1.14,1.72,1.84-6.99-.76-1.13-.34-2.24-.51-1.43-.09,.49,.25,1.49,.64,2.5,.91,2.75,.72,5.39,1.65,8.06,2.61,2.73,1.03,2.36,1.14,2.02,1.24-.5,.14-2.23-.62-3.71-1.16-4.65-1.74-6.97-2.14-8.9-2.36-.91-.1-2.22-.47-2.08-.67,.3-.43-2.63-1.41-6.43-2.59-3.38-1.05-6.75-2.19-10.07-3.18-2.02-.61-3.03-.97-3.46-1.2-.48-.24-.31-.31,0-.34,.64-.08,1.97,.06,3.2,.18,.73,.07,1.99,.43,3.38,.96,1.66,.63,3.29,1.13,4.13,1.15,.61,.02,1.34,.01,0-.53-2.72-1.09-5.73-2.29-9.73-3.46-.51-.15-1.11-.33-1.7-.5-.56-.16-1.11-.32-1.59-.44-.24-.06-.46-.1-.65-.14-.09-.02-.2-.02-.24-.04,0-.04,0-.07-.02-.09-.03-.04-.09-.02-.2,.08-.05,.05-.12,.11-.19,.2,0,.05,.06,.1,.12,.16,.05,.04-.03,.06-.22,.05h-.16s-.18,0-.13-.07c.02-.09,.04-.2,.08-.33,.15-.53,.5-1.42,1.02-2.43,.49-.95,.52-.83,.48-.55-.04,.29-.14,.72,0,.57,.84-.84,.91-.29,.47,1.42-.14,.54,.04,.35,.28-.05,.25-.4,.57-1.01,.81-1.48,.11,.02,.26-.05,.42-.16,.08-.05,.16-.12,.24-.19,.02-.02,.04-.03,.06-.06l.11-.15,.23-.33c.61-.93,1.35-2.05,1.95-2.96,1.98-2.81,2.29-3.31,4.2-8,.87-2.2,1.92-4.74,3.05-6.74,1.51-2.6,.98-3.16,2.67-5.41,1.58-2.11,1.57-3.5,2.99-5.78,.52-.83,1.34-2.4,1.92-3.19,2.2-3.04,4.01-6.45,5.79-10.26,.28-.62,.9-1.75,1.36-2.55,4.01-6.82,4.16-6.94,5.48-10.63,.12-.33,.23-.62,.36-.98,.6-1.51,1.6-3.03,2.73-4.66,2.06-2.95-.3,.9-.37,1.24-.09,.43-.27,.97,.41,.07,.86-1.14,1.3-2.08,1.72-3,.97-2.1,1.72-3.15,2.28-3.54,.28-.2,.27,.1,.62-.23,1.01-.96,2.1-2.72,3.26-5.33,.37-.83,.62-1.58,1.44-2.59,2.16-2.65,2.71-4.72,4.47-7.36,1.04-1.55,.69-1.56,1.1-2.39,1.04-2.09,1.91-2.41,2.62-3.83,1.62-3.25,2.07-3.17,2.98-4.41,2.26-3.08,2.46-3.45,2.57-4.67,.03-.31,.79-1.63,1.51-2.85,.58-.57,1.14-1.09,1.76-1.72,.43-.43,1.03-1.13,1.83-2.47,.32-.54,.52-1.16,.41-1.14-.52,.05,.62-1.69,2.14-3.8,.89-1.22,1.64-2.14,2.5-3.29,1.54-2.08,1.57-2.13,2.7-4.59,.3-.65,.8-1.5,1.33-2.28,.74-1.08,1.44-2.03,2.16-3.04,2.97-4.17,4.02-6.03,3.93-6.83-.06-.49-.18-.9,.05-1.83,.05-.2,.3-.7,.56-1.12,.11-.17,.35-.52,.48-.69,.15-.19,.27-.29,.32-.24,.16,.21,1.51-1.9,2.62-3.72-.23-.25-.46-.5-.67-.73-1.03-1.11-2.08-2.17-3.03-3.15-.34-.34-.67-.67-.99-.99-.3-.3-.58-.6-.82-.89-1.5-1.75-4.13-4.02-4.63-5.44-.35-1-3.13-3.99-4.65-5.57-2.68-2.78-5.27-5.14-5.66-6.73-.02-.07-.85-1.1-1.1-1.35-4.06-4.11-6.19-7.2-8.67-10.42-1.92-2.5-2.88-3.3-3.93-4.18-1.72-2.26-3.56-4.48-5.7-6.58-.01-.14-.08-.34-.78-1.12-.25-.28-.48-.42-.71-.62-2.76-2.96-.33,.28-1.37-.63-1.1-.97-2.62-2.47-2.91-2.39-.11,.04-.36-.09-.44-.03-.08,.07,.47,.94,.77,1.22,3.41,3.25,4.65,5.64,7.17,8.51Zm179.14,178.48c.76-.61,1.51-1.14,2.27-1.71-.58,.61-1.13,1.18-1.71,1.79-.58,.61-1.2,1.24-1.98,1.88-.42,.36-1.57,.92-1.98,1.06-.19-.06,.08-.39,.69-.91,.6-.54,1.6-1.19,2.71-2.11Zm-16.71,12.3c.23-.36,.79-.86,3.02-2.04,1.24-.68,2.2-1.01,2.09-.8-.25,.48-2.65,1.67-4.3,2.53-.27,.14-.55,.28-.83,.42,0-.04-.01-.06,.02-.11Zm-17.59-8.59c.14,.2,.3,.43,.45,.67-.53-.52-1.06-1.03-1.6-1.56-.02-.01-.27-.38-.24-.39,.1-.05,.57,.39,1.39,1.29Zm-83.34-29.22c.73-1.47,2.24-4.22,2.78-4.99,1.03-1.47-.31,1.32-.67,2.33-.25,.71,1.04-1.02-.72,2.05-1.28,2.21-2.02,2.71-3.98,6.86h-.3c.95-2.06,1.77-4,2.89-6.25Zm-7.29,13.66c.82-1.19,1.47-1.96,2-2.54,.61-.67-.56,1.39-1,2.28-1.36,2.78-1.1,1.7-1.51,2.22l.4-.8c.06-.14,.04-.16,.06-.24-.16,.35-.32,.71-.48,1.07-.75,1.18-1.04,1.44-1.04,1.14,0-.43,.53-1.62,1.57-3.13Zm-5.59,9.43c.31-.54,.99-1.47,1.1-1.49,.41-.11,.66,.09,.96,.18-.34,.59-.68,1.18-1.01,1.76-.2-.27-.18-.92-1.27,.4-.32,.38-.39,.24,.22-.84Zm-13.79,18.99c.34-.57,.7-1.09,1.05-1.63-.98,2.03-1.96,4.06-2.94,6.09-.19,.19-.38,.39-.6,.61-.04-.55,.64-2.03,2.48-5.07Zm-30.13,5.03c1.75,.62,3.27,1.24,4.58,1.84,1.3,.64,2.39,1.27,3.3,1.87l-3.67-1.63-3.72-1.54c-.4-.17-1.02-.51-1.15-.63-.11-.09,.27-.04,.66,.09Zm-47.53-27.99c.11-.42,.53-1.56,.68-1.84,.87-1.6,.48-.52,.33,.01-.15,.55-.36,1.2-.59,1.93-.6,.84-.58,.49-.42-.1Zm2.37-.05c-.56,.78-.22-.1,.39-1.45,.16-.07,1.02-1.57,.42-.09-.11,.28-.67,1.35-.81,1.54Zm3.88-8.18c-.11,.07-.35,.37-.27,.13,.08-.26,.45-1.09,.68-1.53,.46-.86,.55-.87,.25-.15-.21,.49-.44,1.04-.66,1.55Zm-.49-5.58c-.8,1.33-2.03,3.68-1.88,2.75,.02-.12,.47-1.02,.74-1.58,.94-1.64,1.91-3.33,1.86-2.68-.02,.21-.37,.93-.72,1.51Zm3.92-5.48c-1.17,2.2-1.27,1.98-1.53,2.03-.17-.27,.21-1.5,1.14-3.62,.77-.94,1.88-2.55,2.17-2.58,.19-.02-.68,2.08-1.78,4.17Zm4.48-6.4c-.04-.07-.09-.1-.08-.25,.02-.38-.23-.36,.87-2.39,.39-.73,.6-.94,.55-.7-.11,.61,.46,.16-1.34,3.34Zm7.84-8.07c-.52,.67-.85,1.12-1.11,1.42-.26,.31-.69,.85-.04-.41,.53-1.03,.94-1.56,1.07-1.59,.12-.02,.05,.29,.07,.58Zm12.46-28.97c-2.89,4.44-2.52,4.5-2.21,4.65,.1,.04,0,.22-1.17,1.89-.16,.22-.25,.28-.39,.5-1.31,2.08,.03,.93-1.5,3.04-1.27,1.79-1.91,2.87-2.74,4.57-.92,1.91-1.94,3.81-3.37,6.12-2.74,4.62-3.34,5.38-2.47,3.02,.58-1.55,1.01-2.94,3.05-6.48,1.02-1.75,.98-1.89,.5-1.41-.36,.37-.05-.59,.65-1.38,1.54-1.72,3.45-5.18,5.37-8.23,1.32-2.1,2.64-4.21,3.94-6.28,.28-.43,.66-.9,.73-.9,.06-.01-.29,.78-.38,.91Zm4.56-1.05c-.12,.06-.25,.16-.35,.19-.14,.05-.26,.07-.38,.09,.36-.44,.8-1.04,.94-1.12,.14-.08-.12,.53-.21,.83Zm13.02-21.7c-.43,.56-.84,1.03-1.31,1.72-3.95,5.89-1.04,1.07-.19-.54,.47-.45,.86-1.05,1.15-1.8,1.48-1.94,2.11-2.54,.35,.62Zm1.34-3.77c-2.05,2.83-1.69,2.76-1.71,3.15l-1.11,1.75c-.12-.52,0-1.38,2.95-5.75,.55-.82,1.19-1.7,1.07-1.26-.1,.35-.57,1.24-1.2,2.11Zm20.68-44.85c.37,.46,.68,.92,.83,1.22,.14,.29,.18,.48,.13,.54-.05,.06-.16,0-.31-.13-.07-.07-.15-.14-.25-.25l-.37-.42c-.53-.61-1.14-1.37-1.59-1.84-3.83-4.02-1.68-2.1-1.02-1.64,1.14,1.24,1.57,1.26,2.57,2.52Z"/><path class="cls-1" d="M305.97,262.36c.38,.18,.06-.47-.83-1.72-1.31-1.86-1.1-1.95,.93,.48,2.74,3.36,3.31,3.53,4.86,5.09,1.79,1.8,1.33,1.15-.04-.71-.74-1.03-1.41-1.96-2.1-2.92-.08-.11-1.87-2.53-3.68-4.91-.91-1.19-1.81-2.38-2.49-3.27-.69-.89-1.15-1.49-1.17-1.52-.5-.49-1.12-1.12-1.44-1.37-.45-.35-4.7-4.79-5.48-5.67-1.74-1.97-2.75-3.61-4.6-5.57-1.08-1.14-1.33-1.6-1.08-1.48,1.39,.67-1.29-2.08-2.71-3.52-1.3-1.31-2.13-2.03-3.03-3.52-1.84-2.42-3.56-4.91-5.84-6.94-2.03-2.62-3.37-4.8-6.12-7.95-.65-.75-1.57-1.88-1.88-2.16-1.91-1.67-4.64-5.35-7-8.24-.59-1.85-.56-1.73-4.31-6.53-1.42-1.87-2.26-2.8-3.16-3.79-.89-1-1.87-2.04-3.37-4.26-1.44-2.1-2.49-3.6-3.09-4.54-.59-.96-.73-1.36-.43-1.26,.86,.27-.62-1.78-2.5-4.75-1.63-2.56-3.11-5.21-4.67-7.81-.77-1.31-1.47-2.65-2.21-3.98l-1.59-2.91c2.12-3.79,4.23-7.58,6.34-11.35,4.44-7.92,5.82-10.65,5.73-12.3-.04-.82,1.56-3.52,2.55-5.54,.56-1.14,1.25-2.53,1.91-3.43,1.14-1.58,.87-.63,.39,.7-.06,.17-.22,.5-.27,.66-.62,1.9,.53,.61,2.65-3.11,.99-1.72,1.95-3.62,2.95-5.43,1.73-3.15,1.18-2.67,.59-1.95-.67,.83-2.38,3.81-2.22,2.87,.87-1.69,1.78-3.77,2.67-4.93,1.43-1.87,2.45-4.32,3.64-6.37l-.21-.48c.35-.62,.69-1.23,1.04-1.85,.52-.52,1.22-1.45,2.36-3.36,1.05-.86,1.06-.88,2.88-4.51,1.89-3.77,2.59-4.89,3.96-6.36,.23-.24,.16,.5,1.06-1.51,1.66-3.7,3.15-6.06,5.07-9,1.68-2.57,4.61-8.27,4.98-9.55,.04-.13,.78-1.81,1.51-3.47,.36-.83,.72-1.65,.99-2.27l.31-.75c.07-.18,.11-.29,.1-.3-.42-.37,3.19-6.27,3.57-7.85,.1-.43,3.14-5.75,.63-2.12-.15,.21-.11-.15,0-.37,1.6-3.05,3.2-6.23,4.85-9.14,1.15-2.04,.96-1,1.13-.9,.18,.07,.68-.53,1.91-2.57,.23-.38,.45-.73,.63-1.02-2.27-1.8-2.46-2.32-4.22-3.83-1.19-1.07-4.79-3.34-4.78-3.83,.02-.61-3.55-2.59-5.47-3.9-3.09-2.09-2.44-1.31-2.73-1.28-.28,.03-.16,.31-.21,.49,2.45,1.71,3.3,2.56,3.02,2.73,.89,.55,2.33,1.41,2.47,1.55,2.16,1.96,1.82,2.3,1.78,2.86-.04,.55-3.27-2.04-4.39-2.56-.56-.26-1.44-.75-1.58-.73-.41,.06-1.37-.35-4.08-2.08-.84-.54-1.14-.64-.6-.24,.7,.51,2.19,1.49,2.21,1.57,.14,.37-1.49-.86-2.29-1.33-.81-.47-2.27-1.38-2.46-1.43-.5-.14,.55,.64,1.55,1.35,1.99,1.42,4.6,3.1,6.37,4.36,3.1,2.2,4.14,3.25,3.95,2.33-.11-.49,1.66,.48,4.16,2.66,.27,.23,.57,.46,.89,.69,.23,.17,.4,.28,.62,.41,.42,.25,.88,.49,1.28,.7,.31,.16,.55,.25,.8,.36-.03,.24-.09,.52-.43,1.21-.17,.56-.42,1.05-.75,1.35-1.67,2.72-1.25,1.23-2.38,2.82-1.54,2.18-2.76,5.18-3.9,6.83-2.71,3.92-2.49,4.44-2.63,5.29-.11,.64,1.07-.8-.6,2.32-1.33,2.49-2.04,3.07-3.1,4.69-.83,1.26-1.22,1.62-1.58,1.91-.79,.63-3.37,4.59-4.08,5.97-1.76,3.42-3.2,5.78-4.83,8.51-.24,.39-.69,1.34-.79,1.61-.6,1.75-.32,1.94,.68,.83,2.19-4.7,2.06-3.28,2.99-4.66,.8-1.52,1.84-3.64,2.34-4.41,1.26-1.93,.09,.37-.33,1.39-.45,1.08-1.01,2.68-.94,2.57,2.08-3.2,1.54-1.49,1.68-1.07,.02,.06,.48-.64,.78-1.1,.38-.58,.59-1.05,.66-1.37,.17-.74-.58-.05,1.12-3.21,1.63-3.05,1.98-2.96,2.95-4.4,.8-1.18,1.66-2.66,2.52-4.1,.27-.45,.55-.79,.66-.87,.05-.04-.36,.87-.52,1.14-3.37,5.69-5.59,10.83-8.92,16.6-1.95,3.38-3.75,6.71-3.16,4.49,.11-.42-.67,.69-.98,1.32-1.97,3.98-5.79,9.85-6.27,12.3-.09,.47-.56,1.59-1.35,2.79-2.93,4.45-5.68,9.17-8.29,14.63-.31,.64-.55,1.06-.73,1.19-.44,.3,.2-1.18,.58-2.24,.57-1.59,1.33-2.51,2.02-3.56,.41-.62,.74-1.2,.82-1.47,.06-.23,0-.3-.14-.15-.37,.38-1.04,1.39-1.75,2.62-1.42,2.46-3.01,5.14-4.21,7.45-1.44,2.78-2.27,3.07-3.86,6.62-.72,1.62-1.8,2.9-2.48,3.79-1,1.32,.17-1.04,.41-1.85,.45-1.46,3.41-6.26,2.96-6.37-.56-.13-3.04,5.28-4.42,7.08-1.28,1.68-2.73,4.4-2.55,4.98,.18,.58-.61,1.88-2.44,4.92-2.22,3.67-4.17,7.62-4.47,9.07-.22,1.07-1.78,4-2.04,4.92-.14,.52-.29,.94-.51,1.37-.24,.47-.6,1.04-1.12,1.75-.24,.33-.64,.93-.88,1.22,.07,.23,.05,.3-.16,0,.08-.22,.28-.66,.67-1.43l.96-1.81c.25-.47,.5-.94,.67-1.32,.45-.94-.02-.49-.26,0-.22,.43-.43,.82-.61,1.18-.26,.47-.5,.9-.71,1.29-.46,.81-.86,1.47-1.25,2.08,.36,.77,.66,1.48,1.01,2.3,.61,1.39,.79,1.95,.77,2.12-.02,.06-.13-.03-.36-.35-.16-.2-.73-1.13-1.51-2.44-.58-.98-.3-.13,.92,2.06,1.21,2.14,1.37,2.79,1.71,3.72,.21,.54,.25,.91,1.02,2.1,.72,1.08,1.42,2.07,1.34,1.61-.16-.95-.49-2.13-.59-3.03-.02-.23,.27,.07,.64,.56,.51,.67,1.01,1.65,1.33,2.34,1.43,3.13,1.98,4.06,2.15,3.29,.18-.74,.36-.28,3.21,4.5,3.52,5.25,7.2,10.56,10.46,15.56,1.23,1.88,2,3.43,3.52,5.6,2.52,3.6,2.01,1.8,4.33,4.77,.74,.95,1.51,1.75,2.27,2.62,.75,.66-.48-1.6,3.06,3.12,1.45,1.96,3.83,4.47,5.81,6.72,.48,.55,.27,.08,1.4,1.53,3.71,4.64,3.85,4.76,4.17,4.46,.1-.09-.39-.92,.71,.26,.97,1.05,1.7,2.06,2.41,3.01,.69,.94,1.48,1.95,1.61,2.35,.09,.25,.37,.72,.56,1.09,.36,.29,.95,.87,1.02,.83,.37-.26,3.05,2.1-.9-3.04-.42-.54,.39,.17,1.08,.93,3.73,4.06,2.81,4.29,6.21,8.11,.31,.35,.96,1.34,1,1.52,.05,.19-.32,.02-.74-.44-4.25-4.56-4.41-3.91-4.87-3.65-.24,.13-1.57-1.35-3.03-3.03,4.95,6.34,7.07,8.6,7.29,7.76,.03-.11-.55-.94,.11-.31,2.53,2.38,6.97,8.65,8.7,9.47,.51,.68,1.06,1.43,1.5,2.06,.61,.89,1.13,1.65,1.75,2.56,.5,.71,1.28,1.67,1.85,2.22,.5,.49,.86,.77,1.07,.86Zm-13.03-216.43c-.19-.18-.66-.58-.54-.54,.3,.08,1.02,.52,1.91,1.18,.22,.16,.54,.43,.51,.43-.26-.05-.95-.45-1.87-1.07Zm-36.45,82.61c.14-.25,.53-.66,.68-.75,.17-.1,.2,.03,.29,.08-.78,1.33-1.79,3.2-1.97,3.04-.1-.09,.26-1.01,1-2.37Zm-15.49,23.4c.28-.65,.65-1.27,.77-1.3,.06-.01-.12,.5-.34,.92-.22,.43-.61,1.05-.92,1.58,.16-.4,.29-.76,.49-1.2Zm-2.79,7.55c-.29,.13-1.34,1.5,.22-1.47,1.18-2.24,2.42-4.39,3.26-5.32,.37-.41,.98-1.29,1.41-1.81,1.12-1.34,.74-.24-1.36,3.41-1.04,1.82-1.82,3.05-2.54,4.67-.03,.06-.62,.95-.83,1.23-.67,.84-.4,.02-.17-.72Zm-2.89,9.96c-.64-1.19-.42-1.02-.3-.96,.08,.04,.42,.55,.64,.83l.12,.6c-.16-.16-.39-.33-.46-.47Zm13.81,21.4c.34-.04,1.21,.9,3.03,3.44-.34,.04-.37,.62-3.03-3.44Zm4.2,5.09c-.35-.5-.72-1.03-1.08-1.54,.25,.2,.42,.21,.81,.71,1.08,1.37,2.1,3.05,2.09,3.25-.01,.25-1.17-1.51-1.83-2.41Zm2.13,6.12c-.73-1.11-1.21-1.99-.7-1.54,.15,.13,.64,.79,.99,1.19,1.03,1.49,.78,1.39,.54,1.3-.16-.06-.48-.43-.83-.95Zm4.68,1.9l-.61-.88c-.19-.29-.34-.51-.33-.52,.12-.03,.8,.89,1.28,1.54,.55,.75,1.1,1.51,1.65,2.26-.5-.43-1.2-1.32-2-2.4Zm3.45,7.09l-.55-.72,.23-.03c1.53,2,2.51,2.55,4.35,5.19,.15,.21,.33,.52,.27,.47-1.05-.91-2.73-2.92-4.3-4.91Zm5.79,5.37c-.6-.71-1.2-1.44-1.8-2.15,0-.16-.13-.48,.03-.43,.47,.14,2.83,3.16,3.1,2.9,.55,.97,.85,1.41,.84,1.47-.05,.31-.11,.66-2.17-1.79Zm5.87,8.41s-.44-.72-.3-.61c.54,.43,1.45,1.5,2.35,2.62,.55,.69,.7,.94,.32,.64-.65-.73-1.49-1.67-2.36-2.65Zm27.86,32.36c-.72-.93-2.28-2.7-1.8-2.42,.58,.34,1.95,1.66,3.75,3.82,1.25,1.5,1.93,2.57,1.96,2.88,.03,.28-.86-.68-1.89-1.88-.68-.81-1.37-1.62-2.02-2.4Z"/><path class="cls-1" d="M230.37,26.53c.21-1.14,.73-2.5,1.72-4.42,.49-.96,1.11-2.06,1.86-3.34,.38-.64,.79-1.32,1.23-2.06,.41-.67,.85-1.38,1.32-2.14-.23-.99-.36-2.15-.45-3.37-.01-.16-.09-.26-1.07,1.25-.45,.7-1.04,1.71-1.38,2.33l-.39,.72-.27,.53-.54,1.06c-.36,.7-.71,1.4-1.09,2.13-.74,1.44-.11,1.26-2.06,4.04-.92,1.31,.38-1.27,.42-1.71,.03-.36,.74-1.76,.79-2.14,.06-.55,2.8-4.88,1.4-3.22-.51,.61-2.38,3.69-3.73,5.69-1.53,2.28-2.65,4.29-.95,2.21,.79-.97,.18,.19,0,.71-.26,.71-.56,1.55-1.65,3.23-.62,.95-1.31,1.8-1.38,1.59-.13-.36-1.31,1.74-2.15,3.04-.82,1.27-.32,1.05-1.99,3.44-2.11,3.02-5.99,10.4-4.9,9.32,1.59-1.58-.36,1.87-.89,3.32,.34-.41,.81-1.03,.99-1.15,.16-.11-.21,.54-.39,.71-.28,.29-.44,.37-.66,.54-2.09,3.13-1.97,3.5-2.23,4.33-.44,1.39-1.39,3.15-3.87,6.86-3.41,5.11-3.42,5.23-7.39,10.68-.52,.71-1.25,1.83-1.22,1.55,.02-.33,.83-1.4,1.27-2.15,2.2-3.66,4.51-7.27,6.82-10.91,1.42-2.24,3.51-5.37,1.04-2.37-.52,.63-4.77,5.89,.99-3.07,.26-.4,.56-1.32,.6-1.63,.1-.79,2.55-5.16,1.5-3.99-.99,1.1-3.57,5.45-5.55,8.29-2.29,3.28-6.08,10.37-5.87,10.85,.27,.64-.32,2.49-2.33,6.43-.6,1.18,.12,.76-1.48,3.08-.88,1.27,.15-.91,.1-1.2-.06-.27-.05-.74,.54-1.9,.91-1.8,.35-.93-.58,.49-.95,1.44-2.23,3.5-2.59,3.69-1.09,.58-2.71,3.4-4.09,6.11-1.25,2.46-2.11,3.89-3.55,5.55-.97,1.12-1.54,2.03-1.99,2.89l-.63,1.27c-.13,.3-.23,.54-.4,.83,.18-.1,.5-.43,.54-.32,.05,.16-.06,.58-.03,.76,.02,.09,.08,.11,.23-.02,.08-.06,.17-.17,.3-.32l.22-.27,.32-.42c2.32-3.18,1.99-3.63,3.23-5.69,.35-.58,.72-1.18,1.08-1.77,.28-.73,.68-1.3,1.16-1.81,4.22-5.94,4.34-6.09,2.67-2.45-.9,1.95-1.64,3.62-1.26,3.73,.56,.15,.28,.63-3.53,6.39l-.32-.29c-.8,1.11-1.19,1.51-.79,.64,.5-1.1,.81-1.93-.42-.14-2.08,3.03-3.53,5.06-3.8,4.69-.12-.14-.57,.39-1.08,1.07-1.1-1.4-2.54-3.04-2.66-3.54-.04-.14-.08-.27-.13-.4-.06-.13-.23-.37-.41-.6-.38-.48-.96-1.11-1.93-2.11-.87-.9-2.11-2.27-2.83-3.15-1.82-2.23-.09-.3,.58,.38,.57,.58,1.71,1.89,1.03,.88-1.04-1.53-7.36-8.7-7.84-8.87-1.2-.42-3.73-3.53-6.01-6.07-2.64-2.96-5.29-5.92-7.92-8.86-2.95-3.34-4.23-4.51-3.62-3.21,.37,.81-.62-.2-1.99-1.78-1.75-2.01-3.77-4.17-4.81-5.79-.84-1.31-3.24-4.12-2.95-4.39,.27-.26-2.19-3.05-3.92-4.99-1.87-2.11-2.09-1.94-2.39-1.96-.15-.01-.29,0-.62-.23-.17-.12-.89-.8-1.08-1.02-.95-1.14,.07-.19,0-.39-.34-.95-2.36-3.35-3.46-4.1-2.15-1.46-3.02-2.95-3.85-4.27-.85-1.36-1.22-2.24-2.96-3.32-1.1-.69-2.88-2.48-5.37-5.34-1.39-1.59-2.89-3.22-4.35-4.82l-1.29-1.4c-.21-.23-.4-.43-.54-.58-.14-.15-.23-.24-.24-.24-.23,.02,1.34,1.63,1.68,2.15,1.11,1.66,2.45,3.47,4.5,6.03,1.92,2.39,1.24,2.34,.71,2.31-3.25-3.2-6.47-6.32-9.89-10.67-.27-.35-.98-1.11-1.36-1.49-.62-.61-1.17-1.11-1.66-1.53-.06-.05,.38,.59,.71,.99,2.8,3.28,5.26,6.26,6.47,8.2-1.84-1.89-3.73-3.84-5.49-5.65-.44-.45-.67-.46-.81-.47-.14,0,.22,.44,.74,.96l5.72,7.02c1.33,1.67-.18,0-.54-.34-.62-.62-1.35-1.35-2.03-2.02-.53-.53-1.56-1.67-1.02-.86,.15,.23,.87,1.05,1.29,1.5,2.39,2.53,4.74,4.92,7.19,7.77,1.22,1.42,1.34,1.64,.7,1.19-2.1-1.49-2.04-1.43,2.02,3.12,1.64,1.84,3.26,3.75,4.75,5.54,2.03,2.43,3.8,4.14,5.64,6.03,1.34,1.37,1.89,1.46,2.09,1.7,1.4,1.72-.14,.38,.37,1.2,.41,.65,1.22,1.68,2.28,2.72,1.32,1.31,2.69,2.66,3.74,3.6,1.7,1.52,2.43,2.5,3.25,3.7,.34,.5,1.03,1.35,1.79,2.09,1,.97,1.02,.77,1.09,.64,.07-.12,.1-.32-1.4-1.88-1.55-1.62-2.98-3.19-3.69-4.32-.35-.56-1.09-1.56-.31-.9,.56,.47,1.34,1.4,2.03,2.2q5.47,6.37,8.99,9.23c.15,.12,.29,.23,.41,.32,.54,.38,1.41,1.24,2.43,2.39,1.08,1.22,1.74,2.14,1.46,2.05-.93-.31,1.78,2.62,3.51,4.68,2.21,2.65,4.19,4.78,5.88,6.18,2.24,2.89,3.91,4.52,5.32,5.56,.24,.17,.7,.62,1.05,.94,.06,.21,.14,.44,.16,.62,0,.05-.13-.04-.25-.13-.51-.37-1-.69,.37,.89,.86,1,2.13,2.43,2.09,2.06-.04-.38,1.12,.79,2.02,1.61,.46,.41,.78,.73,1.07,1.06,.14,.17,.28,.34,.42,.53,.17,.23,.35,.48,.57,.78,2.37,3.21,4.21,5.28,6,6.78l.43-.88c.57-1.21,.85-1.96,1.29-2.97,.46-1.04,1-2.18,2.53-4.61,1.39-2.2,2.35-3.46,2.88-3.89,.38-.31,.43-.05,.62-.03-.68,1.1-1.46,2.28-1.72,2.99-.56,1.52,.67,.18,1.02,.23,.13,.02-.59,1.44,.63-.4,.44-.66,1.17-1.96,1.33-2.34,.58-1.41,1.41-3.01,3.24-5.68-.03-.99,1.91-3.28,3.05-5.08,.75-1.17,1.54-2.46,2.17-3.56,.6-1.05,1.04-1.93,1.55-2.89-.57,.86-1.16,1.7-1.71,2.58-2.01,3.18-3.32,5.04-3.72,4.87-.4-.16,.47-1.8,2.64-5.2,1.61-2.52,1.61-3.2,2.89-5.33,.89-1.48,.64-1.92,2.38-4.11,.96-1.21,.42-.12-.37,1.36-1.63,3.06-.61,2.17-.28,2.27,.34,.09,2.22-2.76,3.69-4.87,.29-.73,.68-1.33,1.15-1.8,.27-.5,.79-1.4,.76-1.42q-.32-.23,1.88-4.18c.36-.64,.12-.6,.46-1.25,1.47-2.76,2.45-5.12,5.36-9.17-.83,1.8-1.29,3.02-.09,1.75,.27-.29,.96-.82-.26,.84-3.35,4.58-2.66,4.48-3.37,6.02,1.83-2.73,4.03-5.78,5.17-8.21,1.23-2.63,1.71-2.89,2.54-3.87,.38-.45,.95-1.17,1.5-2.19,.38-.7,.88-1.73,.74-1.6-2.31,2.12,.66-3.22,3.13-7.9,1.99-3.76,1.92-3.69,4.61-7.16Zm2.89-8.63c.54-.91,.97-1.4,1.33-1.72-.22,.45-.37,.88-.75,1.54-.73,1.27-.97,1.4-1,1.29-.03-.11,.13-.6,.43-1.11Zm-100.72,26.48c.84,.97,2,2.15,2.24,2.68,.19,.41-2.89-2.4-4.26-3.91-2.02-2.22-1.95-2.6-1.87-2.71,.24-.34,2.48,2.45,3.89,3.94Zm-12.02-12.8c.79,.85,1.14,1.33,1.23,1.58-.27-.24-.69-.58-.8-.71-.37-.44-.68-.86-.91-1.19-.35-.49-.14-.36,.48,.32Zm3.3,5.05c-.82-.59-1.64-1.19-2.46-1.79-.85-1.34-3.52-4.44-2.95-4.39,1.91,2.14,4.09,4.19,5.74,6.42l-.34-.23Zm.36-.04c-.19-.68-1.7-2.81,.49-.87,.74,1.27,1.77,2.85,2.1,3.69,.23,.58-1.4-1.21-2.59-2.53,0-.09,.06-.14,.01-.29Zm6.84,11.13c-1.06-1.1-1.02-.56-2.95-3.16-1.92-2.59-3.29-4.44-.92-2.43,.71,.79,1.43,1.61,2.13,2.36,1.27,1.36,3.28,3.23,3.31,3.77,.02,.36,2.88,4.08-1.56-.54Zm4.61,4.21c-1.8-2.65-.29-1.87-2.51-4.98-.41-.58,.09-.46,1.81,1.45,.98,1.09,1.99,2.35,1.8,2.36-.59,.02,.9,2.18,1.77,3.71,.34,.59,.05,.58-1.45-.96-.28-.56-.78-1.09-1.42-1.58Zm22.79,24.18c-1.48-1.79-2.44-3.11-2.24-3.31,.24-.22,1.24,.46,3.14,2.26,.63,.6,1.4,1.53,1.53,1.85,.44,1.03-1.23-.24-.27,1.34-.34-.06-1.33-1.14-2.16-2.14Zm3.62,.36c.18,.14,.87,.89,1.29,1.36,.68,.76,1.51,1.73,1.05,1.43-.61-.41,.23,.72,.26,.98-.83-.89-1.65-1.78-2.49-2.67-.06-.39-1.17-1.92-.12-1.1Zm6.06,7.58c-.85-.71-2.44-2.24-3.34-3.69,.9,.92,1.53,1.47,1.78,1.54,.46,.13,1.65,1.36,3.13,3.02-.48-.24-.71-.16-1.57-.88Zm1.66,.94c-.1-.2-.18-.37-.32-.61-.5-.83-.97-1.67,.37-.41,.67,.62,.06-.01,.3,.42,.45,.8,2.37,3.29-.35,.6Zm20.78,6.55c-.25,.24-.31,.16-.44,.19,.56-.82,.96-1.32,1-1.19,.03,.11-.4,.84-.56,1Zm31.92-52.81c-.64,1.02-1.47,2.11-2.13,2.99-.58,.77-.52,.46-.2-.21,.79-1.65,2.19-4.16,2.31-4.88,.1-.65,.7-1.71,2.11-3.9,2.09-3.24,.97-.92,1.61-1.75,.13,.46-2.18,5.32-3.71,7.75Z"/><path class="cls-1" d="M97.57,8.73c-.26-.31-.54-.63-.83-.96-.59,.59-1.2,1.2-1.75,1.76-.29,.28-.56,.54-.8,.77-.31,.29-.59,.54-.83,.76-.95,.83-.63,.01-.83-.12,1.08-1.1,1.97-1.99,2.68-2.71,.68-.69,1.18-1.22,1.54-1.62,1.08,1.13,1.03,.78,.11-.9l-.1-.13c-1.17,1.06-1.66,1.35-.46-.1,.21-.25,.4-.48,.47-.59,1.26,1.16,1.31,1.03,0-.67-.06,.03-.21,.17-.38,.31-.81,.71-.53,.11-.67,.01l1.06-.97,3.64,4.59,.71,.9c.2,.25,.38,.48,.49,.58,.83,.83,.73,.55,.51,.16l-.42-.76-.21-.38-.31-.49c-.44-.67-.93-1.41-1.53-2.26-.62-.88-1.68-2.12-2.86-3.44-.92,.98-1.92,2.02-2.85,3.01-.57,.62-1.12,1.21-1.62,1.74-.24,.27-.47,.52-.68,.76-.22,.25-.29,.34-.42,.49-.44,.55-.6,.86-.3,.74,.31-.11,.57-.15-.69,1.19-1.26,1.34-1.5,1.34-1.72,1.37-.5,.08-2.66,2.7-3.61,3.4-.99,.73-2.3,1.85-3.47,2.8-1.52,1.91,.5,.14,.28,.68-.15,.38-.24,.79-1.76,2.39-2.95,3.1-1.43,1.96-1.7,2.51-2.02,1.95-3.77,3.14-6.23,6.32-.93,1.2-2.78,3.02-4.24,4.57-3.81,4.06-6.21,7.27-5.45,7.28,.12,0,.79-.56,1.37-1.07,.93-.82,1.51-1.6,1.56-1.79,.15-.51,2.52-3.08,2.03-3.02-.38,.04,1.48-1.91,2.46-2.94,1.3-1.37,1.28-1.04,1.2-.79-.33,1.05,1.46-.26,3.48-1.82-2.66,3.02-4.32,5.19-5.6,7.03,.71-.73,1.44-1.47,2.13-2.19,.99-.99,2.15-2.13,1.87-1.58-.1,.2-1.08,1.29-1.73,2-.66,.72-1.39,1.47-2.1,2.21l2.94-2.46c-2.4,2.34-5.01,5.63-6.54,6.87-1.67,1.35-1.89,.93-2.66,1.19-.2,.07,0-.3-.16-.28-.22,.01-.8,.41-1.96,1.65-.87,.94-1.85,2.08-2.3,2.7-.46,.63-.81,1.28-.41,1,2.59-1.86-.93,1.78-3.03,4.18-1.02,1.16-1.89,1.99-2.86,2.99-.88,.9-1.12,1.31-1.07,1.42,.04,.11,.38-.1,1.29-1.05,.97-1.03,1.95-2.08,2.91-3.1,.77-.8,1.43-1.37,1.34-1.09-.37,1.23-4.19,5.57-7.61,8.67-.64,.58-.46,0-1.84,1.67-.35,.43-.04,.33,.04,.39,.48,.37,5.31-4.63,7.18-5.94,1.43-1,2.52-2.22,3.63-4.05,.45-.74,.74-1.1,1.87-2.08,.73-.64,1.39-1.14,2.43-2.44,4.27-5.35,8.21-8.98,12.21-12.45,2.97-2.58,3.72-3.39,3.54-4.05-.19-.66,3.5-4.46,5.38-6.76,1.25-1.54,1.87-1.62,3.26-3.01,.77-.76,1.39-1.19,2.07-1.77,.52-.76,1.43-1.92,1.46-2.18,.04-.27-.74,.3-1.19,.53,1.38-1.51,2.75-3.03,4.14-4.55l1.1-1.04c-.19,.13-.39,.27-.59,.4,.04-.14,.01-.3,.13-.42l1.21-1.26,.6-.61c.39-.39,.78-.77,1.16-1.18,.33,.36,.66,.69,1.01,1.02,.5,.46,.69,.86,.57,.86-.07,0-.11,.07-.14,.13-.01,.08,0,.2-.07,.22-.2-.04-.35-.05-.84-.54-.6-.61-.55-.29-.51,0,.07,.43,.27,.84,.49,1.11,.13,.14,.24,.26,.33,.36,.16,.17,.3,.31,.42,.43,.24,.24,.42,.39,.56,.49,.27,.19,.38,.16,.5,.18,.34,.04,2.46,2.1,1.32,.45-1.3-1.89,.14-.58,1.42,.47,.94,.77,1.06,.62,.54-.17-.26-.4-.68-.96-1.23-1.65-.28-.34-.59-.72-.93-1.12-.33-.39-.69-.8-1.07-1.24-.64-.73-1.25-1.38-1.53-1.9Zm-25.44,27.27c-.52,.5-.43,.32-.29,.05,.21-.4,.24-.61,.34-.89,1.18-1.1,1.69-1.42,1.37-.84-.16,.3-.56,.85-1.42,1.68Zm11.38-15.4l-1.25,1.25-.52,.51c-.13,.13-.21,.2-.22,.2-.2-.26-1.23,.53-3.61,2.97-1.49,1.53-3.14,3.26-3.57,3.32-.57,.07,1.69-2.25,3.11-3.86,1.02-1.16,.87-1.23,.93-1.48,1.65-1.88,3.22-3.78,5.21-5.48,.66-.57,2.01-1.96,1.5-1.14-.8,1.28-.39,1.26,.67,.6,1.06-.66-1.89,2.43-2.24,3.12Z"/><path class="cls-1" d="M278.22,36.06c.81,.4,2.17,1.19,3.31,1.91,2.06,1.26,4.8,3.21,5.92,3.7,.88,.39-1.73-1.6-.72-1.28,.49,.16-.32-.6-.56-.96-2.33-1.69-3.34-2.57-3.03-2.74-2.22-1.39-2.87-1.48-3.57-1.75-1.58-.59-3.37-2.72-4.31-2.6-.34,.04-.86-.05-2.25-.7-2.91-1.34-6.51-3.44-10.28-5.61-2.46-1.43-4.92-2.86-7.32-4.25-1.76-1.03-3.43-2.16-5.21-2.99-3.02-1.4,.9,.83,.32,.73-.3-.06-1.06-.36-1.83-.71-1.47-.67-3.17-1.56-4.61-2.19-1.82-.81-3.39-1.42-2.33-.61,1.09,.84,3.33,1.9,4.89,2.58,2.37,.99,4.38,1.83,6.49,2.71,.99,.42,1.89,.8,3.27,1.66,1.15,.71,1.74,1.2,1.68,1.32-.04,.09-.61-.12-.98-.21-1.3-.33-1.44-.2,2.84,2.05,2.44,1.3,4.99,2.79,5.34,3.48,.26,.51,2.19,1.41,3.44,2.1,1.22,.66,2.22,1.14,1.65,.61-.32-.3-1.02-.8-1.69-1.28-1.09-.77-3.01-1.97-1.87-1.55,.93,.34,3.01,1.57,4.23,2.41,2.97,2.05,4.97,3.1,7.15,4.18Z"/><path class="cls-1" d="M45.5,59.21c-1.28,1.45-2.13,2.53-2.79,3.43-.67,.92-1.09,1.6-1.49,2.26-.45,.75-.65,1.09-1.14,1.59,.43,.5,.83,1.11,1.81,2.51,.39,.5,.62,.82,.6,.85-.03,.02-.3-.24-.82-.77,.16,.51,.98,1.83-1.96-1.57,.34,1.02-.97,.28,1.5,3.61-.17,.02-.31,.07-.49,.09-.18,.02-.23,.22,.58,1.22,1.16,1.41,2.22,2.42,3.12,3.22,2.89,2.54,4.09,3.88,6.08,6.88,.45,.67,.41,.87,1.5,2.15,.64,.75,1.41,1.62,2.02,2.24,.75,.77,.95,.83,.58,.26-.44-.67-.87-1.35-1.53-2.23-4.78-6.34-5.76-8.62-3.77-7.78,.29,.12,.25-.14,.42-.16,.52-.11-1.46-2.4-3.83-5.04-.43-.34-.12,.27-1.35-1.13-.14-.16-.1-.36-.14-.55-.33-.34-.71-.78-1.09-1.25l-.45-.57c-.13-.17-.26-.33-.38-.49-.5-.64-.95-1.17-1.46-1.45,0-.06-.02-.1-.06-.13,1.77-1.93,2.06-1.7,3.8-3.37,.04-.53-.75-.22,.38-1.83,1.36-1.93,.62-1.69,.36-1.96Z"/><path class="cls-1" d="M50.75,80.67c.95,1.61,2.08,3.36,5.08,6.81,3.69,3.7,7.36,7.4,11.05,11.09-1.3-1.71-1.28-1.91,.47-.1,.17-.12,.43-.13,.47-.4,.02-.12-.28-.64-1.23-1.66-.41-.45-.93-.97-1.12-1.1-.32-.23-.55-.32-.6-.23-.18,.32-.71-.03-3.32-3.3-1.24-1.55-3.11-3.66-4.33-4.66-2.12-3.01,.07-1.22-.17-2.15-.05-.2-.32-.57-.86-1.12-.41-.43-1.12-1.13-1.1-1.07,.68,1.57-1.48-.32-3.84-2.44-1.16-1.04-1.05-.61-.5,.31Z"/><path class="cls-1" d="M74.97,321.79c.07,.11,.7,.47,1.13,.6,1.52,.48,2.98,.75,2.78,.59-.99-.79,1.51-.07,4.97,1.05,.73,.24,1.55,.37,2.33,.55-3.12-1.22-3.91-1.79-3.25-1.97,.52-.14-.76-.63-3.46-1.37-1.27-.35-2.74-.86-4.09-1.24-2.4-.7-8.73-2.01-8.49-1.75,.37,.42,1.88,1.09,5.15,2.14,2.48,.8,2.76,1.11,2.93,1.4Z"/><path class="cls-1" d="M137.85,328.61c.05,.16,.27,.13-.44,1.33-.81,1.37-1.46,2.14-1.84,2.45-1.43,2.55-2.32,4.34-2.12,4.64,.1,.15,.22,.29-.64,1.89,.04,.34,.07,.69,1.76-2.04,1.4-2.28,2.31-3.93,3.22-5.81,1.72-3.55,1-1.37,1.58-2.24,.47-.71,1.03-1.63,1.56-2.48-.4,.04,.16-1.39,1.09-3.45,.72-1.58,.57-1.7-1.02,.82-1.04,1.66-2.1,3.26-3.14,4.89Z"/><path class="cls-1" d="M98.47,137.13c-.21-.26-.97-1.03-1.19-1.2-.19-.15-.13,.11,.06,.34,3.06,3.73,4.27,6.13,8.3,10.35,1.84,2.13,3.27,3.83,4.66,5.35,1.78,1.95,3.24,3.35,3.31,2.99,.07-.31-1.4-2.05-2.87-3.76-4.02-4.72-8.42-9.21-12.27-14.07Z"/><path class="cls-1" d="M262.82,113.97c.68-1.48,.82-2.15,1.85-4.21,2.84-5.7,2.79-5.67,.66-2.9-.6,.78-1.22,1.65-1.29,1.35-.07-.32-.96,1.33-1.59,2.54-.51,.96-.98,2.02-.63,1.6,1.69-2.03,.7,.54-.14,2.88-.18,.51-.23,.82-.33,1.16,.25-.29,.44-.5,.63-.71,.28-.57,.62-1.21,.84-1.7Z"/><path class="cls-1" d="M66.82,99.67c-.53-.4-1.11-.89-.14,.39,.91,1.2,1.53,1.8,2.37,2.6,1.28,1.21,2.79,2.75,3.67,3.39,1.63,1.18,.72-.41-2.56-4.3-.89-1.02-1.82-2.1-2.73-3.15l-.47,.11c1.57,2.13,.89,1.76-.14,.97Z"/><path class="cls-1" d="M82.67,113.75c.27,.44,1.64,1.93,1.46,1.65-1.57-2.53,1.79,1.51,2.86,2.53,1.18,1.13,1.56,1.33,1.06,.31-.21-.43-.01-.44,.04-.58,.08-.21-.46-1.1-1.73-2.54-1.28-1.46-2-1.93-2.27-2.01-.64-.19,.44,1.66-1.97-.62,.19,.47,.18,.68,.55,1.27Z"/><path class="cls-1" d="M257.31,122.65c.89-1.9,1.5-3.46,.9-2.83-.85,.89-2.06,2.49-3.31,4.19-.7,.96-1.44,2.6-1.46,2.86-.02,.43,.42,.07-.15,1.48,.08,.03,.14,.14,.28,.09,.57-.16,2.9-4.96,3.73-5.79Z"/><path class="cls-1" d="M230.42,26.49c.13,.49,.34,.86-.08,2.2-.44,1.41,1.19-.81,2.83-3.12,.76-1.07,2.57-4.48,2.11-3.89-2.83,3.68-1.21-.13-3.72,3.03-.38,.59-.76,1.18-1.13,1.78Z"/><path class="cls-1" d="M82.72,116.88c-.36,.09-.54,.05-.57,.17-.04,.16,0,.43,1.19,1.82,.72,.84,1.19,1.24,1.58,1.55,.37,.29,1.02,.92,1.35,1.16,1.09,.78,1.46,.76-.2-1.52-.24-.33-.84-1.06-1.16-1.39-2.2-2.3-2.14-1.78-2.2-1.78Z"/><path class="cls-1" d="M235.35,18.44c-1.18,2.05-1.14,2.44,.01,.91,.28-.37,.58-.79,.89-1.23,.14-.2,.29-.41,.43-.62l.27-.38c.36-.5,.72-1,1.02-1.36,.33,.21,.62,.41,.84,.6,.33,.29,.74,.36,1.12,.41-.24-.31-.52-.66-1.01-1.12-.3-.28-.72-.57-1.23-.89-.29,.36-.63,.84-.99,1.4-.17,.29-.36,.59-.55,.9-.26,.44-.53,.9-.81,1.38Z"/><path class="cls-1" d="M273.86,93.46c-.17-.46,1.83-4.36,1.63-4.76-1.03,1.98-1.83,3.83-3.28,6.03-1.05,1.6-1.75,3.06-1.52,3.13,.14,.03,.45-.28,.25,.38-.29,.93,.19,.36,1.3-1.54,.78-1.33,1.69-3.1,1.63-3.25Z"/><path class="cls-1" d="M81.09,118.68c1.21,1,2.74,2.74,4.43,4.71,.85,1,2.12,2.49,2.42,2.62,.18,.08-.93-1.37-1.4-2.07-.48-.71-1.63-2.28-1.9-2.39-1.08-.42-3.44-3.65-5.07-5.39-.97-1.03-1.87-1.97-1.81-1.66,.05,.26,.5,.96,1.43,2.11,.71,.87,1.46,1.69,1.9,2.05Z"/><path class="cls-1" d="M305.29,262.64c-.33-.32-.71-.71-1-.97-.76-.68-1.37-1.16-.84-.27,.22,.37,1.05,1.44,1.61,2.12,1.66,1.99,2.28,2.45,2.58,2.46,.09,0,.15-.03,.24-.05,.01-.23,.54,.14-.14-.91l-2.45-2.39Z"/><path class="cls-1" d="M246.2,16.43c.63-.15-2.35-1.79-3.76-2.72-.21-.14-.42-.25-.64-.36-.27-.13-.54-.23-.78-.32-.49-.18-.91-.29-1.22-.38-1.48-.46,1.4,1.09,1.98,1.59,.36,.3,.45,.57,2.37,1.44,1.21,.54,1.98,.8,2.06,.75Z"/><path class="cls-1" d="M59.41,44.65c1.4-1.57,1.27-1.71,1.12-1.79-.17-.09,1.42-2.05-.39-.38-.48,.44-1.56,1.6-2.02,2.15-1,1.21-.79,1.26-.91,1.7,.24-.12,.52-.22,.99-.53,.18-.12,.92-.82,1.21-1.14Z"/><path class="cls-1" d="M106.36,331.09c.39-.06-.45-.84-1.32-1.15-2.12-.78-4.39-1.46-4.26-1.24,.22,.34,2.03,1.3,3.17,2,.8,.13,1.61,.23,2.41,.39Z"/><path class="cls-1" d="M102.5,225.76c1.23-1.89,2.26-3.67,3-5.11,.29-.56,.26-.74,.23-.88,0-.03-.6,.87-.68,.98-1.16,1.87-2.1,3.38-3.03,4.87-.93,1.52-2.68,4.05-2.42,4.22,.19,.12,1.72-2.26,2.89-4.07Z"/><path class="cls-1" d="M275.35,30.64c-.21-.27-1.13-.85-1.88-1.3-3.44-2.1-5.82-3.2-6.11-2.91-.04,.04,.58,.46,.9,.7,2.38,1.14,4.74,2.32,7.1,3.52Z"/><path class="cls-1" d="M47.62,72.77c.48,.41,.19-.11-.46-.9-.78-.94-1.42-1.48-1.58-1.52-.46-.11-.75-.03-1.1-.02,.47,.54,.95,1.09,1.36,1.56,3.17,3.34,.59-.12,1.78,.88Z"/><path class="cls-1" d="M50.9,314.63c-.18,0-.23-.29-.6,.13-.16,.18-.46,.67-.85,1.37-.19,.35-.41,.76-.63,1.21l-.17,.34c-.07,.08,.05,.07,.1,.1l.18,.06c.25,.08,.51,.16,.78,.25,2.22,.69,2.57,.62,2.88,.58,.41-.04,.62-.14-.07-.46-.35-.16-.92-.37-1.82-.66-.23-.07-.47-.15-.74-.24l-.21-.06s.05-.13,.06-.19l.19-.42c.26-.58,.55-1.25,.88-2.01Z"/><path class="cls-1" d="M103.19,19.17c-.49-.46-.66-.57-.36-.14,.25,.34,.55,.75,.85,1.16,1.79,2.15,2.06,1.91,3.46,3.41,.98,1.05,2.88,3.19,2.43,2.34-.37-.7-1.99-2.14-3.08-3.38-1.16-1.33-2.29-2.45-3.3-3.4Z"/><path class="cls-1" d="M112.51,19.82c.14-.01-.25-.6-.9-1.34-1.93-2.17-2.64-2.5-4.02-3.84-.68-.65,.62,.83,1.06,1.36,1.75,1.98,3.43,3.86,3.87,3.82Z"/><path class="cls-1" d="M311.89,268.67c-.19,.02-.13-.61-1.29,1.69-.75,1.48-.65,1.69-.56,1.89,.16-.02,.1,.59,1.28-1.74,.76-1.51,.74-1.86,.57-1.84Z"/><path class="cls-1" d="M94.22,134.08c-.12-.03,.37,.63,1.03,1.43,1.19,1.44,3.07,3.22,2.87,2.73-.12-.3-.67-1.01-1.42-1.87-1.32-1.51-2.24-2.42-2.48-2.29Z"/><path class="cls-1" d="M254.17,19.93c-.11-.27-1.3-.93-2.62-1.63-1.55-.83-2.32-1.09-2.5-1.01-.17,.08,.29,.48,1.88,1.31,1.64,.85,2.91,1.38,3.23,1.33Z"/><path class="cls-1" d="M115.61,201.68c.44-.97,.16-.92-1.01,.77-.91,1.32-1.93,2.87-2.82,4.42-.4,.69-.5,.94-.04,.49,.33-.15,1.4-2.05,2.25-3.33,.57-.86,.9-.78,1.62-2.35Z"/><path class="cls-1" d="M259.23,22.94c1.05,.39,1.93,.67,2.88,1l-.4-.43c-.55-.27-1.3-.67-1.62-.8-1.12-.43-2.15-.82-3.09-1.12-.24-.08-.22,.05,.07,.24,.86,.56,1.69,.93,2.16,1.1Z"/><path class="cls-1" d="M224.82,38.26s.18-.21,.38-.49c.2-.28,.43-.62,.56-.84,1.28-2.1,1.6-2.93,1.55-3.24-.34,.34-.97,1.16-1.38,1.89-.92,1.64-1.26,2.52-1.11,2.68Z"/><path class="cls-1" d="M51.61,79.54c.86,.97,.91,.69,1.06,.66,.19-.04,.35-.13,.47-.25,.02-.02-.2-.31-.31-.48-.3-.3-.77-.79-.88-.85-.28-.16-.39-.13-.51-.16-.07,.08-.12,.12-.16,.18-.08,.11-.45,.03,.33,.91Z"/><path class="cls-1" d="M128.17,179.34c.33-.84-.49,.33-1.26,1.54-.8,1.27-1.41,2.35-.72,1.58,.53-.6,.73-.52,1.94-2.4,.93-1.63-.2-.11,.04-.71Z"/><path class="cls-1" d="M271.67,322.98c1.08-.6-.8,.8,1.48-.6,.8-.48,1.4-1.12,1.59-1.37,.09-.14-.9,.35-1.48,.69-1.88,1.07-1.22,.91-1.59,1.29Z"/><path class="cls-1" d="M110.93,20.18c-.74-.81-1.36-1.41-1.52-1.41-.28,0,.53,1.06,1.77,2.46,.31,.35,.82,.68,1.15,.95-.07-.32-.13-.6-1.41-2Z"/><path class="cls-1" d="M296.16,57.37c-.41,.94-.84,1.98,.07,.61,.4-.61,.97-1.64,1.48-2.5-.04-.07-.04-.21-.14-.16-.15,.07-.39,.29-.59,.44-.28,.55-.65,1.23-.81,1.61Z"/><path class="cls-1" d="M281.59,316.46c-.03,.28,.81-.24,2.6-1.69,.54-.42,1-.94,1.78-1.68-1.29,1.02-2.56,1.85-3.82,2.69-.19,.23-.54,.59-.55,.68Z"/><path class="cls-1" d="M145.07,65.47c-.29-.1-.24,.14,.79,1.35,.79,.94,1.36,1.45,1.65,1.62,.44,.26-.12-.52-.95-1.52-.9-1.1-1.16-1.21-1.49-1.45Z"/><path class="cls-1" d="M94.02,131.37c-.92-1.01-1.8-1.92-1.88-1.77,0,.01,.16,.24,.38,.51,.23,.27,.5,.61,.7,.85,.89,1.04,1.86,2.14,2.12,2.16-.11-.3-.57-.94-1.31-1.75Z"/><path class="cls-1" d="M56.69,90.48c-.32-.14,.35,.69,1.06,1.47,.64,.71,1.51,1.65,1.88,1.96,.51,.44,.08-.22-.57-1.02-1.01-1.22-1.8-1.98-2.36-2.42Z"/><path class="cls-1" d="M287.94,243.98c-.43-.37-.6-.42,.19,.59,.92,1.1,1.31,1.41,1.44,1.41,.12,0-.11-.42-.19-.65-.49-.45-1.04-1-1.45-1.35Z"/><path class="cls-1" d="M71.05,99.19c-.06-.24-.5-.75-.79-.92-.34-.2-.46-.13-.57-.06-.04,.02,.27,.44,.5,.78,.87,.72,.94,.55,.86,.2Z"/><path class="cls-1" d="M303.04,288.28c.07-.36-.34,.2-.95,1.09-.8,1.21-.73,1.34-.74,1.53,.15-.05,.19,.14,1.05-1.32,.31-.5,.6-1.12,.63-1.3Z"/><path class="cls-1" d="M256.32,26.13c-.14,.03,.13,.32,1.42,.98,.88,.45,1.48,.7,1.51,.61-.26-.28-.83-.72-1.74-1.2-.52-.28-1.06-.42-1.19-.39Z"/><path class="cls-1" d="M115.49,33.5c-.42-.24,.05,.45,1.19,1.69,.66,.72,1.26,1.28,1.38,1.25,.11-.05-.23-.52-.93-1.34-.83-.96-1.41-1.47-1.64-1.6Z"/><path class="cls-1" d="M88.42,21.15c.26-.16,.75-.62,1.26-1.22,.64-.74,1.08-1.32,.54-.91-.23,.18-.83,.78-1.2,1.14-.76,.87-.95,1.19-.61,.99Z"/><path class="cls-1" d="M170.31,274.73c.09-.06,.5-.69,.72-1.1,.53-.99,.89-1.82,.68-1.68-.09,.06-.48,.73-.71,1.09-.58,1.11-.9,1.83-.69,1.69Z"/><path class="cls-1" d="M75.48,112.01c-.03-.1-.6-.84-.94-1.22-.71-.8-1.34-1.42-1.2-1.08,.06,.14,.62,.81,.9,1.18,.86,.97,1.33,1.39,1.24,1.12Z"/><path class="cls-1" d="M49.06,72.93c.13,0,.06-.22,.07-.34-1.23-1.34-1.46-1.39-1.97-1.8-.55-.45-.22,.03,.51,.87,.78,.89,1.24,1.27,1.38,1.28Z"/><path class="cls-1" d="M280.76,38.35c1.52,.95,1.68,.88,1.78,.78l-.71-.62c-.68-.31-1.41-.64-1.99-.88-.07-.03,.62,.53,.93,.72Z"/><path class="cls-1" d="M65.33,284.22c-.32,.54-.72,1.19-.92,1.6-.21,.44-.37,.93-.32,.94,.1,.02,.48-.63,.77-1.31,.2-.48,.32-.82,.47-1.23Z"/><path class="cls-1" d="M57.79,315.29c.07-.03-.15-.17-.22-.25-.28,0-.56-.01-.79-.02,.11,.13,.2,.21,.29,.31,.27,0,.6,.02,.72-.04Z"/><path class="cls-1" d="M61.41,85.75c.06-.06-.13-.42-.21-.64-.28-.24-.74-.69-.8-.69-.1,.02,.04,.31,.09,.54,.43,.37,.89,.82,.92,.79Z"/><path class="cls-1" d="M238.04,180.28c.02,.11,.32,.66,.49,1.02,.18,.13,.42,.35,.51,.34,.03,0-.28-.6-.4-.87-.59-.86-.65-.76-.6-.49Z"/><path class="cls-1" d="M264,116.62c-.8,1.49-1.07,2.22-.97,2.34,.04,.05,.3-.21,.53-.59,.71-1.16,.79-1.56,.78-1.73-.02-.18-.22-.03-.34-.03,.81-1.6,.61-1.37-.1-.24l.09,.24Z"/><path class="cls-1" d="M151.44,70.06c-.13-.03-.43-.17,.56,.91,.18,.2,.41,.29,.62,.43l-.36-.68c-.29-.24-.72-.64-.83-.67Z"/><path class="cls-1" d="M97.19,232.18c.04-.15-.31,.23-.57,.62-.48,.7-1.02,1.55-1.54,2.36,.32-.36,.59-.62,.98-1.11,.44-.55,1-1.4,1.14-1.87Z"/><path class="cls-1" d="M245.07,191.49c-.31-.27-.1,.21,.61,1.26,.57,.84,1.21,1.71,1.33,1.68,.04-.01-.32-.64-.5-.99-.61-.95-1.17-1.71-1.45-1.95Z"/><path class="cls-1" d="M289.39,58.45c-.18,.08-.72,1-1.13,1.87-.2,.42-.18,.56-.26,.82,.21-.18,.52-.69,.85-1.42,.23-.5,.6-1.29,.54-1.27Z"/><path class="cls-1" d="M54.96,79.55c.09-.02,.19-.07-.67-1.03-.21-.24-.42-.31-.66-.49,.16,.27-.19,.06,.73,1.08,.23,.25,.54,.46,.61,.44Z"/><path class="cls-1" d="M300.59,50.63c.11-.1,.53-.79,.78-1.16,.15-.29,.25-.51,.3-.65-.7-.41-.67-.28-.7-.2,0,.02,.16,.16,.31,.29-.09,.14-.18,.28-.2,.33-.72,1.39-.72,1.6-.49,1.39Z"/><path class="cls-1" d="M44.87,62.93c.04,.14-.11,.5,.89-.45,.21-.2,1.32-1.56,1.25-1.57-.19-.05-1.3,1.17-2.14,2.02Z"/><path class="cls-1" d="M264.84,217.84c-.43-.71-.88-1.45-1.28-2.11-.39-.65-.77-1.41-1.68-2.44-.55-.63-.8-.64-.9-.56-.19,.14,1.04,1.96,2.15,3.45,1.75,2.36,1.53,1.69,1.76,1.74,.66,.8,1.35,1.66,1.97,2.36,.32,.37,.76,.77,.72,.65-.13-.39-.83-1.22-1.38-1.79-.52-.53-.91-.87-1.35-1.29Z"/><path class="cls-1" d="M146.89,66.3c.25,.43,.95,1.22,1.62,1.93,.33,.35,.61,.57,.87,.81-.25-.44-.97-1.23-1.62-1.93-.33-.35-.91-.88-.88-.82Z"/><path class="cls-1" d="M270.69,224.64c-.1,0-.17,.1,.65,1.07,.21,.25,.42,.34,.63,.51-.05-.18,.19-.07-.65-1.07-.23-.27-.56-.51-.62-.51Z"/><path class="cls-1" d="M296.06,50.12c-.15,.06-.41,.36-.66,.85-.09,.18-.1,.33-.18,.6,.27-.36,.52-.7,.77-1.03,.03-.16,.14-.44,.07-.42Z"/><path class="cls-1" d="M258.61,117.32c-.2,.24-.36,.4-.6,.74-.33,.47-.66,1.07-.78,1.44-.19,.56,.13,.13,.63-.67l.76-1.51Z"/><path class="cls-1" d="M179.51,103.79c-.1-.03,.43,.66,.71,1.05,.59,.6,1.58,1.66,1.65,1.68,.09,.02-.48-.7-.76-1.12-.57-.58-1.53-1.6-1.6-1.62Z"/><path class="cls-1" d="M274.17,226.46c1.25,1.51,.92,.87,1.19,1.03l-1.28-1.54c.02,.17-.04,.36,.09,.51Z"/></svg>