<?xml version="1.0" encoding="UTF-8"?><svg id="a" xmlns="http://www.w3.org/2000/svg" viewBox="0 0 350 350"><defs><style>.b{fill:#010101;}</style></defs><path class="b" d="M171.1,239.44c-.83-.31-1.7-.65-2.22-1,.79,.25,1.68,.57,2.36,.74,.75,.18,1.35,.25-.31-.37-1.76-.69-1.99-1-2.2-1.32-.14-.2-.06-.36-1.15-.8-1.15-.47-1.23-.3-1.51-.27-.48,.04-1.37-.14-2.51-.49-1.98-.6-4.05-1.19-5.39-2.41-.6-.55-2.45-1.3-3.93-2-.98-.8-2.58-1.45-4.23-2.13-3.13-1.29-3.2-1.29-4.24-2.44,2.61,1.52,5.09,2.48,7.63,3.46,.22-.01,.49-.08,.64-.01,1.11,.52,.51,.44,.7,.64,1.94,.94,3.46,1.77,5,2.64,.57,.32,1.15,.59,1.75,.77,.93,.28,.78,.06,.74-.12-.08-.27-2.48-1.44-1-1.12,1.18,.24,3.06,.76,1.32-.24-2.33-1.34-3.06-1.11-4.39-1.48-.51-.14-.97-.25-1.53-.43-1.01-.35-1.73-.81-1.91-1.04-.24-.29-.49-.68,.01-.57,2.37,.51-.64-1.08-1.36-1.79-1.63-1.63-4.86-2.06-6.63-3.37-.08-.06-.68-.29-1.03-.44,.35,.32,.89,.72,.99,.92,.13,.25-.68-.04-1.52-.44-1.99-.93-3.41-1.55-4.69-1.89-1.07-.27-2.13-1.07-2.83-1.7-.49-.45-.39-.62-1.44-1.32-.22,0-.19,.25-1.09-.35-.52-.34-.81-.75-1.2-1.12l2.22,1.41c-.53-.64-1.28-1.15-2.31-1.48-1.75-.81-3.25-1.55-4.69-2.13-1.12-.49-2-1.26-2.37-1.83-.14-.22-.07-.31-.03-.41,.05-.14,.28-.24-.38-.72-.64-.46-.69-.21-.96-.25-.56-.08-1.37-.37-1.79-.33-.55,.03-1.47-.43-3.17-2.01-.49-.45-.99-.89-1.13-.83-.12,.05,.45,.56,.95,1.02,.33,.32,1.81,1.59,.48,.61-2.75-2.06-1.68-.59-2.95-1.31-.47-.27-.78-.17-.89-.7-.18-.88-2.31-2.01-3.23-2.96-.99-1.31-2.73-2.88-3.58-3.14-1.23-.39-2.68-1.6-4.89-3.76-1.24-1.24-1.7-1.36-1.88-1.21-.36,.33-1.86-1.13-3.35-2.71,.19-.6,.97-.64,1.77-.57,.83,.07-.24-1.88,2.22-.05,1.31,.6,4.35,3.37,5.1,3.16,.16-.04,.69,.27,.23-.35-.46-.61-.94-1.28-1.94-2.01-1.41-1.02-2.41-2.04-3.38-3.36-1.24-1.63-3.16-3.55-4.82-5.32-1.47-1.64-1.88-1.57-2.71-2.12-.98-.64-.92-1.62-2.15-2.64-1.36-1.11-2.26-2.27-3.26-3.92-.36-.57-1.15-1.26-1.63-1.63-.68-.89-1.39-1.83-2.02-2.66-.99-1.26-1.39-1.86-.76-1.46,.36,.23,.43,.11,.01-.64-.52-.93-1.04-1.39-1.47-1.84-1.04-1.09-2.02-2.06-2.74-2.54-1.2-.79-2.02-2.01-3.13-4.47-.19-.43-.23-.69-.43-1.12-1.02-2.2-4.49-7.87-5.29-8.26-1.05-.55-2.1-2.68-3.25-4.64,.26,.96,1.18,2.63,1.71,3.87,.28,.66,.22,1.04-.24,.21-1.25-2.26-1.07-1.36-1.41-1.61-.28-.21-.45-.21-.67-.31-.24-.6-.55-1.31-.7-1.79-.61-1.84-2.24-5.21-2.37-6.57-1.56-2.65-1.91-4.17-2.74-6.27-.2-.82,.29-.68-.69-2.57-1.42-2.64-2.28-5.77-3.88-8.08-.76-1.12-1.23-1.99-1.54-3.45-.06-.25-1.13-4.66-1.44-2.87-.08,.45-1.05-1.67-1.38-1.67-.23,0-.78-1.3-.63-1.75,.15-.48-.23-1.55-.89-2.85-.42-.82-.75-1.41-1.09-2.76-.43-1.62-.84-3.3-1.33-5.05-.48-1.75-1.09-3.55-1.71-5.49-.61-2.02-.47-2.2-.29-2.36-.12-.42-.23-.85-.35-1.27-.47,.03-.73,.42,.14,4,.54,2.01,.22,2.85,1.36,5.96,.16,.43,.04,.66-.12,.5-.17-.16-.37-.5-.57-1.36-.29-1.24-.66-2.55-1.16-3.83-.45-1.15-.83-2.25-1.25-3.37l.58-.65-.37-1.35c-1.02-2.72-1.12-2.99-.85-4.02l-.64-2.74c-.78-1.29-1.56-6.06-2.27-6.66-.21-.16-.55-1.26-.75-2.56-.27-1.74-.03-1.69,.19-1.69,.21-.02,.42-.05,.81,1.36,.23-.07,.6,1.01,.9,1.48,.96,1.53,1.19,.61,.64-3.4-.27-1.63-.67-5.04-.93-5.38-.81-1.13-.76-3.51-1.03-5.21-.27-1.97-.4-4.99-.8-5.72-.73-1.33-.51-2.41-.47-3.87,.01-.98,0-2.08-.05-3.16-.04-1.22-.16-1.53-.33-1.26-.32,.49-.62-.82-.77-2.65l-5.69,1.23,.12,.29c.79,2.01,2.33,4.72,2.18,6.04,.23,.85,.54,1.75,.9,2.66,.38,.9,.81,1.8,1.24,2.68,1.12,2.28,.82,2.02,.33,1.53-.2-.19-.3-.15-.41-.13-.44,.1,.69,2.45,1.25,3.91,.67,1.73,.75,1.19,1.03,1.42,.25,.21,.68,.49,.88,1.12,.59,1.91,1.97,3.57,2.48,5.14,.34,1.05,1.03,2.68,.63,2.6-.13-.03-.52-.25,.24,1.07,.48,.84,1.02,1.49,1.02,1.21,0-.96,.66,.33,1.38,1.95,.28,.64,.5,1.53,.33,1.35-1.57-1.73,.23,1.46,.69,2.06,1.21,1.61,1.99,2.99,2.79,4.7,1.19,2.51,2.12,3.94,2.78,4.02,.25,.03,.74,.61,1.53,1.86,.63,1.01,.66,1.3,.65,1.56-.03,.7,.95,1.95,1.24,2,.34,.06,.38-.07,1.05,1.34,.28,.6,.35,1.19,.82,1.73,2.04,2.26,4.42,5.22,6.53,7.64,.85,.95,1.43,1.2,2.46,2.87,.89,1.41,1.1,2.08,.21,1.36-.59-.48-.69-.34,.17,.93,1.41,2.08,3.07,3.92,4.63,5.98,.26,.35,.65,.55,.44,.13-.11-.23-.39-.63-.53-.89-.65-1.21-.21-1.12,.82-.04,1.28,1.36,.37,.83,.78,1.49,.59,.94,.77,.89,.86,.88,.68-.05,1.95,2.26,2.91,3.25,1.57,1.53,1.27,.19,2.25,1.39,2.19,2.68,2.38,2.48,2.88,2.55,.15,.02,.54,.29,1.07,.98,.43,.56,.56,.9,.23,.67-1.21-.85-.92-.12,.47,1.72-.76-.19,.11,1.59-2.07-.29-.61-.54,.02,.53,.87,1.55,1.13,1.32,2.4,2.64,3.28,3.33,1.55,1.21,3.12,2.63,4.88,4.06,1.74,1.45,3.56,3.02,5.44,4.7,.11,.1,.17,.1,.25,.13-.63-.7-1.12-1.35-.99-1.41,.19-.1,1.07,.89,1.6,1.43,1.54,1.53,2.72,2.83,3.45,3.9-1.1-.88-2.11-1.83-3-2.86-.09,.25-1.21-.36,1.26,1.97,.97,.91,1.84,1.84,2.91,2.7,.91,.73,1.8,1.47,2.71,2.26,.92,.77,1.83,1.61,2.75,2.59,.67,.72,1.94,1.69,2.22,1.68,.28-.02-.59-1.01-1.46-1.69-2.66-2.07-3.02-2.69-2.76-3.06,.13-.19-.65-1.21-.24-1.2,1.34,1.18,2.85,2.4,1.69,.92-.78-.99-.39-1.07-.23-1.32,.16-.24,.1-.65-1.47-2.37-.03-.04,.42,.13,.67,.23,.64,.27,2.38,1.59,1.48,.33-.93-1.34-2.23-2.32-3.49-3.24-.14-.1-.34-.27-.5-.42-1.44-1.39-1.41-2.06-2.81-3.25-1.05-.93-.5,.33-2.26-1.29-.16-.15-.34-.28-.48-.43-1.98-2.07-3.29-2.93-4.78-4.08-1.94-1.6-2.24-1.98-2.22-2.71,.02-.71-2.1-3.24-2.59-4.38-.11-.26-.78-.78-1.19-1.16-.55-.53-1.34-1.26-1.71-1.74-2.19-2.86-3.25-3.64-4.06-3.85-.24-.07-.66-.27-1.2-1.18-.76-1.33-1.62-2.43-2.97-4.01-1.18-1.37-.33-.62,.04-.33,.48,.38,1.51,1.44,.82,.3-.7-1.15-1.22-1.37-1.78-1.89-.65-.61-1.04-1.22-1.53-1.94-2.02-3.19-4.41-5.99-6.48-8.4-1.1-1.32-2.02-2.52-3.1-4.01-.74-1.02-1.48-2-2.14-2.97-.63-.99-1.19-1.98-1.61-2.98-.76-1.83-2.74-3.81-3.47-5.47-.8-1.97-1.25-2.47-2.17-3.44-1.08-1.17-3.46-4.81-4.3-6.59-.58-1.15,.54-.4-1.17-2.7-.84-1.13-.68-2.03-1.79-3.67-1.05-1.67-.89-2.54-1.64-3.82-.98-1.69-.93-.73-1.47-1.27-.06-.06-.18-.28-.25-.37-.81-.99-.81-.98-.21,.84-.27-.3-.42,0-.82-1.02-.34-.86-.62-1.65-.97-2.48-.32-.84-.7-1.73-1.26-2.76-.53-.99-.84-1.99-.69-1.96,.57,.13-.29-2.1-.97-3.65-1.42-3.38-1.41-5.88-3.52-9.71l-3.65-6.64,1.45,7.11,.06,.3c.03,.13,0,1.2-.05,1.53-.18,1.03-.07,2.6,.06,4.27,.07,.94,.13,1.82,.17,2.68,.06,.86,.11,1.7,.11,2.54,.02,2.36,.81,7.01,1.16,6.52,.73-1.15,1.13,2.66,1.64,5.55,.15,.88,.33,1.72,.5,2.58,.2,.85,.39,1.72,.53,2.64-.58-.34-.72,.7-.07,4.28,.35,2.11,.83,3.99,.75,5.25-.06,1.35,.49,2.93,.86,3.22,.47,.37,1,1.49,1.71,3.16,.36,.87,.47,1.68,.52,2.28,.05,.58,.11,1.14-.26,.46-.55-1.02-.85-1.16-.74-.59,.37,1.82,.65,1.66,.82,1.93,.53,.78,1.08,2.38,1.73,3.8,.48,1.08,.96,2.2,1.41,3.11,.51,1.03,.7,.02,1.22,1.8,.79,2.73-.83-.71-.46,1.27,.11,.5-.32,.03-.26,.5,.31,2.28,1.79,3.85,2.38,6.31,.17,.7,.62,1.32,.77,1.25,.05-.03,.04-.31-.04-.63-.13-.53-.32-1.16-.5-1.78-.4-1.32-.35-1.69-.02-1.32,.43,.49,.8,1.97,1.11,2.81,.83,2.18,.97,3.47,1.82,5.73,1.36,3.72,1.78,4.94,.74,4.02-.69-.64-.54,.55-1.28-.27-.03-.04,.26,.91,.49,1.46,.24,.59,.72,1.49,.7,1.18-.05-.97,.66-.08,1.31,.65-.29-.8-.29-1.07-.25-1.33,.2-1.2,.59-1.83,3.2,3.44,.33,.69,.8,1.26,.69,.67-.05-.36-.28-1.02-.6-1.61-.89-1.61-1.6-3.27-2.3-4.97-.72-1.74-.38-1.67-.13-1.57,.37,.14,.76,1.29,1.13,2.25,1.16,2.99,2.06,4.23,2.92,5.18,.41,.44,.85,1.21,.6,1.27-.51,.13,.32,1.94,1.45,4.25,.97,2.06,1.97,4.13,3.06,6.07,1.33,2.37,1.14,2.54,.75,2.35-.42-.2-1.06-.82-1.66-1.37-.36-.34-.78-1.07-1.15-1.96-.44-1.07-.98-2.03-1.4-2.4-.32-.26-.72-.57-.41,.33,.65,1.8,1.42,3.78,2.78,6.13,.92,1.66,2.58,4.5,2.32,2.83-.05-.31,.9,.6,1.66,2.07,.72,1.39-.41-.06-.39,.25,.04,.89-.32,.89-1.77-.91-.95-1.18,.06,.71,.71,1.91-.41,.23,.44,2.26,.83,3.66,.65,2.22,.86,2.56,2.94,5.19,.98,1.22,2.15,2.61,2.92,3.91,.98,1.72,1.67,1.46,2.32,3.22,.62,1.65,1.61,1.95,2.47,3.49,.32,.56,1.01,1.5,1.28,2.09,.53,1.13,1.16,2.21,1.9,3.26,.37,.53,.77,1.04,1.19,1.56,.45,.51,.92,1.02,1.42,1.52,.32,.32,.87,.99,1.23,1.49,3.22,4.18,3.35,4.23,5.55,5.69,.2,.13,.37,.24,.59,.39,.9,.62,1.65,1.54,2.42,2.61,1.4,1.92-.57-.3-.8-.39-.29-.1-.64-.29-.23,.34,.52,.79,1.05,1.24,1.59,1.64,1.23,.92,1.74,1.61,1.82,2.1,.04,.25-.19,.23-.07,.55,.33,.92,1.3,1.89,2.9,2.94,.51,.34,.99,.57,1.48,1.29,1.31,1.87,2.7,2.36,4.17,3.86,.86,.88,.99,.57,1.5,.91,1.28,.86,1.24,1.62,2.14,2.18,2.03,1.29,1.82,1.7,2.51,2.45,1.74,1.84,1.98,1.98,2.89,2.01,.24,0,1.03,.61,1.78,1.16,.28,.48,.54,.93,.86,1.44,.22,.35,.6,.83,1.44,1.45,.33,.25,.76,.37,.78,.27,.1-.47,1.17,.39,2.43,1.56,.73,.68,1.26,1.27,1.97,1.91,1.27,1.16,1.31,1.18,2.97,1.91,.44,.18,1.01,.52,1.51,.9,.69,.53,1.29,1.03,1.93,1.55,2.72,2.07,3.98,2.74,4.63,2.48,.39-.15,.72-.34,1.4-.31,.3,.01,1.37,.55,1.19,.76-.2,.24,1.08,.94,1.97,1.34,1.17,.54,2.39,.94,3.27,1.4,1.33,.72,3.54,1.32,4.11,2.23,.4,.65,2.85,1.73,4.18,2.24,2.37,.88,4.59,1.49,5.14,2.57,.02,.05,.8,.44,1.01,.52,3.58,1.21,5.67,2.51,8.02,3.79,1.83,.96,2.66,1.06,3.57,1.18,1.64,.88,3.39,1.61,5.31,2.05,.04,.11,.13,.23,.78,.45,.23,.08,.42,.06,.62,.09,2.53,.79,.15-.42,1.06-.29,.96,.13,2.33,.43,2.5,.19,.06-.09,.26-.14,.3-.24,.04-.1-.54-.48-.8-.53-3.04-.58-4.39-1.84-6.72-2.67Zm-66.24-90.96c.46,.44,.85,.89,1.27,1.34-.94-.59-1.8-1.08-2.87-1.86-.29-.21-.73-.93-.83-1.21,.12-.35,1.08,.41,2.43,1.72Zm-10.75-8.21c.31,.03,.8,.21,1.95,1.38,.64,.65,.97,1.23,.78,1.24-.43,.01-1.55-1.3-2.42-2.14-.15-.14-.27-.29-.41-.44,.03-.01,.05-.03,.1-.03Zm-9.35-10.62c.07,.14,.16,.3,.24,.47-.34-.33-.68-.66-1.03-1.01,0,0-.15-.26-.13-.27,.1-.06,.42,.21,.92,.81ZM40.3,59.12c-.15-1.04-.27-3.05-.2-3.66,.13-1.16,.43,.81,.65,1.47,.15,.46,.38-.93,.46,1.34,.05,1.63-.26,2.18,.34,5.06l-.26,.12c-.33-1.42-.71-2.73-.98-4.33Zm1.4,9.83c-.01-.93,.11-1.59,.25-2.1,.16-.59,.28,.92,.45,1.53,.48,1.92,.07,1.3,.02,1.72-.04-.19-.08-.41-.13-.56-.03-.1-.06-.09-.09-.14l.22,.72c.06,.9-.04,1.15-.21,1-.25-.21-.51-1.01-.51-2.19Zm.85,6.98c-.06-.4-.04-1.14,.04-1.2,.28-.24,.6-.26,.91-.36l.19,1.28c-.32-.03-.71-.34-.82,.78-.02,.32-.19,.3-.32-.49Zm.81,15.24c-.1-.42-.15-.83-.22-1.24,.56,1.36,1.06,2.74,1.68,4.08l-.05,.57c-.39-.2-.9-1.15-1.4-3.41Zm9.81,25.01c-1.04-2.17-1.57-3.94-1.73-5.37,.62,1.62,1.25,3.24,1.87,4.86,.1,.27,.17,.72,.15,.85-.01,.1-.19-.09-.3-.33Zm18.49,38.17c.22,.19,.75,.78,.85,.96,.56,1.03,.06,.48-.22,.24-.28-.25-.61-.57-.97-.91-.19-.66,.04-.55,.34-.28Zm-1.49,1.72c-.19-.6,.21-.13,.77,.66-.06,.13,.45,1.14-.2,.33-.13-.16-.52-.84-.56-.99Zm3.27,4.92c.02-.1-.05-.34,.08-.23,.13,.12,.5,.59,.66,.87,.32,.55,.27,.62-.05,.23-.22-.27-.46-.58-.69-.86Zm4.26,.9c-.48-.88-1.35-2.34-.8-2.01,.07,.04,.42,.59,.66,.91,.6,1.05,1.22,2.14,.78,1.97-.14-.06-.43-.48-.64-.86Zm1.57,4.11c-.91-1.33-.67-1.38-.55-1.58,.28-.07,.94,.48,1.92,1.6,.23,.77,.73,1.94,.59,2.17-.1,.15-1.1-.93-1.96-2.19Zm2.04,4.68c.07-.02,.12-.05,.23-.02,.26,.09,.38-.1,1.27,1.09,.32,.43,.36,.63,.21,.55-.38-.19-.38,.33-1.71-1.62Zm1.61,7.56c-.21-.53-.37-.87-.45-1.12-.08-.26-.25-.69,.32,.04,.47,.6,.64,1.01,.6,1.12-.04,.1-.25,0-.47-.04Zm16.37,12.98c-2.22-2.6-2.41-2.29-2.66-2.04-.08,.08-.17-.02-.94-1.09-.1-.14-.1-.23-.21-.36-1.03-1.22-.73-.03-1.68-1.43-.79-1.19-1.3-1.82-2.22-2.64-1.03-.92-1.98-1.95-3.01-3.39-2.09-2.79-2.3-3.4-1-2.38,.85,.67,1.66,1.2,3.32,3.23,.82,1.01,.96,.98,.82,.54-.1-.33,.47,.01,.74,.65,.59,1.4,2.3,3.28,3.83,5.03,1.02,1.22,2.11,2.4,3.15,3.58,.22,.25,.42,.59,.4,.65-.02,.06-.48-.27-.54-.35Zm-1,3.94c0-.1-.02-.22-.01-.31,.01-.12,.05-.22,.08-.33,.21,.31,.5,.71,.51,.83,.01,.12-.36-.12-.57-.2Zm12.35,11.1c-.3-.36-.53-.7-.93-1.08-3.32-3.25-.5-.86,.48-.19,.2,.4,.55,.71,1.04,.93,1.04,1.22,1.32,1.76-.59,.34Zm2.52,.98c-1.58-1.64-1.62-1.35-1.93-1.34l-1.01-.9c.45-.14,1.04-.03,3.56,2.3,.47,.43,.96,.95,.66,.87-.24-.06-.79-.42-1.28-.92Zm29.56,17.69c-.66-.42-1.03-.89-.99-1.05,.09-.31,1.46,.69,2.23,1.01,3.27,1.44,1.48,.91,.94,.85-.98-.46-1.3-.27-2.18-.82Z"/><path class="b" d="M135.85,174.8c-.31,0-.03,.41,.7,1.08,1.11,.99,.93,1.16-.75-.02-2.28-1.64-2.74-1.55-4.02-2.2-1.48-.75-1.1-.41,.05,.57,.63,.53,1.18,1.04,1.76,1.55,.07,.05,1.56,1.34,3.09,2.54,1.53,1.21,3.05,2.41,3.09,2.44,.41,.2,.94,.45,1.2,.52,.37,.1,3.93,1.95,4.58,2.35,1.48,.86,2.36,1.77,3.93,2.58,.91,.47,1.14,.74,.94,.75-1.12,.07,1.15,1.15,2.37,1.67,1.11,.49,1.8,.7,2.63,1.51,1.62,1.15,3.23,2.34,5.16,2.91,1.83,1.15,3.14,2.23,5.63,3.39,.59,.28,1.46,.68,1.73,.75,1.67,.33,4.27,1.81,6.55,2.73,.8,1.11,.75,1.05,4.44,2.59,2.87,1.14,3.25,.75,6.51,2.05,3.1,1.23,4.45,1.72,3.99,1.99-.65,.39,.96,.85,3.11,1.69l2.48,.97,2.51,.91c1.67,.61,3.34,1.23,5.03,1.78,1.69,.55,3.36,1.17,5.07,1.68l2.55,.79,1.79,.55,1.87,.53c3.17,.88,5.6,1.56,7.28,1.92-.48-3.19-.94-4.83-1.64-5.91-.55-.85-.73-3.26-1.05-4.97-.16-.81-.34-1.8-.29-2.53,.09-1.27,.4-.68,.73,.19,.04,.11,.09,.34,.14,.44,.54,1.22,.8,.09,.53-2.68-.12-1.28-.37-2.64-.55-3.98-.31-2.32-.51-1.84-.6-1.23-.11,.7,.13,2.92-.27,2.39-.21-1.22-.61-2.64-.52-3.6,.16-1.55-.38-3.21-.56-4.74l-.45-.14-.2-1.37c.13-.48,.19-1.26,.02-2.7,.37-.89,.38-.91-.25-3.48l-.33-1.33c-.06-.29-.1-.54-.11-.74-.01-.41,.08-.67,.31-.83,.08-.06,.47,.36,.12-.43-.66-1.57-.7-2.53-.52-2.94,.01-.03,.02-.07,.02-.12,.89,.77,1.95,1.33,2.2,1.15,.02-.02,.45,.08,1.01,.26,.55,.18,1.22,.45,1.25,.41,.06-.13,.25-.1,.54,.04,.15,.07,.29,.15,.51,.28,.24,.15,.5,.32,.76,.49,1.05,.68,2.19,1.45,2.73,1.56,.3,.06,3.49,2.41,1.42,.4-.12-.12,.14-.11,.27-.03,1.87,1.22,3.83,2.43,5.58,3.7,1.21,.87,.43,.75,.31,.92-.12,.16,.14,.52,1.09,1.3,1.69,1.37,1.6,1.77,2.5,2.7,.72,.76,3.07,2.18,2.96,2.64-.12,.55,2.22,1.76,3.42,2.65,1.93,1.43,1.6,.82,1.82,.75,.22-.07,.19-.31,.26-.48-1.52-1.19-2.01-1.82-1.76-2.03-.57-.36-1.5-.92-1.59-1.02-1.29-1.42-.95-1.79-.82-2.3,.14-.5,2.13,1.3,2.88,1.61,.38,.15,.96,.45,1.07,.41,.33-.12,.99,.1,2.71,1.28,.54,.37,.75,.41,.41,.13-.43-.36-1.37-1.03-1.38-1.1-.03-.31,.97,.56,1.49,.87,.53,.31,1.44,.94,1.58,.96,.35,.06-.28-.51-.9-1.02-1.23-1.01-2.9-2.14-4-3.01-1.95-1.52-2.57-2.28-2.59-1.48-.01,.43-1.18-.16-2.72-1.7-.65-.66-1.74-1.21-2.5-1.59-.7-.35-.87-.21-1.92-.87-.55-.23-.93-.48-1.17-.82-1.62-1.32-.6-1.05-1.5-1.96-1.23-1.24-3.16-2.1-4.09-3.01-2.22-2.17-2.67-1.92-3.27-1.98-.46-.05,.33,.93-1.61-.37-1.93-1.31-2.41-2.09-3.84-3.29-1.11-.93-1.53-1.45-1.92-1.94-.41-.54-1.63-1.63-2.96-2.74-1.33-1.11-2.76-2.22-3.4-2.65-1.26-.83-2.45-1.7-3.5-2.42,.38,1.94,.66,3.62,.99,5.53,.08,.46,.38,1.66,.51,2.02,.82,2.35,1.23,2.62,1.41,1.75-.73-2.62-.85-3.49-.78-3.73,.07-.26,.32,.02,.28-.54-.15-.64-.33-1.38-.5-2.08,0-.07,.16,.07,.23,.11l.28,.18c.19,.13,.36,.25,.53,.36,.34,.23,.63,.45,.85,.63,1.84,1.53,.1,.4-.46,.16-.11-.05-.23-.1-.34-.13l-.16-.05s-.12-.06-.08,.05c.31,.91,.58,1.64,.58,1.59-.03-.35-.03-.59-.01-.72,0-.05,.14,.09,.21,.16l.23,.23c.14,.14,.25,.26,.35,.37,.19,.22,.29,.38,.36,.52,.13,.27,.13,.45,.27,.74,.05,.09,.57,.55,.91,.83,.42,.35,.62,.46,.68,.38,.15-.17-.78-1.23,1.28,.17,2,1.37,2.23,1.97,3.19,2.84,.79,.72,1.66,1.39,2.51,2.06,.26,.21,.45,.45,.49,.55,.01,.04-.5-.22-.64-.33-1.39-1.09-2.75-1.99-3.98-2.75-1.16-.73-2.32-1.46-3.54-2.22,.09,.42,.17,.82,.23,1.22,.17,1,.38,2.05,.41,2.6,.04,.55-.07,.66-.58-.39-.2-.42-.21,.27-.07,.78,.42,1.56,.69,3.33,1,5.05,.32,1.73,.63,3.16,1.17,3.86,.2,.27,.46,1.01,.51,1.95,.15,3.47,.52,6.97,1.39,10.8,.1,.45,.14,.76,.05,.9-.2,.34-.5-.68-.78-1.36-.41-1.03-.3-1.81-.3-2.62,0-.48-.05-.91-.15-1.08-.08-.14-.16-.15-.2-.01-.1,.35-.09,1.13,0,2.05,.2,1.83,.35,3.83,.62,5.49,.33,2-.22,2.49,.41,4.94,.15,.6,.15,1.02,.11,1.4-.04,.38-.13,.68-.19,.91-.17,.64-.44-.58-.66-.9-.1-.16-.17-.39-.23-.68-.07-.47-.15-1.01-.23-1.51-.15-1.01-.3-1.89-.53-1.82-.57,.05,.41,4.41,.05,4.27-.27,.46-.14,1.08,.39,1.7,.37,.4,.48,.78,.5,1.32-.22-.05-.56-.2-.91-.33-.75-.29-1.37-.45-1.94-.52-.57-.08-1.03-.04-1.67,0-.73,.12-2.79-.44-3.43-.4-.72,.03-1.17-.07-1.94-.56-.39-.25-1.47-.82,.2-.4,.58,.15,1.35,.42,1.87,.54,.66,.13,.33-.17,0-.25-1.96-.52-2.6-.91-3.51-1.47-1.05-.64-1.79-1.09,.6-.5,.44,.11,.14-.18-.8-.47-1.42-.44-1.79-.77-2.3-1.12-.31-.21-.47-.4-1.33-.63-.79-.21-1.54-.37-1.34-.12,.41,.52,1,1.11,1.38,1.62,.1,.13-.19,.16-.58,.1-.54-.09-1.17-.39-1.59-.63-1.92-1.08-2.55-1.36-2.41-.7,.13,.62-.16,.51-3.42-.94-3.85-1.28-7.66-2.92-11.04-4.73-1.28-.67-2.13-1.43-3.62-2.24-2.48-1.32-1.76-.24-3.96-1.26-.69-.34-1.38-.55-2.07-.82-.65-.12,.61,1.03-2.7-.85-1.37-.77-3.43-1.62-5.2-2.43-.43-.2-.21,.07-1.24-.52-3.28-2-3.39-2.03-3.6-1.63-.07,.12,.39,.56-.56,.13-.84-.39-1.5-.86-2.12-1.33-.61-.45-1.29-.93-1.43-1.2-.09-.17-.34-.42-.52-.64-.3-.08-.8-.28-.85-.21-.26,.38-2.51-.32,.95,2.09,.37,.26-.31,.04-.91-.27-3.2-1.63-2.5-2.26-5.38-3.92-.26-.15-.83-.68-.87-.82-.05-.14,.25-.16,.6,.03,3.58,1.88,3.65,1.27,3.99,.84,.17-.21,1.3,.39,2.54,1.11-4.26-2.95-5.99-3.93-6.13-3.12-.02,.11,.48,.53-.07,.31-2.11-.83-5.86-4.14-7.26-4.07-.42-.36-.88-.74-1.26-1.08-.51-.48-.96-.89-1.48-1.38-.42-.38-1.07-.84-1.54-1.06-.4-.2-.7-.28-.87-.27Zm102.79,13.83c.11,.13,.4,.41,.32,.4-.22-.02-.69-.29-1.25-.74-.14-.11-.34-.3-.31-.3,.19,0,.65,.25,1.25,.64Zm-20.97,11.32c-.03-.18,.08-.55,.16-.66,.08-.12,.19-.07,.29-.08,.08,1,.27,2.36,.03,2.35-.14,0-.35-.62-.48-1.61Zm-3.65,11.69c.3,0,.63,.12,.73,.25,.05,.07-.16,.1-.38,.06-.23-.04-.61-.19-.91-.29,.19,0,.35-.02,.56-.02Zm-4.4,0c-.1-.24-1.07-.81,1.01-.25,.82,.22,1.42,.4,2.05,.64,.61,.21,1.15,.45,1.56,.72,.37,.24,1.07,.55,1.58,.82,.66,.35,.88,.56,.53,.55-.35,0-1.28-.22-2.75-.66-.74-.21-1.34-.43-1.92-.61-.29-.09-.57-.17-.86-.25-.26-.07-.53-.12-.82-.17-.04,0-.68-.29-.88-.41-.6-.37-.03-.37,.49-.38Zm-6.7-2.63c.78,.28,.59,.33,.51,.39-.06,.04-.43-.03-.67-.05l-.3-.3c.15-.02,.35-.08,.45-.04Zm-15.65-5.16c-.21,.25-1.06,.13-2.97-.58,.22-.24,.08-.68,2.97,.58Zm-4.17-1.11c.37,.16,.75,.34,1.11,.51-.22,0-.33,.1-.73-.04-1.08-.38-2.19-1.03-2.23-1.19-.05-.2,1.17,.43,1.84,.71Zm-2.9-3.36c.75,.42,1.29,.78,.83,.75-.14,0-.63-.2-.95-.31-1.04-.54-.84-.61-.66-.68,.12-.05,.43,.04,.78,.24Zm-3.68,1.28c.36,.18,.97,.53,.96,.55-.08,.1-.75-.23-1.23-.46-.54-.27-1.1-.54-1.64-.81,.44,.06,1.13,.34,1.92,.73Zm-3.84-3.62c.17,.08,.35,.18,.52,.27l-.16,.15c-1.45-.74-2.26-.64-4.02-1.78-.14-.09-.32-.24-.27-.23,.91,.17,2.44,.9,3.93,1.59Zm-5.1-1.16c.55,.25,1.11,.51,1.66,.77,.03,.13,.17,.32,.05,.36-.36,.13-2.58-1.03-2.74-.68-.56-.5-.84-.7-.84-.76,0-.29-.02-.58,1.87,.31Zm-5.5-3.82s.42,.36,.3,.34c-.47-.07-1.26-.52-2.06-1-.49-.3-.63-.43-.31-.37,.57,.28,1.31,.65,2.06,1.02Zm-23.79-14.19c.61,.47,1.91,1.27,1.51,1.25-.47-.03-1.6-.55-3.11-1.59-1.05-.71-1.62-1.33-1.65-1.57-.03-.22,.7,.21,1.56,.78,.57,.39,1.14,.77,1.69,1.14Z"/><path class="b" d="M282.36,216.67c-1.65,0-3.75-.98-8.09-3.74-.6,.51-1.21,1.01-1.79,1.53-.08,.07-.12,.19,.56,.66,.32,.22,.79,.47,1.09,.61,.97,.44,1.87,.86,2.83,1.3,.96,.45,.94-.11,2.69,1.23,.83,.63-.89-.14-1.22-.1-.27,.03-1.2-.39-1.48-.37-.41,.04-3.19-1.77-2.19-.76,.37,.37,2.37,1.58,3.64,2.49,1.46,1.03,2.78,1.72,1.51,.5-.59-.57,.18-.2,.54-.11,.49,.12,1.08,.26,2.16,.98,.61,.41,1.14,.9,.96,1.01-.29,.18,1.09,.92,1.93,1.46,.82,.54,.74,.11,2.26,1.24,1.92,1.43,6.86,3.7,6.22,2.88-.93-1.18,1.35,0,2.36,.23-.25-.24-.64-.57-.71-.71-.06-.12,.37,.1,.48,.23,.17,.21,.21,.34,.3,.51,2.01,1.37,2.32,1.19,2.9,1.28,.98,.15,2.15,.7,4.55,2.31,1.74,1.16,2.62,1.74,3.56,2.36,.93,.64,1.9,1.35,3.45,2.55,.4,.31,1.1,.76,.72,.69-.45-.08-.96-.52-1.46-.8-2.44-1.37-4.54-2.65-6.98-4.16-1.46-.9-3.48-2.25-1.62-.52,.39,.37,3.68,3.33-2.16-.35-.26-.16-.91-.28-1.13-.26-.58,.06-3.48-1.43-2.77-.66,.66,.72,3.54,2.31,5.37,3.62,.53,.38,1.22,.8,1.97,1.21,.19,.1,.38,.21,.57,.31l.29,.15c.06,.03,.09,.04,.14,.06,.19,.07,.37,.13,.55,.19,.75,.24,1.69,.5,2.04,.46,.78-.13,1.86,.01,4.08,.91-.07,.12-.23,.3-.43,.51-.41,.42,.57,.25-1.06,1.19-.86,.5-.05-.41-.28-.51-.2-.11-.39-.28-.09-.63,.44-.53,0-.25-.66,.15-.68,.41-1.55,1.01-1.88,.99-.53-.03-.95,.11-1.35,.36-.21,.14-.35,.26-.63,.49-.38,.3-.76,.63-1.12,.96-1.33,1.21-2.21,1.84-3.57,2.32-1.84,.66-2.28,1.59-3.37,2.38,.25-.04,.69-.21,.69-.1-.01,.32-.91,1.25,.92,.3,2.26-1.19,2.08-1.7,3.34-2.61,.36-.25,.73-.51,1.1-.77,.32-.41,.72-.63,1.16-.76,.52-.28,.97-.53,1.37-.75,.4-.22,.61-.31,.86-.44,.47-.23,.78-.37,.94-.4,.31-.06,.06,.28-.77,1.16-.94,.98-1.8,1.87-1.51,2.15,.41,.42,.12,.63-3.68,2.98l-.2-.39c-.78,.42-1.15,.51-.71,.06,.55-.57,.91-1.04-.31-.33-1.99,1.16-3.63,2.04-4.01,1.76-.43-.32-4,2.2-4.78,2.2-.54,0-.96,.19-2.41,1.23-.66,.47-1.65,1.12-2.31,1.45-1.65,.85-.23-.03,.27-.38,.43-.31,1.38-.89,.64-.62-1.14,.41-6.42,3.56-6.54,3.92-.29,.91-2.61,2.07-4.49,3.21-2.2,1.31-4.41,2.62-6.62,3.88-2.5,1.42-3.38,2.14-2.39,2.06,.61-.04-.14,.48-1.33,1.13-1.51,.83-3.13,1.84-4.36,2.18-.99,.27-3.1,1.39-3.31,1.04-.2-.33-2.3,.85-3.77,1.68-1.59,.9-1.45,1.15-1.47,1.41,0,.13,0,.26-.16,.47-.09,.11-.6,.5-.77,.59-.86,.43-.14-.13-.3-.14-.73-.04-2.53,.89-3.09,1.59-1.09,1.38-2.21,1.62-3.21,1.88-1.03,.27-1.7,.28-2.5,1.43-.51,.73-1.85,1.67-4,2.86-1.19,.66-2.41,1.43-3.61,2.15-.29,.18-.71,.43-1.05,.65-.17,.11-.32,.2-.43,.27-.11,.07-.18,.12-.18,.12,.02,.21,1.22-.61,1.61-.74,1.25-.4,2.61-.96,4.54-1.86,1.8-.85,1.77-.27,1.76,.19-2.4,1.73-4.72,3.49-7.98,4.99-.26,.12-.82,.48-1.11,.69-.45,.34-.82,.65-1.13,.94-.04,.03,.45-.13,.74-.29,2.44-1.35,4.68-2.46,6.14-2.85-1.41,.96-2.87,1.93-4.21,2.87-.33,.24-.34,.43-.34,.55,0,.12,.33-.05,.72-.32l5.25-2.59c1.25-.59,0,.16-.25,.36-.45,.34-1,.72-1.5,1.08-.4,.29-1.24,.79-.63,.6,.17-.06,.78-.4,1.12-.62,1.88-1.23,3.67-2.45,5.81-3.6,1.07-.58,1.23-.6,.89-.2-1.1,1.33-1.06,1.28,2.35-.67,1.38-.79,2.82-1.54,4.16-2.22,1.83-.92,3.12-1.87,4.53-2.82,1.03-.69,1.09-1.15,1.28-1.23,1.3-.62,.29,.26,.91,.1,.5-.13,1.27-.48,2.05-1.04,.98-.7,2-1.42,2.7-2.02,1.14-.96,1.88-1.26,2.79-1.55,.38-.12,1.02-.43,1.57-.84,.73-.54,.57-.63,.47-.74-.1-.11-.24-.2-1.42,.56-1.22,.8-2.4,1.49-3.25,1.73-.42,.11-1.18,.41-.68-.04,.35-.33,1.05-.69,1.66-1.01,4.8-2.56,4.8-2.57,6.93-4.66,.09-.09,.17-.18,.24-.25,.28-.34,.93-.81,1.79-1.31,.92-.53,1.61-.79,1.54-.57-.22,.71,1.98-.66,3.53-1.47,1.98-1.04,3.58-2.06,4.61-3.07,2.17-.99,3.37-1.93,4.12-2.83,.13-.15,.45-.41,.69-.61,.16,.02,.34,.03,.47,.06,.04,.01-.03,.1-.09,.18-.27,.33-.5,.65,.68-.03,.75-.42,1.8-1.08,1.51-1.16-.29-.09,.56-.74,1.16-1.26,.6-.53,.91-.73,1.65-.99,1.84-.63,2.69-1.23,3.59-2.35,.33-.41,.46-.72,.75-1.1,.3-.4,.69-.85,1.88-1.63,1.36-.91,2.32-1.37,2.78-1.41,.34-.03,.34,.2,.48,.31-.69,.48-1.46,.96-1.78,1.36-.66,.86,.49,.49,.76,.72,.09,.08-.67,.78,.55,.03,.44-.27,1.2-.86,1.37-1.07,.66-.77,1.53-1.54,3.35-2.6,.03-.19,.17-.38,.38-.57,.1-.09,.23-.19,.36-.28,.17-.11,.35-.22,.54-.34,1-.62,2.23-1.31,3.19-1.95,1.26-.83,2.6-1.75,3.67-2.52,1.01-.73,1.71-1.33,2.51-1.96-.94,.6-1.91,1.18-2.8,1.77-3.26,2.17-5.31,3.4-5.68,3.11-.37-.28,.87-1.28,3.86-3.25,1.67-1.09,2-1.56,2.68-2.17-.42-.2-.86-.42-1.35-.7-1.33-.76-2.11-.69-3.61-1.96-.88-.73,.08-.3,1.5,.4,1.46,.73,2.15,.95,2.51,.96,.36,0,.37-.2,.59-.27,.47-.12-2.49-1.99-4.73-3.48-.83-.33-1.44-.7-1.94-1.19-.27-.14-.64-.34-.96-.51-.23-.11-.36-.17-.38-.16-.22,.34-.22,.33-2.85-.96-.43-.21-.43,0-.86-.19-1.84-.85-3.46-1.31-6.03-3.27,1.22,.44,2.07,.64,1.31-.23-.17-.2-.46-.73,.59,.09,2.89,2.27,2.94,1.63,3.98,2.01-1.77-1.18-3.69-2.66-5.33-3.27-1.78-.66-1.89-1.05-2.49-1.65-.28-.27-.73-.67-1.39-.99-.46-.22-1.15-.51-1.08-.4,1.2,1.76-2.32-.04-5.43-1.5-2.49-1.19-2.45-1.14-4.6-3.02Zm-6.02-1.21c-.59-.34-.89-.67-1.06-.93,.29,.12,.6,.2,1.03,.44,.83,.46,.88,.66,.79,.71-.09,.04-.43-.02-.77-.21Zm-23.55,57.55c.73-.4,1.62-.99,2.02-1.02,.31-.02-1.8,1.69-2.93,2.36-1.67,.99-1.96,.8-2.05,.68-.26-.33,1.84-1.31,2.96-2.02Zm-9.63,6.05c.64-.4,1-.53,1.19-.52-.18,.15-.43,.4-.53,.45-.33,.17-.65,.29-.9,.39-.37,.13-.27,0,.23-.32Zm3.81-1.12c-.44,.51-.89,1.02-1.33,1.53-1.01,.27-3.34,1.53-3.31,1.04,1.6-.94,3.14-2.12,4.82-2.79l-.17,.21Zm-.03-.33c-.52-.07-2.12,.5-.67-.74,.96-.2,2.16-.55,2.79-.54,.44,0-.91,.81-1.9,1.39-.07-.04-.11-.1-.22-.11Zm8.41-2.07c-.83,.54-.41,.7-2.38,1.47-1.95,.77-3.35,1.32-1.84-.05,.59-.34,1.21-.68,1.78-1.03,1.02-.63,2.42-1.74,2.84-1.57,.28,.11,3.08-1.08-.4,1.18Zm3.16-2.57c-2,.64-1.43-.41-3.77,.44-.44,.16-.35-.24,1.09-1.08,.82-.48,1.77-.92,1.78-.74,.02,.53,1.66-.02,2.81-.24,.45-.09,.44,.16-.72,.94-.43,.05-.82,.3-1.19,.68Zm18.15-11.57c-1.35,.68-2.34,1.07-2.49,.82-.17-.29,.33-.93,1.67-1.98,.44-.35,1.14-.7,1.38-.71,.78-.03-.15,1.01,1.04,.7-.04,.28-.84,.79-1.6,1.17Zm.18-3.07c.1-.11,.66-.46,1.01-.67,.57-.33,1.29-.74,1.07-.44-.29,.4,.55,.04,.75,.1-.66,.42-1.32,.85-1.98,1.28-.3-.08-1.44,.37-.84-.27Zm5.66-2.75c-.51,.52-1.64,1.4-2.74,1.69,.68-.48,1.09-.84,1.13-1.04,.09-.36,.99-.99,2.22-1.74-.17,.35-.1,.58-.62,1.09Zm.67-1.15c-.15,.02-.28,.03-.46,.08-.62,.16-1.25,.29-.33-.47,.45-.38-.01-.06,.31-.12,.6-.12,2.45-.99,.48,.51Zm19.25-7.68c-.23,.05-.27-.05-.37-.09,.56-.32,.94-.49,.95-.37,0,.1-.43,.43-.58,.46Zm-12.23-24.88c.66,.41,1.34,.99,1.89,1.44,.48,.4,.26,.4-.19,.22-1.11-.43-2.76-1.3-3.29-1.27-.47,.02-1.17-.34-2.59-1.27-2.08-1.37-.52-.74-1.04-1.19,.37-.19,3.64,1.09,5.22,2.07Z"/><path class="b" d="M225.65,291.68c-1.5,.86-3.35,2.02-4.37,2.49-.75,.33-.49-.24-.64-.43,4.66-2.73,4.99-2.98,3.34-2.85-1.02,.5-1.45,.56-.64-.11,1.23-1.02,1.13-1.13-.23-.56-.56,.23-.48-.08-.65-.18,1.09-.49,2.18-.98,3.28-1.48,.31-.14,.83-.37,.99-.49,.62-.45,.4-.45,.11-.39-.77,.16-1.49,.29-2.37,.54-.81,.23-2.12,1.08-3.27,1.83-1.24,.8-2.25,1.57-1.77,1.61,.12,.01,.23,.03,.19,.14-.01,.08-.33,.33-.61,.53-.68,.45-.78,.3-.87,.19-.19-.26-1.24,.71-1.56,.67-.3-.06-.66-.04-.85-.15-.38,.38-.49,.59-.51,.75-.03,.16,.04,.25-.13,.5-.25,.35-.57,.83-1.36,1.35-.18,.11-.41,.34-.33,.08,0-.13,0-.23,0-.29-.02-.12-.07-.12-.13-.06-.12,.12-.29,.5-.4,.53,.15-.79,.38-1.58,.54-2.28,.16-.72,.24-1.33,.12-2.12-.04-.3,0-.79,.06-1.32,.07-.56,.16-1.15,.23-1.69,.42-3.57,.28-6.19-.33-5.93-.1,.04-.28,.58-.41,1.07-.22,.78-.18,1.41-.1,1.53,.21,.34-.03,2.59,.32,2.39,.14-.08,.15,.32,.12,.84-.02,.24-.05,.51-.07,.77l-.08,.65c-.12,.98-.33,.93-.44,.83-.45-.45-1.03,.92-1.7,3.12,.09-1.42,.12-2.63,.12-3.75,0-.55,0-1.12-.03-1.59-.03-.41-.07-.8-.11-1.17-.11,.73-.21,1.47-.32,2.19-.19,1.18-.4,2.59-.54,2.15-.05-.16,.06-1.46,.15-2.32,.11-1,.19-1.49,.28-2.2l-.38,1.2c-.03,.08-.07,.22-.1,.38l-.11,.44-.23,.91c.3-1.84,.35-2.75,.45-3.92,.1-1.11,.2-2.1,.42-2.71,.47-1.33,.92-1.17,1.37-1.58,.12-.11,.2,.16,.31,.1,.16-.08,.38-.5,.51-1.59,.1-.82,.15-1.8,.11-2.3-.04-.51-.17-1-.31-.7-.89,1.92-.39-1.32-.24-3.38,.07-.99,.24-1.76,.38-2.65,.13-.81,.06-1.11-.05-1.16-.11-.05-.24,.19-.36,1.03-.12,.91-.21,1.83-.34,2.73-.11,.71-.27,1.25-.38,1.07-.49-.82-.21-4.55,.53-7.44,.14-.54,.37-.15,.4-1.56,0-.36-.18-.2-.29-.2-.62-.04-1.27,4.39-1.94,5.76-.51,1.04-.6,2.1-.31,3.5,.12,.57,.11,.87-.17,1.8-.18,.61-.39,1.11-.39,2.19,0,2.23-.2,4.2-.52,6.02-.16,.91-.35,1.79-.56,2.65l-.08,.32-.04,.16-.06,.28-.24,1.18-.48,2.4c-.48,2.42-.77,4.08-.84,5.05-.07,.97,.05,1.27,.37,1.18,.32-.08,.3,1.36,.2,3.14-.06,.9-.12,1.88-.19,2.82l-.08,1.34c0,.2-.04,.45,0,.57,.2-.14,.39-.28,.57-.42,1.93-1.43,1.97-.99,3.78-2.08,.99-.6,1.59-.8,2.41-1.2,.94-.79,2.34-1.86,2.57-2.21,.23-.34-.63,0-.98,.02,1.77-1.2,3.54-2.4,5.31-3.61l.67-.38,.34-.19,.23-.12-.23,.05-.34,.12c.07-.13,.1-.31,.21-.38,1.81-1.19,3.74-2.18,5.51-3.47,.73-.53,1.26-.7,1.22-.58-.1,.35,1.23-.05-1.09,1.47-1.44,.94-1.29,1.06-1.03,1.1,.36,.06,1.52-.5,2.71-1.22,1.33-.79,1.21-.98,1.23-1.2,.02-.29,1.54-1.44,.3-1.01-1.41,.5-.45-.32,.32-1.09,1.13-1.13-.48-.63-3.17,.96-.76,.45-1.46,.92-1.89,1.01Zm-16.36-2.07c.13-.75,.17-.54,.21-.25,.07,.44,.18,.59,.28,.84-.29,1.55-.51,2.21-.63,1.62-.06-.29-.07-.97,.14-2.21Zm3.46,9.38c-.57,.34-1.6,.97-1.56,.91,.1-.16,.15-.28,.13-.35,0-.03-.03-.05-.07-.06-.02,0-.04,0-.07,0-.03,0-.07,.03-.03-.09,.17-.68,.33-1.53,.47-2.63,.18-1.38,.36-2.89,.7-3.33,.45-.57,.19,1.24,.18,2.25-.01,.72,.18,.41,.34,.29v.74c0,.06,.05-.01,.08-.03l.1-.08,.21-.16,.4-.29c.52-.37,.97-.63,1.42-.76,.29-.08,1.12-.61,.63-.05-.8,.89-.91,1.32-.39,1.35,.56,.02-1.87,1.61-2.52,2.3Z"/><path class="b" d="M247.98,195.3c-.53-.25-1.4-.79-2.13-1.26-1.31-.85-3.03-2.18-3.79-2.46-.6-.21,1.01,1.19,.3,1.05-.34-.07,.12,.5,.23,.79,1.45,1.17,2.03,1.83,1.76,2.03,1.41,.92,1.88,.93,2.36,1.07,1.09,.31,1.98,2.02,2.72,1.79,.26-.08,.64-.07,1.56,.34,1.91,.85,4.16,2.34,6.47,3.93,1.52,1.05,3.01,2.12,4.45,3.18,1.07,.78,2.02,1.68,3.13,2.3,1.89,1.04-.45-.7-.06-.65,.21,.03,.7,.24,1.18,.51,.91,.52,1.95,1.2,2.84,1.68,1.13,.62,2.13,1.08,1.56,.4-.59-.7-1.96-1.53-2.94-2.04-1.49-.77-2.79-1.34-4.14-1.97-.64-.3-1.22-.56-2.03-1.23-.68-.55-1.01-.93-.94-1.06,.05-.09,.43,.04,.68,.1,.89,.18,1.04,.03-1.64-1.61-1.53-.94-3.1-2.02-3.21-2.61-.08-.44-1.32-1.05-2.12-1.52-.78-.46-1.43-.77-1.11-.36,.18,.23,.59,.61,.99,.96,.65,.57,1.82,1.46,1.06,1.21-.62-.21-1.92-1.09-2.65-1.7-1.8-1.5-3.09-2.19-4.54-2.87Z"/><path class="b" d="M215.79,266.99c.17-2.51-.04-3.56-.24-4.78-.22-1.37-.19-1.48,.53-3.94,.2-.91,.27-.95,.21,.06,.27-.34,.64-1.23,.25,1.54,.53-.69,.95,.02,1.59-2.14,.14,.08,.28,.13,.41,.22,.14,.08,.33,.03,.49-.79,.11-.58,.15-1.12,.17-1.6v-1.7c-.06-1.72-.07-2.85,.05-4.04,.03-.3,.07-.6,.12-.92,.03-.16,.05-.32,.08-.48l.05-.25,.02-.13s-.06-.02-.08-.04c-.58-.1-1.18-.23-1.9-.4-.65-.15-.66-.32-2.26-.45-.91-.06-1.98-.14-2.79-.19-.67-.03-.8,.08-.39,.23l.37,.14,.19,.07c.05,.02,.13,.05,.26,.08,.43,.11,.8,.19,1.28,.26,1.68,.26,2.94,.5,3.82,.74,.22,.06,.42,.12,.6,.17,.04,.02,.1,.02,.12,.05l-.06,.19-.11,.36c-.14,.46-.28,.84-.42,1.16-.54,1.26-1,1.43-1.47,1.18-.13-.07-.31,.15-.46,.2-.25,.1-.43,.51-.55,1.07-.06,.28-.11,.6-.16,.95l-.13,1.19c.06,.36,.28-.05,.14,1.15-.02,.14-.19,.2-.31,.29-.06,1.36-.92,3.8-.34,4.28-.22,2.24-.64,2.48-.95,3.92,.31,.31,.75-.13,.88,1.15,.16,1.54,.6,1.15,.98,1.22Z"/><path class="b" d="M217.3,249.04c-.51-.21-1.12-.42-2.1-.61-.49-.09-1.07-.19-1.77-.27-.8-.12-1.34-.22-2.07-.32l-2.5-.05c-.84-.03-1.67-.11-2.51-.17l-2.52-.18-2.51-.28c1.31,.45,1.38,.61-.24,.39-.06,.2-.21,.39-.14,.62,.03,.1,.38,.3,1.28,.46,.39,.07,.87,.12,1.02,.1,.26-.04,.43-.13,.42-.24,0-.36,.41-.47,3.04,.2,1.24,.35,3.07,.56,4.09,.41,2.3,.69,.46,.96,.96,1.46,.05,.05,.16,.1,.31,.14,.14,.03,.4,.07,.51,.07,.28,.02,.78-.04,.76-.06-.3-.29-.13-.51,.49-.69,.61-.18,1.64-.31,2.86-.43,1.2-.12,1.21-.32,.63-.56Z"/><path class="b" d="M59.64,135.77c.05-.1,0-.58-.14-.84-.46-.93-1.04-1.7-1.07-1.53-.09,.9-.9-.59-1.85-2.76-.2-.45-.54-.89-.81-1.33,.71,2.07,.67,2.75,.17,2.57-.38-.14-.11,.71,.77,2.31,.42,.75,.84,1.68,1.27,2.49,.77,1.45,3.17,4.94,3.28,4.66,.11-.41-.19-1.46-1.13-3.48-.72-1.54-.62-1.84-.49-2.09Z"/><path class="b" d="M45.82,89.23c.14,.04,.3-.09,.51,.78,.24,.99,.23,1.65,.14,1.97,.56,1.79,1.11,2.96,1.45,2.97,.18,0,.36,0,.77,1.07,.26,.11,.51,.22-.01-1.75-.22-.82-.44-1.51-.66-2.15-.2-.65-.41-1.24-.66-1.86-.92-2.34-.09-1.08-.19-1.74-.08-.53-.24-1.2-.36-1.82-.29,.23-.77-.65-1.35-1.99-.41-1.03-.64-1-.29,.86,.22,1.23,.44,2.44,.66,3.66Z"/><path class="b" d="M171.2,236.14c.2,.09,.86,.28,1.05,.29,.16,0,.06-.17-.11-.24-2.82-1.29-4.14-2.49-7.67-3.7-1.66-.71-2.96-1.27-4.18-1.8-1.57-.63-2.83-.98-2.82-.65,0,.29,1.33,.91,2.64,1.53,3.62,1.67,7.49,2.85,11.09,4.58Z"/><path class="b" d="M214.73,190.02c-.3-1.01-.56-1.4-.9-2.85-.96-4-1.01-3.95-1.15-1.67-.05,.64-.06,1.34-.29,1.23-.25-.12-.02,1.06,.14,1.92,.13,.68,.35,1.4,.4,1.04,.24-1.72,.92-.06,1.55,1.44,.14,.33,.27,.5,.39,.71,.05-.25,.09-.44,.13-.62-.09-.4-.18-.86-.27-1.2Z"/><path class="b" d="M200.99,246.29c.44-.04,.93-.05-.05-.39-.92-.32-1.47-.36-2.22-.41-1.13-.11-2.5-.34-3.22-.26-1.34,.14-.32,.78,2.85,1.7,.85,.21,1.75,.4,2.63,.6l.24-.4c-1.61-.59-1.09-.76-.23-.84Z"/><path class="b" d="M187.12,245.47c-.29-.18-1.56-.54-1.37-.42,1.68,1.06-1.55-.11-2.5-.27-1.06-.18-1.36-.11-.77,.4,.25,.22,.12,.34,.12,.49,0,.22,.59,.59,1.79,.97,1.22,.38,1.81,.32,2,.22,.46-.26-.73-1.04,1.43-.73-.25-.25-.3-.42-.7-.66Z"/><path class="b" d="M215.03,196.66c-.32-1.32-.69-2.35-.84-1.78-.22,.8-.34,2.11-.45,3.48-.06,.77,.24,1.9,.37,2.04,.23,.22,.4-.14,.71,.8,.09-.02,.2,0,.3-.07,.4-.32-.31-3.69-.09-4.46Z"/><path class="b" d="M282.33,216.63c.39-.21,.72-.46,1.65-.3,.99,.16-.4-.95-1.85-2.07-.67-.52-2.92-1.61-2.55-1.29,2.26,1.99-.32,1.14,1.61,2.92l1.14,.74Z"/><path class="b" d="M186.26,243.01c.2-.29,.33-.37,.32-.48-.01-.15-.11-.35-1.23-.71-.68-.22-1.08-.26-1.41-.26-.31,0-.89-.11-1.16-.1-.89,.03-1.14,.29,.51,1.08,.24,.12,.81,.33,1.1,.4,2.01,.48,1.83,.1,1.87,.07Z"/><path class="b" d="M277.14,213.45c1.34,.74,1.64,.65,.69-.16-1.21-1.04-3.34-2.35-4.22-3.31-.33-.36-.92-.6-1.37-.75,.25,.38,.48,.77,.85,1.24,.65,.84,2.05,1.87,4.06,2.98Z"/><path class="b" d="M211.51,174.01c-.54-.72-1.46-4.46-2.05-5.47,.49,2.06,1.09,3.97,1.27,5.95,.15,1.48,.55,2.99,.81,3.08,.16,.06,.24-.18,.51,.44,.38,.86,.43,.35,.18-1.17-.17-1.07-.54-2.57-.73-2.83Z"/><path class="b" d="M186.84,240.57c-1.02-.06-2.44-.49-4.01-1.03-.79-.29-1.97-.72-2.19-.65-.14,.04,.93,.54,1.4,.82,.48,.29,1.6,.84,1.81,.75,.8-.33,3.12,.79,4.6,1.16,.89,.2,1.69,.37,1.58,.16-.1-.17-.57-.44-1.46-.76-.67-.25-1.35-.44-1.72-.46Z"/><path class="b" d="M136.38,174.29c.27,.13,.58,.29,.82,.39,.62,.24,1.13,.38,.67-.13-.19-.21-.87-.75-1.34-1.08-1.37-.95-1.88-1.08-2.11-.96-.07,.03-.12,.09-.19,.14,0,.19-.43,.11,.13,.69l2.01,.96Z"/><path class="b" d="M267.42,209.93c-.5,.18,1.27,1.48,2.06,2.25,.47,.46,1.09,.56,1.44,.66,.85,.26-.49-.77-.8-1.21-.18-.25-.18-.5-1.37-1.17-.75-.42-1.25-.6-1.32-.54Z"/><path class="b" d="M213.98,279.9c-.12,1.36,.08,1.39,.25,1.39,.2,0,.18,1.63,.56,.08,.1-.41,.23-1.42,.24-1.89,.03-1.02-.18-.98-.36-1.26-.11,.15-.28,.3-.45,.63-.07,.13-.21,.77-.24,1.05Z"/><path class="b" d="M49.68,116.98c-.27-.13-.4,.66-.17,1.22,.6,1.33,1.38,2.66,1.47,2.49,.16-.29-.13-1.6-.23-2.47-.38-.4-.73-.82-1.08-1.23Z"/><path class="b" d="M108.63,200.89c1.04,1.02,2.08,1.86,2.97,2.43,.34,.23,.49,.19,.61,.16,.03,0-.48-.49-.54-.55-1.08-.92-1.92-1.71-2.76-2.46-.86-.76-2.21-2.22-2.42-2-.16,.17,1.14,1.45,2.15,2.42Z"/><path class="b" d="M248.99,199.88c.1,.22,.68,.62,1.14,.94,2.14,1.48,3.66,2.22,3.95,1.92,.04-.04-.33-.35-.51-.54l-4.57-2.33Z"/><path class="b" d="M214.7,254.2c-.07-.21-.23,.01-.3,.33l-.02,.14-.02,.25c-.01,.16-.01,.3,0,.43,0,.24,.04,.4,.09,.45,.25,.28,.52,.4,.78,.58,.06-.46,.12-.92,.17-1.33v-.68c0-.14-.02-.23-.05-.29-.05-.11-.12-.07-.2,0-.16,.14-.34,.39-.43,.12Z"/><path class="b" d="M70.24,148.55c.16-.07,.38-.02,.43-.26,.04-.2-.19-.89-.67-1.66-.49-.79-.69-.78-.85-.79-.41-.03-.66,.17,1.08,2.71Z"/><path class="b" d="M234.02,289.97c-.34,.27-.41,.39-.09,.27,.25-.09,.56-.23,.86-.35,1.6-.83,1.41-1.15,2.53-1.86,.78-.5,2.37-1.42,1.74-1.32-.53,.08-1.59,1-2.52,1.53-.99,.56-1.82,1.16-2.52,1.73Z"/><path class="b" d="M234.29,281.98c-.01-.13-.46,0-1.01,.33-1.63,.95-1.87,1.45-2.86,2.22-.49,.37,.62-.27,1.02-.47,1.48-.86,2.89-1.68,2.86-2.08Z"/><path class="b" d="M131.08,172.9c.04-.17,.49-.13-.83-1.15-.85-.65-1.04-.56-1.21-.47-.04,.14-.47,.1,.88,1.13,.87,.66,1.13,.64,1.17,.48Z"/><path class="b" d="M174.69,236.13c.09-.04-.38-.29-.99-.55-1.11-.45-2.73-.83-2.49-.55,.14,.17,.65,.44,1.34,.7,1.21,.44,2.01,.64,2.14,.39Z"/><path class="b" d="M262.4,207.35c.02,.24,.73,.75,1.53,1.28,.95,.63,1.45,.81,1.59,.73,.14-.09-.09-.43-1.06-1.05-1-.64-1.81-1.03-2.07-.95Z"/><path class="b" d="M123.28,210.82c.63,.29,.66,.04-.33-.82-.78-.66-1.67-1.45-2.62-2.09-.42-.29-.58-.36-.37,.01,.03,.28,1.19,1.06,1.93,1.7,.5,.43,.36,.73,1.38,1.2Z"/><path class="b" d="M259.36,205.06c-.69-.25-1.28-.42-1.92-.63l.2,.35c.35,.2,.81,.49,1.02,.57,.73,.29,1.41,.53,2.04,.73,.16,.05,.18-.07,0-.22-.5-.44-1.04-.69-1.34-.8Z"/><path class="b" d="M290.24,219.76s-.55-.47-.84-.64c-1.36-.81-1.94-.96-2.18-.86,.19,.26,.7,.69,1.19,.94,1.08,.56,1.69,.72,1.83,.55Z"/><path class="b" d="M216.09,250.41c-.72-.04-.8,.18-.96,.31-.2,.17-.35,.34-.49,.51-.02,.03,.11,.06,.17,.1,.21-.02,.52-.03,.61-.06,.24-.09,.38-.19,.51-.25,.11-.1,.19-.17,.26-.23,.13-.13,.55-.33-.1-.37Z"/><path class="b" d="M137.45,218.87c.57,.12-.18-.36-.93-.85-.79-.51-1.49-.86-1.04-.37,.35,.38,.25,.58,1.45,1.34,1.06,.51,.12-.21,.52-.11Z"/><path class="b" d="M95.95,146.76c.53,.58-.7-.28,.53,.88,.43,.41,.93,.65,1.16,.69,.11,.02-.27-.57-.56-.88-.94-.99-.79-.57-1.13-.69Z"/><path class="b" d="M234.61,283.5c-.6,.37-1.06,.71-1.05,.84,0,.25,.8-.1,1.85-.71,.26-.15,.51-.48,.71-.68-.25-.05-.46-.09-1.5,.54Z"/><path class="b" d="M229.3,184.54c-.6-.3-1.27-.6-.48,.11,.35,.32,.98,.76,1.49,1.15,.06-.04,.17-.05,.16-.14-.01-.14-.11-.33-.18-.51-.34-.21-.75-.5-.99-.61Z"/><path class="b" d="M101.16,152.07c-.23,.06,.12,.58,1.15,1.55,.31,.29,.64,.55,1.15,.98-.63-.81-1.21-1.56-1.79-2.31-.18-.08-.44-.25-.51-.23Z"/><path class="b" d="M268.75,269.45c-.08,.22,.11,.26,1.02-.22,.71-.37,1.09-.69,1.21-.88,.19-.3-.39-.07-1.15,.3-.83,.41-.91,.59-1.09,.8Z"/><path class="b" d="M175.41,238.19c.83,.28,1.62,.49,1.64,.32,0-.03-.64-.32-1.02-.47-.82-.32-1.7-.64-1.88-.5,.14,.18,.59,.42,1.26,.65Z"/><path class="b" d="M209.76,246.27c.21-.13-.44-.24-1.09-.33-.59-.09-1.39-.2-1.7-.18-.43,.02,.03,.23,.67,.37,.98,.24,1.67,.23,2.13,.14Z"/><path class="b" d="M150.76,182.25c.35,.11,.49,.08-.19-.4-.77-.5-1.1-.58-1.2-.52-.09,.05,.11,.3,.19,.45,.4,.16,.86,.36,1.2,.47Z"/><path class="b" d="M198.65,249.48c.12,.14,.55,.25,.78,.19,.27-.07,.32-.2,.36-.33,.02-.04-.31-.15-.55-.27-.76,.03-.75,.2-.58,.42Z"/><path class="b" d="M119.17,165.61c.24,.05-.03-.31-.55-.77-.7-.61-.82-.54-.97-.53,0,.13-.16,.18,.71,.83,.3,.23,.68,.45,.81,.47Z"/><path class="b" d="M262.32,201.81c.11-.04-.02-.28-.83-.77-.55-.33-.94-.5-.99-.41,.13,.23,.45,.58,1.02,.93,.33,.2,.7,.28,.8,.24Z"/><path class="b" d="M244.72,284.17c-.17,.29,.34,.11,1.27-.45,.54-.33,.96-.65,.94-.77-.04-.11-.39,.02-1.01,.35-.72,.39-1.1,.72-1.19,.88Z"/><path class="b" d="M212.46,304.01c.26-.06,.95-.47,1.78-1.04,1.03-.72,1.78-1.3,1.12-1.01-.28,.12-1.13,.65-1.63,.94-1.18,.82-1.6,1.19-1.27,1.11Z"/><path class="b" d="M34.6,53.15c-.02,.07,.09,.56,.21,.84,.27,.68,.56,1.21,.62,1.03,.02-.07-.14-.56-.21-.84-.31-.76-.56-1.22-.62-1.03Z"/><path class="b" d="M192.11,242.32c.05,.06,.6,.28,.91,.37,.65,.19,1.22,.26,1.03,.09-.08-.06-.6-.24-.88-.36-.8-.22-1.2-.26-1.07-.1Z"/><path class="b" d="M213.7,254.03c-.1,0-.2,.07-.31,.1,0,.16,.03,.25,.08,.32,.02,.04,.05,.07,.08,.1,.03,.03,.04,.16,.06,.26,.03,.23,.08,.26,.13,.14,.02-.06,.05-.16,.07-.28l.04-.21c.04-.29-.04-.42-.15-.42Z"/><path class="b" d="M246.52,193.57c-.97-.64-1.1-.55-1.21-.44l.42,.46c.46,.18,.95,.37,1.35,.5,.05,.01-.37-.39-.56-.52Z"/><path class="b" d="M81.71,165.62c-.2-.35-.43-.78-.61-1.01-.19-.25-.45-.47-.49-.42-.07,.07,.17,.49,.49,.84,.22,.25,.4,.4,.6,.6Z"/><path class="b" d="M64.32,147.31c-.07-.02,.03,.31,.06,.48,.21,.21,.42,.43,.59,.59l-.1-.61c-.19-.17-.43-.43-.55-.46Z"/><path class="b" d="M209.11,253.14c0,.09,.24,.21,.39,.32,.26-.02,.69-.02,.72-.07,.05-.08-.16-.2-.28-.34-.39,.03-.83,.03-.83,.08Z"/><path class="b" d="M197.52,203.8c-.05-.06-.41-.22-.63-.34-.15,.04-.37,.06-.42,.14-.02,.03,.36,.22,.52,.31,.64,.16,.65,.04,.53-.1Z"/><path class="b" d="M217.27,190.78c.19,1.09,.38,1.56,.54,1.58,.06,0,.13-.23,.11-.53-.07-.88-.24-1.12-.34-1.19-.12-.08-.21,.08-.31,.14-.24-1.15-.28-.94-.22-.07l.22,.08Z"/><path class="b" d="M272.17,265.45c-.02,.11-.12,.32,.69-.18,.15-.09,.21-.27,.32-.4l-.51,.08c-.18,.17-.48,.42-.5,.5Z"/><path class="b" d="M105.54,196.4c.1,.03-.07-.26-.27-.49-.36-.41-.83-.86-1.25-1.31,.15,.28,.26,.51,.49,.83,.26,.37,.71,.85,1.03,.96Z"/><path class="b" d="M189.77,200.73c.27,0,.01-.22-.73-.52-.59-.24-1.24-.46-1.31-.36-.03,.04,.38,.26,.58,.4,.65,.3,1.21,.49,1.46,.48Z"/><path class="b" d="M230.28,178.4c-.01-.16-.56-.58-1.1-.88-.26-.15-.37-.12-.55-.17,.08,.18,.38,.42,.84,.67,.31,.17,.81,.44,.81,.39Z"/><path class="b" d="M213.09,252.8c-.07,.08-.15,.19,.11,.19,.06,0,.19-.1,.32-.16,0-.06,.2-.18-.14-.18-.09,0-.24,.09-.29,.15Z"/><path class="b" d="M232.6,187.64c.02,.07,.29,.31,.43,.45,.65,.36,.63,.21,.64,.09,0-.04-.23-.26-.29-.3-.66-.41-.81-.39-.78-.24Z"/><path class="b" d="M213.89,264.71c-.12-.06-.24-.32-.42,.55-.04,.19-.05,1.32,.02,1.3,.18-.04,.28-1.1,.41-1.86Z"/><path class="b" d="M170.67,192.31c.42,.33,.85,.68,1.24,1,.38,.32,.77,.71,1.6,1.02,.5,.19,.68,.06,.74-.06,.12-.23-1.07-.95-2.1-1.55-1.61-.94-1.35-.52-1.53-.44-.6-.28-1.23-.58-1.77-.83-.29-.13-.66-.22-.61-.14,.15,.24,.77,.55,1.26,.7,.45,.15,.79,.21,1.17,.3Z"/><path class="b" d="M269.36,268.13c.33-.07,.92-.41,1.46-.75,.26-.17,.43-.34,.61-.48-.33,.06-.93,.42-1.45,.75-.26,.17-.66,.5-.61,.49Z"/><path class="b" d="M165.49,189.9c.07-.06,.11-.16-.61-.53-.18-.09-.35-.06-.53-.09,.06,.12-.13,.16,.61,.53,.2,.1,.47,.13,.52,.09Z"/><path class="b" d="M235.87,184.6c.03-.11-.27-.42-.9-.84-.23-.15-.45-.22-.78-.38,.38,.34,.74,.66,1.09,.98,.21,.09,.58,.28,.59,.24Z"/><path class="b" d="M213.08,193.49c-.03,.2-.08,.35-.09,.62-.01,.37,.06,.8,.16,1.04,.16,.36,.19,0,.15-.6l-.22-1.06Z"/><path class="b" d="M295.49,253.2c0,.08,.27-.03,.42-.05,.23-.19,.64-.5,.66-.56,.01-.08-.27,.03-.43,.06-.23,.2-.64,.5-.64,.55Z"/><path class="b" d="M162.69,190.19c-1.09-.63-.78-.26-1-.26l1.12,.64c-.03-.13-.01-.31-.13-.38Z"/></svg>