<?xml version="1.0" encoding="UTF-8"?><svg id="a" xmlns="http://www.w3.org/2000/svg" viewBox="0 0 350 350"><defs><style>.b{fill:#010101;}</style></defs><path class="b" d="M222.6,190.83c.04-.72,.08-1.49,.25-1.98,0,.68-.01,1.46,.04,2.03,.05,.63,.17,1.12,.26-.33,.1-1.55,.32-1.8,.55-2.04,.15-.16,.32-.13,.39-1.1,.08-1.02-.1-1.04-.22-1.25-.2-.36-.32-1.11-.37-2.09-.09-1.7-.26-3.46,.4-4.83,.29-.61,.36-2.25,.44-3.59,.37-.98,.41-2.41,.39-3.87-.04-2.79-.04-2.83,.57-3.98-.35,2.46-.26,4.65-.24,6.89,.09,.17,.26,.35,.25,.49-.07,1.01-.21,.52-.33,.72-.14,1.77-.41,3.18-.67,4.61-.1,.53-.14,1.06-.11,1.57,.05,.8,.21,.63,.36,.54,.24-.13,.5-2.31,.72-1.08,.17,.98,.32,2.59,.67,.97,.47-2.18-.03-2.69-.15-3.84-.05-.44-.11-.82-.14-1.31-.04-.88,.11-1.57,.26-1.78,.18-.27,.44-.58,.53-.15,.41,1.99,.76-.81,1.16-1.58,.9-1.76,.04-4.39,.52-6.16,.02-.08,0-.61-.02-.94-.15,.37-.3,.92-.44,1.06-.17,.18-.24-.53-.22-1.31,.06-1.83-.02-3.12-.26-4.21-.2-.9,.01-1.99,.25-2.75,.17-.53,.38-.52,.51-1.58-.11-.16-.31-.04-.23-.94,.04-.52,.25-.89,.39-1.33l-.14,2.2c.3-.64,.37-1.4,.16-2.29-.15-1.61-.35-3.01-.58-4.28-.18-1.01-.02-1.96,.27-2.47,.11-.2,.22-.18,.33-.2,.14-.02,.36,.09,.4-.59,.04-.66-.2-.58-.32-.79-.25-.43-.47-1.12-.73-1.4-.35-.37-.44-1.21-.15-3.11,.08-.54,.15-1.09,.02-1.16-.11-.06-.2,.57-.28,1.12-.05,.38-.25,1.97-.22,.61,.08-2.83-.5-1.42-.65-2.61-.05-.45-.31-.6,.05-.92,.6-.53,.23-2.51,.45-3.57,.44-1.29,.6-3.21,.28-3.9-.46-1-.41-2.55-.15-5.07,.15-1.43-.05-1.79-.28-1.83-.48-.07-.32-1.76-.13-3.53,.58-.19,1.12,.29,1.59,.83,.49,.57,1.25-1.13,1.5,1.41,.38,1.15,.24,4.56,.84,4.95,.14,.09,.22,.59,.41-.03,.19-.61,.4-1.27,.31-2.3-.12-1.45,.02-2.63,.36-3.95,.44-1.66,.59-3.91,.79-5.92,.19-1.83-.15-2.05-.31-2.87-.19-.96,.5-1.48,.4-2.81-.12-1.46,.02-2.68,.47-4.23,.16-.54,.02-1.44-.07-1.94,.1-.93,.23-1.91,.28-2.77,.09-1.32,.2-1.9,.4-1.3,.11,.34,.25,.31,.43-.37,.23-.85,.15-1.43,.13-1.94-.06-1.25-.12-2.39-.37-3.09-.39-1.16-.28-2.37,.51-4.47,.14-.37,.28-.54,.41-.92,.7-1.89,1.54-7.32,1.21-8-.45-.93,.06-2.81,.4-4.66-.39,.73-.73,2.27-1.1,3.32-.2,.56-.48,.76-.31,0,.44-2.08,.02-1.43-.08-1.77-.08-.28-.21-.38-.32-.57,.19-.5,.39-1.11,.58-1.49,.73-1.45,1.41-4.46,2.18-5.36,.11-.62,.23-1.16,.36-1.64l.25-.89,.28-.92c.37-1.2,.78-2.34,1.16-3.75,.43-1.09,.77-.91,1.33-3.66l.15-.73,.04-.19s-.12,0-.18,0h-.37c-.49,.02-.99,.03-1.48,.04-1,.01-2.01,.03-3,.04-1.01,.02-2.03,.06-3.03,.13-.5,.04-.99,.08-1.48,.14l-.71,.1c-.26,.04-.32,.07-.49,.11-1.1,.29-1.92,.36-3.16,.19-.21-.03-4-.51-2.66,.39,.34,.23-1.59,.43-1.68,.73-.06,.22-1.22,.28-1.54,.01-.34-.29-1.29-.25-2.48-.02-.75,.15-1.3,.29-2.46,.2-2.79-.22-5.74-.21-9.1,0-1.74,.11-1.86-.08-1.95-.3-.36,0-.73,.02-1.09,.02-.07,.45,.19,.82,3.24,.84,1.73,0,2.33,.58,5.05,.31,.38-.04,.54,.14,.37,.25-.17,.12-.47,.22-1.21,.18-1.05-.05-2.17-.07-3.31,.06-1.01,.13-1.97,.25-2.95,.38l-.41-.72c-.39,0-.77,.02-1.16,.03-2.38,.34-2.61,.31-3.39-.16l-2.32,.03c-1.18,.46-5.15,.14-5.76,.75-.16,.17-1.11,.28-2.19,.21-1.44-.08-1.36-.33-1.33-.54,.02-.21,.03-.41,1.23-.5-.02-.24,.92-.39,1.35-.58,1.4-.63,.7-1.02-2.62-1.33-1.36-.15-4.17-.31-4.48-.16-1.05,.56-2.94,.04-4.35-.04-1.62-.09-4.06-.51-4.71-.29-.3,.11-.57,.17-.84,.18-.43,0-.86-.04-1.28-.11-.85-.12-1.76-.39-2.81-.59-1.4-.28-3.01-.56-4.62-.82-1.82-.3-2.16-.25-1.6,.01,.55,.26,.35,.38-.29,.39,.16,.76,.44,1.93,.61,3.14,.2,1.3,.56,2.95,.81,4.37,.25,1.43,.39,2.67,.2,3.42l.1,1.37c.03,.38,.07,.77,.13,1.16,.11,.78,.25,1.58,.4,2.35,.4,2.02,.19,1.75-.13,1.27-.13-.19-.24-.18-.35-.18-.45,0-.06,2.06,.03,3.32,.12,1.49,.36,1.09,.54,1.32,.16,.22,.47,.53,.45,1.06-.09,1.62,.65,3.23,.6,4.57-.04,.9,.05,2.32-.3,2.16-.11-.05-.38-.32-.18,.89,.12,.77,.38,1.41,.49,1.19,.35-.74,.49,.42,.54,1.85,.02,.57-.12,1.3-.2,1.12-.81-1.73-.33,1.18-.15,1.76,.52,1.55,.6,2.83,.62,4.35,.04,2.23,.29,3.58,.85,3.85,.22,.1,.42,.68,.54,1.87,.1,.95,0,1.18-.13,1.37-.34,.51-.04,1.75,.2,1.88,.27,.15,.37,.07,.33,1.34-.02,.54-.23,.99-.06,1.54,.71,2.35,1.31,5.37,1.97,7.89,.26,1,.59,1.41,.61,3.01,.01,1.36-.15,1.91-.53,1.05-.25-.57-.41-.51-.34,.72,.11,2.02,.57,3.98,.67,6.06,.02,.35,.23,.66,.29,.27,.04-.21,.03-.6,.06-.84,.13-1.11,.45-.87,.7,.32,.3,1.49-.15,.74-.18,1.36-.04,.9,.14,.94,.22,.97,.59,.25,.36,2.39,.58,3.49,.36,1.74,.91,.69,.99,1.95,.18,2.81,.45,2.76,.81,3.04,.11,.08,.27,.44,.29,1.15,.02,.58-.08,.86-.21,.56-.48-1.13-.65-.51-.66,1.36-.49-.48-.86,1.1-1.47-1.16-.18-.64-.28,.36-.24,1.43,.05,1.4,.23,2.86,.48,3.74,.89,3.07,1.59,6.7,2.23,10.75,.02,.12,.07,.15,.11,.21-.02-.76,.04-1.42,.18-1.4,.21,.04,.23,1.11,.27,1.73,.11,1.76,.05,3.19-.15,4.24-.19-1.13-.27-2.25-.22-3.36-.24,.1-.64-.86-.43,1.88,.08,1.07,.08,2.1,.26,3.2,.32,1.87,.59,3.72,.46,5.89-.05,.79,.14,2.08,.35,2.23,.21,.15,.32-.92,.19-1.81-.38-2.71-.18-3.28,.27-3.35,.24-.04,.39-1.09,.67-.85,.12,1.45,.28,3.03,.53,1.5,.33-2.06,1.3,.67,1.36-3.17,0-.04,.21,.31,.33,.51,.29,.52,.61,2.3,.85,1.03,.24-1.34-.03-2.67-.32-3.92-.03-.14-.07-.36-.08-.53-.1-1.65,.4-2.06,.17-3.56-.18-1.15-.59-.06-.86-2.02-.03-.18-.07-.36-.08-.52-.14-2.36-.57-3.6-.94-5.11-.5-2.02-.51-2.42-.04-2.89,.46-.46,.38-3.19,.7-4.2,.07-.23-.12-.91-.21-1.36-.13-.62-.34-1.49-.35-2-.08-2.98-.47-4.02-1-4.53-.16-.16-.37-.49-.28-1.36,.13-1.26,.01-2.41-.23-4.11-.21-1.48,.08-.58,.22-.22,.19,.48,.45,1.68,.51,.57,.06-1.12-.25-1.5-.42-2.11-.2-.71-.18-1.31-.19-2.04-.05-3.13-.59-6.14-1.15-8.71-.3-1.39-.53-2.62-.74-4.13-.3-2.06-.65-3.99-.49-5.8,.14-1.65-.71-3.81-.63-5.32,.1-1.76-.11-2.29-.54-3.32-.51-1.23-1.12-4.76-1.27-6.38-.11-1.06,.65-.16-.08-2.43-.36-1.11,.13-1.77-.28-3.36-.41-1.58,.03-2.23-.24-3.43-.36-1.58-.63-.8-.96-1.36-.03-.06-.08-.27-.11-.35-.43-.97-.43-.97-.48,.62-.15-.3-.39-.1-.43-1-.07-1.52,0-2.77-.45-4.66-.22-.9-.22-1.76-.09-1.71,.5,.21,.34-1.75,.14-3.13-.11-.76-.16-1.47-.18-2.15-.01-.36-.01-.64,0-.91v-.8c0-1.06-.05-1.97-.63-3.7-.03-.1-.02-.69,.05-.8,.01-.02,.02-.05,.03-.07,0-.03,0-.06,.09-.02l.34,.11c.23,.07,.45,.13,.67,.18,.45,.1,.9,.17,1.37,.24,.53,.08,1.02,.16,1.51,.24,.24,.04,.47,.09,.7,.15,.32,.07,.64,.15,.97,.22,1.9,.49,5.81,.49,5.47,.11-.79-.95,2.34-.56,4.76-.49,1.46,.02,2.85-.09,4.38,.04-.38,.5,.43,.85,3.42,.94,1.75,.05,3.34,.08,4.34,.43,1.07,.37,2.43,.17,2.73-.13,.38-.38,1.38-.66,2.84-.91,.76-.14,1.43-.04,1.92,.05,.47,.09,.93,.17,.31,.36-.92,.29-1.09,.54-.61,.57,1.52,.09,1.44-.22,1.69-.33,.73-.31,2.1-.49,3.36-.7,.95-.16,1.94-.32,2.76-.51,.92-.21,.16-.67,1.69-.68,2.33-.02-.74,.61,.9,.78,.42,.04-.05,.31,.33,.4,1.86,.4,3.43-.53,5.5-.35,.59,.05,1.18-.2,1.16-.35-.01-.06-.23-.13-.5-.16-.44-.04-.99-.05-1.52-.06-1.13-.02-1.41-.18-1.04-.38,.49-.26,1.74-.17,2.47-.2,1.91-.09,2.96,.25,4.94,.21,3.24-.06,4.3,.12,3.3,.71-.68,.4,.27,.7-.56,1.08-.04,.02,.77,.1,1.25,.1,.26,0,.59-.03,.83-.07,.16-.04,.18-.08,.14-.14-.07-.09-.15-.17-.17-.24-.01-.08,.07-.16,.11-.24,.12-.16,.37-.31,.63-.47-.42-.05-.56-.15-.69-.29-.39-.32-.73-.63-.32-.91,.39-.28,1.4-.55,3.88-.75,.63-.05,1.38-.25,1.03-.4-.22-.09-.8-.14-1.43-.06-1.68,.21-3.28,.26-4.76,.26-1.55,0-1.4-.24-1.26-.46,.21-.32,1.22-.23,2.07-.22,.61,.01,1.37,0,1.96-.05,.6-.04,1.13-.1,1.62-.17,.97-.15,1.79-.35,2.61-.58,.77-.22,1.81-.3,1.49-.04-.32,.27,.02,.41,.71,.46h.07s-.01,.06-.01,.08l-.05,.17-.1,.36c-.06,.24-.13,.5-.2,.77l-.4,1.74c-.48,2.15-1.11,4.5-1.43,6.15-.44,2.19-.64,2.2-.85,1.86-.22-.36-.34-1.1-.46-1.77-.07-.41,.05-1.09,.32-1.84,.3-.84,.48-1.66,.32-1.99-.12-.24-.31-.44-.57,.17l-.39,.89c-.13,.3-.24,.53-.39,1.02-.28,.87-.55,1.82-.73,2.93-.23,1.54-.75,4.19,.1,3.03,.16-.21,.32,.87,0,2.19-.31,1.24-.28-.27-.46-.07-.53,.56-.8,.36-.8-1.55,0-1.24-.4,.47-.64,1.55-.46-.09-1.08,1.62-1.64,2.68-.92,1.71-.96,2.02-1.03,4.78-.03,1.29,.03,2.79-.27,4-.39,1.58,.28,1.81-.35,3.24-.59,1.33,0,2.08-.37,3.49-.14,.51-.24,1.46-.43,1.96-.72,1.93-.97,4-.83,6.28,.02,.37-.03,1.06-.09,1.55-.58,4.22-.6,4.31-.09,6.44,.05,.19,.1,.36,.14,.57,.17,.88,.01,1.84-.23,2.88-.44,1.89-.17-.51-.26-.7-.12-.24-.23-.55-.41,.04-.23,.74-.17,1.31-.11,1.85,.14,1.25-.04,1.93-.34,2.23-.16,.15-.3,0-.45,.24-.44,.68-.57,1.79-.31,3.34,.08,.49,.23,.92,0,1.59-.6,1.77-.05,2.92-.3,4.6-.15,.99,.17,.92,.23,1.42,.13,1.26-.48,1.6-.38,2.46,.23,1.96-.22,2.01-.39,2.82-.42,2.01-.4,2.24,.13,2.86,.13,.16,.14,.98,.13,1.73-.22,.41-.45,.79-.67,1.23-.15,.31-.33,.78-.34,1.62,0,.33,.14,.68,.24,.65,.44-.14,.34,.96,.09,2.33-.15,.8-.33,1.41-.49,2.17-.28,1.36-.28,1.39,0,2.85,.08,.38,.08,.91,.01,1.41-.09,.69-.21,1.31-.32,1.97-.44,2.7-.41,3.84,.1,4.2,.31,.22,.63,.39,.92,.89,.13,.22,.14,1.19-.13,1.13-.29-.06-.34,1.11-.34,1.9,0,1.04,.2,2.08,.12,2.89-.12,1.22,.26,3.08-.37,3.79-.44,.5-.47,2.67-.44,3.84,.05,2.06,.34,3.93-.49,4.65-.04,.03-.13,.73-.12,.92,.16,3.08-.39,5.04-.8,7.17-.32,1.65-.16,2.32,.01,3.05-.3,1.49-.47,3.01-.33,4.61-.09,.06-.18,.15-.21,.71,0,.2,.06,.34,.09,.51-.02,2.15,.45,.03,.59,.77,.15,.78,.22,1.92,.5,2.01,.11,.03,.2,.18,.31,.19,.11,0,.31-.52,.29-.74-.26-2.52,.49-3.86,.6-5.89Zm-42.89-28.48c.03,.52,0,1.02,0,1.53-.27-.88-.57-1.65-.81-2.71-.07-.29,.11-.98,.22-1.21,.33-.16,.51,.84,.59,2.39Zm-2.61-10.86c.23,.18,.48,.54,.58,1.88,.06,.75-.07,1.29-.22,1.2-.33-.22-.32-1.63-.42-2.61l-.03-.49s.06,0,.1,.03Zm-.86-11.56l-.08,.43-.24-1.16s.03-.24,.05-.24c.12,0,.21,.34,.26,.97Zm-4.04-77.86c-1.15-.07-3.29-.41-4.05-.62-1.46-.42,.66-.27,1.4-.34,.53-.05-1.34-.63,1.54-.15,1.04,.18,1.72,.38,2.56,.55,.17,.04,.36,.07,.55,.11,.16,.03,.34,.06,.54,.08,.39,.04,.87,.08,1.47,.06l.05,.27c-1.24,.04-2.13,.15-4.06,.03Zm8.54,.59c-.75-.18-1.25-.44-1.63-.66-.44-.26,.79-.12,1.31-.14,1.62-.08,1.05,.19,1.38,.32-.16,0-.34,0-.47,.01-.08,0-.09,.04-.13,.06,.2-.02,.41-.05,.62-.07,.73,.12,.91,.27,.77,.4-.21,.2-.9,.29-1.85,.06Zm5.75,.52c-.33,0-.93-.17-.96-.26-.14-.32-.1-.64-.13-.96l1.06,.04c-.08,.31-.4,.63,.48,.95,.26,.1,.21,.24-.45,.22Zm12.39,2.49c-.35,0-.69-.03-1.04-.05l3.57-.71c.14,.06,.29,.12,.45,.19-.23,.33-1.09,.55-2.99,.57Zm21.97-2.71c-1.97,.34-3.49,.3-4.66,.02l4.29-.31c.23-.02,.61,.06,.71,.11,.07,.04-.12,.15-.34,.18Zm12.83,18.71c.04,.24,.07,.89,.04,1.06-.22,.94-.26,.32-.32,.02-.06-.31-.11-.69-.16-1.1,.27-.5,.38-.31,.44,.02Zm-2.25,.2c.24-.47,.24,.04,.17,.83-.13,.05-.37,.95-.36,.08,0-.17,.13-.8,.19-.91Zm-.6,4.81c.07-.05,.18-.23,.21-.1,.03,.15,0,.64-.04,.9-.1,.51-.18,.53-.18,.11l.02-.91Zm2.67,2.96c.23-.8,.47-2.18,.69-1.66,.03,.07-.05,.59-.07,.92-.24,.97-.49,1.97-.7,1.62-.07-.11-.01-.53,.09-.88Zm-1.49,3.36c.16-1.31,.38-1.21,.6-1.26,.25,.12,.41,.82,.44,2.06-.32,.59-.69,1.58-.94,1.63-.17,.04-.24-1.19-.09-2.43Zm-1.49,3.96c.06,.03,.13,.04,.18,.12,.14,.2,.36,.16,.22,1.38-.05,.44-.15,.58-.21,.45-.16-.34-.51-.02-.2-1.94Zm-3.79,5.39c.18-.43,.29-.72,.39-.92,.11-.2,.27-.55,.22,.21-.04,.62-.18,.96-.28,1-.1,.03-.18-.15-.33-.29Zm2.27,17.05c.45-2.78,.1-2.74-.25-2.76-.11,0-.1-.11,.15-1.17,.03-.14,.1-.19,.11-.33,.18-1.3-.48-.47-.11-1.82,.31-1.14,.38-1.8,.34-2.81-.04-1.14-.02-2.29,.25-3.71,.41-2.83,.62-3.32,.9-1.96,.18,.89,.41,1.68,.16,3.83-.12,1.07,0,1.13,.21,.8,.16-.25,.33,.29,.05,.82-.61,1.14-.72,3.24-.97,5.14-.17,1.3-.35,2.61-.52,3.9-.04,.27-.16,.58-.22,.59-.05,.02-.12-.45-.11-.53Zm-3.61,1.42c.07-.06,.15-.13,.22-.17,.1-.05,.2-.08,.3-.12-.1,.29-.21,.68-.3,.75-.09,.07-.15-.29-.22-.46Zm-.7,13.51c.1-.37,.22-.69,.28-1.13,.5-3.76,.37-.75,.45,.22-.19,.32-.23,.7-.09,1.14-.32,1.28-.57,1.71-.63-.23Zm.76,2.14c.36-1.84,.07-1.73-.11-1.92l.09-1.1c.38,.23,.7,.68,.35,3.47-.07,.52-.18,1.09-.3,.85-.09-.19-.14-.73-.03-1.29Zm.45,28.36c.1-.64,.36-1.08,.52-1.1,.32-.04,0,1.34,.01,2.03,.02,2.96-.22,1.42-.4,.99,.02-.89-.28-1.07-.14-1.92Z"/><path class="b" d="M180.87,195.87c-.2-.2-.34,.18-.46,1-.17,1.22-.4,1.18-.43-.5-.04-2.3-.38-2.55-.62-3.7-.28-1.33-.33-.9-.42,.32-.05,.68-.13,1.28-.2,1.91-.01,.15-.45,6.38-.46,6.45,.08,.37,.15,.83,.24,1.04,.13,.29,.58,3.53,.61,4.16,.07,1.39-.22,2.4-.05,3.83,.1,.83,0,1.11-.12,.97-.66-.74-.37,1.29-.19,2.36,.16,.98,.35,1.55,.09,2.47l-.12,1.2c-.04,.21-.07,.42-.09,.62-.03,.41,.03,.81,.27,1.4-.03,.22-.07,.41-.11,.58l-.07,.24s0,.1-.06,.09l-.19-.06c-.5-.15-.93-.25-1.43-.23-.24,0-.62-.02-.73,.04-.08,.05-.17,.08-.28,.11l-.17,.03c-.05,.01-.12,.02-.25,.02-.45,0-.94-.03-1.46-.07-1.02-.09-2.13-.19-3.12-.27-.89-.79-.84-.71-4.08-.97-2.5-.21-2.72,.34-5.56,.01-2.7-.32-3.85-.44-3.53-.82,.46-.54-.9-.58-2.74-.88l-4.24-.74-2.83-.54-3.16-.63c-4.22-.86-8.47-1.79-12.77-2.73l-.16-.04s.07,.14,.12,.22l.18,.26c.12,.17,.24,.34,.35,.5,.23,.33,.45,.65,.67,.95,.44,.61,.84,1.17,1.2,1.68,.75,1.03,1.39,1.87,1.97,2.57,1.15,1.39,2.03,2.18,2.96,2.72,.93,.54,1.94,2.16,2.91,3.33,.54,.66,1.15,1.41,1.44,2.06,.25,.57,.19,.69,.06,.7-.07,0-.18-.05-.31-.13-.14-.1-.32-.26-.52-.44-.1-.09-.27-.29-.36-.38-.59-.5-.83-.5-.65,.02,.09,.26,.28,.65,.57,1.15,.11,.19,.23,.4,.36,.63l.42,.67c.58,.88,1.29,1.76,1.93,2.66,1.11,1.56,1.1,1.11,.96,.62-.16-.57-1.17-2.1-.62-1.89,.62,.8,1.49,1.66,1.75,2.41,.41,1.22,1.47,2.2,2.14,3.26l.45-.1,.64,.93c.04,.43,.25,1.03,.86,2.05-.05,.84-.04,.86,1.33,2.53,1.42,1.74,1.76,2.36,1.93,3.5,.03,.19-.43,.06,.39,.92,1.5,1.57,2.21,2.88,3.04,4.57,.72,1.47,2.8,4.18,3.44,4.58,.13,.08,2.74,2.85,2.81,2.81,.5-.26,2.3,2.96,3.14,3.4,.23,.12,1.96,2.88,1.04,.68-.05-.13,.17-.06,.24,.04,1.08,1.48,2.25,2.97,3.21,4.48,.66,1.04,.05,.74-.12,.86-.17,.11-.11,.48,.37,1.36,.85,1.57,.61,1.89,.97,2.9,.29,.81,1.66,2.6,1.37,2.96-.34,.43,1.11,2.04,1.74,3.1,1,1.7,.99,1.1,1.21,1.1,.21,0,.29-.21,.43-.34-.76-1.39-.9-2.04-.6-2.15-.33-.45-.87-1.16-.9-1.26-.47-1.52-.03-1.75,.31-2.15,.33-.39,1.24,1.64,1.74,2.09,.25,.23,.61,.63,.72,.62,.33-.02,.79,.34,1.73,1.78,.29,.45,.45,.54,.29,.21-.2-.42-.71-1.23-.68-1.28,.11-.27,.57,.73,.88,1.12,.31,.4,.8,1.17,.91,1.23,.27,.14-.02-.5-.31-1.09-.6-1.17-1.51-2.56-2.07-3.58-.99-1.78-1.19-2.59-1.55-1.92-.19,.36-.93-.44-1.58-2.13-.27-.72-.97-1.46-1.45-1.96-.45-.47-.65-.39-1.26-1.21-.37-.33-.59-.63-.65-.99-.82-1.51-.07-1.04-.45-2.02-.53-1.35-1.82-2.55-2.23-3.55-.99-2.38-1.49-2.27-1.97-2.46-.37-.15-.11,.85-1.21-.68-.88-1.22-.84-1.79-1.29-2.73-.35-.73-.36-1.05-.34-1.34,.05-.63-1.07-2.91-1.58-3.57-1.25-1.63-1.98-2.91-2.85-4.37-.13-.21-.49-.64-.62-.73-.82-.61-1.12-.43-.97,.41,1.87,2.06,.98,1.82,1.36,2.64,.55,.74,1.35,1.71,1.57,2.15,.54,1.11-.31,.03-.74-.38-.46-.44-1.2-1-1.17-.94,.91,1.84,.08,1.26-.29,1.33-.05,0,.14,.41,.28,.68,.17,.33,.35,.54,.52,.62,.4,.2,.38-.41,1.5,1.14,1.07,1.49,.81,1.73,1.19,2.59,.31,.7,.79,1.48,1.24,2.25,.14,.24,.2,.48,.18,.57,0,.04-.37-.35-.45-.5-1.79-3.03-3.94-5.15-5.83-8.16-1.11-1.75-2.29-3.39-1.14-2.74,.22,.12-.07-.55-.3-.84-1.51-1.83-3.19-5.18-4.57-5.77-.27-.11-.74-.56-1.08-1.25-1.26-2.57-2.82-5.02-4.97-7.44-.25-.28-.39-.5-.37-.64,.05-.35,.68,.26,1.17,.64,.74,.57,.91,1.21,1.21,1.81,.17,.36,.37,.66,.51,.74,.12,.07,.19,.03,.18-.09-.03-.31-.32-.89-.73-1.53-.82-1.27-1.69-2.69-2.54-3.78-.51-.66-.7-1.15-.93-1.66-.25-.53-.38-.83-1.04-1.47-.6-.59-.63-1.21-.64-1.51-.02-.46,.7,.36,1.06,.56,.33,.19,.66,.63,.96,1.02,.15,.19,.3,.37,.43,.47,.18,.18,.35,.3,.43,.22,.05-.05,.06-.13,.04-.23-.01-.1-.1-.26-.1-.31-.05-.15-.16-.31-.28-.48-.24-.34-.57-.76-.5-.96,.15-.35-.21-.76-1.02-1.13-.79-.33-.98-.71-1.26-1.35-.07-.16-.17-.33-.29-.51-.07-.1-.14-.19-.21-.28l-.12-.15-.06-.08-.03-.04s.02,0,.03,0c.42,.02,.58-.13,.39-.43-.25-.38,.86-.21,.94-.43,.09-.24,.39-.22,1.12,.14,.39,.19,1.17,.55,.34,.52-.28,0-.72-.12-.94-.1-.26,.02,.19,.3,.32,.31,.85,.05,1.41,.32,1.99,.68,.7,.42,.94,.65,.24,.72-.12,.01,.12,.24,.39,.27,.45,.06,.63,.28,.79,.46,.1,.11,.15,.25,.33,.2,.69,.05,1.34,.06,1.14-.14-.39-.43-1.05-.9-1.13-1.27-.06-.1,.08-.21,.28-.25,.42-.03,1.01,.15,1.38,.3,1.72,.69,2.3,.78,2.09,.18-.19-.57,.06-.52,2.96,.12,3.36,.31,6.76,.79,9.87,1.45,1.17,.25,2.03,.69,3.41,.94,2.3,.41,1.46-.36,3.45-.15,.64,.07,1.23,.02,1.85,.02,.27-.06,.08-.25,.22-.34,.15-.1,.51-.12,2.31,.19,.73,.13,1.62,.19,2.49,.23,.42,.02,.86,.03,1.29,.05,.21,0,.42,.02,.63,.02h.31c0-.08-.01-.21-.02-.32-.03-.44-.17-.3-.15-1.29,.08-3.25,.05-3.43-.41-3.49-.14-.02-.29,.4-.39-.4-.09-.67,0-1.35,.07-1.98,.07-.62,.12-1.3,.27-1.51,.1-.13,.18-.42,.28-.64-.09-.24-.18-.68-.27-.69-.46-.02-1.04-1.89-1.29,1.55-.03,.36-.2-.2-.25-.75-.27-2.92,.62-2.71,.46-5.43-.01-.25,.13-.87,.22-.97,.09-.1,.27,.1,.3,.43,.35,3.3,.9,3.09,1.44,3.14,.28,.03,.35,1.09,.39,2.27,.28-4.29,.1-5.93-.63-5.66-.1,.03-.19,.57-.3,.09-.42-1.83,.19-5.92-.65-6.82,.05-.45,.09-.95,.15-1.36,.09-.57,.18-1.07,.27-1.65,.06-.47,.07-1.12-.02-1.54-.08-.37-.19-.6-.3-.7Zm-4.69,75.42c.04,.14,.17,.44,.1,.41-.17-.07-.46-.42-.75-.94-.07-.13-.16-.33-.14-.33,.17,.05,.45,.37,.79,.85Zm-30.45-41.66c.09,.12,.13,.45,.11,.57-.03,.13-.14,.14-.22,.2-.44-.7-1.1-1.61-.89-1.72,.12-.07,.53,.29,1.01,.95Zm-4.94-11.04c.31,.32,.43,.52,.25,.43-.1-.05-.4-.33-.56-.52-.16-.19-.24-.38-.35-.56l.66,.65Zm.17-1.63c.48,.3,1.63,.8,.2,.58-.77-.12-1.6-.31-2.5-.63-.13-.06-.09,0-.09,.02,0,.03,0,.05,0,.07-.01,.04-.04,.07-.08,.08-.14,.04-.05,.35-.11,.49-.08,.18-.29,.11-.67-.27-.19-.19-.41-.46-.67-.8-.12-.17-.26-.35-.41-.57l-.22-.32-.12-.17c-.04-.06-.11-.14-.01-.11h.05c1.31,.33,2.27,.61,3.03,.61,.03,0,.8,.25,1.09,.37,.88,.37,.64,.49,.52,.63Zm5.95,1.65c-.61-.13-.56-.24-.56-.32,0-.06,.26-.06,.42-.08l.37,.26c-.08,.05-.16,.16-.23,.14Zm13.19,1.47c.13-.3,.82-.41,2.48-.27-.13,.29,.07,.68-2.48,.27Zm3.55-.13c-.32-.04-.66-.1-.99-.15,.18-.07,.25-.19,.59-.18,.93,.03,1.95,.3,2.01,.44,.08,.17-1.02-.04-1.61-.11Zm3.03,2.29c-.69-.16-1.2-.34-.83-.45,.11-.03,.54,0,.83,0,.95,.18,.81,.31,.68,.44-.09,.08-.35,.09-.67,.02Zm2.62-2.41c-.32-.05-.89-.17-.88-.19,.04-.12,.64-.03,1.08,.02,.49,.06,.99,.14,1.48,.21-.36,.09-.97,.06-1.67-.04Zm3.89,2.09c-.15-.02-.32-.04-.48-.06l.09-.2c.66,.09,1.15,.03,1.67,.01,.52-.02,1.13,0,1.83,.2,.12,.03,.29,.1,.25,.11-.59,.19-2.02,.06-3.36-.06Zm3.76-.81c-.35-.02-.7-.04-1.05-.06-.04-.11-.15-.23-.09-.32,.18-.27,1.41-.07,1.24-.49,.38,.23,.58,.3,.62,.36,.19,.27,.46,.57-.72,.51Zm3.58-.01s-.12,.27-.16,.16c-.16-.44-.18-1.03-.16-1.63,.01-.37,.06-.48,.17-.22l.15,1.69Zm-.77-22.11c-.03,.63,.06,1.87-.15,1.6-.25-.33-.47-1.32-.49-2.82-.01-1.03,.14-1.71,.31-1.85,.16-.13,.26,.56,.29,1.4,.01,.56,.03,1.13,.04,1.67Z"/><path class="b" d="M199.82,306.97c-1.35-.52-2.59-1.98-4.84-5.56l-2.21,.71c-.1,.03-.19,.12,.15,.71,.16,.27,.42,.62,.6,.83,.58,.66,1.12,1.27,1.7,1.93,.57,.66,.83,.2,1.6,1.83,.37,.77-.66-.39-.95-.46-.24-.06-.79-.69-1.03-.76-.35-.1-1.76-2.43-1.43-1.29,.12,.41,1.17,2.02,1.77,3.15,.68,1.29,1.43,2.26,.99,.87-.21-.65,.24-.11,.5,.08,.34,.25,.75,.55,1.28,1.47,.26,.45,.6,1.29,.39,1.3-.34,.03,.71,1.55,1.3,2.57,.59,1.02,.58,.37,1.62,2.41,.58,1.13,1.58,2.63,2.4,3.71,1.19-2.11,1.98-3.85,1.62-3.67-.45,.21-.3-.34-.04-1.01,.27-.68,.66-1.51,.83-2.05-.19,.15-.45,.41-.53,.38-.07-.03,.13-.39,.22-.42,.14-.06,.23-.01,.35-.02,1.21-1.62,1.11-2.02,1.18-2.54,.07-.45,.17-.83,.47-1.39,.31-.58,.78-1.3,1.49-2.25,1.95-2.62,1.95-2.7,4.33-5.41,.31-.35,.72-.94,.76-.75,.05,.22-.44,.75-.67,1.15-1.19,1.94-2.49,3.82-3.77,5.71-.79,1.17-1.99,2.77-.43,1.35,.17-.15,.92-.85,1.22-.94,.15-.04,.19,.07,0,.49-.1,.21-.26,.49-.5,.87l-.41,.64c-.17,.26-.37,.54-.59,.86-.18,.26-.37,.97-.39,1.25-.02,.34-.52,1.36-.94,2.25-.42,.88-.76,1.64-.35,1.27,.39-.35,1.17-1.46,2.06-2.75,.41-.59,.84-1.21,1.26-1.83,.3-.43,.61-.84,.9-1.2,1.34-1.66,3.23-5.53,2.95-5.91-.38-.51-.23-1.62,.71-3.81,.28-.65-.27-.55,.66-1.73,.51-.65,.06,.58,.16,.79,.11,.2,.2,.52-.08,1.16-.43,1-.12,.55,.41-.19,.54-.75,1.24-1.84,1.51-1.88,.85-.13,1.67-1.67,2.3-3.19,.57-1.38,1.03-2.14,1.94-2.94,1.23-1.07,1.18-1.97,1.71-2.95-.18,.11-.48,.38-.53,.28-.14-.27,.18-1.3-.91,.01-1.34,1.63-.95,2-1.59,3.11-.19,.31-.38,.63-.57,.95-.09,.43-.32,.72-.63,.95-2.45,3.04-2.52,3.11-1.83,1.04,.37-1.11,.66-2.07,.3-2.23-.54-.24-.38-.48,1.71-3.5l.35,.27c.46-.57,.72-.75,.56-.25-.2,.63-.28,1.12,.41,.19,1.13-1.53,2.07-2.74,2.52-2.62,.52,.15,2.29-3.01,2.91-3.26,.44-.18,.7-.45,1.38-1.76,.31-.59,.81-1.44,1.18-1.93,.92-1.23,.2-.05-.03,.4-.2,.39-.7,1.17-.22,.71,.73-.7,3.47-5,3.37-5.34-.24-.84,1.04-2.56,1.98-4.11,1.09-1.8,2.19-3.62,3.28-5.41,1.25-2.02,1.57-2.9,.82-2.49-.47,.25-.14-.43,.46-1.37,.76-1.2,1.51-2.58,2.31-3.29,.64-.57,1.72-2.21,2.08-2.01,.34,.19,1.38-1.49,2.1-2.68,.78-1.28,.54-1.43,.41-1.64-.06-.11-.13-.2-.12-.43,0-.12,.21-.61,.3-.74,.46-.65,.18,.05,.31,0,.6-.23,1.54-1.6,1.61-2.36,.13-1.48,.91-2.06,1.56-2.62,.68-.57,1.2-.82,1.24-2.01,.02-.76,.6-1.97,1.7-3.66,.61-.94,1.19-1.96,1.78-2.95,.14-.24,.34-.59,.51-.87,.17-.28,.29-.51,.29-.52-.13-.17-.67,.9-.92,1.13-.8,.74-1.61,1.65-2.67,3.03-1,1.3-1.28,.82-1.51,.45,1.02-2.21,1.97-4.43,3.85-6.72,.15-.18,.42-.66,.55-.92,.2-.42,.34-.8,.45-1.13,.01-.04-.3,.25-.45,.48-1.3,1.89-2.53,3.55-3.51,4.36,.65-1.25,1.31-2.53,1.93-3.74,.15-.3,.06-.46,0-.56-.06-.1-.25,.14-.42,.5l-2.91,3.87c-.71,.9-.09-.13,.02-.37,.19-.43,.44-.92,.66-1.39,.17-.37,.6-1.06,.2-.7-.11,.1-.42,.59-.58,.88-.89,1.63-1.69,3.24-2.81,4.9-.55,.83-.67,.92-.61,.47,.19-1.45,.17-1.41-1.53,1.37-.69,1.12-1.44,2.23-2.16,3.25-.97,1.39-1.49,2.6-2.11,3.86-.46,.92-.26,1.3-.36,1.44-.7,.95-.37-.1-.78,.25-.33,.28-.75,.83-1.08,1.56-.41,.9-.83,1.84-1.07,2.57-.4,1.17-.82,1.67-1.39,2.22-.23,.23-.58,.7-.8,1.22-.29,.69-.12,.7,.02,.75,.14,.05,.3,.08,.83-.95,.55-1.06,1.11-2.04,1.67-2.52,.27-.24,.72-.74,.57-.21-.11,.38-.47,.92-.78,1.39q-2.45,3.73-3.05,6.15c-.02,.1-.04,.2-.06,.28-.04,.37-.31,.97-.74,1.66-.46,.74-.87,1.18-.93,.99-.2-.65-1.23,1.21-2.06,2.38-1.06,1.5-1.81,2.85-2.12,4.01-1.23,1.52-1.75,2.65-1.9,3.62-.03,.16-.16,.48-.25,.72-.14,.04-.29,.09-.41,.1-.04,0-.03-.09-.02-.17,.05-.35,.08-.69-.54,.24-.39,.58-.93,1.44-.65,1.42,.28-.02-.1,.77-.33,1.38-.23,.62-.39,.87-.87,1.31-1.18,1.08-1.61,1.81-1.81,2.99-.08,.43-.05,.72-.1,1.12-.06,.41-.17,.9-.79,1.89-.71,1.14-1.29,1.79-1.66,1.95-.27,.12-.37-.07-.55-.12,.36-.59,.78-1.2,.85-1.63,.15-.9-.63-.27-.96-.38-.12-.04,.2-.84-.47,.13-.24,.34-.59,1.05-.64,1.27-.19,.82-.57,1.7-1.61,3.07,.24,.67-.96,1.76-1.58,2.71-.41,.61-.83,1.28-1.16,1.87-.31,.56-.51,1.05-.76,1.57,.32-.44,.66-.87,.97-1.32,1.11-1.65,1.85-2.6,2.24-2.39,.39,.21,0,1.11-1.21,2.88-.89,1.31-.75,1.77-1.43,2.9-.47,.79-.16,1.15-1.25,2.2-.6,.58-.35-.03,.04-.84,.81-1.68,.08-1.33-.23-1.48-.31-.15-1.39,1.32-2.25,2.39-.11,.42-.32,.73-.64,.94-.14,.27-.41,.75-.38,.78,.33,.24,.32,.23-.8,2.38-.18,.35,.02,.38-.15,.73-.17,.38-.34,.74-.51,1.12-.08,.24-.17,.49-.29,.77-.24,.53-.62,1.16-1.14,1.67,.29-.91,.3-1.42-.09-1.45-.09,0-.31-.23,0-.42,.46-.31,.64-.65,.64-.87,0-.11-.02-.21-.05-.3,0-.14,.04-.33,.11-.54l-.2,.26-.1,.13-.04,.04-.16,.15c-.1,.1-.2,.19-.29,.3-.17,.2-.29,.42-.37,.85-.21,.98-.36,.71-.47,.54-.04-.04-.08-.08-.13-.03-.03-.07-.06-.11-.1-.12-.07,0-.2,.02-.2,.14,.07,.94-.02,1.38-.36,1.29-.33-.08-.89-.63-1.51-1.27-1-1.01-1.15-1.22-1.95-3.39Zm-4.35-2.87c-.32-.46-.41-.82-.42-1.09,.18,.19,.4,.34,.64,.67,.46,.63,.4,.81,.31,.82-.1,0-.35-.15-.53-.41Zm49.28-51.25c-.37,.57-.76,1.36-1.06,1.53-.24,.13,.53-1.98,1.08-2.92,.8-1.38,1.13-1.33,1.27-1.27,.38,.18-.76,1.7-1.28,2.66Zm4.46-8.21c-.3,.54-.52,.78-.68,.83,.06-.19,.13-.47,.19-.55,.17-.25,.36-.46,.51-.62,.22-.23,.22-.1-.02,.33Zm-2.45,2.23c.08-.56,.17-1.13,.26-1.69,.66-.58,1.86-2.39,2.1-1.99-.79,1.3-1.39,2.79-2.38,3.92l.03-.23Zm.2,.25c.45-.13,1.43-1.14,.93,.35-.66,.49-1.43,1.19-1.94,1.41-.35,.15,.29-.96,.78-1.78,.08,0,.14,.04,.24,.01Zm-5.6,4.63c.37-.72-.05-.71,1.11-2.02,1.15-1.31,1.96-2.24,1.49-.61-.29,.48-.6,.98-.86,1.46-.48,.87-1,2.25-1.42,2.26-.28,0-1.87,1.96-.32-1.08Zm-1.15,3.17c1.25-1.22,1.35-.18,2.77-1.69,.26-.28,.4,.06-.29,1.25-.39,.67-.92,1.36-1.02,1.22-.3-.41-1.31,.6-2.11,1.19-.31,.23-.44,.03,.07-1,.31-.19,.49-.53,.58-.97Zm-8.35,15.59c.73-1,1.32-1.66,1.57-1.51,.29,.17,.23,.86-.3,2.16-.18,.43-.56,.95-.74,1.04-.61,.29-.4-.86-1.2-.21-.12-.24,.27-.91,.68-1.48Zm1.44,2.52c-.03,.12-.29,.6-.47,.88-.28,.46-.66,1.03-.64,.71,.03-.42-.46,.15-.66,.17,.31-.56,.63-1.13,.94-1.7,.28-.03,.97-.79,.82-.07Zm-3.16,4.12c.16-.58,.62-1.67,1.36-2.27-.3,.62-.44,1.05-.38,1.22,.12,.32-.3,1.13-.93,2.14-.04-.33-.21-.5-.05-1.09Zm.04,1.15c.11-.07,.21-.12,.33-.21,.43-.33,.87-.65,.51,.27-.18,.46,.04,.04-.19,.2-.43,.3-1.5,1.6-.65-.26Zm-12.14,12.12c.17-.1,.24-.03,.35-.02-.31,.42-.56,.67-.62,.57-.05-.08,.16-.48,.27-.55Zm-15.2,21.95c.23,.37,.46,1,.67,1.53,.18,.46,.12,.58-.06,.47-.42-.27-1.15-1.19-1.46-1.12-.27,.08-.64-.42-1.33-1.63-1.01-1.77-.09-.81-.28-1.33,.19-.04,.73,.36,1.22,.77,.5,.43,.96,.87,1.23,1.31Z"/><path class="b" d="M256.94,228.59c.81-1.18,1.75-2.72,2.39-3.4,.46-.5,.52,.05,.74,.16-2.54,3.66-2.65,3.99-1.37,3.36,.59-.72,.91-.91,.57-.11-.51,1.22-.37,1.27,.46,.39,.34-.36,.43-.08,.61-.05-.65,.74-1.3,1.47-1.96,2.22-.19,.21-.5,.56-.57,.7-.28,.56-.1,.5,.11,.35,.55-.38,1.07-.7,1.67-1.18,.55-.44,1.2-1.53,1.77-2.49,.62-1.03,1.1-1.95,.69-1.84-.1,.03-.21,.04-.22-.06-.01-.1,.04-.27,.41-.85,.68-1.09,.93-1.14,1.15-1.21,.49-.18,1.62-2.37,2.37-3.13,.8-.83,1.77-2,2.73-3.13,.69-1.5-.84,.44-.96,.2-.09-.15-.32-.22,.51-1.51,1.63-2.52,.31-1.07,.17-1.2,.16-.21,.32-.42,.48-.63l.25-.32s.1-.12,.11-.15h-.12c-.33-.02-.67-.04-1.07-.04-.79,.01-1.89,.11-3.48,.52-1.19,.31-2.76,.39-4.2,.6-1.88,.26-3.41,.63-4.38,.98-1,.35-1.36,.69-1.18,.95,.05,.08,.53,.11,.94,.12,.64,.01,1.14-.19,1.24-.3,.26-.31,2.24-.64,2.19-.95-.07-.24,1.61-.48,2.49-.59,1.17-.14,.79,.12,.53,.27-1.04,.63-.19,.94,.35,1.28-2.05,.42-3.46,.91-4.43,1.42,.36-.04,.74-.09,1.08-.11,.48-.03,.99-.03,.59,.21-.14,.09-.66,.19-.98,.26-.32,.07-.64,.1-.97,.14,.33,.1,.61,.21,.82,.34-.4,0-.97,.14-1.43,.25-.52,.13-1.02,.24-1.33,.15-.18-.05-.32-.11-.43-.18-.16-.07-.29-.14-.38-.23-.2-.17-.31-.37-.53-.53-.12-.09,.07-.23,0-.33-.11-.14-.5-.23-1.38-.06-.67,.12-1.44,.35-1.82,.52-.39,.18-.73,.44-.46,.49,1.74,.32-.91,.74-2.55,1.17-.79,.21-1.43,.27-2.17,.38-.66,.1-.88,.26-.89,.37,0,.11,.22,.18,.9,.06,.74-.14,1.49-.32,2.22-.44,.58-.1,1.05-.09,.94,.06-.49,.7-3.46,1.48-5.94,1.58-.46,.02-.22-.31-1.34,.05-.28,.09-.11,.23-.08,.33,.14,.61,3.81,0,5.06,.25,.96,.19,1.8-.01,2.81-.68,.41-.27,.64-.35,1.44-.34,.52,0,.96,.07,1.8-.23,.86-.3,1.67-.53,2.46-.71l.33-.08,.23-.04c.15-.02,.3-.04,.44-.04,.07,0,.14,0,.2,0,.04,0,.07,.02,.1,.03,.06,.03,.11,.06,.15,.11,.07,.09,.08,.21,.03,.35-.09,.21-.2,.32-.13,.27,.07-.04,.33-.24,.83-.61,.49-.37,.89-.56,1.32-.71,.31-.13,.2,0,.21,.07,0,.08,0,.15,.03,.2,.08,.16-.63,.53-.86,.77-.13,.14-.41,.28-.6,.39,.16,.04,.23,.2,.4,.23,.17,.03,.47-.11,.75-.22l-.57,1.16c-.1,.11-.14,.12-.28,.29,.13-.1,.16-.06,.25-.09,.05,.06,.15,.15,.12,.19-.93,1.46-2.03,2.95-2.85,4.55-.34,.67-.69,.98-.72,.86-.08-.32-.99,.43,.18-1.55,.73-1.23,.54-1.28,.32-1.23-.33,.07-1.01,.9-1.64,1.87-.7,1.08-.51,1.2-.41,1.38,.12,.24-.53,1.69,.25,.92,.9-.87,.52,.11,.29,.99-.34,1.3,.68,.35,2.11-1.81,.4-.61,.75-1.21,1.06-1.42Zm.97-8.08c-.12-.01-.04-.09,.09-.19,.2-.15,.35-.31,.53-.46,.34,.06,.3,.22-.03,.45-.17,.12-.39,.24-.59,.21Zm5.45-.48c.31-.41,.84-1.15,.89-1.18,.56-.25,1.3-.99,2.4-2.6,.05-.05-.02-.02-.05-.02h-.1l-.21,.03c-.14,.01-.28,.02-.42,.04-.27,.02-.53,.04-.75,.04-.43,0-.7-.03-.6-.19,.14-.2,.67-.35,1.37-.47,.34-.05,.73-.12,1.13-.18,.2-.03,.4-.06,.59-.09,.1-.02,.2-.03,.29-.05,.08,0,.24-.06,.15,.03-.39,.72-.09,.53,.09,.5-.66,1.22-1.33,2.56-2.67,4.12-.45,.52-1.13,1.55-1.08,1.1,.07-.68-.5-.35-1.29,.27-.78,.59,.42-1.21,.25-1.35Z"/><path class="b" d="M181.17,279.31c-.34-.35-.83-1.03-1.24-1.62-.73-1.06-1.61-2.62-2.14-3.05-.41-.33,.34,1.26-.2,.96-.26-.14-.11,.45-.15,.72,.72,1.35,.91,2.06,.6,2.16,.79,1.14,1.18,1.27,1.52,1.51,.78,.54,.77,2.21,1.5,2.21,.26,0,.57,.11,1.16,.7,1.23,1.22,2.45,3.08,3.65,5.05,.79,1.3,1.55,2.6,2.26,3.89,.53,.95,.89,1.97,1.53,2.8,1.08,1.41-.05-.71,.25-.55,.16,.08,.47,.4,.74,.76,.52,.69,1.07,1.55,1.57,2.22,.64,.85,1.25,1.53,1.1,.8-.15-.75-.89-1.85-1.48-2.55-.88-1.07-1.7-1.92-2.53-2.83-.39-.43-.75-.81-1.12-1.6-.31-.65-.42-1.06-.3-1.14,.08-.06,.34,.16,.53,.27,.66,.4,.85,.32-.63-1.8-.85-1.21-1.67-2.55-1.5-3.08,.13-.39-.63-1.25-1.1-1.86-.45-.59-.86-1.03-.78-.6,.05,.24,.22,.67,.41,1.07,.29,.66,.87,1.72,.35,1.3-.43-.35-1.12-1.43-1.47-2.14-.84-1.74-1.63-2.67-2.54-3.62Z"/><path class="b" d="M241.87,219.84c-2,.52-2.76,1.01-3.67,1.5-1.01,.56-1.12,.58-3.24,.48-.77,.04-.82-.03,0-.22-.33-.17-1.13-.32,1.15-.63-.68-.34-.23-.92-2.08-1.01l.07-.45c.03-.16-.06-.33-.73-.28-.96,.06-1.7,.3-2.31,.55-.96,.39-1.68,.61-2.4,.7-.34,.05-.75,.07-1.08,.05-.28-.03-.56-.09-.86-.18-.26-.08-.27-.25-.8-.21-.33,.03-.62,.06-.89,.13-.33,.09-.48,.23-.35,.32,.16,.1,.34,.22,.68,.27,.67,.08,1.3,.17,1.84,.29,.51,.12,1.13,.23,1.49,.38,.75,.3,.87,.74,.42,1.29-.13,.16,0,.29-.02,.44-.08,.49,1.54,.33,3.41,.02,.27-.14-.1-.26,.88-.4,.11-.02,.2,.14,.31,.23,1.09-.26,3.26-.04,3.48-.73,1.83-.37,2.13-.02,3.35-.12,.16-.38-.31-.68,.66-1.16,1.16-.57,.73-.89,.68-1.26Z"/><path class="b" d="M227.15,221.76c-.85-.27-1.69-.48-3.35-.34l-.87,.22-.46,.11c-.06-.06-.04-.2-.06-.3l-.12-1.43c-.07-1.05-.14-2.15-.18-3.54-.26,1.1-.42,1.18-.42-.17-.21-.03-.41-.14-.63-.07-.05,.02-.11,.1-.16,.27-.05,.17-.1,.42-.12,.87-.02,.38-.01,.83,.03,.95,.08,.22,.18,.32,.29,.28,.37-.11,.52,.11,.1,2.45-.1,.57-.19,1.25-.22,1.85v.33s.05,0,.08,0c.16-.03,.32-.06,.48-.1,.31-.07,.61-.15,.86-.25,.78,.12,.8,.35,.56,.6-.22,.25-.7,.54-.58,.75,.06,.09,.34,.1,.87,.01,.42-.07,1.1-.21,1.06-.23-.78-.46,1.17-1.07,2.77-1.65,.8-.29,.54-.46,.05-.61Z"/><path class="b" d="M235.38,64.86c.12-.12,.38-.56,.42-.76,0-.04,.03-.09,.01-.11h-.13l-.27,.04c-.18,.03-.34,.06-.49,.09-.29,.07-.48,.15-.48,.2-.05,.49-1.02,.57-2.28,.61-.27,0-.6,.15-.88,.23,1.08,.16,1.06,.48,.69,.88-.26,.31-.04,.38,.6,.26,.16-.03,.31-.03,.45-.04,.03,0,.08-.01,.1,0l-.03,.11-.04,.21c-.03,.23,.06,.57,.16,.98,.1,.39,.2,.84,.31,.8,.34-.12,.68-.7,1-1.94,.24-.92,.54-1.26,.84-1.57Z"/><path class="b" d="M197.77,62.85c.06-.13-.02-.31,.72-.33,.84-.02,1.37,.13,1.61,.3,1.54-.13,2.58-.33,2.66-.68,.03-.17,.06-.35,1.01-.48,.13-.23,.28-.44-1.41-.41-1.41,.02-2.39,.12-3.48,.33-2.06,.39-.89-.14-1.44-.19-.44-.04-1.01-.04-1.53-.06,.13,.34-.66,.6-1.85,.85-.91,.19-.92,.39,.64,.48,1.03,.07,2.04,.13,3.06,.19Z"/><path class="b" d="M225.77,190.14c-.03,.18,0,.75,.05,.9,.04,.13,.18,.01,.2-.14,.32-2.55,1.09-3.89,1.04-7.01,.11-1.49,.22-2.67,.25-3.77,.04-1.41-.08-2.49-.39-2.39-.27,.09-.39,1.29-.49,2.49-.28,3.29-.14,6.65-.66,9.92Z"/><path class="b" d="M151.83,235.64c.6,.63,.96,.81,1.75,1.76,2.16,2.62,2.17,2.59,1.57,.76-.17-.51-.39-1.05-.15-1.07,.26-.02-.33-.83-.76-1.41-.35-.46-.78-.91-.71-.61,.36,1.43-.79,.46-1.87-.38-.24-.18-.41-.25-.59-.35l.1,.53c.22,.26,.46,.56,.65,.77Z"/><path class="b" d="M222.94,216.13c.1,.36,.18,.77,.38-.07,.19-.79,.16-1.25,.1-1.87-.08-.95-.12-2.1-.32-2.68-.38-1.08-.82-.16-1.15,2.53-.09,.71-.16,1.47-.23,2.21l.42,.16c.37-1.37,.6-.97,.8-.27Z"/><path class="b" d="M221.14,204.75c.11-.26,.15-1.34,.08-1.17-.62,1.52-.27-1.25-.36-2.04-.09-.88-.23-1.1-.58-.54-.15,.23-.3,.16-.44,.19-.21,.04-.43,.57-.49,1.59-.07,1.03,.13,1.48,.28,1.62,.35,.33,.85-.75,1.03,1.02,.19-.24,.34-.31,.49-.66Z"/><path class="b" d="M149.23,230.79c.76,.83,1.45,1.43,1.38,.93-.1-.7-.46-1.74-.87-2.82-.23-.6-.91-1.3-1.07-1.34-.28-.05-.29,.3-.91-.25-.07,.06-.18,.09-.23,.2-.22,.43,1.63,2.59,1.71,3.27Z"/><path class="b" d="M199.83,306.93c.42-.04,.81-.15,1.5,.28,.73,.45,.14-.91-.51-2.28-.3-.64-1.62-2.24-1.48-1.86,.9,2.34-.82,.83-.09,2.89,.19,.32,.38,.64,.57,.97Z"/><path class="b" d="M223.32,203.64c.33,.11,.43,.2,.54,.17,.14-.04,.31-.15,.39-1.12,.05-.59-.02-.92-.1-1.19-.08-.25-.11-.73-.19-.95-.26-.72-.56-.86-.92,.61-.05,.22-.11,.71-.11,.96,.03,1.7,.35,1.49,.39,1.52Z"/><path class="b" d="M197.11,302.7c.74,1.02,1.03,1.04,.65,.08-.5-1.23-1.62-2.95-1.9-4.01-.1-.4-.48-.78-.78-1.03,.03,.39,.03,.78,.11,1.28,.14,.89,.81,2.16,1.92,3.68Z"/><path class="b" d="M159.1,245.68c.42-.08,1.86,1.76,2.24,1.66-.72-.95-1.49-1.71-2.11-2.99-.45-.92-1.02-1.58-1.2-1.42-.11,.1-.09,.36-.41,.14-.46-.3-.36,.1,.26,1.1,.44,.7,1.09,1.53,1.22,1.51Z"/><path class="b" d="M225.82,203.68c-.2-.84-.12-2.08,0-3.46,.06-.7,.17-1.74,.04-1.9-.08-.1-.27,.86-.41,1.29-.14,.45-.39,1.46-.26,1.61,.51,.58,0,2.68,0,3.95,0,.76,0,1.45,.18,1.32,.15-.11,.31-.54,.43-1.32,.08-.59,.11-1.19,.04-1.49Z"/><path class="b" d="M181.59,195.96c.06,.24,.11,.53,.18,.73,.16,.53,.34,.93,.5,.38,.07-.23,.1-.95,.09-1.43-.05-1.38-.25-1.78-.49-1.87-.07-.03-.14-.03-.22-.05-.16,.1-.34-.23-.48,.44l.43,1.8Z"/><path class="b" d="M190.75,296.88c-.5,0,.35,1.6,.64,2.46,.17,.52,.63,.78,.87,.97,.58,.47-.03-.78-.09-1.23-.03-.26,.09-.47-.58-1.37-.42-.57-.76-.86-.84-.84Z"/><path class="b" d="M252.42,217.98c1.09-.25,1.06-.45,1.02-.61-.06-.19,1.23-.61-.09-.56-.35,.01-1.18,.16-1.55,.28-.81,.25-.71,.44-.89,.69,.15,.07,.31,.18,.62,.26,.12,.03,.66,0,.89-.06Z"/><path class="b" d="M220.64,66.54c-.17,.23,.42,.58,.9,.53,1.18-.11,2.4-.4,2.29-.54-.19-.25-1.27-.42-1.97-.62l-1.22,.63Z"/><path class="b" d="M227.67,130.39c-.13,1.19-.15,2.29-.06,3.15,.03,.34,.15,.42,.24,.48,.02,.01,.09-.56,.1-.63,.08-1.17,.15-2.11,.21-3.04,.06-.95,.35-2.56,.03-2.59-.22-.02-.41,1.47-.53,2.62Z"/><path class="b" d="M179.98,283.41c-.02,.21,.29,.7,.53,1.09,1.14,1.8,2.07,2.83,2.44,2.66,.05-.02-.12-.38-.19-.59l-2.79-3.17Z"/><path class="b" d="M231.69,224.18c-.32,.14,0,.22,.56,.18,.66-.06,1.08-.24,1.13-.34,.16-.3,.19-.59,.27-.89-.38,.05-.76,.1-1.1,.14-2.42,.52-.09,.56-.86,.91Z"/><path class="b" d="M236.22,77.35c.16,.05,.31,.2,.5,.09,.16-.1,.41-.65,.53-1.39,.12-.76-.04-.86-.17-.96-.31-.25-.61-.26-.86,2.26Z"/><path class="b" d="M250.96,232.71c.14-.34,.14-.45-.06-.25-.16,.16-.34,.37-.53,.57-.88,1.22-.57,1.41-1.11,2.37-.37,.67-1.19,1.96-.72,1.67,.39-.24,.76-1.36,1.25-2.1,.52-.79,.89-1.56,1.17-2.25Z"/><path class="b" d="M254.81,239.26c.08,.1,.36-.16,.64-.6,.82-1.3,.76-1.79,1.17-2.73,.2-.46-.37,.42-.59,.71-.76,1.18-1.47,2.31-1.23,2.62Z"/><path class="b" d="M179.55,191.83c.16-.06,.42,.24,.36-1.12-.04-.88-.23-.95-.41-1.01-.13,.05-.38-.24-.32,1.14,.04,.89,.22,1.05,.37,.99Z"/><path class="b" d="M226.83,192.93c.07,.06,.17-.37,.23-.92,.11-.99-.05-2.38-.24-2.12-.12,.16-.21,.63-.25,1.23-.06,1.07-.01,1.76,.26,1.81Z"/><path class="b" d="M187.79,293.31c-.09,.2,.26,.83,.68,1.5,.49,.79,.82,1.09,.98,1.06,.16-.03,.13-.38-.39-1.18-.53-.82-1.02-1.37-1.27-1.38Z"/><path class="b" d="M228.47,145.02c.11,.57,.34,.48,.49-.6,.12-.84,.21-1.83,.2-2.78,0-.42-.05-.57-.22-.25-.22,.15-.17,1.31-.26,2.12-.06,.54-.4,.58-.21,1.51Z"/><path class="b" d="M186.31,290.55c-.46-.4-.88-.71-1.31-1.05v.35c.2,.26,.45,.63,.59,.76,.48,.44,.94,.83,1.37,1.17,.11,.09,.18,0,.11-.18-.22-.51-.55-.86-.75-1.04Z"/><path class="b" d="M203.3,309.6s-.05-.29-.1-.35c-.23-.31-.43-.31-.62-.18-.03,.17,.04,.46,.16,.59,.29,.28,.46,.21,.56-.06Z"/><path class="b" d="M227.32,223.2c-.77,.09-.68,.31-.74,.46-.07,.19-.12,.37-.12,.56,0,.03,.24,.03,.38,.04,.29-.07,.74-.15,.82-.2,.2-.13,.22-.24,.28-.32-.02-.11-.03-.18-.05-.25-.03-.13,.12-.38-.57-.3Z"/><path class="b" d="M229.02,158.69c.14,.48,.26-.27,.31-1.03,.05-.8,.02-1.46-.19-.93-.16,.41-.37,.42-.46,1.61,.03,1,.24,0,.34,.35Z"/><path class="b" d="M174.25,156.57c.02,.63-.34-.53-.18,.82,.06,.47,.28,.88,.42,1.03,.07,.07,.17-.5,.16-.84-.06-1.11-.23-.76-.4-1.01Z"/><path class="b" d="M253.77,238.15c.3-.5,.49-.92,.42-1.03-.13-.2-.6,.35-1.13,1.19-.13,.21-.16,.56-.22,.79,.23-.04,.42-.08,.93-.95Z"/><path class="b" d="M169.97,265.54c-.39-.4-.83-.82-.45-.02,.17,.35,.51,.88,.79,1.33,.07-.02,.16,0,.19-.08,.05-.12,.04-.31,.06-.47-.2-.26-.43-.6-.59-.76Z"/><path class="b" d="M174.57,162.56c-.21-.09-.31,.42-.23,1.56,.02,.34,.09,.68,.16,1.21,.1-.82,.19-1.59,.28-2.35-.07-.14-.15-.39-.21-.41Z"/><path class="b" d="M233.96,261.34c-.05-.2-.22-.17-.7,.53-.37,.54-.5,.93-.5,1.13,0,.3,.35-.08,.76-.64,.45-.61,.41-.79,.44-1.02Z"/><path class="b" d="M225.07,193.97c-.03,.73,0,1.4,.17,1.38,.03,0,.12-.58,.15-.92,.07-.73,.11-1.5-.07-1.61-.13,.15-.23,.56-.25,1.15Z"/><path class="b" d="M224.23,219.99c.06-.04,.09-.08,.1-.11,0-.01,0-.02,0-.03l.03-.08c.04-.11,.06-.23,.06-.34,0-.2,0-.44-.07-.51-.09-.09-.23,.16-.3,.46-.08,.43-.06,.7,.16,.61Z"/><path class="b" d="M183.11,209.51c.1,.3,.2,.38,.24-.31,0-.77-.11-1.02-.21-1.07-.09-.04-.19,.21-.28,.34,.08,.35,.16,.76,.25,1.04Z"/><path class="b" d="M219.45,214.52c-.12,.11-.17,.46-.08,.64,.11,.21,.25,.24,.38,.26,.04,.01,.11-.26,.19-.47-.13-.61-.31-.58-.49-.43Z"/><path class="b" d="M177.47,180.6c.12,.17,.21-.19,.21-.76,0-.76-.14-.79-.25-.87-.1,.07-.24,0-.15,.88,.03,.3,.12,.65,.19,.74Z"/><path class="b" d="M190.28,288.69c.11,0,.11-.24-.35-.87-.31-.43-.56-.68-.64-.62,0,.23,.11,.61,.43,1.07,.18,.26,.46,.43,.56,.43Z"/><path class="b" d="M245.3,241.08c0-.29-.33,.03-.78,.81-.26,.45-.43,.86-.34,.95,.09,.08,.31-.15,.62-.63,.37-.56,.51-.96,.5-1.12Z"/><path class="b" d="M256.83,222.62c-.13,.04-.18,.06-.14,.07,.05,.01,.13,.04,.29,0,.07-.02,.11-.07,.17-.1-.03-.05-.14-.03-.31,.02Z"/><path class="b" d="M162.97,62.72s-.01,.67,.05,1.1c.16,1.01,.36,1.86,.47,1.71,.04-.06-.03-.73-.05-1.09-.18-1.1-.36-1.84-.47-1.72Z"/><path class="b" d="M225.28,208.3s-.15,.54-.17,.81c-.04,.57,0,1.05,.13,.87,.05-.07,.12-.54,.17-.78,.05-.69,0-1.03-.13-.9Z"/><path class="b" d="M231.26,225.26c-.04,.1,.1,.18,.15,.28,.97-.17,1.04-.34,1.38-.49,.36-.17,.04-.2-.56-.12-.63,.08-.93,.23-.97,.34Z"/><path class="b" d="M180.7,277.48c-.54-.79-.69-.75-.83-.69l.15,.5c.31,.27,.64,.56,.92,.77,.03,.02-.14-.43-.25-.58Z"/><path class="b" d="M234.12,94.17c.07-.32,.18-.72,.19-.96,.01-.26-.04-.54-.1-.53-.1,0-.18,.39-.16,.79,.01,.28,.05,.47,.08,.7Z"/><path class="b" d="M232.37,73.27c-.05-.06-.16,.21-.24,.33l.11,.69,.29-.43c-.05-.21-.08-.5-.16-.6Z"/><path class="b" d="M217.12,227.7c-.09,.1,.2,.16,.33,.24,.41-.1,1.08-.22,1.16-.28,.13-.1-.1-.17-.18-.28-.6,.14-1.27,.26-1.32,.32Z"/><path class="b" d="M151.68,222.65s.37,.13,.57,.2c.12-.07,.3-.14,.34-.23,.01-.03-.33-.13-.48-.18-.56-.02-.55,.09-.43,.21Z"/><path class="b" d="M149.33,236.25c-.54-.72-.87-.99-1.01-.93-.06,.03-.04,.24,.08,.45,.36,.62,.59,.73,.7,.73,.13,0,.15-.16,.22-.25,.6,.75,.56,.58,.22-.05l-.22,.04Z"/><path class="b" d="M233.35,265.72c-.04-.09-.07-.3-.46,.38-.07,.12-.03,.28-.04,.43l.37-.24c.05-.2,.16-.5,.14-.57Z"/><path class="b" d="M229.17,126.11c.04,.08,.16-.18,.2-.42,.08-.44,.13-.98,.19-1.48-.11,.24-.22,.43-.32,.75-.12,.36-.19,.9-.08,1.16Z"/><path class="b" d="M158.64,223.78c-.22,.08,.03,.22,.7,.3,.53,.07,1.11,.1,1.15-.01,.01-.04-.36-.15-.56-.22-.59-.11-1.09-.14-1.3-.07Z"/><path class="b" d="M173.38,260.57c.06-.14-.23-.63-.57-1.02-.16-.19-.27-.19-.4-.28,0,.17,.15,.45,.44,.77,.2,.22,.51,.57,.53,.53Z"/><path class="b" d="M225.59,226.01c-.05,.09-.09,.21,.99,.07,.27-.03,.43-.16,.67-.26-.25-.03,.06-.2-1.03-.05-.27,.04-.58,.18-.62,.24Z"/><path class="b" d="M171.47,268.96c-.01,.06,.11,.33,.17,.48,.39,.46,.44,.33,.51,.23,.02-.03-.08-.28-.12-.32-.38-.51-.52-.53-.56-.39Z"/><path class="b" d="M240.61,222.28c-.01,.13-.18,.31,.55,.26,.16-.01,1.05-.31,1.02-.37-.08-.16-.94,.03-1.57,.11Z"/><path class="b" d="M176.55,225.7c-.68-.19-1.51-.4-1.79-.55-.38-.16-.8-.38-1.53-.38-.45,0-.55,.19-.57,.32-.03,.25,1.1,.5,2.07,.69,.3,.06,.85,.14,1.15,.16,.31,.03,.49,.02,.59,0,.19-.05,.08-.16,.15-.23,.88,.09,1.82,.2,2.6,.25,.41,.03,.85-.02,.73-.08-.39-.19-1.25-.27-1.88-.27-.59,0-1,.05-1.52,.07Z"/><path class="b" d="M234.17,262.6c-.22,.17-.52,.65-.76,1.11-.12,.23-.16,.42-.23,.6,.23-.17,.52-.66,.76-1.11,.12-.22,.26-.63,.23-.6Z"/><path class="b" d="M183.91,226.32s.06,.1,.23,.16c.29,.19,.19-.19,.2-.7,0-.28-.12-.56-.18-.83-.08,.06-.2-.24-.16,.84,0,.13,.07,.36,.04,.45-.09,.02-.14,.06-.12,.09Z"/><path class="b" d="M175.53,267.21c.07-.08-.05-.43-.41-.94-.13-.19-.29-.3-.5-.51,.18,.39,.35,.75,.51,1.1,.14,.12,.37,.38,.4,.35Z"/><path class="b" d="M152.07,232.25c-.05-.17-.06-.3-.14-.51-.12-.29-.33-.58-.51-.71-.27-.19-.16,.08,.08,.52l.58,.7Z"/><path class="b" d="M220.74,283.14c-.03-.06-.21,.1-.32,.16-.1,.23-.29,.59-.27,.64,.03,.07,.21-.1,.33-.17,.1-.23,.28-.59,.26-.63Z"/><path class="b" d="M182.51,222.36c-.02-1.29-.17-.93-.28-1.19l.02,1.27c.1,0,.27,.06,.27-.08Z"/></svg>