<?xml version="1.0" encoding="UTF-8"?><svg id="a" xmlns="http://www.w3.org/2000/svg" viewBox="0 0 350 350"><defs><style>.b{fill:#010101;}</style></defs><path class="b" d="M178.1,237.34c.82-.32,1.68-.67,2.29-.77-.75,.35-1.61,.73-2.22,1.05-.68,.35-1.18,.7,.48,.07,1.75-.69,2.13-.62,2.5-.53,.24,.05,.29,.22,1.39-.2,1.16-.44,1.1-.62,1.29-.83,.31-.36,1.07-.87,2.12-1.43,1.82-.96,3.67-2.03,5.45-2.2,.8-.08,2.63-.89,4.1-1.58,1.23-.24,2.8-.97,4.35-1.85,2.95-1.66,3-1.66,4.53-1.83-2.79,1.15-5.08,2.51-7.5,3.77-.13,.17-.26,.42-.41,.49-1.13,.51-.67,.11-.94,.12-1.97,.88-3.65,1.37-5.32,1.93-.62,.2-1.21,.45-1.76,.74-.85,.46-.59,.52-.43,.61,.26,.16,2.77-.78,1.51,.08-1,.66-2.71,1.64-.76,1.1,2.62-.73,2.94-1.48,4.14-2.2,.46-.28,.84-.54,1.37-.83,.94-.52,1.76-.78,2.05-.77,.38,0,.84,.06,.42,.38-1.97,1.48,1.24,.21,2.28,.12,2.36-.21,4.78-2.5,6.92-3.17,.09-.03,.65-.38,.99-.58-.47,.1-1.13,.3-1.36,.27-.28-.04,.45-.53,1.29-.98,1.98-1.04,3.3-1.96,4.31-2.84,.85-.72,2.08-1.29,3.01-1.6,.65-.22,.76-.03,1.93-.66,.1-.21-.13-.28,.82-.86,.55-.33,1.05-.43,1.58-.63l-2.31,1.45c.83-.21,1.64-.7,2.42-1.5,1.54-1.26,2.77-2.49,3.87-3.6,.85-.91,1.86-1.52,2.54-1.69,.26-.07,.32,.03,.41,.1,.11,.09,.14,.34,.83-.15,.66-.48,.43-.6,.54-.86,.24-.53,.74-1.25,.83-1.66,.11-.56,.85-1.26,2.77-2.59,.55-.38,1.09-.78,1.06-.93-.03-.13-.65,.32-1.21,.71-.37,.27-1.97,1.4-.7,.33,2.62-2.24,.94-1.52,1.91-2.59,.36-.4,.32-.71,.87-.71,.89-.02,2.37-1.93,3.46-2.66,1.43-.78,3.21-2.33,3.57-3.13,.51-1.18,1.84-2.49,4.11-4.55,1.28-1.18,1.42-1.63,1.27-1.81-.31-.36,1.18-1.77,2.71-3.26,.6,.19,.65,.96,.58,1.76-.08,.83,1.88-.26,.04,2.25-.65,1.29-3.57,4.3-3.47,5.03,.03,.17-.34,.68,.33,.25,.67-.42,1.38-.89,2.17-1.89,1.12-1.4,2.2-2.39,3.54-3.41,1.71-1.26,3.59-3.36,5.32-5.17,1.55-1.68,1.45-2.1,1.93-2.99,.58-1.04,1.53-1.18,2.41-2.58,.97-1.53,1.92-2.72,3.39-4.1,.52-.47,.99-1.5,1.25-2.08,.7-.93,1.49-1.9,2.05-2.8,.88-1.37,1.33-1.95,1.14-1.21-.11,.42,.03,.45,.61-.2,.72-.81,1-1.47,1.29-2.03,.7-1.37,1.34-2.61,1.52-3.48,.3-1.44,1.12-2.67,3-4.66,.33-.35,.56-.48,.89-.84,1.71-1.79,5.29-7.58,5.33-8.45,.02-1.2,1.36-3.19,2.54-5.19-.71,.71-1.74,2.35-2.58,3.43-.44,.57-.8,.7-.3-.11,1.37-2.22,.67-1.62,.73-2.04,.05-.35-.03-.5-.05-.74,.41-.5,.88-1.13,1.23-1.5,1.39-1.4,3.34-4.64,4.41-5.51,1.41-2.79,2.52-3.92,3.68-5.91,.54-.66,.72-.18,1.67-2.15,1.38-2.74,3.12-5.56,3.86-8.34,.34-1.34,.76-2.26,1.55-3.56,.14-.22,2.54-4.23,1.03-3.13-.38,.27,.44-1.96,.21-2.19-.17-.16,.39-1.48,.78-1.73,.42-.26,.84-1.35,1.2-2.8,.22-.91,.36-1.59,.99-2.87,.79-1.53,1.45-3.17,2.09-4.91,.63-1.75,1.29-3.59,1.85-5.59,.55-2.09,.76-2.17,1.01-2.21l.38-1.3c-.41-.22-.84-.02-2.01,3.55-.7,2.01-1.51,2.5-2.42,5.73-.13,.45-.36,.56-.39,.33-.04-.24,0-.63,.35-1.46,.5-1.18,.98-2.47,1.34-3.82,.32-1.21,.51-2.37,.76-3.56l.84-.25,.4-1.37c.55-2.9,.67-3.15,1.36-3.95l.69-2.78c-.08-1.52,1.41-6.21,.87-7.08-.13-.23-.02-1.39,.3-2.68,.42-1.72,.63-1.59,.83-1.52,.2,.06,.41,.1,.22,1.58,.24,.02,.17,1.18,.26,1.75,.29,1.83,.85,1.07,1.92-3,.49-1.65,1.09-5.17,.97-5.58-.42-1.37,.42-3.68,.63-5.46,.21-2.04,.8-5.12,.58-5.94-.39-1.49,.1-2.53,.34-4.01,.17-.99,.33-2.11,.47-3.23,.16-1.25,.09-1.58-.12-1.34-.4,.46-.48-.92-.33-2.8l1.47-18.62-7.15,17.39-.12,.28c-.81,1.94-1.57,4.9-2.58,5.7-.42,.75-.81,1.59-1.18,2.46-.4,.86-.79,1.76-1.14,2.64-.94,2.29-.94,1.9-.91,1.23,.01-.27-.09-.32-.18-.38-.37-.25-1.35,2.06-2.05,3.4-.82,1.58-.37,1.32-.38,1.66,0,.31,.04,.81-.34,1.33-1.14,1.57-1.61,3.62-2.53,4.93-.62,.87-1.47,2.36-1.65,1.98-.06-.12-.08-.55-.76,.76-.43,.82-.67,1.61-.43,1.46,.79-.51,.1,.71-.85,2.14-.38,.57-.99,1.2-.93,.97,.56-2.19-1.08,.94-1.32,1.63-.64,1.85-1.55,3.1-2.61,4.58-1.58,2.16-2.34,3.61-2.1,4.23,.1,.24-.16,.93-.96,2.12-.64,.96-.89,1.11-1.13,1.2-.64,.25-1.34,1.61-1.26,1.89,.09,.32,.23,.31-.75,1.47-.41,.49-.91,.78-1.19,1.41-1.26,2.65-3.19,5.8-4.65,8.58-.59,1.1-.7,1.68-1.96,3.12-1.08,1.22-1.64,1.6-1.22,.57,.28-.68,.12-.74-.83,.41-1.54,1.88-2.76,3.97-4.44,5.83-.28,.32-.38,.73-.02,.44,.2-.16,.52-.5,.74-.7,1.01-.87,1.04-.43,.23,.77-1.02,1.51-.72,.53-1.26,1.06-.77,.76-.68,.92-.65,1.01,.2,.64-1.74,2.34-2.49,3.46-1.24,1.74,.03,1.25-.99,2.38-2.29,2.52-2.06,2.68-2.06,3.19,0,.15-.2,.57-.79,1.19-.48,.5-.79,.67-.62,.32,.65-1.32,0-.92-1.61,.67,.08-.77-1.51,.29,0-2.07,.42-.67-.49,.11-1.38,1.02-1.19,1.19-2.36,2.52-2.96,3.43-1.07,1.57-2.22,3.31-3.62,5-1.38,1.71-2.9,3.51-4.52,5.38-.09,.11-.09,.17-.12,.25,.68-.62,1.31-1.11,1.37-.98,.1,.19-.86,1.07-1.39,1.59-1.54,1.48-2.92,2.52-4.01,3.18,.92-1.02,1.91-1.95,2.97-2.77-.24-.1,.39-1.16-2.01,1.12-.94,.89-1.9,1.69-2.8,2.68-.77,.84-1.52,1.69-2.37,2.5-.86,.79-1.79,1.57-2.85,2.34-.78,.56-1.88,1.66-1.9,1.95-.02,.28,1.06-.44,1.82-1.2,2.34-2.33,2.99-2.59,3.34-2.3,.19,.17,1.26-.51,1.21-.11-1.29,1.2-2.7,2.5-1.09,1.56,1.08-.64,1.12-.26,1.35-.07,.23,.19,.66,.19,2.46-1.29,.04-.03-.16,.41-.28,.66-.3,.65-1.78,2.28-.44,1.48,1.4-.85,2.47-2.12,3.47-3.32,.11-.13,.29-.33,.45-.48,1.48-1.37,2.18-1.3,3.44-2.67,.93-1.07-.32-.51,1.29-2.31,.15-.17,.28-.35,.42-.49,2.06-2.02,2.91-3.35,4.05-4.85,1.46-2.06,1.8-2.4,2.54-2.44,.71-.04,3.08-2.37,4.19-2.97,.25-.14,.74-.84,1.06-1.3,.45-.63,1.06-1.53,1.49-1.98,2.53-2.62,3.15-3.8,3.23-4.62,.02-.25,.18-.68,.97-1.38,1.13-1.03,2.03-2.12,3.28-3.79,1.09-1.46,.54-.46,.33-.03-.27,.55-1.09,1.8-.12,.87,.98-.95,1.09-1.51,1.48-2.17,.45-.77,.98-1.29,1.58-1.94,2.48-2.89,4.59-5.97,6.22-8.73,.86-1.51,1.67-2.8,2.7-4.35,.7-1.06,1.36-2.1,2.04-3.07,.65-.99,1.31-1.91,2.06-2.72,1.36-1.48,2.36-4.1,3.55-5.49,1.35-1.66,1.57-2.31,1.99-3.58,.49-1.54,2.64-5.33,3.58-7.06,.65-1.12,.62,.24,1.63-2.46,.5-1.33,1.34-1.69,2.13-3.53,.72-1.86,1.5-2.25,2.08-3.64,.76-1.82,.03-1.19,.13-1.95,.01-.08,.12-.32,.14-.42,.3-1.24,.29-1.24-.8,.34,.08-.39-.25-.33,.32-1.26,.48-.79,.94-1.49,1.39-2.27,.43-.79,.84-1.66,1.25-2.77,.39-1.05,.93-1.94,1.01-1.81,.28,.51,1.39-1.61,2.1-3.17,1.46-3.37,3.13-5.23,4.32-9.46l-2.2-.48v.3c.02,.13-.18,1.18-.28,1.49-.34,.98-.49,2.53-.62,4.18-.08,.92-.16,1.8-.26,2.64-.13,.84-.29,1.65-.48,2.46-.54,2.26-.82,6.89-.42,6.52,1.06-.89,.26,2.84-.16,5.72l-.33,2.6c-.14,.86-.3,1.73-.52,2.62-.41-.53-.94,.38-1.7,3.88-.41,2.06-1,3.89-1.59,4.97-.66,1.15-.89,2.77-.69,3.2,.26,.54,.23,1.78-.07,3.54-.15,.92-.48,1.66-.75,2.19-.26,.51-.5,1.01-.46,.25,.06-1.15-.12-1.41-.32-.88-.63,1.71-.31,1.72-.3,2.04,.04,.93-.29,2.57-.64,4.07-.25,1.14-.51,2.32-.68,3.31-.19,1.13,.55,.43-.08,2.17-.97,2.66-.25-1.07-1.11,.72-.23,.45-.26-.18-.52,.22-1.24,1.91-1.12,4.03-2.26,6.26-.32,.63-.37,1.39-.23,1.44,.06,.02,.24-.2,.38-.49,.24-.48,.51-1.08,.77-1.66,.55-1.26,.83-1.5,.84-1.01,0,.66-.67,2.01-.98,2.85-.86,2.16-1.74,3.15-2.71,5.34-1.58,3.59-2.41,4.62-2.36,3.28,.02-.91-.77-.03-.65-1.1,0-.05-.51,.78-.77,1.29-.28,.56-.64,1.48-.41,1.27,.69-.66,.5,.43,.38,1.39,.41-.73,.61-.9,.84-1.04,1.04-.63,1.78-.77-.49,4.65-.29,.71-.46,1.42-.05,.97,.24-.27,.59-.88,.83-1.52,.64-1.73,1.43-3.36,2.26-5.01,.86-1.69,.95-1.43,1.09-1.16,.19,.39-.46,1.44-.94,2.35-1.51,2.86-1.86,4.37-2.03,5.67-.08,.61-.46,1.42-.65,1.27-.42-.32-1.38,1.45-2.56,3.75-1.02,2.06-2.24,4.03-3.29,6.01-1.27,2.42-1.51,2.35-1.57,1.92-.06-.47,.11-1.34,.25-2.15,.09-.49,.47-1.23,1.02-2.03,.65-.95,1.19-1.91,1.21-2.49,.02-.42,.02-.92-.51-.15-1.1,1.55-2.37,3.22-3.58,5.62-.82,1.69-2.52,4.46-1.18,3.42,.25-.19-.08,1.07-.99,2.44-.86,1.29-.14-.39-.41-.22-.75,.46-.93,.15-.08-1.97,.55-1.38-.59,.39-1.3,1.52-.4-.24-1.74,1.44-2.74,2.43-1.62,1.56-1.88,1.84-3.29,4.79-.67,1.37-1.34,3.03-2.27,4.18-1.2,1.52-.69,2.05-2.06,3.29-1.28,1.15-1.12,2.21-2.28,3.51-.42,.47-1.07,1.41-1.53,1.85-.88,.84-1.68,1.77-2.41,2.79-.37,.51-.72,1.04-1.06,1.6-.35,.53-.68,1.09-1,1.67-.21,.38-.68,1.04-1.04,1.5-3.23,3.83-3.34,3.88-4.39,6.22-.09,.21-.17,.4-.28,.62-.5,.93-1.33,1.74-2.29,2.59-1.73,1.52,.24-.58,.29-.82,.07-.29,.21-.64-.36-.2-.72,.56-1.07,1.14-1.44,1.67-.82,1.24-1.47,1.76-1.94,1.85-.24,.05-.24-.18-.54-.06-.85,.36-1.79,1.28-2.79,2.83-.32,.49-.53,.97-1.24,1.43-1.88,1.17-2.35,2.55-3.92,3.84-.92,.76-.62,.91-.99,1.38-.93,1.18-1.66,1.07-2.31,1.85-1.48,1.8-1.86,1.54-2.67,2.1-2.03,1.36-2.21,1.55-2.37,2.44-.04,.22-.74,.91-1.41,1.5-.52,.16-1.01,.31-1.56,.5-.38,.13-.91,.38-1.66,1.04-.3,.26-.51,.64-.41,.69,.43,.22-.64,.99-2.05,1.86-.82,.51-1.5,.85-2.3,1.28-1.44,.8-1.46,.82-2.62,2.13-.31,.33-.81,.71-1.32,1.02-.71,.43-1.37,.77-2.05,1.15-2.86,1.49-3.92,2.27-4,2.91-.04,.4-.03,.77-.36,1.33-.15,.25-1.11,.88-1.2,.62-.09-.28-1.29,.43-2.11,.91-1.07,.64-2.02,1.47-2.92,1.87-1.34,.62-3.08,2.07-4.15,1.93-.75-.1-3.05,1.14-4.28,1.82-2.17,1.19-4.04,2.5-5.21,2.15-.05-.02-.85,.28-1.05,.39-3.24,1.82-5.64,2.3-8.13,3.05-1.95,.55-2.61,1.02-3.34,1.54-1.76,.49-3.51,1.06-5.22,1.95-.1-.06-.24-.09-.87,.16-.22,.09-.35,.22-.52,.33-2.38,1.02,.15,.42-.61,.91-.81,.5-2.05,1.09-2.04,1.39,0,.11-.12,.27-.08,.37,.04,.1,.71,.04,.95-.08,2.7-1.41,4.49-1.41,6.8-2.27Zm68.1-87.75c-.47,.43-.95,.8-1.42,1.2,.65-.9,1.19-1.73,2.02-2.76,.23-.28,.98-.68,1.26-.77,.35,.14-.46,1.05-1.86,2.33Zm8.24-10.7c0,.33-.17,.81-1.32,1.96-.64,.65-1.22,.98-1.23,.8-.02-.43,1.27-1.55,2.1-2.42,.14-.14,.27-.28,.41-.43,.01,.03,.04,.05,.04,.1Zm9.54-10.33l-.42,.31,.83-1.16s.23-.19,.25-.17c.08,.09-.15,.44-.66,1.02Zm48.94-69.13c.02-1.07,.22-3.1,.38-3.7,.31-1.14,.29,.88,.4,1.58,.08,.49,.52-.87,.23,1.43-.2,1.66-.73,2.12-.8,5.12l-.28,.06c.01-1.49-.03-2.86,.06-4.5Zm-1.04,10.03c.3-.9,.58-1.52,.82-1.99,.28-.54,.09,.99,.02,1.63-.15,2.02-.34,1.29-.52,1.69,.02-.2,.05-.42,.05-.58,0-.1-.03-.11-.04-.16l-.02,.77c-.23,.89-.4,1.1-.51,.91-.17-.28-.17-1.13,.2-2.28Zm-1.38,7.01c.06-.4,.32-1.11,.41-1.14,.34-.14,.65-.05,.98-.04l-.22,1.31c-.3-.15-.55-.57-1.03,.46-.16,.3-.27,.22-.14-.58Zm-5.56,14.28c.1-.41,.24-.8,.37-1.2-.15,1.45-.23,2.93-.44,4.37l-.34,.46c-.23-.37-.12-1.41,.42-3.64Zm-6.46,26.08c.63-2.35,1.38-4.04,2.2-5.25l-1.76,4.96c-.1,.27-.34,.67-.44,.75-.08,.06-.07-.19,0-.46Zm-19.43,37.96c-.07,.28-.37,1.01-.5,1.18-.69,.95-.41,.26-.31-.09,.1-.36,.25-.79,.4-1.27,.49-.47,.51-.22,.41,.17Zm-2.23-.55c.46-.43,.21,.13-.25,.96-.14,0-.83,.9-.39-.04,.08-.18,.53-.82,.64-.92Zm-2.99,5.01c.09-.02,.29-.19,.24-.03-.05,.17-.32,.7-.5,.97-.35,.52-.43,.51-.22,.05,.15-.31,.32-.66,.48-.99Zm.93,4.26c.67-.77,1.59-2.22,1.53-1.57-.01,.08-.35,.65-.55,.99-.76,.97-1.54,1.97-1.54,1.5,0-.15,.28-.59,.57-.93Zm-3.23,3.04c.89-1.34,1.03-1.14,1.26-1.11,.17,.24-.09,1.06-.76,2.4-.63,.51-1.52,1.42-1.79,1.37-.18-.03,.45-1.39,1.29-2.66Zm-3.63,3.59c.04,.06,.09,.1,.09,.21,0,.28,.23,.32-.62,1.55-.3,.45-.48,.55-.45,.38,.06-.43-.44-.25,.97-2.14Zm-6.56,3.91c.42-.36,.69-.61,.9-.76,.21-.16,.56-.45,.06,.32-.41,.63-.74,.91-.86,.89-.11-.02-.06-.23-.11-.45Zm-9.96,17.84c2.5-2.36,2.18-2.53,1.91-2.76-.09-.07,0-.17,.99-1.04,.13-.12,.22-.12,.34-.25,1.12-1.14-.04-.72,1.26-1.8,1.09-.92,1.61-1.55,2.3-2.56,.78-1.13,1.55-2.3,2.75-3.58,2.22-2.66,2.69-3.09,2.06-1.55-.41,1.02-.74,1.94-2.43,3.99-.83,1.02-.79,1.15-.38,.93,.31-.17,.08,.48-.53,.85-1.31,.82-2.92,2.82-4.57,4.49-1.11,1.17-2.27,2.3-3.4,3.41-.24,.23-.57,.45-.63,.43-.06-.02,.25-.49,.32-.57Zm-3.94-.9c.1,0,.22-.02,.3-.01,.12,.01,.22,.05,.33,.08-.31,.2-.69,.49-.82,.49-.12,.01,.11-.36,.18-.56Zm-11.5,11.39c.39-.24,.74-.43,1.17-.76,3.54-2.85,.92-.37,.13,.49-.42,.14-.76,.44-1.04,.9-1.32,.86-1.87,1.05-.26-.63Zm-1.29,2.33c1.85-1.28,1.54-1.4,1.57-1.69l1.01-.87c.07,.44-.05,1.08-2.73,3.16-.5,.39-1.09,.78-.96,.5,.1-.22,.54-.7,1.11-1.09Zm-26.84,21.29c.72-.31,1.32-.37,1.43-.24,.21,.25-1.4,.86-2.13,1.27-3.13,1.81-1.62,.66-1.26,.26,.96-.52,.99-.89,1.96-1.28Z"/><path class="b" d="M214.33,175.07c.09-.3-.37-.16-1.25,.3-1.33,.66-1.41,.45,.27-.7,2.28-1.62,2.34-2.08,3.36-3.07,1.18-1.15,.72-.89-.55-.13-.7,.42-1.35,.77-2.01,1.14-.08,.04-1.72,1.06-3.39,2-1.66,.96-3.31,1.91-3.34,1.94-.33,.31-.77,.67-.94,.88-.23,.29-3.32,2.76-3.95,3.19-1.41,.93-2.61,1.3-4.01,2.33-.82,.6-1.15,.68-1.07,.5,.45-1.01-1.53,.46-2.57,1.25-.95,.72-1.46,1.23-2.55,1.55-1.78,.81-3.61,1.51-5.08,2.86-1.92,.93-3.54,1.35-5.84,2.76-.54,.34-1.38,.76-1.59,.95-1.24,1.1-3.9,2.39-6.04,3.51-1.36-.1-1.25-.04-4.75,1.75-2.72,1.34-2.63,1.98-5.8,3.4-3.01,1.35-4.28,1.97-4.15,1.45,.19-.72-1.27,.03-3.38,.87l-2.43,.97-2.45,.9c-1.64,.6-3.27,1.21-4.93,1.75-1.66,.54-3.29,1.13-4.96,1.61l-2.5,.74c-.58,.17-.92,.28-1.38,.39-1.09,.27-1.91,.51-2.58,.73,0-.93-.22-1.24-.79-1.28-.45-.04-.15-1.67-.13-2.85,.03-.82,.08-1.83,.31-2.52,.38-1.21,.55-.57,.66,.35,.02,.12,0,.36,.03,.46,.24,1.31,.75,.27,1.15-2.46,.19-1.26,.28-2.64,.44-3.95,.28-2.3-.02-1.89-.27-1.33-.28,.64-.61,2.83-.86,2.22,.1-1.22,.07-2.7,.41-3.59,.55-1.44,.49-3.16,.77-4.66l-.39-.27,.22-1.35c.28-.42,.56-1.12,.87-2.52,.65-.71,.64-.72,.93-3.32l.06-.48,.07-.51c.06-.39,.12-.75,.18-1.08,.11-.66,.23-1.2,.35-1.7,.25-.99,.55-1.77,1.03-2.86,.16-.36,.38,.09,.59-1.92,.38-3.59,1.08-6.19,2.19-10.26,.07-.26,.14-.54,.23-.87-.03-.02-.12,.04-.2,.09l-.25,.16c-.17,.11-.35,.23-.53,.35l-1.17,.82c-.82,.58-1.69,1.23-2.52,1.85-1.65,1.25-3.08,2.42-3.61,2.96-.12,.1-1.55,1.34-2.97,2.56-.65,.57-1.3,1.14-1.79,1.56-.47,.42-.76,.69-.76,.71,.03,.15-.26,.46-.7,.84-.21,.18-.5,.41-.74,.61-.22,.18-.47,.36-.71,.56-.99,.76-2.09,1.59-2.38,2.06-.16,.26-3.45,2.47-.86,1.2,.15-.07,.06,.17-.07,.27-1.78,1.35-3.57,2.79-5.37,4.01-1.24,.83-.85,.15-.97-.02-.11-.17-.54-.05-1.59,.58-1.86,1.11-2.21,.9-3.39,1.41-.95,.42-3.11,2.11-3.5,1.85-.47-.31-2.42,1.46-3.67,2.27-2.02,1.29-1.33,1.2-1.35,1.43-.02,.23,.23,.29,.36,.42,1.65-.98,2.41-1.23,2.52-.92,.54-.41,1.39-1.08,1.51-1.13,1.78-.71,2.01-.26,2.44,.04,.42,.31-1.97,1.54-2.52,2.14-.28,.3-.76,.74-.76,.85,0,.36-.44,.89-2.16,2.07-.54,.37-.65,.55-.26,.34,.49-.27,1.46-.91,1.52-.89,.3,.08-.88,.7-1.35,1.08-.48,.38-1.4,1.01-1.47,1.13-.18,.31,.58-.08,1.27-.48,1.39-.79,3.05-1.94,4.25-2.68,2.11-1.3,3.05-1.61,2.3-1.91-.4-.16,.57-1.05,2.55-1.96,.84-.39,1.74-1.22,2.35-1.8,.57-.54,.5-.75,1.48-1.51,.41-.44,.77-.71,1.18-.82,1.8-1.07,1.19-.2,2.35-.74,1.58-.74,3.05-2.27,4.22-2.84,2.79-1.37,2.71-1.88,2.97-2.42,.19-.4-.95-.03,.85-1.36,1.05-.8,1.46-.66,2.07-.9,.48-.2,.59-.06,.65,.11,.08,.19,.35,.22,.59,.22,.24,0,.46-.07,.64-.23,.34-.29,.68-.58,.87-.64-.13,.52-.31,1.07-.48,1.6-.04,.13-.01,.28,.04,.28,.34,0,.73-.23,1.28-1.21-.05-.69,.08-1.06,.29-1.48,.2-.41,.47-.79,.64-1.28l.1-.78c.03-.09-.07,.04-.11,.05l-.15,.12c-.1,.07-.19,.15-.27,.21-.17,.12-.29,.21-.36,.23-.58,.2,.39-.61,.99-1.19,.12-.12,.25-.25,.38-.38l.21-.21c.07-.07,.16-.17,.15-.12,.1,.1,.2,.18,.22,.13,.12-.38,.24-.72,.34-.99,.06-.14,0-.09,0-.11-.02,0-.03-.02-.04-.03-.02-.03-.02-.07,0-.12,.03-.1,.12-.26,.24-.44,.25-.36,.66-.83,.93-1.2,.09-.12-.26,.05-.51,.18-.31,.16-.65,.45-.92,.76-.62,.71-.53,1.05-2.26,2.34-1.64,1.23-1.51,.7-2.38,1.11-.71,.35-1.64,.96-2.57,1.54-.29,.18-.56,.27-.65,.26-.04,0,.49-.48,.68-.6,1.69-1.08,3.19-2.22,4.81-3.48,.82-.64,1.65-1.28,2.48-1.92,.42-.32,.85-.64,1.28-.97l.64-.48,.32-.23,.16-.12,.08-.06s0,.03,.01,.04c-.12,.56-.25,1.13-.37,1.71-.35,1.48-.64,2.87-.9,3.78-.26,.92-.48,1.3-.71,.95-.09-.11-.44,.9-.49,1.28-.14,1.26-.59,3.12-.89,4.7-.31,1.58-.5,3.13-.25,3.94,.1,.32,.11,1.11-.16,2-.98,3.31-1.62,6.8-1.74,10.72-.01,.46-.06,.77-.18,.88-.28,.28-.31-.78-.41-1.51-.14-1.11,.19-1.83,.4-2.62,.12-.46,.2-.89,.16-1.08-.04-.16-.11-.19-.19-.07-.19,.31-.4,1.07-.55,1.98-.3,1.82-.65,3.81-.78,5.49-.16,2.02-.82,2.37-.77,4.91,.01,.53-.11,1.21-.27,1.81-.16,.61-.35,1.19-.49,1.67-.42,1.47-.29-.69-.39-1.44-.04-.32-.02-.9,.03-1.56,.04-.48,.09-1.02,.13-1.53,.09-1.02,.15-1.91-.08-1.9-.6,.15-.52,3.42-1.22,6.43-.58,2.22-.92,5.57-.46,5.48,.33-.02,.31,.7,.06,2.41,.58-.11,1.36-.31,2.27-.51,1.92-.43,4-1.01,5.69-1.56,1.67-.55,3.01-1.16,3.24-1.45,.56-.52,2.61-1.2,3.12-1.6,.57-.46,1-.65,1.91-.73,.46-.04,1.69-.24,.07,.44-.57,.24-1.35,.49-1.85,.71-.63,.26-.18,.33,.15,.2,1.92-.78,2.67-.86,3.76-.97,1.25-.13,2.14-.23-.18,.76-.43,.18,0,.22,.95-.12,1.45-.51,1.94-.5,2.57-.58,.38-.04,.63,0,1.46-.39,.77-.36,1.46-.72,1.14-.78-.67-.13-1.51-.19-2.14-.33-.16-.04,.05-.25,.39-.45,.48-.28,1.17-.46,1.65-.55,2.21-.41,2.86-.69,2.32-1.07-.51-.36-.23-.49,3.19-1.66,3.71-1.74,7.55-3.38,11.17-4.76,1.37-.5,2.51-.66,4.09-1.34,2.62-1.12,1.32-1.22,3.5-2.31,.69-.36,1.28-.79,1.91-1.19,.48-.45-1.19-.12,2.31-1.68,1.44-.63,3.29-1.94,4.96-2.93,.41-.24,.06-.21,1.13-.74,3.42-1.75,3.51-1.83,3.28-2.22-.07-.12-.68,.04,.18-.54,.76-.52,1.53-.81,2.22-1.13,.69-.31,1.43-.68,1.73-.67,.19,0,.53-.09,.81-.14,.21-.22,.63-.57,.59-.64-.21-.41,1.48-2.03-2.28-.19-.4,.19,.12-.29,.66-.66,2.95-1.97,3.16-1.09,5.92-2.91,.25-.17,.97-.43,1.12-.41,.15,.02,.03,.29-.29,.52-3.27,2.35-2.77,2.7-2.55,3.2,.12,.27-.97,.96-2.21,1.71,4.68-2.34,6.28-3.59,5.63-4.03-.09-.06-.7,.2-.25-.2,1.71-1.48,6.22-3.63,6.72-4.93,.49-.26,1.01-.55,1.46-.78,.63-.3,1.18-.56,1.83-.87,.51-.26,1.18-.69,1.55-1.05,.32-.32,.5-.58,.54-.74Zm-102.18,14.71c-.16,.06-.52,.24-.48,.16,.1-.19,.52-.54,1.13-.92,.15-.09,.4-.22,.39-.19-.07,.18-.45,.53-1.03,.95Zm22.22,10.42c.02-.19,.22-.52,.32-.6,.11-.1,.2-.02,.3,0-.16,.98-.31,2.34-.54,2.28-.14-.04-.19-.68-.07-1.67Zm.56,14.39c-.58,.23-1.15,.36-1.16,.27,0-.05,.46-.27,.83-.39,.37-.12,.91-.22,1.38-.33-.34,.15-.65,.29-1.05,.45Zm5.47-2.89c.22,.14,1.35,.07-.71,.77-.74,.25-1.7,.55-2.42,.72-.75,.16-1.37,.24-1.71,.18-.31-.05-.93,0-1.25-.05-.41-.07-.36-.22,.03-.42,.4-.2,1.14-.44,2.29-.71,.58-.13,1.06-.25,1.53-.39,.24-.07,.46-.14,.7-.23,.25-.09,.51-.19,.77-.31,.04-.02,.72-.14,.95-.14,.71-.03,.24,.29-.19,.59Zm6.99-1.81c-.79,.25-.68,.09-.65,0,.02-.07,.36-.24,.56-.36,.14,.02,.28,.04,.42,.06-.11,.1-.23,.27-.33,.3Zm15.09-6.65c-.03-.32,.64-.85,2.47-1.71,.03,.32,.44,.53-2.47,1.71Zm3.66-2.25c-.36,.17-.74,.33-1.11,.49,.15-.17,.15-.32,.51-.52,.99-.55,2.2-.95,2.34-.87,.18,.09-1.09,.59-1.74,.9Zm4.44,.05c-.81,.29-1.44,.45-1.13,.13,.1-.1,.57-.33,.87-.51,1.1-.43,1.02-.23,.95-.05-.04,.12-.32,.29-.7,.43Zm1.37-3.65c-.36,.17-1.01,.42-1.01,.4-.02-.12,.64-.43,1.12-.66,.54-.25,1.09-.5,1.64-.76-.32,.3-.96,.66-1.75,1.02Zm5.2-.73c-.17,.08-.35,.17-.52,.26l-.03-.22c1.46-.73,1.85-1.44,3.81-2.17,.16-.06,.38-.12,.35-.08-.67,.64-2.16,1.43-3.6,2.21Zm3.93-3.4c-.53,.29-1.06,.58-1.59,.87-.12-.05-.36-.05-.32-.18,.1-.38,2.33-1.44,2.12-1.79,.71-.18,1.03-.29,1.08-.26,.23,.15,.49,.32-1.3,1.36Zm6.2-2.39s-.53,.14-.45,.06c.32-.33,1.1-.79,1.92-1.21,.51-.26,.7-.31,.47-.07-.53,.34-1.23,.77-1.94,1.22Zm23.32-14.64c-.65,.39-1.87,1.3-1.7,.94,.2-.43,1.09-1.28,2.59-2.29,1.04-.69,1.79-1.03,2.03-.98,.21,.04-.41,.61-1.25,1.19-.56,.39-1.13,.77-1.67,1.14Z"/><path class="b" d="M69.5,219.57c.7-1.49,2.46-3.01,6.75-5.83-.22-.75-.43-1.51-.68-2.25-.03-.1-.12-.18-.83,.25-.33,.2-.75,.53-1,.74-.8,.7-1.54,1.35-2.34,2.05-.8,.68-.28,.9-2.22,1.94-.92,.48,.5-.75,.6-1.07,.08-.26,.85-.93,.94-1.2,.14-.39,2.92-2.18,1.59-1.68-.49,.18-2.41,1.5-3.75,2.28-1.54,.88-2.72,1.79-1.08,1.15,.76-.3,.11,.25-.12,.54-.31,.39-.68,.86-1.79,1.54-.63,.38-1.29,.65-1.31,.44-.04-.34-1.28,.6-2.14,1.12-.84,.51-.42,.62-2.09,1.5-2.1,1.12-6.31,4.53-5.3,4.32,1.47-.3-.59,1.21-1.25,2.01,.33-.12,.79-.32,.95-.32,.14,0-.26,.29-.41,.32-.26,.06-.4,.03-.59,.04-2.12,1.2-2.1,1.54-2.44,2.02-.58,.8-1.61,1.59-4.13,3-.85,.48-1.5,.83-2.04,1.14-.5,.27-.92,.49-1.34,.71-.88,.46-1.8,.89-3.98,1.93-.57,.27-1.35,.72-1.45,.63-.13-.11,.84-.57,1.3-.87,2.28-1.49,4.96-3.05,7.27-4.46,1.46-.89,3.59-2.07,1.2-1.2-.51,.19-4.63,1.75,1.29-1.76,.26-.16,.66-.68,.74-.89,.22-.53,2.82-2.47,1.82-2.18-.93,.28-3.64,2.11-5.63,3.13-.57,.3-1.26,.72-1.97,1.19-.94,.64-1.93,1.32-2.85,1.95-2.06,1.46-3.43,2.58-3.24,2.73,.4,.35-.1,1.17-1.5,2.46,.38,.18,.85,.42,1.34,.67,1.01,.52,1.19,.16,2.59,1.24,.8,.61-.96-.2-1.43-.26-.42-.04-1.03-.15-2.13-.73-1.72-.91-1.04-.45,.12,.37,1.18,.83,2.93,1.97,2.97,2.25,.05,.41,.79,1.05,1.82,1.75,.5,.34,1.14,.74,1.67,1.04,.43,.23,.88,.46,1.32,.67,1.63,.77,2.54,1.33,3.52,2.4,1.32,1.44,2.33,1.5,3.51,2.19-.14-.21-.47-.55-.36-.59,.31-.12,1.52,.35-.08-.96-1.96-1.63-2.37-1.27-3.69-2.08-.37-.24-.75-.48-1.13-.72-.5-.14-.86-.42-1.15-.78-.98-.79-1.73-1.38-2.26-1.81-.58-.47-.9-.75-.98-.89-.18-.27,.58,.07,1.88,.61,1.35,.55,2.44,.95,2.61,.59,.23-.54,.53-.36,4.17,2.25l-.28,.34c.68,.56,.92,.86,.33,.63-.74-.29-1.31-.44-.19,.41,1.83,1.41,3.31,2.54,3.2,3-.12,.52,3.62,2.83,3.97,3.5,.24,.49,.58,.8,2.15,1.67,.71,.39,1.72,1.04,2.32,1.48,1.5,1.11,.08,.22-.47-.08-.46-.25-1.4-.89-.84-.32,.86,.86,6.08,4.23,6.46,4.17,.95-.16,3.05,1.37,4.94,2.53,2.19,1.34,4.4,2.68,6.58,4.01,2.46,1.51,3.51,1.93,2.97,1.11-.34-.52,.49-.1,1.63,.62,1.46,.92,3.14,1.84,4.04,2.74,.72,.73,2.74,2.02,2.53,2.38-.19,.34,1.87,1.59,3.31,2.46,1.56,.94,1.72,.7,1.95,.58,.12-.06,.22-.12,.49-.09,.14,.02,.73,.27,.89,.38,.8,.54-.04,.19,.03,.32,.32,.65,2.02,1.77,2.9,1.9,1.73,.27,2.49,1.14,3.21,1.88,.74,.77,1.07,1.34,2.46,1.48,.88,.09,2.35,.82,4.42,2.12,1.16,.72,2.4,1.43,3.6,2.15,.3,.17,.71,.42,1.06,.62,.17,.1,.33,.19,.44,.25,.11,.06,.19,.1,.19,.1,.18-.12-1.12-.79-1.41-1.07-.94-.91-2.07-1.85-3.79-3.1-1.61-1.17-1.09-1.42-.68-1.63,2.68,1.26,5.33,2.48,8.19,4.65,.23,.17,.81,.51,1.12,.66,.51,.25,.96,.43,1.35,.58,.05,.02-.32-.34-.6-.52-2.32-1.56-4.38-2.98-5.42-4.09,1.52,.8,3.07,1.63,4.53,2.36,.37,.19,.54,.1,.65,.05,.11-.05-.19-.28-.62-.49l-4.79-3.42c-1.12-.82,.14-.08,.43,.05,.52,.24,1.11,.55,1.67,.82,.44,.22,1.29,.73,.83,.28-.13-.13-.73-.5-1.08-.7-1.98-1.1-3.93-2.07-5.97-3.39-1.02-.66-1.13-.79-.61-.69,1.7,.33,1.65,.3-1.74-1.73-1.37-.82-2.73-1.71-3.98-2.56-1.71-1.14-3.17-1.79-4.69-2.56-1.11-.56-1.53-.39-1.7-.5-1.18-.82,.08-.38-.36-.84-.35-.37-1.04-.87-1.91-1.27-1.09-.51-2.22-1.04-3.08-1.36-1.39-.52-2.01-1.02-2.71-1.67-.29-.27-.87-.68-1.5-.96-.82-.37-.83-.19-.87-.05-.05,.14-.06,.31,1.18,.96,1.29,.67,2.47,1.36,3.09,1.99,.3,.31,.93,.82,.29,.62-.45-.15-1.11-.58-1.69-.95q-4.57-2.92-7.42-3.79c-.12-.04-.24-.07-.34-.09-.43-.08-1.16-.42-2-.94-.89-.56-1.45-1.04-1.23-1.09,.73-.15-1.51-1.42-2.94-2.41-1.83-1.27-3.45-2.21-4.82-2.66-1.86-1.46-3.2-2.14-4.34-2.41-.19-.05-.56-.23-.85-.34-.05-.15-.12-.31-.15-.45,0-.04,.1-.02,.2,0,.41,.09,.8,.16-.32-.59-.71-.47-1.73-1.15-1.69-.85,.04,.3-.89-.19-1.62-.51-.73-.32-1.04-.51-1.58-1.07-1.34-1.37-2.2-1.93-3.57-2.29-.5-.14-.83-.14-1.3-.24-.48-.11-1.05-.29-2.23-1.07-1.36-.91-2.16-1.61-2.37-2.02-.16-.31,.05-.39,.1-.57,.71,.46,1.44,.99,1.94,1.12,1.05,.28,.27-.64,.38-.98,.04-.12,.98,.32-.18-.52-.42-.3-1.26-.77-1.52-.86-.96-.31-2.01-.82-3.68-2.09-.19,.04-.42-.01-.67-.13-.13-.06-.26-.14-.4-.22-.13-.08-.31-.21-.32-.23-.2-.17-.34-.4-.52-.52-.24-.17-.52-.33-.82-.47-.29-.13-.64-.24-1.01-.39,.17,.14,.31,.3,.53,.45,.79,.53,1.18,.93,.89,1.27-.29,.34-1.04,.01-2.39-.92-.72-.49-1.34-.67-2.08-1.01,.09-.11,.23-.23,.46-.39,.58-.4,.07-.63,1.65-1.21,.83-.3,.44,.09,0,.5-.46,.43-.36,.57-.12,.63,.25,.05,.65,.04,.92,.07,.58,.05,1.42-.37,2.02-.59,.02-.19,.2-.29,.43-.24l.17-.17c.14-.11,.3-.23,.28-.24-.2-.35-.19-.35,2.17-2.1,.38-.29,.2-.39,.57-.68,1.6-1.26,2.76-2.48,5.66-3.93-.94,.9-1.5,1.57-.38,1.28,.26-.07,.87-.09-.34,.49-3.33,1.59-2.8,1.89-3.61,2.66,1.87-1.03,4.07-2.11,5.35-3.31,1.39-1.3,1.79-1.23,2.6-1.51,.37-.13,.93-.35,1.51-.82,.4-.32,.97-.82,.83-.8-2.11,.32,1.05-2.08,3.72-4.25,2.14-1.76,2.07-1.74,4.69-2.9Zm3.6-4.98c.56-.4,.97-.54,1.29-.58-.23,.22-.43,.47-.82,.76-.76,.57-.97,.53-.97,.43,0-.1,.19-.39,.51-.61Zm23.31,59.78c-.7-.44-1.66-.92-1.88-1.26-.17-.26,2.35,.73,3.5,1.39,1.68,.97,1.66,1.31,1.6,1.45-.16,.39-2.04-.96-3.22-1.58Zm9.99,5.43c-.66-.36-.95-.61-1.04-.79,.22,.08,.56,.18,.65,.24,.31,.21,.57,.42,.77,.6,.29,.26,.13,.24-.39-.05Zm-2.84-2.78c.66,.14,1.33,.28,1.99,.42,.74,.74,2.97,2.18,2.52,2.39-1.59-.96-3.38-1.72-4.78-2.85,.09,.02,.17,.03,.27,.05Zm-.27,.19c.19,.49,1.47,1.61-.32,.95-.64-.74-1.53-1.61-1.83-2.17-.21-.39,1.15,.39,2.14,.98,0,.08-.03,.14,.01,.25Zm-5.93-6.32c.88,.46,.81,.01,2.46,1.35,1.63,1.32,2.8,2.27,.86,1.63-.59-.35-1.19-.72-1.78-1.04-1.05-.58-2.71-1.25-2.77-1.7-.04-.3-2.46-2.15,1.23-.24Zm-3.79-1.49c1.54,1.43,.34,1.45,2.24,3.07,.35,.3-.03,.42-1.47-.41-.82-.48-1.67-1.09-1.52-1.18,.45-.28-.83-1.43-1.59-2.33-.29-.35-.08-.46,1.17,.16,.25,.35,.67,.56,1.18,.7Zm-18.86-10.28c1.23,.86,2.04,1.56,1.9,1.8-.17,.29-.97,.15-2.53-.53-.52-.23-1.16-.68-1.27-.89-.39-.68,.96-.33,.14-1.25,.26-.1,1.07,.39,1.77,.87Zm-2.8,1.27c-.14-.04-.72-.37-1.06-.59-.56-.35-1.25-.81-.88-.75,.49,.08-.22-.51-.25-.72,.68,.39,1.36,.78,2.05,1.18,.06,.3,1,1.11,.15,.87Zm-5.04-3.78c.69,.24,1.99,.84,2.75,1.68-.74-.38-1.25-.58-1.45-.53-.36,.09-1.34-.44-2.56-1.22,.38,0,.56-.17,1.25,.07Zm-1.33-.09c.09,.12,.16,.24,.28,.38,.42,.49,.82,1-.27,.51-.54-.24-.05,.04-.25-.23-.38-.49-1.98-1.77,.25-.66Zm-14.9-14.35c.13,.19,.06,.26,.05,.38-.51-.39-.81-.68-.7-.74,.09-.05,.56,.23,.65,.36Zm10.8-17.72c-.66,.42-1.47,.79-2.12,1.08-.57,.26-.47,.06-.11-.27,.88-.81,2.37-1.93,2.58-2.42,.19-.44,.82-.91,2.26-1.78,2.12-1.31,.89-.16,1.51-.44,.02,.43-2.55,2.83-4.12,3.83Z"/><path class="b" d="M125.77,289.39c1.44,.97,3.32,2.11,4.17,2.85,.62,.54,0,.54-.11,.77-4.48-3.03-4.87-3.18-4.02-1.77,.89,.69,1.14,1.05,.18,.62-1.46-.65-1.51-.51-.41,.46,.46,.4,.14,.46,.12,.66-.92-.76-1.83-1.51-2.76-2.28-.27-.22-.7-.58-.87-.67-.68-.34-.59-.15-.4,.08,.5,.61,.92,1.2,1.53,1.88,.56,.62,1.89,1.41,3.06,2.11,1.26,.74,2.36,1.35,2.2,.9-.04-.11-.07-.22,.04-.23,.14,.02,.27,.05,.99,.49,1.33,.83,1.4,1.1,1.51,1.33,.25,.53,2.91,1.97,3.83,2.81,1.01,.91,2.49,2.09,3.9,3.23,.93,.47,.75,.21,.42-.14-.34-.36-.85-.83-.73-.88,.17-.08,.23-.31,1.82,.72l.53,.33c.23,.22,.09-.14,.1-.26-.05-.33-.09-.59-.13-.81-.08-.43-.15-.67-.22-.82-.14-.29-.26-.25-.4-.65-.05-1.01,.02-1.79-.03-2.84-.04-1.04-.17-2.36-.61-4.14-.16-.67-.28-1.49-.39-2.38-.11-.86-.22-1.78-.32-2.61-.51-3.58-1.36-6.06-1.88-5.65-.08,.06-.11,.64-.11,1.14,0,.81,.2,1.41,.31,1.51,.29,.27,.65,2.51,.93,2.22,.11-.11,.23,.27,.33,.79l.07,.41,.08,.51,.13,.94c.18,1.44-.07,1.16-.22,.96-.61-.81-.84,.61-1.12,1.65-.23-1.17-.46-2.11-.7-2.87-.12-.39-.24-.68-.36-1.02-.13-.39-.27-.75-.4-1.1l.11,.98,.07,.75c.05,.62,.07,1.29-.15,.98-.08-.11-.2-.69-.27-1.06-.05-.25-.15-1.1-.23-1.71l-.06,1.25c0,.12-.01,.19-.03,.24l-.03,.17-.07,.32c.02-.3-.23-1.81-.42-2.83-.2-1.09-.35-2.06-.31-2.71,.1-1.4,.57-1.36,.89-1.88,.09-.14,.23,.1,.33,.01,.14-.12,.23-.59,.06-1.67-.13-.82-.35-1.77-.52-2.24-.17-.48-.44-.91-.49-.59-.33,2.09-.74-1.16-1.16-3.18-.2-.98-.26-1.76-.36-2.66-.1-.81-.25-1.09-.36-1.1-.12-.02-.18,.25-.07,1.09,.13,.91,.3,1.83,.41,2.72,.09,.71,.08,1.28-.07,1.13-.7-.65-1.46-4.32-1.51-7.33,0-.56,.32-.25-.03-1.62-.09-.35-.23-.15-.33-.12-.61,.12-.06,4.6-.33,6.11-.2,1.15,0,2.19,.66,3.47,.27,.51,.34,.8,.33,1.78,0,.63-.07,1.17,.23,2.21,.61,2.14,.95,4.07,1.11,5.9,.08,.91,.13,1.8,.14,2.67v.49s0,.03,0,.04c-.02,.04-.05,.07-.07,.1-.05,.06-.11,.11-.17,.14-.19,.08-.28,.02-.24,.08,.04,.06,.22,.22,.57,.54,.35,.3,.53,.66,.67,1.09,.07,.21,.13,.44,.2,.68l.1,.37,.05,.19s-.03,0-.05,.02c-.18,.07-.67-.72-.97-.98-.18-.15-.36-.46-.5-.67-.03,.16-.2,.22-.23,.4-.02,.18,.17,.51,.32,.81l-1.4-.72-.16-.15-.08-.07-.19-.14,.15,.19,.04,.12c-.07,.04-.15,.15-.22,.1-1.85-1.17-3.63-2.44-5.58-3.47-.8-.42-1.2-.83-1.07-.85,.36-.06-.6-1.09,1.81,.34,1.5,.89,1.53,.7,1.46,.45-.11-.35-1.14-1.15-2.32-1.91-1.32-.84-1.45-.64-1.64-.56-.27,.12-2.01-.72-1.04,.19,1.1,1.03-.08,.55-1.12,.21-1.53-.49-.34,.7,2.32,2.39,.74,.48,1.48,.91,1.75,1.26Zm8.78,0c0-.18,.08-.14,.17-.06,.14,.12,.28,.19,.42,.29-.04,.52-.18,.6-.39,.37-.11-.12-.22-.3-.21-.6Zm1.75,7.65c.5,.37,1.41,1,1.45,1.06,.09,.16,.21,.33,.37,.51,.08,.09,.17,.19,.28,.29l.17,.16c.06,.06,.13,.13,.12,.06,.07-.27,.06-.93-.04-2.02-.12-1.37-.31-2.93-.02-2.92,.37,0,.61,2.34,.89,4.08,.2,1.26,.39,1.49,.57,1.9l.27,1.66c.04,.11-.05,.02-.09,0l-.15-.08-.3-.17-.61-.37c-.83-.51-1.74-1.14-2.7-1.92-.64-.53-1.91-1.37-1.37-1.26,.8,.15,.37-.48-.41-1.38-.76-.88,1.44,.56,1.59,.4Z"/><path class="b" d="M102.6,196.15c.43-.41,1.24-1.03,1.94-1.54,1.27-.91,3.12-2.06,3.64-2.68,.41-.49-1.47,.53-1.09-.09,.18-.3-.51-.06-.82-.06-1.6,.95-2.43,1.24-2.52,.92-1.37,.98-1.54,1.42-1.84,1.82-.68,.9-2.59,1.12-2.64,1.89-.02,.28-.16,.62-.89,1.32-1.5,1.45-3.7,3.02-6.05,4.55-1.54,1.01-3.1,1.99-4.63,2.92-1.13,.68-2.33,1.21-3.33,1.99-1.69,1.33,.82-.15,.62,.2-.11,.18-.49,.56-.92,.89-.85,.62-1.84,1.35-2.67,1.96-1.02,.79-1.85,1.53-.99,1.27,.88-.26,2.19-1.18,3.04-1.9,1.29-1.07,2.32-2.05,3.42-3.05,.52-.47,.99-.9,1.92-1.4,.77-.42,1.24-.59,1.33-.47,.06,.08-.2,.38-.35,.6-.5,.76-.42,.95,2.11-.91,1.45-1.06,3.05-2.11,3.64-2,.44,.08,1.47-.84,2.2-1.42,.71-.55,1.25-1.05,.74-.91-.28,.08-.79,.33-1.26,.57-.78,.4-2.03,1.16-1.51,.54,.43-.5,1.72-1.39,2.56-1.85,2.06-1.12,3.18-2.08,4.33-3.18Z"/><path class="b" d="M134.89,266.9c-.48-2.46-.97-3.43-1.45-4.56-.55-1.27-.56-1.39-.44-3.96-.03-.94,.04-.99,.22,0,.18-.39,.34-1.34,.61,1.44,.35-.8,.93-.21,1.04-2.45,.15,.05,.3,.06,.45,.11,.16,.05,.33-.05,.29-.87-.03-.59-.1-1.11-.2-1.58l-.08-.34c-.02-.07-.04-.12-.07-.18l-.15-.34c-.33-.73-.53-1.41-.59-1.98-.02-.14-.02-.28-.02-.41v-.19l.02-.09s0-.07,.06-.05c.37,.04,.77,.11,1.2,.21,.38,.09,.54,.25,1.1,.24,.17,0,.34-.01,.52-.03,.21-.03,.21-.04,.58-.11,.7-.14,.81-.27,.35-.32-.13-.01-.27-.03-.4-.04l-.21-.02c-.08,0-.14-.01-.15-.03-.13-.04-.37-.07-.6-.1-.87-.1-1.72-.22-2.52-.35-.21-.04-.4-.07-.59-.1-.05,0-.1-.02-.14-.02l-.03,.07-.06,.13c-.08,.17-.16,.32-.25,.43-.36,.45-.81,.42-1.4-.59-.17-.29-.32-.24-.48-.39-.27-.26-.35,.21-.31,1.15,.02,.47,.06,1.06,.12,1.71,.07,.63,.15,1.33,.23,2.05,.13,.34,.27-.11,.39,1.09,.01,.14-.15,.24-.24,.36,.26,1.34,0,3.93,.69,4.26,.34,2.24,0,2.57,.07,4.05,.38,.22,.69-.32,1.15,.89,.56,1.45,.88,.96,1.26,.92Z"/><path class="b" d="M133.99,250.33c.68,.14,1.32,.27,2.04,.36,.36,.04,.74,.08,1.16,.09,.31,0,1.04-.06,1.77-.14l2.52-.57c.83-.21,1.65-.46,2.48-.68l2.46-.69,2.43-.79c-1.39,.15-1.5,.02,.06-.46-.03-.21,.03-.44-.13-.62-.07-.08-.47-.12-1.33,.11-.38,.1-.83,.25-.96,.34-.22,.15-.34,.28-.3,.38,.14,.34-.21,.58-2.91,.85-1.28,.16-3.07,.4-4.04,.77-2.39-.11-.66-.82-1.25-1.19-.06-.04-.17-.06-.32-.06-.16,0-.29,.01-.68,.08-.49,.09-1.27,.18-1.21,.21,.75,.23,.53,.48-.02,.72-.56,.25-1.45,.49-2.27,.73-.8,.23-.28,.4,.5,.57Z"/><path class="b" d="M288.29,134.74c.11-.02,.46-.35,.59-.61,.46-.92,.73-1.84,.57-1.75-.78,.47-.04-1.03,.91-3.15,.21-.45,.31-.97,.46-1.47-1.09,1.86-1.61,2.26-1.81,1.76-.17-.39-.55,.38-1.26,2.01-.34,.77-.82,1.63-1.2,2.44-.68,1.44-1.98,5.4-1.75,5.3,.42-.12,1.09-.96,2.12-2.91,.78-1.48,1.09-1.58,1.37-1.62Z"/><path class="b" d="M308.02,90.17c.11,.1,.31,.06,.09,.94-.25,1.01-.55,1.6-.79,1.85-.38,1.87-.6,3.15-.29,3.35,.15,.09,.31,.18,.08,1.34,.16,.23,.32,.47,.92-1.55,.25-.84,.44-1.56,.58-2.25,.12-.69,.21-1.34,.28-2.02,.27-2.58,.42-1.04,.64-1.69,.18-.53,.35-1.22,.52-1.85-.37,.08-.38-.95-.28-2.43,.06-1.14-.1-1.19-.66,.67-.37,1.22-.73,2.42-1.1,3.63Z"/><path class="b" d="M180.23,239.85c-.21,.06-.83,.39-.98,.5-.13,.1,.06,.17,.25,.11,2.97-1.01,4.83-.96,8.24-2.67,1.7-.69,3.06-1.2,4.28-1.79,1.56-.74,2.69-1.43,2.44-1.64-.22-.19-1.6,.36-2.95,.92-3.74,1.52-7.39,3.4-11.26,4.57Z"/><path class="b" d="M134.21,189.86c.04-1.06-.1-1.51,.05-3,.42-4.12,.41-4.09-.54-1.97-.26,.6-.5,1.26-.68,1.08-.19-.2-.38,1.01-.49,1.9-.09,.7-.11,1.47,.05,1.13,.78-1.59,.87,.23,1.05,1.86,.04,.36,.11,.56,.16,.79,.12-.23,.21-.39,.3-.56,.03-.41,.08-.88,.09-1.23Z"/><path class="b" d="M149.51,248.57c-.38,.22-.84,.44,.21,.33,.99-.1,1.52-.3,2.23-.57,1.07-.45,2.4-.93,3-1.34,1.12-.77-.11-.83-3.32-.11-.86,.16-1.76,.37-2.64,.56l-.05,.46c1.72-.14,1.33,.23,.57,.67Z"/><path class="b" d="M161.94,242.42c.34-.02,1.56-.46,1.35-.45-1.95,.1,1.3-.81,2.16-1.22,.95-.46,1.14-.69,.38-.77-.32-.04-.29-.21-.38-.33-.13-.18-.81-.15-1.97,.23-1.18,.38-1.61,.77-1.71,.97-.24,.46,1.17,.47-.76,1.39,.34,.08,.48,.19,.94,.18Z"/><path class="b" d="M132.63,196.35c.04-1.36-.04-2.47-.34-1.96-.42,.72-.9,1.96-1.34,3.28-.25,.74-.25,1.92-.15,2.09,.16,.27,.42-.04,.49,.95,.09,0,.19,.06,.3,0,.46-.21,.61-3.68,1.03-4.36Z"/><path class="b" d="M69.54,219.57c.02,.44,.11,.84-.43,1.63-.57,.83,1.04,.04,2.67-.82,.76-.4,2.69-2.01,2.24-1.81-2.76,1.25-.9-.76-3.33,.27-.38,.24-.77,.48-1.16,.72Z"/><path class="b" d="M164.03,243.94c0,.36-.06,.49,.01,.58,.1,.12,.29,.22,1.42-.13,.69-.21,1.04-.42,1.31-.61,.26-.18,.79-.43,1.01-.6,.7-.57,.75-.89-1.06-.58-.26,.05-.85,.21-1.13,.32-1.91,.77-1.55,.98-1.57,1.03Z"/><path class="b" d="M74.61,216.15c-1.23,.92-1.27,1.23-.14,.7,1.45-.68,3.52-2.09,4.76-2.52,.47-.16,.93-.61,1.24-.96-.45,.08-.9,.14-1.48,.28-1.03,.26-2.54,1.14-4.38,2.51Z"/><path class="b" d="M136.39,176.2c-.45,.3-.22-1.53-.73-.86-.11,.78-.03,1.42-.52,2.81-.35,.95-.35,1.5-.08,1.35,.16-.1,.35-.4,.45-.16,.14,.36,.37-.07,.67-1.34,.21-.89,.36-1.92,.21-1.8Z"/><path class="b" d="M164.95,246.27c.89-.56,2.33-1.02,3.95-1.53,.81-.27,2.04-.66,2.17-.86,.08-.12-1.08,.16-1.63,.23-.56,.08-1.81,.31-1.94,.49-.46,.73-3.06,1.18-4.52,1.75-.87,.32-1.67,.61-1.45,.72,.18,.09,.74,.06,1.69-.16,.71-.19,1.4-.44,1.72-.64Z"/><path class="b" d="M214.63,175.74l-.64,.65c-.45,.49-.77,.91-.12,.67,.27-.09,1.02-.56,1.49-.9,1.37-1,1.65-1.45,1.62-1.7,0-.08-.04-.14-.07-.22-.18-.06,.04-.44-.7-.1l-1.57,1.6Z"/><path class="b" d="M81.75,208.66c.03-.53-1.87,.57-2.88,.99-.61,.25-.94,.77-1.18,1.05-.58,.67,.9-.14,1.42-.26,.31-.07,.53,.04,1.61-.79,.68-.52,1.05-.91,1.02-1Z"/><path class="b" d="M136.65,279.81c.25,1.34,.46,1.31,.62,1.27,.19-.06,.61,1.53,.56-.07-.01-.43-.17-1.43-.29-1.89-.25-.99-.44-.89-.69-1.12-.07,.18-.18,.36-.26,.73-.03,.14,0,.8,.06,1.08Z"/><path class="b" d="M295.35,115.06c-.13-.28-.72,.22-.91,.77-.5,1.33-.87,2.78-.68,2.72,.32-.1,1.02-1.2,1.57-1.88,.02-.53,.03-1.07,.02-1.61Z"/><path class="b" d="M241.47,201c-1.09,.97-2.04,1.9-2.73,2.7-.27,.31-.25,.46-.24,.58,0,.03,.55-.41,.62-.47,1.07-.94,1.92-1.72,2.74-2.51,.84-.8,2.41-2.03,2.19-2.27-.15-.15-1.53,1.04-2.59,1.96Z"/><path class="b" d="M97.97,195.44c-.24,0-.83,.4-1.29,.71-2.15,1.44-3.4,2.58-3.22,2.96,.02,.05,.45-.18,.69-.28l3.83-3.39Z"/><path class="b" d="M130.62,253.87c-.16-.6-.23-.07-.15,.93l.04,.43,.03,.26c.03,.16,.06,.3,.09,.42,.06,.24,.13,.39,.19,.42,.3,.22,.59,.27,.89,.39l-.13-1.34c-.08-.45-.14-.78-.19-1.04-.06-.28-.11-.46-.15-.58-.09-.24-.15-.2-.21-.07-.12,.25-.2,.9-.4,.18Z"/><path class="b" d="M283.45,150.69c.14,.1,.21,.32,.44,.25,.2-.07,.69-.62,1.15-1.43,.47-.83,.35-.99,.28-1.14-.19-.37-.47-.47-1.87,2.32Z"/><path class="b" d="M120.39,282.67c.4,.18,.54,.19,.29-.04-.2-.18-.46-.4-.72-.61-1.5-1.03-1.69-.72-2.86-1.37-.81-.46-2.39-1.43-2-.92,.32,.43,1.65,.94,2.56,1.51,.97,.61,1.9,1.06,2.73,1.43Z"/><path class="b" d="M113.2,286.18c-.11,.07,.22,.4,.76,.73,1.6,.98,2.16,.95,3.29,1.48,.55,.26-.52-.43-.88-.69-1.45-.9-2.84-1.75-3.17-1.52Z"/><path class="b" d="M217.66,171.17c.15,.09-.01,.52,1.31-.48,.85-.64,.81-.85,.77-1.05-.13-.08,.03-.48-1.31,.53-.86,.65-.91,.92-.78,1Z"/><path class="b" d="M177.56,242.19c-.04,.09,.49-.03,1.14-.24,1.17-.37,2.64-1.23,2.27-1.28-.23-.03-.79,.13-1.48,.4-1.23,.46-1.98,.84-1.92,1.11Z"/><path class="b" d="M86.06,205.04c-.23-.07-.97,.39-1.77,.92-.94,.63-1.31,1.02-1.29,1.18,.02,.17,.43,.09,1.38-.57,.98-.67,1.65-1.27,1.67-1.53Z"/><path class="b" d="M229.06,213.86c-.46,.54-.22,.64,.9-.12,.88-.58,1.83-1.34,2.7-2.13,.38-.36,.49-.5,.07-.36-.28-.03-1.31,.95-2.12,1.56-.54,.4-.81,.17-1.55,1.05Z"/><path class="b" d="M89.33,203.11c.49-.54,.88-1.03,1.3-1.54l-.4,.05c-.31,.25-.75,.56-.91,.73-.54,.57-1.02,1.11-1.44,1.61-.11,.13,0,.19,.2,.09,.6-.3,1.03-.7,1.25-.94Z"/><path class="b" d="M63.31,225.41s.66-.3,.94-.48c1.33-.88,1.72-1.33,1.72-1.6-.31,.07-.93,.34-1.37,.67-.98,.73-1.38,1.22-1.3,1.42Z"/><path class="b" d="M132.43,248.98c.96-.06,.64-.27,.58-.4-.07-.17-.18-.35-.34-.52-.02-.03-.36-.04-.57-.05-.34,.05-.9,.11-.96,.16-.16,.11-.08,.22-.09,.29,.13,.1,.21,.17,.3,.23,.17,.12,.2,.35,1.06,.3Z"/><path class="b" d="M215.98,224.6c-.43,.44,.46,.05,1.25-.47,.85-.53,1.51-1.03,.84-.82-.52,.16-.65,0-1.92,.77-1.04,.7,.13,.2-.17,.52Z"/><path class="b" d="M248.03,140.78c-.56,.51,.26-.69-.85,.52-.39,.42-.62,.92-.66,1.14-.02,.11,.56-.26,.85-.55,.96-.93,.54-.78,.65-1.11Z"/><path class="b" d="M114.39,285.18c.61,.36,1.12,.6,1.24,.53,.22-.12-.47-.66-1.5-1.29-.26-.16-.66-.22-.93-.3,.07,.24,.14,.45,1.19,1.07Z"/><path class="b" d="M119.2,182.4c.48-.47,1-.99,.06-.49-.42,.22-1.04,.66-1.58,1.01,.02,.07,0,.17,.08,.19,.13,.04,.35,0,.54,0,.31-.25,.72-.54,.91-.73Z"/><path class="b" d="M242.79,145.74c-.05-.23-.57,.08-1.57,1.02-.3,.28-.57,.59-1.01,1.06,.82-.56,1.58-1.07,2.34-1.59,.09-.17,.26-.41,.25-.49Z"/><path class="b" d="M85.52,262.21c.22-.04,.17-.22-.68-.79-.66-.44-1.13-.62-1.35-.63-.35-.02,.12,.38,.81,.86,.75,.53,.95,.51,1.22,.56Z"/><path class="b" d="M175.65,241.09c-.82,.33-1.57,.69-1.48,.83,.02,.03,.7-.17,1.09-.31,.84-.3,1.73-.63,1.78-.85-.23-.04-.73,.07-1.39,.33Z"/><path class="b" d="M141,251.77c-.19,.17,.53,.14,1.22,.02,.62-.12,1.45-.3,1.76-.43,.42-.17-.11-.2-.79-.12-1.04,.14-1.75,.33-2.2,.52Z"/><path class="b" d="M201.47,185.86c-.26,.27-.29,.41,.45,.01,.81-.47,1.02-.73,1.02-.85,0-.1-.32-.03-.5-.03-.33,.29-.72,.62-.97,.87Z"/><path class="b" d="M150.24,244.7c-.16-.08-.58,0-.76,.15-.2,.18-.19,.32-.17,.45,0,.04,.33,.01,.6,.02,.65-.34,.56-.49,.33-.61Z"/><path class="b" d="M227.52,161.55c-.09,.23,.31,.03,.85-.38,.73-.56,.68-.69,.7-.83-.12-.03-.14-.19-.94,.52-.27,.25-.56,.57-.61,.69Z"/><path class="b" d="M91.22,207.09c0,.12,.27,.09,1.03-.48,.52-.39,.82-.69,.76-.76-.27,.03-.71,.2-1.26,.6-.31,.23-.53,.54-.53,.65Z"/><path class="b" d="M110.11,275.97c.34,.02-.07-.35-1.01-.9-.55-.32-1.04-.52-1.14-.44-.08,.09,.21,.34,.8,.71,.69,.45,1.17,.62,1.35,.63Z"/><path class="b" d="M132.74,289.88c-.06-.14-.09-.19-.1-.15-.01,.05-.04,.13,.02,.3,.03,.07,.09,.13,.13,.19,.06-.02,.02-.15-.05-.33Z"/><path class="b" d="M307.8,50.2c-.07,.04-.31,.45-.43,.73-.27,.66-.43,1.21-.25,1.13,.07-.04,.29-.48,.43-.72,.3-.74,.43-1.23,.26-1.13Z"/><path class="b" d="M159.44,247.76c-.07-.03-.67,.09-1,.18-.67,.21-1.21,.42-.96,.48,.1,.03,.66-.11,.96-.17,.82-.25,1.19-.44,.99-.5Z"/><path class="b" d="M129.48,252.66c-.11-.12-.19,.1-.28,.17,.12,1,.23,1.56,.33,1.94,.05,.19,.1,.34,.14,.49,.05,.14,.08,.19,.12,.3,.08,.22,.13,.24,.15,.11,.01-.07,.01-.17,0-.3,0-.13-.03-.44-.06-.72-.13-1.23-.29-1.86-.41-1.99Z"/><path class="b" d="M104.74,195.41c.94-.68,.91-.83,.85-.97l-.58,.23c-.33,.37-.69,.75-.95,1.08-.03,.04,.5-.2,.69-.34Z"/><path class="b" d="M272.8,168.7c.25-.33,.57-.71,.72-.96,.16-.28,.27-.6,.21-.62-.09-.04-.39,.35-.6,.79-.15,.3-.22,.53-.33,.8Z"/><path class="b" d="M281.52,144.98c-.02-.08-.24,.19-.37,.3l-.18,.81c.19-.17,.32-.28,.46-.39,.04-.25,.12-.59,.09-.71Z"/><path class="b" d="M139.78,244.97c-.02-.09-.27-.15-.42-.22-.22,.08-.6,.17-.61,.23-.02,.09,.18,.16,.32,.26,.33-.12,.72-.22,.71-.27Z"/><path class="b" d="M154.99,210.44c.08,.01,.47-.1,.72-.17,.09-.14,.24-.3,.23-.39,0-.03-.42,.09-.61,.14-.61,.31-.54,.39-.34,.42Z"/><path class="b" d="M136.41,191.33c-.14,1.08-.09,1.58,.06,1.64,.06,.02,.19-.18,.25-.47,.19-.85,.1-1.12,.02-1.22-.09-.11-.22,.02-.34,.04,.11-1.15,.01-.97-.19-.13l.19,.14Z"/><path class="b" d="M80.38,261.16c.1-.03,.34-.04-.48-.52-.15-.09-.33-.06-.5-.09l.31,.41c.23,.07,.59,.22,.67,.2Z"/><path class="b" d="M246.16,198.17c-.04,.1,.27-.06,.5-.25,.43-.35,.91-.8,1.37-1.22-.28,.16-.52,.25-.86,.47-.39,.25-.89,.69-1.01,1Z"/><path class="b" d="M162.95,207.24c-.19,.2,.15,.16,.91-.17,.6-.26,1.23-.58,1.21-.71-.01-.04-.46,.09-.71,.15-.68,.27-1.23,.54-1.4,.73Z"/><path class="b" d="M124.64,185.4c.16,.04,.73-.33,1.21-.74,.23-.2,.24-.31,.35-.46-.2,.02-.52,.22-.91,.57-.26,.24-.69,.62-.64,.63Z"/><path class="b" d="M132.3,246.41c-.01-.08-.05-.2-1.47-.09-.35,.03-.46,.14-.71,.22,.39,.04,.1,.19,1.52,.07,.35-.03,.67-.15,.66-.21Z"/><path class="b" d="M115.16,184.44c-.07,0-.39,.17-.57,.24-.56,.48-.41,.52-.3,.57,.03,.01,.32-.12,.38-.17,.61-.48,.64-.63,.49-.65Z"/><path class="b" d="M132.46,265.18c-.13-.03-.31-.25-.27,.65,0,.19,.3,1.29,.36,1.26,.16-.09-.01-1.14-.09-1.91Z"/><path class="b" d="M182.17,197.86c-.52,.14-1.07,.29-1.57,.43-.49,.12-1.04,.21-1.8,.7-.46,.29-.46,.52-.4,.64,.11,.23,1.43-.31,2.54-.79,1.76-.76,1.26-.79,1.29-.98,.59-.32,1.24-.64,1.75-.97,.27-.17,.56-.44,.47-.44-.29-.01-.89,.35-1.32,.65-.4,.28-.64,.52-.96,.77Z"/><path class="b" d="M84.07,262.32c-.22-.25-.8-.61-1.35-.91-.27-.15-.5-.21-.72-.3,.21,.26,.81,.61,1.35,.91,.27,.15,.75,.34,.72,.3Z"/><path class="b" d="M187.2,194.91c0,.09,.08,.18,.8-.22,.18-.1,.25-.26,.38-.39-.13-.02-.06-.19-.8,.22-.2,.11-.38,.32-.37,.39Z"/><path class="b" d="M116.89,188.56c.09,.06,.49-.11,1.1-.56,.22-.16,.36-.34,.62-.6-.46,.24-.88,.47-1.3,.69-.15,.16-.46,.44-.43,.47Z"/><path class="b" d="M131.62,192.74c-.09,.19-.17,.32-.26,.59-.12,.36-.18,.8-.14,1.06,.06,.39,.17,.06,.31-.54l.08-1.1Z"/><path class="b" d="M59.21,245.95c.07-.02-.13-.23-.21-.36-.26-.13-.7-.38-.76-.37-.07,.02,.13,.23,.22,.37,.27,.13,.7,.38,.74,.36Z"/><path class="b" d="M188.52,192.4c1.11-.61,.64-.53,.75-.72l-1.14,.63c.13,.04,.27,.16,.39,.09Z"/></svg>