<?xml version="1.0" encoding="UTF-8"?><svg id="a" xmlns="http://www.w3.org/2000/svg" viewBox="0 0 350 350"><defs><style>.b{fill:#010101;}</style></defs><path class="b" d="M64.67,107.15c-.74,.29-1.53,.58-2.09,.66,.68-.32,1.46-.64,2.02-.94,.62-.33,1.06-.65-.44-.09-1.6,.6-1.95,.52-2.29,.43-.22-.05-.27-.22-1.26,.19-1.05,.44-.98,.61-1.14,.82-.27,.36-.94,.83-1.87,1.37-1.57,1.02-3.16,2.09-4.8,2.31-.72,.13-2.27,1.07-3.55,1.82-1.14,.26-2.38,1.26-3.66,2.25-.6,.47-1.06,.83-1.42,1.11-.35,.29-.6,.51-.84,.67-.46,.32-.81,.42-1.49,.62,2.21-1.64,4.15-3.07,6.09-4.65,.09-.19,.17-.43,.3-.51,.98-.57,.61-.15,.86-.17,.86-.48,1.65-.89,2.41-1.25,.38-.18,.75-.35,1.12-.52,.38-.14,.76-.29,1.13-.43,.56-.21,1.09-.46,1.56-.77,.74-.48,.5-.53,.34-.61-.25-.14-2.49,.85-1.41-.02,.86-.69,2.37-1.72,.6-1.12-2.38,.83-2.65,1.5-3.64,2.33-.39,.31-.71,.6-1.15,.93-.8,.58-1.53,.88-1.82,.89-.36,.02-.8,0-.46-.34,1.65-1.57-1.23-.15-2.15,.14-1.08,.26-2.1,1.03-3.08,1.83-.98,.81-1.82,1.78-2.76,2.28-.08,.04-.52,.48-.79,.73,.42-.18,.99-.49,1.21-.5,.27,0-.29,.59-.97,1.16-.81,.66-1.42,1.31-1.93,1.92-.51,.6-.92,1.15-1.25,1.67-.56,.87-1.57,1.61-2.27,2.16-.51,.37-.66,.22-1.52,1.09-.03,.21,.21,.23-.49,.98-.4,.43-.84,.64-1.26,.95l1.68-1.88c-.7,.39-1.3,1.03-1.77,1.95-.93,1.6-1.64,3.03-2.25,4.34-.49,1.03-1.18,1.85-1.72,2.2-.21,.13-.3,.07-.4,.03-.14-.05-.26-.27-.69,.37-.42,.62-.16,.66-.18,.93-.02,.54-.22,1.33-.14,1.72,.11,.54-.28,1.38-1.48,3.15-.34,.51-.65,1.04-.56,1.17,.08,.1,.44-.5,.78-1.02,.24-.35,1.22-1.85,.5-.51-1.44,2.8-.22,1.63-.64,2.87-.14,.47,.03,.73-.44,.92-.79,.32-1.23,2.48-1.78,3.52-.87,1.21-1.57,3.25-1.41,4.05,.12,.59,.08,1.28-.06,2.16-.08,.89-.38,1.96-.57,3.31-.27,1.53-.05,1.92,.18,1.96,.5,.08,.26,1.86,.25,3.72-.56,.25-1.14-.19-1.65-.75-.52-.61-1.19,1.4-1.58-1.49-.16-.65-.29-1.98-.26-3.2,0-1.22-.02-2.34-.27-2.59-.12-.11-.12-.72-.42,0-.32,.7-.54,1.5-.56,2.73-.02,.87,.02,1.66-.07,2.43-.09,.77-.16,1.53-.28,2.34-.37,2.05-.03,4.81,.34,7.23,.4,2.2,.85,2.34,1.27,3.21,.57,1,.14,1.86,.87,3.29,.44,.76,.78,1.47,1.07,2.24,.31,.75,.61,1.54,.88,2.47,.18,.65,.91,1.45,1.3,1.89,.5,.99,1.12,1.97,1.68,2.82,.91,1.26,1.29,1.84,.68,1.44-.34-.23-.42-.12-.03,.63,.47,.94,1.03,1.36,1.45,1.79,1.05,1.04,2.06,1.9,2.81,2.27,1.26,.6,2.15,1.64,3.61,3.74,.25,.37,.34,.6,.6,.97,.34,.47,.88,1.09,1.53,1.75,.62,.65,1.38,1.35,2.14,2,1.48,1.32,3,2.27,3.4,2.33,.56,.07,1.29,.43,2.08,.95,.79,.54,1.69,1.17,2.6,1.75-.31-.35-.84-.79-1.41-1.23-.55-.47-1.14-.96-1.6-1.4-.49-.46-.57-.81,.14-.28,1.93,1.44,1.44,.73,1.83,.81,.32,.06,.47-.02,.7-.04,.44,.4,.99,.86,1.31,1.2,.61,.68,1.68,1.44,2.67,2.22,1.02,.72,1.96,1.45,2.38,1.94,2.64,1.2,3.78,2.13,5.7,3.09,.65,.47,.22,.69,2.15,1.38,2.71,.93,5.55,2.23,8.24,2.36,1.29,.07,2.2,.24,3.49,.75,.22,.09,4.23,1.6,2.99,.36-.31-.31,1.84,.03,2.01-.27,.12-.2,1.4,.02,1.69,.36,.3,.36,1.36,.55,2.72,.61,.85,.04,1.49,0,2.75,.32,3.03,.8,6.33,1.3,10.12,1.55,1.97,.11,2.08,.3,2.16,.53,.41,.03,.82,.07,1.23,.1,.12-.45-.14-.83-3.54-1.23-1.93-.21-2.51-.91-5.57-1.08-.42-.03-.57-.23-.37-.31,.2-.09,.56-.14,1.37,.02,1.15,.23,2.39,.42,3.66,.46,1.14,.02,2.21,0,3.31-.01l.38,.77c.43,.04,.86,.07,1.29,.11,2.69-.11,2.94-.09,3.78,.44,.87,.05,1.74,.1,2.61,.12,1.34-.4,5.8,.05,6.47-.63,.18-.18,1.24-.29,2.44-.23,1.61,.06,1.53,.28,1.5,.5-.02,.2-.02,.43-1.37,.54,.02,.24-1.02,.39-1.51,.59-1.57,.63-.79,1.06,3.02,1.27,1.56,.07,4.79,.11,5.13-.11,1.15-.67,3.35-.28,4.96-.4,1.85-.12,4.68-.04,5.38-.4,1.27-.65,2.27-.34,3.62-.29,.91,.03,1.93,.03,2.94,0,1.14-.02,1.42-.13,1.18-.31-.48-.35,.9-.64,2.73-.75,1.94-.12,4.69-.73,5.78-.18,1.58,.09,3.42-.05,5.16-.24,2.26-.25,1.95-.05,1.39,.23-.22,.11-.22,.23-.23,.34-.04,.45,2.26,.23,3.65,.22,1.64,0,1.23-.27,1.51-.44,.25-.14,.63-.43,1.21-.36,1.77,.21,3.6-.36,5.06-.18,.97,.11,2.53,.17,2.32,.51-.07,.11-.4,.34,.94,.28,.84-.04,1.57-.23,1.35-.36-.76-.42,.52-.46,2.07-.32,.62,.06,1.38,.29,1.18,.34-1.97,.57,1.21,.49,1.86,.37,1.73-.28,3.11-.18,4.73,.05,2.36,.38,3.83,.35,4.22-.12,.15-.19,.8-.26,2.07-.14,1.02,.1,1.24,.25,1.4,.42,.45,.46,1.79,.48,1.99,.28,.23-.23,.17-.34,1.46,.01,.55,.14,.95,.5,1.56,.49,1.29,0,2.76,.04,4.22,.23,.74,.08,1.48,.15,2.21,.23,.72,.1,1.43,.2,2.12,.3,1.08,.15,1.63-.05,3.18,.65,1.32,.58,1.77,.96,.79,.93-.65-.02-.66,.15,.54,.62,.99,.36,1.95,.78,2.95,1.11,.5,.18,1,.34,1.49,.55,.48,.22,.97,.45,1.45,.7,.33,.17,.71,.15,.39-.11-.17-.14-.53-.34-.73-.5-.94-.71-.56-.86,.64-.43,1.51,.54,.59,.53,1.14,.88,.8,.51,.92,.38,1,.34,.54-.34,2.3,1.13,3.39,1.58,1.72,.82,1.14-.29,2.28,.46,2.55,1.69,2.67,1.44,3.15,1.34,.14-.04,.55,.09,1.16,.57,.5,.39,.67,.67,.33,.55-1.25-.43-.85,.15,.72,1.45-.72,.05,.35,1.4-1.91,.33-.64-.3,.12,.47,1.02,1.16,.6,.45,1.22,.9,1.81,1.28,.58,.39,1.11,.74,1.55,.96,3.04,1.54,6.44,3.69,9.94,6.45,.1,.08,.16,.07,.24,.09-.59-.59-1.05-1.14-.93-1.22,.18-.11,1.01,.72,1.5,1.18,1.44,1.29,2.43,2.5,3.05,3.47-.98-.77-1.84-1.65-2.65-2.53-.11,.25-1.1-.26,1.08,1.78,.84,.81,1.6,1.64,2.54,2.4,1.57,1.32,3.12,2.66,4.53,4.56,.51,.7,1.54,1.66,1.82,1.66,.26,0-.39-.97-1.1-1.64-2.16-2.05-2.46-2.6-2.16-2.96,.16-.19-.48-1.15-.1-1.14,1.13,1.12,2.4,2.32,1.49,.9-1.23-1.92,1.48-.27-1.25-3.53-.03-.04,.39,.12,.62,.22,.6,.25,2.14,1.54,1.4,.32-.77-1.3-1.98-2.23-3.15-3.06-.13-.09-.32-.25-.46-.39-1.31-1.29-1.25-1.97-2.6-3.01-1.02-.8-.49,.35-2.2-1.03-.16-.13-.33-.24-.47-.36-1.96-1.76-3.28-2.38-4.74-3.29-1.99-1.16-2.34-1.42-2.41-2.13-.07-.67-2.38-2.66-3.07-3.59-.15-.22-.86-.55-1.32-.8-.62-.34-1.51-.8-1.95-1.16-2.71-1.96-3.9-2.33-4.66-2.25-.24,.03-.64-.06-1.4-.66-1.11-.85-2.22-1.56-3.98-2.32-1.54-.65-.52-.39-.09-.31,.57,.1,1.87,.59,.83-.11-1.06-.69-1.6-.64-2.28-.84-.79-.23-1.37-.61-2.11-.95-1.58-.77-3.19-1.47-4.81-1.9-.8-.24-1.59-.46-2.36-.65-.78-.16-1.54-.29-2.27-.42-1.58-.28-2.96-.53-4.63-.82-1.14-.24-2.27-.35-3.34-.54-1.07-.19-2.09-.43-3.05-.72-.88-.28-1.96-.36-3.03-.41-1.07-.02-2.11-.03-2.93-.23-1.91-.48-2.54-.32-3.75-.11-.73,.13-2.08,.19-3.48,.25-1.4,.04-2.84,.04-3.74,.03-1.18-.03-.08-.66-2.69-.24-1.27,.22-1.94-.32-3.75-.08-1.8,.24-2.46-.24-3.82-.09-1.78,.21-.96,.55-1.61,.83-.07,.03-.3,.05-.4,.09-1.12,.35-1.11,.35,.63,.53-.35,.12-.15,.38-1.14,.34-1.68-.06-3.05-.23-5.18,.08-1.01,.15-1.96,.08-1.89-.05,.29-.49-1.89-.48-3.44-.37-3.41,.22-5.62-.54-9.71,.33-.12,.03-1.09-.02-1.39-.08-.94-.19-2.35-.12-3.86-.02-1.69,.12-3.2,.15-4.72,.05-2.13-.13-6.34,.31-5.93,.67,.98,.87-2.5,.8-5.15,.93-1.61,.06-3.13,.24-4.82,.18,.4-.51-.51-.83-3.77-.91-1.92-.02-3.66-.15-4.73-.52-1.15-.39-2.63-.28-2.98,0-.44,.35-1.54,.56-3.17,.69-.85,.08-1.57-.09-2.09-.24-.5-.15-.99-.28-.3-.4,1.03-.18,1.23-.41,.72-.5-1.64-.27-1.59,.05-1.87,.13-.82,.22-2.35,.25-3.74,.26-1.06,0-2.16,.01-3.08,.06-1.04,.05-.29,.65-1.95,.39-2.54-.44,.91-.45-.84-.95-.45-.13,.11-.3-.29-.46-1.93-.77-3.81-.14-5.99-.83-.62-.19-1.31-.08-1.33,.07,0,.06,.22,.19,.5,.27,.47,.14,1.05,.28,1.62,.42,1.22,.29,1.48,.51,1.04,.62-.59,.14-1.91-.25-2.71-.39-1.04-.18-1.83-.42-2.61-.67-.78-.27-1.57-.55-2.63-.8-3.48-.81-4.54-1.33-3.32-1.59,.82-.19-.09-.75,.89-.87,.04,0-.78-.32-1.27-.45-.54-.15-1.41-.3-1.19-.13,.69,.53-.31,.58-1.19,.64,.71,.25,.89,.42,1.05,.61,.36,.44,.6,.83,.09,.98-.5,.15-1.76,.07-4.35-.6-.67-.18-1.35-.22-.89,.1,.28,.19,.86,.45,1.47,.57,1.65,.34,3.24,.78,4.87,1.22,1.67,.45,1.44,.62,1.23,.8-.31,.25-1.38-.12-2.28-.4-2.83-.88-4.24-.99-5.45-.96-.57,.02-1.37-.2-1.25-.42,.25-.47-1.48-1.09-3.69-1.97-1.96-.79-3.85-1.76-5.71-2.65-2.25-1.11-2.17-1.38-1.77-1.44,.44-.09,1.24,.06,1.99,.14,.45,.05,1.14,.36,1.88,.83,.89,.54,1.81,.94,2.33,.92,.38-.03,.84-.08,.12-.52-1.45-.92-3.02-1.93-5.17-3-1.52-.71-3.97-2.28-3.1-1.02,.16,.24-1-.03-2.19-.92-1.13-.83,.37-.14,.24-.4-.36-.73-.04-.89,1.82-.1,1.22,.5-.32-.56-1.28-1.24,.25-.37-1.12-1.69-1.86-2.67-.59-.79-.91-1.27-1.42-1.71-.51-.43-1.15-.87-2.33-1.65-.55-.35-1.17-.75-1.77-1.2-.58-.43-1.14-.89-1.56-1.38-1.1-1.29-1.72-.88-2.47-2.32-.35-.67-.76-1.02-1.18-1.36-.42-.34-.89-.67-1.28-1.31-.29-.46-.93-1.22-1.14-1.73-.9-1.91-2.02-3.64-3.47-5.44-.23-.3-.58-.9-.81-1.35l-1.02-2.32c-.24-.6-.41-1.04-.59-1.41-.18-.37-.37-.66-.59-.98-.2-.32-.44-.66-.77-1.11-.12-.16-.23-.3-.35-.49-.54-.77-.62-1.79-.74-2.87-.08-.99,.04-.88,.12-.49,.11,.38,.28,1.02,.35,1.09,.19,.19,.38,.45,.37-.16,0-.39-.07-.71-.16-1-.06-.29-.16-.56-.25-.82-.42-1.19-.43-1.9-.16-2.26,.13-.18,.29-.06,.41-.31,.34-.74,.23-1.8-.1-3.3-.12-.48-.31-.9-.07-1.58,.57-1.75,.09-2.9,.52-4.57,.27-.97-.06-.94-.04-1.45,.1-1.28,.76-1.51,.84-2.38,.26-1.99,.71-1.94,1.13-2.67,.99-1.84,1.12-2.02,.82-2.82-.08-.2,.24-.99,.55-1.71,.37-.3,.74-.59,1.13-.91,.28-.23,.61-.6,1.02-1.37,.16-.31,.19-.69,.09-.71-.47-.07,.15-1.06,1.07-2.2,.55-.66,1.02-1.14,1.57-1.75,.99-1.09,1-1.18,1.6-2.58,.16-.37,.46-.84,.81-1.24,.48-.56,.95-1.03,1.42-1.54,.24-.27,.46-.51,.67-.74,.22-.22,.42-.42,.6-.6,.36-.37,.64-.69,.85-.97,.42-.56,.56-.95,.48-1.26-.1-.38-.23-.72-.12-1.32,.05-.26,.68-1.09,.87-.85,.18,.24,1.06-.63,1.64-1.25,.76-.81,1.37-1.76,2.03-2.33,1.05-.78,2.27-2.4,3.25-2.44,.65-.08,2.51-1.43,3.47-2.22,1.66-1.44,3.26-2.69,4.33-2.47,.05,.01,.72-.32,.88-.44,.65-.51,1.31-.87,1.93-1.18,.62-.32,1.21-.58,1.78-.81,.57-.23,1.12-.43,1.67-.62,.56-.16,1.11-.32,1.67-.48,1.73-.52,2.29-.98,2.92-1.49,1.59-.39,3.16-.89,4.69-1.72,.09,.07,.22,.09,.79-.11,.2-.07,.32-.19,.47-.29,2.17-.85-.14-.42,.55-.85,.73-.45,1.86-.99,1.85-1.28,0-.11,.1-.26,.07-.36-.03-.1-.65-.07-.86,.04-1.23,.64-2.26,.91-3.25,1.13-.97,.25-1.91,.43-2.95,.83ZM238.82,240.06c.41,.41,.76,.83,1.15,1.25-.87-.54-1.66-.97-2.64-1.68-.27-.19-.67-.85-.77-1.11,.12-.34,1.05,.3,2.26,1.54Zm-10.33-6.71c.3-.03,.76,.07,1.89,1.02,.63,.53,.97,1.04,.8,1.07-.41,.07-1.51-1.02-2.37-1.69-.14-.12-.27-.23-.41-.35,.03-.02,.05-.04,.09-.05Zm-10.26-7.56l.33,.34c-.39-.19-.77-.38-1.16-.57,0,0-.2-.18-.18-.2,.08-.09,.42,.06,1.02,.43Zm-88.7-9.35c.96-.11,2.81-.21,3.37-.13,1.07,.15-.75,.41-1.36,.62-.43,.15,.85,.4-1.24,.43-1.51,.02-2.01-.38-4.69,.05l-.1-.26c1.33-.24,2.55-.52,4.03-.71Zm-9.12,.67c.85,.11,1.45,.28,1.91,.45,.53,.2-.87,.23-1.45,.31-1.82,.24-1.21-.1-1.59-.19,.18-.02,.38-.03,.53-.06,.09-.02,.09-.05,.14-.07-.23,.04-.46,.08-.69,.13-.83-.05-1.05-.18-.9-.33,.22-.22,.98-.37,2.06-.23Zm-6.49-.06c.37,0,1.05,.12,1.09,.21,.18,.31,.16,.64,.21,.95h-1.21c.08-.31,.41-.63-.59-.92-.29-.08-.24-.23,.49-.24Zm-13.75-2.51c.38,.04,.76,.07,1.14,.11-1.32,.19-2.65,.31-3.98,.47-.15-.07-.31-.14-.48-.23,.28-.31,1.24-.47,3.32-.35Zm-24.47-.7c2.21,.16,3.86,.53,5.09,1.03-1.59-.17-3.17-.4-4.76-.66-.26-.04-.66-.2-.74-.28-.07-.06,.16-.11,.41-.1Zm-35.88-14.39c-.25-.09-.9-.42-1.04-.55-.8-.73-.19-.41,.13-.3,.33,.12,.71,.28,1.13,.46,.37,.51,.14,.51-.22,.39Zm.83-2.12c.33,.46-.15,.2-.85-.29,.01-.14-.7-.83,.1-.36,.15,.09,.68,.54,.76,.65Zm-4.09-3.23c0,.09,.11,.3-.03,.24-.15-.07-.58-.39-.79-.59-.4-.4-.37-.48,0-.22,.26,.18,.54,.38,.81,.58Zm-4.16,.35c.59,.73,1.74,1.81,1.15,1.66-.08-.02-.52-.43-.81-.66-.76-.84-1.54-1.73-1.09-1.66,.14,.02,.49,.35,.75,.66Zm-2.09-3.53c1.01,1.07,.81,1.16,.72,1.37-.27,.13-.96-.25-2.05-1.14-.31-.7-.89-1.73-.77-1.96,.09-.16,1.12,.73,2.09,1.73Zm-2.25-4.09c-.07,.02-.12,.06-.22,.04-.25-.06-.39,.15-1.22-.93-.3-.39-.34-.57-.19-.51,.38,.15,.36-.32,1.63,1.39Zm-1-6.8c.12,.46,.22,.77,.26,.99,.05,.23,.16,.61-.3-.03-.36-.53-.46-.9-.4-.99,.06-.09,.23,.01,.44,.04Zm-9.34-15.47c.17,3.16,.57,3.02,.89,2.95,.13-.03,.08,.1,.21,1.29,.01,.16-.03,.23,0,.38,.27,1.43,.59,.34,.72,1.87,.19,1.28,.35,2.01,.89,2.99,.3,.55,.58,1.11,.85,1.72,.29,.6,.59,1.24,.87,1.99,1.32,2.85,1.51,3.42,.43,2.33-.35-.36-.69-.7-1.09-1.21-.37-.53-.78-1.26-1.29-2.37-.44-1.14-.57-1.16-.59-.72-.01,.34-.44-.15-.46-.81,0-.36-.09-.77-.17-1.21-.07-.45-.18-.94-.31-1.44-.29-1-.53-2.12-.72-3.19-.16-.73-.24-1.48-.32-2.22-.06-.74-.2-1.48-.19-2.22,0-.31,.06-.67,.11-.7,.05-.03,.19,.47,.19,.57Zm3.33-2.06c-.06,.07-.13,.15-.19,.2-.09,.07-.18,.11-.28,.16,.05-.31,.1-.72,.19-.8,.08-.08,.17,.28,.28,.44Zm1.82-13.69c-.19,.35-.39,.64-.56,1.08-.7,1.85-.78,2.05-.75,1.62,.03-.43,.27-1.45,.38-1.95,.27-.29,.4-.66,.39-1.14,.71-1.21,1.07-1.56,.55,.4Zm-.07-2.38c-.92,1.77-.63,1.74-.5,1.98l-.38,1.11c-.29-.32-.56-.89,.72-3.64,.25-.51,.57-1.04,.6-.76,.02,.23-.15,.77-.44,1.31Zm16.22-26.27c-.56,.45-1.09,.63-1.22,.53-.25-.18,1.01-1.13,1.59-1.64,2.46-2.25,1.34-.9,1.1-.46-.75,.67-.72,.97-1.47,1.57Z"/><path class="b" d="M260.71,260.86c.11,.28,.38-.07,.8-.88,.64-1.19,.83-1.07,.21,.67-.81,2.4-.55,2.78-.7,4.05-.08,.74-.05,.96,.03,.89,.08-.07,.24-.47,.48-1.09,.27-.68,.55-1.28,.83-1.9,.04-.07,.7-1.67,1.43-3.24,.35-.79,.72-1.56,1.01-2.15,.28-.59,.47-.98,.48-1,.08-.4,.2-.9,.21-1.14,.02-.33,1.01-3.77,1.31-4.4,.61-1.4,1.3-2.29,1.89-3.75,.34-.85,.56-1.07,.6-.89,.21,1.02,.97-1.08,1.35-2.2,.38-1.01,.53-1.64,1.25-2.39,.98-1.47,2.1-2.84,2.61-4.58,1.06-1.61,2.17-2.65,3.36-4.76,.28-.51,.73-1.22,.8-1.47,.45-1.44,2.09-3.56,3.25-5.4,1.2-.44,1.1-.42,3.16-3.31,.78-1.13,1.13-1.78,1.51-2.47,.38-.69,.8-1.42,1.79-2.63,.48-.57,.88-1.07,1.22-1.48,.36-.39,.66-.7,.9-.93,.47-.46,.71-.57,.76-.32,.16,.7,1.06-.47,2.47-1.95,4.32-4.55,9.27-8.28,14.49-12.03,4.38-3.16,5.73-4.6,5.76-5.81,.03-.59,1.48-1.81,2.36-2.84,.48-.6,1.09-1.3,1.63-1.71,.94-.73,.74-.13,.35,.66-.06,.1-.19,.27-.24,.37-.57,1.12,.5,.71,2.26-1.29,.85-.9,1.54-2.03,2.33-3.04,1.24-1.84,.79-1.63,.33-1.26-.49,.44-1.81,2.08-1.74,1.44,.69-.93,1.22-2.22,1.91-2.8,1.1-.97,1.63-2.53,2.41-3.72l-.28-.37,.63-1.1c.39-.26,.87-.79,1.56-1.94,.79-.44,.84-.44,1.74-2.75,.9-2.41,1.23-3.13,2.14-4.07,.15-.16,.29,.35,.57-1,.47-2.48,1.1-4.08,1.79-6.17,.33-.91,.57-2.38,.68-3.73,.04-.68,.06-1.32,.05-1.84-.02-.53-.08-.93-.14-1.14-.05-.08-.1-1.23-.32-2.35-.18-1.12-.39-2.2-.46-2.2-.29-.02-.43-1.09-.59-2.26-.19-1.18-.47-2.45-.81-2.86-.14-.24-1.03-3.82-.78-1.15,.01,.15-.18,0-.22-.14-.61-1.96-1.43-3.9-2.2-5.72-.52-1.26,.04-.81,.24-.89,.18-.08,.16-.49-.25-1.56-.76-1.87-.53-2.17-.88-3.35-.16-.46-.6-1.23-.97-1.93-.37-.7-.71-1.29-.57-1.48,.16-.23-.17-.81-.64-1.49-.48-.67-1.13-1.4-1.53-1.99-1.3-1.87-1.22-1.17-1.44-1.18-.22,0-.27,.24-.39,.38,1.03,1.47,1.22,2.22,.93,2.33,.39,.49,1.05,1.24,1.08,1.37,.6,1.68,.15,1.9-.18,2.31-.33,.41-1.35-1.81-1.95-2.26-.28-.24-.7-.66-.81-.65-.35,.03-.81-.36-2.01-1.79-.37-.45-.54-.53-.33-.2,.27,.42,.91,1.23,.89,1.29-.08,.29-.69-.72-1.06-1.1-.38-.39-.99-1.16-1.12-1.2-.3-.12,.12,.51,.5,1.11,.39,.59,.86,1.22,1.33,1.84,.44,.63,.87,1.25,1.2,1.77,1.16,1.83,1.33,2.7,1.69,2,.18-.37,1.01,.48,1.62,2.31,.28,.76,.91,1.62,1.37,2.2,.43,.54,.63,.5,1.15,1.46,.33,.42,.54,.77,.53,1.15,.56,1.75-.09,1.08,.09,2.18,.25,1.48,1.15,3.06,1.22,4.18,.11,2.63,.49,2.7,.87,3.11,.25,.32,.51-.76,.75,1.22,.2,1.59-.16,2.09-.3,3.17-.09,.84-.29,1.12-.48,1.35-.22,.25-.42,1.02-.61,1.82-.22,.8-.37,1.64-.41,2.06-.2,2.09-.62,3.56-1.19,5.21-.07,.24-.17,.81-.18,.97,.02,1.05,.34,1.19,.92,.51,.43-2.9,.8-2.04,1.16-2.92l.25-1.56c.06-.51,.12-.97,.19-1.22,.38-1.25,.24,.2,.27,.84,.03,.68,.1,1.67,.13,1.6,.73-2.09,.87-1.04,1.18-.8,.05,.03,.2-.44,.28-.75,.11-.4,.12-.7,.06-.9-.17-.46-.51,.06-.35-2.02,.09-1,.18-1.51,.3-1.9,.12-.39,.26-.65,.36-1.15,.16-.83,.15-1.84,.2-2.84,0-.31,.06-.57,.11-.65,.02-.03,.16,.55,.16,.74-.05,3.91,.19,7.3-.8,11.19-.6,2.26-1.27,4.4-1.43,2.97-.03-.27-.41,.44-.5,.85-.3,1.27-.96,2.82-1.55,4.23-.6,1.4-1.13,2.67-1.09,3.48,.01,.31-.18,1.01-.68,1.71-.92,1.29-1.8,2.62-2.69,4-.44,.69-.86,1.42-1.29,2.15-.45,.72-.89,1.48-1.31,2.27-.2,.38-.39,.59-.54,.63-.37,.08,.09-.77,.28-1.42,.32-.97,.89-1.4,1.38-1.96,.27-.34,.49-.67,.52-.84,.02-.15-.04-.21-.15-.14-.29,.17-.71,.74-1.21,1.4-.49,.66-1,1.36-1.51,2.04-.53,.66-1.04,1.31-1.47,1.93-1.12,1.43-1.77,1.36-3.08,3.18-.58,.86-1.53,1.25-2.1,1.56-.85,.46,.16-.66,.38-1.11,.41-.79,2.77-2.92,2.35-3.2-.46-.29-2.36,2.44-3.56,3.02-1.04,.58-2.34,1.7-2.22,2.22,.11,.51-.6,1.01-2.29,2.15-2.05,1.37-4.04,3.07-4.43,3.93-.3,.62-1.84,1.87-2.14,2.38-.34,.58-.64,.88-1.42,1.21-.39,.17-1.4,.7-.22-.39,.41-.38,1.01-.84,1.38-1.18,.45-.43,.04-.36-.21-.14-1.42,1.27-2.06,1.54-2.96,1.99-1.05,.51-1.79,.88-.12-.76,.31-.3-.08-.21-.79,.4-1.07,.93-1.53,1.06-2.06,1.34-.32,.16-.56,.2-1.15,.83-.54,.57-1.01,1.14-.7,1.09,.64-.11,1.41-.32,2.02-.39,.15-.02,.06,.24-.17,.54-.31,.41-.85,.79-1.23,1.04-1.74,1.14-2.21,1.6-1.57,1.76,.6,.16,.37,.34-2.02,2.61-2.48,2.82-4.94,5.73-7.41,8.29-.89,.99-1.78,1.58-2.81,2.78-1.71,1.98-.53,1.57-1.81,3.4-.4,.59-.69,1.19-1.02,1.79-.17,.59,1.04-.4-1.09,2.37-.84,1.17-1.75,3.01-2.61,4.56-.2,.38,.07,.2-.52,1.12-1.91,2.94-1.94,3.05-1.54,3.27,.12,.07,.54-.34,.14,.52-.33,.77-.77,1.36-1.18,1.94-.4,.56-.81,1.2-1.06,1.32-.16,.08-.39,.32-.59,.49-.06,.27-.19,.75-.12,.79,.41,.25-.08,2.31,1.97-.89,.22-.34,.06,.29-.19,.83-1.25,2.96-1.96,2.33-3.15,5.09-.1,.25-.53,.81-.65,.86-.13,.06-.19-.21-.07-.56,1.28-3.44,.75-3.45,.27-3.75-.24-.15,.24-1.24,.82-2.43-2.48,4.1-3.09,5.87-2.3,5.9,.11,0,.45-.49,.31,.04-.53,1.99-2.93,5.89-2.51,7.17-.24,.45-.48,.93-.71,1.33-.33,.56-.61,1.02-.92,1.6-.24,.46-.51,1.14-.58,1.61-.06,.41-.04,.7,.02,.84Zm64.36-127.25c-.04-.15-.17-.49-.1-.45,.18,.09,.47,.49,.77,1.07,.07,.14,.17,.37,.14,.36-.17-.07-.46-.44-.8-.98Zm-4.66,53.28c.1-.14,.43-.31,.55-.33,.14-.02,.18,.09,.26,.15-.6,.72-1.37,1.76-1.55,1.56-.09-.1,.18-.64,.73-1.39Zm-13.52,9.62c.29-.3,.63-.54,.73-.5,.05,.03-.15,.29-.36,.47-.22,.19-.59,.41-.89,.61,.17-.19,.31-.37,.51-.58Zm-3.02,3.79c-.24-.07-1.2,.32,.34-.92,1.17-.93,2.37-1.76,3.12-1.95,.34-.08,.9-.37,1.29-.51,1.01-.35,.61,.25-1.43,1.67-1.01,.71-1.75,1.15-2.49,1.89-.03,.03-.59,.33-.78,.41-.61,.23-.31-.2-.05-.6Zm-5.44,3.7c.59-.48,.55-.29,.56-.2,0,.07-.22,.33-.35,.5l-.39,.07c.06-.13,.1-.32,.17-.38Zm-10.22,11.01c.17,.27-.15,.99-1.28,2.43-.17-.27-.61-.3,1.28-2.43Zm-2.05,3.33c.23-.28,.49-.55,.73-.83-.05,.2,.01,.33-.2,.63-.6,.84-1.45,1.62-1.61,1.6-.2-.01,.66-.9,1.08-1.41Zm-3.78,1.63c.54-.57,.98-.97,.87-.56-.03,.12-.31,.52-.48,.79-.71,.81-.74,.61-.77,.42-.02-.12,.12-.38,.38-.65Zm.58,3.67c.22-.28,.65-.74,.67-.73,.08,.1-.34,.62-.63,.99-.34,.42-.68,.85-1.03,1.27,.12-.37,.5-.93,.99-1.54Zm-3.98,2.69l.31-.43,.13,.18c-.86,1.2-.84,1.96-2.12,3.37-.1,.12-.25,.26-.24,.22,.22-.82,1.1-2.08,1.92-3.33Zm-1.57,4.48c.28-.47,.55-.95,.85-1.4,.12,0,.32-.1,.36,.02,.08,.34-1.16,2.19-.82,2.39-.5,.44-.71,.67-.76,.66-.27-.03-.57-.06,.37-1.68Zm-3.87,4.63s.35-.36,.34-.25c-.07,.42-.48,1.13-.94,1.84-.28,.44-.41,.56-.36,.26,.26-.51,.61-1.17,.96-1.85Zm-10.6,22.6c.28-.63,.72-1.93,.8-1.57,.09,.43-.13,1.52-.68,3.06-.39,1.06-.77,1.7-.99,1.79-.19,.08-.05-.67,.26-1.55,.21-.58,.41-1.17,.61-1.73Z"/><path class="b" d="M289.4,104.58c.76-.17,1.64-.07,2.84,.33,.6,.2,1.29,.47,2.09,.82,.4,.18,.82,.38,1.28,.59,.45,.23,.92,.51,1.42,.79l1.64-1.65c.07-.07,.11-.2-.55-.6-.3-.19-.75-.4-1.04-.51-.93-.34-1.82-.59-2.75-.91-.93-.31-.87,.23-2.59-.84-.81-.51,.83,.01,1.14-.07,.25-.07,1.15,.22,1.41,.17,.38-.09,3.14,1.32,2.12,.46-.37-.31-2.35-1.25-3.62-1.97-1.46-.82-2.81-1.2-1.46-.26,.62,.45-.15,.23-.5,.2-.47-.03-1.03-.06-2.12-.56-.62-.29-1.16-.67-1.01-.81,.25-.23-1.12-.71-1.99-1.03-.85-.34-.7,.06-2.29-.69-.5-.24-1.18-.49-1.91-.72-.74-.2-1.53-.37-2.23-.5-1.4-.25-2.44-.32-2.07-.01,1.07,.9-1.21,.33-2.16,.43,.28,.15,.7,.35,.78,.47,.08,.1-.35,0-.47-.08-.2-.14-.26-.26-.38-.39-2.11-.69-2.34-.44-2.87-.35-.9,.14-2.05-.05-4.58-.75-3.46-1.01-3.55-.91-7.33-2.18-.49-.17-1.27-.31-1.1-.42,.2-.13,.95,.12,1.46,.21,2.49,.42,4.96,.93,7.42,1.57,1.52,.37,3.65,.98,1.56-.03-.44-.2-4.12-1.97,2.01-.34,.27,.08,.88,0,1.07-.09,.5-.22,3.47,.33,2.65-.19-.78-.46-3.73-1.22-5.72-1.82-1.14-.36-2.92-.71-4.45-.85-1.53-.13-2.79-.13-2.93,.07-.35,.55-1.54,.77-4.18,.74-.79-.02-.43,.46-2.04,.05-.89-.23,.56-.27,.72-.45,.15-.18,.43-.38,1.2-.37,1.21,.02,.61-.1-.38-.31-1-.21-2.42-.45-2.6-.69-.53-.72-2.46-.88-4.28-.87-1.65,0-2.63-.07-3.86-.6-1.66-.71-2.53-.3-3.76-.38,.2,.12,.6,.28,.53,.37-.21,.24-1.39,.37,.44,.82,2.26,.57,2.45,.08,3.87,.21,.4,.04,.81,.09,1.22,.13,.47-.1,.88,0,1.25,.2,4.19,1.07,4.29,1.11,1.89,1.29-1.29,.1-2.38,.2-2.37,.6,.02,.58-.3,.54-4.3-.16l.1-.43c-.78-.19-1.09-.36-.52-.42,.72-.07,1.25-.19,0-.45-2.06-.43-3.72-.77-3.81-1.24-.1-.53-4.09-.87-4.63-1.33-.39-.33-.78-.46-2.42-.54-.74-.03-1.83-.14-2.5-.28-1.68-.33-.15-.16,.42-.14,.48,.02,1.51,.16,.82-.09-.53-.19-2.2-.46-3.78-.66-1.58-.17-3.07-.26-3.21-.14-.72,.56-3.06,.16-5.08,.04-2.35-.18-4.71-.27-7.04-.42-2.64-.12-3.67,.03-2.87,.48,.5,.28-.34,.33-1.58,.26-1.58-.09-3.33-.02-4.45-.36-.91-.28-3.1-.34-3.11-.75-.01-.38-2.23-.41-3.77-.39-1.68,.03-1.68,.31-1.8,.53-.06,.11-.11,.22-.34,.33-.12,.06-.7,.15-.87,.15-.88-.04-.06-.18-.18-.26-.57-.39-2.43-.4-3.18-.05-1.47,.7-2.48,.39-3.4,.17-.95-.23-1.51-.53-2.63,.12-.72,.41-2.19,.64-4.44,.73-1.25,.05-2.55,.19-3.83,.3-.31,.03-.75,.07-1.12,.1l-.46,.05c-.12,.02-.19,.03-.2,.03-.07,.2,1.25,0,1.62,.06,1.19,.21,2.53,.31,4.47,.38,1.82,.06,1.56,.56,1.36,.96-2.66,.45-5.26,.98-8.52,.88-.26,0-.87,.06-1.18,.12-.51,.1-.93,.21-1.3,.33-.04,.01,.42,.09,.72,.08,2.54-.11,4.81-.12,6.17,.2-1.54,.22-3.12,.43-4.58,.68-.37,.06-.45,.23-.5,.34-.05,.1,.29,.11,.71,.04l5.32,.04c1.26,.04-.06,.15-.34,.21-.5,.1-1.1,.19-1.66,.29-.44,.08-1.33,.15-.75,.25,.16,.03,.8,0,1.16-.05,2.02-.25,3.97-.54,6.16-.59,1.1-.03,1.24,.02,.81,.23-1.43,.69-1.37,.65,2.17,.48,1.44-.07,2.9-.07,4.25-.03,1.85,.04,3.27-.2,4.79-.34,1.11-.11,1.35-.48,1.54-.47,1.29,.08,.12,.37,.68,.52,.44,.12,1.2,.2,2.06,.1,1.07-.12,2.19-.25,3-.42,1.32-.25,2.03-.13,2.86,.09,.34,.09,.98,.15,1.6,.08,.81-.09,.73-.24,.71-.39-.02-.14-.09-.31-1.35-.25-1.3,.06-2.54,.06-3.3-.17-.38-.12-1.1-.23-.51-.39,.42-.1,1.13-.06,1.75-.03,4.89,.22,4.88,.29,7.52-.38,.11-.03,.22-.06,.3-.09,.38-.14,1.1-.18,2-.12,.95,.06,1.6,.22,1.44,.36-.52,.48,1.81,.51,3.36,.74,1.99,.26,3.68,.33,4.97,.12,2.09,.46,3.46,.42,4.49,.17,.17-.04,.55-.05,.83-.07,.1,.11,.22,.23,.3,.34,.02,.04-.08,.06-.16,.09-.37,.1-.71,.21,.49,.39,.76,.11,1.86,.25,1.71,0-.15-.25,.81-.24,1.53-.28,.73-.04,1.06,0,1.72,.26,1.64,.64,2.58,.73,3.85,.44,.47-.11,.74-.25,1.17-.37,.44-.12,.98-.21,2.26-.05,1.47,.18,2.4,.47,2.73,.74,.25,.2,.11,.37,.13,.55-.75-.09-1.56-.23-2.02-.13-.97,.22,.03,.69,.07,1.04,.01,.12-.92,.15,.35,.38,.45,.08,1.32,.13,1.57,.08,.9-.14,1.97-.18,3.81,.24,.56-.49,2.2,.2,3.42,.39,.8,.12,1.66,.27,2.4,.35,.7,.07,1.28,.07,1.91,.1-.58-.13-1.16-.28-1.76-.39-2.15-.4-3.45-.69-3.41-1.14,.02-.43,1.12-.45,3.43,0,1.72,.33,2.11,.02,3.56,.22,1,.16,1.22-.26,2.75,.38,.85,.35,.12,.34-.86,.26-2.03-.15-1.36,.4-1.38,.75,0,.35,1.92,.82,3.35,1.24,.47-.05,.87,.03,1.21,.27,.32,.04,.92,.14,.93,.1,.11-.39,.1-.38,2.71-.03,.43,.06,.38-.15,.8-.1,1.81,.2,3.33,.21,6.04,1.27-1.18-.05-1.96,.02-1.11,.61,.2,.14,.56,.55-.54,.09-3.04-1.27-2.93-.67-3.92-.71,1.8,.6,3.81,1.4,5.37,1.5,1.68,.15,1.86,.5,2.5,.91,.29,.19,.76,.44,1.41,.57,.45,.08,1.11,.17,1.03,.09-1.36-1.39,2.05-.53,5.07,.19,2.4,.64,2.35,.63,4.5,2.03Zm5.63,.29c.57,.25,.87,.53,1.04,.76-.28-.08-.57-.11-.99-.29-.8-.33-.86-.52-.78-.58,.08-.06,.41-.04,.73,.1Zm-99-17.14c.76,0,1.73-.09,2.07,.08,.26,.13-2.18,.62-3.38,.66-1.76,.08-1.92-.22-1.94-.36-.07-.42,2.04-.3,3.25-.37Zm-10.34,.85c.68-.06,1.03-.01,1.19,.09-.21,.05-.52,.16-.62,.16-.34,0-.65-.03-.89-.07-.35-.05-.22-.12,.32-.17Zm3.56,.76c-.57,.25-1.14,.5-1.71,.75-.93-.22-3.34-.17-3.12-.59,1.68-.11,3.42-.44,5.06-.27l-.23,.11Zm.11-.31c-.39-.3-1.93-.53-.24-.96,.86,.26,1.98,.52,2.49,.83,.35,.22-1.07,.28-2.11,.34-.04-.07-.05-.14-.13-.2Zm7.63,2.15c-.89,.08-.63,.42-2.52,.15-1.88-.24-3.23-.41-1.45-.91,.62-.03,1.26-.05,1.86-.08,1.08-.06,2.68-.36,2.94-.01,.17,.23,2.91,.53-.83,.85Zm3.62-.71c-1.87-.43-.94-1.07-3.19-1.45-.42-.07-.18-.38,1.34-.43,.86-.03,1.82,.07,1.74,.23-.22,.47,1.32,.8,2.33,1.18,.39,.14,.27,.36-.98,.46-.36-.17-.78-.14-1.24,0Zm19.45-.33c-1.35-.2-2.29-.42-2.28-.71,.02-.34,.72-.61,2.27-.72,.51-.04,1.22,.07,1.4,.19,.6,.42-.64,.74,.4,1.17-.17,.21-1.03,.17-1.79,.06Zm1.74-2.43c.13-.03,.74,0,1.11,.02,.6,.04,1.35,.14,1.03,.25-.43,.15,.38,.35,.5,.52-.72-.05-1.43-.07-2.15-.09-.18-.24-1.27-.51-.48-.7Zm5.66,1.04c-.66,.11-1.97,.16-2.93-.24,.76,0,1.26-.05,1.4-.18,.26-.24,1.27-.22,2.59-.09-.32,.18-.39,.41-1.06,.51Zm1.13-.53c-.12-.07-.22-.14-.38-.21-.54-.24-1.08-.5,.02-.57,.54-.04,.02-.05,.3,.09,.51,.25,2.33,.69,.06,.7Zm17.88,6.13c-.18-.11-.15-.21-.19-.31,.57,.12,.93,.24,.86,.34-.06,.08-.55,.04-.67-.03Zm35.21,6.83c-.66-.24-1.35-.66-1.93-.92-.51-.25-.3-.31,.13-.26,1.08,.11,2.69,.6,3.17,.45,.42-.13,1.12,.07,2.55,.64,2.08,.92,.57,.61,1.09,.95-.3,.21-3.46-.27-5.02-.85Z"/><path class="b" d="M166.32,91.99c-1.57,.09-3.56,.3-4.58,.24-.75-.05-.3-.43-.35-.68,4.91-.31,5.28-.41,3.87-1.03-1.03-.02-1.41-.15-.48-.38,1.42-.36,1.37-.5,.03-.61-.55-.04-.36-.29-.46-.45,1.09,.05,2.17,.11,3.28,.16,.31,.02,.83,.05,1,.01,.69-.13,.51-.23,.24-.3-.7-.2-1.34-.42-2.16-.59-.75-.16-2.16,0-3.4,.16-1.33,.16-2.46,.37-2.09,.62,.19,.13,.33,.28-.75,.41-1.08,.12-1.19-.05-1.31-.18-.28-.28-2.19,.13-2.87-.03-.71-.15-1.71-.3-2.57-.45-1.39,.3,.16,.46-.14,.7-.21,.17-.41,.41-1.69,.45-2.49,.08-1.39,.37-1.73,.57-1.65-.1-2.86-.53-5.21-.09-.89,.17-2.41,.08-3.67,.1-3.29,.05-5.63,.58-5.32,1.15,.05,.09,.56,.19,1.02,.25,.73,.1,1.3-.02,1.4-.11,.28-.26,2.34-.32,2.11-.64-.17-.25,1.42-.26,2.25-.27,1.11,0,.96,.21,.82,.33-.58,.51,.71,.91,2.2,1.3-2.37,.18-3.97,.48-5.27,.85,.6,0,1.21,.02,1.8,.03,.83,.03,1.78,.08,1.44,.27-.13,.07-.99,.11-1.56,.14-.57,.02-1.19,.01-1.79,.01l2.25,.44c-1.98-.12-4.43,.28-5.58,.03-1.25-.28-1.16-.74-1.59-1.13-.11-.1,.12-.22,.05-.33-.1-.15-.51-.31-1.5-.27-.75,.03-1.63,.14-2.08,.25-.45,.11-.86,.33-.58,.42,1.85,.57-1.11,.6-2.96,.81-.89,.1-1.6,.09-2.41,.11-.73,.02-1,.15-1.01,.26-.02,.11,.21,.21,.97,.17,.82-.04,1.65-.14,2.47-.16,.65-.01,1.15,.05,1.01,.19-.65,.62-3.97,.99-6.63,.86-.5-.03-.21-.34-1.44-.08-.31,.07-.14,.22-.12,.32,.09,.61,4.06,.35,5.38,.78,1,.3,1.93,.21,3.12-.31,.48-.21,.75-.25,1.61-.14,.56,.08,1.04,.21,2,.04,3.95-.7,7.09-.33,10.2,.17,2.32,.38,2.98,.35,3.19-.27,.2-.61,3.36-.59,5.14-.9,1.18-.2,1.49,.2,2.69,.18,.66,0,1.12,.13,1.67,.2,.55-.2,1.44-.42,1.56-.59,.13-.17-.48-.3-.78-.45l1.87-.23,1.8-.25h.89l-.42-.12c.07-.08,.11-.22,.21-.23,1.97-.22,3.95-.26,5.92-.61,.81-.14,1.32-.06,1.24,.04-.22,.26,1.03,.51-1.48,.82-1.56,.19-1.48,.37-1.29,.52,.27,.22,1.45,.23,2.71,.13,1.41-.11,1.39-.34,1.48-.52,.13-.25,1.84-.61,.65-.77-1.36-.18-.24-.49,.69-.83,1.37-.51-.14-.77-2.99-.56-.8,.06-1.57,.16-1.96,.04Zm-23.92,2.98c-.43-.03-.31-.1-.14-.18,.26-.12,.36-.25,.52-.38,.95,.1,1.29,.24,.92,.43-.19,.09-.59,.18-1.29,.13Zm11.2-2.65c-.29,0-.71,0-1.05,0-.34,0-.6-.01-.6-.03,.02-.34-.74-.5-2.75-.52-1.26,0-2.66,.01-2.87-.27-.27-.37,1.64-.35,2.9-.47,.91-.08,.87-.24,1-.37,1.46-.16,2.89-.35,4.41-.17,.51,.06,1.64,.02,1.1,.25-.84,.36-.66,.64,.07,.93,.74,.29-1.79,.42-2.22,.67Z"/><path class="b" d="M319.13,125.15c.41,.34,1.03,1.03,1.55,1.62,.96,1.05,1.97,2.75,2.58,3.18,.47,.36-.49-1.34,.11-1.02,.29,.15,.07-.48,.07-.78-.9-1.47-1.24-2.21-.93-2.33-1.02-1.2-1.45-1.31-1.85-1.55-.92-.51-1.31-2.28-2.05-2.2-.27,.04-.59-.07-1.37-.59-.79-.55-1.63-1.25-2.49-2.04-.9-.75-1.84-1.58-2.78-2.46-.61-.57-1.23-1.15-1.84-1.72-.64-.54-1.27-1.08-1.89-1.6-.92-.78-1.7-1.72-2.7-2.31-1.73-.96,.39,.66,0,.62-.19-.02-.65-.21-1.08-.46-.83-.47-1.77-1.1-2.57-1.55-1.02-.58-1.93-.97-1.42-.34,.51,.67,1.73,1.43,2.62,1.88,.67,.34,1.31,.65,1.93,.93,.61,.31,1.18,.62,1.78,.94,.56,.3,1.07,.58,1.76,1.24,.57,.55,.84,.92,.75,1.04-.06,.08-.4-.06-.63-.11-.41-.1-.65-.11-.5,.1,.07,.11,.24,.27,.54,.51,.3,.23,.72,.55,1.25,1.01,1.24,1.02,2.5,2.19,2.49,2.75,0,.41,1.04,1.09,1.64,1.65,.6,.53,1.13,.91,.94,.48-.11-.24-.4-.65-.69-1.04-.45-.65-1.4-1.57-.72-1.26,.57,.23,1.53,1.27,2.08,1.94,.67,.82,1.24,1.45,1.77,2,.55,.54,1.08,.98,1.65,1.43Z"/><path class="b" d="M121.66,92.23c-2.26,.36-3.15,.82-4.17,1.27-1.15,.55-1.25,.53-3.58,.44-.85,.05-.9,0,0-.22-.36-.15-1.24-.33,1.29-.62-.74-.33-.21-.96-2.29-.99,.04-.15,.04-.3,.08-.46,.04-.16-.06-.33-.83-.26-1.1,.11-1.95,.37-2.62,.68-2.17,.95-3.2,1.18-5.35,1.16-.49,0-.59-.16-1.57,.04-.57,.12-1.24,.27-1.72,.43-.6,.19-.68,.33-.27,.34,.48,.01,.97,.04,1.61-.02,4.68-.43,6.23,.08,5.32,1.26-.13,.17,.03,.29,0,.44-.04,.5,1.68,.17,3.68-.26,.29-.15-.12-.26,.95-.43,.12-.02,.22,.14,.33,.22,1.18-.32,3.51-.07,3.79-.74,2.01-.33,2.31,.06,3.64,.03,.2-.37-.28-.7,.82-1.11,1.33-.49,.9-.82,.88-1.21Z"/><path class="b" d="M105.19,94.48c-1.14-.11-2.39-.16-5.02,.4-2.92,1.02-5.84,2.03-8.75,3.04,1.26-.13,1.38,0-.04,.45,.03,.21-.01,.44,.14,.62,.07,.08,.43,.12,1.22-.1,.34-.1,.75-.24,.87-.33,.2-.15,.3-.28,.26-.38-.15-.33,.16-.59,2.61-.93,1.16-.16,2.78-.55,3.61-1,2.19-.08,.7,.76,1.28,1.08,.13,.07,.4,.05,.83-.08,.34-.1,.89-.3,.85-.32-1.05-.32,.5-1.07,2.22-1.86,.85-.39,.57-.53-.08-.6Z"/><path class="b" d="M58.09,207.46c.02,.11,.35,.4,.6,.48,.88,.3,1.74,.41,1.64,.27-.5-.68,.93-.22,2.94,.35,.42,.12,.91,.13,1.37,.18-1.8-.71-2.2-1.17-1.79-1.44,.33-.22-.39-.5-1.92-.88-.71-.2-1.54-.5-2.28-.76-1.34-.4-4.93-1.28-4.85-1.06,.12,.39,.9,.98,2.71,1.75,1.39,.57,1.51,.84,1.56,1.11Z"/><path class="b" d="M101.25,217.42c-.07,.12,0,.31-.82,.29-.95-.04-1.53-.24-1.79-.41-1.74,.02-2.93,.13-3.04,.46-.05,.16-.1,.36-1.19,.37-.17,.2-.36,.43,1.55,.55,1.6,.1,2.72,.06,3.97-.06,2.35-.28,1,.19,1.62,.27,.5,.06,1.15,.08,1.74,.11-.14-.34,.77-.58,2.11-.79,1.03-.19,1.04-.36-.72-.5-1.16-.1-2.29-.2-3.44-.3Z"/><path class="b" d="M62.61,104.59c.2-.06,.77-.35,.91-.45,.12-.1-.06-.17-.23-.11-.69,.22-1.32,.37-1.92,.51-.59,.16-1.16,.32-1.74,.47-1.16,.34-2.39,.71-3.94,1.59-1.54,.76-2.77,1.32-3.87,1.92-1.4,.8-2.34,1.62-2.09,1.8,.24,.19,1.42-.53,2.65-1.11,1.7-.78,3.32-1.76,5.03-2.54,1.71-.76,3.41-1.6,5.21-2.08Z"/><path class="b" d="M324.2,178.2c.35-.9,.36-1.33,.89-2.56,1.43-3.42,1.31-3.41-.02-1.86-.39,.43-.77,.91-.9,.7-.13-.23-.6,.73-.95,1.43-.28,.56-.51,1.19-.27,.97,1.17-1.06,.77,.5,.41,1.96-.07,.32-.07,.52-.1,.73,.19-.14,.33-.25,.46-.36,.16-.34,.35-.72,.47-1.01Z"/><path class="b" d="M90.79,97.27c.34-.22,.75-.43-.2-.33-.89,.09-1.37,.28-2,.55-.97,.42-2.18,.84-2.72,1.23-1.01,.73,.1,.83,3.04,.22,.78-.17,1.6-.36,2.4-.54l.03-.46c-1.57,.12-1.21-.24-.54-.67Z"/><path class="b" d="M79.45,102.93c-.31,0-1.44,.34-1.24,.35,1.79,.02-1.2,.72-1.98,1.1-.87,.41-1.05,.62-.35,.75,.29,.05,.27,.22,.35,.35,.12,.18,.74,.19,1.8-.13,1.07-.33,1.48-.66,1.58-.85,.22-.45-1.08-.53,.71-1.34-.31-.09-.44-.21-.86-.22Z"/><path class="b" d="M320.53,182.95c.57-1.07,.88-2,.43-1.72-.63,.4-1.53,1.15-2.41,1.97-.51,.44-1.01,1.32-.99,1.5,.02,.29,.38,.19,0,.98,.08,.05,.14,.15,.25,.16,.24,.04,.77-.59,1.32-1.27,.56-.67,1.06-1.46,1.39-1.63Z"/><path class="b" d="M289.43,104.62c-.34,.27-.61,.57-1.48,.6-.91,.04,.46,.82,1.84,1.65,.63,.4,2.71,1.12,2.37,.86-2.15-1.59,.24-1.14-1.63-2.6-.35-.2-.74-.34-1.1-.52Z"/><path class="b" d="M77.54,101.29c0-.36,.06-.49,0-.58-.09-.12-.26-.23-1.31,.06-.63,.18-.95,.36-1.21,.54-.24,.17-.73,.38-.93,.54-.65,.52-.69,.85,.97,.63,.24-.03,.78-.16,1.03-.26,1.76-.67,1.43-.9,1.44-.94Z"/><path class="b" d="M294.38,106.93c-1.27-.53-1.54-.39-.63,.25,1.19,.78,3.08,1.93,3.9,2.75,.3,.32,.84,.49,1.26,.59-.23-.34-.43-.7-.77-1.12-.61-.73-1.87-1.67-3.76-2.47Z"/><path class="b" d="M329.38,165.68c-.3-.29,.2-2.75-.15-2.97-.24,1.24-.33,2.4-.99,3.77-.47,.99-.71,1.87-.47,1.93,.14,.03,.34-.16,.35,.26,0,.59,.29,.25,.76-.94,.34-.83,.6-1.96,.5-2.05Z"/><path class="b" d="M76.71,98.92c-.82,.51-2.15,.91-3.64,1.32-.76,.2-1.89,.51-2.01,.71-.08,.11,1-.11,1.51-.13,.52-.03,1.68-.19,1.79-.37,.43-.69,2.82-1.05,4.16-1.48,.8-.27,1.53-.52,1.33-.64-.17-.1-.67-.1-1.54,.07-.66,.14-1.29,.32-1.59,.52Z"/><path class="b" d="M260.07,260.51l.11-.83c.06-.61,.05-1.1-.31-.58-.16,.22-.47,.97-.62,1.47-.48,1.48-.4,1.98-.22,2.16,.06,.06,.12,.08,.19,.13,.18-.05,.25,.35,.6-.31,.07-.68,.17-1.36,.25-2.04Z"/><path class="b" d="M303.4,109.61c.48-.19-1.12-1.43-1.85-2.16-.45-.41-1.04-.46-1.37-.53-.81-.19,.46,.71,.76,1.1,.18,.23,.16,.47,1.24,1.09,.68,.39,1.15,.55,1.22,.5Z"/><path class="b" d="M133.53,91.69c1.24-.09,1.24-.3,1.22-.46-.03-.19,1.45-.41,0-.57-.39-.04-1.32,0-1.74,.06-.93,.13-.86,.33-1.09,.55,.15,.09,.31,.23,.64,.35,.13,.05,.73,.09,.98,.07Z"/><path class="b" d="M76.74,210.41c.23-.18-.31-.66-.84-.73-1.28-.16-2.64-.19-2.56-.03,.13,.3,1.24,.73,1.95,1.09l1.44-.33Z"/><path class="b" d="M19.04,152.36c.37-1.28,.6-2.47,.78-3.41,.06-.37-.03-.49-.1-.58-.01-.02-.25,.58-.28,.65-.41,1.25-.66,2.28-.9,3.3-.21,1.04-.73,2.82-.38,2.88,.19,.03,.57-1.6,.88-2.84Z"/><path class="b" d="M319.41,120.66c-.03-.24-.49-.71-.86-1.09-.85-.87-1.59-1.56-2.17-1.97-.6-.39-1.01-.55-1.18-.42-.04,.03,.26,.37,.4,.57,1.3,.93,2.55,1.92,3.82,2.92Z"/><path class="b" d="M110.39,96.43c-.33,.17,.02,.22,.6,.14,.7-.09,1.14-.27,1.2-.39,.17-.31,.2-.6,.28-.9-.41,.06-.83,.12-1.19,.18-2.58,.68-.07,.56-.9,.97Z"/><path class="b" d="M43.22,203.88c-.11,.13-.32,.2-.26,.43,.05,.19,.54,.7,1.31,1.12,.78,.44,.94,.32,1.08,.25,.37-.2,.45-.45-2.13-1.8Z"/><path class="b" d="M173.87,94.21c-.39,.09-.49,.16-.18,.2,.24,.03,.55,.05,.85,.08,1.64-.03,1.61-.4,2.8-.54,.83-.09,2.5-.2,1.94-.4-.46-.17-1.7,.18-2.66,.23-1.03,.07-1.95,.23-2.75,.42Z"/><path class="b" d="M177.24,87.19c.04-.12-.38-.2-.96-.16-1.71,.13-2.11,.48-3.23,.71-.55,.11,.61,.04,1.02,.04,1.56-.11,3.04-.22,3.17-.59Z"/><path class="b" d="M258.65,265.83c.1-.14,.51,.02-.34-1.22-.56-.79-.76-.75-.95-.71-.08,.12-.45-.01,.41,1.22,.56,.8,.78,.83,.88,.71Z"/><path class="b" d="M65.05,102.36c.03-.09-.46,.02-1.05,.21-1.08,.35-2.45,1.13-2.1,1.19,.21,.03,.74-.1,1.38-.34,1.13-.43,1.83-.79,1.77-1.06Z"/><path class="b" d="M307.96,112.11c0-.23-.62-.76-1.32-1.3-.86-.61-1.34-.77-1.48-.68-.14,.09,.06,.41,.95,1,.88,.65,1.59,1.06,1.85,.99Z"/><path class="b" d="M23.8,136.63c.21-.62-.04-.64-.77,.38-.55,.81-1.15,1.78-1.59,2.79-.2,.45-.23,.61,.09,.35,.27-.07,.77-1.3,1.29-2.09,.34-.53,.64-.42,.98-1.43Z"/><path class="b" d="M310.6,114.43c.64,.26,1.14,.51,1.71,.76l-.13-.36c-.29-.22-.68-.55-.86-.65-.67-.31-1.3-.57-1.87-.78-.14-.05-.18,.06-.03,.21,.43,.44,.91,.7,1.19,.83Z"/><path class="b" d="M281.94,103.24s.56,.32,.83,.41c1.32,.46,1.86,.47,2.07,.32-.21-.2-.72-.5-1.19-.63-1.05-.29-1.61-.3-1.71-.1Z"/><path class="b" d="M105.68,95.86c-.75,.17-.59,.37-.6,.52-.02,.19,0,.37,.05,.54,0,.03,.22,0,.35,.01,.24-.09,.62-.2,.68-.26,.15-.14,.16-.25,.2-.34-.03-.1-.05-.17-.07-.24-.05-.13,.08-.39-.6-.24Z"/><path class="b" d="M31.99,123.33c.24-.53-.41,.09-1,.75-.62,.69-1.08,1.31-.52,.96,.43-.28,.6-.15,1.53-1.17,.7-.92-.18-.15-.01-.53Z"/><path class="b" d="M230.45,239.21c.49,.47-.64-.18,.49,.76,.4,.33,.86,.49,1.07,.51,.1,0-.25-.51-.52-.76-.87-.82-.73-.44-1.04-.51Z"/><path class="b" d="M176.9,88.69c-.64,.06-1.15,.16-1.2,.29-.09,.23,.7,.26,1.8,.19,.27-.02,.61-.2,.85-.29-.18-.16-.34-.29-1.45-.19Z"/><path class="b" d="M330.9,140.96c.31,.55,.67,1.15,.45,.16-.09-.44-.35-1.12-.57-1.69-.07,0-.17-.04-.21,.04-.07,.12-.09,.33-.13,.5,.17,.33,.33,.77,.46,.99Z"/><path class="b" d="M235.15,243.67c-.22,.07,.08,.54,.96,1.39,.26,.26,.56,.48,1,.86-.52-.72-1.01-1.4-1.5-2.07-.16-.07-.39-.21-.46-.19Z"/><path class="b" d="M210.14,92.64c-.16,.14-.04,.28,.88,.35,.71,.06,1.15-.01,1.34-.11,.28-.15-.26-.27-1.01-.35-.82-.09-.97,.03-1.2,.11Z"/><path class="b" d="M66.83,103.49c.76-.28,1.45-.58,1.37-.73-.02-.03-.65,.13-1.01,.24-.78,.23-1.59,.57-1.63,.78,.21,.05,.67-.05,1.28-.29Z"/><path class="b" d="M98.25,93.91c.15-.19-.47-.09-1.08,.06-.55,.13-1.27,.34-1.54,.47-.36,.18,.11,.2,.71,.1,.92-.16,1.53-.39,1.9-.62Z"/><path class="b" d="M264.65,245.99c.07-.34,0-.47-.37,.21-.38,.77-.4,1.09-.33,1.17,.07,.08,.27-.13,.42-.21,.1-.39,.22-.84,.28-1.17Z"/><path class="b" d="M90.23,101.12c.15,.08,.54,0,.7-.14,.18-.17,.17-.31,.15-.45,0-.04-.31-.01-.56-.02-.59,.33-.51,.49-.29,.61Z"/><path class="b" d="M249.94,256.91c.21,.08,.04-.29-.33-.78-.51-.66-.64-.6-.77-.61-.04,.12-.19,.15,.47,.86,.23,.25,.53,.5,.64,.53Z"/><path class="b" d="M307.36,117.43c-.11,.04-.02,.26,.66,.74,.44,.35,.76,.54,.82,.46-.08-.23-.29-.6-.77-.95-.28-.2-.61-.28-.71-.25Z"/><path class="b" d="M184.9,93.84c-.26,.18,.23,.25,1.2,.18,.57-.04,1.04-.14,1.07-.26,.01-.12-.32-.17-.95-.16-.74,0-1.18,.14-1.32,.23Z"/><path class="b" d="M155.62,96.29c.19,.07,.6,.09,1.09,0,.61-.1,1.05-.22,.62-.29-.18-.03-.71,0-1.03,0-.71,.09-.92,.19-.68,.29Z"/><path class="b" d="M138.53,218.29c.06,.05,.5,.09,.78,.07,.66-.04,1.19-.15,1.04-.26-.06-.04-.52-.05-.77-.07-.74,.06-1.2,.15-1.05,.27Z"/><path class="b" d="M81.77,97.75c.07,.03,.62-.05,.91-.14,.61-.16,1.11-.35,.87-.42-.09-.03-.6,.07-.88,.11-.75,.21-1.08,.38-.91,.45Z"/><path class="b" d="M109.99,97.54c-.03,.1,.11,.18,.17,.26,1-.24,1.07-.42,1.42-.58,.38-.17,.03-.21-.59-.1-.66,.13-.97,.29-1,.41Z"/><path class="b" d="M319.92,127.05c.68,.79,.83,.74,.96,.67l-.23-.51c-.36-.26-.74-.55-1.06-.75-.04-.02,.21,.44,.34,.6Z"/><path class="b" d="M27.98,191.72c.24,.3,.52,.68,.72,.87,.22,.21,.5,.37,.53,.32,.06-.08-.23-.44-.59-.72-.25-.2-.45-.31-.67-.47Z"/><path class="b" d="M48.66,201.86c.07-.02-.16-.22-.25-.35l-.72-.15,.33,.44c.22,.03,.52,.11,.64,.06Z"/><path class="b" d="M100.02,100.59c.02,.09,.27,.13,.42,.19,.2-.1,.55-.23,.56-.28,.01-.09-.19-.14-.33-.23-.3,.15-.66,.28-.65,.33Z"/><path class="b" d="M291.56,205.95c-.07,.02-.37,.26-.56,.4-.03,.15-.1,.35-.05,.43,.02,.03,.34-.23,.48-.33,.4-.49,.31-.54,.13-.5Z"/><path class="b" d="M325.78,180.27c-.49,.89-.64,1.35-.52,1.46,.05,.05,.24-.08,.41-.31,.48-.68,.49-.95,.44-1.06-.05-.13-.21-.07-.33-.09,.47-.96,.32-.84-.13-.18l.13,.19Z"/><path class="b" d="M214.65,91.06c-.07,.08-.25,.2,.61,.23,.16,0,.29-.11,.44-.16l-.42-.21c-.22,.05-.57,.09-.62,.15Z"/><path class="b" d="M17.05,157.03c-.03-.09-.16,.2-.2,.49-.08,.51-.14,1.13-.21,1.71,.11-.28,.22-.5,.33-.87,.12-.41,.2-1.03,.09-1.33Z"/><path class="b" d="M286.02,211.65c.09-.24-.22-.1-.71,.48-.39,.46-.78,.99-.7,1.09,.03,.04,.35-.26,.53-.4,.45-.5,.8-.95,.88-1.17Z"/><path class="b" d="M326.38,145.02c-.09,.12,.05,.65,.23,1.12,.09,.22,.19,.26,.28,.38,.06-.16,0-.46-.16-.85-.11-.26-.32-.68-.35-.65Z"/><path class="b" d="M104.98,98.67c0,.09,0,.2,.74,.02,.18-.05,.27-.17,.42-.28-.19-.02,0-.2-.78,0-.19,.05-.38,.2-.39,.26Z"/><path class="b" d="M329.82,136.82c.02-.07-.09-.39-.13-.57-.37-.6-.44-.45-.51-.36-.02,.03,.07,.32,.1,.38,.35,.64,.49,.69,.54,.55Z"/><path class="b" d="M120.03,94.57c-.03,.13-.23,.3,.57,.29,.17,0,1.16-.24,1.14-.29-.07-.18-1.02-.05-1.71,0Z"/><path class="b" d="M274.14,227.39c.36-.35,.76-.7,1.11-1.02,.35-.31,.78-.61,1.18-1.33,.24-.44,.14-.63,.03-.71-.21-.15-1.05,.85-1.76,1.72-1.12,1.37-.66,1.2-.6,1.37-.32,.53-.68,1.09-.95,1.58-.14,.26-.25,.61-.17,.57,.25-.12,.58-.68,.77-1.12,.18-.41,.26-.72,.39-1.08Z"/><path class="b" d="M211.23,91.84c.28,.11,.89,.14,1.46,.13,.28,0,.49-.06,.69-.09-.28-.12-.91-.13-1.46-.13-.28,0-.74,.07-.7,.09Z"/><path class="b" d="M271.46,232.04c-.05-.07-.17-.13-.54,.54-.09,.17-.07,.33-.1,.5,.12-.04,.15,.14,.53-.55,.1-.18,.15-.44,.11-.49Z"/><path class="b" d="M325.54,137.97c-.08,.08,0,.45,.3,1.03,.11,.21,.25,.35,.44,.61-.13-.43-.26-.82-.38-1.22-.12-.15-.32-.45-.36-.42Z"/><path class="b" d="M320.9,179.6c-.14,.12-.26,.19-.42,.36-.22,.24-.41,.57-.46,.79-.08,.34,.14,.12,.46-.3l.43-.86Z"/><path class="b" d="M237.94,94.86c-.05,.05,.2,.15,.32,.23,.27,0,.73,.02,.77-.01,.05-.05-.2-.15-.33-.23-.28,0-.73-.02-.76,.02Z"/><path class="b" d="M271.7,234.72c-.6,.99-.25,.72-.25,.93l.61-1.02c-.13,.02-.31,0-.37,.09Z"/></svg>