<svg id="Handschrift" xmlns="http://www.w3.org/2000/svg" viewBox="0 0 350 350"><defs><style>.cls-1{fill:none;}.cls-2{fill:#010101;}</style></defs><path class="cls-1" d="M282.93,102.95c-4.14-11.2-9.03-22.24-16.19-31.78-10.02-13.34-23.94-23.1-37.62-32.63-15.85-11.03-32.88-20.62-51.35-26.24-24.09-7.34-69.59-7.52-94.62-4.69-21.18,2.39-9.18,1.02-30.36,3.41,5.11,118.29,9.87,222.17,11.18,333.29,25.57-1.82,51.03-5.25,76.16-10.3,29.19-5.86,59.09-14.71,84.86-29.27,18.81-10.64,35.42-24.32,47.93-42.1,31.93-45.39,29.27-107.65,10.02-159.71Zm-77.98,93.11c-6.9,24.07-31.36,37.69-57.41,44.04-1.76-18.33-6.44-116.38-6.91-135.13,14.32,1.54,20.33,6.58,31.28,12.62,1.34,.73,2.77,1.53,4.29,2.38,23.93,13.3,35.92,51.1,28.75,76.09Z"/><g><path class="cls-2" d="M144.2,162.73c.02,.34,.05,.7-.07,.93-.07-.32-.11-.67-.21-.93-.1-.29-.26-.51-.22,.17,.04,.72-.16,.86-.36,.99-.13,.08-.3,.09-.29,.54,.01,.48,.19,.47,.32,.56,.22,.15,.41,.49,.54,.94,.23,.78,.53,1.58,0,2.26-.23,.31-.16,1.07-.14,1.7-.27,.48-.2,1.14-.06,1.82,.26,1.29,.26,1.31-.23,1.89,.14-1.16-.12-2.17-.32-3.21-.1-.07-.28-.14-.28-.21-.01-.47,.16-.26,.26-.36,0-.83,.14-1.5,.27-2.18,.05-.25,.05-.5-.02-.73-.11-.36-.25-.27-.39-.22-.22,.08-.29,1.11-.6,.55-.24-.44-.52-1.18-.72-.4-.28,1.05,.25,1.24,.45,1.76,.08,.2,.17,.37,.24,.6,.11,.4,.02,.74-.1,.84-.15,.14-.38,.3-.5,.11-.55-.89-.67,.43-.99,.82-.73,.88,.31,2.04,0,2.89-.01,.04,.06,.28,.09,.43,.11-.18,.21-.45,.34-.52,.15-.1,.28,.23,.31,.59,.09,.85,.27,1.44,.59,1.93,.26,.4,.15,.92-.02,1.29-.12,.26-.32,.27-.36,.77,.12,.07,.3,0,.3,.42,0,.24-.17,.43-.27,.64l-.05-1.03c-.24,.32-.24,.68,.03,1.07,.27,.73,.58,1.37,.91,1.93,.26,.45,.18,.91-.05,1.16-.09,.1-.2,.1-.3,.12-.13,.02-.35-.01-.34,.3,.02,.31,.24,.25,.37,.34,.28,.18,.55,.48,.82,.59,.37,.14,.53,.52,.42,1.42-.03,.26-.05,.51,.09,.54,.11,.02,.14-.28,.16-.54,.02-.18,.07-.93,.16-.3,.18,1.31,.6,.62,.86,1.15,.09,.2,.35,.25,.04,.43-.52,.3,.01,1.18-.09,1.68-.3,.63-.28,1.53,.09,1.82,.54,.42,.66,1.14,.66,2.32,0,.67,.23,.82,.46,.81,.47-.01,.49,.78,.49,1.61-.53,.14-1.11-.03-1.62-.24-.53-.22-1.08,.64-1.59-.51-.49-.5-.7-2.08-1.32-2.21-.14-.03-.27-.26-.39,.05-.12,.3-.25,.62-.06,1.09,.27,.66,.25,1.22,.06,1.86-.25,.81-.11,1.86-.08,2.81,.03,.86,.38,.93,.63,1.29,.3,.42-.32,.73-.04,1.34,.31,.66,.33,1.23,.11,2-.08,.27,.17,.66,.33,.89,.03,.44,.03,.9,.1,1.3,.11,.62,.1,.89-.18,.64-.16-.14-.28-.12-.35,.22-.09,.42,.07,.67,.17,.9,.24,.57,.48,1.08,.82,1.37,.56,.49,.6,1.05,.22,2.11-.07,.18-.17,.28-.23,.47-.33,.95-.2,3.53,.25,3.8,.62,.36,.51,1.28,.56,2.16,.22-.39,.24-1.12,.37-1.65,.07-.28,.3-.4,.3-.04,0,1,.27,.65,.43,.79,.14,.12,.28,.14,.42,.21-.08,.25-.15,.55-.25,.75-.39,.75-.47,2.21-.95,2.72,.17,1.18-.21,1.79-.33,2.67-.16,.33-.53,.22-.46,1.04,.11,1.16-.26,2.44,.29,3.48,.26,.5,.31,.88,.11,1.47-.03,.1-.59,1.89,.31,1.23,.23-.17,.37,.73,.67,.76,.21,.02,.24,.56-.02,.72-.29,.17-.27,.62-.07,1.17,.13,.35,.25,.6,.14,1.15-.07,.33-.12,.67-.15,1.01l-.05,.52c-.01,.14-.02,.41-.01,.68,0,1.07,.09,2.21,.22,3.39,.14,1.21-.02,1.42-.22,1.66l.06,.82c.41-.32,.72-.86,.68-2.93-.02-1.2,.5-1.75,.26-3.35-.03-.24,.14-.28,.25-.22,.11,.06,.21,.25,.17,.67-.06,.61-.06,1.3,.07,1.92,.11,.56,.25,1.03,.38,1.51-.22,.25-.43,.52-.65,.79l.05,.73c.35,1.25,.34,1.33-.04,2.41,.01,.05,0,.15,.03,.17l.18-.04,.36-.09,.72-.18c.53-.36,1.32-.59,2.07-.83,.75-.24,1.46-.5,1.68-.88,.13-.21,.64-.46,1.23-.56,.79-.14,.79,.08,.81,.3,.02,.2,.06,.41-.7,.72,.03,.23-.59,.55-.9,.83-1.04,.91-.72,1.23,2.06,.75,.28-.05,.61-.13,.98-.22,.24-.05,.46-.1,.68-.16,.43-.12,.79-.25,.84-.36,.3-.73,1.32-.59,1.98-.82,.75-.26,1.96-.47,2.16-.85,.35-.7,.86-.51,1.45-.58,.4-.04,.83-.13,1.26-.23,.48-.11,.57-.24,.41-.38-.31-.27,.19-.67,.93-.94,.79-.29,1.76-1.09,2.41-.69,.71-.06,1.46-.36,2.12-.74,.87-.48,.81-.28,.67,.04-.05,.13-.01,.23,.02,.33,.14,.4,1.05-.06,1.64-.24,.7-.21,.42-.4,.48-.58,.05-.16,.1-.46,.38-.47,.84-.02,1.37-.84,2.05-.91,.45-.05,1.12-.28,1.17,.05,.02,.11-.02,.37,.51,.07,.33-.19,.55-.48,.4-.55-.5-.23,.02-.47,.71-.66,.27-.07,.69-.03,.63,.06-.54,.89,.72,.17,.92-.09,.54-.66,1.13-.9,1.86-1.13,1.08-.34,1.63-.74,1.5-1.26-.05-.19,.14-.45,.64-.76,.4-.25,.56-.2,.71-.12,.4,.2,.85-.27,.8-.49-.06-.26-.14-.32,.48-.5,.26-.08,.58,.02,.76-.22,.79-.98,1.84-2.11,2.64-3.15,.32-.42,.32-.77,1.03-1.11,.61-.29,.95-.29,.77,.19-.12,.31,0,.44,.52,.1,.84-.58,1.43-1.42,2.28-2.02,.15-.1,.15-.34-.06-.29-.11,.03-.28,.13-.4,.17-.57,.18-.65-.13-.28-.6,.46-.6,.41-.07,.7-.2,.42-.2,.32-.34,.29-.41-.24-.48,.81-.88,1.1-1.37,.48-.75-.3-.85,.16-1.26,1.03-.91,.83-1.09,.7-1.42-.04-.1,0-.31,.27-.52,.22-.17,.4-.18,.37-.01-.15,.64,.25,.62,.98,.04,.14,.48,1.03,.24,.55,1.36-.15,.3,.36,.11,.73-.29,.51-.5,.96-1.1,1.12-1.55,.29-.79,.64-1.6,1.05-2.43,.36-.88,.77-1.77,1.22-2.69,.03-.05,0-.09,0-.14-.25,.28-.52,.49-.62,.4-.15-.14,.21-.53,.39-.77,.51-.7,1.06-1.17,1.52-1.49-.17,.56-.52,1-.94,1.38,.22,.1,.2,.68,.98-.45,.3-.44,.6-.87,.8-1.4,.32-.91,.65-1.78,1.41-2.6,.3-.29,.47-.93,.33-1.09-.15-.16-.49,.26-.66,.66-.5,1.27-.83,1.4-1.22,1.2-.21-.1-.64,.23-.8,0,.33-.62,.65-1.32,0-.85-.87,.62-.88-.88-2.04,.5-.01,.02-.08-.22-.12-.36-.08-.34,.15-1.15-.4-.81-.58,.35-.73,.97-.86,1.57-.01,.07-.05,.16-.09,.23-.41,.63-.96,.47-1.25,1.1-.23,.48,.44,.36,.02,1.16-.04,.07-.06,.16-.11,.22-.67,.85-.7,1.55-.99,2.23-.36,.93-.5,1.06-1.02,.89-.49-.16-1.41,.7-1.99,.77-.13,.02-.24,.34-.33,.54-.13,.26-.34,.62-.52,.76-1.1,.82-1.23,1.37-1.09,1.88,.04,.15,.05,.39-.34,.56-.56,.25-.94,.61-1.51,1.16-.48,.49-.29,.07-.22-.11,.08-.25,.41-.71-.08-.51-.49,.21-.46,.52-.61,.79-.17,.31-.43,.43-.72,.6-.63,.36-1.15,.82-1.65,1.27-.51,.44-.95,.92-1.35,1.39-.43,.51-.85,.91-1.39,1.36-.74,.62-1.45,1.19-2.32,1.34-.8,.13-1.36,1.17-2.07,1.33-.85,.14-1,.38-1.28,.87-.34,.59-1.71,1.53-2.39,1.86-.45,.21-.33-.54-1.11,.3-.39,.41-.88,.04-1.47,.55-.59,.51-1.05,.17-1.51,.51-.61,.45-.15,.62-.29,.97-.01,.04-.1,.09-.13,.12-.32,.44-.31,.45,.46,.39-.09,.16,.09,.36-.33,.45-.71,.15-1.33,.17-2.09,.69-.36,.25-.78,.29-.79,.17-.06-.46-.94-.22-1.54,.04-1.34,.52-2.51,0-3.91,1.15-.04,.03-.45,.08-.6,.05-.44-.08-1.01,.08-1.61,.28-.67,.23-1.28,.39-1.93,.43-.91,.06-2.51,.84-2.25,1.12,.64,.72-.81,.95-1.87,1.32-.65,.22-1.23,.55-1.82,.65,.08-.53-.27-.78-1.18-.6-.54,.11-1.03,.18-1.1-.16-.06-.36-.47-.09-.82,.3-.1,.12-.22,.24-.34,.35-.08,.05-.15,.07-.21,.07-.13,0-.25-.09-.37-.26-.12-.18-.04-.54,.05-.81,.08-.26,.16-.48,.33-.41,.26,.09,.48-.11,.51-.27,.1-.52-.19-.27-.28-.28-.28-.01-.43-.41-.61-.79-.14-.29-.27-.62-.43-.92-.19-.35-.64,0-.63-.7,.02-1.09,.58,.32,.77-.46,.05-.2,.3,0,.39-.17,.42-.89-.44-1.58-.23-2.56,.06-.28-.17-.54-.31-.53-.06,0-.13,.11-.16,.24-.05,.21-.07,.46-.09,.71-.04,.53-.21,.67-.39,.5-.24-.22-.13-.81-.14-1.15-.05-.89,.31-1.4,.32-2.32,.02-1.52,.21-2.02,.76-1.57,.37,.3,.68-.15,1.03,.22,.02,.02,.11-.36,.12-.59,0-.24-.08-.62-.18-.5-.32,.37-.61-.03-.92-.37-.05,.33-.15,.43-.29,.52-.63,.43-1.22,.63-1.54-1.61-.04-.29-.22-.56-.36-.32-.09,.14-.14,.41-.08,.67,.18,.7,.18,1.39,.16,2.1-.03,.73-.26,.67-.47,.61-.3-.09-.2-.56-.17-.96,.1-1.24-.23-1.8-.63-2.26-.19-.21-.25-.55-.01-.54,.51,0,.52-.76,.48-1.75-.03-.88,.04-1.77-.04-2.62-.1-1.04,.14-1.08,.39-.96,.28,.13,.55,.44,.82,.72,.16,.17,.2,.49,.12,.87-.09,.45-.07,.87,.16,1.06,.17,.14,.4,.3,.5-.07,.21-.74,.44-1.56,.3-2.59-.1-.72-.13-1.97-.7-1.34-.1,.12-.48-.35-.43-.98,.05-.6,.31,.08,.45-.03,.38-.32,.69-.27,1.07,.58,.25,.55,.29-.26,.3-.78,.45-.02,.69-.87,1.01-1.41,.51-.88,.55-1.03,.12-2.27-.2-.58-.51-1.25-.43-1.82,.1-.76-.6-.78-.21-1.5,.36-.67-.32-.94-.17-1.62,.05-.25,.01-.69,.11-.94,.39-.95,.32-1.91-.1-2.94-.07-.17-.12-.48-.12-.71,0-1.98,0-2.02-.75-2.94-.07-.08-.13-.15-.2-.25-.27-.39-.22-.84-.11-1.34,.2-.91,.22,.22,.34,.29,.15,.1,.28,.23,.38-.06,.13-.36,0-.61-.11-.86-.28-.56-.19-.88,.07-1.05,.13-.08,.29-.03,.41-.15,.35-.35,.33-.87-.08-1.55-.13-.22-.31-.4-.17-.73,.39-.87-.26-1.34-.19-2.14,.04-.47-.26-.41-.36-.63-.26-.57,.29-.78,.12-1.16-.41-.88,.02-.94,.11-1.33,.21-.96,.18-1.06-.39-1.3-.14-.06-.23-.44-.28-.79,.18-.21,.36-.4,.53-.62,.12-.15,.24-.39,.18-.77-.02-.15-.2-.3-.28-.28-.41,.1-.41-.42-.28-1.07,.07-.38,.2-.68,.29-1.04,.16-.65,.15-.66-.25-1.31-.11-.17-.15-.41-.13-.65,.03-.33,.1-.62,.15-.93,.21-1.28,.09-1.8-.44-1.93-.32-.08-.64-.13-.96-.34-.14-.09-.23-.54,.04-.53,.29,0,.24-.54,.17-.9-.09-.48-.36-.95-.35-1.33,.02-.58-.5-1.4,.05-1.78,.39-.26,.24-1.27,.11-1.81-.22-.95-.64-1.8,.09-2.19,.03-.02,.07-.35,.04-.43-.41-1.41-.03-2.36,.18-3.38,.16-.79-.05-1.09-.27-1.41,.16-.71,.2-1.43-.07-2.16,.09-.03,.16-.08,.13-.34-.01-.09-.09-.15-.14-.23-.18-1-.43,.02-.63-.31-.21-.35-.39-.87-.66-.89-.1,0-.21-.07-.32-.06-.1,0-.25,.27-.21,.37,.49,1.14-.12,1.82-.06,2.77Zm54.48,45.41c.13-.2,.29-.37,.44-.55-.03,.47-.02,.91-.18,1.4-.04,.14-.4,.27-.57,.29-.31-.14-.13-.57,.31-1.14Zm-1.62,5.18c-.11-.21-.14-.46,.24-.96,.21-.29,.48-.39,.56-.27,.17,.27-.29,.77-.59,1.13-.05,.06-.1,.12-.15,.18-.02-.02-.04-.04-.06-.07Zm-3.76,4.02l.22-.06-.3,.48s-.12,.05-.13,.03c-.07-.08,0-.24,.21-.45Zm-32.94,20.61c.37-.19,1.12-.42,1.39-.39,.5,.05-.19,.44-.39,.68-.14,.17,.48,.29-.4,.49-.64,.15-.96-.18-1.97,.45l-.12-.23c.49-.34,.92-.7,1.49-1Zm-3.63,1.4c.39,.03,.69,.14,.93,.26,.28,.14-.3,.28-.53,.4-.7,.38-.53,.02-.72-.03,.07-.03,.15-.07,.21-.1,.03-.02,.03-.05,.04-.08l-.25,.18c-.36,.03-.49-.07-.47-.22,.03-.22,.31-.44,.8-.4Zm-2.71,.56c.15-.05,.46,0,.5,.08,.16,.27,.23,.57,.34,.87l-.5,.14c-.05-.3,0-.64-.49-.8-.14-.05-.16-.19,.14-.28Zm-5.34-.98c.13-.03,.22,0,.33-.01l-.95,.57-.13,.07s-.03-.03-.05-.04l-.09-.1-.17-.22,.16-.41c.15-.12,.27-.14,.37-.05,.05,.05,.09,.12,.12,.23,.01,.02,0,.08,.03,.07l.12-.04,.25-.07Zm-2.74-8.57c.28,.91,.22,1.63-.08,2.19l-.21-2c0-.11,.07-.29,.12-.34,.04-.04,.14,.05,.17,.15Zm-.55-16.35c-.09-.1-.24-.39-.23-.47,.05-.45,.19-.18,.3-.05,.11,.13,.22,.3,.35,.48-.16,.26-.3,.19-.42,.05Zm2.09-.39c-.14,.24-.24,.02-.31-.35,.11-.04,.19-.47,.33-.08,.03,.07,.01,.38-.02,.44Zm-.26-2.24c-.06,.03-.13,.13-.18,.07-.05-.06-.12-.29-.11-.41,0-.24,.08-.26,.15-.07l.14,.41Zm-3.05-1.01c-.08,.39-.07,1.05-.36,.84-.04-.03-.06-.28-.09-.43,.06-.47,.12-.96,.39-.82,.08,.04,.1,.24,.07,.41Zm.86-1.71c.05,.62-.17,.59-.37,.64-.27-.02-.52-.33-.73-.89,.21-.31,.41-.8,.65-.86,.16-.04,.41,.51,.46,1.1Zm.82-1.98c-.06,0-.13,0-.19-.03-.16-.08-.36-.03-.42-.6-.02-.21,.05-.28,.13-.23,.2,.14,.49-.05,.48,.86Zm2.82-2.86c-.12,.22-.18,.36-.26,.46-.07,.1-.17,.28-.23-.07-.05-.29,.04-.46,.14-.48,.09-.02,.19,.05,.35,.1Zm-4.3-7.56c-.11,1.32,.23,1.27,.57,1.24,.11,0,.11,.04,0,.55-.02,.07-.07,.1-.07,.16-.02,.61,.51,.17,.32,.82-.17,.55-.15,.86,.02,1.32,.19,.52,.32,1.05,.25,1.72-.02,1.34-.16,1.58-.6,.99-.29-.39-.61-.73-.66-1.74-.02-.5-.14-.52-.3-.35-.12,.13-.35-.1-.16-.37,.42-.59,.29-1.56,.31-2.46l.05-1.85c0-.13,.08-.28,.14-.29,.05-.01,.17,.19,.16,.23Zm3.3-.99c-.06,.03-.13,.07-.19,.1-.09,.03-.18,.06-.27,.08,.06-.14,.12-.33,.2-.37,.08-.04,.18,.12,.26,.19Zm-.71-6.26c-.06,.18-.15,.34-.16,.54-.12,1.77-.29,.38-.45-.06,.16-.17,.15-.34-.02-.53,.19-.61,.39-.84,.63,.05Zm-.93-.92c-.17,.88,.09,.8,.29,.88l.02,.52c-.38-.07-.73-.25-.66-1.57,.01-.25,.07-.52,.21-.42,.11,.08,.2,.32,.15,.59Zm-2.86-13.07c-.05,.3-.26,.53-.42,.55-.31,.04-.12-.62-.18-.94-.26-1.37,.1-.67,.3-.49,.05,.42,.36,.48,.29,.88Z"/><path class="cls-2" d="M205.28,194.17c.16,.14,.35,0,.57-.34,.3-.51,.53-.45,.33,.33-.28,1.05,0,1.26,.06,1.85,.07,.69,.17,.51,.44-.03,.14-.3,.3-.56,.46-.83,0-.03,.38-.74,.66-1.47,.15-.36,.29-.73,.4-1,.11-.28,.18-.47,.18-.47-.03-.19-.05-.43-.11-.54-.09-.16-.21-1.78-.18-2.08,.07-.67,.41-1.11,.36-1.82-.03-.41,.08-.53,.19-.45,.57,.43,.45-.58,.35-1.11-.11-.49-.25-.77,.05-1.2,.24-.77,.55-1.54,.12-2.33,.13-.84,.53-1.5,.36-2.58-.04-.26-.06-.63-.13-.74-.42-.64-.37-1.81-.54-2.76,.61-.5,.59-.48,.3-2.03-.23-1.2-.75-1.22-.98-2.57-.23-1.28-.37-1.83,.06-1.75,.6,.1,.37-.53,.21-1.42-.41-2.75-1.01-5.47-1.61-8.18-.52-2.26-.88-2.98-1.83-3.06-.47-.04-.6-.83-.87-1.34-.15-.29-.34-.63-.3-.94,.06-.53,.36-.38,.68-.11,.04,.03,.09,.12,.13,.14,.52,.36,.74-.16,.45-1.22-.14-.49-.37-.99-.56-1.48-.34-.86-.5-.61-.58-.33-.08,.31,.17,1.15-.21,1.04-.2-.44-.62-.89-.54-1.31,.11-.67-.39-1.2-.56-1.77l-.41,.08-.2-.5c.12-.24,.16-.57,0-1.12,.34-.49,.34-.5-.22-1.38-.61-.9-.68-1.23-.44-1.9,.04-.11,.38-.08-.02-.51-.75-.79-.94-1.48-1.12-2.41-.15-.81-1.14-2.16-1.55-2.3-.07-.04-1.51-1.3-1.58-1.25-.49,.26-1.12-1.41-1.72-1.49-.16-.03-.94-1.36-.7-.19,.01,.07-.15,.08-.19,.03-.54-.68-1.13-1.34-1.6-2.03-.32-.48,.11-.45,.27-.57,.16-.11,.18-.33-.03-.77-.37-.78-.12-1.04-.24-1.59-.09-.44-.89-1.19-.6-1.51,.35-.39-.57-.99-.93-1.47-.57-.78-.64-.39-.81-.32-.17,.07-.26,.24-.38,.37,.41,.65,.43,1.02,.18,1.19,.19,.18,.52,.46,.53,.51,.13,.83-.26,1.12-.59,1.47-.33,.35-.7-.66-1.03-.77-.16-.06-.39-.19-.47-.15-.26,.12-.56,.05-1.08-.54-.16-.18-.27-.19-.19-.03,.1,.19,.37,.53,.34,.58-.13,.21-.33-.26-.51-.4-.18-.15-.45-.46-.53-.45-.19,.02-.04,.3,.09,.57,.29,.53,.78,1.09,1.06,1.53,.5,.77,.48,1.23,.89,.69,.21-.29,.66-.01,.85,.85,.08,.37,.5,.61,.77,.79,.26,.17,.44,.06,.76,.41,.23,.11,.34,.24,.31,.44,.34,.72-.17,.62-.07,1.13,.12,.69,.86,1.12,.96,1.63,.23,1.2,.64,1.04,.98,1.06,.26,.01,.31-.54,.8,.16,.39,.57,.21,.92,.32,1.39,.09,.37,0,.56-.1,.74-.22,.39,.02,1.54,.24,1.84,.55,.74,.73,1.4,.98,2.12,.04,.1,.2,.3,.27,.34,.48,.25,.79,.11,.94-.35-.88-.96-.23-.93-.28-1.36-.22-.36-.58-.81-.63-1.04-.12-.57,.26-.06,.5,.11,.24,.19,.68,.43,.68,.39-.18-.96,.32-.74,.65-.83,.04-.01,.01-.23-.03-.36-.04-.17-.14-.27-.25-.29-.28-.06-.44,.3-.91-.45-.45-.72-.16-.91-.23-1.37-.06-.37-.26-.75-.42-1.14-.05-.12-.04-.26,0-.31,.01-.02,.21,.15,.24,.22,.35,.75,.8,1.37,1.25,1.99,.45,.62,.93,1.24,1.24,2.02,.37,.91,.84,1.73,.08,1.48-.14-.05-.12,.31-.01,.46,.65,.91,.92,2.69,1.85,2.93,.18,.05,.42,.27,.45,.65,.15,1.38,.5,2.68,1.38,3.97,.1,.15,.14,.27,.06,.35-.18,.19-.47-.13-.74-.33-.4-.29-.3-.64-.32-.96,0-.19-.06-.35-.14-.39-.07-.03-.15-.01-.19,.05-.09,.17-.08,.48,.03,.82,.21,.67,.38,1.42,.64,2.01,.32,.71-.18,1.04,.44,1.84,.27,.37,.07,.85,0,1.16-.11,.45-.41-.13-.64-.27-.39-.26-.57-1.63-.99-1.46-.51,.21,.37,1.43,.19,2.04-.15,.57,.11,1.26,.56,1.24,.46-.03,.5,.34,.58,1.21,.11,1.04,.58,2.01,1.07,2.25,.37,.17,.6,.95,.87,1.12,.3,.2,.38,.36,.25,.73-.07,.19-.17,.68-.42,.06-.09-.21-.15-.52-.25-.7-.12-.23-.27-.04-.22,.08,.3,.72,.19,1.03,.04,1.46-.17,.5-.29,.84-.66-.02-.07-.16-.2,.01-.12,.37,.13,.54,0,.74-.1,.99-.06,.15-.16,.25-.03,.56,.13,.29,.28,.55,.42,.42,.3-.27,.57-.6,.87-.86,.07-.06,.22,0,.32,.14,.13,.18,.12,.45,.07,.65-.22,.87-.18,1.13,.33,.91,.48-.21,.51-.09,.57,1.27,.43,1.49,.63,3.06,.49,4.53-.05,.55-.32,.99-.37,1.63-.07,1.06,.55,.61,.63,1.52,.02,.29,.16,.56,.23,.84,.18,.24,.62-.4,.45,1.06-.07,.6,.2,1.45,.26,2.19,.02,.18,.16,.06,.1,.51-.17,1.46-.16,1.51,.28,1.52,.13,0,.3-.22,.36,.18,.05,.36-.08,.67-.18,.95-.1,.28-.18,.6-.34,.68-.1,.05-.2,.18-.3,.27,.07,.12,.14,.33,.22,.34,.43,.04,.89,.99,1.33-.62,.05-.17,.18,.11,.2,.38,.07,1.42-.79,1.22-.82,2.51,0,.12-.18,.39-.28,.42-.1,.03-.24-.08-.25-.24-.1-1.58-.64-1.54-1.16-1.62-.27-.04-.26-.53-.22-1.07-.56,1.91-.51,2.66,.21,2.64,.1,0,.22-.24,.29,0,.23,.9-.7,2.65-.03,3.22-.1,.2-.19,.41-.3,.58-.15,.24-.3,.44-.44,.69-.11,.19-.19,.49-.16,.69,.02,.18,.1,.31,.18,.38Zm-14.75-60.74c0-.08-.05-.23,0-.23,.12,0,.29,.13,.43,.37,.03,.06,.07,.16,.05,.17-.12,.02-.29-.1-.47-.3Zm12.82,20.37c-.03-.07,.07-.25,.14-.31,.07-.07,.18-.08,.27-.11,.09,.38,.28,.88,.06,.95-.13,.04-.33-.16-.46-.52Zm-.12,7.29c-.11-.15-.14-.33-.05-.37,.05-.02,.16,.08,.21,.19,.05,.11,.05,.29,.08,.44-.08-.09-.16-.16-.23-.27Zm1.64,1.62c-.18,.11-.33,.57-.58-.22-.18-.6-.3-1.2-.1-1.56,.09-.16,.12-.44,.2-.63,.21-.5,.48-.27,.68,.76,.11,.51,.11,.89,.35,1.28,0,.01-.01,.29-.05,.39-.11,.3-.32,.13-.51-.02Zm.18,2.78c-.05-.31,.07-.28,.15-.27,.06,0,.14,.14,.2,.21l-.15,.18c-.07-.04-.2-.08-.2-.12Zm1.75,6.12c.3,0,.56,.29,.73,1.07-.3,0-.62,.14-.73-1.07Zm.78,1.57c-.02-.15-.02-.32-.03-.47,.1,.07,.23,.08,.27,.24,.13,.43,.04,.94-.08,.99-.15,.06-.13-.47-.17-.75Zm-1.67,1.7c.04-.33,.12-.58,.3-.43,.05,.04,.09,.24,.14,.37-.02,.45-.17,.4-.31,.36-.09-.03-.15-.14-.13-.3Zm2.7,.89c0-.16,.03-.43,.05-.43,.12,0,.12,.3,.14,.51,.02,.24,0,.48,.01,.72-.14-.16-.2-.45-.2-.79Zm-1.44,2.02c0-.07,0-.15,0-.23l.2,.02c.03,.63,.47,.88,.25,1.69-.02,.06-.06,.15-.08,.13-.27-.34-.29-.99-.37-1.62Zm1.26,1.94l-.07-.71c.1-.03,.2-.12,.29-.09,.28,.1,.25,1.08,.63,1.07-.17,.29-.21,.42-.27,.43-.24,.05-.49,.11-.59-.7Zm-.8,2.57s.12-.21,.16-.16c.14,.17,.14,.53,.1,.89-.03,.22-.08,.29-.17,.17-.03-.25-.06-.57-.09-.89Zm-.94,10.7c.1-.28,.16-.88,.32-.71,.2,.2,.29,.71,.14,1.42-.1,.49-.36,.76-.54,.78-.17,.02-.16-.32-.08-.71,.05-.26,.1-.53,.15-.78Z"/><path class="cls-2" d="M175.34,121.39c.85-.46,1.79-.34,3.44,.71l1.42-1.67c.06-.07,.12-.18-.14-.38-.12-.09-.32-.18-.45-.21-.43-.12-.85-.17-1.28-.27-.43-.09-.55,.35-1.2-.24-.31-.28,.45-.14,.65-.26,.16-.1,.57-.02,.74-.11,.24-.14,1.39,.55,1.06,.01-.12-.2-.97-.63-1.48-1.02-.59-.46-1.14-.6-.72,0,.21,.3-.14,.21-.32,.25-.24,.05-.52,.11-.95-.15-.24-.15-.41-.39-.3-.53,.2-.23-.39-.42-.72-.62-.32-.2-.37,.13-.94-.34-.73-.6-2.83-1.02-2.67-.54,.23,.7-.72,.39-1.21,.49,.08,.13,.21,.28,.22,.37,0,.09-.18,.02-.2-.05-.04-.12-.03-.22-.04-.33-.76-.54-.96-.32-1.25-.23-.49,.15-.99,.02-1.89-.64-1.24-.9-1.29-.87-2.51-2.1-.16-.16-.44-.34-.32-.42,.14-.1,.37,.16,.57,.25,.96,.46,1.87,1.01,2.79,1.56,.56,.34,1.33,.88,.74-.01-.12-.19-1.17-1.71,1.07-.31,.1,.06,.42-.02,.54-.1,.32-.2,1.52,.18,1.32-.24-.19-.39-1.33-.89-1.99-1.45-.76-.65-2.77-1.16-3.06-.83-.38,.45-1.02,.63-2.17,.43-.34-.06-.38,.37-.93-.08-.3-.25,.36-.2,.51-.35,.14-.14,.35-.3,.69-.25,.53,.09,.31-.05-.04-.29-.36-.24-.89-.53-.87-.75,.06-.66-.73-.95-1.53-1.07-.74-.1-1.13-.26-1.46-.82-.46-.75-1.01-.45-1.51-.63,.04,.13,.16,.3,.1,.37-.18,.2-.74,.22-.11,.76,.77,.67,1.04,.24,1.6,.48l.48,.22c.24-.04,.38,.07,.47,.27,1.41,1.24,1.43,1.28,.31,1.26-.6-.01-1.12,0-1.27,.35-.23,.51-.35,.46-1.78-.46l.21-.37c-.26-.22-.33-.39-.06-.4,.34-.01,.62-.08,.17-.4-.73-.52-1.31-.97-1.18-1.38,.14-.47-1.48-1.06-1.56-1.52-.06-.32-.2-.46-.9-.63-.32-.07-.75-.26-1.01-.41-.65-.39-.02-.16,.23-.1,.21,.05,.61,.24,.39-.03-.34-.42-2.67-1.37-2.86-1.14-.47,.51-1.38-.04-2.23-.25l-1.48-.41-1.53-.38c-1.53-.37-2.09-.25-1.61,.24,.27,.31-.15,.31-.78,.17-.82-.17-1.66-.27-2.44-.68-.62-.34-1.93-.6-2.27-1.04-.15-.21-.58-.37-1.1-.49l-.4-.09c-.13-.02-.33-.11-.28,.08v.76c-.01,1.05,.26,1.29,.48,1.55,.11,.13,.22,.25,.31,.46,.05,.11,.14,.5,.13,.59-.05,.45-.18-.1-.26-.1-.38,.02-.47,1.16-.14,1.77,.64,1.17,.29,1.52,.05,2.04-.26,.5-.56,.88,.03,1.6,.37,.35,.51,.93,.48,1.89-.01,.53,.03,1.08,.06,1.61,.01,.26,.05,.75,.07,.75,.19,.03,.08-.53,.16-.68,.27-.5,.47-1.07,.63-1.89,.15-.77,.63-.66,1-.58,.31,1.12,.65,2.22,.33,3.6-.03,.11,0,.37,.04,.5,.06,.21,.14,.39,.23,.55,0,.02,.11-.18,.12-.3,.07-1.07,.21-2.04,.59-2.61,.12,.65,.22,1.32,.36,1.94,.04,.16,.19,.19,.29,.21,.1,.02,.12-.12,.08-.3l.37-2.26c.11-.53,.14,.03,.18,.15,.07,.21,.12,.47,.18,.7,.05,.19,.06,.56,.19,.32,.04-.07,.04-.34,.02-.49-.11-.86-.28-1.68-.23-2.62,.03-.47,.09-.53,.27-.34,.29,.3,.44,.45,.5,.33,.07-.06,.05-.74,.07-.75,.01-.13,.09-.24,.17-.3,.12-.07-.05-.26-.16-.49-.08-.16-.44-.55-.43-.56,.11-.03,.37,.36,.54,.49,.07,.06,.12,.1,.15,.1,.04,.02,.07,.03,.06-.01-.03-.11-.03-.23-.05-.39-.03-.26,.15-.12,.31,.12,.07,.1,.14,.16,.17,.1,.04-.09,0-.25-.03-.4-.03-.15-.08-.31-.24-.27-.16,.04-.29,.03-.55-.24-.12-.13-.34-.29-.33-.43,.01-.1,.18-.04,.3,0,1.01,.38,.81,.33,1.45-.24,.03-.02,.06-.05,.08-.08,.06-.06,.12-.11,.24-.12,.14,0,.31,.02,.49,.06,.38,.1,.61,.28,.52,.41-.3,.42,.62,.6,1.2,.86,.75,.32,1.4,.5,1.98,.34,.74,.5,1.28,.57,1.79,.36,.08-.03,.24-.02,.36-.03,0,.11,.03,.22,.02,.32,0,.03-.05,.06-.09,.07-.18,.08-.36,.17,.09,.38,.28,.12,.68,.33,.7,.09,.01-.24,.4-.17,.72-.17,.31,0,.44,.05,.63,.31,.46,.67,.8,.81,1.44,.62,.23-.07,.4-.18,.62-.26,.23-.07,.49-.12,.97,.12,.55,.27,.84,.57,.88,.84,.03,.2-.1,.33-.16,.49-.28-.14-.57-.31-.8-.25-.49,.14-.25,.61-.37,.92-.04,.11-.44,.08,0,.35,.16,.09,.5,.19,.62,.18,.44-.07,.89,0,1.51,.47,.44-.39,.87,.32,1.31,.58,.29,.16,.62,.33,.91,.44,.28,.11,.54,.14,.81,.2-.21-.15-.4-.31-.62-.44-.8-.47-1.22-.81-1.03-1.2,.19-.38,.65-.29,1.5,.22,.63,.38,.93,.14,1.49,.4,.39,.18,.66-.17,1.11,.44,.24,.34-.08,.29-.5,.19-.87-.21-.79,.29-.93,.59-.15,.3,.55,.79,1.04,1.21,.24-.03,.39,.07,.45,.28,.14,.04,.38,.14,.4,.1,.2-.34,.2-.33,1.3,.01,.18,.06,.23-.12,.42-.08,.79,.19,1.54,.13,2.49,1-.56-.01-.97,.06-.76,.56,.05,.12,.08,.47-.3,.09-1.04-1.05-1.2-.53-1.68-.55,.67,.49,1.37,1.16,2.13,1.2,.81,.04,.79,.33,.98,.65,.09,.15,.25,.35,.53,.41,.2,.05,.5,.08,.49,0-.26-1.09,1.23-.65,2.57-.37,1.08,.23,1.07,.2,1.81,1.09Zm2.96-.75c.24,.11,.33,.28,.35,.45-.13-.02-.28,0-.46-.07-.35-.13-.33-.28-.26-.34,.06-.06,.24-.11,.37-.05Zm-38.4-14.8c.01-.34-.06-.88,.11-.86,.13,.04,.57,1.51,.59,2,.03,.76-.27,.65-.41,.58-.41-.2-.23-1.11-.29-1.72Zm.49,5.02c-.03-.31,.03-.47,.13-.53,.04,.1,.13,.24,.13,.28-.02,.15-.06,.28-.1,.38-.07,.15-.13,.1-.15-.13Zm.88-1.35c.22,.28,.44,.52,.65,.73-.13,.14-.21,.4-.3,.67-.1,.29-.21,.53-.41,.48,0-.36-.08-.71-.11-1.04-.04-.34-.05-.68,.08-.96l.1,.12Zm-.3-.13c-.31,.04-.59,.71-.95-.17,.3-.33,.57-.7,.89-.75,.22-.03,.25,.53,.26,.93-.07,0-.14-.02-.2,0Zm2.36-.81c.05,.23,.4,.44,.09,.55-.31,.12-.52,.42-.95-.29,0-.17,0-.33-.01-.51-.04-.3-.31-1.01,.05-.73,.24,.14,.6,.01,.83,.97Zm-.41-1.21c-.22-.14-.43-.3-.6-.44-.13-.09-.26-.2-.39-.3-.27-.2-.53-.39-.74-.18-.08,.08-.38-.29-.4-.92-.17-.53,.5-.16,.57-.03,.37,.52,1.23,.98,1.79,1.45,.22,.18,.32,.4,.09,.46-.23-.2-.33-.2-.31-.05Zm5.87,.4c-.52-.24-.86-.51-.79-.78,.08-.32,.42-.52,1.1-.56,.23-.01,.5,.12,.55,.25,.15,.42-.44,.67-.1,1.11-.12,.19-.47,.11-.76-.03Zm1.29-2.19c.06-.02,.32,.03,.47,.08,.25,.08,.55,.21,.38,.3-.22,.12,.08,.35,.08,.51l-.89-.22c-.02-.23-.43-.54-.04-.68Zm2.17,1.27c-.31,.06-.89,.05-1.2-.37,.33,.04,.55,.01,.65-.1,.17-.21,.61-.15,1.14,.06-.18,.14-.28,.35-.59,.4Zm.63-.42c-.03-.07-.06-.14-.11-.22-.17-.26-.33-.54,.17-.53,.25,0,.03-.05,.11,.1,.15,.27,.83,.76-.17,.65Zm5.53,6.6c-.03-.11,.02-.19,.04-.29,.19,.15,.3,.28,.23,.36-.06,.07-.25,0-.27-.08Zm13.86,6.47c-.26-.14-.5-.41-.7-.62-.17-.18-.05-.25,.15-.24,.5,.03,1.19,.25,1.48,.07,.26-.16,.55-.06,1.11,.27,.82,.5,.12,.44,.3,.66-.24,.27-1.71,.19-2.34-.15Z"/><path class="cls-2" d="M142.44,119.05c-.03,.67,.02,1.51-.12,1.94-.1,.32-.44,.13-.68,.15,.09-2.08,.02-2.23-.69-1.64-.1,.44-.25,.6-.41,.2-.23-.6-.38-.58-.58-.02-.09,.23-.3,.15-.47,.19l.41-1.39c.04-.13,.1-.35,.09-.42-.07-.29-.18-.22-.27-.1-.24,.29-.5,.56-.73,.91-.21,.32-.16,.92-.11,1.44,.05,.56,.16,1.04,.44,.88,.14-.08,.3-.14,.33,.32,.03,.46-.14,.5-.28,.55-.3,.11-.03,.94-.22,1.24-.19,.31-.36,.74-.53,1.12,.24,.59,.45-.08,.68,.04,.16,.09,.38,.17,.41,.71,.05,1.06,.34,.58,.53,.72-.09,.7-.51,1.23-.05,2.21,.17,.37,.11,1.01,.15,1.55,.1,1.38,.63,2.35,1.18,2.19,.09-.02,.18-.24,.23-.44,.09-.31-.04-.55-.12-.58-.25-.11-.34-.97-.65-.86-.24,.08-.27-.59-.29-.94-.02-.47,.19-.42,.31-.36,.5,.22,.87-.33,1.22-.98,.2,.99,.52,1.65,.9,2.19,0-.25-.01-.51,0-.76,.02-.35,.05-.75,.24-.62,.07,.05,.13,.41,.16,.65,.03,.24,.03,.5,.04,.76l.39-.96c-.08,.84,.34,1.86,.1,2.35-.25,.54-.7,.52-1.07,.72-.1,.05-.21-.04-.32,0-.14,.05-.29,.22-.25,.64,.03,.32,.13,.69,.24,.87,.11,.19,.31,.36,.4,.23,.56-.8,.58,.45,.74,1.24,.08,.38,.04,.68,.04,1.03,0,.31,.11,.42,.22,.43,.11,0,.21-.09,.19-.42-.02-.35-.08-.71-.08-1.05,0-.28,.07-.49,.2-.44,.59,.26,.89,1.68,.6,2.84-.05,.22-.33,.09-.15,.62,.05,.13,.2,.06,.3,.05,.6-.04,.57-1.77,1-2.34,.33-.44,.26-.84-.23-1.34-.2-.2-.24-.31-.11-.69,.08-.24,.2-.45,.04-.86-.68-1.66-.39-3.01,.06-4.33,.33-.99,.3-1.26-.29-1.32-.59-.06-.6-1.38-.86-2.1-.18-.48,.2-.62,.24-1.11,.02-.27,.16-.46,.25-.68-.16-.22-.31-.58-.47-.62-.16-.05-.32,.19-.48,.32l-.21-1.52,.06-.38-.15,.18c-.07-.03-.2-.05-.2-.09-.05-.83,.06-1.67-.12-2.51-.08-.34,.04-.56,.13-.52,.24,.09,.57-.44,.67,.63,.07,.66,.24,.63,.4,.55,.23-.12,.34-.61,.33-1.15,0-.6-.22-.59-.4-.63-.23-.05-.45-.78-.69-.28-.28,.58-.49,.1-.75-.29-.39-.58-.75,.06-.76,1.27,0,.34,.04,.66-.11,.83Zm2.06,9.97c-.02,.18-.09,.13-.17,.07-.12-.1-.25-.14-.38-.2,.08-.4,.22-.55,.4-.4,.09,.08,.19,.24,.15,.54Zm-2.59-4.61c-.02,.25-.03,.69-.06,.69-.32,0-.51,.33-.51,1.18,0,.53,.02,1.12-.25,1.22-.36,.13-.36-.68-.47-1.21-.08-.38-.23-.36-.36-.41-.13-.62-.32-1.22-.09-1.88,.08-.22,.07-.7,.28-.47,.32,.35,.6,.27,.9-.04,.3-.31,.34,.75,.57,.92Z"/><path class="cls-2" d="M187.85,129.98c.23,.09,.51,.36,.74,.6,.42,.43,.88,1.13,1.23,1.22,.28,.08-.08-.69,.3-.68,.19,0,.16-.33,.22-.51-.38-.63-.43-1.03-.18-1.2-.46-.48-.75-.43-.99-.46-.54-.07-.37-1.15-.92-.88-.2,.1-.43,.14-.81-.02-.79-.35-1.59-1.01-2.34-1.78-.49-.52-1.01-.99-1.48-1.51-.36-.37-.58-.88-1.04-1.1-.76-.37,.04,.43-.18,.48-.11,.02-.33-.02-.52-.12-.36-.19-.74-.47-1.1-.64-.44-.23-.88-.33-.76,.05,.11,.41,.62,.73,1.02,.89,.6,.25,1.18,.37,1.74,.58,.27,.09,.51,.18,.75,.51,.2,.28,.26,.49,.17,.6-.06,.07-.24,.05-.37,.07-.46,.05-.6,.19,.37,.86,.54,.41,1.04,.93,.87,1.33-.13,.3,.37,.52,.66,.72,.28,.19,.53,.32,.52,.07,0-.14-.09-.35-.2-.53-.16-.3-.51-.73-.15-.68,.29,.04,.73,.44,.91,.78,.45,.79,.94,1.08,1.54,1.35Z"/><path class="cls-2" d="M141.62,137.9c.2,.95,.55,1.33,.9,1.77,.4,.49,.39,.54,.02,1.53-.07,.36-.13,.38-.21,0-.21,.15-.46,.52-.45-.56-.41,.31-.91,.08-1.24,.95l-.42-.04c-.15-.02-.32,.02-.36,.34-.05,.46,.09,.81,.25,1.1,.53,.93,.55,1.37,.1,2.28-.1,.2-.26,.24-.26,.66,0,.25,.02,.53,.07,.75,.06,.26,.18,.3,.27,.13,.11-.2,.22-.41,.29-.68,.51-1.99,1.27-2.61,2.23-2.17,.14,.06,.28,0,.42,.02,.47,.04,.47-.71,.4-1.59-.1-.13-.27,.04-.28-.42,0-.05,.16-.09,.26-.14-.12-.52,.38-1.51-.24-1.64-.09-.86,.27-.99,.36-1.56-.34-.09-.69,.12-1.01-.35-.38-.56-.74-.38-1.11-.36Z"/><path class="cls-2" d="M141.6,144.89c-.33,.47-.62,1-.6,2.13l1.17,3.83c.13-.54,.26-.58,.42,.04,.21,0,.41,.03,.61-.03,.09-.02,.2-.18,.15-.52-.02-.15-.08-.33-.14-.38-.1-.09-.21-.14-.31-.13-.34,.05-.52-.1-.37-1.14,.07-.5,.02-1.2-.25-1.57,.35-.93,.85-.26,1.27-.49,.09-.05,.13-.17,.08-.35-.03-.15-.11-.39-.13-.37-.51,.43-.92-.26-1.32-1.03-.2-.38-.39-.27-.58,0Z"/><path class="cls-2" d="M147.41,222.35c-.09,.03-.23,.21-.22,.33,.02,.39,.21,.75,.31,.69,.45-.32,.52,.32,.57,1.22,0,.19,.14,.38,.22,.58,.16-.84,.45-1.08,.83-.97,.3,.09,.34-.25,.22-.93-.06-.32-.04-.71-.09-1.05-.07-.62-.74-2.17-.92-2.09-.29,.13-.47,.56-.47,1.41,0,.65-.22,.75-.43,.83Z"/><path class="cls-2" d="M147.13,242.18c-.13,.16-.2,.36-.69,.49-.28,.07-.47,.08-.59,.05-.05-.03-.13,0-.11-.11,.03-.11,.06-.21,.09-.3-.17-.88-.38-1.41-.69-1.16-.15,.13-.31,.29-.46-.34-.21,.08-.41,.13-.32,1.5,.04,.57,.09,1.03,.17,1.42l.06,.28,.03,.13s0,.05,.02,.06l.09-.04,.71-.31c1.78-.82,.55,.02,.93-.02,.31-.03,.75-.15,1.14-.23,.08-.36,.82-.81,1.72-1.29,.7-.37,.73-.57-.25-.41l-1.85,.27Z"/><path class="cls-2" d="M141.21,163.29c.01-.08-.07-.35-.12-.41-.05-.06-.17,0-.18,.08-.09,1.2-.72,1.88-.4,3.32,.02,.7,0,1.25,.06,1.76,.08,.65,.28,1.14,.56,1.07,.26-.06,.27-.63,.27-1.19,.01-1.54-.42-3.08-.19-4.63Z"/><path class="cls-2" d="M200.54,150.65c-.27-.32-.51-.4-.82-.88-.85-1.34-.88-1.3-1.03-.32-.05,.28-.06,.56-.26,.59-.22,.03-.03,.44,.12,.73,.12,.23,.32,.45,.37,.29,.22-.77,.82-.31,1.42,.1,.13,.09,.25,.12,.36,.17l.11-.29c-.09-.13-.17-.29-.26-.4Z"/><path class="cls-2" d="M141.43,151.08c-.14-.16-.26-.34-.36,.07-.09,.38,0,.59,.12,.87,.19,.43,.33,.96,.59,1.21,.47,.47,.81,0,.84-1.26,0-.34-.02-.69-.03-1.04l-.42-.04c-.2,.66-.47,.5-.74,.19Z"/><path class="cls-2" d="M144.34,156.18c-.08,.13,0,.63,.04,.55,.44-.75,.39,.56,.54,.91,.17,.4,.32,.49,.61,.2,.12-.12,.27-.1,.41-.12,.2-.04,.36-.3,.33-.77-.03-.48-.27-.68-.43-.73-.37-.12-.74,.42-1.09-.39-.16,.13-.3,.17-.4,.35Z"/><path class="cls-2" d="M200.86,153.23c-.31-.43-.66-.73-.79-.46-.19,.38-.29,.93-.36,1.49-.04,.31,.23,.68,.36,.69,.21,.03,.36-.16,.66,.12,.08-.03,.19-.05,.27-.11,.37-.24-.32-1.37-.13-1.74Z"/><path class="cls-2" d="M175.34,121.42c-.26,.28-.48,.58-.95,.74-.51,.16,.05,.66,.5,1.12,.22,.21,1.13,.41,1.02,.27-.7-.92,.46-1-.14-1.86l-.43-.27Z"/><path class="cls-2" d="M142.36,156.87c-.33-.03-.44-.06-.54-.04-.14,.03-.28,.09-.27,.55,0,.28,.1,.42,.2,.54,.1,.11,.18,.33,.27,.42,.32,.31,.62,.35,.83-.36,.03-.1,.05-.34,.02-.45-.18-.78-.48-.66-.52-.67Z"/><path class="cls-2" d="M177.35,122.47c-.54-.21-.72-.04-.42,.33,.4,.45,1.16,.96,1.37,1.46,.08,.19,.33,.22,.54,.22-.03-.23-.04-.47-.1-.74-.12-.48-.6-.94-1.39-1.26Z"/><path class="cls-2" d="M197.94,145.53c-.37,.09-.98-.8-1.33-.69,.29,.46,.69,.81,.8,1.47,.08,.48,.32,.8,.52,.69,.12-.07,.19-.21,.39-.12,.28,.13,.33-.1,.15-.61-.13-.36-.41-.77-.53-.74Z"/><path class="cls-2" d="M139.95,157.05c.27,.37,.31,.95,.32,1.59,0,.33,0,.81,.14,.88,.08,.04,.18-.42,.28-.63,.1-.22,.24-.71,.1-.76-.55-.23-.24-1.24-.37-1.82-.07-.35-.14-.67-.3-.59-.13,.06-.24,.27-.28,.64-.02,.28,.02,.55,.11,.69Z"/><path class="cls-2" d="M204.61,193.96c-.02-.12-.03-.26-.07-.36-.08-.27-.21-.49-.42-.28-.09,.09-.22,.39-.27,.59-.14,.61,0,.83,.2,.93,.06,.03,.13,.05,.2,.08,.16,0,.29,.19,.51-.07l-.16-.9Z"/><path class="cls-2" d="M181.79,122.77c.35-.25-.26-.87-.49-1.29-.14-.24-.47-.17-.64-.16-.41,0,.06,.49,.12,.74,.03,.15-.04,.34,.43,.59,.3,.15,.53,.18,.59,.12Z"/><path class="cls-2" d="M141.42,132.9c-.09-.52-.28-.51-.45-.5-.19,.02-.41-.59-.55,.02-.04,.16,0,.55,.05,.73,.12,.38,.32,.35,.54,.44,.09-.07,.22-.14,.33-.28,.04-.06,.09-.31,.07-.42Z"/><path class="cls-2" d="M149.38,230.31c.21,.07,.57-.22,.53-.44-.08-.55-.32-1.11-.47-1.05-.24,.1-.44,.61-.65,.95l.58,.54Z"/><path class="cls-2" d="M144.47,191.07c0-.56-.09-1.07-.25-1.46-.06-.15-.19-.18-.28-.2-.02,0-.04,.26-.04,.3,.04,.55,.06,.99,.1,1.42,.04,.44-.07,1.21,.24,1.2,.22-.01,.24-.72,.24-1.25Z"/><path class="cls-2" d="M189.19,126.89c.03-.15-.16-.36-.31-.52-.7-.78-1.39-1.05-1.67-.79-.04,.03,.07,.2,.1,.31,.64,.31,1.26,.65,1.88,1Z"/><path class="cls-2" d="M144.41,142.77c.1,.15,.22,0,.24-.25,.02-.31-.1-.5-.19-.53-.27-.08-.55-.1-.82-.15v.51c.22,1.13,.53,.05,.78,.42Z"/><path class="cls-2" d="M143.86,216.29c-.16,0-.33-.05-.49,.03-.13,.07-.26,.35-.22,.7,.04,.36,.21,.38,.35,.41,.34,.07,.63,.03,.36-1.14Z"/><path class="cls-2" d="M145.13,115.85c.06,.16,.12,.21,.18,.08,.05-.1,.09-.23,.13-.36,.08-.7-.27-.68-.33-1.19-.04-.35-.04-1.06-.27-.83-.19,.2,.07,.72,.06,1.13,0,.44,.09,.83,.22,1.17Z"/><path class="cls-2" d="M138.59,114.43c-.12-.02-.21,.16-.21,.41,0,.72,.32,.89,.47,1.36,.07,.23,.08-.26,.11-.43,0-.66,0-1.28-.36-1.34Z"/><path class="cls-2" d="M205.95,196.35c-.16-.02-.34-.22-.55,.39-.14,.39,.03,.48,.18,.56,.13,.02,.3,.22,.52-.41,.14-.41,0-.53-.15-.54Z"/><path class="cls-2" d="M139.95,162.09c-.07-.02-.13,.18-.14,.44-.02,.47,.25,1.09,.41,.96,.1-.08,.15-.31,.13-.59-.03-.5-.13-.81-.4-.81Z"/><path class="cls-2" d="M183.89,123.66c.07-.17-.17-.43-.47-.66-.36-.27-.59-.31-.71-.21-.11,.1-.09,.31,.28,.57,.39,.26,.71,.41,.89,.3Z"/><path class="cls-2" d="M142.33,184.38c-.16-.25-.37-.19-.42,.32-.04,.4-.05,.86,.06,1.3,.05,.2,.1,.26,.24,.1,.19-.09,.04-.62,.06-1,.01-.26,.33-.3,.07-.71Z"/><path class="cls-2" d="M184.89,124.79c.32,.06,.63,.07,.93,.11v-.23c-.12-.08-.3-.21-.4-.23-.34-.08-.66-.13-.97-.15-.08,0-.13,.09-.08,.16,.14,.23,.37,.32,.52,.34Z"/><path class="cls-2" d="M171.79,121.22s.19,.22,.31,.27c.55,.26,.82,.22,.98,.06-.05-.15-.23-.36-.43-.42-.45-.14-.74-.09-.86,.09Z"/><path class="cls-2" d="M143,144.75c.02,.32,.24,.27,.37,.28,.17,.02,.35,.02,.52,0,.03,0,.05-.09,.08-.15-.04-.1-.07-.27-.11-.3-.1-.07-.21-.08-.28-.1l-.24,.02c-.13,.01-.36-.05-.34,.24Z"/><path class="cls-2" d="M140.64,178.09c-.18-.21-.23,.15-.22,.5,.02,.37,.1,.68,.26,.42,.12-.2,.33-.22,.31-.78-.11-.46-.23,.01-.36-.14Z"/><path class="cls-2" d="M200.97,213.31c.21-.24,.07,.4,.42-.2,.12-.21,.1-.49,.04-.62-.03-.06-.31,.08-.41,.22-.34,.44-.09,.41-.05,.61Z"/><path class="cls-2" d="M140.01,114.57c.02,.27,.08,.48,.2,.51,.21,.04,.31-.3,.3-.76,0-.12-.16-.26-.23-.36-.16,.08-.3,.15-.27,.61Z"/><path class="cls-2" d="M194.38,135.38c.23,.15,.49,.32,.36-.1-.06-.18-.24-.43-.37-.65-.06,.03-.13,.04-.17,.1-.06,.09-.1,.21-.15,.31,.11,.11,.23,.27,.32,.33Z"/><path class="cls-2" d="M202.82,210.89c.14,.15,.39,.01,.68-.5,.09-.15,.14-.32,.25-.58l-.96,.8c.02,.1,0,.23,.03,.28Z"/><path class="cls-2" d="M145.56,109.85c0,.15,.04,.28,.08,.34,.03,.05,.05-.03,.06-.13,.03-.15,0-.26-.06-.34-.07-.09-.08,.04-.08,.12Z"/><path class="cls-2" d="M141.56,161.47c-.04-.34-.13-.65-.29-.62-.03,0-.07,.28-.06,.43,0,.34,.02,.7,.21,.74,.11-.08,.17-.28,.14-.55Z"/><path class="cls-2" d="M139.71,147.78c-.15-.07-.18,.19-.16,.46,.02,.24,.07,.55,.14,.67,.1,.16,.21-.04,.23-.29,.03-.4-.07-.66-.22-.83Z"/><path class="cls-2" d="M204.52,187.69c-.07-.14-.16-.19-.25,.11-.06,.34,.03,.47,.13,.5,.09,.03,.19-.07,.29-.11-.06-.17-.1-.36-.17-.5Z"/><path class="cls-2" d="M144.95,151.52c.11-.06,.11-.23,0-.3-.13-.09-.26-.09-.39-.09-.04,0-.08,.13-.13,.23,.2,.27,.36,.24,.52,.15Z"/><path class="cls-2" d="M205.52,202.02c-.07-.12-.24,0-.37,.24-.18,.33-.07,.39,0,.47,.1,.01,.21,.1,.35-.32,.05-.14,.06-.33,.02-.39Z"/><path class="cls-2" d="M181.93,127.79c-.08,.06-.09,.2,.19,.39,.2,.13,.36,.17,.42,.1,.01-.14-.04-.33-.24-.47-.12-.08-.3-.06-.37-.01Z"/><path class="cls-2" d="M145.43,111.16c.16,.12,.25-.13,.23-.48l-.19-.02c-.11,0-.18,0-.2,.02,0-.02,0,.06,0,.13,0,.06,.02,.12,.04,.16,.03,.09,.08,.15,.12,.18Z"/><path class="cls-2" d="M145.81,123.5c.08-.08,.1-.24,.06-.44-.06-.24-.15-.42-.25-.25-.04,.07-.05,.29-.07,.41,.06,.29,.15,.37,.25,.27Z"/><path class="cls-2" d="M164.75,238.86s.24,.03,.36-.01c.27-.1,.46-.25,.36-.34-.04-.04-.24,0-.35,.01-.3,.12-.47,.25-.37,.34Z"/><path class="cls-2" d="M140,154.88s.09-.26,.08-.39c-.02-.26-.1-.48-.21-.39-.04,.04-.06,.26-.08,.37,.03,.32,.11,.47,.21,.4Z"/><path class="cls-2" d="M145.39,142.99c.09,.02,.19-.04,.28-.06-.05-.45-.2-.49-.31-.65-.12-.17-.19-.02-.18,.25,0,.29,.11,.44,.21,.46Z"/><path class="cls-2" d="M187.96,130.99c.3,.31,.43,.24,.54,.15l-.05-.26c-.2-.06-.41-.14-.6-.18-.02,0,.05,.22,.11,.29Z"/><path class="cls-2" d="M142.83,208.37c-.01,.16-.06,.35-.03,.46,.03,.12,.12,.24,.18,.23,.1-.01,.11-.2,.04-.38-.05-.13-.12-.21-.18-.31Z"/><path class="cls-2" d="M148.31,217.57c.05,.02,.11-.11,.16-.18l-.24-.29-.19,.23c.09,.09,.18,.21,.27,.24Z"/><path class="cls-2" d="M146.38,147.37c.09,0,.17-.11,.26-.17-.05-.09-.11-.24-.16-.25-.09,0-.17,.07-.28,.13,.08,.13,.14,.29,.19,.29Z"/><path class="cls-2" d="M202.58,168.57s-.04,.18-.05,.28c.1,.03,.2,.09,.29,.08,.03,0,.04-.16,.06-.24-.11-.23-.21-.2-.29-.12Z"/><path class="cls-2" d="M202.85,150.19c.18,.39,.35,.53,.5,.49,.06-.02,.12-.14,.1-.25-.07-.35-.22-.39-.32-.39-.11,0-.19,.1-.28,.15-.23-.4-.27-.3-.2,.04l.2-.03Z"/><path class="cls-2" d="M146.41,108.34c-.04,.07-.14,.18,.2,.24,.06,.01,.14-.09,.21-.14l-.13-.22c-.1,.04-.25,.06-.28,.11Z"/><path class="cls-2" d="M143.46,193.18s-.13,.1-.15,.21c-.03,.21-.03,.46-.03,.7,.08-.12,.17-.22,.23-.37,.07-.18,.09-.43-.05-.54Z"/><path class="cls-2" d="M203.04,171.64c-.12-.08-.19,.05-.15,.35,.04,.23,.12,.48,.23,.48,.04,0,.07-.18,.1-.27-.01-.27-.08-.48-.19-.55Z"/><path class="cls-2" d="M190.48,139.27c-.08,.1,.03,.32,.21,.47,.08,.07,.17,.05,.25,.07,.05-.1,0-.23-.16-.36-.1-.08-.27-.22-.3-.19Z"/><path class="cls-2" d="M145.53,145.19c.08,0,.19,0,.16-.31,0-.08-.11-.12-.18-.19-.06,.08-.19-.01-.15,.33,0,.08,.11,.17,.17,.17Z"/><path class="cls-2" d="M193.86,133.59s-.03-.18-.04-.27c-.23-.19-.29-.09-.36-.01-.02,.02,.01,.16,.03,.18,.21,.22,.32,.2,.37,.1Z"/><path class="cls-2" d="M143.76,138.58c.13,.01,.27,.1,.33-.25,.01-.07-.14-.5-.2-.49-.17,.03-.11,.44-.12,.74Z"/><path class="cls-2" d="M203.98,179.36l.31-.59c.1-.18,.28-.38,.17-.71-.06-.2-.26-.23-.39-.22-.25,0-.32,.53-.4,.97-.1,.69,.14,.53,.29,.57,.02,.24,.03,.51,.07,.73,.02,.12,.12,.26,.16,.23,.14-.09,.11-.35,.03-.54-.07-.17-.17-.29-.25-.44Z"/><path class="cls-2" d="M145.61,109.04c.04,.11,.12,.14,.19,.13,.04,0,.07-.06,.11-.08-.02-.12-.12-.14-.2-.13-.04,0-.11,.07-.1,.09Z"/><path class="cls-2" d="M204.25,181.48c-.08-.01-.19-.01-.18,.29,0,.08,.1,.13,.15,.19,.08-.04,.19,.02,.18-.29,0-.08-.1-.18-.15-.19Z"/><path class="cls-2" d="M190.25,135.8c-.07,.07-.05,.25,.13,.47,.07,.08,.17,.1,.29,.18l-.18-.54c-.08-.04-.21-.14-.25-.1Z"/><path class="cls-2" d="M199.06,152.54c-.03,.09-.07,.16-.08,.27-.01,.15,.05,.3,.15,.36,.15,.09,.17-.05,.14-.28l-.21-.36Z"/><path class="cls-2" d="M154.73,112.91s.03,.14,.05,.22c.11,.01,.28,.06,.31,.03,.04-.04-.03-.14-.05-.22-.11-.01-.28-.06-.31-.03Z"/><path class="cls-2" d="M205.75,182.39c-.02,.48,.14,.31,.24,.39l.02-.49c-.1,.03-.26,.05-.26,.1Z"/></g><g><path class="cls-2" d="M59.31,196.87c-.04-1-.09-2.07,.02-2.77,.08,.94,.15,2.01,.26,2.8,.12,.87,.29,1.53,.21-.49-.08-2.15,.11-2.53,.3-2.89,.12-.24,.29-.22,.26-1.57-.04-1.42-.21-1.42-.35-1.7-.23-.48-.43-1.49-.59-2.84-.27-2.34-.62-4.75-.13-6.72,.22-.88,.1-3.16,.03-5.02,.24-1.4,.13-3.37-.05-5.4-.34-3.85-.35-3.91,.12-5.57-.07,3.44,.26,6.46,.52,9.56,.11,.22,.29,.46,.29,.65,.04,1.41-.15,.75-.24,1.04,.06,2.46-.04,4.44-.14,6.45-.04,.74-.02,1.48,.06,2.18,.13,1.1,.27,.84,.41,.71,.22-.21,.23-3.26,.58-1.57,.27,1.33,.58,3.55,.75,1.26,.22-3.07-.32-3.72-.56-5.29-.09-.6-.2-1.12-.27-1.8-.14-1.21-.06-2.18,.05-2.49,.15-.39,.36-.85,.49-.28,.61,2.7,.64-1.21,.94-2.33,.68-2.53-.44-6.07-.17-8.58,.01-.11-.08-.85-.12-1.29-.1,.53-.18,1.3-.31,1.52-.15,.27-.29-.71-.35-1.78-.14-2.53-.36-4.31-.71-5.78-.29-1.22-.21-2.75-.07-3.83,.1-.76,.31-.76,.31-2.24-.13-.21-.3-.02-.33-1.28-.02-.72,.14-1.26,.22-1.88l.11,3.06c.22-.92,.2-1.98-.1-3.19-.32-2.21-.67-4.12-1.04-5.84-.29-1.37-.24-2.71-.03-3.45,.08-.28,.19-.28,.29-.32,.13-.05,.35,.08,.32-.86-.04-.92-.26-.78-.4-1.05-.29-.56-.58-1.49-.87-1.84-.38-.47-.57-1.62-.51-4.27,.02-.76,.01-1.52-.13-1.6-.12-.06-.12,.81-.13,1.59,0,.53,0,2.75-.14,.87-.27-3.92-.65-1.89-.94-3.52-.11-.61-.37-.79-.07-1.28,.51-.82-.09-3.49-.02-4.99,.26-1.84,.17-4.52-.22-5.42-.57-1.31-.74-3.45-.83-6.96-.05-1.99-.29-2.46-.52-2.47-.47-.02-.55-2.38-.61-4.83,.53-.35,1.11,.21,1.64,.89,.55,.71,1.04-1.76,1.63,1.7,.52,1.53,.85,6.26,1.48,6.71,.14,.1,.29,.79,.39-.1,.1-.88,.21-1.82-.02-3.23-.31-1.98-.34-3.64-.19-5.52,.19-2.36-.02-5.52-.12-8.33-.09-2.56-.45-2.81-.73-3.91-.33-1.29,.27-2.14-.06-3.96-.36-1.99-.42-3.7-.26-5.94,.06-.78-.22-1.99-.39-2.66-.06-1.3-.09-2.68-.19-3.88-.15-1.84-.16-2.66,.14-1.88,.17,.45,.29,.38,.34-.6,.06-1.23-.12-2-.24-2.7-.29-1.71-.56-3.26-.92-4.18-.6-1.51-.68-3.19-.37-6.27,.05-.54,.15-.81,.2-1.36,.26-2.77-.05-10.44-.52-11.28-.64-1.14-.6-3.86-.71-6.49-.2,1.11-.16,3.3-.26,4.84-.05,.81-.27,1.16-.3,.08-.07-2.96-.32-1.96-.49-2.39-.14-.36-.29-.46-.43-.68,.06-.74,.11-1.62,.2-2.19,.34-2.19,.32-6.48,.77-7.95-.25-3.53,.09-5.27,.14-7.87,.14-.95,.52-.58,.39-3.03-.05-.86-.06-1.74-.07-2.63v-1.14l.02-.5c.01-.32,0-.63-.03-.97,0-.04-.02-.09,0-.12l.1-.03,.2-.06c.13-.05,.26-.11,.39-.18,.25-.14,.54-.24,.85-.28l.4-.04,.54-.03c.37-.01,.76-.02,1.19,0,.3,0,5.53,.09,3.65-.65-.47-.19,2.19-.58,2.29-.88,.08-.22,1.68-.4,2.13-.17,.48,.25,1.79,.12,3.43-.23,1.03-.22,1.79-.41,3.4-.44,3.86-.06,8-.44,12.58-.95,2.39-.28,2.56-.08,2.7,.12,.5-.04,1-.07,1.5-.11,.08-.43-.3-.8-4.5-.55-2.37,.16-3.23-.34-6.99,.22-.52,.08-.75-.08-.53-.2,.23-.13,.65-.27,1.67-.31,1.46-.06,3.01-.18,4.57-.4,1.39-.21,2.7-.45,4.06-.63l.59,.67,1.6-.12c3.29-.51,3.61-.46,4.7-.07l3.22-.16c1.63-.51,7.15-.38,7.98-.99,.22-.18,1.53-.32,3.03-.3,2.01,.03,1.9,.27,1.87,.47-.02,.2-.03,.4-1.69,.53,.03,.23-1.26,.41-1.86,.62-1.92,.68-.94,1.01,3.72,1.18,1.91,.08,5.85,.14,6.28-.02,1.44-.59,4.12-.16,6.1-.14,2.29,.03,5.75,.31,6.63,.07,1.62-.48,2.82-.08,4.47,.13,1.12,.13,2.36,.27,3.6,.41,1.39,.14,1.76,.08,1.48-.12-.54-.39,1.2-.5,3.47-.29,2.39,.23,5.88,.12,7.09,.9,1.91,.42,4.18,.63,6.32,.9,2.8,.31,2.38,.41,1.63,.55-.3,.05-.32,.16-.36,.26-.15,.41,2.69,.74,4.34,1.14,1.97,.44,1.54,.07,1.91,0,.34-.07,.87-.24,1.54,0,1.02,.38,2.11,.58,3.16,.75,1.05,.17,2.06,.33,2.87,.7,1.09,.46,2.89,1.05,2.53,1.28-.12,.08-.57,.16,1.01,.6,1,.3,1.91,.42,1.69,.21-.75-.68,.76-.22,2.53,.56,.7,.31,1.53,.84,1.27,.8-2.5-.3,1.27,.93,2.05,1.15,2.14,.47,3.71,1.22,5.53,2.15,2.66,1.4,4.37,2.12,4.99,1.85,.24-.1,1.04,.11,2.48,.84,1.17,.58,1.37,.83,1.52,1.06,.4,.62,1.99,1.29,2.28,1.19,.33-.1,.31-.25,1.72,.72,.6,.41,.99,.91,1.72,1.19,3.1,1.2,6.85,3.08,10.05,4.64,1.28,.61,1.93,.71,3.7,1.99,1.49,1.12,1.98,1.7,.8,1.26-.78-.29-.82-.13,.56,.85,2.26,1.6,4.67,2.94,6.96,4.65,.39,.29,.86,.41,.49,.03-.2-.21-.63-.54-.87-.77-1.1-1.04-.63-1.07,.8-.22,1.8,1.07,.69,.75,1.34,1.31,.95,.81,1.11,.72,1.2,.69,.66-.19,2.81,1.84,4.13,2.63,2.1,1.26,1.35-.04,2.74,1.01,3.1,2.35,3.22,2.13,3.76,2.12,.16,0,.65,.21,1.4,.83,.61,.51,.84,.83,.44,.65-1.5-.69-.97,0,.97,1.68-.83-.09,.55,1.57-2.21-.02-.78-.44,.19,.51,1.31,1.44,1.47,1.21,3.06,2.43,4.1,3.07,3.66,2.23,7.69,5.22,11.73,9,.12,.11,.19,.11,.27,.16-.69-.77-1.23-1.48-1.1-1.54,.19-.09,1.16,1.01,1.73,1.61,.79,.89,1.49,1.72,2.07,2.48,.56,.78,1.01,1.48,1.35,2.09-1.07-1.1-2.04-2.26-2.96-3.43-.11,.25-1.21-.54,1.24,2.21,.93,1.09,1.76,2.19,2.74,3.31,1.68,1.87,3.25,3.85,4.58,6.43,.49,.94,1.46,2.38,1.74,2.49,.27,.09-.29-1.24-.99-2.22-2.12-3.01-2.41-3.7-2.07-4.02,.18-.17-.45-1.43-.05-1.3,1.17,1.6,2.41,3.38,1.54,1.48-.6-1.27-.21-1.23,0-1.44,.2-.2,.24-.66-1.22-2.9-.03-.05,.42,.25,.67,.43,.65,.45,2.27,2.41,1.51,.79-.81-1.7-2.13-3.11-3.4-4.38-.14-.14-.36-.36-.51-.55-1.47-1.8-1.46-2.5-2.98-4.02-1.18-1.13-.52,.27-2.52-1.64l-.55-.5c-2.33-2.35-3.85-3.32-5.61-4.55-2.35-1.66-2.78-1.99-2.92-2.77-.13-.75-2.99-3.27-3.83-4.41-.19-.26-1.03-.76-1.57-1.11-.75-.47-1.8-1.12-2.34-1.57-3.22-2.63-4.6-3.24-5.5-3.33-.27-.02-.77-.17-1.65-.99-1.27-1.19-2.58-2.12-4.57-3.43-1.73-1.14-.57-.56-.09-.34,.64,.28,2.1,1.14,.95,.14-1.17-1.02-1.78-1.14-2.56-1.54-.9-.47-1.54-1.01-2.34-1.63-3.44-2.66-7.13-4.79-10.39-6.46-1.76-.91-3.29-1.73-5.14-2.76-2.55-1.4-4.99-2.59-7.02-4.06-1.85-1.34-4.92-2.23-6.69-3.34-2.07-1.29-2.83-1.49-4.32-1.82-1.77-.45-6.45-2.15-8.55-2.98-1.38-.53,.12-.64-3.1-1.35-1.59-.31-2.19-1.12-4.44-1.58-2.25-.41-2.9-1.15-4.6-1.46-2.24-.36-1.32,.21-2.19,.27-.09,0-.38-.05-.51-.05-1.45-.04-1.44-.03,.62,.7-.45,0-.28,.31-1.47-.05-2.01-.63-3.66-1.07-6.33-1.4-1.27-.15-2.43-.4-2.3-.52,.46-.39-2.22-.9-4.15-1.18-2.13-.25-3.84-.67-5.68-1.04-1.84-.34-3.81-.58-6.42-.53-.15,0-1.36-.19-1.72-.29-1.14-.32-2.93-.46-4.83-.59-2.14-.11-4.03-.23-5.93-.5-2.66-.37-8.03-.23-7.53,.14,1.17,.88-3.2,.65-6.54,.66-2.03,.04-3.95,.2-6.06,.14,.5-.5-.64-.82-4.78-.77-2.43,0-4.63,.08-6.02-.21-1.49-.31-3.37-.05-3.78,.27-.52,.39-1.89,.72-3.91,1.04-1.06,.19-1.98,.15-2.66,.09-.66-.05-1.29-.1-.45-.33,1.27-.35,1.49-.6,.83-.6-2.12,.03-2,.32-2.34,.44-1,.35-2.9,.67-4.64,.99-1.32,.24-2.67,.52-3.8,.78-1.27,.3-.19,.66-2.3,.84-3.22,.27,1-.67-1.28-.66-.58,0,.06-.31-.48-.35-2.59-.2-4.72,.87-7.59,.9-.81,0-1.62,.31-1.6,.45,.02,.06,.33,.11,.69,.1,.61,0,1.36-.05,2.1-.09,1.57-.09,1.96,.04,1.45,.26-.67,.3-2.4,.34-3.41,.44-2.64,.28-4.1,.06-6.84,.29-1.12,.1-2.05,.16-2.8,.2l-.98,.03c-.33,0-.62,.01-.86,0-.94-.03-1.08-.2-.2-.56,1.25-.49-.58-.63,.99-1.13,.01,0-.04,0-.16,0l-.69,.03c-.56,.03-1.27,.07-1.8,.12-1.16,.11-2.91,.37-2.3,.41,1.81,.14,.06,.61-1.08,1.02,1.37-.09,1.83-.03,2.25,.07,.99,.22,1.58,.47,1.09,.78-.24,.15-.74,.32-1.57,.51-.09,.03-.24,.02-.3,.09l.05,.42c.03,.29,.06,.6,.1,.94,.05,.65,.11,1.4,.18,2.26,.06,.89,.25,1.69,.39,1.02,.08-.38,.12-1.08,.04-1.8-.05-.49-.1-.99-.13-1.48l-.05-.74c0-.06-.02-.14,0-.17l.18-.02,.36-.04c.97-.11,1.95-.19,2.92-.27,.97-.07,1.51-.06,1.69,.01,.19,.07,.1,.19,0,.3-.12,.16-.61,.26-1.05,.3-.41,.04-.92,.05-1.4,.08-.75,.04-1.4,.1-1.95,.17h-.1s0,.07-.01,.1l.02,.21,.04,.39c.03,.25,.06,.49,.09,.71,.14,.89,.33,1.52,.54,2.01,.1,.17,.17,.68,.19,.98,.02,.33-.02,.57-.14,.54-.51-.1-.47,2.19-.37,5.13,.09,2.61,.09,5.24,.23,7.79,.17,3.1-.06,3.18-.33,2.79-.29-.42-.59-1.38-.88-2.25-.17-.53-.24-1.49-.18-2.59,.06-1.32,0-2.57-.24-3.15-.18-.43-.42-.93-.5,.14-.15,2.17-.33,4.56-.12,7.64,.15,2.15,.27,5.87,.79,4.06,.1-.33,.5,1.09,.5,2.96,0,1.78-.32-.29-.45,.04-.36,.91-.67,.72-1.11-1.86-.29-1.68-.27,.75-.24,2.28-.45,.01-.64,2.48-.92,4.07-.45,2.54-.48,2.98,.04,6.72,.24,1.74,.6,3.76,.57,5.47-.05,2.23,.66,2.39,.32,4.47-.32,1.95,.39,2.82,.29,4.82-.03,.73,.04,2.04-.05,2.76-.32,2.78-.18,5.64,.32,8.73,.08,.5,.15,1.45,.17,2.13,.14,5.87,.15,6,.97,8.81,.07,.25,.15,.47,.22,.75,.3,1.18,.29,2.52,.21,3.99-.14,2.66-.24-.67-.36-.91-.15-.3-.3-.71-.38,.13-.1,1.05,.04,1.82,.18,2.55,.32,1.69,.25,2.65,0,3.11-.13,.24-.28,.05-.4,.4-.33,1.01-.27,2.54,.19,4.62,.15,.66,.34,1.22,.22,2.19-.33,2.53,.35,4.01,.34,6.36,0,1.38,.29,1.24,.41,1.92,.3,1.71-.24,2.27-.03,3.43,.47,2.66,.05,2.8-.01,3.94-.15,2.83-.1,3.13,.48,3.91,.15,.2,.26,1.32,.34,2.36-.16,.59-.33,1.15-.49,1.79-.11,.44-.22,1.12-.13,2.27,.03,.46,.22,.92,.3,.86,.41-.25,.44,1.28,.36,3.2-.05,1.12-.15,1.99-.21,3.05-.11,1.91-.11,1.96,.34,3.92,.12,.52,.18,1.24,.18,1.94,0,.97-.06,1.84-.09,2.75-.12,3.78,.03,5.34,.56,5.79,.33,.27,.65,.47,.98,1.12,.15,.29,.27,1.62,0,1.58-.29-.05-.2,1.57-.11,2.67,.12,1.44,.42,2.85,.43,3.98,.02,1.71,.58,4.22,.06,5.28-.37,.74-.16,3.75,0,5.36,.28,2.84,.75,5.4,.04,6.49-.03,.05-.05,1.03-.02,1.29,.49,4.24,.16,7.01,0,10.01-.12,2.33,.11,3.23,.35,4.22-.12,2.09-.12,4.23,.19,6.42-.08,.09-.16,.23-.12,1.01,.02,.28,.1,.46,.15,.69,.23,2.98,.43-.01,.65,1,.23,1.06,.44,2.63,.71,2.72,.11,.03,.22,.22,.32,.22,.1,0,.24-.76,.19-1.06-.54-3.45,.03-5.4-.09-8.22ZM264.14,66.76c.46,.57,.87,1.12,1.29,1.7-.96-.83-1.83-1.54-2.95-2.55-.31-.27-.77-1.11-.89-1.42,.11-.35,1.17,.58,2.55,2.28Zm-11.98-9.63c.33,.03,.89,.2,2.25,1.46,.76,.7,1.19,1.32,.99,1.32-.46,0-1.77-1.42-2.83-2.3l-.51-.45s.05-.04,.1-.04Zm-12.44-10.09l.4,.44-1.38-.86s-.24-.23-.22-.25c.08-.08,.5,.15,1.21,.68ZM134.75,7.88c1.2-.02,3.5,.13,4.18,.3,1.29,.3-.98,.29-1.76,.4-.55,.09,1,.48-1.59,.27-1.86-.15-2.43-.61-5.79-.46l-.1-.26c1.67-.12,3.21-.23,5.06-.25Zm-11.36-.17c1.05,.14,1.78,.37,2.33,.56,.64,.23-1.09,.15-1.82,.19-2.26,.15-1.48-.15-1.96-.26,.22,0,.48-.01,.66-.03,.11-.01,.12-.04,.17-.06l-.86,.09c-1.02-.09-1.29-.22-1.1-.36,.28-.2,1.23-.32,2.57-.13Zm-8.04-.28c.46,0,1.3,.13,1.35,.21,.22,.31,.18,.62,.24,.93h-1.49c.1-.31,.52-.62-.72-.9-.36-.08-.3-.22,.62-.23Zm-17.28-1.86c.49-.02,.96-.01,1.44,0l-4.94,.9-.63-.16c.31-.33,1.5-.6,4.12-.73Zm-30.33,4.63c2.71-.52,4.82-.64,6.45-.49-1.98,.24-3.95,.49-5.93,.73-.32,.04-.85,0-.98-.04-.1-.03,.16-.15,.46-.21Zm-13.08,34.41c.1,.31,.27,1.2,.27,1.43-.02,1.34-.18,.51-.3,.11-.12-.41-.24-.9-.39-1.46,.14-.76,.28-.53,.42-.09Zm-2.07,.88c.13-.7,.24-.01,.34,1.08-.11,.1-.16,1.38-.33,.21-.03-.23-.04-1.12,0-1.29Zm.43,6.69c.06-.08,.12-.36,.18-.18,.06,.19,.14,.86,.14,1.23,.01,.72-.06,.76-.15,.19l-.17-1.24Zm3.14,3.37c.05-1.15,0-3.1,.3-2.45,.04,.08,.08,.83,.12,1.28-.03,1.39-.05,2.83-.33,2.4-.09-.14-.12-.73-.1-1.23Zm-.74,4.95c-.09-1.83,.13-1.74,.33-1.87,.27,.11,.54,1.03,.8,2.72-.19,.89-.36,2.33-.59,2.46-.16,.09-.45-1.57-.54-3.31Zm-.68,5.76c.07,.03,.13,.03,.2,.12,.17,.25,.37,.14,.47,1.84,.04,.61-.03,.83-.12,.66-.21-.43-.49,.08-.55-2.62Zm-2.62,8.15c.1-.63,.16-1.04,.22-1.33,.07-.3,.16-.81,.24,.24,.07,.86,0,1.35-.1,1.42-.09,.06-.19-.16-.36-.33Zm4.87,22.96c.01-3.91-.32-3.79-.66-3.76-.11,.01-.11-.14-.03-1.64,.01-.2,.06-.27,.06-.47-.02-1.82-.53-.56-.38-2.48,.13-1.62,.09-2.54-.11-3.93-.23-1.55-.4-3.14-.37-5.15-.08-3.97,.04-4.68,.53-2.87,.32,1.19,.67,2.23,.79,5.24,.06,1.49,.18,1.56,.33,1.07,.11-.38,.36,.34,.19,1.12-.38,1.69-.18,4.59-.13,7.25,.03,1.83,.06,3.66,.09,5.47,0,.38-.06,.82-.12,.86-.05,.03-.18-.59-.18-.71Zm-3.24,2.55c.06-.09,.12-.2,.19-.27,.09-.09,.18-.15,.27-.22-.05,.42-.1,.97-.18,1.08-.07,.11-.18-.37-.28-.6Zm1.16,18.68c.05-.52,.12-.98,.12-1.6,0-5.24,.27-1.09,.46,.24-.14,.47-.13,1,.05,1.58-.15,1.8-.33,2.44-.63-.22Zm1,2.84c.11-2.58-.14-2.39-.35-2.63l-.05-1.53c.39,.26,.76,.83,.77,4.73,0,.73-.04,1.53-.18,1.22-.11-.25-.22-.99-.19-1.78Zm3.75,39.09c.03-.89,.23-1.53,.38-1.58,.31-.09,.16,1.86,.24,2.8,.34,4.08-.06,1.99-.27,1.42-.08-1.24-.39-1.45-.35-2.64Z"/><path class="cls-2" d="M284.98,108.24c-.27-.21-.24,.34,0,1.44,.35,1.65,.12,1.67-.61-.55-1.02-3.02-1.48-3.24-2.21-4.68-.85-1.66-.7-1.09-.25,.54,.25,.9,.45,1.71,.66,2.55,.04,.09,.61,2.22,1.15,4.33,.28,1.05,.55,2.11,.74,2.91,.2,.8,.33,1.34,.34,1.36,.22,.47,.47,1.07,.63,1.32,.26,.34,1.82,4.56,2.09,5.39,.55,1.85,.6,3.27,1.23,5.15,.36,1.09,.33,1.49,.19,1.33-.84-.86,.04,1.81,.53,3.21,.46,1.28,.77,2.02,.77,3.31,.31,2.21,.47,4.42,1.3,6.51,.34,2.4,.27,4.3,.91,7.3,.14,.72,.3,1.77,.41,2.06,.7,1.75,.99,5.1,1.41,7.82-.53,1.41-.45,1.31,.06,5.75,.32,3.44,.93,3.61,1.13,7.55,.22,3.75,.22,5.36-.17,5-.61-.51-.36,1.35-.43,3.93-.09,7.93-.72,15.87-1.99,23.66-1.13,6.51-1.6,8.67-.92,9.87,.33,.59-.34,2.8-.61,4.43-.14,.92-.41,2.03-.76,2.78-.61,1.3-.63,.56-.57-.48,0-.14,.06-.4,.06-.52,.03-1.48-.67-.39-1.58,2.58-.4,1.38-.85,2.85-1.29,4.29-.78,2.49-.43,2.08-.04,1.51,.41-.66,1.23-3.03,1.33-2.32-.38,1.33-.67,2.98-1.25,3.89-.92,1.47-1.26,3.4-1.99,4.97l.29,.37-.6,1.44c-.39,.4-.83,1.13-1.58,2.57-.84,.63-.84,.64-1.92,3.39-1.23,2.81-1.7,3.65-2.81,4.66-.19,.17-.21-.41-.82,1.07-1.09,2.74-2.32,4.37-3.86,6.39-1.37,1.74-3.81,5.67-4.17,6.59-.04,.09-.66,1.28-1.34,2.41-.33,.57-.67,1.13-.92,1.56-.25,.43-.41,.72-.39,.73,.39,.42-3.06,4.13-3.52,5.24-.1,.33-3.19,3.6-.7,1.5,.14-.12,.09,.15-.03,.3-1.65,1.92-3.37,3.91-5.16,5.62-1.22,1.18-.89,.37-1.02,.23-.13-.14-.58,.08-1.64,.96-1.88,1.58-2.28,1.41-3.5,2.18-.97,.64-3.23,2.74-3.65,2.53-.49-.22-2.56,1.88-3.91,2.87-2.18,1.58-1.45,1.39-1.47,1.63-.02,.23,.23,.26,.37,.38,1.82-1.2,2.6-1.59,2.72-1.28,.58-.5,1.5-1.31,1.63-1.38,1.9-1.02,2.14-.62,2.61-.38,.47,.24-2.1,1.94-2.72,2.62-.3,.35-.84,.88-.84,1,0,.37-.5,.99-2.42,2.43-.6,.45-.73,.65-.3,.38,.55-.34,1.63-1.14,1.7-1.12,.33,.05-.98,.84-1.51,1.29-.53,.47-1.58,1.21-1.66,1.34-.22,.33,.64-.14,1.42-.64,1.55-.99,3.42-2.4,4.73-3.38,2.34-1.66,3.31-2.22,2.52-2.37-.44-.1,.63-1.17,2.73-2.53,.89-.58,1.85-1.63,2.46-2.38,.57-.7,.49-.9,1.49-1.91,.41-.55,.78-.92,1.19-1.15,1.81-1.6,1.25-.54,2.43-1.41,1.6-1.22,2.99-3.24,4.12-4.23,2.73-2.35,2.54-2.86,2.71-3.51,.13-.49-1,.34,.65-1.72,1.31-1.65,1.93-1.97,2.95-3.01,.79-.82,1.13-1.04,1.46-1.19,.36-.17,1.13-.92,1.9-1.76,.77-.83,1.47-1.79,1.79-2.29,1.56-2.45,2.72-4.19,4.06-6.19,.2-.29,.56-.99,.61-1.21,.39-1.36,.11-1.55-.72-.76-1.67,3.53-1.68,2.37-2.44,3.36-.62,1.13-1.5,2.66-1.95,3.19-1.1,1.33-.1-.32,.26-1.07,.39-.78,.78-2.01,.73-1.93-1.73,2.26-1.35,.94-1.49,.59-.02-.05-.42,.42-.68,.74-.32,.4-.5,.73-.56,.98-.12,.57,.54,.15-.91,2.38-1.45,2.12-1.78,1.96-2.65,2.9-.72,.78-1.54,1.73-2.34,2.67-.25,.29-.51,.49-.61,.53-.04,.02,.34-.61,.49-.79,1.59-1.84,2.84-3.71,4.07-5.59,.59-.96,1.18-1.91,1.78-2.89,.31-.48,.63-.97,.95-1.46,.31-.5,.62-1.01,.96-1.53,.77-1.21,1.54-2.39,2.01-3.1,.47-.71,.73-.89,.57-.04-.06,.33,.55-.47,.77-.94,.72-1.48,1.81-3.28,2.65-5.01,.43-.86,.83-1.68,1.13-2.4,.27-.74,.43-1.38,.44-1.86,0-.37,.25-1.23,.79-2.14,1-1.7,1.82-3.51,2.65-5.39,.72-1.92,1.45-3.92,1.96-6.1,.12-.51,.24-.85,.37-.96,.33-.26,.12,.92,.04,1.76-.13,1.26-.66,2-1.06,2.83-.24,.49-.42,.95-.43,1.17,0,.18,.06,.23,.16,.11,.26-.3,.66-1.11,1.05-2.1,.79-1.96,1.52-4.15,2.07-6,.56-2.26,1.27-2.57,1.71-5.43,.17-1.31,.77-2.42,1.12-3.18,.52-1.13,.17,.8,.2,1.44,0,.58-.26,1.88-.57,3.03-.29,1.15-.53,2.15-.3,2.17,.28,.02,.62-1.08,.98-2.37,.34-1.3,.66-2.8,1.03-3.58,.7-1.45,1.1-3.74,.74-4.14-.39-.41-.03-1.49,.56-4.08,.35-1.57,.65-3.17,.75-4.53,.1-1.36,.1-2.46-.05-3.01-.19-.81,.04-3.28-.12-3.99-.17-.8-.15-1.33,.17-2.32,.17-.51,.48-1.88,.42,.12-.03,.7-.15,1.63-.16,2.26-.02,.78,.22,.34,.24-.07,.14-2.36,.38-3.19,.69-4.38,.37-1.38,.63-2.37,.6,.53,0,.53,.2,.11,.27-1.05,.11-1.75,.32-2.27,.52-2.97,.11-.42,.24-.66,.21-1.72-.03-.97-.08-1.86-.26-1.55-.37,.65-.75,1.52-1.12,2.12-.09,.15-.21-.16-.25-.61-.07-.63,.04-1.43,.14-1.99,.49-2.52,.44-3.33-.08-2.91-.52,.39-.52,.03-.29-4.09-.25-4.68-.35-9.45-.45-13.87,0-1.67,.2-2.95,.1-4.91-.17-3.25-.69-1.9-1.04-4.67-.11-.89-.32-1.69-.49-2.52-.27-.7-.45,1.22-.88-3.13-.15-1.79-.82-4.28-1.28-6.45-.12-.53-.17-.14-.37-1.49-.68-4.34-.73-4.46-1.16-4.36-.13,.03-.15,.75-.46-.4-.29-1.01-.38-1.93-.49-2.8-.1-.86-.24-1.79-.15-2.11,.06-.2,.05-.61,.07-.92-.16-.31-.38-.88-.46-.87-.44,.07-1.54-2.34-.76,2.36,.07,.5-.23-.24-.45-.96-1.14-3.88-.2-3.79-1.26-7.41-.1-.33-.17-1.2-.12-1.35,.05-.15,.28,.07,.42,.51,1.43,4.37,1.85,3.97,2.38,3.92,.27-.03,.66,1.4,1.06,3-.5-2.94-.95-4.96-1.37-6.17-.4-1.21-.73-1.63-1.02-1.36-.08,.07,.01,.82-.25,.19-.99-2.37-1.94-7.99-3.11-8.98-.13-.62-.27-1.28-.39-1.85-.14-.79-.26-1.46-.43-2.26-.14-.63-.41-1.5-.67-2.03-.23-.46-.43-.74-.57-.85Zm-33.09,178.53c-.17,.1-.56,.34-.51,.26,.11-.21,.54-.66,1.18-1.18,.16-.13,.41-.31,.41-.28-.06,.2-.47,.64-1.07,1.2Zm37.37-59.83c-.06,.2-.33,.54-.44,.62-.13,.09-.2-.01-.29-.04,.39-1.06,.84-2.54,1.03-2.44,.13,.06,.04,.79-.3,1.86Zm6.92-19.58c-.02,.53-.13,1.06-.24,1.1-.05,.02-.07-.39-.02-.73,.04-.36,.18-.88,.27-1.34,0,.32,0,.61-.01,.97Zm-.33-6.01c.22-.16,.64-1.38,.37,1.09-.22,1.86-.49,3.69-.96,4.52-.2,.37-.43,1.13-.64,1.59-.54,1.19-.6,.32,0-2.72,.25-1.52,.48-2.57,.51-3.88,0-.05,.19-.82,.29-1.06,.27-.75,.36-.11,.43,.46Zm1.24-8.14c-.09,.95-.18,.75-.25,.68-.05-.05-.07-.48-.1-.75,.07-.14,.14-.28,.22-.42,.05,.16,.15,.37,.14,.48Zm-.28-18.81c-.3-.11-.55-1.03-.72-3.33,.3,.1,.63-.25,.72,3.33Zm-.78-4.82c.03,.45,.03,.93,.04,1.39-.1-.23-.23-.29-.28-.76-.15-1.28-.13-2.73,0-2.85,.14-.15,.17,1.4,.24,2.22Zm1.51-4.69c0,.98-.06,1.73-.25,1.25-.06-.14-.12-.74-.18-1.13-.03-1.34,.1-1.18,.26-1.03,.1,.1,.18,.46,.17,.92Zm-2.89-2.95c.04,.45,.06,1.24,.03,1.24-.12-.03-.19-.86-.24-1.46-.05-.68-.11-1.37-.16-2.05,.17,.46,.29,1.29,.37,2.27Zm.95-5.82c.02,.21,.05,.44,.07,.66l-.21-.06c-.21-1.85-.72-2.55-.84-4.92,0-.19,0-.46,.03-.4,.4,.97,.71,2.87,.95,4.72Zm-1.95-5.54c.12,.67,.23,1.36,.35,2.03-.08,.1-.15,.36-.26,.27-.32-.26-.66-3.05-1.04-2.97,.06-.83,.05-1.22,.09-1.25,.21-.19,.45-.4,.86,1.92Zm-.44-7.55s0,.62-.06,.51c-.24-.47-.44-1.48-.6-2.52-.1-.65-.1-.86,.07-.53,.16,.7,.38,1.61,.59,2.55Zm-7.95-30.37c.23,.83,.79,2.47,.5,2.16-.36-.37-.94-1.64-1.6-3.6-.45-1.36-.59-2.28-.48-2.52,.09-.21,.47,.67,.85,1.77,.25,.74,.5,1.48,.74,2.19Z"/><path class="cls-2" d="M201.32,317.97c1.15-1.41,3.47-2.66,8.81-5.12-.07-.76-.13-1.54-.23-2.3-.01-.1-.09-.19-.95,.18-.4,.17-.93,.45-1.25,.64-1.03,.62-1.98,1.2-3.01,1.82-1.03,.6-.53,.86-2.9,1.66-1.12,.38,.73-.69,.91-.98,.16-.24,1.15-.82,1.32-1.07,.24-.37,3.66-1.89,2.11-1.52-.56,.14-2.94,1.27-4.6,1.86-1.88,.69-3.38,1.46-1.45,1.02,.9-.21,.06,.25-.27,.52-.43,.36-.96,.77-2.34,1.28-.78,.29-1.57,.46-1.54,.26,.05-.34-1.54,.42-2.61,.8-1.05,.37-.63,.54-2.68,1.14-2.57,.79-8.16,3.34-7,3.32,1.68-.04-1.02,1.07-1.99,1.71,.39-.05,.96-.16,1.12-.13,.15,.03-.37,.23-.55,.24-.3,0-.44-.04-.65-.07-2.67,.75-2.76,1.1-3.29,1.49-.89,.65-2.26,1.22-5.46,2.05-4.41,1.09-4.47,1.18-9.4,2.01-.64,.11-1.6,.34-1.46,.17,.17-.21,1.15-.35,1.76-.54,3.04-.86,6.08-1.71,9.14-2.58,1.87-.56,4.56-1.27,1.7-.91-.61,.07-5.56,.74,1.97-1.43,.33-.1,.93-.52,1.09-.71,.41-.47,3.82-1.85,2.65-1.76-.55,.04-1.69,.39-3,.78-1.32,.38-2.81,.83-4.05,1.12-2.85,.66-8.35,2.77-8.46,3.23-.14,.62-1.34,1.48-4.39,2.65-.91,.35-.29,.59-2.33,.98-1.12,.21,.53-.5,.63-.73,.1-.22,.32-.53,1.22-.88,1.39-.54,.65-.37-.57-.1-1.24,.27-2.97,.72-3.26,.59-.91-.41-3.2,.26-5.3,1.04-1.92,.69-3.1,.98-4.74,1-2.2,.01-3.08,.69-4.57,1.07,.27,.04,.81,.03,.75,.14-.16,.29-1.52,.85,.82,.58,2.89-.33,2.93-.87,4.64-1.3l1.48-.36c.52-.27,1.03-.35,1.55-.32,5.31-.83,5.45-.84,2.72,.34-1.47,.64-2.71,1.19-2.54,1.54,.25,.51-.15,.62-5.18,1.57l-.04-.43c-1,.12-1.43,.09-.77-.18,.84-.34,1.42-.65-.17-.41-2.6,.39-4.7,.68-4.97,.29-.3-.44-5.17,.66-5.97,.41-.57-.17-1.08-.15-3.06,.33-.9,.21-2.23,.45-3.07,.55-2.11,.23-.23-.1,.46-.26,.58-.14,1.85-.34,.95-.35-1.37,0-8.31,1.09-8.59,1.38-.71,.73-3.65,1.02-6.13,1.39-2.88,.44-5.78,.86-8.66,1.23-3.25,.41-4.49,.74-3.43,1.02,.66,.18-.37,.38-1.9,.54-1.95,.21-4.11,.54-5.54,.39-1.15-.11-3.86,.11-3.91-.28-.05-.37-2.77-.09-4.68,.09-2.06,.2-2.05,.47-2.19,.7-.07,.11-.13,.23-.39,.35-.14,.07-.86,.22-1.07,.23-1.09,.04-.09-.17-.24-.24-.73-.32-3.03-.19-3.94,.21-1.79,.79-3.06,.55-4.21,.39-1.18-.17-1.87-.44-3.26,.25-.42,.21-1.18,.4-1.99,.53-.57,.11-1.34,.18-2.2,.22l-.73,.04h-.19c-.07,.03-.02-.09-.04-.13v-.38c-.02-.5-.03-1.01-.04-1.51-.01-.5-.04-1.34-.06-1.53-.19,.07-.08,1.14-.17,1.47-.14,.55-.26,1.18-.36,1.96l-.08,.61-.04,.33c.07,.02,.17,.02,.26,.03,.36,.02,.77,.04,1.24,.06,1.75,.05,1.49,.54,1.09,.94l-2.74,.4-.72,.1-.36,.05-.18,.02c-.06,0-.02-.09-.04-.14-.03-.45-.05-.91-.08-1.37-.09-1.87-.1-4.08,.06-6.02,.03-.33,0-1.09-.04-1.49-.06-.64-.14-1.18-.23-1.66,0-.05-.11,.51-.12,.89-.04,1.61-.09,3.05-.18,4.46-.09,1.58-.21,3.03-.4,4.25-.06-1.25-.13-2.52-.19-3.77-.03-.55-.06-1.1-.09-1.64-.03-.48-.07-.95-.1-1.42-.04-.47-.19-.58-.29-.66-.1-.07-.12,.35-.08,.89l-.09,1.67-.04,1.04-.04,1.24-.16,5.14c-.02,.63-.09,1,.09,.9,.04,0,.02,.02-.02,.03l-.1,.02h-.07s0-.03-.01-.05c-.02-.4-.06-1.15-.07-1.43-.06-.99-.13-2.15-.2-3.22-.05-.86-.08-2.69-.2-1.5-.04,.34-.03,1.66,0,2.4,.04,1.03,.07,2.05,.11,3.07l.03,.76c.01,.11-.01,.28,.04,.35l.39-.04,1.57-.15c2.08-.19,4.17-.36,6.37-.48,1.39-.07,1.58-.03,1.02,.19-.45,.18-.79,.31-.97,.41-.29,.1-.34,.16-.05,.17,.4,.04,1.51-.05,3.78-.21,1.83-.14,3.69-.24,5.42-.3,2.35-.11,4.16-.45,6.09-.76,1.41-.22,1.69-.61,1.93-.62,1.65-.06,.18,.34,.9,.43,.58,.08,1.55,.05,2.63-.16,1.35-.26,2.76-.53,3.78-.81,1.65-.45,2.55-.45,3.64-.38,.45,.03,1.27-.02,2.04-.19,1.01-.22,.89-.36,.84-.5-.05-.13-.16-.27-1.75,0-1.64,.28-3.21,.47-4.2,.37-.49-.05-1.42-.06-.69-.29,.52-.16,1.42-.23,2.2-.3,6.2-.57,6.21-.59,9.4-1.73,.14-.05,.26-.1,.36-.15,.45-.21,1.34-.4,2.47-.56,1.2-.16,2.04-.15,1.87,.02-.55,.57,2.37,.1,4.35-.12,2.55-.25,4.67-.65,6.21-1.22,2.71-.17,4.39-.62,5.58-1.18,.2-.09,.66-.22,1-.33,.16,.07,.34,.14,.46,.21,.04,.03-.07,.08-.17,.13-.43,.21-.81,.43,.72,.2,.97-.14,2.37-.37,2.1-.55-.26-.18,.92-.48,1.78-.76,.87-.29,1.28-.36,2.17-.35,2.2,.03,3.36-.23,4.79-.95,.53-.27,.81-.5,1.28-.76,.49-.27,1.1-.55,2.7-.88,1.83-.38,3.04-.48,3.54-.38,.37,.08,.27,.29,.36,.44-.94,.22-1.97,.4-2.48,.67-1.08,.57,.28,.61,.46,.91,.06,.11-1.07,.5,.56,.21,.58-.1,1.65-.41,1.93-.54,1.04-.5,2.31-.93,4.68-1.33,.47-.68,2.72-.78,4.26-1.13,1.01-.23,2.09-.52,3-.8,.86-.26,1.54-.54,2.31-.81-.75,.16-1.5,.3-2.25,.48-2.71,.68-4.39,.94-4.54,.53-.15-.41,1.15-.82,4.06-1.54,2.16-.53,2.49-.96,4.25-1.48,1.23-.37,1.28-.84,3.35-1.08,1.15-.13,.31,.22-.86,.66-2.42,.91-1.39,1.04-1.24,1.34,.16,.3,2.64-.27,4.51-.67,.52-.29,1.03-.43,1.54-.42,.39-.15,1.13-.4,1.12-.44-.09-.39-.08-.36,3.07-1.56,.51-.2,.34-.34,.85-.54,2.16-.88,3.81-1.83,7.42-2.7-1.31,.69-2.13,1.24-.82,1.16,.3-.02,.97,.08-.53,.41-4.13,.93-3.66,1.28-4.8,1.87,2.38-.6,5.11-1.26,6.9-2.18,1.93-1,2.34-.89,3.31-1.02,.44-.06,1.12-.19,1.9-.55,.54-.24,1.31-.64,1.16-.64-2.4-.03,1.78-1.86,5.3-3.61,2.82-1.46,2.74-1.42,5.91-2.26Zm5.18-4.55c.7-.34,1.18-.44,1.53-.46-.3,.2-.57,.42-1.07,.68-.96,.5-1.18,.44-1.16,.34,.02-.1,.3-.37,.7-.56Zm-122.75,28.4c.94-.08,2.15-.27,2.57-.14,.33,.1-2.67,.83-4.17,.98-2.2,.23-2.4-.05-2.44-.19-.1-.4,2.53-.44,4.03-.65Zm-12.86,1.55c.85-.09,1.29-.06,1.48,.03-.26,.06-.64,.18-.77,.18-.42,.01-.81,0-1.11-.03-.44-.03-.28-.11,.4-.18Zm4.46,.55c-.71,.27-1.43,.55-2.14,.82-1.17-.17-4.2-.01-3.92-.43,2.11-.16,4.29-.58,6.34-.51l-.28,.12Zm.13-.31c-.5-.27-2.42-.4-.32-.92,1.08,.21,2.48,.37,3.13,.63,.45,.18-1.33,.35-2.64,.47-.05-.06-.06-.13-.17-.19Zm9.69,1.44c-1.12,.16-.77,.48-3.18,.4-2.4-.07-4.1-.13-1.88-.76,.78-.07,1.59-.14,2.34-.23,1.37-.16,3.35-.63,3.7-.32,.23,.21,3.72,.2-.99,.91Zm4.52-1.1c-2.38-.17-1.28-.9-4.12-1.03-.53-.02-.25-.35,1.64-.55,1.08-.11,2.27-.16,2.2,0-.23,.48,1.72,.6,3.03,.83,.5,.09,.38,.31-1.19,.57-.47-.11-1-.03-1.56,.17Zm24.28-3.98c-1.71,.16-2.93,.17-2.97-.11-.05-.33,.77-.73,2.64-1.23,.62-.16,1.51-.25,1.76-.17,.83,.24-.61,.86,.77,1-.16,.24-1.23,.42-2.2,.51Zm1.58-2.72c.15-.06,.9-.19,1.35-.26,.74-.11,1.67-.23,1.31-.04-.49,.26,.55,.22,.73,.35l-2.65,.49c-.27-.18-1.67-.16-.75-.54Zm7.14-.58c-.77,.3-2.35,.72-3.62,.61,.93-.21,1.51-.4,1.65-.56,.25-.29,1.48-.57,3.11-.83-.33,.26-.36,.49-1.14,.79Zm1.22-.82c-.17-.03-.31-.06-.51-.08-.72-.07-1.44-.16-.13-.54,.64-.19,.01-.06,.38,0,.68,.09,3-.07,.26,.63Zm23.53-.63c-.26-.03-.26-.13-.34-.21,.73-.12,1.21-.15,1.16-.04-.04,.1-.65,.26-.82,.24Zm43.75-13.55c-.83,.31-1.83,.55-2.63,.72-.7,.16-.53-.02-.04-.28,1.21-.62,3.14-1.52,3.51-1.96,.33-.4,1.15-.75,2.97-1.41,2.66-1,1.01-.04,1.76-.23-.05,.21-.93,.83-2.06,1.48-1.13,.63-2.51,1.31-3.51,1.68Z"/><path class="cls-2" d="M62.42,326.74c.03-1.98-.02-4.48,.11-5.75,.1-.93,.44-.33,.68-.37-.06,6.17-.01,6.63,.7,4.95,.1-1.29,.25-1.75,.41-.56,.23,1.81,.38,1.76,.58,.11,.09-.68,.3-.42,.47-.52-.14,1.36-.27,2.7-.41,4.07-.04,.39-.1,1.03-.09,1.25,.07,.87,.18,.66,.27,.34,.24-.85,.5-1.62,.73-2.63,.21-.92,.16-2.7,.11-4.26-.06-1.67-.17-3.11-.45-2.67-.14,.22-.3,.38-.34-.98-.04-1.36,.14-1.48,.27-1.62,.3-.3,.02-2.8,.2-3.66,.19-.9,.35-2.17,.52-3.28-.25-1.79-.45,.19-.68-.21-.16-.28-.38-.54-.41-2.17-.06-3.16-.35-1.77-.54-2.19,.08-2.07,.5-3.61,.02-6.55-.18-1.11-.13-3.02-.18-4.6-.13-4.11-.67-7.04-1.22-6.64-.09,.06-.17,.71-.23,1.28-.09,.92,.05,1.62,.14,1.75,.25,.34,.36,2.92,.67,2.64,.24-.22,.29,1.77,.31,2.82,.03,1.39-.18,1.21-.3,1.04-.5-.72-.86,.9-1.21,2.77-.22-2.97-.56-4.97-.94-6.59,0,.75,0,1.52,.01,2.25-.01,1.04-.04,2.23-.23,1.81-.07-.16-.13-1.24-.17-1.95-.04-.72-.04-1.49-.05-2.25l-.37,2.82c.07-2.47-.37-5.55-.15-7,.25-1.57,.7-1.47,1.06-2.01,.1-.14,.21,.15,.32,.06,.14-.12,.29-.63,.24-1.88-.04-.94-.14-2.05-.25-2.61-.11-.57-.32-1.09-.41-.73-.54,2.32-.58-1.41-.78-3.76-.09-1.13-.06-2.03-.07-3.06,0-.93-.12-1.27-.23-1.3-.11-.03-.2,.25-.18,1.23,.04,1.04,.07,2.11,.11,3.14,.01,.82-.06,1.46-.19,1.27-.6-.84-.94-5.09-.68-8.49,.05-.63,.33-.24,.14-1.84-.05-.41-.2-.19-.31-.18-.6,.06-.52,5.19-.94,6.85-.32,1.27-.24,2.47,.26,4.01,.2,.62,.25,.96,.13,2.06-.07,.72-.2,1.32-.02,2.54,.71,5.02,.44,8.97,.02,12.86-.31,2.9-.28,3.71,.32,3.96,.6,.25,.61,4.15,.89,6.33,.18,1.45-.2,1.82-.23,3.27-.02,.8-.16,1.35-.24,2.01,.16,.67,.32,1.74,.48,1.9,.16,.16,.32-.54,.48-.89,.07,1.51,.15,3.02,.22,4.53l-.06,1.11,.14-.51c.07,.09,.2,.16,.2,.29,.06,2.48-.05,4.97,.13,7.46,.08,1.03-.04,1.66-.13,1.54-.24-.3-.57,1.23-.67-1.94-.07-1.97-.24-1.89-.4-1.67-.23,.32-.34,1.79-.33,3.38,0,1.78,.22,1.77,.4,1.91,.23,.19,.45,2.36,.69,.89,.28-1.68,.49-.26,.75,.95,.39,1.77,.75-.1,.76-3.68,0-1.01-.04-1.98,.11-2.45Zm-2.17-29.84c.02-.53,.09-.39,.17-.18,.12,.32,.25,.44,.38,.64-.07,1.19-.21,1.62-.39,1.16-.09-.24-.19-.73-.16-1.62Zm2.66,13.97l.02-1.3c0-.42,.02-.75,.03-.75,.32,.03,.51-.92,.5-3.43,0-1.57-.04-3.34,.23-3.6,.36-.34,.37,2.06,.48,3.64,.08,1.14,.23,1.1,.37,1.26,.14,1.84,.33,3.66,.1,5.58-.08,.64-.07,2.07-.27,1.38-.32-1.09-.6-.86-.9,.03-.3,.9-.35-2.26-.58-2.8Z"/><path class="cls-2" d="M241.47,294.79c.5-.45,1.39-1.2,2.18-1.81,1.42-1.08,3.43-2.56,4-3.27,.45-.56-1.59,.77-1.17,.07,.2-.33-.55,.01-.88,.06-1.72,1.22-2.65,1.59-2.73,1.28-1.5,1.17-1.69,1.65-2.05,2.08-.79,.99-2.86,1.4-2.96,2.19-.04,.28-.23,.65-1.06,1.42-.87,.81-1.94,1.65-3.14,2.47-1.2,.84-2.53,1.68-3.91,2.49-1.8,1.09-3.65,2.07-5.46,3.01-1.35,.67-2.74,1.18-3.96,1.96-2.08,1.3,.92-.12,.63,.21-.15,.17-.63,.57-1.17,.87-1.03,.61-2.29,1.26-3.29,1.85-1.26,.77-2.33,1.43-1.34,1.23,1.02-.21,2.63-1.11,3.7-1.78,1.63-1.01,2.92-2.01,4.29-3,.64-.47,1.23-.89,2.33-1.4,.9-.43,1.44-.61,1.52-.49,.05,.08-.28,.39-.47,.61-.67,.78-.61,.97,2.45-.95,1.72-1.13,3.62-2.25,4.24-2.17,.47,.06,1.7-.95,2.57-1.58,.84-.61,1.46-1.17,.9-.98-.31,.11-.88,.4-1.44,.67-.89,.45-2.35,1.29-1.71,.64,.52-.54,2.04-1.49,2.98-2.04,2.35-1.3,3.63-2.41,4.94-3.66Z"/><path class="cls-2" d="M62.93,270.87c-.22-2.85-.59-4.01-.95-5.35-.41-1.51-.4-1.65-.07-4.54,.05-1.06,.12-1.12,.21,.04,.2-.43,.44-1.49,.47,1.7,.41-.87,.91-.13,1.21-2.67,.14,.07,.28,.11,.43,.18,.15,.07,.32-.02,.35-.96,.04-1.35-.12-2.42-.29-3.3-.56-2.81-.6-4.13-.18-6.78,.09-.6,.25-.69,.24-1.94,0-.73-.04-1.59-.09-2.22-.07-.79-.19-.92-.28-.42-.1,.59-.21,1.18-.27,1.99-.44,5.86-1.18,7.62-2.16,6.21-.14-.2-.28-.04-.42-.1-.47-.18-.44,2.05-.34,4.67,.1,.4,.26-.1,.29,1.28,0,.16-.16,.25-.25,.38,.14,1.54-.33,4.45,.3,4.9,.12,2.58-.24,2.91-.32,4.6,.34,.29,.69-.28,1.02,1.15,.39,1.71,.75,1.2,1.12,1.2Z"/><path class="cls-2" d="M62.73,250.12c.31-1.37,.59-2.89,.52-6.27-.44-3.84-.89-7.67-1.33-11.5-.1,1.58-.24,1.69-.42-.16-.21-.01-.42-.13-.62,0-.09,.06-.19,.5-.12,1.53,.03,.45,.1,.99,.15,1.15,.1,.28,.22,.44,.32,.41,.34-.1,.53,.35,.42,3.44-.05,1.47,.03,3.55,.31,4.68-.32,2.71-.85,.67-1.26,1.31-.09,.14-.12,.48-.07,1.04,.04,.44,.13,1.17,.15,1.12,.5-1.21,.93,.87,1.36,3.19,.21,1.14,.4,.84,.58,.06Z"/><path class="cls-2" d="M52.04,19.55c.09-.08,.22-.6,.2-.94-.05-1.18-.26-2.25-.35-2.08-.22,.45-.35,.19-.45-.51-.05-.29-.09-.95-.13-1.67-.03-.72-.07-1.55-.11-2.45-.02-.74-.2-1.65-.27-2.49-.1,3.15-.34,4.2-.75,3.42-.16-.31-.24-.08-.25,.66,0,.37,0,.87,.03,1.48,.03,.73,.06,1.08,.1,1.6,.08,.97,.09,2.11,.16,3.14,.12,1.84,.9,6.56,1.07,6.33,.28-.36,.43-1.59,.37-4.11-.05-1.92,.16-2.19,.38-2.39Z"/><path class="cls-2" d="M99.68,8.25c-.08,.13,.03,.29-.99,.35-1.17,.07-1.9-.05-2.24-.19-2.13,.21-3.57,.48-3.66,.82-.04,.17-.07,.34-1.38,.54-.18,.23-.37,.45,1.96,.3,1.95-.1,3.31-.26,4.81-.53,2.84-.49,1.24,.1,2,.11,.62,.02,1.41,0,2.13-.02-.19-.32,.9-.61,2.54-.92,1.26-.21,1.27-.42-.91-.43-1.43-.01-2.84-.02-4.26-.04Z"/><path class="cls-2" d="M62.27,195.52c0,.25,.09,1.04,.15,1.24,.05,.17,.17,0,.17-.22,.03-3.56,.62-5.51,.22-9.8-.06-2.08-.07-3.72-.16-5.24-.11-1.95-.35-3.42-.63-3.25-.25,.15-.23,1.83-.2,3.49,.07,4.58,.59,9.2,.45,13.78Z"/><path class="cls-2" d="M286.73,238.4c-.35,1.16-.31,1.7-.94,3.3-1.71,4.42-1.68,4.41-.13,2.28,.44-.6,.88-1.28,.99-1.04,.12,.26,.69-1.03,1.07-1.98,.29-.76,.53-1.61,.28-1.27-1.19,1.61-.77-.44-.45-2.27,.07-.4,.06-.64,.08-.9l-.45,.56c-.15,.45-.34,.95-.45,1.33Z"/><path class="cls-2" d="M62.65,231.74c.15,.48,.28,1.03,.35-.16,.07-1.12-.02-1.75-.15-2.59-.21-1.29-.38-2.88-.64-3.65-.49-1.43-.81-.1-.79,3.66,0,1,.05,2.05,.08,3.08l.43,.15c.17-1.95,.45-1.43,.73-.49Z"/><path class="cls-2" d="M59.5,216.3c.07-.38-.02-1.87-.07-1.63-.41,2.19-.42-1.7-.58-2.77-.19-1.2-.35-1.49-.62-.67-.12,.34-.27,.26-.41,.32-.2,.08-.34,.85-.29,2.26,.05,1.43,.31,2.04,.46,2.21,.38,.4,.72-1.16,1.12,1.27,.15-.36,.29-.48,.39-.99Z"/><path class="cls-2" d="M290.02,231.5c-.4,1.51-.62,2.75-.2,2.24,.58-.73,1.41-2.02,2.12-3.44,.41-.8,.69-2.13,.63-2.33-.09-.33-.41-.02-.24-1.15-.09-.02-.17-.09-.29-.05-.5,.17-1.43,4.04-2.03,4.73Z"/><path class="cls-2" d="M201.37,317.97c-.1,.44-.09,.86-.9,1.56-.85,.75,1.13,.17,3.14-.52,.94-.31,3.48-1.69,2.93-1.55-3.35,.95-.8-.84-3.72-.09-.48,.2-.97,.39-1.45,.59Z"/><path class="cls-2" d="M61.45,214.47c.33,.11,.44,.22,.54,.16,.13-.07,.28-.24,.24-1.6-.02-.82-.12-1.26-.23-1.62-.1-.34-.19-1-.3-1.29-.33-.95-.64-1.11-.81,.97-.03,.3-.03,1,0,1.34,.22,2.34,.51,2.01,.55,2.04Z"/><path class="cls-2" d="M207.77,315.1c-1.57,.81-1.68,1.12-.32,.68,1.75-.55,4.36-1.77,5.81-2.15,.55-.13,1.15-.55,1.57-.88-.51,.05-1.02,.08-1.69,.19-1.19,.21-3.03,.98-5.37,2.16Z"/><path class="cls-2" d="M279.36,254.03c.23,.4-1.38,3.25-1.16,3.61,.82-1.46,1.47-2.81,2.58-4.45,.82-1.17,1.33-2.28,1.11-2.36-.13-.04-.4,.17-.28-.33,.17-.71-.22-.3-1.06,1.09-.59,.98-1.25,2.3-1.18,2.43Z"/><path class="cls-2" d="M63.87,214.19c-.29-1.14-.36-2.85-.4-4.76-.02-.97-.04-2.42-.18-2.63-.09-.13-.16,1.22-.25,1.84-.09,.63-.21,2.07-.06,2.26,.56,.74,.31,3.69,.46,5.45,.09,1.04,.18,2,.33,1.79,.13-.17,.23-.79,.25-1.88,0-.83-.05-1.65-.15-2.06Z"/><path class="cls-2" d="M285.69,108.17c.16,.31,.33,.67,.47,.92,.37,.66,.71,1.15,.62,.37-.04-.32-.31-1.29-.52-1.92-.66-1.82-1.03-2.28-1.29-2.33-.08-.02-.15,0-.23,0-.1,.17-.42-.2-.25,.71,.4,.75,.82,1.49,1.19,2.25Z"/><path class="cls-2" d="M217.18,308.09c.13-.54-2.13,.51-3.32,.86-.71,.21-1.19,.71-1.5,.97-.77,.63,1.01-.07,1.6-.16,.34-.05,.58,.09,1.92-.71,.84-.5,1.31-.87,1.3-.96Z"/><path class="cls-2" d="M63.26,285.73c.1,1.55,.29,1.55,.46,1.52,.19-.04,.42,1.81,.55,0,.03-.49,0-1.65-.07-2.18-.13-1.16-.32-1.07-.54-1.36-.09,.19-.22,.39-.33,.79-.04,.16-.08,.91-.06,1.23Z"/><path class="cls-2" d="M67.93,6.72c.22-.23-.6-.52-1.26-.43-1.63,.23-3.32,.62-3.16,.75,.27,.22,1.77,.28,2.75,.4l1.67-.73Z"/><path class="cls-2" d="M57.22,112.73c.04,1.66,.16,3.18,.36,4.36,.08,.46,.2,.56,.3,.63,.02,.02,.02-.78,.02-.88-.08-1.62-.14-2.93-.2-4.22-.08-1.31-.02-3.59-.32-3.58-.22,0-.19,2.1-.15,3.69Z"/><path class="cls-2" d="M236.52,294.49c-.26,.02-.92,.46-1.44,.81-2.42,1.62-3.9,2.79-3.75,3.18,.02,.05,.5-.2,.77-.31,1.5-1.19,2.97-2.43,4.42-3.68Z"/><path class="cls-2" d="M59.99,256.09c-.11-.46-.22-.03-.23,.73-.01,.91,.12,1.51,.21,1.6,.28,.28,.55,.37,.83,.53l-.02-1.53c-.25-3.39-.53-.21-.79-1.34Z"/><path class="cls-2" d="M56.02,38c.16,.02,.34,.18,.49-.03,.12-.18,.23-1.01,.17-2.05-.07-1.07-.24-1.16-.38-1.26-.34-.25-.64-.18-.28,3.34Z"/><path class="cls-2" d="M59.73,335.97c-.06-.5-.12-.64-.18-.25-.04,.31-.09,.68-.13,1.06-.04,1.03,.03,1.55,.11,2,.08,.28,.19,1.2,.23,2.56,.05,1.97,.08,5.89,.3,4.45,.18-1.15-.1-3.85-.11-6.11,0-.4-.01-.78-.02-1.16l-.05-.9c-.04-.58-.1-1.13-.16-1.64Z"/><path class="cls-2" d="M66.27,340.01c.12-.02,.22-.3,.22-.63,0-.14-.02-.7-.05-1.06-.03-.37-.08-.68-.13-.97-.1-.58-.21-1.06-.29-1.77-.07-.69-.08,.76-.11,1.27v1.42c.01,.43,.03,.95,.05,1.08,.04,.42,.13,.68,.31,.66Z"/><path class="cls-2" d="M281.95,103.3c.12-.13,.49,.2-.17-1.57-.42-1.14-.64-1.17-.83-1.2-.1,.11-.45-.2,.22,1.58,.43,1.16,.67,1.31,.78,1.19Z"/><path class="cls-2" d="M63.6,199.24c.07,.07,.12-.53,.12-1.3,0-1.38-.31-3.28-.47-2.9-.1,.23-.13,.89-.1,1.73,.06,1.48,.18,2.43,.45,2.46Z"/><path class="cls-2" d="M222.51,304.58c-.23-.08-1.12,.37-2.07,.89-1.12,.62-1.6,.98-1.6,1.15,0,.16,.46,.12,1.6-.53,1.18-.66,2-1.25,2.07-1.52Z"/><path class="cls-2" d="M59.83,132.84c.18,.77,.38,.62,.4-.9,.02-1.18-.01-2.56-.15-3.87-.06-.59-.12-.78-.24-.31-.19,.23,0,1.83,0,2.97,0,.76-.31,.85-.02,2.11Z"/><path class="cls-2" d="M226.36,302.64c.61-.56,1.1-1.04,1.62-1.57l-.44,.06c-.37,.25-.9,.57-1.09,.74-.67,.58-1.27,1.12-1.79,1.64-.13,.13-.03,.19,.2,.09,.69-.31,1.22-.71,1.49-.96Z"/><path class="cls-2" d="M192.93,322.88s.81-.19,1.17-.33c1.72-.66,2.26-1.07,2.35-1.33-.36,.03-1.11,.22-1.68,.47-1.28,.57-1.87,.99-1.83,1.19Z"/><path class="cls-2" d="M61.33,250.36c-.03-.96-.25-.82-.38-.87-.18-.07-.35-.09-.52-.08-.03,0-.05,.27-.07,.42,.04,.31,.08,.81,.12,.9,.1,.22,.21,.26,.28,.33,.1-.01,.17-.01,.24-.03,.13-.03,.36,.19,.33-.67Z"/><path class="cls-2" d="M61.95,151.67c.19,.65,.22-.41,.18-1.47-.04-1.11-.15-2.02-.29-1.26-.11,.59-.31,.62-.26,2.28,.14,1.38,.23-.02,.37,.45Z"/><path class="cls-2" d="M254.84,63.89c.58,.61-.74-.32,.61,.92,.46,.44,.98,.72,1.21,.79,.11,.03-.3-.61-.61-.94-1.03-1.07-.86-.62-1.2-.76Z"/><path class="cls-2" d="M64.85,340.07c0-.32-.03-.61-.06-.83-.03-.23-.08-.44-.14-.47-.11-.08-.18,.16-.23,.53-.05,.36-.07,.9-.07,1.53,0,.32,.16,.63,.23,.86,.16-.29,.3-.51,.27-1.62Z"/><path class="cls-2" d="M258.85,277.56c.46-.6,.91-1.29,0-.51-.42,.34-1.02,.94-1.56,1.44,.02,.07,0,.18,.1,.18,.14,0,.37-.09,.56-.13,.3-.33,.7-.74,.89-.98Z"/><path class="cls-2" d="M260.21,69.81c-.24,.03,.09,.61,1.06,1.76,.28,.35,.58,.68,1.04,1.22-.53-.95-1.05-1.81-1.6-2.66-.17-.11-.43-.33-.5-.32Z"/><path class="cls-2" d="M101.99,344.51c-.18,.17,0,.27,1.17,.17,.91-.09,1.46-.24,1.68-.37,.34-.2-.38-.2-1.34-.13-1.06,.08-1.23,.21-1.51,.34Z"/><path class="cls-2" d="M62.03,200.9c.06,1.01,.16,1.94,.32,1.89,.03-.01,.05-.82,.04-1.28-.02-1.01-.06-2.09-.25-2.22-.11,.23-.16,.81-.11,1.62Z"/><path class="cls-2" d="M64.52,241.72c.15,.23,.17-.56,.14-1.34-.03-.71-.1-1.65-.17-2-.11-.49-.21,.09-.22,.85-.01,1.17,.1,1.98,.25,2.49Z"/><path class="cls-2" d="M292.25,125.94c.19,.38,.31,.47,.12-.47-.25-1.04-.44-1.37-.56-1.4-.1-.03-.11,.33-.15,.52,.2,.46,.41,1,.59,1.36Z"/><path class="cls-2" d="M59.1,230.06c-.11,.17-.1,.66,.01,.9,.13,.27,.27,.29,.4,.3,.04,0,.07-.38,.12-.68-.21-.82-.37-.75-.53-.51Z"/><path class="cls-2" d="M274.63,89.48c.21,.17,.09-.32-.23-1.02-.42-.95-.56-.94-.7-1-.05,.12-.21,.09,.35,1.16,.2,.37,.47,.77,.57,.86Z"/><path class="cls-2" d="M227.82,306.66c-.02,.12,.28,.08,1.21-.51,.63-.4,1.01-.71,.96-.79-.3,.04-.81,.21-1.48,.63-.38,.24-.66,.56-.69,.67Z"/><path class="cls-2" d="M69.85,348.48c-.33,.18,.29,.24,1.54,.12,.73-.07,1.33-.18,1.36-.3,.02-.11-.41-.14-1.22-.1-.94,.05-1.5,.18-1.68,.28Z"/><path class="cls-2" d="M59.01,313.15c-.08,.22-.1,.72-.05,1.29,.06,.72,.15,1.25,.25,.76,.04-.21,.04-.84,.06-1.22-.06-.85-.15-1.12-.26-.83Z"/><path class="cls-2" d="M145.55,10.95c.06,.05,.6,.17,.94,.2,.81,.07,1.47,.07,1.32-.07-.06-.05-.62-.14-.93-.2-.91-.08-1.49-.07-1.33,.07Z"/><path class="cls-2" d="M63.92,220.62c-.04,.07-.08,.76-.06,1.14,.03,.79,.12,1.44,.23,1.17,.04-.11,.05-.75,.07-1.09-.04-.96-.13-1.41-.23-1.22Z"/><path class="cls-2" d="M59,255.33c-.09-.07-.19,.1-.28,.16,.07,1.34,.22,1.47,.33,1.95,.12,.52,.19,.09,.18-.73-.01-.87-.12-1.3-.23-1.38Z"/><path class="cls-2" d="M243.83,293.77c1.05-.82,1.02-.98,.96-1.11l-.64,.31c-.37,.42-.78,.86-1.08,1.23-.04,.04,.55-.27,.76-.44Z"/><path class="cls-2" d="M57.62,61.63c0-.46,.03-1.02,0-1.36-.04-.36-.14-.73-.2-.71-.1,.02-.1,.58,0,1.12,.06,.38,.14,.64,.2,.95Z"/><path class="cls-2" d="M51.46,33.62c-.06-.06-.1,.33-.15,.51l.26,.9c.07-.28,.12-.47,.17-.66-.1-.27-.2-.65-.29-.75Z"/><path class="cls-2" d="M57.85,242.24c-.09,0-.17,.3-.25,.47,.06,.27,.12,.74,.17,.76,.09,.04,.17-.2,.28-.35-.09-.41-.15-.88-.2-.88Z"/><path class="cls-2" d="M300.54,185.42c.04-.08,.07-.54,.11-.83-.09-.15-.17-.39-.26-.42-.03,0-.08,.49-.11,.7,.06,.78,.15,.74,.26,.55Z"/><path class="cls-2" d="M285.06,236.35c.44-1.15,.55-1.71,.41-1.81-.05-.04-.23,.17-.37,.46-.42,.89-.42,1.2-.38,1.33,.05,.14,.22,.02,.33,.02-.44,1.23-.29,1.06,.14,.18l-.14-.18Z"/><path class="cls-2" d="M107.41,342.09c-.07,.09-.28,.25,.8,.08,.2-.03,.34-.17,.51-.25l-.57-.1c-.26,.09-.69,.21-.74,.28Z"/><path class="cls-2" d="M58.08,106.6c.05,.11,.13-.27,.13-.62,.01-.63,0-1.37-.02-2.08-.07,.35-.15,.63-.2,1.08-.06,.51-.06,1.27,.09,1.61Z"/><path class="cls-2" d="M300.58,175.59c.11,.29,.2-.09,.17-1.04-.03-.75-.11-1.55-.23-1.58-.04,0-.07,.53-.1,.82,.02,.84,.06,1.54,.16,1.8Z"/><path class="cls-2" d="M264.93,279c.17,0,.75-.57,1.2-1.16,.21-.29,.21-.4,.3-.6-.21,.08-.51,.41-.89,.9-.25,.33-.67,.86-.61,.86Z"/><path class="cls-2" d="M58.78,248.79c-.08-.03-.19-.05-.15,.9,.01,.23,.12,.37,.19,.59,.05-.23,.19,.05,.14-.95-.01-.25-.12-.52-.18-.54Z"/><path class="cls-2" d="M254.81,280.65c-.08,0-.4,.26-.58,.38-.55,.62-.39,.62-.28,.65,.04,0,.33-.2,.39-.26,.61-.63,.63-.79,.47-.77Z"/><path class="cls-2" d="M60.77,268.62c-.13-.05-.28-.32-.32,.7-.01,.22,.16,1.5,.22,1.47,.17-.08,.1-1.29,.1-2.17Z"/><path class="cls-2" d="M298.23,151.22c-.02,.62-.04,1.26-.06,1.85-.02,.57-.13,1.2,.08,2.2,.12,.61,.33,.7,.46,.69,.24-.02,.18-1.65,.06-3.04-.19-2.18-.37-1.66-.54-1.77-.13-.76-.24-1.57-.38-2.26-.07-.36-.23-.78-.26-.68-.1,.31,.04,1.1,.2,1.67,.15,.53,.29,.89,.44,1.33Z"/><path class="cls-2" d="M103.24,343.53c.37,.05,1.15-.04,1.87-.17,.35-.06,.6-.16,.86-.22-.38-.06-1.16,.05-1.86,.17-.35,.06-.92,.22-.86,.22Z"/><path class="cls-2" d="M296.95,144.67c.09,.03,.19,0,.02-.94-.04-.23-.17-.37-.25-.56-.06,.14-.2-.01-.02,.94,.05,.26,.19,.53,.25,.55Z"/><path class="cls-2" d="M256.92,284.46c.1,.04,.52-.24,1.15-.85,.23-.23,.36-.45,.63-.77-.47,.36-.91,.7-1.35,1.04-.15,.21-.47,.57-.43,.59Z"/><path class="cls-2" d="M290.02,235.72c.13-.2,.25-.33,.4-.61,.21-.39,.38-.87,.41-1.16,.05-.45-.15-.09-.44,.55l-.37,1.22Z"/><path class="cls-2" d="M137.28,338.84c-.04,.07,.29,.07,.46,.09,.33-.1,.9-.24,.93-.29,.05-.07-.3-.06-.48-.09-.33,.1-.89,.24-.91,.28Z"/><path class="cls-2" d="M294.98,142.28c-.26-1.43-.32-.89-.46-1.08l.27,1.46c.08-.12,.22-.23,.19-.38Z"/></g></svg>