<svg id="Handschrift" xmlns="http://www.w3.org/2000/svg" viewBox="0 0 350 350"><defs><style>.cls-1{fill:#010101;}</style></defs><path class="cls-1" d="M145.32,56.39c.54-1.54,1.11-3.17,1.6-4.19-.46,1.46-1.01,3.11-1.36,4.34-.39,1.36-.61,2.43,.48-.66,1.16-3.29,1.55-3.79,1.93-4.26,.25-.31,.4-.22,1.13-2.27,.78-2.16,.61-2.24,.66-2.71,.08-.81,.52-2.41,1.2-4.49,1.17-3.61,2.34-7.39,4.1-10.09,.77-1.21,2.15-4.64,3.32-7.41,1.18-1.91,2.49-4.93,3.65-7.81,.27-.67,.51-1.26,.73-1.79l.15-.37,.07-.18-.19-.04-.71-.14c-.88-.17-1.5-.3-2.01-.43-1.02-.25-1.56-.54-2.85-1.04,1.38,.32,2.71,.63,4.02,.93,.66,.14,1.31,.28,1.96,.42l.24,.05s-.05,.14-.06,.21l-.19,.45-.38,.89c-.99,2.39-1.95,4.71-2.92,7.06-.06,.37-.06,.8-.19,1.07-.93,2.07-.65,1.02-.93,1.41-1.55,3.65-2.94,6.54-4.34,9.48-.53,1.08-.95,2.19-1.31,3.28-.55,1.69-.27,1.37-.07,1.23,.33-.23,2.2-4.77,1.48-2.11-.57,2.11-1.63,5.53-.09,2.19,.52-1.12,.9-2.04,1.2-2.82,.31-.77,.54-1.41,.72-1.99,.36-1.15,.54-2.05,.94-3.26,.31-.92,.55-1.74,.92-2.77,.67-1.85,1.36-3.25,1.69-3.64,.4-.5,.91-1.07,.63-.18-1.3,4.21,1.4-1.48,2.44-2.95,.15-.21,.29-.43,.43-.66l.11-.17,.15-.29,.31-.59c.41-.8,.82-1.65,1.22-2.53,.81-1.75,1.57-3.58,2.3-5.35-1.94-.42-3.97-.75-5.78-1.13-.92-.18-1.8-.37-2.65-.56-.41-.09-.81-.18-1.21-.27-.26-.07-.52-.13-.77-.2-.17-.05-1.38-.21-2.1-.32,.83,.28,2.05,.62,2.36,.81,.39,.23-1.21,.04-2.94-.26-4.09-.66-7.02-.95-9.46-.93-1.01,0-2.13-.12-3.21-.26-1.09-.12-2.14-.3-3-.46-1.22-.22-1.19-.49-3.62-.66-.36,.1-.08,.29-2.13,.17-1.18-.08-2.04-.3-3.06-.41,1.67,0,3.35,.15,5.02,.21-1.48-.31-3.22-.49-5.23-.23-3.65,.14-6.8,.52-9.62,.92-2.24,.4-4.42,.42-5.63,.3-.47-.04-.47-.15-.53-.25-.09-.13,.12-.36-1.43-.19-1.5,.17-1.26,.37-1.7,.55-.9,.34-2.39,.85-2.93,1.21-.72,.5-2.57,.82-6.81,1.58-.61,.1-1.22,.21-1.69,.31-.47,.12-.8,.23-.85,.31-.04,.07,.29,.02,.77-.07,.49-.08,1.15-.19,1.77-.29,.84-.14,4.4-.77,1.4-.11-1.55,.35-2.51,.59-3.12,.78-.6,.22-.84,.36-.98,.47-.27,.23-.08,.36-1.33,.79-.93,.32-1.17,.65-2,.52-.7-.13-2.04,.31-3.51,.79-.73,.25-1.5,.51-2.23,.75-.72,.27-1.39,.53-1.97,.7-1.44,.35-3.2,.84-4.7,1.5-1.53,.63-2.79,1.25-3.28,1.64-.09,.52-.11,1.14-.23,1.75-.04,.29-.11,.65-.2,1.07-.09,.4-.19,.82-.3,1.27-.44,1.8-1.08,4-1.96,6.7-.98,3.08-1,3.87-.79,3.98,.43,.2-.75,3.84-2.01,7.62-.68,.34-.92-.74-1.05-1.96-.13-1.28-1.91,2.3-.62-3.19,.35-2.52,2.45-9.87,2.09-10.77-.08-.2,.12-1.31-.42,.01-.54,1.3-1.13,2.71-1.64,4.93-.71,3.14-1.6,5.66-2.72,8.46-1.45,3.52-2.96,8.38-4.43,12.68-1.32,3.92-1.14,4.44-1.49,6.21-.42,2.09-1.44,3.13-2.15,6.03-.78,3.16-1.67,5.78-3.06,9.13-.48,1.16-.9,3.11-1.1,4.21-.65,2.01-1.37,4.12-1.93,5.99-.84,2.88-1.26,4.14-1.13,2.82,.08-.75-.07-.69-.64,.8-.71,1.86-.95,3.11-1.21,4.23-.61,2.74-1.15,5.23-1.28,6.77-.18,2.55-.96,5.16-2.7,9.84-.3,.82-.52,1.22-.82,2.05-.8,2.11-1.92,6.21-2.84,9.97-.88,3.77-1.5,7.2-1.45,7.92,.2,1.99-.83,6.31-1.59,10.49,.54-1.71,1.29-5.2,1.93-7.62,.34-1.28,.67-1.77,.32-.05-.98,4.71-.38,3.18-.37,3.92,.01,.61,.12,.8,.18,1.18-.32,1.15-.64,2.54-.92,3.41-1.05,3.38-2.42,10.19-3.33,12.41-.87,5.66-1.72,8.36-2.52,12.5-.41,1.49-.67,.81-1.22,4.78-.74,5.59-1.86,11.57-1.76,16.84,.06,2.53-.05,4.39-.4,7.15-.12,.47-.95,8.98,.04,6.07,.24-.73,.3,3.67,.59,3.89,.19,.16,.24,2.8-.04,3.49-.29,.74-.27,2.88-.04,5.58,.14,1.7,.27,2.95,.19,5.54-.09,3.13-.17,6.35-.11,9.75,.04,1.7,.07,3.44,.11,5.24,.09,1.8,.19,3.64,.29,5.55,.22,3.95,.13,4.22-.09,4.43,.06,.83,.11,1.66,.17,2.48,.23,.08,.42-.03,.5-1.03,.1-.99,.04-2.87-.04-6.32-.06-1.95,.04-3.26,.1-4.85,.08-1.59,.13-3.46-.04-6.53-.05-.85,.12-1.2,.23-.82,.12,.39,.23,1.09,.21,2.74-.03,2.35,0,4.88,.22,7.45,.2,2.29,.35,4.44,.62,6.65l-.65,.91c.06,.87,.12,1.75,.18,2.61,.3,2.7,.54,4.16,.61,5.19,.07,1.02,.01,1.59-.13,2.49l.27,2.63,.37,2.63c.7,2.63,2.04,11.61,3.03,12.8,.26,.32,.89,2.37,1.44,4.77,.34,1.61,.58,2.35,.58,2.72,.02,.37-.1,.34-.21,.35-.1,0-.2,.02-.4-.29-.17-.32-.53-.94-.89-2.27-.21,.11-.88-1.94-1.31-2.86-.69-1.49-1.04-1.83-1-.83,.02,.5,.14,1.33,.35,2.51,.22,1.19,.5,2.74,1.09,4.62,.23,.77,.52,1.75,.83,2.8,.34,1.04,.61,2.17,1.04,3.17,.8,2.02,1.51,3.74,1.73,4.04,.37,.51,.72,1.16,1.07,1.9,.4,.72,.81,1.53,1.2,2.37,.82,1.67,1.54,3.53,2.39,4.98,.99,1.67,2.23,3.78,3.32,5.62,1.17,1.79,2.32,3.25,2.86,3.78,1.02,.94,1.74,1.88,2.43,2.86,.75,.93,1.44,1.93,2.31,3.04,1.18,1.47,2.43,3.22,3.95,4.69,1.64,1.71,2.14,2.07,1.92,1.6-.21-.47,.24-.22,1.07,.48,.86,.69,1.97,1.88,3.55,3.16,3.2,2.77,8.3,5.48,9.85,7.13,2.7,1.84,6.06,3.7,9.32,5.26,4.26,2.02,3.61,1.84,2.41,1.54-.47-.12-.53-.03-.61,.05-.16,.16,.85,.75,2.23,1.47,1.4,.68,3.15,1.52,4.49,2.11,3.15,1.43,2.48,.84,3.11,.94,.56,.08,1.43,.15,2.53,.68,3.4,1.59,7.31,2.38,10.63,3.19l.91,.2c.33,.06,.62,.15,1.04,.17,.76,.06,1.65,.13,2.23,.13,1.01-.02,1.72,.01,1.5,.19-.15,.12-.83,.41,1.99,.09,1.78-.2,3.31-.52,2.82-.6-1.62-.29,1.07-.48,4.33-.77,1.29-.13,2.94-.14,2.52-.02-4.1,1.13,2.64,.14,3.98-.25,1.8-.47,3.43-.82,5.04-1.11,1.6-.32,3.18-.6,4.91-.88,2.54-.38,4.54-.91,6.02-1.3,1.47-.42,2.39-.79,2.69-1.15,.23-.27,1.53-.76,4.17-1.48,2.13-.56,2.62-.63,3.04-.6,1.13,.05,3.88-.96,4.16-1.27,.33-.36,.15-.39,2.93-1.16,1.17-.32,2.18-.41,3.39-.93,5.08-2.32,11.55-5.09,16.74-7.94,2.09-1.08,2.85-1.81,6.19-3.25,2.83-1.23,3.98-1.67,2.29-.45-1.12,.79-.98,.89,1.57-.37,2.08-1.03,4.12-2.12,6.12-3.32l3.03-1.76c1.01-.6,2.03-1.2,3.06-1.81,.71-.41,1.25-.93,.46-.57-.43,.2-1.21,.63-1.71,.87-2.26,1.09-1.86,.52,.43-1.01,2.87-1.91,1.52-.66,2.78-1.32,1.8-.97,1.81-1.21,1.85-1.31,.15-.42,1.3-1.19,2.67-2.05l1.6-.99c.28-.17,.53-.34,.74-.52,.66-.57,.91-.99,1.09-1.33l.14-.24,.08-.12s.06-.08,.07-.06c.08,.03,.18,.17,.33,.51,.67,1.57,.88,2.01,1.41,3.06,.41,.75,.6,.85,.87,1.11,.16,.16,.58,.88,1.06,2.38,.4,1.21,.46,1.83,.15,1.2-1.21-2.32-.92-1,.18,2.95-.77-.95-.18,2.37-2.13-2.25-.57-1.29-.03,.78,.61,2.99,.84,2.9,1.66,5.98,2.24,7.83,.16,.54,.33,1.08,.5,1.63,.08,.28,.16,.56,.24,.84l.12,.45,.19,.83c.47,2.19,.92,4.39,1.35,6.59,2.29-.27,4.63-.55,7.04-.84l.87-.1,.52-.08,1.05-.16c.7-.1,1.41-.21,2.13-.32,2.86-.44,5.84-.91,8.92-1.43,.26-.04,.34-.1,.49-.15-1.73,.18-3.21,.27-3.15,.13,.1-.22,2.52-.45,3.9-.64,3.97-.54,7.17-.9,9.52-1.04-2.53,.54-5.05,.95-7.55,1.17,.22,.19-1.96,.88,4.22-.09,2.41-.38,4.74-.72,7.2-1.26,4.19-.95,8.31-1.94,13.15-2.77,1.77-.32,4.62-1.08,4.93-1.38,.31-.26-2.07,.14-4.03,.65-6,1.57-7.29,1.56-7.48,1.16-.11-.22-2.43,.04-1.92-.32,3.22-.67,6.7-1.51,3.3-1.11-4.57,.46,1.4-1.48-7.07-.14-.09,.01,.68-.32,1.12-.5,1.15-.45,5.04-1.47,2.24-1.21-2.94,.26-5.86,.98-8.63,1.64-.3,.07-.78,.18-1.17,.24-3.65,.57-4.54,.21-7.87,.8-2.55,.45-.16,.6-4.52,1.29-.4,.06-.8,.15-1.17,.19-2.63,.29-4.64,.59-6.42,.87-1.68,.29-3.16,.54-4.77,.81-.53,.08-1.07,.19-1.48,.21-.32-1.4-.53-2.37-.61-3.05-.07-.68-.03-1.07,.1-1.55,.14-.51-.05-2.28-.37-4.2-.31-1.92-.74-3.98-.86-5.1-.05-.51-.63-1.98-1.01-2.96-.51-1.34-1.29-3.2-1.66-4.29-.28-.8-.53-1.54-.79-2.2-.26-.67-.47-1.23-.81-2.01-.6-1.42-1.15-2.54-1.6-3.4-.45-.87-.83-1.5-1.14-1.94-.16-.2-.25-.54-.51-.16-.21,.21-.4,.4-.57,.59-.42,.45-1.14,1.15-2.94,2.2-.66,.39-1.33,.79-2.01,1.22-.61,.38-1.23,.75-1.88,1.15-1.25,.77-2.58,1.67-4.18,2.72-2.82,1.77-1.16,.55-.49,.02,.88-.67,3.07-2.29,.94-1.1-2.18,1.17-2.84,1.84-3.97,2.65-1.31,.95-2.51,1.55-3.95,2.28-3.07,1.62-6.12,3.18-9.01,4.75-2.94,1.48-5.7,3.02-8.32,4.31-2.8,1.46-5.36,2.59-8.48,3.92-2.15,.9-4.25,1.71-6.28,2.49-2.04,.73-4.04,1.34-5.96,1.82-1.76,.42-3.81,1.09-5.81,1.8-2.01,.7-4.01,1.29-5.63,1.62-3.81,.73-4.97,1.08-7.23,1.95-1.36,.5-4,1.16-6.73,1.82-2.76,.55-5.61,1.14-7.41,1.35-2.35,.3-.25-.6-5.38,.53-2.54,.46-3.9,.04-7.5,.6-.89,.12-1.69,.27-2.26,.18l-.85-.06c-.27-.03-.55-.12-.8-.18-.52-.14-1.01-.24-1.53-.38-.52-.16-1.08-.31-1.73-.44-3.42-.84-2-.08-3.34-.22-.14,0-.59-.16-.78-.2-2.24-.51-2.26-.47,.99,.9-.72-.11-.45,.26-2.31-.5-3.17-1.27-5.62-2.52-9.66-4.14-1.92-.76-3.59-1.73-3.38-1.76,.39-.06-.4-.6-1.62-1.3-1.22-.72-2.87-1.6-4.25-2.34-1.51-.84-2.86-1.62-4.11-2.46-.63-.41-1.24-.82-1.86-1.23-.6-.42-1.2-.85-1.81-1.28-2.42-1.73-5.01-3.5-8.27-5.97-.22-.09-1.5-1.58-1.86-2.04-.57-.74-1.35-1.61-2.26-2.57-.46-.47-.95-.97-1.45-1.49-.51-.51-.96-1.11-1.46-1.67-1.1-1.29-2.13-2.52-3.11-3.72-.24-.3-.5-.59-.72-.9l-.64-.95-1.23-1.91c-.56-.89-1.31-1.98-2.1-3.1-.72-1.16-1.45-2.39-2.14-3.46-.69-1.07-1.31-2-1.76-2.61-.42-.62-.65-.94-.65-.72,.03,1.05-.68,0-1.7-1.93-.51-.96-1.1-2.14-1.71-3.38-.52-1.28-1.06-2.61-1.57-3.85-1.33-2.97-2.28-5.91-3.27-9.16,.37,.32,.45,.03,.29-1.15-.14-1.18-.56-3.24-1.34-6.44-.69-3.81-1.39-7.26-1.3-9.49,.04-2.38-.59-5.31-.91-5.96-.45-.81-.93-2.99-1.47-6.24-.25-1.7-.23-3.18-.21-4.27,.03-1.05,.05-2.06,.31-.69,.4,2.04,.66,2.41,.63,1.36-.11-3.36-.4-3.2-.53-3.75-.39-1.62-.63-4.69-.93-7.51-.22-2.14-.38-4.36-.59-6.21-.23-2.08-.66-.41-.7-3.83-.04-5.23,.6,1.71,.75-1.95,.04-.94,.3,.14,.38-.71,.38-4.12-.51-7.73-.33-12.36,.06-1.31-.16-2.65-.31-2.63-.06,.02-.14,.5-.17,1.1-.05,.98-.06,2.2-.08,3.39-.02,2.54-.18,3.14-.37,2.3-.25-1.13-.16-3.91-.17-5.56-.02-2.14,.05-3.79,.18-5.46,.11-1.66,.25-3.34,.35-5.55,.38-7.24,.87-9.56,1.2-7.23,.25,1.58,.72-.47,.92,1.44,0,.09,.24-1.69,.33-2.74,.09-1.15,.2-2.97,.04-2.45-.48,1.61-.58-.39-.72-2.13-.19,1.53-.34,1.97-.52,2.36-.41,.89-.77,1.53-.95,.59-.17-.94-.2-3.47,.31-8.87,.14-1.4,.14-2.74-.15-1.69-.17,.63-.4,1.89-.48,3.15-.21,3.39-.57,6.72-.84,10.11-.31,3.48-.47,3.1-.67,2.74-.29-.53,0-2.78,.18-4.67,.64-5.93,.68-8.73,.57-11.05-.05-1.09,.11-2.73,.34-2.6,.48,.25,.99-3.41,1.72-8.13,.65-4.18,1.46-8.36,2.13-12.44,.82-4.96,1.08-5.02,1.21-4.35,.15,.73,.13,2.33,.13,3.78,0,.88-.24,2.41-.63,4.14-.46,2.07-.79,4.08-.72,5.06,.05,.72,.14,1.57,.53-.11,.8-3.4,1.7-7.15,2.5-12.07,.55-3.44,1.65-9.36,.55-6.62-.2,.51-.13-1.84,.49-4.81,.6-2.8,.21,.53,.45,.05,.65-1.35,.89-.97,.47,3.21-.27,2.72,.51-1.11,.98-3.55,.44,.09,1.48-3.72,2.31-6.12,.65-1.92,1.1-3.03,1.43-4.42,.37-1.38,.59-3.04,1.16-6,.51-2.76,1.01-6,1.85-8.6,1.07-3.41,.45-3.89,1.79-6.96,1.25-2.87,.99-4.46,2.11-7.47,.4-1.09,1-3.13,1.45-4.2,1.75-4.11,3.13-8.51,4.35-13.38,.19-.79,.65-2.26,1.01-3.3,3.09-8.95,3.18-9.15,3.98-13.74,.07-.41,.14-.77,.22-1.22,.38-1.9,1.14-3.93,2.03-6.15,1.6-4-.15,1.12-.18,1.53-.03,.52-.12,1.19,.42-.05,.68-1.56,.97-2.78,1.25-3.95,.64-2.69,1.23-4.12,1.72-4.75,.25-.31,.29,.03,.59-.46,.85-1.42,1.65-3.78,2.33-7.13,.22-1.07,.33-2,.96-3.43,1.67-3.75,1.76-6.3,3-9.92,.69-2.14,.34-2.02,.57-3.11,.14-.69,.3-1.25,.46-1.73,.03-.1,.09-.28,.11-.3l.06-.1c.04-.06,.08-.12,.12-.17,.08-.1,.15-.18,.21-.28,.09-.07,.23-.08,.33-.17l.19-.14,.1-.06,.26-.13c.37-.18,.7-.33,.99-.45,.58-.25,1.03-.41,1.41-.53,.77-.22,1.29-.24,2.14-.5,4.23-1.28,4.7-1.33,5.74-2.26,.27-.21,1.93-.85,3.52-1.26,.94-.04,1.82-.07,2.83-.14,.69-.07,1.75-.14,3.51-.54,.7-.16,1.39-.47,1.29-.54-.22-.17,.26-.37,1.17-.57,.92-.17,2.27-.33,3.77-.49,1.74-.21,3.12-.15,4.78-.25,1.49-.09,2.26-.09,3.04-.16,.78-.08,1.56-.22,3.11-.52,.81-.17,1.96-.2,3.07-.21,1.53,0,2.89,.03,4.33,.14,1.49,.07,2.75,.14,3.83,.19,1.08,.08,1.97,.12,2.69,.13,1.45,.02,2.27-.1,2.65-.32,.47-.27,.82-.57,1.91-.78,.48-.09,2.61,.02,2.49,.28-.13,.25,2.44,.54,4.18,.7,2.29,.18,4.57,.36,6.34,.64,1.34,.23,3.02,.47,4.57,.7l1.04,.18c.22,.04,.4,.09,.58,.15,.35,.11,.61,.25,.71,.41,.07,.12,.25,.23,.51,.33,.13,.05,.27,.1,.43,.14,.07,.02,.17,.04,.24,.07l-.13,.26c-.32,.7-.61,1.44-.81,2.02-.39,1-.77,1.97-1.13,2.89-.39,1-.77,1.94-1.13,2.78-.68,1.71-1.34,3.04-2.02,3.7-.06,.05-.72,1.51-.86,1.91-1.18,3.26-2.29,5.89-3.28,8.29-1.02,2.39-2.02,4.51-3.01,6.75-1.51,3.47-1.78,4.96-2.13,6.56-.66,1.57-1.29,3.17-1.89,4.81-.6,1.64-1.07,3.34-1.52,5.09-.13,.11-.27,.3-.65,1.51-.13,.43-.16,.75-.23,1.11-1.37,4.67,.41,.13,.08,1.76-.36,1.71-.98,4.2-.74,4.43,.09,.08,.1,.41,.19,.45,.1,.03,.6-1.1,.7-1.57,1.33-5.47,2.86-8.28,4.32-12.61Zm110.42,275.31c1.16-.16,2.25-.31,3.38-.47-1.94,.56-3.65,1.05-6.02,1.6-.64,.15-2.17,.14-2.68,.09-.34-.29,1.88-.69,5.32-1.23Zm-25.1,4.77c.65-.27,1.82-.57,5.01-.86,1.68-.17,2.88-.12,2.66,.03-.25,.18-1.17,.32-2.31,.44l-.89,.09-1.12,.09-2.17,.19-1.34,.11s.07-.07,.16-.1Zm-7.54-25.02c.07,.28,.16,.59,.24,.91-.39-.86-.68-1.43-.98-2.05,0-.01-.13-.43-.11-.44,.1-.07,.39,.47,.85,1.59Zm-164.3,.71c1.34,1.47,3.77,4.39,4.45,5.31,.69,.84,.34,.62-.3,.09-.61-.57-1.48-1.49-1.96-1.92-.68-.62,.78,1.58-1.96-1.78-2.03-2.38-2.17-3.49-5.67-7.87,.04-.1,.08-.19,.11-.29,.88,1.07,1.72,2.11,2.58,3.17,.89,1.04,1.68,2.2,2.75,3.29Zm-10.36-15.64c.33,.81,.58,1.51,.78,2.13,.24,.59,.44,1.1,.6,1.54,.39,1.03-1.14-1.44-1.66-2.54-1.82-3.32-.98-2.28-1.24-3.04,.17,.32,.38,.7,.52,.96,.09,.16,.13,.16,.19,.23-.24-.41-.48-.82-.72-1.23-.68-1.57-.76-2.02-.49-1.79,.39,.33,1.2,1.68,2.02,3.75Zm-5.02-12.3c.2,.73,.61,2.05,.57,2.17-.15,.44-.47,.49-.72,.69-.29-.77-.64-1.53-.86-2.33,.34,.06,.84,.62,.5-1.42-.1-.59,.06-.54,.53,.89Zm-3.83-27.75c.11,.78,.17,1.53,.26,2.29-.63-2.6-1.06-5.25-1.55-7.89,.03-.32,.06-.64,.09-1.01,.37,.51,.75,2.41,1.2,6.61Zm-4.17-49.31c.29,4.45,.27,7.86-.01,10.46-.09-3.22-.19-6.44-.28-9.66,0-.53,.07-1.38,.12-1.58,.04-.16,.14,.28,.17,.78Zm9.87-77.96c.03-.52,.21-1.96,.31-2.32,.55-2.1,.37-.74,.33-.09-.06,.68-.12,1.49-.2,2.39-.42,1.15-.47,.75-.44,.03Zm2.34-.81c-.4,1.06-.24-.04,.1-1.78,.14-.13,.69-2.11,.4-.23-.06,.36-.4,1.75-.5,2.01Zm2.31-10.53c-.09,.11-.27,.53-.25,.23,.03-.32,.24-1.38,.39-1.96,.3-1.12,.38-1.16,.22-.25-.12,.63-.24,1.32-.37,1.98Zm-1.48-6.24c-.6,1.76-1.39,4.83-1.4,3.72,0-.14,.27-1.32,.45-2.04,.67-2.16,1.36-4.38,1.42-3.62,.02,.24-.22,1.17-.47,1.94Zm3.04-7.43c-.81,2.86-.98,2.64-1.22,2.77-.2-.25,0-1.78,.58-4.47,.62-1.3,1.47-3.47,1.77-3.59,.18-.08-.36,2.58-1.12,5.29Zm3.52-8.62c-.05-.07-.11-.09-.12-.26-.03-.44-.28-.34,.5-2.98,.29-.95,.47-1.25,.46-.96-.02,.73,.48,.05-.84,4.2Zm6.73-11.47c-.44,.92-.71,1.53-.93,1.94-.22,.43-.58,1.17-.09-.46,.4-1.33,.74-2.05,.87-2.12,.12-.06,.09,.32,.15,.64Zm8.16-36.71c-2.16,5.94-1.8,5.88-1.46,5.96,.11,.02,.03,.26-.88,2.51-.12,.3-.21,.39-.32,.69-.99,2.77,.18,1.05-1.03,3.91-1.02,2.41-1.5,3.83-2.08,6.01-.65,2.44-1.38,4.92-2.51,7.96-2.12,6.06-2.59,7.11-2.07,4.16,.35-1.93,.61-3.64,2.15-8.26,.77-2.29,.7-2.44,.29-1.75-.31,.53-.14-.66,.45-1.77,1.29-2.42,2.72-6.91,4.16-10.96,.98-2.79,1.97-5.59,2.94-8.34,.2-.58,.51-1.23,.58-1.26,.06-.03-.16,.97-.22,1.15Zm4.4-2.66c-.11,.11-.22,.26-.32,.34-.13,.1-.25,.16-.37,.23,.28-.62,.62-1.44,.75-1.58,.13-.14-.03,.64-.07,1.01Zm10.21-24.66c-.78,.25-1.48,.44-2.4,.79l-.74,.27-.3,.11c-.08,.05-.22,.03-.22,.13-.11,.31-.2,.52-.26,.65-.12,.26-.14,.19-.1-.07,.03-.13,.06-.31,.1-.52,.03-.1,.04-.22,.08-.32l.31-.15,1.34-.66c.75-.13,1.52-.45,2.32-.96,2.77-.76,3.75-.92-.14,.73Zm3.99-2.4c-3.93,1.19-3.58,1.33-3.87,1.66l-2.25,.93c.27-.49,.96-1.3,6.89-3.23,1.11-.35,2.37-.63,1.91-.36-.35,.22-1.47,.61-2.67,1Zm62.19-6.4c-1.42-.28-2.4-.66-2.45-.83-.09-.32,3,.38,4.54,.57,6.59,1.03,3.14,.72,2.19,.74-1.98-.34-2.4-.12-4.28-.48Z"/><path class="cls-1" d="M309.76,297.88c.22,.45,.31-.41,.32-2.23,.01-2.72,.24-2.65,.48,1.13,.33,5.16,.7,5.72,1.07,8.3,.44,2.99,.43,2.04,.37-.71-.02-1.51-.03-2.87-.05-4.27,0-.32-.3-14.3-.3-14.46-.11-.83-.24-1.87-.35-2.34-.17-.65-.88-7.93-.97-9.34-.19-3.13,0-5.4-.25-8.61-.15-1.87-.07-2.48,.05-2.18,.68,1.66,.27-2.9,.02-5.29-.23-2.19-.42-3.48-.22-5.54,.08-3.63,.21-7.24-.31-10.83,.03-3.96,.3-7,.06-12-.05-1.19-.09-2.94-.17-3.43-.47-2.98-.47-8.46-.6-12.94,.64-2.21,.56-2.07,.38-9.37-.11-5.64-.67-5.97-.73-12.41-.03-6.12-.09-8.75,.33-8.14,.58,.84,.42-2.2,.47-6.43,.1-12.97,.39-25.98,.8-38.91,.36-10.83,.38-14.48-.45-16.17-.4-.84-.19-4.59-.2-7.27,0-1.52,0-3.37,.18-4.69,.31-2.3,.5-1.14,.66,.53,.02,.22,.03,.65,.05,.84,.29,2.36,.74,.36,1-4.74,.09-2.36,.19-4.9,.28-7.37,.2-4.29-.08-3.47-.3-2.39-.25,1.24-.5,5.34-.77,4.26,.06-2.27-.02-4.97,.28-6.68,.49-2.76,.35-5.92,.54-8.74l-.39-.4c.05-.85,.09-1.69,.14-2.53,.25-.83,.48-2.21,.68-4.85,.58-1.48,.58-1.5,.66-6.35,.08-5.03,.23-6.59,.84-8.9,.1-.38,.36,.45,.3-2.18-.09-4.83,.23-8.15,.7-12.31,.41-3.63,.6-11.28,.38-12.85-.02-.15-.07-2.35-.13-4.51-.03-1.08-.06-2.15-.09-2.95-.02-.4-.03-.73-.04-.97-.01-.23-.02-.37-.03-.37-.54-.18,.18-8.4-.17-10.29-.05-.26,.04-2.21,.06-3.45,0-.64,0-1.21-.06-1.13-.06,.05-.17,.72-.34,1.98-.04,.31-.16-.1-.15-.4,.03-1.07,.06-2.14,.1-3.22l.05-1.61v-.4c0-.06,.04-.15,0-.18l-.2-.02-.81-.09c-1.07-.12-2.13-.24-3.19-.36-1.02-.1-2.04-.21-3.04-.31-2.74-.3-1.41-.5-1.39-.7,.03-.2-.73-.41-2.98-.67-3.99-.47-4.28-.78-6.61-1.17-1.89-.29-6.98-.31-7.3-.71-.38-.51-5.26-.26-8.04-.26-4.47-.04-3.3,.29-3.57,.46-.26,.18,.05,.35,.12,.52,3.57,.04,4.98,.3,4.82,.59,1.25-.05,3.25-.11,3.49-.06,3.45,.46,3.32,.94,3.64,1.43,.31,.49-4.6,.06-6.06,.25-.73,.09-1.93,.18-2.05,.27-.37,.29-1.59,.44-5.43,.57-1.19,.03-1.55,.12-.75,.14,1.03,.03,3.16-.01,3.23,.04,.38,.22-2.05,.14-3.15,.21-1.12,.06-3.16,.15-3.38,.22-.59,.18,.97,.19,2.43,.21,1.45,.03,3.1,.01,4.71,0,1.61,.02,3.18,.04,4.47,.05,4.52,.15,6.24,.47,5.45-.19-.42-.36,1.97-.49,5.88,.03,1.65,.24,3.88,.2,5.41,.16,1.42,0,1.55-.2,3.81-.09,1.08-.05,1.91,.02,2.62,.24,1.89,.26,2.38,.44,2.67,.6,.33,.17,.35,.31,.95,.5,.4,.13,.81,.21,1.24,.27l.33,.04s.06,0,.08,.01v.25c-.01,.22-.01,.43-.02,.65,0,.43-.01,.85-.02,1.24-.02,.31-.04,.61-.05,.89-.03,.34-.06,.66-.1,.95-.76,5.63-.33,6.07-.1,7.05,.18,.74,.62-1.42,.46,2.8-.13,3.37-.52,4.36-.78,6.66-.2,1.79-.4,2.38-.6,2.89-.44,1.09-1.06,6.7-1.11,8.56-.12,4.59-.4,7.88-.69,11.67-.04,.55-.05,1.8-.02,2.14,.21,2.19,.54,2.25,.97,.52-.05-6.19,.44-4.6,.69-6.58,.07-2.06,.09-4.87,.21-5.95,.31-2.73,.24,.35,.3,1.66,.06,1.4,.24,3.4,.26,3.25,.5-4.53,.74-2.41,1.06-2.04,.04,.05,.16-.94,.23-1.59,.09-.82,.08-1.44,0-1.82-.17-.88-.54,.26-.38-4.03,.16-4.12,.51-4.22,.77-6.27,.21-1.69,.35-3.73,.51-5.72,.05-.62,.16-1.13,.22-1.28,.03-.06,.05,1.12,.02,1.5-.59,7.87-.37,14.55-.9,22.48-.31,4.65-.49,9.16-.92,6.48-.08-.51-.3,1.09-.31,1.93-.06,5.3-.99,13.61-.36,16.48,.12,.55,.18,1.99-.02,3.7-.73,6.32-1.18,12.82-1.17,20.04,0,.85-.03,1.43-.14,1.66-.26,.56-.33-1.37-.44-2.7-.17-2,.12-3.39,.29-4.87,.1-.87,.16-1.68,.11-2.01-.04-.28-.12-.32-.19-.08-.17,.6-.34,2.04-.45,3.74-.21,3.39-.51,7.1-.58,10.2-.06,3.74-.67,4.5-.52,9.14,.07,2.11-.32,4.06-.52,5.37-.3,1.95-.32-1.19-.46-2.19-.25-1.79,.27-8.52-.18-8.38-.56,.17-.39,7.28-.8,9.94-.39,2.49-.46,6.17-.04,6.68,.43,.52,.29,2.33,.04,6.56-.31,5.12-.26,10.38,.14,12.08,.29,1.25,.25,5.22,.45,6.33,.22,1.26,.24,2.11,0,3.74-.13,.83-.37,3.07-.42-.13-.02-1.12,.03-2.63,0-3.62-.04-1.25-.24-.5-.23,.15,.03,3.79-.16,5.14-.42,7.07-.31,2.24-.51,3.83-.63-.77-.02-.84-.2-.14-.22,1.7-.02,2.79-.21,3.64-.38,4.76-.1,.68-.23,1.07-.18,2.75,.04,1.53,.13,2.96,.29,2.45,.35-1.06,.71-2.46,1.07-3.45,.09-.25,.21,.24,.27,.96,.08,1,0,2.3-.09,3.19-.4,4.05-.42,5.34,.13,4.67,.52-.64,.52-.06,.28,6.56,.17,7.52,.13,15.21-.09,22.31-.1,2.67-.41,4.7-.45,7.85-.08,5.22,.54,3.15,.61,7.63,.02,1.43,.16,2.75,.25,4.12,.2,1.17,.6-1.87,.52,5.18-.04,2.9,.29,7.02,.47,10.59,.04,.87,.16,.27,.17,2.47,.02,7.09,.09,7.3,.52,7.27,.13-.01,.25-1.15,.39,.77,.13,1.7,.07,3.19,.03,4.6-.04,1.39-.05,2.92-.19,3.4-.09,.3-.15,.94-.23,1.44,.1,.54,.22,1.52,.3,1.53,.45,.04,1.12,4.23,1.15-3.5,.01-.82,.19,.45,.28,1.67,.46,6.56-.42,6.09-.08,12.18,.04,.55-.05,1.96-.13,2.17-.08,.22-.27-.22-.33-.96-.59-7.41-1.08-6.93-1.62-7.03-.27-.06-.41-2.43-.53-5.09,0,9.61,.31,13.3,1,12.68,.09-.08,.13-1.29,.28-.21,.56,4.1,.32,13.26,1.26,15.3,0,1.02,0,2.11,0,3.04-.03,1.29-.06,2.38-.09,3.7-.02,1.04,.06,2.51,.21,3.45,.12,.82,.27,1.35,.38,1.58ZM292.67,6.66c-.3-.05-1.03-.14-.89-.17,.35-.09,1.36-.1,2.68-.02,.33,.02,.82,.09,.78,.1-.3,.09-1.25,.11-2.57,.08Zm17.36,95.59c.02-.34,.2-.99,.29-1.17,.1-.2,.2-.07,.29-.07-.14,1.84-.22,4.37-.44,4.29-.13-.04-.23-1.22-.14-3.06Zm-3.38,33.31c-.04-.84,0-1.71,.1-1.81,.05-.05,.12,.6,.12,1.16,0,.58-.07,1.45-.1,2.19-.04-.51-.07-.97-.11-1.54Zm.95,9.54c-.2,.3-.5,2.32-.48-1.67,.02-3.02,.16-5.99,.49-7.43,.15-.64,.29-1.91,.44-2.69,.39-2.04,.55-.66,.34,4.36-.11,2.5-.24,4.23-.13,6.34,0,.07-.11,1.35-.18,1.76-.2,1.26-.34,.25-.48-.66Zm-.71,13.27c.04-1.54,.15-1.23,.22-1.13,.05,.07,.09,.77,.14,1.2l-.2,.69c-.06-.26-.17-.57-.16-.76Zm.4,30.41c.3,.18,.49,1.7,.57,5.44-.29-.19-.65,.36-.57-5.44Zm.58,7.87c0-.73,0-1.51,.01-2.25,.09,.37,.22,.49,.25,1.25,.09,2.09-.04,4.44-.16,4.62-.15,.23-.09-2.28-.1-3.62Zm-1.81,7.43c.07-1.58,.17-2.77,.33-1.98,.05,.23,.07,1.21,.1,1.84-.06,2.17-.19,1.89-.33,1.63-.09-.17-.14-.75-.1-1.49Zm2.66,5.13c0-.37,.01-.87,.02-1.29,0-.21,.02-.39,.02-.52,0-.13,.01-.21,.02-.21,.12,.06,.12,1.42,.13,2.4,0,1.11,0,2.24,0,3.36-.13-.77-.19-2.13-.19-3.74Zm-1.47,9.26c0-.34,0-.72,0-1.08l.2,.14c.03,3.01,.5,4.24,.32,8.09-.01,.31-.06,.73-.07,.64-.28-1.63-.36-4.75-.45-7.78Zm1.35,9.31c-.04-1.11-.07-2.24-.11-3.35,.1-.15,.19-.55,.29-.38,.28,.48,.31,5.06,.69,5.02-.16,1.33-.19,1.96-.24,2.01-.23,.25-.49,.54-.63-3.29Zm-.53,12.23s.1-1,.14-.79c.17,.81,.21,2.48,.22,4.19,.01,1.06-.02,1.4-.14,.83-.06-1.16-.13-2.68-.21-4.23Zm2.38,50.91c-.03-1.4-.26-4.2-.03-3.59,.27,.74,.6,2.98,.78,6.32,.14,2.32,.08,3.82-.07,4.14-.14,.29-.32-1.25-.46-3.14-.07-1.26-.15-2.53-.22-3.74Z"/><path class="cls-1" d="M231.16,47.1c-.63-2.63-.6-6.88,.18-16.33-.69-.47-1.37-.97-2.06-1.41-.09-.06-.22-.01-.38,1.51-.08,.71-.11,1.69-.12,2.29-.02,1.96-.03,3.76-.04,5.71-.02,1.93,.47,1.39-.05,5.41-.24,1.9-.22-1.55-.39-2.03-.13-.4-.12-2.27-.25-2.7-.19-.62,.33-6.72-.18-4.18-.19,.92-.48,5.23-.8,8.09-.36,3.26-.46,6.01,.14,2.86,.28-1.47,.25,.09,.31,.75,.09,.89,.18,1.95-.02,4.33-.12,1.35-.34,2.64-.51,2.46-.28-.3-.37,2.58-.53,4.42-.15,1.8,.2,1.29-.2,4.74-.52,4.37-.48,14.34-.03,12.57,.67-2.57,.55,2.16,.75,3.98,.11-.62,.24-1.55,.34-1.77,.09-.21,.06,.69,0,.97-.11,.46-.22,.65-.33,.95-.38,4.47-.08,4.8,.07,5.81,.27,1.7,.26,4.09-.15,9.4-.51,7.31-.5,7.44-1.31,15.45-.1,1.04-.2,2.64-.31,2.34-.14-.36,.04-1.94,.06-2.98,.13-5.1,.44-10.21,.7-15.35,.19-3.16,.54-7.64-.21-3.07-.16,.97-1.41,8.94-.58-3.78,.04-.56-.13-1.71-.24-2.05-.29-.88-.19-6.87-.57-5.03-.36,1.73-.56,7.77-.96,11.9-.45,4.76-.34,14.37,.07,14.74,.55,.5,.94,2.77,1.11,8.04,.05,1.58,.47,.71,.21,4.07-.14,1.84-.32-1.03-.5-1.3-.18-.25-.4-.74-.46-2.28-.08-2.41-.15-1.17-.27,.85-.13,2.05-.22,4.96-.44,5.37-.66,1.25-.69,5.15-.55,8.76,.12,3.29,.08,5.28-.36,7.86-.6,3.47-.17,5.11-.21,7.62,.11-.42,.25-1.27,.34-1.14,.24,.36,.41,2.7,.78-1.07,.46-4.67-.04-4.94,.02-7.8,.02-.81,.04-1.65,.07-2.47-.12-.92-.05-1.75,.12-2.56,.75-8.67,.78-8.89,1.12-4.14,.18,2.56,.35,4.72,.74,4.6,.56-.18,.56,.48,.08,8.72l-.42-.11c-.15,1.62-.3,2.28-.38,1.13-.1-1.44-.24-2.47-.44,.11-.32,4.24-.61,7.66-1.05,7.94-.5,.31-.76,8.4-1.2,9.57-.32,.84-.45,1.66-.54,4.95-.04,1.49-.16,3.68-.31,5.04-.39,3.4-.16,.33-.12-.81,.03-.97,.17-3.03-.08-1.61-.37,2.16-1.28,13.49-1.13,14.04,.48,1.38-.09,6.11-.51,10.15-.49,4.7-.96,9.41-1.58,14.06-.67,5.26-.75,7.33-.14,5.76,.19-.49,.25-.31,.22,.3-.01,.3-.05,.72-.11,1.21-.06,.43-.12,.92-.19,1.46,.03,.32-.27,.55-.45,.81-.22,.27-.37,.48-.65,.79-.53,.59-1.03,1.2-1.58,1.75-1.06,1.12-2.11,2.1-3.01,2.79-1.45,1.11-4.67,4.07-4.96,3.77-.26-.26-3.5,2.71-5.84,4.71-2.52,2.17-2.37,2.38-2.43,2.72-.03,.16-.04,.32-.32,.68-.15,.19-1,1-1.27,1.22-1.39,1.08-.19-.06-.43,.02-1.1,.42-4.02,2.65-5.04,3.81-.99,1.15-1.95,1.91-2.85,2.49-.45,.27-.89,.5-1.31,.71-.44,.2-.88,.38-1.3,.56-1.73,.73-2.79,.98-4.53,2.59-1.11,1.02-3.67,2.56-7.74,4.37-1.14,.49-2.29,1.02-3.47,1.5-1.17,.51-2.37,.97-3.55,1.41-.58,.23-1.4,.53-2.09,.75-.34,.12-.65,.22-.87,.3-.22,.08-.36,.13-.37,.14-.1,.22,2.38-.65,3.07-.85,2.27-.52,4.82-1.3,8.42-2.75,3.35-1.42,3.03-.75,2.79-.22-2.38,1.32-4.78,2.58-7.41,3.71-2.62,1.12-5.46,2.15-8.71,2.84-.52,.12-1.71,.47-2.34,.62-1.01,.27-1.85,.58-2.61,.77-.08,.03,.85-.02,1.46-.16,5.12-.99,9.54-2.49,12.23-3.11-2.95,1.25-6.02,2.45-8.98,3.34-.73,.24-.89,.44-.99,.56-.09,.13,.6-.01,1.46-.3,3.62-.83,7.16-1.94,10.61-3.24,2.46-.88-.08,.19-.63,.45-.96,.48-2.13,.97-3.22,1.42-.85,.38-2.65,.98-1.46,.73,.34-.07,1.59-.53,2.31-.81,3.98-1.61,7.66-3.44,11.77-5.46,2.06-1.01,2.33-1.14,1.59-.52-1.23,.97-1.83,1.43-1.29,1.23,.55-.2,2.25-1.05,5.5-2.91,.66-.37,1.32-.75,1.98-1.15,.66-.4,1.3-.74,1.99-1.19,.69-.43,1.35-.86,1.97-1.28,.64-.42,1.25-.85,1.83-1.27,3.2-2.28,5.38-4.32,7.75-6.46,1.72-1.58,1.88-2.18,2.18-2.42,2.08-1.69,.41,.12,1.38-.52,.78-.5,2.01-1.51,3.29-2.79,1.58-1.6,3.21-3.29,4.33-4.6,1.81-2.13,2.92-3.1,4.29-4.29,.28-.25,.67-.61,1.09-1.05,.42-.46,.87-.98,1.28-1.52,1.57-2.14,1.29-2.05,1.1-2.02-.09,0-.2,.03-.6,.46-.2,.21-.47,.53-.84,.99-.27,.31-.61,.72-1.07,1.26-1.82,2.16-3.64,4.01-4.94,4.97-.64,.48-1.8,1.45-1.02,.49,.55-.69,1.64-1.69,2.55-2.61,1.85-1.81,3.11-3.19,4.23-4.51,.35-.44,.67-.84,.97-1.23,.15-.19,.3-.38,.44-.56,.11-.2,.08-.47,.13-.69,.05-.46,.11-.89,.16-1.3,.03-.28,.06-.55,.08-.81,.18-1.92,.16-3.28,.13-5.98,0-.23-.01-.44-.02-.62-.06-.78,.04-2.25,.28-4.07,.26-1.93,.51-3.26,.62-2.94,.38,1.07,.81-3.69,1.24-6.89,.58-4.09,.77-7.58,.7-10.2,.67-4.33,.67-7.13,.47-9.21-.03-.35-.02-1.11-.03-1.69,.11-.23,.23-.49,.34-.65,.04-.05,.06,.14,.08,.32,.08,.75,.18,1.43,.4-1.06,.14-1.58,.28-3.86,.04-3.51-.24,.35-.21-1.62-.25-3.07-.04-1.47,0-2.14,.26-3.53,.6-3.45,.67-5.36,.37-7.88-.11-.93-.26-1.45-.38-2.29-.13-.86-.24-1.93-.13-4.56,.13-3.01,.35-4.95,.6-5.7,.18-.55,.35-.31,.53-.4-.05,1.55-.15,3.23-.03,4.13,.26,1.91,.67-.21,1.01-.38,.12-.05,.19,1.85,.35-.79,.06-.94,.06-2.73,0-3.22-.19-1.8-.26-3.95,.02-7.81-.51-1,.04-4.53,.15-7.06,.07-1.66,.13-3.46,.14-4.98,.02-1.44-.03-2.61-.05-3.91-.08,1.23-.18,2.45-.24,3.68-.19,4.49-.41,7.19-.84,7.25-.43,.07-.48-2.13-.26-6.94,.18-3.57-.15-4.27-.08-7.23,.06-2.06-.39-2.37,.08-5.66,.26-1.82,.31-.37,.34,1.63,.07,4.14,.53,2.61,.87,2.51,.34-.11,.59-4.18,.87-7.23-.1-.93-.05-1.77,.14-2.55,0-.67,.02-1.92-.02-1.92-.38-.05-.4-.05-.36-5.44,0-.88-.18-.69-.19-1.56,0-3.73-.29-6.75,.39-12.66,.1,2.35,.27,3.89,.73,1.88,.11-.46,.46-1.41,.16,1.02-.78,6.71-.22,6.2-.12,8.22,.32-3.91,.79-8.36,.69-11.54-.13-3.45,.17-3.99,.45-5.5,.13-.69,.3-1.77,.31-3.14,0-.94-.02-2.31-.09-2.09-1.07,3.54-.91-3.74-.82-10.05,.07-5.08,0-4.96,.86-10.13Zm-1.27-10.7c.08-1.26,.25-2.03,.42-2.55,0,.58,.06,1.14,.02,2.04-.08,1.75-.24,2.02-.32,1.92-.08-.1-.16-.7-.11-1.41Zm-31.04,195.82c1.17-.97,2.63-2.3,3.23-2.62,.49-.23-2.98,3.31-4.86,4.87-2.76,2.28-3.19,2.19-3.3,2.11-.32-.25,3.11-2.73,4.93-4.36Zm-16.81,12.27c1.2-.67,1.84-.98,2.15-1.03-.35,.25-.85,.64-1.04,.73-.61,.31-1.17,.56-1.62,.75-.65,.28-.44,.09,.51-.45Zm6.61-2.79c-.9,.8-1.81,1.61-2.74,2.39-1.74,.76-6.13,2.98-5.87,2.38,3.05-1.58,6.03-3.55,8.96-5.12-.12,.12-.22,.22-.35,.34Zm.06-.39c-.81,.16-3.6,1.48-.82-.59,1.57-.64,3.55-1.73,4.54-2.09,.69-.25-1.59,1.54-3.4,2.71-.1-.02-.14-.07-.32-.03Zm13.65-7.66c-1.37,1.24-.75,1.17-3.96,3.42-3.21,2.22-5.55,3.72-2.87,1.11,1.02-.78,2.03-1.62,2.99-2.41,1.7-1.45,4.03-3.79,4.64-3.86,.4-.05,4.89-3.5-.8,1.75Zm5.21-5.43c-3.13,2.24-2.1,.52-5.8,3.2-.7,.49-.48-.05,1.81-2.09,1.31-1.16,2.8-2.4,2.79-2.18-.03,.64,2.5-1.21,4.25-2.38,.67-.45,.65-.13-1.17,1.71-.65,.38-1.27,.99-1.88,1.73Zm14.61-35.92c-.39,2.75-.75,4.67-1.03,4.65-.33-.03-.46-1.46-.35-4.58,.04-1.03,.24-2.47,.39-2.84,.49-1.23,.63,1.26,1.19-.87,.18,.34,.02,2.09-.2,3.63Zm-2.11-3.43c0-.26,.08-1.48,.15-2.22,.11-1.21,.27-2.72,.35-2.08,.11,.86,.38-.8,.55-1.04-.11,1.44-.21,2.89-.32,4.34-.24,.37-.67,2.58-.74,1Zm1.56-11.46c.08,1.32-.01,3.95-.49,5.92,.08-1.53,.06-2.53-.05-2.8-.21-.5-.09-2.54,.1-5.19,.16,.61,.37,.74,.44,2.07Zm-.45-2.2c-.07,.25-.15,.47-.23,.78-.27,1.12-.55,2.21-.56,.02,0-1.08-.05-.04,.1-.61,.28-1.05,.78-4.76,.68-.2Zm5.83-37.26c-.1,.4-.19,.35-.29,.46,.09-1.18,.19-1.94,.29-1.83,.08,.1,.07,1.11,0,1.37Zm2.64-73.56c-.11,1.43-.34,3.05-.51,4.35-.15,1.14-.24,.78-.27-.11-.08-2.18,.04-5.61-.19-6.43-.21-.73-.16-2.19,.1-5.3,.38-4.59,.45-1.51,.64-2.75,.33,.41,.48,6.81,.23,10.23Z"/><path class="cls-1" d="M144.32,256.42c-1.67-.32-3.51-.88-5.11-1.66-.8-.37-1.53-.82-2.18-1.21-.62-.45-1.18-.83-1.58-1.19-1.16-1.08-.15-.69-.05-.92,1.97,1.61,3.75,2.52,5.1,3.06,1.37,.52,2.3,.8,2.86,.84,1.12,.14,.64-.14-.57-.79-.96-.38-1.61-.63-1.76-.79-.16-.15,.13-.08,1.05,.13l.9,.21c.26,.05,.48,.05,.66,.07,.35,.02,.54,.02,.55-.03,.02-.04-.13-.12-.43-.23l-.57-.19-.77-.33c-.96-.41-.5-.48-.59-.69l1.4,.57,1.46,.42c.97,.34,2.02,.42,3.06,.61,.59,.13,1.59,.12,1.94,.12,1.35-.07,1.02-.18,.52-.27-.65-.12-1.27-.24-1.92-.36-.63-.17-1.28-.37-2.01-.55l-.55-.12-.63-.18c-.45-.12-.95-.24-1.48-.35-.52-.14-1.06-.34-1.61-.51-.54-.2-1.06-.44-1.58-.64-2.18-.98-3.78-2.35-3.48-1.71,.17,.3,.23,.61-1.32-.7-.75-.69-1.11-1.12-1.27-1.41-.17-.28-.17-.41-.19-.52-.05-.25-.68-1.07-1.35-2-.31-.49-.66-.98-.93-1.45-.26-.48-.48-.91-.6-1.21-.46-1.29-1.12-3.09-1.52-4.74-1.16-2.49-.34,.42-.75-.07-.29-.35-.67-.65-1.42-3.09-1.29-4.79-1.01-2.63-1.37-3.24-.6-3.24-.59-5.69-1.54-10.33-.35-1.76-.53-4.82-.67-7.35-.38-6.59-.81-11.33-1.38-10.71-.09,.1-.18,1.13-.23,2.06-.08,1.48,.06,2.63,.15,2.83,.25,.56,.46,4.73,.76,4.26,.22-.36,.39,2.84,.52,4.52,.18,2.23-.05,1.95-.19,1.68-.57-1.13-.79,1.49-.8,4.55-.73-4.79-1.19-8.03-1.67-10.67,.06,1.22,.12,2.48,.17,3.67,.08,1.69,.2,3.64-.04,2.96-.08-.25-.28-2.02-.37-3.18-.1-1.17-.15-2.44-.21-3.67-.07,1.54-.13,3.08-.17,4.63-.18-4.05-.69-9.1-.45-11.45,.25-2.56,.71-2.38,1.08-3.25,.1-.23,.21,.25,.32,.11,.14-.19,.29-1.02,.28-3.04-.02-1.53-.06-3.33-.14-4.24-.08-.93-.26-1.79-.37-1.21-.67,3.74-.51-2.32-.57-6.15-.04-1.85,.09-3.29,.18-4.96,.09-1.51,0-2.07-.1-2.12-.11-.06-.23,.39-.3,1.97-.08,1.7-.12,3.43-.15,5.1-.03,1.33-.14,2.37-.26,2.05-.26-.7-.47-2.79-.44-5.39,.03-2.6,.2-5.72,.5-8.47,.12-1.03,.33-.36,.34-2.97,0-.66-.17-.34-.28-.32-.66,.03-1.06,8.39-1.65,11.07-.47,2.04-.42,4.03-.01,6.56,.17,1.02,.19,1.58,.02,3.37-.11,1.16-.27,2.15-.15,4.14,.55,8.19,.33,14.68,.37,21.19,.05,4.85,.35,6.24,.98,6.58,.61,.35,1.58,6.86,2.94,10.39,.85,2.35,.7,3.05,1.55,5.44,.53,1.31,.77,2.25,1.23,3.35,.66,1.02,1.78,2.62,2.09,2.78,.29,.17-.25-.99-.39-1.61,1.37,2.29,3.03,4.47,5.05,6.36l.71,.73,.77,.68c-.21-.23-.42-.48-.63-.71,.18,.06,.37,.04,.54,.18,3.42,2.92,7.82,4.84,12.3,5.15,.91,.05,1.64,.13,2.12,.2,.47,.04,.69,.08,.6,.13-.27,.12,.26,.26,.17,.39-.05,.06-.25,.13-.8,.17-.56,0-1.47-.04-2.91-.16-3.63-.64-3.52-.55-3.16-.25,.26,.17,1.07,.44,2.21,.73,.57,.17,1.2,.26,1.88,.33,.68,.07,1.41,.16,2.15,.2,3.25,0,3.23-.25,3.46-.44,.33-.26,4.11-.81,1.52-.82-2.94-.04-.45-.42,1.55-.92,1.46-.43,1.38-.6,.22-.56l-2.54,.1c-1.09,.1-2.43,.05-3.94,.05-1.71-.11-3.37-.21-4.13-.58Zm-24.3-40.32c-.03-.88,.05-.65,.15-.3,.15,.52,.29,.72,.44,1.04,.05,1.96-.02,2.68-.26,1.92-.12-.39-.28-1.2-.33-2.66Zm6.51,22.22c-.21-.56-.43-1.37-.64-2.03-.2-.66-.31-1.19-.31-1.19,.34-.03,0-1.54-.78-5.53-.48-2.5-.87-5.32-.65-5.76,.28-.57,.76,3.25,1.37,5.71,.45,1.77,.58,1.67,.77,1.89,.78,2.84,1.75,5.52,2.69,8.39,.29,.98,1.3,2.98,.63,2.08-.53-.7-.8-.96-.91-.86-.12,.11-.07,.57,.12,1.28,.19,.72-.32-.05-.88-1.14-.57-1.08-1.15-2.47-1.41-2.86Z"/><path class="cls-1" d="M271.54,6.55c1.07-.16,2.94-.25,4.55-.31,2.88-.14,6.89,0,8.33-.22,1.14-.16-2.78-.39-1.56-.67,.59-.14-.71-.33-1.19-.49-3.44-.12-5.02-.28-4.83-.59-3.13,.12-3.84,.38-4.71,.59-1.96,.45-5.17-.3-6.02,.38-.3,.23-.88,.47-2.69,.77-1.89,.29-4.06,.64-6.42,.9-1.18,.15-2.39,.31-3.64,.48-1.25,.15-2.52,.31-3.8,.51-1.68,.25-3.37,.46-5.03,.78-1.66,.29-3.32,.55-4.94,.92-.6,.12-1.2,.23-1.79,.35-.59,.11-1.18,.21-1.82,.38-1.25,.3-2.52,.63-3.69,1.02-.18,0-.09,.21-.12,.3,0,.12-.01,.23-.01,.33,0,.2-.01,.37-.02,.5,0,.27,0,.4,.02,.45,.03,.09,.1-.19,.17-.57,.04-.19,.08-.4,.12-.61,.02-.04,0-.12,.05-.14l.17-.03,.31-.06c.38-.07,.61-.09,.49,0-.07,.04-.17,.09-.3,.15l-.21,.09-.12,.05s-.09,.03-.07,.1c0,.43-.01,.93-.04,1.41-.13,1.9-.28,4.15-.4,6-.12,2.38-.15,4.39,.24,2.85,.4-1.59,.62-4.54,.69-6.58,0-.34,.02-.68,.02-1.01,0-.31,0-.62,.01-.92,0-.31,0-.62,0-.93,.01-.15-.02-.33,.03-.45l.41-.16c1.09-.42,2.18-.86,3.42-1.31,1.22-.39,2.32-.75,4.23-1.09,1.59-.23,2.5-.27,2.54-.14,.03,.09-.65,.32-1.07,.5-1.44,.63-1.48,.8,4.14-.35,1.62-.28,3.29-.56,4.67-.71,1.38-.12,2.46-.14,2.87,.01,.3,.12,1.07,.05,1.98-.07,.9-.12,1.95-.26,2.79-.38,1.63-.21,2.93-.44,2.02-.52-.51-.04-1.53-.02-2.51,0-1.59,.02-4.27,.28-2.88-.1,1.14-.32,4.01-.57,5.76-.65,2.15-.05,3.89-.15,5.45-.31,1.57-.13,2.96-.29,4.4-.48Z"/><path class="cls-1" d="M123.6,173.96c.17-4.62-.02-6.52-.2-8.72-.19-2.48-.21-2.71,.69-7.31,.25-1.7,.33-1.78,.21,.09,.28-.66,.71-2.33,.14,2.8,.56-1.34,.93-.09,1.7-4.12,.13,.14,.26,.21,.39,.35,.13,.14,.32,.02,.53-1.49,.29-2.15,.34-3.89,.33-5.32,.09-4.56,.36-6.69,1.38-10.83,.22-.93,.42-1.05,.75-3.03,.19-1.16,.4-2.52,.52-3.54,.14-1.27,.06-1.49-.16-.72-.26,.91-.53,1.83-.81,3.1-.52,2.29-.96,4.19-1.31,5.72-.37,1.52-.7,2.65-.99,3.41-.59,1.53-1.03,1.6-1.35,.39-.09-.35-.27-.11-.39-.23-.39-.37-.97,3.22-1.37,7.44,.03,.65,.28-.12,.05,2.1-.03,.26-.2,.38-.32,.57-.14,2.51-1.19,7.13-.61,7.94-.25,4.18-.66,4.67-.97,7.39,.3,.51,.73-.38,.85,1.96,.14,2.81,.6,2.01,.95,2.05Z"/><path class="cls-1" d="M127.2,140.63c.59-2.13,1.32-4.5,2.17-9.88,.17-1.55,.29-3.1,.49-4.64l.59-4.62c.41-3.08,.75-6.17,1.26-9.24-.67,2.47-.84,2.61-.35-.36-.19-.07-.36-.3-.6-.14-.11,.08-.37,.74-.67,2.38-.14,.71-.24,1.59-.24,1.86,0,.47,.07,.75,.18,.73,.37-.07,.4,.67-.68,5.55-.26,1.16-.53,2.57-.75,3.92-.21,1.35-.33,2.66-.35,3.59-1.06,4.26-1.01,.89-1.59,1.83-.12,.2-.25,.74-.36,1.65-.08,.71-.2,1.9-.16,1.82,.84-1.84,.62,1.57,.52,5.35-.05,1.86,.2,1.41,.56,.19Z"/><path class="cls-1" d="M39.86,169.53c-.11,.1-.38,.91-.44,1.45-.25,1.88-.31,3.64-.18,3.38,.65-1.34,.27,1.74-.18,6.01-.09,.9-.08,1.88-.1,2.82,.59-3.91,1.01-4.96,1.31-4.25,.23,.56,.48-1.03,.78-4.31,.17-1.54,.43-3.36,.64-5,.35-2.93,.98-10.57,.75-10.25-.38,.51-.9,2.41-1.57,6.43-.48,3.06-.76,3.45-1.02,3.71Z"/><path class="cls-1" d="M37.2,259.22c-.14-.12-.29,.07-.53-1.59-.29-1.91-.19-3.11-.11-3.68-.46-3.48-.88-5.85-1.19-6.01-.17-.07-.35-.13-.6-2.3-.24-.31-.47-.63-.21,3.22,.31,3.22,.63,5.48,1.08,7.95,1.01,4.67,.14,2.05,.26,3.31,.1,1.03,.29,2.33,.44,3.53,.26-.34,.83,1.43,1.59,4.07,.57,2.02,.76,2.01,.18-1.54-.44-2.33-.63-4.64-.9-6.95Z"/><path class="cls-1" d="M148.84,55.47c-.15,.37-.51,1.6-.57,1.92-.05,.28,.16,.06,.29-.27,2.08-5.35,3.63-8.07,5.91-14.59,1.21-3.11,2.17-5.56,3.1-7.83,1.16-2.91,1.91-5.18,1.54-5.05-.32,.11-1.4,2.59-2.45,5.05-2.83,6.81-5.15,13.91-7.82,20.76Z"/><path class="cls-1" d="M309.46,83.33c-.03-1.94-.19-2.73-.15-5.49,.11-7.6,.08-7.54-.66-3.44-.21,1.16-.39,2.41-.58,2.14-.2-.3-.29,1.94-.35,3.56-.04,1.29-.01,2.68,.12,2.04,.65-3.07,.87,.2,1.12,3.14,.06,.65,.14,.99,.2,1.41,.11-.44,.19-.77,.26-1.09,0-.76,.03-1.62,.02-2.26Z"/><path class="cls-1" d="M132.64,111.49c-.03,.78-.1,1.68,.4-.16,.47-1.73,.61-2.75,.78-4.11,.14-1.04,.3-2.2,.44-3.25,.16-1.05,.29-2,.32-2.64,.05-1.19-.13-1.28-.52-.34-.39,.94-.98,2.91-1.63,5.88-.34,1.58-.69,3.25-1.04,4.87l.36,.35c.87-3.03,.95-2.13,.89-.59Z"/><path class="cls-1" d="M135.78,86.42c.24-.57,.81-2.92,.66-2.56-1.36,3.29,.35-2.78,.71-4.51,.41-1.92,.4-2.42-.26-1.24-.28,.49-.38,.31-.54,.36-.23,.07-.76,1.2-1.33,3.44-.59,2.26-.63,3.28-.55,3.6,.18,.75,1.21-1.59,.5,2.32,.31-.51,.49-.65,.81-1.42Z"/><path class="cls-1" d="M308.22,95.54c-.02-2.5-.13-4.5-.4-3.5-.38,1.41-.79,3.76-1.18,6.25-.22,1.4-.18,3.55-.08,3.84,.17,.47,.4-.15,.51,1.65,.09-.01,.19,.07,.29-.05,.43-.48,.48-6.84,.87-8.18Z"/><path class="cls-1" d="M231.18,47.03c.34,.44,.69,.72,.91,2.35,.24,1.73,.7-1.52,1.14-4.87,.2-1.55,.3-6.15,.15-5.27-.89,5.45-1.14,.54-1.98,5.28-.07,.83-.15,1.67-.22,2.51Z"/><path class="cls-1" d="M138.46,84.18c.27,.28,.32,.48,.44,.42,.16-.07,.37-.29,.94-2.4,.33-1.28,.47-1.99,.54-2.58,.07-.55,.3-1.6,.35-2.08,.15-1.58-.06-1.92-1.24,1.23-.17,.46-.52,1.53-.64,2.06-.42,1.85-.52,2.68-.52,3.04,0,.37,.12,.27,.13,.3Z"/><path class="cls-1" d="M232,35.8c-.14,2.82,.07,3.2,.42,.95,.44-2.9,.8-7.49,1.33-9.8,.2-.87,.19-2.03,.14-2.87-.24,.76-.51,1.49-.79,2.5-.5,1.82-.91,5.01-1.1,9.22Z"/><path class="cls-1" d="M310.58,55.53c-.36-.4-.23-5.63-.58-5.95-.08,2.67,0,5.06-.36,8.2-.26,2.27-.26,4.2-.03,4.15,.14-.04,.29-.54,.39,.27,.14,1.15,.33,.28,.51-2.33,.13-1.84,.19-4.21,.07-4.34Z"/><path class="cls-1" d="M140.88,84.49c.12-.92,.34-2.05,.65-3.31,.34-1.26,.75-2.66,1.2-4.13,.45-1.49,1.13-3.71,1.1-4.09-.02-.23-.74,1.81-1.12,2.73-.39,.94-1.2,3.1-1.16,3.44,.13,1.3-1.4,5.79-2.04,8.55-.38,1.64-.72,3.14-.48,2.87,.2-.23,.57-1.15,1.07-2.83,.37-1.28,.69-2.55,.77-3.22Z"/><path class="cls-1" d="M309.05,297.66c-.09-.54-.18-1.18-.26-1.64-.22-1.19-.45-2.09-.53-.86-.03,.52,.02,2.13,.1,3.19,.22,3.1,.47,3.98,.71,4.2,.07,.07,.14,.08,.22,.12,.14-.21,.36,.51,.41-.97l-.64-4.03Z"/><path class="cls-1" d="M231.4,17.1c-.36-.62-.84,3.4-1.23,5.37-.23,1.18-.08,2.24-.04,2.89,.09,1.59,.51-1.49,.77-2.4,.16-.53,.38-.75,.52-3.26,.09-1.58,.05-2.55-.02-2.6Z"/><path class="cls-1" d="M122.81,197.97c.06,2.51,.26,2.52,.42,2.47,.18-.06,.39,2.93,.55,0,.04-.78,.03-2.66,0-3.51-.07-1.87-.27-1.74-.47-2.22-.1,.31-.24,.61-.37,1.27-.05,.26-.13,1.46-.12,1.98Z"/><path class="cls-1" d="M38.87,208.04c.21,.39,.57-.86,.54-1.94-.1-2.62-.24-5.36-.41-5.13-.24,.38-.51,2.75-.71,4.3l.58,2.77Z"/><path class="cls-1" d="M77.73,23.85c.39-1.29,.75-2.52,1.06-3.71-.01-.74,.75-.77,1.2-1.05,.5-.24,.97-.47,1.42-.69,.68-.34,.78-.51,.86-.65,.02-.03-1.18,.44-1.34,.5-.68,.28-1.32,.55-1.94,.81-.14,.07-.33,.11-.44,.21l-.14,.47c-.09,.31-.18,.62-.27,.92-.32,1.12-.62,2.16-.92,3.21-.56,2.05-1.78,5.51-1.5,5.6,.21,.06,1.26-3.14,2-5.62Z"/><path class="cls-1" d="M265.03,3.81c-.39-.1-1.7-.01-2.75,.06-2.41,.19-4.4,.46-5.78,.69-1.39,.26-2.18,.53-2.21,.73,0,.05,.89,0,1.36-.02,3.11-.54,6.25-1.06,9.39-1.46Z"/><path class="cls-1" d="M123.12,149.75c0-.75-.22-.08-.37,1.14-.19,1.46-.17,2.45-.09,2.62,.22,.49,.48,.68,.72,.98,.09-.85,.19-1.72,.27-2.47,.42-5.5-.49-.42-.52-2.28Z"/><path class="cls-1" d="M41.66,139.32c-.15-.06-.27-.38-.48-.07-.18,.26-.56,1.54-.84,3.21-.29,1.72-.14,1.9-.04,2.08,.26,.48,.56,.43,1.37-5.22Z"/><path class="cls-1" d="M160.26,258.23c-.83,.24-1.06,.36-.39,.27,.52-.07,1.19-.16,1.81-.29,3.47-.84,3.34-1.25,5.78-2.08,.84-.32,2.09-.81,2.99-1.16,.9-.38,1.42-.67,.85-.55-.47,.1-1.32,.43-2.29,.82-.96,.41-2.06,.86-3.06,1.16-1.05,.34-2.05,.68-3.01,.97-.96,.29-1.83,.63-2.69,.86Z"/><path class="cls-1" d="M166.16,249.66c.05-.15-.74,.06-1.82,.4-.8,.26-1.44,.49-1.99,.7-.55,.19-1.01,.35-1.43,.52-.84,.33-1.55,.66-2.61,.95-1.04,.28,1.18-.13,1.95-.36,.74-.2,1.47-.4,2.15-.59,.68-.22,1.3-.44,1.85-.63,1.09-.38,1.82-.75,1.91-.98Z"/><path class="cls-1" d="M311.56,306.97c-.17,.14-.4-.57-.26,2.54,.03,2.02,.12,2.22,.29,2.4,.07-.05,.15,.11,.24-.13,.09-.24,.21-.9,.17-2.52-.09-2.07-.31-2.4-.44-2.29Z"/><path class="cls-1" d="M148.03,61.58c.03,.14,.39-.77,.8-1.92,.76-2.08,1.57-5.04,1.2-4.53-.22,.31-.63,1.29-1.08,2.57-.8,2.24-1.13,3.74-.91,3.89Z"/><path class="cls-1" d="M237.03,9.13c-.18-.18-2.23,.4-4.34,1l-.88,.26-.39,.12-.18,.06c-.08,0-.03,.12-.05,.17-.03,.52-.05,.95-.06,1.3-.02,.7,.01,1.07,.08,1.19,.06,.11,.15-.04,.25-.54,.05-.25,.1-.58,.16-1.01,.04-.2,.03-.48,.11-.7l.82-.23c1.22-.36,2.27-.69,3.06-.98,.39-.14,.74-.28,.98-.38,.22-.09,.37-.17,.43-.24Z"/><path class="cls-1" d="M105.73,9.74c1.24-.34,.97-.52-1.51-.2-1.92,.35-4.16,.71-6.25,1.31-.93,.27-1.23,.4-.46,.35,.21,.06,.94-.13,1.85-.33,.92-.19,2.02-.44,2.94-.61,1.23-.21,1.41,.01,3.43-.52Z"/><path class="cls-1" d="M244,7.84c1.27-.42,2.32-.8,3.47-1.14l-.69-.07c-.73,.13-1.72,.34-2.12,.47-1.38,.43-2.63,.83-3.74,1.25-.28,.11-.17,.19,.25,.13,1.23-.15,2.27-.44,2.84-.62Z"/><path class="cls-1" d="M231.54,62.54s.06-.32,.11-.73c.05-.41,.1-.89,.12-1.19,.19-2.92,.09-3.98-.1-4.27-.15,.55-.33,1.76-.37,2.76-.07,2.24,.03,3.36,.23,3.43Z"/><path class="cls-1" d="M125.77,140.77c.19-1.54-.05-1.36-.18-1.47-.16-.14-.32-.21-.5-.22-.03,0-.11,.43-.17,.67-.03,.51-.11,1.31-.09,1.46,.05,.38,.15,.45,.2,.58,.11,0,.17,0,.25,0,.13-.02,.31,.37,.48-1.02Z"/><path class="cls-1" d="M136.72,6.99c1.09-.09-.65-.29-2.39-.36-1.83-.1-3.35-.1-2.11,.13,.96,.18,.99,.39,3.72,.54,2.28,.06,0-.24,.78-.31Z"/><path class="cls-1" d="M242.59,338.44c1.43-.13-1.23,.43,1.85,.02,1.08-.16,2.02-.47,2.35-.63,.16-.08-1.11-.06-1.89,.03-2.51,.28-1.74,.37-2.31,.58Z"/><path class="cls-1" d="M165.77,251.31c-1.22,.41-2.18,.78-2.26,.93-.16,.25,1.4-.09,3.49-.85,.52-.19,1.12-.58,1.57-.81-.38-.04-.71-.06-2.79,.73Z"/><path class="cls-1" d="M311.71,6.2c1.56,.1,3.45,.21,.97-.23-.56-.1-1.31-.21-2.12-.32-.39-.05-.85-.12-1.22-.16l-.92-.11c-.06,.06-.21,.11-.11,.19,.15,.12,.51,.25,.77,.38,.34,.02,.92,.09,1.38,.14,.48,.05,.93,.1,1.24,.12Z"/><path class="cls-1" d="M256.18,336.67c-.2,.22,.94,.2,3.51-.26,.77-.13,1.53-.3,2.73-.55l-5.31,.47c-.33,.11-.87,.26-.94,.33Z"/><path class="cls-1" d="M222.68,212.66c.1,.34,.26,.1,.54-1.78,.21-1.46,.24-2.38,.19-2.76-.08-.6-.32,.52-.56,2.07-.27,1.69-.19,2-.16,2.48Z"/><path class="cls-1" d="M145.69,63.52c-.48,1.56-.87,3.01-.7,2.99,.02,0,.14-.31,.28-.71,.14-.4,.31-.88,.43-1.23,.51-1.55,1.04-3.2,.94-3.47-.22,.3-.57,1.17-.95,2.42Z"/><path class="cls-1" d="M131.19,127.65c.08,.39,.32-.85,.55-2.08,.19-1.12,.43-2.61,.47-3.19,.05-.79-.23,.09-.48,1.29-.38,1.85-.54,3.13-.53,3.98Z"/><path class="cls-1" d="M306.25,267.33c-.11-.66-.22-.84-.21,.7,.04,1.71,.19,2.3,.29,2.39,.09,.08,.16-.48,.24-.75-.11-.79-.21-1.71-.32-2.34Z"/><path class="cls-1" d="M129.81,107.94c-.16,.24-.34,1.03-.32,1.42,.03,.46,.15,.53,.28,.57,.04,.02,.2-.58,.36-1.04,.09-1.35-.09-1.29-.33-.95Z"/><path class="cls-1" d="M296.12,325.76c.36-.22-.46-.09-1.69,.25-1.66,.46-1.7,.6-1.86,.75,.16,.06,.04,.23,1.96-.38,.66-.21,1.41-.51,1.59-.62Z"/><path class="cls-1" d="M243.62,12.19c-.1,.12,.35,.15,2.01-.21,1.13-.26,1.87-.44,1.84-.53-.45-.06-1.28-.01-2.47,.24-.68,.14-1.28,.39-1.38,.5Z"/><path class="cls-1" d="M182.34,250.02c-.44,.39,.53,.04,2.35-.98,1.07-.58,1.91-1.15,1.91-1.29-.02-.12-.66,.19-1.84,.8-1.39,.73-2.18,1.26-2.42,1.47Z"/><path class="cls-1" d="M124.33,243.35c.1,.39,.47,1.22,.99,2.14,.7,1.14,1.26,1.94,.9,1.1-.15-.36-.74-1.37-1-1.99-.75-1.36-1-1.77-.89-1.26Z"/><path class="cls-1" d="M70.06,327.08c.06,.11,.78,.73,1.26,1.1,1.13,.88,2.11,1.44,1.95,1.18-.07-.1-.85-.68-1.26-1.05-1.28-.95-2.11-1.5-1.95-1.23Z"/><path class="cls-1" d="M138.12,94.45c-.07,.1-.38,1.16-.52,1.75-.29,1.23-.46,2.27-.25,1.89,.08-.15,.35-1.16,.5-1.68,.35-1.5,.44-2.23,.27-1.96Z"/><path class="cls-1" d="M122.32,148.36c-.08-.12-.21,.13-.31,.22-.25,2.17-.08,2.42-.07,3.2,.02,.86,.17,.17,.31-1.16,.14-1.41,.17-2.12,.07-2.26Z"/><path class="cls-1" d="M275.57,6.99c2.13-.08,2.24-.23,2.28-.37l-1.12-.11c-.88,.14-1.82,.27-2.56,.41-.09,.02,.97,.09,1.39,.07Z"/><path class="cls-1" d="M49.96,101.71c-.23,.71-.53,1.58-.67,2.1-.14,.57-.23,1.17-.17,1.17,.1,0,.38-.86,.56-1.73,.13-.61,.19-1.03,.27-1.54Z"/><path class="cls-1" d="M44.66,147.37c.03,.11,.2-.49,.31-.78,.01-.53,.03-1.06,.04-1.49-.16,.42-.27,.71-.38,1,0,.45-.02,1.08,.03,1.26Z"/><path class="cls-1" d="M124.53,127.07c-.09,0-.25,.45-.38,.7-.02,.45-.09,1.21-.05,1.26,.08,.08,.22-.29,.37-.51,.03-.68,.1-1.45,.05-1.46Z"/><path class="cls-1" d="M303.7,171.07c-.04,.12-.07,.86-.11,1.32,.09,.24,.17,.61,.26,.66,.03,.01,.08-.78,.11-1.12-.06-1.23-.16-1.17-.26-.86Z"/><path class="cls-1" d="M311.67,85.5c-.07,2.02,0,2.94,.14,3.01,.06,.03,.18-.38,.23-.92,.14-1.61,.04-2.09-.04-2.26-.09-.18-.21,.09-.32,.15,.04-2.14-.04-1.79-.19-.2l.19,.21Z"/><path class="cls-1" d="M222.13,203.32c.06,.14,.14,.52,.34-1.23,.04-.32-.04-.6-.07-.89l-.29,.86c0,.44-.03,1.16,.02,1.26Z"/><path class="cls-1" d="M73.81,32.95c.01-.18-.26,.37-.44,.89-.34,.95-.72,2.09-1.09,3.17,.25-.51,.47-.9,.76-1.57,.33-.76,.73-1.92,.76-2.49Z"/><path class="cls-1" d="M303.56,186.71c-.1-.46-.2,.14-.2,1.64,0,1.19,.04,2.48,.16,2.53,.04,.02,.1-.84,.14-1.3,.03-1.33,0-2.45-.1-2.87Z"/><path class="cls-1" d="M309.42,11.7c-.06,.04-.1,.09-.12,.15,0,.03-.01,.06,0,.09v.5c0,.56,.08,.69,.12,1.02,.06-.15,.1-.41,.13-.74,.01-.17,.02-.35,.03-.56v-.18l-.02-.06c-.04-.11-.09-.24-.13-.21Z"/><path class="cls-1" d="M123.63,137.79c-.07-.06-.19-.12-.36,1.43-.04,.38,.03,.62,.05,.98,.11-.36,.17,.12,.36-1.51,.05-.4,0-.85-.05-.9Z"/><path class="cls-1" d="M303.01,4.69c-.1-.05-.77-.14-1.12-.21-1.37-.03-1.18,.09-1.09,.2,.04,.03,.62,.13,.75,.14,1.44,.07,1.65-.02,1.45-.13Z"/><path class="cls-1" d="M121.76,170.09c-.12-.09-.23-.55-.42,1.1-.04,.35-.06,2.44,.01,2.4,.17-.11,.28-2.08,.41-3.5Z"/><path class="cls-1" d="M304.13,225.78c.09-.98,.19-2,.28-2.92,.09-.9,.25-1.89,.13-3.52-.07-1-.26-1.18-.39-1.18-.25,0-.32,2.59-.35,4.81-.06,3.49,.18,2.7,.33,2.91,.04,1.23,.06,2.54,.11,3.66,.03,.59,.13,1.28,.18,1.13,.13-.46,.09-1.75,0-2.69-.08-.88-.19-1.48-.28-2.2Z"/><path class="cls-1" d="M222.16,210.37c.17-.57,.33-1.82,.44-3,.05-.57,.05-1,.06-1.43-.18,.57-.33,1.85-.44,2.99-.06,.57-.09,1.52-.07,1.43Z"/><path class="cls-1" d="M304.59,236.43c-.08-.06-.19-.03-.14,1.48,.01,.38,.12,.63,.18,.94,.07-.2,.19,.07,.14-1.48-.01-.42-.12-.89-.18-.93Z"/><path class="cls-1" d="M300.96,8.76c.06,.11,.84,.25,2.22,.34,.5,.03,.9-.01,1.56,0-.93-.13-1.79-.26-2.64-.38-.4,.02-1.16,0-1.14,.05Z"/><path class="cls-1" d="M307.09,89.16c-.08,.36-.15,.62-.22,1.12-.1,.68-.13,1.5-.09,1.95,.07,.7,.17,.07,.28-1.05l.03-2.02Z"/><path class="cls-1" d="M227.76,155.17c.05,.09,.14-.43,.22-.69,0-.55,0-1.49-.03-1.57-.05-.1-.14,.44-.22,.72,0,.56,0,1.48,.03,1.54Z"/><path class="cls-1" d="M306.22,240.72c.04,2.34,.18,1.5,.29,1.85l-.04-2.39c-.09,.17-.25,.31-.25,.55Z"/></svg>