<svg id="Handschrift" xmlns="http://www.w3.org/2000/svg" viewBox="0 0 350 350"><defs><style>.cls-1{fill:#010101;}</style></defs><path class="cls-1" d="M103.07,135.21c.93,1.02,1.92,2.11,2.46,2.91-.91-.93-1.92-2.01-2.7-2.76-.87-.84-1.59-1.42,.28,.65,1.99,2.2,2.18,2.72,2.35,3.22,.11,.33-.03,.42,1.2,1.8,1.3,1.46,1.44,1.35,1.8,1.56,.61,.36,1.67,1.29,3,2.6,2.3,2.27,4.73,4.58,6.12,6.95,.62,1.06,2.74,3.37,4.46,5.28,1.06,1.62,2.91,3.62,4.86,5.63,1.77,1.83,2.75,2.78,3.27,3.63,.51,.84,.71,1.49,.65,2.51l-.04,.25v-.24c-.12-1.13-.72-2.12-1.4-2.97-.69-.85-1.45-1.62-2.17-2.41-1.48-1.53-2.92-3.03-4.37-4.54-.28-.16-.63-.3-.8-.49-1.29-1.45-.55-.88-.74-1.24-2.24-2.54-3.93-4.68-5.65-6.85-.64-.8-1.3-1.56-2-2.24-1.08-1.06-.96-.71-.95-.49,.02,.36,2.73,3.56,.96,2.01-1.4-1.23-3.63-3.34-1.71-.84,2.58,3.36,3.57,3.69,5.16,5.18,.61,.57,1.15,1.05,1.82,1.71,1.19,1.19,2,2.25,2.19,2.64,.24,.5,.48,1.12-.14,.6-2.89-2.45,.58,1.67,1.35,3.03,.8,1.43,2.1,2.84,3.46,4.22,.7,.72,1.35,1.32,1.75,1.84,.43,.56,.54,.81,.57,1.19,0,.11-.02,.22-.04,.33-.02,.08,.01,.41-.12,.79,.15-.2,.25-.36,.33-.52,.09-.17,.15-.33,.22-.4,.08-.09,.16,.02,.18,.28,.02,.26-.01,.61-.24,1.14-.51,1.19-1.41,2.37-2.11,3.5-.71,1.11-1.28,2.08-1.77,2.99-.8,1.51-2.15,3.13-3.18,4.22-.71,.77-.88,.65-2.11,2.27-.08,.31,.21,.21-.81,1.61-.59,.8-1.16,1.3-1.74,1.93l2.46-3.43c-.94,.88-1.81,2.06-2.58,3.57-1.59,2.62-2.87,4.96-4,7.1-.89,1.7-2.03,3.15-2.81,3.84-.3,.27-.38,.2-.49,.18-.15-.03-.21-.31-.95,.77-.72,1.05-.43,1.02-.54,1.42-.22,.8-.75,2.02-.81,2.58-.07,.76-.88,2.13-3.04,5.08-.62,.84-1.23,1.7-1.18,1.87,.04,.14,.74-.84,1.37-1.7,.42-.59,2.22-3.07,.8-.89-2.92,4.55-1,2.51-2.07,4.51-.4,.74-.33,1.11-.97,1.48-1.07,.61-2.71,3.97-3.94,5.62-1.65,1.92-3.71,4.99-4.09,6.25-.55,1.83-2.1,4.34-4.74,8.39-1.49,2.31-1.65,2.97-1.47,3.12,.37,.29-1.38,3.02-3.2,5.87-.69,.1-.75-.88-.67-1.96,.1-1.12-2.21,1.42-.03-2.88,.75-2.05,4.12-7.67,3.97-8.53-.04-.2,.38-1.07-.39-.12-.77,.94-1.59,1.96-2.49,3.7-1.27,2.46-2.53,4.37-4.09,6.44-1.94,2.62-4.18,6.36-6.21,9.69-1.84,3.02-1.73,3.52-2.32,4.95-.7,1.69-1.83,2.32-2.9,4.64-1.17,2.53-2.38,4.55-4.16,7.08-.61,.88-1.26,2.45-1.6,3.35-.89,1.56-1.86,3.19-2.65,4.66-1.19,2.26-1.77,3.24-1.46,2.14,.17-.62,.02-.6-.72,.53-.93,1.41-1.33,2.43-1.73,3.32-.99,2.18-1.85,4.16-2.18,5.44-.55,2.12-1.68,4.14-4.08,7.65-.42,.61-.69,.89-1.11,1.52-1.06,1.59-2.88,4.71-4.4,7.61l-1.08,2.1c-.5,1-.96,1.92-1.37,2.74-.83,1.69-1.36,2.88-1.43,3.24-.05,.25-.13,.53-.24,.86l-.19,.51-.11,.27-.06,.14s.1,.04,.15,.06c.96,.25,1.99,.56,3.08,.91,2.1,.67,4.91,1.67,6.29,2.17-.93-.6-5.25-2.13-7.61-3.1-.32-.13-.58-.25-.75-.35-.28-.05,.04-.28,.06-.32,.07-.06,.08-.02,.02,.13,.15,.07,.5,.15,.93,.31,4.84,1.7,3.42,.91,4.22,1.02,.64,.08,.87,0,1.26,0l1.51,.68c.48,.22,.93,.43,1.28,.61,2.68,1.38,8.14,3.59,9.81,4.79,4.56,1.65,6.6,2.92,9.82,4.42,1.12,.67,.49,.79,3.6,2.07,4.37,1.82,8.81,4.28,12.97,5.7,2,.68,3.43,1.33,5.42,2.55,.35,.2,6.42,3.94,4.65,2.02-.44-.49,2.89,1.08,3.19,.91,.22-.13,2.19,.89,2.58,1.4,.41,.55,2.01,1.37,4.1,2.32,1.32,.59,2.32,.98,4.16,2.17,1.14,.72,2.2,1.4,3.48,2.16,1.3,.72,2.82,1.57,5.04,1.7,1.09,.04,2.21-.16,3.23-.65,1.05-.49,1.87-1.16,2.55-1.84,.68-.69,1.23-1.4,1.72-2.09,.5-.7,.91-1.33,1.37-2.01,1.87-2.8,2.14-2.88,2.41-2.89l1.2-1.73c-.27-.38-.84-.17-4.26,4.59-.96,1.32-1.73,2.23-2.88,3.28-.59,.52-1.25,1.08-2.31,1.61-1.03,.51-2.44,.86-4.09,.58-.88-.15-1.12-.46-.74-.44,.2,0,.47,.02,.89,.07,.43,.04,1.04,.12,1.89,.04,1.21-.1,2.46-.73,3.36-1.54,.92-.8,1.62-1.75,2.24-2.68,1.06-1.66,2.01-3.22,3.01-4.83l1.01-.21,1.26-1.84c2.35-3.97,2.6-4.32,3.82-5.29l2.45-3.75c.91-2.14,5.26-8.45,5.35-9.76,.02-.36,.87-1.96,2-3.71,1.51-2.33,1.62-2.09,1.77-1.94,.15,.13,.32,.25-.8,2.28,.22,.09-.59,1.7-.87,2.52-.88,2.63,.15,1.69,3.76-3.75,1.44-2.24,4.36-6.94,4.48-7.57,.47-2.05,2.75-5.07,4.06-7.51,1.55-2.8,4.07-6.95,4.38-8.18,.6-2.23,1.7-3.55,2.89-5.55,.8-1.34,1.69-2.86,2.54-4.4,.94-1.72,1.09-2.21,.75-1.94-.69,.54,.25-1.7,1.71-4.53,1.51-3.01,3.32-7.5,4.63-8.87,1.37-2.36,2.74-5.27,3.95-8.06,1.59-3.63,1.5-3.05,1.29-2.03-.08,.4,.02,.46,.1,.53,.35,.3,1.96-3.41,3.03-5.6l.27-.56s.02-.04,.02-.06c0-.04-.01-.09-.04-.13-.05-.09-.13-.16-.16-.26-.07-.16-.16-.58,0-.69,.23-.14,.32-.45,.45-.89,.02-.04,.03-.13,.05-.14l.06,.07c.04,.05,.09,.11,.13,.18,.09,.13,.17,.3,.23,.52,.16,.59,.33,1.06,.07,1.24-.08,.06-.23,.24-.16,.3,.79,1.27,1.61,2.29,1.51,1.89-.31-1.36,.83,.58,2.15,3,.53,.96,1.06,2.24,.82,1.96-2.33-2.71,.74,2.09,1.45,3.02,1.9,2.47,3.18,4.58,4.61,7.14,2.15,3.73,3.68,5.9,4.46,6.16,.3,.09,1.06,.99,2.34,2.9,1.03,1.54,1.16,1.96,1.22,2.31,.17,.97,1.72,2.9,2.07,3.03,.41,.15,.42-.02,1.65,2.08,.53,.88,.79,1.71,1.52,2.55,3.09,3.56,6.81,8.19,10.17,11.91,1.34,1.47,2.07,1.97,3.87,4.47,1.55,2.1,2.04,3.03,.73,1.86-.87-.77-.95-.62,.52,1.28,2.38,3.13,5.12,5.9,7.69,9.01,.45,.52,.99,.88,.58,.26-.22-.33-.71-.92-.98-1.3-1.19-1.77-.65-1.53,.98,.14,2.06,2.08,.76,1.18,1.49,2.13,1.06,1.37,1.26,1.34,1.37,1.35,.78,.11,3.23,3.39,4.8,4.87,2.49,2.36,1.6,.55,3.27,2.32,3.75,3.94,3.91,3.72,4.56,3.92,.19,.06,.79,.47,1.74,1.46,.77,.8,1.06,1.25,.57,.9-.93-.66-1.24-.74-.99-.34,.12,.2,.38,.53,.76,.97l.67,.74,.5,.53,.69,.72c-.69-.37-.28,.35-.32,.63-.03,.13-.18,.14-.7-.21-.13-.09-.28-.2-.46-.34l-.29-.23-.21-.15c-.29-.2-.64-.48-1.08-.83-.49-.4-.43-.23-.06,.22,.18,.23,.45,.52,.75,.86l.24,.26,.48,.48,1.01,1.01,1.37,1.36,.69,.68,.17,.17c.07,0,.14-.03,.21-.05l.43-.12,3.31-.93,1.54-.45,.34-.1,.21-.07,.41-.15c.54-.19,1.02-.38,1.44-.55,5.78-2.42,12.5-5.56,19.27-10.17,.19-.14,.23-.22,.32-.32-1.3,.8-2.49,1.35-2.49,1.2-.01-.24,1.87-1.24,2.87-1.94,2.96-1.89,5.23-3.59,6.99-4.71-.85,.76-1.7,1.52-2.59,2.21-.91,.66-1.81,1.32-2.76,1.9,.14,.05-.16,.42,.08,.39,.25-.02,1.01-.48,3.23-2.14l2.5-2.03c.81-.71,1.6-1.46,2.39-2.25,2.62-2.79,4.99-5.69,7.74-9.07,.49-.63,1.12-1.47,1.57-2.25,.45-.77,.79-1.43,.79-1.63,0-.19-.31,.15-.75,.72-.43,.58-.99,1.37-1.49,2.11-3.02,4.56-4.07,5.17-4.43,4.97-.22-.11-1.72,1.28-1.58,.73,1.92-2.13,3.71-4.67,1.64-2.54-1.44,1.37-1.45,.87-1.71,.75-.13-.07-.33-.05-.81,.31-.24,.18-.55,.45-.96,.83-.42,.37-.96,.84-1.62,1.46-.06,.05,.3-.57,.51-.92,.59-.86,2.61-3.58,.84-2.01-.91,.84-1.85,1.64-2.68,2.55-.86,.88-1.72,1.75-2.53,2.63-.19,.18-.49,.46-.75,.66-.6,.49-1.1,.86-1.55,1.16-.46,.29-.87,.52-1.27,.74-.8,.45-1.55,.91-2.7,1.72-1.76,1.25,.19,.64-2.94,2.65-.29,.18-.56,.39-.83,.54-3.91,2.14-5.99,3.33-8.58,4.71-3.51,1.74-4.28,1.9-5.21,1.72-.45-.08-1.91,.22-3.5,.55-.87,.2-1.41,.26-1.99,.34-.28,.04-.53,.07-.75,.08h-.44s-.05-.06-.08-.1c-.17-.29-.82-.74-1.3-1.14-.91-.78-2.2-1.86-2.87-2.56-3.84-4.15-5.47-5.4-6.53-5.85-.32-.14-.9-.51-1.9-1.82-1.46-1.88-2.95-3.5-5.16-5.9-1.94-2.08-.63-.9-.07-.43,.72,.61,2.37,2.25,1.11,.59-1.28-1.68-1.99-2.09-2.86-2.91-.99-.96-1.67-1.89-2.52-2.97-3.67-4.65-7.42-9.06-10.7-12.82-1.78-2.03-3.24-3.91-5.03-6.19-2.39-3.17-4.7-6.1-6.33-9.09-1.52-2.7-4.39-5.94-5.76-8.42-1.59-2.91-2.26-3.72-3.62-5.27-1.64-1.86-5.44-7.54-7.01-10.2-1.04-1.74,.47-.45-2.23-4.05-.65-.89-1.01-1.64-1.42-2.5-.21-.43-.43-.88-.71-1.38l-.22-.39-.31-.51c-.22-.35-.46-.72-.72-1.11-1.04-1.54-1.63-2.7-2.21-3.86-.58-1.15-1.14-2.29-1.9-3.48-.25-.39-.45-.69-.62-.92l-.12-.16-.05-.07-.03-.03s-.01,.03-.02,.05l-.13,.4c-.15,.48-.21,.78-.24,1.02-.06,.47,0,.71-.22,1.53-.05,.17-.22,.6-.29,.82-.77,2.46-.67,2.26,.59,.01-.22,.75-.02,.94-.68,2.25-.57,1.13-1.13,2.18-1.73,3.41-.61,1.23-1.26,2.62-1.94,4.33-.65,1.64-1.44,3.07-1.49,2.89-.18-.68-1.88,2.66-3.01,5.08-2.54,5.32-4.96,8.24-7.66,14.87-.08,.19-.93,1.63-1.23,2.04-.95,1.3-2.07,3.47-3.3,5.77-1.37,2.59-2.61,4.87-4.03,7.07-1.94,3.1-5.33,9.59-4.68,9.18,1.57-.98-1.57,4.14-3.84,8.12-1.41,2.4-2.61,4.76-4.19,7.2-.05-.85-1.15,.31-4.15,5.11-1.8,2.79-3.44,5.32-4.75,6.72-1.4,1.49-2.67,3.74-2.75,4.39-.09,.82-.94,2.54-2.32,4.98-.72,1.27-1.51,2.26-2.12,2.97-.59,.68-1.15,1.34-.62,.27,.8-1.59,.76-2.01,.24-1.29-1.73,2.3-1.42,2.36-1.61,2.81-.28,.66-.77,1.54-1.34,2.52-.58,.98-1.22,2.08-1.86,2.96-.98,1.39-2.2,2.33-3.55,2.41-.74,.05-.87,.14-1.1,.24-.23,.06-.64,.14-1.94-.47-3.86-2.09,1.51,.19-1.06-1.44-.66-.43,.26-.2-.33-.64-2.85-2.12-5.97-2.88-9.33-4.96-.96-.59-2.08-.93-2.14-.8-.02,.06,.32,.32,.75,.59,.72,.44,1.62,.95,2.5,1.46,1.87,1.09,2.24,1.48,1.53,1.29-.96-.26-2.98-1.51-4.23-2.15-3.24-1.7-4.83-2.92-8.19-4.66-5.52-2.83-7.28-3.85-5.27-3.48,1.37,.26-.11-.82,1.51-.4,.07,.02-1.27-.75-2.09-1.16-.9-.45-2.36-1.05-1.99-.76,1.15,.91-.53,.43-1.99,.07,1.18,.61,1.48,.88,1.74,1.15,1.16,1.28,1.53,2.04-6.97-1.58-1.11-.47-2.21-.77-1.43-.26,.46,.31,1.43,.82,2.42,1.21,2.69,1.04,5.26,2.28,7.84,3.57,2.65,1.34,2.26,1.41,1.91,1.46-.52,.08-2.19-.86-3.62-1.6-4.5-2.28-6.8-2.96-8.71-3.41-.9-.2-2.19-.71-2.02-.9,.35-.4-2.5-1.71-6.23-3.28-3.31-1.39-6.62-2.83-9.91-4.07-4.01-1.47-4.01-1.73-3.41-1.76,.65-.04,1.99,.19,3.23,.38,.74,.11,1.99,.58,3.36,1.22,1.65,.76,3.25,1.41,4.09,1.52,.62,.07,1.36,.14,.04-.53-2.67-1.35-5.64-2.81-9.66-4.24-2.81-1-7.64-2.77-5.52-1.37,.39,.25-1.59-.09-4-1.02-2.13-.83,.43-.17,.12-.43-.55-.41-.59-.61-.29-.67,.4-.04,1.36,.14,3.11,.57,2.28,.57-.86-.62-2.85-1.36,.04-.23-.23-.52-.52-.8-.28-.28-.54-.54-.57-.73,.53-.54,.84-.7,.96-.89,.03-.05,.06-.1,.09-.15l.03-.09s0-.02,.02-.06l.13-.28c.36-.76,.77-1.67,1.29-2.86,.98-2.2,2.07-4.79,3.27-6.79,1.57-2.63,1.08-3.19,2.82-5.46,1.63-2.13,1.64-3.54,3.12-5.85,.53-.84,1.42-2.42,2-3.22,2.24-3.09,4.15-6.53,5.98-10.4,.29-.63,.92-1.78,1.4-2.58,4.15-6.9,4.26-7.05,5.64-10.78l.38-.99c.63-1.53,1.64-3.07,2.8-4.73,2.09-3-.31,.91-.38,1.26-.1,.43-.28,.98,.41,.07,.87-1.16,1.32-2.12,1.76-3.05,1-2.13,1.79-3.18,2.34-3.58,.28-.2,.27,.1,.63-.23,1.03-.97,2.13-2.76,3.33-5.4,.39-.84,.65-1.59,1.5-2.62,2.21-2.68,2.76-4.78,4.61-7.43,1.08-1.56,.72-1.57,1.16-2.41,1.09-2.11,1.96-2.43,2.69-3.87,1.7-3.27,2.16-3.17,3.11-4.42,2.34-3.09,2.55-3.46,2.69-4.69,.04-.31,.85-1.63,1.61-2.84,.6-.56,1.18-1.08,1.82-1.7,.44-.43,1.07-1.12,1.92-2.46,.34-.54,.56-1.16,.45-1.15-.53,.03,.69-1.69,2.31-3.77,.94-1.21,1.73-2.11,2.64-3.25,1.63-2.05,1.68-2.09,2.93-4.54,.33-.64,.87-1.48,1.45-2.25,.8-1.06,1.54-1.99,2.32-2.97,3.23-4.06,4.4-5.87,4.36-6.69-.03-.5-.12-.92,.17-1.84,.13-.41,1.16-1.93,1.32-1.71,.18,.24,1.48-1.58,2.33-2.83,.56-.82,1.08-1.66,1.57-2.45,.48-.78,.99-1.53,1.48-2.26,.45-.66,.94-1.52,1.29-2.58,.38-1.07,.51-2.38,.35-3.47-.2-1.41-.81-2.57-.99-3.25-.17-.67-1.15-1.95-2.07-2.96-.95-1.08-2.06-2.23-2.84-3.02-2.75-2.8-5.41-5.18-5.83-6.78-.02-.07-.88-1.11-1.14-1.36-4.17-4.13-6.4-7.24-8.96-10.48-1.99-2.51-2.98-3.31-4.05-4.2-1.78-2.27-3.69-4.5-5.9-6.6-.01-.15-.08-.34-.81-1.13-.26-.28-.49-.42-.73-.62-2.85-2.97-.32,.29-1.4-.63-1.13-.97-2.7-2.48-2.99-2.39-.11,.04-.36-.09-.44-.03-.08,.07,.5,.95,.8,1.23,3.51,3.26,4.82,5.66,7.43,8.54Zm180.34,178.76c.76-.63,1.54-1.14,2.27-1.77-.55,.66-1.12,1.22-1.7,1.85-.58,.63-1.22,1.25-2.01,1.92-.43,.37-1.57,.97-2.01,1.08-.39-.13,1.13-1.27,3.45-3.07Zm-17.39,11.9c.28-.32,.89-.79,3.25-1.82,1.32-.59,2.3-.91,2.18-.7-.15,.23-.84,.64-1.73,1.05l-2.84,1.23-.89,.34s0-.06,.03-.11Zm-19.71-3.24l.48,.66-1.67-1.52s-.29-.36-.27-.38c.1-.06,.6,.37,1.45,1.24Zm-83.73-39.67c.73-1.5,2.24-4.31,2.79-5.1,1.04-1.51-.31,1.34-.67,2.37-.25,.72,1.05-1.05-.73,2.09-1.27,2.27-2.04,2.78-4.03,7.01h-.3c.96-2.1,1.82-4.06,2.94-6.37Zm-7.45,13.9c.83-1.21,1.5-2,2.04-2.58,.63-.68-.58,1.41-1.03,2.31-1.41,2.82-1.14,1.73-1.56,2.25l.42-.81c.07-.14,.04-.16,.06-.24l-.51,1.08c-.78,1.2-1.08,1.45-1.07,1.15,.02-.44,.57-1.64,1.65-3.16Zm-5.84,9.52c.33-.55,1.04-1.48,1.15-1.5,.42-.1,.66,.1,.96,.19l-1.07,1.78c-.19-.28-.16-.94-1.28,.39-.33,.39-.4,.24,.24-.85Zm-14.54,18.93c.37-.56,.75-1.08,1.13-1.62-1.07,2.02-2.13,4.06-3.23,6.06l-.63,.6c-.02-.56,.77-2.02,2.73-5.04Zm-30.75,12.1c3.46,1.54,5.96,3.02,7.74,4.37-2.41-1.28-4.84-2.55-7.28-3.79-.4-.2-.99-.61-1.11-.74-.1-.1,.27-.01,.66,.16Zm-60.12-27.16c.1-.38,.58-1.58,.77-1.91,1.05-1.83,.56-.63,.41-.13l-.58,1.8c-.71,.98-.76,.79-.6,.24Zm3.1-1.38c-.49,.59-.31,.06,.15-.9,.18-.09,.81-1.08,.44-.11-.07,.18-.47,.87-.59,1.01Zm3.62-7.17c-.11,.07-.36,.37-.28,.13,.08-.26,.48-1.1,.73-1.54,.49-.86,.58-.88,.26-.15l-.71,1.57Zm-.35-5.67c-.84,1.34-2.13,3.7-1.95,2.76,.02-.12,.5-1.03,.78-1.59,.98-1.65,2-3.35,1.93-2.69-.02,.21-.4,.93-.76,1.52Zm4.07-5.5c-1.21,2.22-1.33,1.99-1.59,2.04-.15-.27,.26-1.51,1.23-3.65,.79-.95,1.94-2.57,2.23-2.6,.19-.02-.72,2.11-1.87,4.21Zm4.62-6.46c-.03-.07-.09-.1-.08-.25,.03-.38-.21-.36,.91-2.42,.41-.74,.62-.95,.57-.71-.12,.62,.47,.17-1.4,3.38Zm8.02-8.15c-.54,.68-.88,1.13-1.15,1.43-.27,.31-.71,.86-.03-.42,.56-1.04,.98-1.57,1.11-1.6,.12-.03,.04,.3,.06,.59Zm12.88-29.37c-2.98,4.49-2.59,4.55-2.29,4.7,.1,.04-.01,.23-1.2,1.92-.16,.22-.26,.28-.4,.51-1.34,2.12,.02,.94-1.54,3.08-1.32,1.8-1.96,2.9-2.81,4.63-.95,1.94-1.98,3.87-3.47,6.2-2.8,4.69-3.42,5.46-2.52,3.06,.6-1.57,1.04-2.99,3.16-6.56,1.05-1.77,1-1.92,.51-1.43-.37,.38-.05-.6,.66-1.4,1.54-1.76,3.54-5.25,5.49-8.35,1.33-2.14,2.68-4.28,4.04-6.37,.28-.44,.68-.91,.75-.92,.07-.01-.3,.79-.39,.92Zm4.59-1.07c-.12,.07-.25,.16-.35,.2-.14,.05-.26,.07-.38,.09,.36-.45,.81-1.05,.96-1.13,.14-.09-.13,.53-.22,.84Zm13.46-21.9c-.45,.56-.87,1.03-1.36,1.73-4.08,5.94-1.07,1.07-.18-.54,.49-.45,.89-1.05,1.2-1.81,1.54-1.94,2.19-2.54,.34,.63Zm1.44-3.79c-2.12,2.84-1.77,2.78-1.79,3.17l-1.17,1.76c-.11-.53,.05-1.39,3.1-5.78,.57-.82,1.24-1.7,1.1-1.26-.1,.35-.6,1.24-1.25,2.12Zm29.05-45.54c-.77,.95-1.46,1.52-1.62,1.48-.33-.1,1.5-2.13,2.06-3.16,.63-1.13,.78-1.81,.85-2.17,.07-.37,.09-.48,.13-.43,.09,.09,.11,.83,.06,1.19-.24,.71-.41,1.16-.58,1.6-.18,.44-.4,.86-.9,1.49Z"/><path class="cls-1" d="M306.22,260.13c.38,.21,.08-.46-.74-1.79-1.21-1.98-.99-2.05,.91,.56,2.59,3.57,3.12,3.8,4.59,5.48,1.69,1.95,1.27,1.26,0-.72l-1.93-3.1-3.43-5.21-2.33-3.48-1.1-1.61c-.48-.53-1.07-1.21-1.37-1.49-.42-.39-4.5-5.13-5.24-6.08-1.66-2.1-2.61-3.81-4.38-5.9-1.03-1.22-1.28-1.69-1.03-1.56,1.38,.76-1.22-2.18-2.61-3.7-1.27-1.4-2.08-2.16-2.96-3.7-1.78-2.54-3.49-5.12-5.77-7.24-2.02-2.71-3.39-4.95-6.21-8.16-.67-.77-1.62-1.91-1.95-2.19-1.96-1.7-4.85-5.37-7.4-8.23-.71-1.85-.67-1.74-4.82-6.4-3.2-3.61-3.81-3.45-7.44-7.58-3.47-3.9-5-5.54-4.35-5.43,.91,.15-.92-1.7-3.31-4.4l-5.53-6.21c-.94-1.06-1.85-2.02-2.45-2.93-.3-.45-.53-.89-.65-1.28-.12-.39-.16-.73-.13-1.1,.07-.76,.56-1.79,1.22-2.98l1.99-3.64,4-7.25c4.47-8.08,5.86-10.87,5.76-12.53-.04-.83,1.57-3.58,2.57-5.64,.56-1.16,1.26-2.58,1.92-3.5,1.14-1.62,.88-.65,.39,.7-.06,.18-.22,.51-.27,.67-.63,1.94,.53,.61,2.67-3.18,.99-1.75,1.97-3.69,2.96-5.54,1.74-3.22,1.19-2.72,.6-1.98-.68,.84-2.39,3.89-2.23,2.94,.88-1.72,1.79-3.84,2.68-5.02,1.44-1.91,2.47-4.41,3.66-6.5l-.21-.48,1.05-1.89c.52-.53,1.23-1.49,2.38-3.44,1.05-.88,1.06-.9,2.9-4.6,1.9-3.84,2.61-4.98,3.99-6.49,.23-.25,.16,.5,1.07-1.55,1.68-3.76,3.17-6.17,5.11-9.18,1.69-2.62,4.65-8.43,5.03-9.73,.04-.13,.79-1.84,1.52-3.53l1-2.31,.32-.76c.07-.19,.11-.3,.11-.3-.42-.37,3.22-6.39,3.6-8,.1-.44,3.17-5.87,.64-2.15-.15,.22-.11-.15,0-.37,.78-1.57,1.67-3.11,2.35-4.77,.33-.83,.58-1.7,.65-2.59,.07-.89-.07-1.78-.37-2.59-.45-1.1-.62-1.38-.52-1.46,.09-.08,.35,.1,.44,.05,.16-.07-.02-.87-1.38-2.43-1.23-1.33-1.88-1.98-2.35-2.57-.48-.58-.82-1.06-1.51-1.8-1.13-1.19-4.64-3.75-4.61-4.24,.05-.62-3.47-2.86-5.37-4.27-3.05-2.28-2.43-1.46-2.72-1.45-.29,.01-.17,.31-.23,.49,2.41,1.87,3.25,2.75,2.96,2.91,.87,.61,2.28,1.57,2.43,1.72,2.1,2.1,1.72,2.44,1.65,2.99-.06,.53-3.19-2.26-4.3-2.85-.55-.31-1.42-.83-1.56-.82-.43,.05-1.36-.43-4.05-2.29-.84-.58-1.14-.69-.6-.26,.69,.54,2.17,1.59,2.19,1.67,.13,.37-1.47-.94-2.27-1.43-.81-.51-2.24-1.49-2.43-1.55-.51-.16,.54,.65,1.52,1.42,1.97,1.5,4.54,3.32,6.25,4.68,3.02,2.38,3.99,3.52,3.85,2.59-.08-.49,1.66,.58,4.01,2.97,1,1,2.55,2.11,3.61,2.83,.48,.34,.76,.48,1.09,.7,.33,.22,.73,.49,1.3,1.13,.61,.54,.94,1.06,1.01,1.56,.4,1.2,.15,1.51,.06,1.69-.14,.19-.25,.24-.47,.88-.32,.88-.84,2.03-1.47,3.25-.64,1.24-1.23,2.43-1.81,3.27-2.73,4-2.51,4.52-2.65,5.39-.11,.65,1.07-.82-.6,2.36-1.34,2.54-2.05,3.13-3.12,4.78-.84,1.29-1.23,1.66-1.59,1.96-.79,.65-3.39,4.69-4.11,6.1-1.78,3.48-3.22,5.89-4.87,8.68-.24,.4-.7,1.36-.79,1.64-.61,1.78-.33,1.97,.68,.83,2.21-4.79,2.07-3.35,3.01-4.76,.81-1.55,1.86-3.71,2.36-4.49,1.27-1.97,.09,.38-.34,1.41-.45,1.1-1.02,2.72-.95,2.62,2.1-3.27,1.55-1.53,1.69-1.1,.02,.06,.48-.65,.78-1.13,.38-.6,.6-1.07,.67-1.39,.17-.75-.58-.04,1.13-3.27,1.65-3.11,1.99-3.02,2.97-4.49,.81-1.21,1.67-2.72,2.54-4.18,.27-.46,.55-.8,.67-.89,.05-.04-.36,.89-.52,1.16-3.39,5.8-5.63,11.04-8.99,16.92-1.97,3.45-3.78,6.84-3.19,4.58,.11-.43-.67,.71-.98,1.34-1.98,4.06-5.84,10.04-6.32,12.53-.09,.48-.56,1.62-1.36,2.84-2.95,4.55-5.72,9.36-8.34,14.93-.31,.66-.55,1.08-.73,1.21-.44,.31,.2-1.2,.59-2.28,.58-1.62,1.34-2.56,2.03-3.63,.41-.63,.75-1.22,.83-1.5,.06-.24,0-.3-.14-.15-.37,.39-1.05,1.42-1.76,2.68-1.43,2.51-3.03,5.25-4.23,7.6-1.45,2.83-2.29,3.14-3.89,6.76-.73,1.65-1.81,2.96-2.49,3.87-1.01,1.35,.17-1.05,.42-1.88,.45-1.48,3.44-6.39,2.98-6.49-.56-.12-3.06,5.39-4.44,7.23-1.29,1.72-2.74,4.49-2.56,5.07,.18,.59-.61,1.92-2.46,5.01-2.23,3.75-4.2,7.78-4.5,9.24-.23,1.08-1.8,4.07-2.05,5.01-.29,1.07-.6,1.69-1.46,2.86-.22,.3-.59,.92-.76,1.13-.16,.23-.18-.09,.43-1.43,.44-.92,1.05-2,1.41-2.78,.45-.96-.02-.49-.27,0-1.37,2.85-2.31,3.84-2.95,6.07-.36,1.36-.16,2.63-.23,2.77-.03,.07-.15-.1-.28-.71-.07-.3-.13-.71-.14-1.24,0-.53,.05-1.18,.21-1.86,.12-.49,.09-.55-.06-.21-.13,.33-.42,1.1-.41,2.41,.02,.97,.2,1.77,.38,2.37,.18,.61,.37,1.08,.54,1.47,.34,.77,.58,1.27,.87,1.81,.35,.62,.54,1.07,1.61,2.16,.93,.93,1.8,1.76,1.63,1.33-.35-.91-.88-1.99-1.23-2.92-.08-.23,.3,.03,.77,.45,.65,.57,1.33,1.44,1.78,2.06,2.03,2.81,2.76,3.62,2.77,2.83,.02-.75,.36-.39,3.95,3.94,4.39,4.65,8.65,9.61,12.38,14.37,1.4,1.79,2.27,3.32,3.93,5.41,2.75,3.48,2.12,1.72,4.59,4.63,.79,.93,1.59,1.72,2.38,2.58,.77,.65-.53-1.62,3.15,3.12,1.5,1.96,3.91,4.52,5.9,6.82,.48,.56,.27,.08,1.41,1.57,3.68,4.79,3.8,4.92,4.13,4.63,.1-.09-.38-.94,.71,.29,.96,1.09,1.67,2.15,2.35,3.14,.68,.98,1.43,2.04,1.56,2.45,.08,.26,.35,.74,.53,1.13,.35,.31,.93,.93,1,.88,.37-.24,3,2.28-.81-3.11-.4-.57,.39,.19,1.06,.99,3.62,4.29,2.68,4.47,5.94,8.54,.3,.37,.91,1.4,.94,1.6,.04,.2-.32,0-.73-.49-4.08-4.85-4.26-4.2-4.74-3.96-.25,.12-1.53-1.44-2.94-3.21,4.76,6.64,6.74,9.07,7.02,8.23,.04-.11-.51-.98,.13-.31,2.44,2.55,6.59,9.16,8.27,10.12l1.41,2.18,1.62,2.7c.46,.76,1.19,1.78,1.73,2.38,.47,.53,.83,.83,1.03,.94Zm-21.45-219.47c-.18-.2-.63-.63-.51-.59,.3,.11,.99,.61,1.84,1.34,.21,.18,.52,.48,.48,.47-.26-.07-.93-.53-1.82-1.22Zm-29.65,84.87c.14-.26,.53-.67,.68-.77,.17-.11,.2,.03,.29,.08-.79,1.36-1.8,3.26-1.98,3.1-.1-.09,.27-1.03,1.01-2.41Zm-15.58,23.9c.29-.66,.65-1.3,.78-1.33,.06-.01-.13,.51-.34,.94-.22,.44-.61,1.07-.93,1.62,.16-.4,.29-.77,.49-1.22Zm-2.81,7.68c-.3,.14-1.34,1.53,.23-1.49,1.19-2.28,2.44-4.48,3.28-5.43,.38-.42,.99-1.32,1.42-1.85,1.12-1.37,.74-.25-1.37,3.47-1.05,1.85-1.83,3.11-2.55,4.76-.03,.06-.62,.97-.84,1.25-.67,.86-.4,.03-.17-.72Zm-4.88,10.3c-.05-.71,.05-1,.09-1.09,.05-.09,.09,0,.12,.06,.04,.07,.06,.69,.15,1.05-.03,.2-.07,.42-.08,.63-.12-.21-.27-.48-.29-.65Zm16.74,19.8c.33-.08,1.34,.75,3.48,3.12-.33,.07-.28,.64-3.48-3.12Zm4.83,4.69l-1.24-1.47c.28,.18,.44,.18,.88,.65,1.23,1.29,2.44,2.9,2.44,3.1,.02,.25-1.33-1.42-2.08-2.28Zm2.72,5.99c-.81-1.07-1.39-1.91-.84-1.5,.16,.12,.72,.74,1.09,1.13,1.15,1.45,.89,1.36,.64,1.28-.16-.05-.52-.4-.9-.9Zm4.84,1.65l-.68-.86c-.22-.28-.38-.5-.37-.51,.12-.04,.87,.86,1.41,1.5l1.82,2.21c-.52-.42-1.3-1.29-2.17-2.35Zm3.87,7.04l-.59-.71,.23-.04c1.63,1.98,2.64,2.51,4.55,5.18,.15,.21,.35,.52,.28,.47-1.09-.91-2.8-2.94-4.48-4.9Zm6,5.36l-1.87-2.17c0-.16-.14-.49,.02-.44,.48,.14,2.93,3.19,3.2,2.93,.58,.99,.88,1.43,.87,1.5-.05,.32-.1,.66-2.22-1.82Zm5.97,8.58s-.44-.74-.3-.62c.55,.45,1.45,1.55,2.34,2.71,.55,.72,.7,.97,.31,.65l-2.35-2.74Zm26.83,34.18c-.67-.99-2.16-2.87-1.68-2.56,.57,.38,1.88,1.8,3.56,4.12,1.17,1.61,1.79,2.73,1.81,3.05,.01,.28-.83-.74-1.8-2.03l-1.89-2.57Z"/><path class="cls-1" d="M226.27,32.9c.27-2.33,1.65-5.68,5.44-12.81-.47-.65-.94-1.33-1.43-1.95-.06-.08-.19-.1-.83,1.04-.29,.53-.65,1.29-.86,1.76-.65,1.54-1.25,2.95-1.89,4.48-.64,1.52-.03,1.28-1.79,4.25-.83,1.4,.29-1.31,.3-1.76,0-.37,.62-1.84,.64-2.23,.02-.57,2.48-5.17,1.19-3.38-.47,.66-2.14,3.93-3.34,6.07-1.37,2.44-2.35,4.57-.79,2.31,.72-1.05,.2,.17,.04,.72-.21,.74-.45,1.61-1.42,3.41-.55,1.01-1.18,1.94-1.27,1.73-.15-.35-1.18,1.88-1.93,3.26-.73,1.35-.24,1.09-1.74,3.64-1.88,3.23-5.27,11-4.25,9.81,1.49-1.72-.24,1.91-.69,3.42,.32-.44,.75-1.1,.92-1.24,.15-.12-.18,.56-.34,.75-.26,.31-.42,.41-.62,.6-1.89,3.32-1.76,3.69-1.98,4.54-.38,1.43-1.2,3.3-3.53,7.2-3.2,5.37-3.23,5.49-7.09,11.16-.51,.73-1.23,1.89-1.21,1.61,.02-.34,.81-1.44,1.25-2.21,2.15-3.77,4.31-7.56,6.49-11.36,1.34-2.33,3.24-5.66,.94-2.45-.5,.67-4.49,6.24,.83-3.17,.23-.42,.49-1.37,.51-1.68,.07-.79,2.24-5.4,1.26-4.13-.91,1.19-3.25,5.75-5.08,8.74-1.08,1.71-2.46,4.42-3.6,6.73-1.14,2.31-1.98,4.25-1.87,4.49,.3,.65-.26,2.52-2.23,6.56-.59,1.21,.14,.77-1.49,3.13-.89,1.29,.16-.92,.11-1.22-.06-.28-.03-.74,.54-1.93,.89-1.84,.34-.95-.58,.51-.96,1.46-2.25,3.55-2.61,3.74-1.07,.61-2.76,3.42-4.21,6.12-1.3,2.47-2.29,3.84-3.8,5.45-.51,.54-.93,1.04-1.27,1.5-.21,.26-.37,.52-.52,.78-.29,.53-.55,1.12-.95,1.71,.16-.06,.5-.34,.49-.18,0,.22-.21,.71-.23,.96-.02,.23,.15,.21,1-.76,.53-.61,.93-1.12,1.23-1.55,.31-.45,.57-.91,.77-1.28,.4-.76,.67-1.38,1.34-2.39l1.17-1.74c.32-.72,.73-1.3,1.22-1.79,4.4-5.93,4.51-6.1,2.75-2.44-.96,1.96-1.75,3.64-1.37,3.76,.56,.16,.29,.67-3.88,6.36l-.3-.31c-.41,.53-.8,.96-.96,1.09-.17,.13-.14,0,.11-.46,.6-1.13,.93-1.91-.4-.19-1.11,1.38-2.07,2.57-2.77,3.33-.35,.38-.63,.66-.83,.8-.05,.03-.09,.07-.14,.07l-.11-.24c-.07-.15-.11-.28-.13-.38-.09-.49-1.04-1.76-1.98-3.01-.47-.63-.95-1.25-1.32-1.77-.18-.26-.34-.49-.46-.68-.12-.19-.25-.42-.29-.54-.25-.74-.64-1.33-2.51-3.42-.84-.95-2.04-2.39-2.73-3.33-1.74-2.35-.07-.31,.57,.42,.55,.62,1.65,1.99,1.01,.95-.99-1.6-7.04-9.18-7.51-9.38-1.19-.5-3.6-3.78-5.76-6.49-2.51-3.15-5.02-6.32-7.52-9.45-2.8-3.56-4.02-4.83-3.48-3.48,.33,.84-.61-.24-1.91-1.93-1.65-2.15-3.57-4.47-4.53-6.17-.77-1.38-3.04-4.37-2.74-4.62,.28-.24-2.04-3.22-3.68-5.31-1.77-2.25-2-2.1-2.31-2.14-.15-.02-.29-.03-.61-.27-.17-.13-.85-.86-1.03-1.11-.89-1.22,.08-.18,.02-.39-.29-.99-2.21-3.54-3.28-4.36-2.09-1.62-2.89-3.17-3.66-4.56-.79-1.43-1.12-2.34-2.82-3.54-1.07-.77-2.78-2.68-5.17-5.72-1.32-1.69-2.78-3.42-4.18-5.12l-1.24-1.49-.52-.62c-.13-.16-.22-.25-.23-.25-.24,0,1.28,1.72,1.61,2.26,1.04,1.74,2.33,3.64,4.28,6.34,1.82,2.53,1.14,2.44,.61,2.37-3.12-3.43-6.24-6.76-9.51-11.33-.26-.36-.94-1.17-1.32-1.57-.6-.65-1.14-1.18-1.61-1.63-.05-.05,.36,.62,.68,1.03,2.71,3.44,5.05,6.59,6.19,8.62-1.77-2.02-3.57-4.1-5.29-5.99-.43-.48-.65-.5-.8-.52-.14-.02,.21,.45,.71,1.01l5.46,7.39c1.27,1.76-.18,0-.53-.37-.6-.66-1.3-1.43-1.96-2.15-.52-.57-1.5-1.77-.99-.92,.15,.24,.83,1.1,1.24,1.58,2.3,2.68,4.55,5.24,6.88,8.25,1.17,1.51,1.27,1.74,.65,1.24-2.05-1.62-1.97-1.57,1.88,3.27,1.56,1.96,3.09,3.99,4.5,5.89,1.92,2.59,3.61,4.43,5.36,6.45,1.27,1.48,1.82,1.6,2.01,1.86,1.32,1.83-.16,.37,.31,1.23,.38,.69,1.14,1.77,2.15,2.9,1.25,1.41,2.56,2.86,3.57,3.89,1.63,1.65,2.32,2.69,3.07,3.96,.31,.52,.97,1.44,1.69,2.23,.95,1.05,.99,.85,1.07,.72,.08-.12,.12-.31-1.31-2-1.48-1.74-2.83-3.42-3.49-4.61-.33-.58-1.02-1.64-.27-.93,.54,.51,1.27,1.5,1.93,2.36q5.16,6.8,8.55,9.93c.14,.13,.28,.25,.4,.35,.53,.42,1.36,1.35,2.33,2.58,1.02,1.3,1.64,2.27,1.36,2.16-.92-.37,1.66,2.76,3.3,4.96,2.09,2.81,3.99,5.09,5.63,6.61,2.12,3.06,3.74,4.8,5.12,5.92,.23,.19,.68,.66,1.02,1.01,.05,.22,.12,.46,.14,.63,0,.05-.13-.05-.25-.14-.5-.4-.98-.76,.33,.92,.83,1.06,2.05,2.57,2.02,2.19-.03-.38,1.1,.85,1.98,1.73,.89,.88,1.25,1.32,1.88,2.36l.29,.46,.14,.22,.2,.29,.78,1.08c.51,.69,.99,1.31,1.47,1.87,.95,1.13,1.85,2.03,2.82,2.86,.71,.61,1.09,.79,1.68,1.24l.23,.18,.24-.42c.17-.3,.36-.61,.59-.97,.45-.71,1.04-1.57,1.89-2.73,.98-1.33,1.8-2.38,2.48-3.2,.55-.67,.93-1.07,1.21-1.28,.4-.3,.43-.03,.62,0l-1.12,1.64c-.5,.7-.96,1.38-1.24,1.89-.6,1.1-.48,1.22-.13,1.01,.35-.2,.93-.71,1.12-.69,.14,0-1.41,2.37,.92-.71,.52-.68,.75-1.05,1.06-1.53,.29-.46,.54-.88,.63-1.07,.65-1.43,1.64-3,3.56-5.72,0-1.01,2.05-3.32,3.22-5.16,.76-1.21,1.57-2.52,2.23-3.66,.63-1.07,1.06-1.98,1.56-2.98l-1.72,2.66c-2.06,3.26-3.39,5.18-3.8,4.99-.39-.16,.5-1.83,2.72-5.31,1.65-2.58,1.6-3.29,2.88-5.48,.88-1.53,.63-1.96,2.31-4.25,.93-1.27,.42-.14-.33,1.4-1.58,3.17-.58,2.23-.24,2.32,.36,.09,2.18-2.9,3.6-5.12,.27-.75,.65-1.38,1.11-1.89,.25-.52,.74-1.47,.71-1.49q-.33-.21,1.72-4.36c.33-.67,.09-.62,.4-1.29,1.33-2.9,2.2-5.34,4.85-9.68-.72,1.88-1.1,3.16,.01,1.78,.26-.32,.91-.91-.21,.87-3.09,4.89-2.42,4.73-3.05,6.34,1.71-2.9,3.73-6.15,4.72-8.71,1.08-2.76,1.52-3.06,2.3-4.13,.35-.49,.87-1.27,1.35-2.34,.33-.74,.77-1.83,.63-1.68-2.17,2.34,.43-3.31,2.57-8.25,1.72-3.98,1.65-3.89,4.09-7.63Zm2.29-8.96c.48-.96,.88-1.5,1.21-1.84-.19,.46-.32,.92-.65,1.62-.64,1.35-.88,1.5-.91,1.38-.04-.11,.09-.62,.35-1.16Zm-96.69,21.39c.8,1.03,1.89,2.31,2.12,2.86,.17,.43-2.78-2.61-4.08-4.23-1.91-2.37-1.83-2.75-1.74-2.86,.26-.32,2.37,2.63,3.71,4.23Zm-11.46-13.71c.75,.9,1.08,1.42,1.16,1.68-.26-.26-.66-.63-.77-.77-.35-.46-.64-.91-.86-1.26-.32-.51-.13-.37,.47,.35Zm3.08,5.3c-.79-.65-1.59-1.31-2.39-1.96-.79-1.4-3.33-4.7-2.75-4.61,1.83,2.27,3.91,4.49,5.47,6.83l-.33-.26Zm.37-.01c-.16-.7-1.58-2.94,.53-.84,.68,1.32,1.64,2.99,1.93,3.86,.2,.6-1.35-1.31-2.48-2.72,.01-.09,.06-.14,.02-.29Zm6.31,11.67c-1.01-1.18-1-.63-2.8-3.39-1.8-2.73-3.08-4.69-.81-2.51,.67,.84,1.37,1.71,2.02,2.52,1.2,1.45,3.13,3.48,3.13,4.03,0,.37,2.68,4.31-1.54-.66Zm4.42,4.56c-1.67-2.8-.19-1.91-2.27-5.19-.39-.61,.11-.45,1.75,1.59,.93,1.16,1.88,2.51,1.68,2.5-.59-.02,.79,2.26,1.58,3.86,.31,.62,.02,.59-1.41-1.07-.25-.59-.73-1.15-1.34-1.69Zm21.67,25.93c-1.4-1.91-2.3-3.3-2.09-3.48,.26-.21,1.22,.54,3.05,2.48,.6,.64,1.33,1.64,1.45,1.96,.39,1.07-1.23-.32-.34,1.34-.34-.08-1.28-1.23-2.07-2.3Zm3.62,.59c.17,.15,.83,.95,1.23,1.45,.65,.81,1.44,1.83,1,1.5-.6-.45,.2,.74,.22,1.01-.79-.95-1.58-1.89-2.38-2.84-.04-.39-1.08-2.01-.07-1.11Zm5.75,8.02c-.82-.77-2.36-2.4-3.19-3.92,.87,.98,1.47,1.57,1.72,1.66,.46,.16,1.59,1.48,3.02,3.24-.48-.27-.71-.2-1.55-.97Zm1.63,1.05c-.09-.2-.17-.39-.3-.63-.47-.87-.91-1.73,.39-.39,.64,.66,.06,0,.29,.44,.42,.83,2.25,3.45-.38,.58Zm21.16,12.1c-.27,.24-.32,.15-.45,.17,.61-.81,1.05-1.31,1.08-1.17,.02,.12-.45,.85-.62,1Zm30.82-54.93c-.56,1.08-1.32,2.26-1.92,3.2-.53,.83-.48,.51-.21-.2,.68-1.73,1.9-4.39,1.96-5.13,.05-.66,.58-1.79,1.83-4.13,1.85-3.45,.9-1.01,1.48-1.9,.16,.46-1.79,5.56-3.15,8.15Z"/><path class="cls-1" d="M98.45,7.68c-.78,.65-1.66,1.38-2.48,2.06-.49,.4-.95,.79-1.37,1.14-.47,.39-.9,.72-1.25,.98-1.03,.76-.63-.04-.82-.19,1.56-1.33,2.76-2.35,3.66-3.11,.84-.71,1.38-1.2,1.7-1.54,.63-.66,.42-.74-.52-.41-1.4,1.06-2.04,1.4-.69,.05,2.07-2.07,2.18-2.35,.01-.78-.9,.66-.63,.14-.81,.07,.97-.73,1.94-1.46,2.91-2.2,.69,.94,1.4,1.9,2.11,2.86,.41,.56,1.06,1.45,1.31,1.73,.51,.57,.67,.68,.72,.67,.04-.02,0-.17-.15-.41-.77-1.32-1.55-2.66-2.76-4.49-.29-.45-.68-.97-1.13-1.55-1.42,1.12-3.34,2.82-5.05,4.32l-.85,.76-.58,.54c-.37,.35-.69,.66-.93,.92-.49,.52-.69,.82-.37,.72,.32-.09,.58-.11-.81,1.14-1.39,1.25-1.63,1.24-1.86,1.26-.51,.05-2.92,2.53-3.92,3.2-1.05,.69-2.47,1.74-3.72,2.64-1.66,1.86,.49,.16,.24,.7-.18,.38-.29,.79-1.93,2.33-3.17,3-1.56,1.92-1.86,2.46-2.15,1.88-3.98,3.03-6.6,6.19-.98,1.2-2.92,2.99-4.44,4.55-3.97,4.06-6.4,7.35-5.64,7.34,.12,0,.81-.57,1.4-1.09,.95-.83,1.54-1.62,1.6-1.81,.15-.52,2.61-3.09,2.12-3.04-.38,.04,1.53-1.92,2.56-2.94,1.36-1.36,1.32-1.03,1.24-.78-.36,1.06,1.47-.25,3.58-1.76-2.81,2.98-4.54,5.14-5.86,6.98,.73-.73,1.47-1.48,2.2-2.18,1.03-.98,2.23-2.1,1.94-1.56-.11,.2-1.13,1.28-1.8,1.98-.69,.7-1.44,1.46-2.16,2.2l3.02-2.44c-2.48,2.31-5.17,5.6-6.72,6.86-1.69,1.36-1.91,.93-2.69,1.21-.21,.07,0-.3-.16-.29-.22,.02-.81,.42-1.97,1.69-.88,.96-1.87,2.12-2.32,2.76-.46,.65-.81,1.31-.41,1.01,2.6-1.92-.94,1.8-3,4.28-1,1.2-1.87,2.06-2.82,3.11-.86,.95-1.09,1.36-1.04,1.47,.05,.11,.38-.12,1.27-1.11,.95-1.08,1.9-2.17,2.86-3.22,.76-.83,1.41-1.42,1.33-1.14-.36,1.25-4.11,5.72-7.42,9.01-.62,.61-.46,.02-1.79,1.77-.34,.45-.03,.33,.06,.39,.48,.34,5.15-4.91,7.01-6.28,1.42-1.05,2.49-2.3,3.57-4.18,.44-.75,.73-1.12,1.85-2.12,.73-.65,1.38-1.17,2.42-2.48,4.27-5.43,8.31-9.05,12.43-12.44,3.06-2.53,3.86-3.29,3.69-3.97-.17-.68,3.71-4.36,5.73-6.57,1.35-1.48,1.97-1.54,3.46-2.85,.83-.72,1.48-1.11,2.2-1.65,.58-.73,1.57-1.84,1.63-2.1,.07-.27-.77,.25-1.23,.45l4.52-4.27,1.19-.95-.63,.35c.05-.14,.04-.3,.17-.41l1.66-1.46,1.37-1.18c.58-.48,1.14-.95,1.71-1.49l.44,.45c.47,.47,.68,.92,.58,.92-.12,.03-.09,.3-.19,.38-.09,.08-.28,.02-.74-.48l-.17-.18c-.52,.53-.44,.66-.37,.79,.06,.09,.17,.11,.3,.08,.1,.23,.2,.43,.32,.59,.15,.19,.12,.09,.53,.46,.27,.21,.37,.18,.5,.2,.34,.05,2.41,2.23,1.32,.51-1.25-1.96,.16-.58,1.41,.54,.92,.83,1.04,.68,.55-.15-.24-.42-.65-1-1.18-1.72l-.9-1.17-.78-.98c-.61-.75-1.19-1.42-1.48-1.97-.01,0-.02,.01-.03,.01Zm-27.95,28.22c-.54,.49-.44,.31-.29,.05,.23-.39,.26-.61,.37-.89,1.23-1.08,1.74-1.4,1.41-.82-.17,.3-.59,.84-1.48,1.66Zm12.18-15.1l-1.34,1.19-.55,.49c-.14,.12-.23,.19-.23,.19-.18-.27-1.28,.47-3.8,2.84-1.59,1.47-3.32,3.18-3.76,3.23-.58,.06,1.8-2.23,3.32-3.8,1.09-1.13,.95-1.2,1.02-1.46,1.77-1.84,3.49-3.67,5.61-5.28,.71-.54,2.17-1.86,1.59-1.06-.9,1.24-.49,1.25,.63,.64,1.12-.6-2.09,2.33-2.48,3.01Z"/><path class="cls-1" d="M270.35,29.9c.81,.43,2.15,1.3,3.29,2.06,2.03,1.37,4.73,3.47,5.83,4.04,.87,.45-1.67-1.72-.67-1.33,.49,.19-.29-.63-.52-1.01-2.31-1.81-3.28-2.77-2.97-2.92-2.22-1.48-2.86-1.62-3.57-1.92-1.6-.64-3.35-2.88-4.32-2.78-.34,.03-.87-.07-2.27-.77-2.93-1.43-6.56-3.62-10.4-5.81-2.51-1.45-5.04-2.86-7.51-4.21-1.83-.97-3.56-2.1-5.43-2.82-3.15-1.26,.97,.8,.37,.71-.3-.04-1.11-.31-1.89-.62-.72-.29-1.5-.6-2.28-.91-.73-.19-1.67-1.04-1.85,.11-.86,1.77-1.42,3.11-.68,2.29,.37-.4,.76-1.01,1.15-1.71,.12-.57,.57-.17,.91-.08,.36,.13,.71,.25,1.03,.36,.48,.16,.96,.31,1.45,.48,.56,.2,1.11,.39,1.65,.59,1.11,.38,2.16,.78,3.25,1.19,1.03,.38,1.95,.74,3.37,1.59,1.18,.7,1.8,1.16,1.74,1.3-.04,.09-.62-.11-1-.2-1.33-.28-1.44-.21,2.91,2.04,2.49,1.29,5.07,2.81,5.42,3.51,.26,.52,2.21,1.43,3.47,2.16,1.22,.69,2.23,1.19,1.66,.65-.32-.3-1.02-.83-1.69-1.32-1.09-.81-3.04-2.03-1.88-1.59,.95,.35,3.04,1.64,4.26,2.5,2.98,2.13,4.97,3.26,7.16,4.43Z"/><path class="cls-1" d="M43.81,59.77c-1.23,1.51-2.08,2.7-2.66,3.61-.58,.91-.93,1.57-1.26,2.22l-.07,.14c.79,.62,1.17,.93,1.61,1.44,.22,.25,.45,.55,.75,.96,.34,.47,.77,1.05,1.32,1.81,.92,1.14,.92,1.25-.2,.1,.22,.57,1.02,1.85-1.91-1.49,.49,1.19-.57,.73,1.49,3.57-.18,.02-.31,.07-.49,.09-.18,.02-.23,.23,.6,1.23,1.19,1.43,2.27,2.45,3.2,3.25,2.95,2.56,4.18,3.92,6.24,6.95,.46,.68,.43,.88,1.56,2.17,.66,.75,1.46,1.63,2.07,2.26,.77,.78,.97,.83,.59,.26-.45-.67-.9-1.36-1.58-2.25-4.93-6.39-5.96-8.7-3.93-7.85,.29,.12,.25-.14,.42-.17,.52-.11-1.51-2.42-3.94-5.08-.44-.35-.12,.27-1.37-1.14-.14-.16-.11-.37-.14-.56-.75-.76-1.69-1.97-2.55-3-.5-.59-.66-.78-.94-1.04-.26-.23-.51-.38-.75-.42-.42-.44-.73-.81-.96-1.1,1.03-1.09,1.62-1.41,2.51-2.31-.05-.2-.24-.25-.33-.4-.04-.08-.06-.19-.01-.37,.02-.09,.07-.2,.13-.34,.08-.15,.19-.33,.32-.54,1.29-2.02,.56-1.74,.29-1.99Z"/><path class="cls-1" d="M52.64,81.79c.99,1.62,2.16,3.39,5.24,6.87,3.79,3.72,7.58,7.43,11.36,11.15-1.34-1.72-1.33-1.92,.47-.1,.17-.12,.43-.13,.47-.4,.01-.12-.3-.64-1.28-1.67-.43-.45-.96-.97-1.15-1.1-.33-.23-.56-.32-.61-.23-.18,.32-.72-.03-3.41-3.32-1.28-1.56-3.21-3.68-4.45-4.68-2.2-3.03,.05-1.24-.21-2.17-.06-.2-.34-.58-.88-1.13-.42-.43-1.15-1.14-1.12-1.08,.71,1.58-1.5-.32-3.92-2.45-1.19-1.05-1.06-.62-.5,.31Z"/><path class="cls-1" d="M75.63,321.9c.06,.12,.66,.54,1.08,.72,1.49,.65,2.93,1.08,2.75,.9-.92-.91,1.54,.1,4.9,1.63,.71,.32,1.52,.55,2.29,.84-3.01-1.6-3.76-2.24-3.07-2.35,.53-.07-.7-.72-3.35-1.78-1.25-.49-2.69-1.17-4.02-1.7-2.36-.97-8.69-2.9-8.47-2.61,.34,.46,1.83,1.27,5.04,2.64,2.44,1.06,2.69,1.4,2.84,1.71Z"/><path class="cls-1" d="M138.18,325.09c.04,.17,.27,.14-.51,1.33-.89,1.36-1.56,2.12-1.95,2.43-1.57,2.53-2.55,4.31-2.37,4.62,.1,.15,.2,.3-.74,1.89,.02,.35,.03,.7,1.87-2,1.53-2.26,2.53-3.9,3.52-5.78,1.89-3.54,1.07-1.36,1.7-2.22,.51-.7,1.12-1.62,1.68-2.47-.41,.03,.2-1.41,1.23-3.48,.78-1.58,.64-1.7-1.06,.81-1.11,1.66-2.23,3.26-3.36,4.87Z"/><path class="cls-1" d="M101.99,138.5c-.22-.27-1-1.03-1.22-1.21-.2-.15-.13,.12,.07,.34,3.17,3.75,4.45,6.16,8.59,10.39,1.9,2.13,3.38,3.84,4.81,5.38,1.83,1.96,3.33,3.36,3.39,3.01,.06-.32-1.45-2.06-2.96-3.79-4.15-4.75-8.68-9.25-12.67-14.13Z"/><path class="cls-1" d="M261.49,110.69c.68-1.51,.83-2.19,1.86-4.29,2.86-5.81,2.82-5.77,.66-2.95-.61,.8-1.23,1.69-1.3,1.39-.07-.32-.96,1.36-1.6,2.59-.51,.98-.99,2.06-.63,1.63,1.7-2.08,.71,.54-.14,2.92-.19,.52-.24,.83-.33,1.17l.63-.73c.28-.58,.62-1.24,.84-1.73Z"/><path class="cls-1" d="M69.22,100.91c-.54-.4-1.14-.9-.13,.39,.95,1.21,1.58,1.81,2.45,2.61,1.32,1.22,2.87,2.76,3.77,3.39,1.67,1.18,.71-.41-2.68-4.32-.92-1.03-1.88-2.11-2.82-3.17l-.47,.11c1.62,2.14,.94,1.77-.12,.98Z"/><path class="cls-1" d="M85.51,115.02c.28,.44,1.69,1.94,1.51,1.66-1.64-2.54,1.84,1.51,2.94,2.53,1.22,1.13,1.6,1.33,1.08,.3-.22-.43-.02-.44,.03-.59,.08-.21-.49-1.11-1.8-2.55-1.33-1.46-2.06-1.93-2.34-2.01-.65-.18,.48,1.67-2-.61,.2,.47,.2,.68,.58,1.28Z"/><path class="cls-1" d="M255.95,119.55c.89-1.93,1.51-3.52,.91-2.88-.85,.91-2.07,2.55-3.33,4.29-.7,.98-1.45,2.66-1.47,2.92-.02,.44,.42,.06-.15,1.5,.08,.03,.14,.14,.28,.09,.57-.17,2.92-5.06,3.75-5.92Z"/><path class="cls-1" d="M226.32,32.86c.17,.48,.4,.84,.08,2.23-.34,1.46,1.13-.92,2.6-3.39,.68-1.15,2.25-4.73,1.83-4.09-2.57,3.94-1.22-.04-3.51,3.37l-1.01,1.89Z"/><path class="cls-1" d="M85.64,118.17c-.36,.1-.54,.05-.57,.17-.04,.16,0,.43,1.24,1.82,.75,.84,1.23,1.24,1.63,1.55,.38,.29,1.05,.92,1.38,1.16,1.11,.78,1.49,.75-.24-1.53-.25-.33-.88-1.06-1.2-1.39-2.27-2.31-2.2-1.78-2.26-1.78Z"/><path class="cls-1" d="M230.69,24.32c-1.04,2.17-.97,2.55,.08,.91,1.34-2.11,3.17-5.57,4.38-7.18,.46-.61,.83-1.52,1.07-2.2-.47,.49-.95,.96-1.54,1.64-1.04,1.23-2.42,3.59-3.98,6.82Z"/><path class="cls-1" d="M272.61,89.77c-.17-.46,1.84-4.44,1.65-4.84-1.04,2.02-1.84,3.9-3.31,6.15-1.06,1.63-1.76,3.12-1.54,3.19,.14,.03,.46-.28,.25,.38-.29,.95,.19,.36,1.31-1.57,.78-1.36,1.7-3.16,1.64-3.31Z"/><path class="cls-1" d="M84.04,120c1.24,1,2.83,2.75,4.58,4.72,.88,1,2.2,2.5,2.5,2.63,.18,.08-.97-1.37-1.46-2.08-.5-.72-1.69-2.29-1.97-2.4-1.09-.42-3.55-3.66-5.24-5.4-1.01-1.03-1.93-1.97-1.86-1.66,.05,.26,.53,.97,1.5,2.12,.74,.87,1.51,1.69,1.96,2.06Z"/><path class="cls-1" d="M305.52,260.35c-.32-.35-.68-.76-.96-1.04-.72-.74-1.31-1.27-.83-.33,.2,.39,.97,1.53,1.51,2.25,1.56,2.13,2.15,2.64,2.45,2.67,.09,.01,.16-.02,.24-.03,.02-.23,.53,.18-.08-.93l-2.33-2.58Z"/><path class="cls-1" d="M237.13,10.1c.11-.07-.04-.22-.37-.44-.3-.14-.96-.84-1.19-.05-.68,1.05-1.54,2.36-2.11,3.25-.18,.27-.35,.55-.49,.82-.12,.23-.2,.42-.28,.62-.15,.4-.25,.75-.34,1.02-.42,1.27,.92-.92,1.52-1.62,.35-.41,.6-.45,1.66-2.57,.48-1.93,1.62-.76,1.59-1.03Z"/><path class="cls-1" d="M57.57,44.6c1.42-1.6,1.28-1.74,1.14-1.82-.17-.09,1.45-2.09-.4-.38-.49,.46-1.58,1.63-2.05,2.2-1.02,1.24-.79,1.29-.91,1.73,.24-.13,.52-.23,.99-.56,.18-.13,.93-.84,1.23-1.17Z"/><path class="cls-1" d="M106.3,334.72c.4-.03-.39-.86-1.23-1.27-2.04-1.02-4.28-1.88-4.16-1.67,.18,.37,1.93,1.49,3,2.31l2.38,.63Z"/><path class="cls-1" d="M91.44,228.86c1.27-1.91,2.34-3.71,3.11-5.16,.3-.57,.28-.75,.26-.89,0-.03-.63,.87-.71,.98-1.2,1.89-2.17,3.41-3.13,4.92-.96,1.54-2.78,4.08-2.52,4.25,.18,.11,1.78-2.27,3-4.11Z"/><path class="cls-1" d="M267.55,24.34c-.21-.28-1.14-.89-1.89-1.37-3.49-2.2-5.91-3.34-6.2-3.06-.04,.04,.59,.47,.91,.72,2.41,1.19,4.81,2.43,7.18,3.72Z"/><path class="cls-1" d="M49.36,73.81c.49,.41,.19-.11-.48-.91-.8-.95-1.45-1.5-1.61-1.54-.46-.11-.76-.03-1.11-.02l1.39,1.58c3.25,3.37,.6-.12,1.81,.89Z"/><path class="cls-1" d="M50.6,315.63c-.08,.14-.37,.22-.15,.47,.18,.21,1.2,.7,2.55,1.18,1.39,.49,1.57,.37,1.74,.29,.45-.18,.48-.51-4.14-1.94Z"/><path class="cls-1" d="M103.53,18.12c-.48-.49-.64-.6-.36-.16l.81,1.21c1.72,2.26,2,2.03,3.35,3.62,.94,1.11,2.76,3.37,2.35,2.5-.34-.73-1.91-2.26-2.95-3.58-1.11-1.4-2.21-2.58-3.19-3.6Z"/><path class="cls-1" d="M112.88,19.28c.15,0-.22-.62-.85-1.41-1.86-2.3-2.56-2.67-3.91-4.09-.66-.69,.6,.87,1.02,1.43,1.7,2.09,3.3,4.09,3.75,4.07Z"/><path class="cls-1" d="M311.92,266.55c-.18,.08-.29-.55-.78,2.06-.38,1.66-.23,1.85-.11,2.02,.15-.06,.24,.58,.85-2.07,.32-1.75,.2-2.09,.04-2.01Z"/><path class="cls-1" d="M97.63,135.46c-.12-.03,.38,.64,1.07,1.44,1.24,1.44,3.17,3.23,2.95,2.73-.13-.3-.69-1.02-1.47-1.88-1.37-1.51-2.31-2.42-2.55-2.29Z"/><path class="cls-1" d="M245.91,13.43c-.13-.26-1.36-.91-2.74-1.55-.82-.38-1.43-.62-1.85-.76-.44-.15-.8-.24-.87-.19-.09,.04,.03,.18,.41,.41,.35,.22,.86,.49,1.71,.87,1.72,.76,3.01,1.3,3.35,1.23Z"/><path class="cls-1" d="M105.3,204.66c.49-.97,.2-.92-1.05,.76-.98,1.3-2.05,2.88-3,4.43-.42,.69-.53,.94-.05,.5,.34-.15,1.47-2.06,2.37-3.34,.6-.86,.94-.77,1.73-2.34Z"/><path class="cls-1" d="M251.16,16.36c1.07,.39,1.97,.67,2.95,1l-.42-.43c-.57-.27-1.33-.67-1.66-.8-1.14-.44-2.21-.8-3.17-1.09-.24-.07-.22,.05,.08,.24,.89,.55,1.75,.9,2.22,1.08Z"/><path class="cls-1" d="M221.58,45.23s.16-.23,.34-.53,.39-.66,.5-.89c1.13-2.23,1.39-3.1,1.31-3.41-.31,.37-.88,1.25-1.24,2.03-.8,1.74-1.08,2.66-.92,2.8Z"/><path class="cls-1" d="M53.5,80.65c.89,.98,.93,.7,1.08,.66,.2-.04,.35-.13,.47-.26,.02-.02-.21-.32-.32-.49-.31-.3-.79-.79-.9-.86-.28-.17-.39-.13-.52-.16-.07,.08-.12,.13-.16,.19-.08,.11-.45,.03,.35,.92Z"/><path class="cls-1" d="M119.14,182.49c.39-.84-.52,.31-1.36,1.5-.89,1.24-1.57,2.32-.83,1.57,.58-.58,.76-.49,2.11-2.34,1.04-1.61-.19-.12,.09-.72Z"/><path class="cls-1" d="M275.99,324.67c1.14-.58-.86,.8,1.55-.58,.83-.52,1.48-1.12,1.68-1.38,.1-.13-.94,.33-1.54,.68-1.96,1.09-1.29,.9-1.68,1.29Z"/><path class="cls-1" d="M111.28,19.56c-.71-.85-1.31-1.5-1.47-1.51-.28-.02,.49,1.1,1.69,2.58,.3,.37,.79,.74,1.12,1.03-.06-.33-.11-.62-1.33-2.1Z"/><path class="cls-1" d="M294.89,52.54c-.1,.6-.27,1.18-.3,1.42-.04,.23,.1,.14,.47-.75,.33-.78,.66-2.29,.47-3.63-.07-.05-.16-.2-.21-.07-.07,.19-.13,.58-.23,.87,.05,.76-.11,1.69-.21,2.16Z"/><path class="cls-1" d="M286.27,318.06c-.04,.28,.84-.25,2.64-1.77,.52-.47,1.01-.98,1.8-1.75l-1.95,1.48c-.63,.48-1.29,.9-1.93,1.34-.2,.24-.55,.61-.57,.7Z"/><path class="cls-1" d="M143.37,67.45c-.28-.13-.24,.12,.72,1.42,.75,1,1.3,1.56,1.57,1.74,.43,.29-.1-.53-.87-1.6-.85-1.17-1.1-1.3-1.42-1.56Z"/><path class="cls-1" d="M97.37,132.73c-.95-1.02-1.86-1.92-1.94-1.77,0,.02,.17,.24,.4,.52l.72,.85c.93,1.04,1.92,2.15,2.18,2.16-.12-.3-.6-.94-1.36-1.76Z"/><path class="cls-1" d="M58.82,91.68c-.32-.14,.37,.69,1.1,1.49,.66,.72,1.55,1.66,1.93,1.98,.52,.44,.08-.22-.6-1.02-1.04-1.23-1.85-2-2.43-2.44Z"/><path class="cls-1" d="M289.04,240.4c-.41-.39-.59-.46,.17,.61,.87,1.16,1.26,1.49,1.39,1.5,.12,0-.1-.43-.16-.67-.47-.49-1-1.07-1.4-1.44Z"/><path class="cls-1" d="M73.47,100.4c-.07-.24-.52-.76-.81-.93-.35-.2-.47-.13-.57-.05-.04,.02,.29,.44,.52,.78,.9,.72,.96,.55,.87,.2Z"/><path class="cls-1" d="M306.32,287.93c.04-.36-.34,.23-.82,1.22-.66,1.32-.59,1.44-.57,1.63,.14-.07,.21,.12,.91-1.46,.24-.55,.46-1.21,.49-1.39Z"/><path class="cls-1" d="M248.29,19.6c-.14,.04,.14,.31,1.44,.97,.89,.45,1.49,.69,1.53,.6-.27-.28-.84-.71-1.77-1.19-.53-.27-1.07-.41-1.2-.38Z"/><path class="cls-1" d="M115.28,33.25c-.41-.27,.04,.45,1.11,1.77,.63,.77,1.2,1.37,1.33,1.35,.11-.04-.2-.54-.87-1.41-.78-1.02-1.34-1.57-1.57-1.71Z"/><path class="cls-1" d="M87.59,21.63c.27-.14,.79-.58,1.35-1.14,.69-.7,1.17-1.25,.61-.88-.24,.16-.89,.73-1.28,1.06-.83,.83-1.04,1.14-.68,.95Z"/><path class="cls-1" d="M171.72,270.45c.08-.06,.49-.72,.7-1.15,.51-1.02,.87-1.88,.65-1.73-.08,.06-.47,.76-.7,1.14-.57,1.15-.87,1.9-.66,1.74Z"/><path class="cls-1" d="M78.23,113.32c-.03-.1-.62-.84-.97-1.23-.73-.8-1.38-1.43-1.23-1.08,.06,.14,.64,.82,.93,1.18,.89,.98,1.37,1.39,1.27,1.13Z"/><path class="cls-1" d="M50.81,73.98c.13,0,.05-.22,.07-.35-1.26-1.35-1.49-1.4-2.01-1.82-.56-.46-.23,.03,.53,.88,.8,.9,1.27,1.28,1.42,1.29Z"/><path class="cls-1" d="M272.84,32.3c1.51,1.01,1.66,.96,1.77,.86l-.7-.66c-.68-.34-1.41-.7-1.99-.96-.07-.03,.62,.56,.92,.76Z"/><path class="cls-1" d="M53.24,288.03c-.33,.55-.75,1.2-.96,1.61-.22,.45-.39,.94-.33,.95,.1,.02,.49-.64,.79-1.32,.21-.48,.33-.83,.5-1.24Z"/><path class="cls-1" d="M58.01,313.65c.1-.02-.38-.26-.6-.4l-1.26-.22,.78,.5c.38,.05,.92,.16,1.08,.12Z"/><path class="cls-1" d="M63.48,86.88c.06-.06-.14-.42-.23-.65-.29-.25-.76-.69-.82-.69-.1,.02,.05,.32,.1,.55,.44,.37,.91,.82,.94,.79Z"/><path class="cls-1" d="M235.86,178.41c.04,.1,.44,.59,.68,.9,.2,.09,.48,.26,.57,.23,.03-.01-.39-.54-.56-.77-.75-.73-.79-.62-.69-.36Z"/><path class="cls-1" d="M262.67,113.35c-.8,1.52-1.07,2.26-.97,2.39,.04,.05,.3-.21,.54-.61,.71-1.18,.8-1.6,.78-1.76-.02-.18-.22-.03-.35-.03,.82-1.63,.61-1.4-.1-.24l.09,.24Z"/><path class="cls-1" d="M149.54,72.52c-.13-.04-.42-.2,.52,.96,.17,.21,.4,.32,.61,.47l-.33-.7c-.28-.26-.7-.7-.8-.73Z"/><path class="cls-1" d="M85.99,235.35c.04-.15-.31,.24-.58,.63-.49,.71-1.05,1.57-1.58,2.39,.33-.36,.6-.63,1-1.12,.45-.55,1.03-1.42,1.17-1.9Z"/><path class="cls-1" d="M244.62,188.35c-.34-.23-.07,.22,.77,1.18,.67,.76,1.42,1.55,1.54,1.5,.04-.02-.4-.6-.62-.92-.73-.87-1.37-1.55-1.69-1.76Z"/><path class="cls-1" d="M288.29,54.12c-.18,.08-.72,1.02-1.14,1.9-.2,.43-.18,.57-.26,.84,.21-.19,.52-.7,.86-1.45,.23-.51,.6-1.32,.54-1.29Z"/><path class="cls-1" d="M56.87,80.65c.09-.02,.19-.07-.7-1.04-.22-.24-.42-.31-.67-.49,.17,.28-.19,.06,.75,1.08,.23,.25,.56,.46,.62,.45Z"/><path class="cls-1" d="M293.15,44.52c-.03-.11-.44-.6-.65-.85-.96-.82-.91-.59-.91-.46,0,.04,.36,.44,.45,.52,.97,.88,1.17,1.01,1.11,.79Z"/><path class="cls-1" d="M43.49,63.35c.08,.1,.02,.38,.71-.31,.21-.21,1.26-1.63,1.19-1.64-.1-.02-.41,.29-.8,.72l-1.09,1.23Z"/><path class="cls-1" d="M266.29,213.41l-1.33-2.11c-.4-.66-.81-1.41-1.76-2.42-.58-.62-.83-.62-.93-.53-.19,.15,1.12,1.92,2.26,3.41,1.8,2.35,1.57,1.68,1.8,1.73,.68,.79,1.38,1.65,2.01,2.36,.33,.37,.78,.77,.73,.65-.14-.39-.85-1.22-1.41-1.79-.52-.53-.92-.87-1.38-1.29Z"/><path class="cls-1" d="M145.16,68.42c.23,.45,.89,1.3,1.53,2.06,.31,.37,.58,.62,.84,.88-.23-.46-.91-1.31-1.53-2.06-.31-.37-.87-.95-.84-.89Z"/><path class="cls-1" d="M272.22,220.24c-.1,0-.17,.1,.65,1.08,.21,.25,.42,.35,.63,.52-.04-.18,.19-.07-.65-1.09-.23-.27-.55-.53-.62-.52Z"/><path class="cls-1" d="M289.12,46.44c-.04,.11,.38,.58,1.02,1.29,.22,.26,.45,.42,.71,.73-.27-.52-.62-1.03-1.02-1.53-.24-.18-.7-.55-.71-.5Z"/><path class="cls-1" d="M257.25,114.13c-.2,.25-.36,.41-.61,.76-.34,.48-.66,1.09-.79,1.47-.19,.57,.13,.13,.63-.68l.76-1.54Z"/><path class="cls-1" d="M175.38,106.98c-.11-.04,.33,.59,.55,.94,.52,.57,1.39,1.56,1.46,1.59,.1,.03-.37-.63-.6-1-.51-.55-1.35-1.51-1.42-1.54Z"/><path class="cls-1" d="M275.71,222.14c1.24,1.55,.92,.9,1.18,1.07l-1.27-1.59c.01,.17-.04,.36,.09,.52Z"/></svg>